<!--?xml version="1.0" encoding="UTF-8" standalone="no"?-->
<svg viewBox="0 0 17 16" version="1.1" xmlns="http://www.w3.org/2000/svg" xmlns:xlink="http://www.w3.org/1999/xlink" class="si-glyph si-glyph-ladder-pool">
    <!-- Generator: Sketch 3.0.3 (7891) - http://www.bohemiancoding.com/sketch -->
    <title>669</title>
    
    <defs></defs>
    <g stroke="none" stroke-width="1" fill="none" fill-rule="evenodd">
        <g transform="translate(1.000000, 1.000000)" fill="#434343">
            <path d="M2.16750785,8.982 C1.27715491,8.982 0.560919614,8.644 0.200449026,8.358 C0.000919614,8.199 -0.0254333272,7.917 0.141154908,7.724 C0.307743143,7.535 0.602331379,7.51 0.800919614,7.665 C0.853625496,7.706 2.06115491,8.611 3.67056667,7.633 C5.81833138,6.325 8.16468432,7.57 8.26444903,7.622 C8.28233138,7.631 10.2042137,8.635 11.9397431,7.629 C14.2089196,6.309 15.8070373,7.618 15.8729196,7.676 C16.066802,7.84 16.0865667,8.123 15.9143314,8.31 C15.7392726,8.498 15.4418608,8.513 15.2489196,8.349 C15.2075078,8.314 14.0950373,7.43 12.4291549,8.397 C10.2155078,9.681 7.89833138,8.457 7.80044903,8.405 C7.78068432,8.393 5.84280197,7.374 4.17503726,8.392 C3.46350785,8.826 2.77456667,8.982 2.16750785,8.982 L2.16750785,8.982 Z" class="si-glyph-fill"></path>
            <path d="M2.17499173,11.994 C1.02675643,11.994 0.265344668,11.428 0.218285845,11.39 C0.0102858446,11.232 -0.0311259202,10.935 0.126991727,10.728 C0.285109374,10.519 0.577815256,10.48 0.783932903,10.634 C0.841344668,10.676 2.06299173,11.553 3.68652114,10.603 C5.81922702,9.357 8.14863879,10.541 8.24746232,10.592 C8.26534467,10.601 10.2051094,11.576 11.9556976,10.599 C14.2098153,9.341 15.7891094,10.59 15.8559329,10.644 C16.0582858,10.809 16.0902858,11.107 15.9274623,11.31 C15.7646388,11.515 15.4681682,11.545 15.2648741,11.382 C15.22158,11.348 14.0940506,10.49 12.4121682,11.427 C10.2173447,12.652 7.91428584,11.485 7.81452114,11.434 C7.79663879,11.425 5.84181526,10.436 4.1599329,11.423 C3.42863879,11.85 2.75287408,11.994 2.17499173,11.994 L2.17499173,11.994 Z" class="si-glyph-fill"></path>
            <path d="M10.2173902,14.986 C8.89127256,14.987 7.86444903,14.439 7.80044903,14.402 C7.78068432,14.392 5.84280197,13.365 4.17691961,14.391 C2.41409608,15.473 0.803743143,14.843 0.200449026,14.357 C0.000919614,14.197 -0.0254333272,13.912 0.141154908,13.718 C0.307743143,13.528 0.602331379,13.499 0.800919614,13.659 C0.853625496,13.7 2.06115491,14.613 3.67056667,13.626 C5.81833138,12.306 8.16468432,13.561 8.26444903,13.615 C8.28327256,13.624 10.2051549,14.637 11.9397431,13.622 C14.2089196,12.291 15.8070373,13.613 15.8729196,13.668 C16.066802,13.835 16.0865667,14.121 15.9143314,14.309 C15.7392726,14.497 15.4418608,14.513 15.2489196,14.349 C15.2075078,14.312 14.0950373,13.423 12.4291549,14.396 C11.672449,14.84 10.904449,14.986 10.2173902,14.986 L10.2173902,14.986 Z" class="si-glyph-fill"></path>
            <path d="M9.31,3.972 L3.665,3.972 C3.389,3.972 3.165,3.762 3.165,3.503 C3.165,3.244 3.389,3.034 3.665,3.034 L9.31,3.034 C9.586,3.034 9.81,3.244 9.81,3.503 C9.81,3.762 9.586,3.972 9.31,3.972 L9.31,3.972 Z" class="si-glyph-fill"></path>
            <path d="M9.31,6 L3.665,6 C3.389,6 3.165,5.776 3.165,5.5 C3.165,5.224 3.389,5 3.665,5 L9.31,5 C9.586,5 9.81,5.224 9.81,5.5 C9.81,5.776 9.586,6 9.31,6 L9.31,6 Z" class="si-glyph-fill"></path>
            <path d="M3.485,8.708 C3.209,8.708 3.031,8.484 3.031,8.208 L3.031,1.281 C2.998,1.233 2.652,0.937 2.143,0.937 L1.892,0.937 C1.382,0.937 1.082,1.233 1.043,1.31 C1.043,1.586 0.822,1.795 0.546,1.795 C0.27,1.795 0.048,1.557 0.048,1.28 C0.048,0.576 0.841,0.046 1.892,0.046 L2.143,0.046 C3.193,0.046 3.985,0.576 3.985,1.28 L3.985,8.207 C3.985,8.484 3.762,8.708 3.485,8.708 L3.485,8.708 Z" class="si-glyph-fill"></path>
            <path d="M9.5,8.729 C9.224,8.729 9,8.505 9,8.229 L9,1.248 C8.967,1.2 8.744,0.937 8.234,0.937 L7.982,0.937 C7.473,0.937 7.096,1.2 7.057,1.277 C7.057,1.553 6.836,1.762 6.56,1.762 C6.283,1.762 6.063,1.524 6.063,1.247 C6.063,0.543 6.855,0.013 7.906,0.013 L8.157,0.013 C9.208,0.013 10,0.543 10,1.247 L10,8.228 C10,8.506 9.776,8.729 9.5,8.729 L9.5,8.729 Z" class="si-glyph-fill"></path>
        </g>
    </g>
</svg>