<!--?xml version="1.0" encoding="UTF-8" standalone="no"?-->
<svg viewBox="0 0 17 16" version="1.1" xmlns="http://www.w3.org/2000/svg" xmlns:xlink="http://www.w3.org/1999/xlink" class="si-glyph si-glyph-coconut">
    <!-- Generator: Sketch 3.0.3 (7891) - http://www.bohemiancoding.com/sketch -->
    <title>1007</title>
    
    <defs></defs>
    <g stroke="none" stroke-width="1" fill="none" fill-rule="evenodd">
        <path d="M11.574,6.456 C13.168,6.157 14.896,6.674 14.896,6.674 C14.32,5.188 12.261,5.188 12.261,5.188 C12.136,4.18 14.896,2.667 14.896,2.667 C12.753,1.923 10.861,3.585 10.861,3.585 C10.531,2.261 12.507,0 12.507,0 C9.624,0.195 8.884,3.294 8.884,3.294 C7.565,2.025 4.023,2.133 4.023,2.133 C5.506,2.268 6.825,4.64 6.825,4.64 C3.283,5.869 4.106,8.478 4.106,8.478 C4.963,7.818 5.625,7.452 6.132,7.255 C6.56,7.222 7.472,7.138 7.338,8.296 C6.489,13.584 8.457,16 8.457,16 L11.998,16 C9.539,13.554 9.276,10.438 9.193,8.685 C9.173,8.687 9.188,6.778 11.574,6.456 L11.574,6.456 Z" fill="#434343" class="si-glyph-fill"></path>
    </g>
</svg>