<!--?xml version="1.0" encoding="UTF-8" standalone="no"?-->
<svg viewBox="0 0 17 16" version="1.1" xmlns="http://www.w3.org/2000/svg" xmlns:xlink="http://www.w3.org/1999/xlink" class="si-glyph si-glyph-button-arrow-left">
    <!-- Generator: Sketch 3.0.3 (7891) - http://www.bohemiancoding.com/sketch -->
    <title>1188</title>
    
    <defs></defs>
    <g stroke="none" stroke-width="1" fill="none" fill-rule="evenodd">
        <g transform="translate(1.000000, 0.000000)" fill="#434343">
            <path d="M0,8.041 C0,3.652 3.582,0.082 7.985,0.082 C12.386,0.082 15.968,3.652 15.968,8.041 C15.968,12.43 12.386,16 7.985,16 C3.582,16 0,12.43 0,8.041 L0,8.041 Z M14.057,8.041 C14.057,4.708 11.342,1.996 8.006,1.996 C4.669,1.996 1.954,4.708 1.954,8.041 C1.954,11.374 4.67,14.086 8.006,14.086 C11.343,14.086 14.057,11.374 14.057,8.041 L14.057,8.041 Z" class="si-glyph-fill"></path>
            <path d="M7.975,5.02 L4.071,8.022 L7.976,10.973 L7.976,8.97 L11.116,8.97 C11.461,8.97 11.907,8.646 11.907,8.015 C11.907,7.385 11.424,7.04 11.081,7.04 L7.976,7.04 L7.976,5.02 L7.975,5.02 Z" class="si-glyph-fill"></path>
        </g>
    </g>
</svg>