
<svg viewBox="0 0 17 16" version="1.1" xmlns="http://www.w3.org/2000/svg" xmlns:xlink="http://www.w3.org/1999/xlink" class="si-glyph si-glyph-casette"><title>662</title><defs></defs><g stroke="none" stroke-width="1" fill="none" fill-rule="evenodd"><g transform="translate(1.000000, 3.000000)"><path d="M4.629,4 C3.178,4 2,5.189 2,6.656 C2,8.123 3.178,9.312 4.629,9.312 C6.082,9.312 7.258,8.123 7.258,6.656 C7.258,5.189 6.082,4 4.629,4 L4.629,4 Z" class=""></path><path d="M11.61,4 C10.169,4 9,5.189 9,6.656 C9,8.123 10.169,9.312 11.61,9.312 C13.052,9.312 14.221,8.123 14.221,6.656 C14.221,5.189 13.053,4 11.61,4 L11.61,4 Z" class=""></path><path d="M14.6536093,0 L14.3072238,0 L13.4638504,1.95392085 L2.61043755,1.95392085 L1.75601994,0 L1.3955782,0 C0.650598343,0 0.0461807194,0.623763283 0.0461807194,1.39162697 L0.00100000005,9.60837303 C0.00100000005,10.3762367 0.605417624,11 1.35039749,11 L14.6716816,11 C15.4166614,11 15.955818,10.3762367 15.955818,9.60837303 L16.0009988,1.39162697 C16.0020028,0.623763283 15.3975851,0 14.6536093,0 L14.6536093,0 Z M4.5,9 C3.12019779,9 2,7.88083584 2,6.5 C2,5.11916416 3.12019779,4 4.5,4 C5.88170407,4 7,5.11916416 7,6.5 C7,7.88083584 5.88170407,9 4.5,9 L4.5,9 Z M11.4995212,9 C10.1195173,9 9,7.88083584 9,6.5 C9,5.11916416 10.1195173,4 11.4995212,4 C12.8804827,4 14,5.11916416 14,6.5 C14,7.88083584 12.8814403,9 11.4995212,9 L11.4995212,9 Z" fill="#434343" class="si-glyph-fill"></path><path d="M3.529,0.908 L12.236,0.908 L12.927,0 L3.033,0 L3.529,0.908 Z" fill="#434343" class="si-glyph-fill"></path><ellipse fill="#434343" cx="4.453" cy="6.469" rx="1.453" ry="1.469" class="si-glyph-fill"></ellipse><ellipse fill="#434343" cx="11.453" cy="6.469" rx="1.453" ry="1.469" class="si-glyph-fill"></ellipse></g></g></svg>