
<svg viewBox="0 0 17 16" version="1.1" xmlns="http://www.w3.org/2000/svg" xmlns:xlink="http://www.w3.org/1999/xlink" class="si-glyph si-glyph-database-download"><title>635</title><defs></defs><g stroke="none" stroke-width="1" fill="none" fill-rule="evenodd"><g transform="translate(2.000000, 0.000000)" fill="#434343"><g><ellipse cx="6.43" cy="2.421" rx="6.43" ry="2.421" class="si-glyph-fill"></ellipse><path d="M6.494,6.051 C2.978,6.051 0.047,5.049 0.047,4.377 L0.047,7.723 C0.047,8.937 2.934,9.919 6.494,9.919 C10.054,9.919 12.941,8.937 12.941,7.723 L12.941,4.377 C12.941,5.049 10.01,6.051 6.494,6.051 L6.494,6.051 Z" class="si-glyph-fill"></path></g><path d="M9.014,12.003 L11.034,12.003 L11.034,10.5 C9.859,10.83 8.235,11.08 6.464,11.08 C2.948,11.08 0.017,10.1 0.017,9.444 L0.017,12.713 C0.017,13.901 2.904,14.859 6.464,14.859 C8.112,14.859 9.61,14.652 10.751,14.313 L9.014,12.003 L9.014,12.003 Z" class="si-glyph-fill"></path><path d="M12.982,11.016 L12.982,13.003 L13.984,13.003 L12.492,14.969 L11.016,13.003 L12.033,13.003 L12.033,11.016 L12.982,11.016 Z" class="si-glyph-fill"></path></g></g></svg>