<!--?xml version="1.0" encoding="UTF-8" standalone="no"?-->
<svg viewBox="0 0 16 16" version="1.1" xmlns="http://www.w3.org/2000/svg" xmlns:xlink="http://www.w3.org/1999/xlink" class="si-glyph si-glyph-folder-music">
    <!-- Generator: Sketch 3.0.3 (7891) - http://www.bohemiancoding.com/sketch -->
    <title>Folder-music</title>
    
    <defs></defs>
    <g stroke="none" stroke-width="1" fill="none" fill-rule="evenodd">
        <g transform="translate(0.000000, 2.000000)" fill="#434343">
            <path d="M7.35,3 L5.788,0.042 L2.021,0.042 L2.021,1.063 L0.023,1.063 L0.023,10.976 L1.043,10.976 L1.045,11.976 L15.947,11.976 L15.968,3 L7.35,3 L7.35,3 Z M9.845,9.959 C9.6,10.061 9.34,10.114 9.093,10.114 C8.594,10.114 8.193,9.893 8.045,9.538 C7.82,8.987 8.259,8.283 9.023,7.967 C9.31,7.849 9.618,7.783 9.887,7.783 C9.906,7.783 9.924,7.784 9.943,7.784 L9.943,5.318 L7.059,6.099 L7.06,9.62 C7.006,10.088 6.346,10.82 5.776,11.058 C5.532,11.159 5.273,11.211 5.027,11.211 C4.527,11.211 4.125,10.99 3.976,10.635 C3.752,10.084 4.193,9.38 4.957,9.064 C5.203,8.962 5.472,8.909 5.732,8.909 C5.804,8.909 5.875,8.913 5.942,8.921 L5.942,5.215 L11.058,3.936 L11.074,8.619 C11.021,9.082 10.434,9.716 9.845,9.959 L9.845,9.959 Z" class="si-glyph-fill"></path>
            <path d="M13.964,1.982 L13.964,1.042 L8.024,1.042 L8.354,1.982 L13.964,1.982 Z" class="si-glyph-fill"></path>
        </g>
    </g>
</svg>