<!--?xml version="1.0" encoding="UTF-8" standalone="no"?-->
<svg viewBox="0 0 17 16" version="1.1" xmlns="http://www.w3.org/2000/svg" xmlns:xlink="http://www.w3.org/1999/xlink" class="si-glyph si-glyph-circle-load-left">
    <!-- Generator: Sketch 3.0.3 (7891) - http://www.bohemiancoding.com/sketch -->
    <title>827</title>
    
    <defs></defs>
    <g stroke="none" stroke-width="1" fill="none" fill-rule="evenodd">
        <path d="M15.947,8.379 C15.872,4.257 12.596,0.967 8.644,1.042 C4.727,1.115 1.791,3.93216431 1.814,8.00616431 L0.204284668,8.00616443 C-0.0127153322,8.22616443 -0.0127153322,8.88200012 0.204284668,9.10200012 L2.115,10.86 C2.332,11.082 2.681,11.082 2.9,10.86 L4.82086158,9.10200012 C5.03886158,8.88200012 5.03886158,8.22616443 4.82086158,8.00616443 L3.203,8.00616431 C3.18,4.66816431 5.462,2.461 8.67,2.402 C11.902,2.34 14.582,5.032 14.645,8.404 C14.707,11.726 12.2,14.481 9.032,14.62 L9.032,15.981 C12.93,15.842 16.023,12.46 15.947,8.379 L15.947,8.379 Z" fill="#434343" class="si-glyph-fill"></path>
    </g>
</svg>