<!--?xml version="1.0" encoding="UTF-8" standalone="no"?-->
<svg viewBox="0 0 17 16" version="1.1" xmlns="http://www.w3.org/2000/svg" xmlns:xlink="http://www.w3.org/1999/xlink" class="si-glyph si-glyph-rocket">
    <!-- Generator: Sketch 3.0.3 (7891) - http://www.bohemiancoding.com/sketch -->
    <title>668</title>
    
    <defs></defs>
    <g stroke="none" stroke-width="1" fill="none" fill-rule="evenodd">
        <path d="M12,13 C11.936,13.011 11.897,13.027 11.839,13.039 C12.54,10.931 12.972,7.99 12.972,5.864 C12.972,1.549 10.04,0.027 9.007,0.027 C7.974,0.027 5.04,1.548 5.04,5.864 C5.04,7.989 5.472,10.927 6.172,13.035 C6.115,13.024 6.062,13.011 5.999,13.001 C5.447,14.522 4.011,15.04 2.995,15.989 L6.522,15.997 C6.798,15.66 6.963,15.277 6.998,14.87 C7.014,14.893 7.028,14.922 7.044,14.944 L7.983,14.944 L10.045,14.944 L10.967,14.944 C10.995,14.904 11.021,14.855 11.049,14.812 C11.08,15.224 11.241,15.614 11.516,15.955 L14.987,15.948 C13.991,14.99 12.538,14.529 12,13 L12,13 Z M9,10 C8.448,10 8,9.552 8,9 C8,8.448 8.448,8 9,8 C9.552,8 10,8.448 10,9 C10,9.552 9.552,10 9,10 L9,10 Z M9,6 C7.896,6 7,5.104 7,4 C7,2.896 7.896,2 9,2 C10.104,2 11,2.896 11,4 C11,5.104 10.104,6 9,6 L9,6 Z" fill="#434343" class="si-glyph-fill"></path>
    </g>
</svg>