<!--?xml version="1.0" encoding="UTF-8" standalone="no"?-->
<svg viewBox="0 0 16 16" version="1.1" xmlns="http://www.w3.org/2000/svg" xmlns:xlink="http://www.w3.org/1999/xlink" class="si-glyph si-glyph-bag">
    <!-- Generator: Sketch 3.0.3 (7891) - http://www.bohemiancoding.com/sketch -->
    <title>609</title>
    
    <defs></defs>
    <g stroke="none" stroke-width="1" fill="none" fill-rule="evenodd">
        <g transform="translate(1.000000, 0.000000)" fill="#434343">
            <path d="M8.494,4.011 C8.223,4.011 8.005,3.791 8.005,3.519 C8.005,2.133 6.881,1.005 5.502,1.005 C4.123,1.005 3,2.133 3,3.519 C3,3.791 2.781,4.011 2.51,4.011 C2.24,4.011 2.021,3.791 2.021,3.519 C2.021,1.59 3.583,0.021 5.502,0.021 C7.422,0.021 8.984,1.59 8.984,3.519 C8.984,3.791 8.766,4.011 8.494,4.011 L8.494,4.011 Z" class="si-glyph-fill"></path>
            <path d="M11.492,4.011 C11.222,4.011 11.004,3.791 11.004,3.519 C11.004,2.133 9.885,1.005 8.512,1.005 C8.242,1.005 8.024,0.785 8.024,0.513 C8.024,0.241 8.243,0.021 8.512,0.021 C10.424,0.021 11.981,1.59 11.981,3.519 C11.98,3.791 11.762,4.011 11.492,4.011 L11.492,4.011 Z" class="si-glyph-fill"></path>
            <g transform="translate(0.000000, 3.000000)">
                <path d="M12.042,0.0999755859 L12.042,13 L13.371,13 C13.698,13 13.965,12.746 13.965,12.434 L13.965,0.626 C13.965,0.312 13.698,0.061 13.371,0.061 L12.042,0.0999755859 Z" class="si-glyph-fill"></path>
                <path d="M0.645,0.061 C0.315,0.061 0.044,0.313 0.044,0.626 L0.044,12.434 C0.044,12.746 0.315,13 0.645,13 L10.951,13 C10.951,13 10.957,0.079 10.957,0.061 L0.645,0.061 L0.645,0.061 Z" class="si-glyph-fill"></path>
            </g>
        </g>
    </g>
</svg>