<!--?xml version="1.0" encoding="UTF-8" standalone="no"?-->
<svg viewBox="0 0 17 17" version="1.1" xmlns="http://www.w3.org/2000/svg" xmlns:xlink="http://www.w3.org/1999/xlink" class="si-glyph si-glyph-connect-2">
    <!-- Generator: Sketch 3.0.3 (7891) - http://www.bohemiancoding.com/sketch -->
    <title>812</title>
    
    <defs></defs>
    <g stroke="none" stroke-width="1" fill="none" fill-rule="evenodd">
        <path d="M14.5,13.043 C14.242,13.043 14.002,13.112 13.79,13.225 L10.531,9.954 C10.738,9.664 10.885,9.331 10.953,8.968 L12.086,8.968 C12.287,9.544 12.84,9.96 13.5,9.96 C14.329,9.96 15,9.308 15,8.502 C15,7.696 14.329,7.044 13.5,7.044 C12.826,7.044 12.264,7.479 12.074,8.073 L10.955,8.073 C10.893,7.725 10.764,7.401 10.573,7.119 L13.863,3.817 C14.057,3.906 14.271,3.96 14.5,3.96 C15.329,3.96 16,3.308 16,2.502 C16,1.696 15.329,1.044 14.5,1.044 C13.672,1.044 13.002,1.696 13.002,2.502 C13.002,2.763 13.077,3.005 13.201,3.217 L9.945,6.486 C9.652,6.279 9.316,6.133 8.949,6.067 L8.949,4.886 C9.556,4.7 10,4.155 10,3.502 C10,2.696 9.329,2.044 8.5,2.044 C7.672,2.044 7.002,2.696 7.002,3.502 C7.002,4.157 7.447,4.705 8.06,4.889 L8.06,6.066 C7.696,6.13 7.36,6.271 7.069,6.474 L3.809,3.203 C3.927,2.994 4,2.758 4,2.503 C4,1.697 3.329,1.045 2.5,1.045 C1.672,1.045 1.002,1.697 1.002,2.503 C1.002,3.309 1.672,3.961 2.5,3.961 C2.734,3.961 2.955,3.904 3.152,3.811 L6.437,7.108 C6.241,7.393 6.107,7.721 6.044,8.075 L4.926,8.075 C4.737,7.48 4.173,7.046 3.499,7.046 C2.671,7.046 2.001,7.698 2.001,8.504 C2.001,9.31 2.671,9.962 3.499,9.962 C4.159,9.962 4.714,9.546 4.913,8.97 L6.046,8.97 C6.114,9.339 6.267,9.677 6.48,9.97 L3.226,13.236 C3.01,13.119 2.765,13.047 2.499,13.047 C1.671,13.047 1.001,13.699 1.001,14.505 C1.001,15.311 1.671,15.963 2.499,15.963 C3.328,15.963 3.999,15.311 3.999,14.505 C3.999,14.279 3.942,14.068 3.849,13.879 L7.124,10.59 C7.401,10.774 7.718,10.899 8.059,10.959 L8.059,12.118 C7.447,12.302 7.001,12.849 7.001,13.505 C7.001,14.311 7.671,14.963 8.499,14.963 C9.328,14.963 9.999,14.311 9.999,13.505 C9.999,12.853 9.556,12.307 8.948,12.121 L8.948,10.958 C9.292,10.896 9.611,10.768 9.89,10.581 L13.159,13.862 C13.06,14.056 13.001,14.273 13.001,14.505 C13.001,15.311 13.671,15.963 14.499,15.963 C15.328,15.963 15.999,15.311 15.999,14.505 C15.999,13.699 15.329,13.043 14.5,13.043 L14.5,13.043 Z" fill="#434343" class="si-glyph-fill"></path>
    </g>
</svg>