<!--?xml version="1.0" encoding="UTF-8" standalone="no"?-->
<svg viewBox="0 0 17 16" version="1.1" xmlns="http://www.w3.org/2000/svg" xmlns:xlink="http://www.w3.org/1999/xlink" class="si-glyph si-glyph-fire-alarm">
    <!-- Generator: Sketch 3.0.3 (7891) - http://www.bohemiancoding.com/sketch -->
    <title>748</title>
    
    <defs></defs>
    <g stroke="none" stroke-width="1" fill="none" fill-rule="evenodd">
        <g transform="translate(2.000000, 0.000000)" fill="#434343">
            <path d="M8.986,9.977 C11.709,9.977 13.916,7.764 13.916,5.036 C13.916,2.308 11.709,0.095 8.986,0.095 C6.262,0.095 4.055,2.308 4.055,5.036 C4.055,7.764 6.263,9.977 8.986,9.977 L8.986,9.977 Z M8.986,2.977 C10.121,2.977 11.041,3.898 11.041,5.036 C11.041,6.174 10.121,7.095 8.986,7.095 C7.851,7.095 6.932,6.174 6.932,5.036 C6.932,3.898 7.852,2.977 8.986,2.977 L8.986,2.977 Z" class="si-glyph-fill"></path>
            <path d="M12.283,11.018 L5.681,11.018 C5.307,11.018 5.003,11.323 5.003,11.702 L5.003,12.348 C3.677,11.35 2.733,9.328 2.435,7.6 C2.758,7.336 2.968,6.944 2.968,6.5 C2.968,5.706 2.31,5.062 1.499,5.062 C0.687,5.062 0.03,5.706 0.03,6.5 C0.03,7.17 0.501,7.728 1.134,7.887 C1.564,10.276 3.011,12.785 5.003,13.939 L5.003,15.255 C5.003,15.633 5.307,15.938 5.681,15.938 L12.283,15.938 C12.658,15.938 12.962,15.633 12.962,15.255 L12.962,11.701 C12.962,11.322 12.658,11.018 12.283,11.018 L12.283,11.018 Z" class="si-glyph-fill"></path>
        </g>
    </g>
</svg>