<!--?xml version="1.0" encoding="UTF-8" standalone="no"?-->
<svg viewBox="0 0 17 16" version="1.1" xmlns="http://www.w3.org/2000/svg" xmlns:xlink="http://www.w3.org/1999/xlink" class="si-glyph si-glyph-eye-drop">
    <!-- Generator: Sketch 3.0.3 (7891) - http://www.bohemiancoding.com/sketch -->
    <title>963</title>
    
    <defs></defs>
    <g stroke="none" stroke-width="1" fill="none" fill-rule="evenodd">
        <g transform="translate(1.000000, 0.000000)" fill="#434343">
            <path d="M6.661,4.051 C6.895,2.974 6.61,1.822 5.801,1.005 C4.511,-0.294 2.379,-0.255 1.041,1.094 C-0.296,2.443 -0.337,4.589 0.954,5.889 C1.764,6.705 2.905,6.992 3.977,6.757 L4.579,7.343 L3.999,7.926 L4.501,8.432 L5.047,7.88 L10.109,12.953 L12.984,12.953 L12.984,10.187 L7.777,5.129 L8.305,4.596 L7.805,4.091 L7.25,4.65 L6.661,4.051 L6.661,4.051 Z M12.016,10.422 L12.021,12.045 L10.217,12.054 L5.672,7.344 L7.219,5.719 L12.016,10.422 L12.016,10.422 Z" class="si-glyph-fill"></path>
            <path d="M14.985,14.84 C14.985,15.459 14.545,15.962 13.999,15.962 C13.454,15.962 13.014,15.459 13.014,14.84 C13.014,14.22 13.999,13.063 13.999,13.063 C13.999,13.063 14.985,14.22 14.985,14.84 L14.985,14.84 Z" class="si-glyph-fill"></path>
        </g>
    </g>
</svg>