
<svg viewBox="0 0 17 16" version="1.1" xmlns="http://www.w3.org/2000/svg" xmlns:xlink="http://www.w3.org/1999/xlink" class="si-glyph si-glyph-elevator-up"><title>729</title><defs></defs><g stroke="none" stroke-width="1" fill="none" fill-rule="evenodd"><g transform="translate(1.000000, 1.000000)" fill="#434343"><path d="M4.48199987,12.9857178 L1.33399987,12.9857178 C0.597999874,12.9857178 0,12.236 0,11.5 C0,10.764 0.597999991,10.0600585 1.33399999,10.0600585 L3.47656249,10.0600587 L11.5180004,4.01733399 L14.6660004,4.01733399 C15.4020004,4.01733399 16,4.721 16,5.458 C16,6.193 15.4020004,6.98059082 14.6660004,6.98059082 L12.4820004,6.98059082 L4.48199987,12.9857178 Z" class="si-glyph-fill"></path><g transform="translate(4.000000, 0.000000)"><ellipse cx="1.438" cy="1.479" rx="1.438" ry="1.479" class="si-glyph-fill"></ellipse><path d="M3.924,4.155 C3.805,4.008 3.594,3.988 3.453,4.11 L2.564,4.881 C2.363,4.381 1.888,4.031 1.333,4.031 C0.597,4.031 -0.001,4.649 -0.001,5.415 L-0.001,7.999 L3.88,4.644 C4.021,4.52 4.041,4.303 3.924,4.155 L3.924,4.155 Z" class="si-glyph-fill"></path></g></g></g></svg>