<!--?xml version="1.0" encoding="UTF-8" standalone="no"?-->
<svg viewBox="0 0 17 16" version="1.1" xmlns="http://www.w3.org/2000/svg" xmlns:xlink="http://www.w3.org/1999/xlink" class="si-glyph si-glyph-stethoscope">
    <!-- Generator: Sketch 3.0.3 (7891) - http://www.bohemiancoding.com/sketch -->
    <title>676</title>
    
    <defs></defs>
    <g stroke="none" stroke-width="1" fill="none" fill-rule="evenodd">
        <path d="M16.938,10 C16.938,8.912 16.057,8.031 14.969,8.031 C13.881,8.031 13,8.912 13,10 C13,10.736 13.408,11.37 14.007,11.708 C13.449,13.619 12.06,14.687 10.434,14.687 C8.481,14.687 6.867,13.392 6.627,10.758 C8.45,10.625 10.958,9.509 10.958,7.203 L10.958,3.624 C10.958,2.767 10.602,1.967 9.969,1.436 C9.939,0.658 9.301,0.035 8.516,0.035 C7.71,0.035 7.057,0.688 7.057,1.494 C7.057,2.3 7.71,2.953 8.516,2.953 C8.814,2.953 9.09,2.862 9.322,2.71 C9.507,2.958 10.016,3.3 10.016,3.624 L10.016,7.203 C10.016,8.874 7.233,10.03 6.264,10.03 L5.467,10.03 C4.813,10.03 1.969,9.057 1.969,7.203 L1.969,3.624 C1.969,3.304 2.567,2.953 2.748,2.706 C2.977,2.854 3.248,2.942 3.541,2.942 C4.347,2.942 5,2.289 5,1.483 C5,0.677 4.347,0.024 3.541,0.024 C2.75,0.024 2.109,0.655 2.086,1.441 C1.464,1.97 1.016,2.774 1.016,3.624 L1.016,7.203 C1.016,9.559 3.381,10.672 5.223,10.763 C5.49,14.132 7.775,15.976 10.483,15.976 C12.778,15.976 14.682,14.466 15.379,11.924 C16.269,11.736 16.938,10.947 16.938,10 L16.938,10 Z" fill="#434343" class="si-glyph-fill"></path>
    </g>
</svg>