<!--?xml version="1.0" encoding="UTF-8" standalone="no"?-->
<svg viewBox="0 0 16 16" version="1.1" xmlns="http://www.w3.org/2000/svg" xmlns:xlink="http://www.w3.org/1999/xlink" class="si-glyph si-glyph-dial-number">
    <!-- Generator: Sketch 3.0.3 (7891) - http://www.bohemiancoding.com/sketch -->
    <title>105</title>
    
    <defs></defs>
    <g stroke="none" stroke-width="1" fill="none" fill-rule="evenodd">
        <g transform="translate(1.000000, 1.000000)" fill="#434343">
            <path d="M13.878,2.639 C13.878,3.274 13.429,3.791 12.874,3.791 L11.003,3.791 C10.45,3.791 10,3.273 10,2.639 L10,1.15 C10,0.515 10.45,0 11.003,0 L12.874,0 C13.429,0 13.878,0.516 13.878,1.15 L13.878,2.639 L13.878,2.639 Z" class="si-glyph-fill"></path>
            <path d="M8.878,2.639 C8.878,3.274 8.429,3.791 7.874,3.791 L6.003,3.791 C5.45,3.791 5,3.273 5,2.639 L5,1.15 C5,0.515 5.45,0 6.003,0 L7.874,0 C8.429,0 8.878,0.516 8.878,1.15 L8.878,2.639 L8.878,2.639 Z" class="si-glyph-fill"></path>
            <path d="M3.878,2.639 C3.878,3.274 3.429,3.791 2.874,3.791 L1.003,3.791 C0.45,3.791 0,3.273 0,2.639 L0,1.15 C0,0.515 0.45,0 1.003,0 L2.874,0 C3.429,0 3.878,0.516 3.878,1.15 L3.878,2.639 L3.878,2.639 Z" class="si-glyph-fill"></path>
            <path d="M13.878,7.639 C13.878,8.274 13.429,8.791 12.874,8.791 L11.003,8.791 C10.45,8.791 10,8.273 10,7.639 L10,6.15 C10,5.515 10.45,5 11.003,5 L12.874,5 C13.429,5 13.878,5.516 13.878,6.15 L13.878,7.639 L13.878,7.639 Z" class="si-glyph-fill"></path>
            <path d="M8.878,7.639 C8.878,8.274 8.429,8.791 7.874,8.791 L6.003,8.791 C5.45,8.791 5,8.273 5,7.639 L5,6.15 C5,5.515 5.45,5 6.003,5 L7.874,5 C8.429,5 8.878,5.516 8.878,6.15 L8.878,7.639 L8.878,7.639 Z" class="si-glyph-fill"></path>
            <path d="M3.878,7.639 C3.878,8.274 3.429,8.791 2.874,8.791 L1.003,8.791 C0.45,8.791 0,8.273 0,7.639 L0,6.15 C0,5.515 0.45,5 1.003,5 L2.874,5 C3.429,5 3.878,5.516 3.878,6.15 L3.878,7.639 L3.878,7.639 Z" class="si-glyph-fill"></path>
            <path d="M13.878,12.639 C13.878,13.274 13.429,13.791 12.874,13.791 L11.003,13.791 C10.45,13.791 10,13.273 10,12.639 L10,11.15 C10,10.515 10.45,10 11.003,10 L12.874,10 C13.429,10 13.878,10.516 13.878,11.15 L13.878,12.639 L13.878,12.639 Z" class="si-glyph-fill"></path>
            <path d="M8.878,12.639 C8.878,13.274 8.429,13.791 7.874,13.791 L6.003,13.791 C5.45,13.791 5,13.273 5,12.639 L5,11.15 C5,10.515 5.45,10 6.003,10 L7.874,10 C8.429,10 8.878,10.516 8.878,11.15 L8.878,12.639 L8.878,12.639 Z" class="si-glyph-fill"></path>
            <path d="M3.878,12.639 C3.878,13.274 3.429,13.791 2.874,13.791 L1.003,13.791 C0.45,13.791 0,13.273 0,12.639 L0,11.15 C0,10.515 0.45,10 1.003,10 L2.874,10 C3.429,10 3.878,10.516 3.878,11.15 L3.878,12.639 L3.878,12.639 Z" class="si-glyph-fill"></path>
        </g>
    </g>
</svg>