<!--?xml version="1.0" encoding="UTF-8" standalone="no"?-->
<svg viewBox="0 0 17 16" version="1.1" xmlns="http://www.w3.org/2000/svg" xmlns:xlink="http://www.w3.org/1999/xlink" class="si-glyph si-glyph-dice-5">
    <!-- Generator: Sketch 3.0.3 (7891) - http://www.bohemiancoding.com/sketch -->
    <title>1119</title>
    
    <defs></defs>
    <g stroke="none" stroke-width="1" fill="none" fill-rule="evenodd">
        <path d="M14.763,0 L3.178,0 C1.998,0 1.043,0.966 1.043,2.155 L1.043,13.845 C1.043,15.034 1.998,15.999 3.178,15.999 L14.763,15.999 C15.944,15.999 16.899,15.034 16.899,13.845 L16.899,2.155 C16.898,0.966 15.943,0 14.763,0 L14.763,0 Z M5.002,6.153 C3.856,6.153 2.927,5.202 2.927,4.03 C2.927,2.858 3.856,1.907 5.002,1.907 C6.148,1.907 7.078,2.858 7.078,4.03 C7.078,5.202 6.148,6.153 5.002,6.153 L5.002,6.153 Z M13.002,6.153 C11.856,6.153 10.927,5.202 10.927,4.03 C10.927,2.858 11.856,1.907 13.002,1.907 C14.148,1.907 15.078,2.858 15.078,4.03 C15.078,5.202 14.148,6.153 13.002,6.153 L13.002,6.153 Z M13.002,14.153 C11.856,14.153 10.927,13.202 10.927,12.03 C10.927,10.858 11.856,9.907 13.002,9.907 C14.148,9.907 15.078,10.858 15.078,12.03 C15.078,13.202 14.148,14.153 13.002,14.153 L13.002,14.153 Z M9.002,10.153 C7.856,10.153 6.927,9.202 6.927,8.03 C6.927,6.858 7.856,5.907 9.002,5.907 C10.148,5.907 11.078,6.858 11.078,8.03 C11.078,9.202 10.148,10.153 9.002,10.153 L9.002,10.153 Z M5.002,14.153 C3.856,14.153 2.927,13.202 2.927,12.03 C2.927,10.858 3.856,9.907 5.002,9.907 C6.148,9.907 7.078,10.858 7.078,12.03 C7.078,13.202 6.148,14.153 5.002,14.153 L5.002,14.153 Z" fill="#434343" class="si-glyph-fill"></path>
    </g>
</svg>