
<svg viewBox="0 0 17 16" version="1.1" xmlns="http://www.w3.org/2000/svg" xmlns:xlink="http://www.w3.org/1999/xlink" class="si-glyph si-glyph-camera-projector"><title>1149</title><defs></defs><g stroke="none" stroke-width="1" fill="none" fill-rule="evenodd"><g transform="translate(1.000000, 2.000000)" fill="#434343"><path d="M6.997,3.509 C6.997,1.586 5.434,0.021 3.51,0.021 C1.586,0.021 0.022,1.586 0.022,3.509 C0.022,4.595 0.261,5.414 1.04,6.055 L1.047,12.209 C1.047,12.644 1.45,12.943 1.88,12.943 L6.9969999,12.9429999 C6.9969999,12.9429999 6.997,3.639 6.997,3.509 L6.997,3.509 Z M3.5004154,5 C2.67460537,5 2,4.32727273 2,3.5 C2,2.67438017 2.67460537,2 3.5004154,2 C4.32622542,2 5,2.67438017 5,3.5 C5,4.32644628 4.32622542,5 3.5004154,5 L3.5004154,5 Z" class="si-glyph-fill"></path><path d="M15.312,3.032 L8.006,3.032 L8.006,8.97 L15.312,8.97 C15.678,8.97 15.974,8.67 15.974,8.303 L15.974,3.698 C15.975,3.33 15.679,3.032 15.312,3.032 L15.312,3.032 Z M15.016,6.031 L12.969,6.031 L12.969,4.953 L15.016,4.953 L15.016,6.031 L15.016,6.031 Z" class="si-glyph-fill"></path></g></g></svg>