<!--?xml version="1.0" encoding="UTF-8" standalone="no"?-->
<svg viewBox="0 0 17 16" version="1.1" xmlns="http://www.w3.org/2000/svg" xmlns:xlink="http://www.w3.org/1999/xlink" class="si-glyph si-glyph-baby">
    <!-- Generator: Sketch 3.0.3 (7891) - http://www.bohemiancoding.com/sketch -->
    <title>787</title>
    
    <defs></defs>
    <g stroke="none" stroke-width="1" fill="none" fill-rule="evenodd">
        <g transform="translate(5.000000, 0.000000)" fill="#434343">
            <path d="M5.975,1.988 C5.975,3.085 5.089,3.971 4,3.971 C2.914,3.971 2.028,3.084 2.028,1.988 C2.028,0.892 2.914,0.005 4,0.005 C5.089,0.00500000001 5.975,0.893 5.975,1.988 L5.975,1.988 Z" class="si-glyph-fill"></path>
            <path d="M5.854,10.032 C6.154,10.342 5.958,10.488 5.849,10.597 L4.826,11.729 C4.527,12.04 3.447,12.041 3.149,11.731 L2.15,10.618 C2.09,10.557 1.853,10.364 2.155,10.052 L5.854,10.032 L5.854,10.032 Z" class="si-glyph-fill"></path>
            <path d="M5.875,5.35 C5.631,5.154 5.336,5.035 5.013,5.035 L2.993,5.035 C2.665,5.035 2.363,5.161 2.117,5.363 C2.097,5.377 0.081,8.137 0.081,8.137 C-0.037,8.325 0.00199999999,8.589 0.168,8.726 C0.252,8.791 0.354,8.814 0.445,8.796 C0.539,8.777 0.625,8.72 0.684,8.625 L2.02,7.581 L2.02,8.56 C2.02,8.56 1.83775974,8.95699993 2.47875974,8.95699993 L5.589,8.957 C5.937,8.957 5.999,8.56 5.999,8.56 L5.999,7.609 L7.335,8.637 C7.396,8.732 7.481,8.79 7.576,8.809 C7.669,8.826 7.768,8.804 7.852,8.738 C8.021,8.603 8.06,8.34 7.941,8.149 C7.941,8.149 5.931,5.38 5.875,5.35 Z" class="si-glyph-fill"></path>
            <path d="M2.421,15.964 C2.248,15.964 1.897,15.838 1.795,15.664 L0.529,13.355 C0.384,13.111 1.441,11.101 1.441,11.101 L2.595,12.382 C2.595,12.382 2.028,13.037 2.009,13.222 C1.989,13.407 2.863,15.015 2.863,15.015 C3.03,15.291 2.966,15.671 2.719,15.859 C2.628,15.931 2.523,15.964 2.421,15.964 L2.421,15.964 Z" class="si-glyph-fill"></path>
            <path d="M5.531,15.964 C5.705,15.964 6.056,15.838 6.159,15.664 L7.424,13.355 C7.569,13.111 6.513,11.101 6.513,11.101 L5.359,12.382 C5.359,12.382 5.927,13.037 5.946,13.222 C5.965,13.407 5.091,15.015 5.091,15.015 C4.924,15.291 4.988,15.671 5.234,15.859 C5.325,15.931 5.43,15.964 5.531,15.964 L5.531,15.964 Z" class="si-glyph-fill"></path>
        </g>
    </g>
</svg>