
<svg viewBox="0 0 17 17" version="1.1" xmlns="http://www.w3.org/2000/svg" xmlns:xlink="http://www.w3.org/1999/xlink" class="si-glyph si-glyph-wheel-chair"><title>823</title><defs></defs><g stroke="none" stroke-width="1" fill="none" fill-rule="evenodd"><g transform="translate(2.000000, 1.000000)" fill="#434343"><ellipse cx="6.49" cy="1.471" rx="1.49" ry="1.471" class="si-glyph-fill"></ellipse><path d="M12.6,14.951 C12.281,14.951 11.969,14.794 11.781,14.509 L10.509,11.998 L5.993,11.998 C5.448,11.998 5.006,11.551 5.006,10.999 L5.006,5.064 C5.006,4.511 5.448,4.066 5.993,4.066 C6.536,4.066 6.979,4.511 6.979,5.064 L6.979,10.001 L11.035,10.001 C11.364,10.001 11.671,10.166 11.852,10.443 L12.936,12.668 L13.59,12.4 C14.078,12.154 14.67,12.355 14.913,12.849 C15.155,13.342 14.957,13.942 14.469,14.187 L13.038,14.846 C12.897,14.918 12.748,14.951 12.6,14.951 L12.6,14.951 Z" class="si-glyph-fill"></path><path d="M5.381,15.974 C2.445,15.974 0.057,13.59 0.057,10.661 C0.057,8.935 0.902,7.311 2.317,6.315 C2.618,6.102 3.036,6.174 3.248,6.477 C3.461,6.778 3.389,7.194 3.087,7.407 C2.026,8.154 1.395,9.369 1.395,10.661 C1.395,12.854 3.183,14.638 5.382,14.638 C6.482,14.638 7.505,14.201 8.267,13.408 C8.522,13.142 8.945,13.133 9.211,13.388 C9.478,13.643 9.486,14.066 9.231,14.333 C8.215,15.391 6.848,15.974 5.381,15.974 L5.381,15.974 Z" class="si-glyph-fill"></path></g></g></svg>