<!--?xml version="1.0" encoding="UTF-8" standalone="no"?-->
<svg viewBox="0 0 17 16" version="1.1" xmlns="http://www.w3.org/2000/svg" xmlns:xlink="http://www.w3.org/1999/xlink" class="si-glyph si-glyph-box-upload">
    <!-- Generator: Sketch 3.0.3 (7891) - http://www.bohemiancoding.com/sketch -->
    <title>899</title>
    
    <defs></defs>
    <g stroke="none" stroke-width="1" fill="none" fill-rule="evenodd">
        <g transform="translate(1.000000, 0.000000)" fill="#434343">
            <path d="M15.644,4.236 C15.219,3.875 14.578,3.924 14.211,4.349 L12.149,7.103 C12.045,7.087 4.006,7.087 3.924,7.097 L1.765,4.337 C1.396,3.917 0.759,3.876 0.343,4.245 C-0.076,4.616 -0.116,5.257 0.252,5.679 L2.279,8.286 C2.156,8.554 2.083,8.847 2.083,9.159 L2.083,13.905 C2.083,15.057 3.018,15.993 4.172,15.993 L11.833,15.993 C12.986,15.993 13.922,15.057 13.922,13.905 L13.922,9.159 C13.922,8.87 13.863,8.597 13.757,8.345 L15.757,5.665 C16.121,5.24 16.07,4.6 15.644,4.236 L15.644,4.236 Z" class="si-glyph-fill"></path>
            <path d="M5.236,3.944 L7.048,3.571 L7.027,5.007 C7.024,5.558 7.466,5.999 8.016,5.995 C8.566,5.993 9.015,5.544 9.017,4.993 L8.986,3.6 L10.767,3.944 C11.04,3.671 11.042,3.229 10.77,2.958 L8.505,0.282 C8.234,0.011 7.793,0.012 7.52,0.286 L5.242,2.958 C4.968,3.233 4.967,3.673 5.236,3.944 L5.236,3.944 Z" class="si-glyph-fill"></path>
        </g>
    </g>
</svg>