
<svg viewBox="0 0 16 16" version="1.1" xmlns="http://www.w3.org/2000/svg" xmlns:xlink="http://www.w3.org/1999/xlink" class="si-glyph si-glyph-alarm-clock"><title>648</title><defs></defs><g stroke="none" stroke-width="1" fill="none" fill-rule="evenodd"><g transform="translate(1.000000, 0.000000)" fill="#434343"><g><path d="M13.654,0.659 C12.342,-0.292 10.604,-0.105 9.664,1.042 C10.615,1.358 11.535,1.827 12.393,2.449 C13.25,3.073 13.983,3.807 14.586,4.622 C15.35,3.347 14.965,1.614 13.654,0.659 L13.654,0.659 Z" class="si-glyph-fill"></path><path d="M2.644,2.427 C3.502,1.811 4.422,1.347 5.374,1.032 C4.433,-0.104 2.694,-0.288 1.383,0.654 C0.072,1.6 -0.314,3.316 0.451,4.579 C1.055,3.773 1.788,3.045 2.644,2.427 L2.644,2.427 Z" class="si-glyph-fill"></path><path d="M13.924,8.633 C13.924,8.435 13.912,8.24 13.896,8.047 C13.624,4.907 11.198,2.401 8.131,2.081 L8.131,2.081 C7.995,2.065 7.858,2.064 7.719,2.059 C7.637,2.055 7.555,2.045 7.471,2.045 L7.469,2.045 L7.467,2.045 C3.899,2.045 1.008,4.994 1.008,8.633 C1.008,8.662 1.012,8.692 1.013,8.721 C1.035,10.574 1.815,12.235 3.041,13.415 C2.633,13.627 2.348,14.056 2.348,14.558 C2.348,15.267 2.912,15.842 3.608,15.842 C4.274,15.842 4.812,15.315 4.858,14.648 C5.547,14.959 6.298,15.155 7.089,15.202 C7.215,15.21 7.34,15.222 7.467,15.222 C7.612,15.222 7.752,15.209 7.897,15.2 C8.698,15.146 9.458,14.939 10.153,14.614 C10.182,15.298 10.729,15.843 11.406,15.843 C12.102,15.843 12.665,15.268 12.665,14.559 C12.665,14.036 12.36,13.589 11.922,13.388 C13.152,12.19 13.924,10.506 13.924,8.633 L13.924,8.633 Z M7.527,13.314 C4.964,13.314 2.88,11.198 2.88,8.598 C2.88,5.998 4.964,3.884 7.527,3.884 C10.089,3.884 12.174,5.998 12.174,8.598 C12.174,11.198 10.089,13.314 7.527,13.314 L7.527,13.314 Z" class="si-glyph-fill"></path></g><rect x="7" y="5" width="1" height="4" class="si-glyph-fill"></rect><rect x="7" y="8" width="3" height="1" class="si-glyph-fill"></rect></g></g></svg>