<!--?xml version="1.0" encoding="UTF-8" standalone="no"?-->
<svg viewBox="0 0 17 16" version="1.1" xmlns="http://www.w3.org/2000/svg" xmlns:xlink="http://www.w3.org/1999/xlink" class="si-glyph si-glyph-suitcase">
    <!-- Generator: Sketch 3.0.3 (7891) - http://www.bohemiancoding.com/sketch -->
    <title>1107</title>
    
    <defs></defs>
    <g stroke="none" stroke-width="1" fill="none" fill-rule="evenodd">
        <g transform="translate(1.000000, 0.000000)" fill="#434343">
            <path d="M4,3 L4,15.969 L11.9898682,15.9689999 L11.9898682,2.99999986 L4,3 Z" class="si-glyph-fill"></path>
            <path d="M13.0367432,3.03099986 L13.0367432,15.9999999 L13.748,16 C14.992,16 16,15.021 16,13.812 L16,5.216 C16,4.011 14.992,3.031 13.748,3.031 L13.0367432,3.03099986 Z" class="si-glyph-fill"></path>
            <path d="M0,5.217 L0,13.813 C0,15.021 1.018,16.001 2.276,16.001 L2.961,16.001 L2.961,3.032 L2.276,3.032 C1.018,3.031 0,4.011 0,5.217 L0,5.217 Z" class="si-glyph-fill"></path>
            <path d="M8.96771241,0.047 L7.01904298,0.047 C5.76904298,0.047 5.01,0.918 5.01,1.991 L5.97137452,1.99100001 C5.97137452,1.40300001 6.29804298,0.954101572 7.01904298,0.954101572 L8.96771241,0.954101572 C9.68671241,0.954101572 10.0252073,1.40400001 10.0252073,1.99100001 L10.982,1.991 C10.982,0.918 10.2187124,0.047 8.96771241,0.047 Z" class="si-glyph-fill"></path>
        </g>
    </g>
</svg>