<!--?xml version="1.0" encoding="UTF-8" standalone="no"?-->
<svg viewBox="0 0 17 16" version="1.1" xmlns="http://www.w3.org/2000/svg" xmlns:xlink="http://www.w3.org/1999/xlink" class="si-glyph si-glyph-calculator">
    <!-- Generator: Sketch 3.0.3 (7891) - http://www.bohemiancoding.com/sketch -->
    <title>958</title>
    
    <defs></defs>
    <g stroke="none" stroke-width="1" fill="none" fill-rule="evenodd">
        <g transform="translate(1.000000, 0.000000)" fill="#434343">
            <path d="M14.689,0.041 L9.083,0.041 L9.083,6.917 L15.958,6.917 L15.958,1.299 C15.958,0.605 15.391,0.041 14.689,0.041 L14.689,0.041 Z M14.044,4.045 L10.938,4.045 L10.938,2.938 L14.044,2.938 L14.044,4.045 L14.044,4.045 Z" class="si-glyph-fill"></path>
            <path d="M9,15.958 L14.674,15.958 C15.384,15.958 15.958,15.389 15.958,14.684 L15.958,9.042 L9,9.042 L9,15.958 L9,15.958 Z M10.953,10.969 L14.023,10.969 L14.023,12.031 L10.953,12.031 L10.953,10.969 L10.953,10.969 Z M10.953,12.953 L14,12.953 L14,14.047 L10.953,14.047 L10.953,12.953 L10.953,12.953 Z" class="si-glyph-fill"></path>
            <path d="M6.898,0.041 L1.326,0.041 C0.638,0.041 0.083,0.605 0.083,1.3 L0.083,6.923 L6.898,6.923 L6.898,0.041 L6.898,0.041 Z M5,4.023 L4.016,4.023 L4.016,5.062 L2.98,5.062 L2.98,4.023 L1.959,4.023 L1.959,2.982 L2.98,2.982 L2.98,1.98 L4.016,1.98 L4.016,2.982 L5,2.982 L5,4.023 L5,4.023 Z" class="si-glyph-fill"></path>
            <path d="M0.083,14.676 C0.083,15.385 0.645,15.958 1.338,15.958 L6.958,15.958 L6.958,9 L0.083,9 L0.083,14.676 L0.083,14.676 Z M2.443,10.709 L3.489,11.756 L4.537,10.707 L5.269,11.439 L4.221,12.488 L5.282,13.549 L4.547,14.285 L3.485,13.224 L2.463,14.245 L1.731,13.513 L2.752,12.492 L1.707,11.445 L2.443,10.709 L2.443,10.709 Z" class="si-glyph-fill"></path>
        </g>
    </g>
</svg>