
<svg viewBox="0 0 17 16" version="1.1" xmlns="http://www.w3.org/2000/svg" xmlns:xlink="http://www.w3.org/1999/xlink" class="si-glyph si-glyph-globe"><title>856</title><defs></defs><g stroke="none" stroke-width="1" fill="none" fill-rule="evenodd"><g transform="translate(3.000000, 0.000000)" fill="#434343"><path d="M5.031,13.225 L5.031,14.659 C2.877,14.742 1.095,15.272 1.095,15.919 C1.095,15.927 1.099,15.936 1.099,15.936 L9.905,15.945 C9.905,15.945 9.91,15.927 9.91,15.92 C9.91,15.274 8.092,14.743 5.937,14.66 L5.937,13.18" class="si-glyph-fill"></path><ellipse cx="5.012" cy="7.031" rx="5.012" ry="5.031" class="si-glyph-fill"></ellipse><path d="M5.04,13.971 C3.464,13.971 1.922,13.421 0.699,12.422 C0.489,12.25 0.457,11.938 0.628,11.725 C0.801,11.514 1.108,11.482 1.318,11.653 C2.38,12.523 3.668,12.983 5.04,12.983 C8.303,12.983 10.956,10.305 10.956,7.016 C10.956,4.098 8.805,1.563 5.951,1.12 C5.65,1.073 5.344,1.05 5.04,1.05 C4.769,1.05 4.549,0.829 4.549,0.556 C4.549,0.283 4.769,0.061 5.04,0.061 C5.392,0.061 5.748,0.088 6.101,0.142 C9.429,0.66 11.938,3.617 11.938,7.017 C11.938,10.851 8.844,13.971 5.04,13.971 L5.04,13.971 Z" class="si-glyph-fill"></path></g></g></svg>