<!--?xml version="1.0" encoding="UTF-8" standalone="no"?-->
<svg viewBox="0 0 17 16" version="1.1" xmlns="http://www.w3.org/2000/svg" xmlns:xlink="http://www.w3.org/1999/xlink" class="si-glyph si-glyph-helicopter-pad">
    <!-- Generator: Sketch 3.0.3 (7891) - http://www.bohemiancoding.com/sketch -->
    <title>773</title>
    
    <defs></defs>
    <g stroke="none" stroke-width="1" fill="none" fill-rule="evenodd">
        <g fill="#434343">
            <path d="M8,0.055 C3.582,0.055 0,3.621 0,8.023 C0,12.423 3.582,15.991 8,15.991 C12.418,15.991 16,12.424 16,8.023 C16,3.621 12.418,0.055 8,0.055 L8,0.055 Z M8.004,15.112 C4.07,15.112 0.883,11.931 0.883,8.007 C0.883,4.083 4.071,0.902 8.004,0.902 C11.937,0.902 15.125,4.083 15.125,8.007 C15.125,11.931 11.938,15.112 8.004,15.112 L8.004,15.112 Z" class="si-glyph-fill"></path>
            <path d="M8.018,2.08 C4.754,2.08 2.108,4.734 2.108,8.007 C2.108,11.28 4.754,13.934 8.018,13.934 C11.282,13.934 13.929,11.28 13.929,8.007 C13.929,4.734 11.281,2.08 8.018,2.08 L8.018,2.08 Z M10.077,10.119 L8.937,10.119 L8.937,9.062 L7.062,9.062 L7.062,10.119 L5.944,10.119 L5.944,5.961 L7.062,5.961 L7.062,7.875 L8.937,7.875 L8.937,5.961 L10.077,5.961 L10.077,10.119 L10.077,10.119 Z" class="si-glyph-fill"></path>
        </g>
    </g>
</svg>