<!--?xml version="1.0" encoding="UTF-8" standalone="no"?-->
<svg viewBox="0 0 17 17" version="1.1" xmlns="http://www.w3.org/2000/svg" xmlns:xlink="http://www.w3.org/1999/xlink" class="si-glyph si-glyph-castle">
    <!-- Generator: Sketch 3.0.3 (7891) - http://www.bohemiancoding.com/sketch -->
    <title>181</title>
    
    <defs></defs>
    <g stroke="none" stroke-width="1" fill="none" fill-rule="evenodd">
        <path d="M16,5 L15,5 L15,6 L14,6 L14,5.015 L13,5 L13,9 L11,9 L11,4 C11.549,4 12,3.566 12,3.03 C12,3.03 8.557,0.042 8.008,0.042 L7.992,0.042 C7.444,0.042 4.001,3.03 4.001,3.03 C4.001,3.566 4.494,4 5.042,4 L5.042,9 L2.98,9 L2.98,6 C2.98,6 2.523,6.055 2.001,6.015 L2.001,7 L1.001,7 L1.001,6 L0.000999999931,6 L0.000999999931,14.951 C0.000999999931,15.507 0.49,15.958 1.043,15.958 L7,15.958 C6.999,15.916 7,13.062 7,13.062 C7,11.635 8.041,11.937 8.041,11.937 C8.041,11.937 9.083,11.635 9.083,13.062 C9.083,13.062 9.085,15.916 9.083,15.958 L15,15.958 C15.553,15.958 16,15.471 16,14.871 L16,5 L16,5 Z M1,10 L1,9 L2,9 L2,10 L1,10 L1,10 Z M3,13 L2,13 L2,12 L3,12 L3,13 L3,13 Z M5,13 L4,13 L4,12 L5,12 L5,13 L5,13 Z M9,7 L6.953,7 L6.953,4.935 L9,4.935 L9,7 L9,7 Z M12,13 L11,13 L11,12 L12,12 L12,13 L12,13 Z M14,13 L13,13 L13,12 L14,12 L14,13 L14,13 Z M15,10 L13.979,10 L13.979,9 L15,9 L15,10 L15,10 Z" fill="#434343" class="si-glyph-fill"></path>
    </g>
</svg>