<!--?xml version="1.0" encoding="UTF-8" standalone="no"?-->
<svg viewBox="0 0 17 16" version="1.1" xmlns="http://www.w3.org/2000/svg" xmlns:xlink="http://www.w3.org/1999/xlink" class="si-glyph si-glyph-mobile">
    <!-- Generator: Sketch 3.0.3 (7891) - http://www.bohemiancoding.com/sketch -->
    <title>1043</title>
    
    <defs></defs>
    <g stroke="none" stroke-width="1" fill="none" fill-rule="evenodd">
        <path d="M6.939,2.042 L6.939,0.047 L6.046,0.058 L6.041,15.938 L12.957,15.938 L12.957,2.022 L6.939,2.042 L6.939,2.042 Z M8.027,12.021 L6.984,12.021 L6.984,10.968 L8.027,10.968 L8.027,12.021 L8.027,12.021 Z M8.027,10.021 L6.968,10.021 L6.968,8.984 L8.027,8.984 L8.027,10.021 L8.027,10.021 Z M10,12.021 L8.998,12.021 L8.998,10.953 L10,10.953 L10,12.021 L10,12.021 Z M10.016,10.021 L8.998,10.021 L8.998,8.968 L10.016,8.968 L10.016,10.021 L10.016,10.021 Z M12.016,12.021 L10.974,12.021 L10.974,10.953 L12.016,10.953 L12.016,12.021 L12.016,12.021 Z M8.027,14.021 L6.968,14.021 L6.968,12.968 L8.027,12.968 L8.027,14.021 L8.027,14.021 Z M10.016,14.021 L8.998,14.021 L8.998,12.953 L10.016,12.953 L10.016,14.021 L10.016,14.021 Z M12.031,14.021 L10.942,14.021 L10.942,12.953 L12.031,12.953 L12.031,14.021 L12.031,14.021 Z M12.031,10.021 L10.958,10.021 L10.958,8.953 L12.031,8.953 L12.031,10.021 L12.031,10.021 Z M12.062,8.021 L6.954,8.021 L6.954,3.953 L12.062,3.953 L12.062,8.021 L12.062,8.021 Z" fill="#434343" class="si-glyph-fill"></path>
    </g>
</svg>