<!--?xml version="1.0" encoding="UTF-8" standalone="no"?-->
<svg viewBox="0 0 17 16" version="1.1" xmlns="http://www.w3.org/2000/svg" xmlns:xlink="http://www.w3.org/1999/xlink" class="si-glyph si-glyph-code">
    <!-- Generator: Sketch 3.0.3 (7891) - http://www.bohemiancoding.com/sketch -->
    <title>815</title>
    
    <defs></defs>
    <g stroke="none" stroke-width="1" fill="none" fill-rule="evenodd">
        <g transform="translate(0.000000, 1.000000)" fill="#434343">
            <path d="M11.74,10.993 C11.918,10.993 12.096,10.928 12.233,10.798 L15.712,7.482 C15.983,7.221 15.983,6.802 15.712,6.543 L12.233,3.225 C11.961,2.966 11.521,2.966 11.249,3.225 C10.978,3.486 10.978,3.906 11.249,4.163 L14.236,7.013 L11.249,9.861 C10.978,10.12 10.978,10.541 11.249,10.799 C11.385,10.928 11.563,10.993 11.74,10.993 L11.74,10.993 Z" class="si-glyph-fill"></path>
            <path d="M4.301,10.883 C4.121,10.883 3.942,10.821 3.804,10.693 L0.287,7.425 C0.012,7.17 0.012,6.756 0.287,6.502 L3.804,3.234 C4.078,2.978 4.524,2.978 4.799,3.234 C5.072,3.49 5.072,3.903 4.799,4.158 L1.779,6.963 L4.799,9.767 C5.072,10.023 5.072,10.437 4.799,10.693 C4.661,10.82 4.48,10.883 4.301,10.883 L4.301,10.883 Z" class="si-glyph-fill"></path>
            <path d="M6.685,13.889 C6.928,13.832 7.131,13.64 7.188,13.379 L9.934,0.885 C10.012,0.531 9.793,0.188 9.446,0.117 C9.096,0.047 8.753,0.277 8.676,0.631 L5.93,13.125 C5.852,13.477 6.072,13.82 6.418,13.891 C6.51,13.909 6.601,13.907 6.685,13.889 L6.685,13.889 Z" class="si-glyph-fill"></path>
        </g>
    </g>
</svg>