<!--?xml version="1.0" encoding="UTF-8" standalone="no"?-->
<svg viewBox="0 0 16 16" version="1.1" xmlns="http://www.w3.org/2000/svg" xmlns:xlink="http://www.w3.org/1999/xlink" class="si-glyph si-glyph-reel-film">
    <!-- Generator: Sketch 3.0.3 (7891) - http://www.bohemiancoding.com/sketch -->
    <title>9</title>
    
    <defs></defs>
    <g stroke="none" stroke-width="1" fill="none" fill-rule="evenodd">
        <g fill="#434343">
            <path d="M7.368,13.095 C8.561,12.907 10.164,13.193 11.185,14.099 C12.206,15.005 13.638,14.9 15,15.128 L15,16 C13.856,15.807 11.63,15.584 10.85,14.892 C10.072,14.202 8.788,13.802 7.583,13.993 C6.487,14.166 6.264,13.269 7.368,13.095 L7.368,13.095 Z" class="si-glyph-fill"></path>
            <path d="M7.5,0.166 C3.403,0.166 0.0800000001,3.469 0.0800000001,7.542 C0.0800000001,11.615 3.403,14.917 7.5,14.917 C11.598,14.917 14.92,11.615 14.92,7.542 C14.92,3.469 11.598,0.166 7.5,0.166 L7.5,0.166 Z M5,3 C6.104,3 7,3.896 7,5 C7,6.104 6.104,7 5,7 C3.896,7 3,6.104 3,5 C3,3.896 3.896,3 5,3 L5,3 Z M5,12 C3.896,12 3,11.104 3,10 C3,8.896 3.896,8 5,8 C6.104,8 7,8.896 7,10 C7,11.104 6.104,12 5,12 L5,12 Z M6.709,7.514 C6.709,7.059 7.089,6.691 7.555,6.691 C8.023,6.691 8.403,7.059 8.403,7.514 C8.403,7.968 8.023,8.337 7.555,8.337 C7.089,8.337 6.709,7.968 6.709,7.514 L6.709,7.514 Z M10,12 C8.896,12 8,11.104 8,10 C8,8.896 8.896,8 10,8 C11.104,8 12,8.896 12,10 C12,11.104 11.104,12 10,12 L10,12 Z M10,7 C8.896,7 8,6.104 8,5 C8,3.896 8.896,3 10,3 C11.104,3 12,3.896 12,5 C12,6.104 11.104,7 10,7 L10,7 Z" class="si-glyph-fill"></path>
        </g>
    </g>
</svg>