<!--?xml version="1.0" encoding="UTF-8" standalone="no"?-->
<svg viewBox="0 0 17 17" version="1.1" xmlns="http://www.w3.org/2000/svg" xmlns:xlink="http://www.w3.org/1999/xlink" class="si-glyph si-glyph-cloud-rain-heavy-rain">
    <!-- Generator: Sketch 3.0.3 (7891) - http://www.bohemiancoding.com/sketch -->
    <title>816</title>
    
    <defs></defs>
    <g stroke="none" stroke-width="1" fill="none" fill-rule="evenodd">
        <g transform="translate(0.000000, 2.000000)" fill="#434343">
            <path d="M13.801,3.426 C13.553,3.426 13.315,3.492 13.09,3.592 C12.397,2.557 11.262,1.879 9.977,1.879 C9.77,1.879 9.569,1.901 9.37,1.934 C8.69,0.805 7.505,0.055 6.151,0.055 C4.243,0.055 2.665,1.545 2.378,3.493 C2.359,3.493 2.343,3.489 2.326,3.489 C1.047,3.489 0.011,4.593 0.011,5.956 L15.99,5.956 C15.85,4.531 14.93,3.426 13.801,3.426 L13.801,3.426 Z" class="si-glyph-fill"></path>
            <path d="M2.004,9.701 C1.88,9.957 1.572,10.066 1.315,9.941 C1.059,9.818 0.952,9.51 1.075,9.253 C1.199,8.996 2.185,8.138 2.185,8.138 C2.185,8.138 2.127,9.444 2.004,9.701 L2.004,9.701 Z" class="si-glyph-fill"></path>
            <path d="M5.048,7.592 C4.925,7.848 4.617,7.955 4.36,7.832 C4.103,7.708 3.995,7.4 4.119,7.144 C4.243,6.888 5.229,6.03 5.229,6.03 C5.229,6.03 5.172,7.334 5.048,7.592 L5.048,7.592 Z" class="si-glyph-fill"></path>
            <path d="M7.022,9.656 C6.898,9.912 6.591,10.019 6.335,9.896 C6.077,9.772 5.968,9.464 6.093,9.208 C6.216,8.951 7.203,8.094 7.203,8.094 C7.203,8.094 7.146,9.398 7.022,9.656 L7.022,9.656 Z" class="si-glyph-fill"></path>
            <path d="M9.92,7.654 C9.797,7.91 9.489,8.018 9.232,7.894 C8.975,7.77 8.867,7.462 8.991,7.206 C9.115,6.948 10.101,6.091 10.101,6.091 C10.101,6.091 10.044,7.397 9.92,7.654 L9.92,7.654 Z" class="si-glyph-fill"></path>
            <path d="M8.002,12.678 C7.879,12.934 7.571,13.042 7.314,12.918 C7.057,12.795 6.949,12.486 7.073,12.23 C7.197,11.973 8.183,11.115 8.183,11.115 C8.183,11.115 8.127,12.421 8.002,12.678 L8.002,12.678 Z" class="si-glyph-fill"></path>
            <path d="M4.002,12.678 C3.879,12.934 3.571,13.042 3.314,12.918 C3.057,12.795 2.949,12.486 3.073,12.23 C3.197,11.973 4.183,11.115 4.183,11.115 C4.183,11.115 4.127,12.421 4.002,12.678 L4.002,12.678 Z" class="si-glyph-fill"></path>
            <path d="M10.995,10.677 C10.873,10.933 10.563,11.041 10.308,10.917 C10.051,10.793 9.943,10.485 10.066,10.229 C10.191,9.973 11.175,9.115 11.175,9.115 C11.175,9.115 11.119,10.42 10.995,10.677 L10.995,10.677 Z" class="si-glyph-fill"></path>
            <path d="M14.018,7.695 C13.896,7.951 13.586,8.059 13.331,7.935 C13.074,7.811 12.965,7.503 13.09,7.247 C13.214,6.989 14.199,6.132 14.199,6.132 C14.199,6.132 14.142,7.438 14.018,7.695 L14.018,7.695 Z" class="si-glyph-fill"></path>
        </g>
    </g>
</svg>