<!--?xml version="1.0" encoding="UTF-8" standalone="no"?-->
<svg viewBox="0 0 17 16" version="1.1" xmlns="http://www.w3.org/2000/svg" xmlns:xlink="http://www.w3.org/1999/xlink" class="si-glyph si-glyph-fire-hydrant">
    <!-- Generator: Sketch 3.0.3 (7891) - http://www.bohemiancoding.com/sketch -->
    <title>769</title>
    
    <defs></defs>
    <g stroke="none" stroke-width="1" fill="none" fill-rule="evenodd">
        <g transform="translate(2.000000, 0.000000)" fill="#434343">
            <path d="M3,14.047 L2.674,14.047 C2.303,14.047 2,14.504 2,15.066 L2,15.959 L9.986,15.959 L9.987,15.959 L9.987,15.066 C9.987,14.503 9.684,14.047 9.313,14.047 L8.956,14.047 L8.956,6 L3,6 L3,14.047 Z" class="si-glyph-fill"></path>
            <path d="M2,4 L2,4.942 L10,5 L10,4 L2,4 Z" class="si-glyph-fill"></path>
            <path d="M5,1.14172468 C3.85213462,1.41219667 3.031,2.13507671 3.031,2.984 L8.969,2.984 C8.969,2.13049667 8.1383567,1.40440029 6.981,1.13738655 L6.981,0 L5,0 L5,1.14172468 Z" class="si-glyph-fill"></path>
            <path d="M1,8 L1,7 L1.947,7 L1.947,8 L1.974,8 L1.974,8.97 L1.947,8.97 L1.947,9.908 L1,9.908 L1,8.97 L0,8.97 L0,8 L1,8 Z" class="si-glyph-fill"></path>
            <path d="M10.953,8.938 L10.953,9.906 L10,9.906 L10,7 L10.953,7 L10.953,8 L11.942,8 L11.942,8.938 L10.953,8.938 Z" class="si-glyph-fill"></path>
        </g>
    </g>
</svg>