<!--?xml version="1.0" encoding="UTF-8" standalone="no"?-->
<svg viewBox="0 0 17 16" version="1.1" xmlns="http://www.w3.org/2000/svg" xmlns:xlink="http://www.w3.org/1999/xlink" class="si-glyph si-glyph-zoom-out">
    <!-- Generator: Sketch 3.0.3 (7891) - http://www.bohemiancoding.com/sketch -->
    <title>865</title>
    
    <defs></defs>
    <g stroke="none" stroke-width="1" fill="none" fill-rule="evenodd">
        <g transform="translate(1.000000, 0.000000)" fill="#434343">
            <path d="M15.913,5.976 C15.913,2.695 13.246,0.037 9.957,0.037 C6.666,0.037 4,2.695 4,5.976 C4,9.255 6.666,11.915 9.957,11.915 C13.246,11.915 15.913,9.255 15.913,5.976 L15.913,5.976 Z M4.909,6.007 C4.909,3.217 7.18,0.959 9.988,0.959 C12.793,0.959 15.066,3.217 15.066,6.007 C15.066,8.795 12.793,11.054 9.988,11.054 C7.181,11.054 4.909,8.795 4.909,6.007 L4.909,6.007 Z" class="si-glyph-fill"></path>
            <path d="M1.822,16 L0,14.178 L4.148,10.029 C4.148,10.029 4.234,10.802 4.718,11.285 C5.2,11.769 5.97,11.851 5.97,11.851 L1.822,16 L1.822,16 Z" class="si-glyph-fill"></path>
            <path d="M12.254,5.031 L10.969,5.031 L10.969,3.742 C10.969,3.332 10.412,3 9.997,3 C9.582,3 9.031,3.332 9.031,3.742 L9.031,5.031 L7.74,5.031 C7.33,5.031 6.998,5.584 6.998,5.999 C6.998,6.414 7.33,6.937 7.74,6.937 L9.031,6.937 L9.031,8.255 C9.031,8.665 9.582,8.998 9.997,8.998 C10.412,8.998 10.969,8.665 10.969,8.255 L10.969,6.937 L12.254,6.937 C12.664,6.937 12.996,6.414 12.996,5.999 C12.996,5.584 12.664,5.031 12.254,5.031 L12.254,5.031 Z" class="si-glyph-fill"></path>
        </g>
    </g>
</svg>