<!--?xml version="1.0" encoding="UTF-8" standalone="no"?-->
<svg viewBox="0 0 17 16" version="1.1" xmlns="http://www.w3.org/2000/svg" xmlns:xlink="http://www.w3.org/1999/xlink" class="si-glyph si-glyph-color-picker">
    <!-- Generator: Sketch 3.0.3 (7891) - http://www.bohemiancoding.com/sketch -->
    <title>1150</title>
    
    <defs></defs>
    <g stroke="none" stroke-width="1" fill="none" fill-rule="evenodd">
        <g transform="translate(1.000000, 0.000000)" fill="#434343">
            <path d="M15.308,4.434 C16.22,3.523 16.118,1.939 15.079,0.9 C14.038,-0.139 12.455,-0.242 11.545,0.67 L10.364,1.853 L14.128,5.617 L15.308,4.434 L15.308,4.434 Z" class="si-glyph-fill"></path>
            <path d="M5.468,14.276 L11.615,8.128 L12.387,8.9 L13.971,7.314 L8.662,2.005 L7.077,3.589 L7.85,4.362 L1.702,10.508 L0.02,15.201 L0.774,15.955 L5.468,14.276 L5.468,14.276 Z M8.916,5.428 L10.551,7.064 L4.289,13.324 L1.695,14.284 L2.654,11.688 L8.916,5.428 L8.916,5.428 Z" class="si-glyph-fill"></path>
        </g>
    </g>
</svg>