
<svg viewBox="0 0 17 16" version="1.1" xmlns="http://www.w3.org/2000/svg" xmlns:xlink="http://www.w3.org/1999/xlink" class="si-glyph si-glyph-drum"><title>810</title><defs></defs><g stroke="none" stroke-width="1" fill="none" fill-rule="evenodd"><g transform="translate(1.000000, 0.000000)" fill="#434343"><path d="M14.969,5.984 C14.969,6.493 14.661,6.906 14.282,6.906 L0.749,6.906 C0.37,6.906 0.062,6.493 0.062,5.984 L0.062,5.984 C0.062,5.476 0.37,5.062 0.749,5.062 L14.282,5.062 C14.661,5.062 14.969,5.477 14.969,5.984 L14.969,5.984 L14.969,5.984 Z" class="si-glyph-fill"></path><path d="M14.969,14.984 C14.969,15.493 14.661,15.906 14.282,15.906 L0.749,15.906 C0.37,15.906 0.062,15.493 0.062,14.984 L0.062,14.984 C0.062,14.476 0.37,14.062 0.749,14.062 L14.282,14.062 C14.661,14.062 14.969,14.477 14.969,14.984 L14.969,14.984 L14.969,14.984 Z" class="si-glyph-fill"></path><path d="M12.973,8.062 L1.996,8.062 C1.445,8.062 1,8.509 1,9.062 L1,11.906 C1,12.459 1.445,12.906 1.996,12.906 L12.973,12.906 C13.524,12.906 13.969,12.459 13.969,11.906 L13.969,9.062 C13.969,8.51 13.523,8.062 12.973,8.062 L12.973,8.062 Z" class="si-glyph-fill"></path><ellipse cx="5.439" cy="2.459" rx="1.439" ry="1.459" class="si-glyph-fill"></ellipse><ellipse cx="9.439" cy="2.459" rx="1.439" ry="1.459" class="si-glyph-fill"></ellipse><path d="M5.528,2.957 C5.463,2.957 5.396,2.943 5.334,2.916 L1.251,0.79 C1.033,0.694 0.942,0.457 1.052,0.262 C1.158,0.067 1.422,-0.015 1.639,0.082 L5.724,2.208 C5.942,2.304 6.031,2.541 5.924,2.736 C5.846,2.876 5.691,2.957 5.528,2.957 L5.528,2.957 Z" class="si-glyph-fill"></path><path d="M9.446,2.957 C9.511,2.957 9.578,2.943 9.64,2.916 L13.723,0.79 C13.941,0.694 14.031,0.457 13.922,0.262 C13.815,0.067 13.552,-0.015 13.335,0.082 L9.25,2.208 C9.032,2.304 8.943,2.541 9.05,2.736 C9.129,2.876 9.283,2.957 9.446,2.957 L9.446,2.957 Z" class="si-glyph-fill"></path></g></g></svg>