<!--?xml version="1.0" encoding="UTF-8" standalone="no"?-->
<svg viewBox="0 0 17 16" version="1.1" xmlns="http://www.w3.org/2000/svg" xmlns:xlink="http://www.w3.org/1999/xlink" class="si-glyph si-glyph-bomb-1">
    <!-- Generator: Sketch 3.0.3 (7891) - http://www.bohemiancoding.com/sketch -->
    <title>710</title>
    
    <defs></defs>
    <g stroke="none" stroke-width="1" fill="none" fill-rule="evenodd">
        <g transform="translate(1.000000, 3.000000)" fill="#434343">
            <g transform="translate(1.000000, 0.000000)">
                <path d="M5.004,2.016 C4.19,2.016 3.042,3.136 3.042,4.933 C3.042,6.729 4.113,7.962 5.018,7.962 C5.923,7.962 11.579,7.627 12.35,7.627 C13.122,7.627 15.022,7.189 15.022,4.933 C15.021,2.677 13.31,2.278 12.35,2.278 C11.39,2.278 5.818,2.016 5.004,2.016 Z" class="si-glyph-fill"></path>
                <path d="M1.973,2.384 C1.973,2.711 1.796,2.977 1.578,2.977 L0.394,2.977 C0.176,2.977 0,2.711 0,2.384 L0,0.606 C0,0.278 0.177,0.013 0.394,0.013 L1.972,1.791 L1.972,2.384 L1.973,2.384 Z" class="si-glyph-fill"></path>
                <path d="M1.988,8.188 L0.41,9.957 C0.193,9.957 0.015,9.693 0.015,9.367 L0.015,7.598 C0.015,7.272 0.193,7.008 0.41,7.008 L1.594,7.008 C1.812,7.008 1.988,7.272 1.988,7.598 L1.988,8.188 L1.988,8.188 Z" class="si-glyph-fill"></path>
            </g>
            <path d="M0.438,4.003 C0.111,4.003 0.032,4.446 0.032,4.992 C0.032,5.539 0.111,5.98 0.438,5.98 L2.969,5.98 L2.969,4.002 L0.438,4.002 L0.438,4.003 Z" class="si-glyph-fill"></path>
        </g>
    </g>
</svg>