
<svg viewBox="0 0 17 16" version="1.1" xmlns="http://www.w3.org/2000/svg" xmlns:xlink="http://www.w3.org/1999/xlink" class="si-glyph si-glyph-book-person"><title>1153</title><defs></defs><g stroke="none" stroke-width="1" fill="none" fill-rule="evenodd"><g transform="translate(2.000000, 0.000000)" fill="#434343"><rect x="0" y="0" width="0.918" height="16" class="si-glyph-fill"></rect><path d="M12.9047659,0 L2,0 L2,16 L12.9047659,16 C13.5090679,16 14,15.5473033 14,14.9895162 L14,1.01048377 C14,0.451686245 13.5090679,0 12.9047659,0 L12.9047659,0 Z M8.006,2.875 C9.101,2.875 9.991,3.761 9.991,4.854 C9.991,5.947 9.1,8.038 8.006,8.038 C6.91,8.038 6.022,5.948 6.022,4.854 C6.022,3.76 6.91,2.875 8.006,2.875 L8.006,2.875 Z M12.976,12 L3.002,12 C3.002,12 2.831,9.01311271 5.389,9.01311271 C5.926,9.59007181 6.661,9.94411489 8.014,9.94411489 C9.368,9.94411489 10.013,9.58445208 10.543,9 C13.421,9 12.976,12 12.976,12 L12.976,12 Z" class="si-glyph-fill"></path></g></g></svg>