<!--?xml version="1.0" encoding="UTF-8" standalone="no"?-->
<svg viewBox="0 0 17 16" version="1.1" xmlns="http://www.w3.org/2000/svg" xmlns:xlink="http://www.w3.org/1999/xlink" class="si-glyph si-glyph-ring">
    <!-- Generator: Sketch 3.0.3 (7891) - http://www.bohemiancoding.com/sketch -->
    <title>700</title>
    
    <defs></defs>
    <g stroke="none" stroke-width="1" fill="none" fill-rule="evenodd">
        <path d="M14.163,4.847 C14.655,4.608 14.996,4.109 14.996,3.525 C14.996,2.711 14.336,2.051 13.522,2.051 C12.751,2.051 12.122,2.649 12.06,3.407 C11.532,3.182 10.967,3.031 10.379,2.952 L12.9405039,0.00872802205 L6.04150389,0.00872802205 L8.651,2.952 C8.059,3.031 7.49,3.184 6.959,3.412 C6.893,2.667 6.267,2.082 5.499,2.082 C4.686,2.082 4.025,2.733 4.025,3.54 C4.025,4.119 4.369,4.615 4.863,4.85 C3.7,6.037 2.98,7.663 2.98,9.456 C2.98,13.078 5.912,16.024 9.515,16.024 C13.118,16.024 16.048,13.078 16.048,9.456 C16.049,7.662 15.327,6.034 14.163,4.847 L14.163,4.847 Z M9.516,14.025 C7.015,14.025 4.981,11.975 4.981,9.457 C4.981,6.939 7.015,4.889 9.516,4.889 C12.016,4.889 14.049,6.939 14.049,9.457 C14.049,11.975 12.016,14.025 9.516,14.025 L9.516,14.025 Z" fill="#434343" class="si-glyph-fill"></path>
    </g>
</svg>