
<svg viewBox="0 0 17 16" version="1.1" xmlns="http://www.w3.org/2000/svg" xmlns:xlink="http://www.w3.org/1999/xlink" class="si-glyph si-glyph-screen-ful"><title>1205</title><defs></defs><g stroke="none" stroke-width="1" fill="none" fill-rule="evenodd"><g transform="translate(0.000000, 1.000000)" fill="#434343"><g transform="translate(4.000000, 4.000000)"><path d="M0.021,0.001 L0.021,5.939 L7.978,5.939 L7.978,0.001 L0.021,0.001 L0.021,0.001 Z M7.042,5.062 L0.958,5.062 L0.958,0.937 L7.042,0.937 L7.042,5.062 L7.042,5.062 Z" class="si-glyph-fill"></path><rect x="2" y="2" width="3.917" height="1.938" class="si-glyph-fill"></rect></g><path d="M12,0 L13.387,1.375 L12.002,2.756 L13.226,3.972 L14.613,2.591 L16,3.965 L16,0 L12,0 Z" class="si-glyph-fill"></path><path d="M2.763,10.04 L1.387,11.399 L0,10.035 L0,13.969 L4,13.969 L2.613,12.604 L3.988,11.246 L2.763,10.04 Z" class="si-glyph-fill"></path><path d="M2.761,3.971 L3.987,2.756 L2.607,1.381 L4,0 L0,0 L0,3.965 L1.381,2.597 L2.761,3.971 Z" class="si-glyph-fill"></path><path d="M13.27,10.08 L12.043,11.287 L13.381,12.609 L12,13.969 L16,13.969 L16,10.035 L14.607,11.405 L13.27,10.08 Z" class="si-glyph-fill"></path></g></g></svg>