<!--?xml version="1.0" encoding="UTF-8" standalone="no"?-->
<svg viewBox="0 0 17 16" version="1.1" xmlns="http://www.w3.org/2000/svg" xmlns:xlink="http://www.w3.org/1999/xlink" class="si-glyph si-glyph-first-aid-briefcase">
    <!-- Generator: Sketch 3.0.3 (7891) - http://www.bohemiancoding.com/sketch -->
    <title>1100</title>
    
    <defs></defs>
    <g stroke="none" stroke-width="1" fill="none" fill-rule="evenodd">
        <g transform="translate(1.000000, 0.000000)" fill="#434343">
            <path d="M13.8203797,3 L2.17961949,3 C0.975437665,3 0,3.99036999 0,5.20881906 L0,12.7891536 C0,14.00963 0.975437665,15 2.17961949,15 L13.8203797,15 C15.0245616,15 15.9999992,14.00963 15.9999992,12.7891536 L15.9999992,5.20881906 C16.0010069,3.98935631 15.0255692,3 13.8203797,3 L13.8203797,3 Z M9.03534731,10.0158545 L9.03534731,11.969 L7,11.969 L7,10.0158545 L4.987,10.0158545 L4.987,8 L7,8 L7,5.969 L9.03534731,5.969 L9.03534731,8 L10.987,8 L10.987,10.0158545 L9.03534731,10.0158545 Z" class="si-glyph-fill"></path>
            <path d="M10.972,1.969 C10.972,0.931 10.133,0.047 9.105,0.047 L6.915,0.047 C5.885,0.047 5.001,0.931 5.001,1.969 L5.972,1.962 C5.972,1.364 6.335,0.936 6.928,0.936 L9.095,0.936 C9.689,0.936 10.079,1.365 10.079,1.962 L10.972,1.969 L10.972,1.969 Z" class="si-glyph-fill"></path>
        </g>
    </g>
</svg>