<!--?xml version="1.0" encoding="UTF-8" standalone="no"?-->
<svg viewBox="0 0 17 16" version="1.1" xmlns="http://www.w3.org/2000/svg" xmlns:xlink="http://www.w3.org/1999/xlink" class="si-glyph si-glyph-fire-wood">
    <!-- Generator: Sketch 3.0.3 (7891) - http://www.bohemiancoding.com/sketch -->
    <title>701</title>
    
    <defs></defs>
    <g stroke="none" stroke-width="1" fill="none" fill-rule="evenodd">
        <g transform="translate(2.000000, 1.000000)" fill="#434343">
            <path d="M13.884,9.689 C14.115,10.207 13.917,10.753 13.442,10.912 L1.376,14.915 C0.898,15.073 0.326,14.782 0.094,14.265 L0.094,14.265 C-0.137,13.748 0.06,13.201 0.536,13.043 L12.602,9.039 C13.078,8.881 13.65,9.172 13.884,9.689 L13.884,9.689 L13.884,9.689 Z" class="si-glyph-fill"></path>
            <path d="M12.602,14.915 C13.079,15.073 13.651,14.782 13.884,14.265 C14.115,13.748 13.917,13.201 13.442,13.043 L11.852,12.516 L8.61,13.591 L12.602,14.915 L12.602,14.915 Z" class="si-glyph-fill"></path>
            <path d="M1.375,9.039 C0.897,8.881 0.325,9.172 0.093,9.689 C-0.138,10.207 0.059,10.753 0.535,10.912 L2.127,11.439 L5.367,10.363 L1.375,9.039 L1.375,9.039 Z" class="si-glyph-fill"></path>
            <path d="M8.518,8.953 C8.518,8.953 12.452,7.523 10.399,5.102 C9.795,4.329 9.387,3.302 9.842,2.086 C9.842,2.086 8.494,3.351 8.899,4.628 C8.713,4.345 6.852,3.616 7.001,0.041 C7.001,0.041 4.745,1.819 4.745,3.997 C4.745,3.997 4.958,6.509 6.184,6.901 C6.184,6.901 4.312,6.427 3.936,4.059 C3.844,4.344 1.527,6.918 4.7,8.877 C4.7,8.877 3.531,8.093 4.101,6.614 C5.254,8.564 7.561,7.177 7.561,7.177 C7.561,7.177 5.168,6.626 6.469,3.504 C6.768,5.123 8.207,5.983 9.12,6.126 C8.64,5.16 9.468,5.903 9.825,6.507 C10.295,7.677 8.518,8.953 8.518,8.953 L8.518,8.953 Z" class="si-glyph-fill"></path>
        </g>
    </g>
</svg>