
<svg viewBox="0 0 16 16" version="1.1" xmlns="http://www.w3.org/2000/svg" xmlns:xlink="http://www.w3.org/1999/xlink" class="si-glyph si-glyph-wifi-1"><title>Wifi-1</title><defs></defs><g stroke="none" stroke-width="1" fill="none" fill-rule="evenodd"><g transform="translate(0.000000, 2.000000)" fill="#434343"><circle cx="7.989" cy="5.989" r="1.989" class="si-glyph-fill"></circle><path d="M3.574,11.996 C1.349,10.691 0.0279999999,8.486 0.0279999999,6.061 C0.0279999999,3.589 1.449,1.292 3.749,0.022 L4.177,0.752 C2.168,1.876 0.93,3.894 0.93,6.061 C0.93,8.189 2.081,10.124 4.02,11.276 L3.574,11.996 L3.574,11.996 Z" class="si-glyph-fill"></path><path d="M11.668,11.279 C13.763,10.2 15.055,8.187 15.055,5.981 C15.055,3.819 13.801,1.826 11.771,0.732 L12.207,0.037 C14.515,1.273 15.941,3.535 15.941,5.981 C15.941,8.48 14.469,10.765 12.087,11.986 L11.668,11.279 L11.668,11.279 Z" class="si-glyph-fill"></path><path d="M5.342,9.975 C3.908,9.114 3.027,7.612 3.027,6.01 C3.027,4.383 3.925,2.871 5.387,2.016 L5.821,2.776 C4.645,3.477 3.923,4.7 3.923,6.01 C3.923,7.306 4.636,8.524 5.795,9.228 L5.342,9.975 L5.342,9.975 Z" class="si-glyph-fill"></path><path d="M10.004,9.244 C11.281,8.569 12.066,7.335 12.066,5.974 C12.066,4.672 11.332,3.463 10.136,2.774 L10.583,2.046 C12.048,2.887 12.949,4.373 12.949,5.974 C12.949,7.638 11.991,9.158 10.434,9.984 L10.004,9.244 L10.004,9.244 Z" class="si-glyph-fill"></path></g></g></svg>