<!--?xml version="1.0" encoding="UTF-8" standalone="no"?-->
<svg viewBox="0 0 17 16" version="1.1" xmlns="http://www.w3.org/2000/svg" xmlns:xlink="http://www.w3.org/1999/xlink" class="si-glyph si-glyph-rugby-ball">
    <!-- Generator: Sketch 3.0.3 (7891) - http://www.bohemiancoding.com/sketch -->
    <title>999</title>
    
    <defs></defs>
    <g stroke="none" stroke-width="1" fill="none" fill-rule="evenodd">
        <g transform="translate(1.000000, 0.000000)" fill="#434343">
            <path d="M3.516,8.938 C3.729,8.938 3.93,8.981 4.115,9.057 C4.401,8.692 4.706,8.321 5.028,7.942 C4.983,7.799 4.954,7.65 4.954,7.493 C4.954,6.634 5.653,5.938 6.516,5.938 C6.625,5.938 6.733,5.95 6.836,5.971 C7.198,5.602 7.579,5.231 7.979,4.857 C7.954,4.745 7.938,4.628 7.938,4.508 C7.938,3.632 8.638,2.922 9.5,2.922 C9.698,2.922 9.887,2.963 10.061,3.031 C11.25,2.058 12.561,1.085 14.028,0.131 C12.192,-0.121 7.498,-0.332 3.657,3.573 C-0.353,7.655 -0.341,13.079 0.419,14.917 C0.853,14.031 1.478,12.861 2.351,11.518 C2.107,11.244 1.955,10.887 1.955,10.493 C1.953,9.634 2.652,8.938 3.516,8.938 L3.516,8.938 Z" class="si-glyph-fill"></path>
            <path d="M15.572,0.5 C14.013,1.261 12.413,2.417 10.866,3.754 C10.987,3.979 11.062,4.233 11.062,4.508 C11.062,5.384 10.362,6.094 9.5,6.094 C9.184,6.094 8.889,5.996 8.643,5.832 C8.368,6.106 8.1,6.383 7.833,6.662 C7.986,6.903 8.078,7.186 8.078,7.492 C8.078,8.35 7.379,9.047 6.516,9.047 C6.268,9.047 6.036,8.985 5.827,8.881 C5.53,9.229 5.241,9.571 4.964,9.91 C5.036,10.09 5.079,10.286 5.079,10.492 C5.079,11.35 4.38,12.047 3.517,12.047 C3.445,12.047 3.376,12.035 3.306,12.026 C2.118,13.623 1.296,14.914 1.045,15.501 C2.816,16.289 8.374,16.368 12.407,12.286 C16.49,8.153 16.264,2.07 15.572,0.5 L15.572,0.5 Z" class="si-glyph-fill"></path>
        </g>
    </g>
</svg>