<!--?xml version="1.0" encoding="UTF-8" standalone="no"?-->
<svg viewBox="0 0 17 16" version="1.1" xmlns="http://www.w3.org/2000/svg" xmlns:xlink="http://www.w3.org/1999/xlink" class="si-glyph si-glyph-sock">
    <!-- Generator: Sketch 3.0.3 (7891) - http://www.bohemiancoding.com/sketch -->
    <title>658</title>
    
    <defs></defs>
    <g stroke="none" stroke-width="1" fill="none" fill-rule="evenodd">
        <g transform="translate(3.000000, 0.000000)" fill="#434343">
            <path d="M11.1455078,1.955 L11.366,1.955 C11.685,1.955 11.944,1.778 11.944,1.559 L11.944,0.399 C11.944,0.181 11.685,0.00400000002 11.366,0.00400000002 L4.58,0.00400000002 C4.261,0.00400000002 4.004,0.181 4.004,0.399 L4.004,1.559 C4.004,1.778 4.261,1.955 4.58,1.955 L11.1455078,1.955 Z" class="si-glyph-fill"></path>
            <path d="M8.99,13.156 C8.99,13.516 9.062,13.859 9.19,14.172 C10.828,13.76 11.037,12.132 10.925,10.633 C9.818,10.902 8.99,11.929 8.99,13.156 L8.99,13.156 Z" class="si-glyph-fill"></path>
            <path d="M0.0820000001,14.11 C0.0820000001,15.478 1.308,15.852 2.474,15.937 C2.999,15.454 3.336,14.765 3.336,13.996 C3.336,12.969 2.74,12.085 1.883,11.647 C0.173,12.647 0.0820000001,13.357 0.0820000001,14.11 L0.0820000001,14.11 Z" class="si-glyph-fill"></path>
            <path d="M10.856,9.961 C10.754,9.17 10.608,8.206 10.607,7.853 C10.59,4.801 10.909,3.016 10.909,3.016 L5.099,3.057 C5.099,3.057 5.401,4.615 5.401,6.343 C5.401,8.071 6.11,9.584 3.246,10.955 C3.058,11.045 2.883,11.133 2.717,11.219 C3.566,11.825 4.125,12.833 4.125,13.975 C4.125,14.705 3.891,15.377 3.505,15.929 C4.453,15.752 6.467,14.834 8.5,14.369 C8.363,14.002 8.278,13.607 8.278,13.191 C8.278,11.601 9.387,10.27 10.856,9.961 L10.856,9.961 Z" class="si-glyph-fill"></path>
        </g>
    </g>
</svg>