<!--?xml version="1.0" encoding="UTF-8" standalone="no"?-->
<svg viewBox="0 0 17 16" version="1.1" xmlns="http://www.w3.org/2000/svg" xmlns:xlink="http://www.w3.org/1999/xlink" class="si-glyph si-glyph-battery-half-2">
    <!-- Generator: Sketch 3.0.3 (7891) - http://www.bohemiancoding.com/sketch -->
    <title>1169</title>
    
    <defs></defs>
    <g stroke="none" stroke-width="1" fill="none" fill-rule="evenodd">
        <g transform="translate(5.000000, 0.000000)" fill="#434343">
            <path d="M2.062,13.472 C2.062,13.741 2.274,13.959 2.533,13.959 L6.469,13.959 C6.727,13.959 6.939,13.74 6.939,13.472 L6.939,8.094 L2.063,10.159 L2.063,13.472 L2.062,13.472 Z" class="si-glyph-fill"></path>
            <path d="M7.252,1 L6,1 L6,0 L3.023,0 L3.023,1 L1.715,1 C0.779,1 0.021,1.492 0.021,2.417 L0.021,14.542 C0.021,15.466 0.78,16 1.715,16 L7.251,16 C8.187,16 8.999,15.465 8.999,14.542 L8.999,2.417 C9,1.492 8.188,1 7.252,1 L7.252,1 Z M8,14 C8,14.516 7.516,15 7,15 L2,15 C1.485,15 1,14.516 1,14 L1,3 C1,2.486 1.485,2 2,2 L7,2 C7.516,2 8,2.485 8,3 L8,14 L8,14 Z" class="si-glyph-fill"></path>
        </g>
    </g>
</svg>