<!--?xml version="1.0" encoding="UTF-8" standalone="no"?-->
<svg viewBox="0 0 17 16" version="1.1" xmlns="http://www.w3.org/2000/svg" xmlns:xlink="http://www.w3.org/1999/xlink" class="si-glyph si-glyph-comb">
    <!-- Generator: Sketch 3.0.3 (7891) - http://www.bohemiancoding.com/sketch -->
    <title>720</title>
    
    <defs></defs>
    <g stroke="none" stroke-width="1" fill="none" fill-rule="evenodd">
        <path d="M14.563,2.427 L16.951,4.816 C17.234,3.841 16.234,2.102 14.461,0.33 C13.219,-0.914 9.874,1.705 6.244,5.336 C2.615,8.965 0.076,12.228 1.318,13.471 C3.056,15.208 4.851,16.246 5.842,15.951 L3.441,13.551 C3.117,13.227 3.104,12.717 3.41,12.41 L4.899,10.922 L7.704,13.727 C8.037,14.06 8.529,14.105 8.807,13.829 C9.082,13.553 9.037,13.059 8.705,12.727 L5.899,9.922 L7.899,7.923 L10.704,10.727 C11.037,11.06 11.529,11.105 11.807,10.829 C12.082,10.553 12.037,10.059 11.705,9.727 L8.9,6.922 L10.9,4.923 L13.705,7.727 C14.038,8.06 14.53,8.105 14.808,7.829 C15.083,7.553 15.038,7.059 14.706,6.727 L11.901,3.922 L13.424,2.399 C13.73,2.091 14.24,2.104 14.563,2.427 L14.563,2.427 Z" fill="#434343" class="si-glyph-fill"></path>
    </g>
</svg>