<!--?xml version="1.0" encoding="UTF-8" standalone="no"?-->
<svg viewBox="0 0 16 17" version="1.1" xmlns="http://www.w3.org/2000/svg" xmlns:xlink="http://www.w3.org/1999/xlink" class="si-glyph si-glyph-rightwards-arrow-to-bar">
    <!-- Generator: Sketch 3.0.3 (7891) - http://www.bohemiancoding.com/sketch -->
    <title>1217</title>
    
    <defs></defs>
    <g stroke="none" stroke-width="1" fill="none" fill-rule="evenodd">
        <g transform="translate(1.000000, 0.000000)" fill="#434343">
            <path d="M10.002,1 C10.002,0.447 10.444,0 10.991,0 L12.97,0 C13.517,0 13.959,0.447 13.959,1 L13.959,15 C13.959,15.553 13.517,16 12.97,16 L10.991,16 C10.444,16 10.002,15.553 10.002,15 L10.002,1 L10.002,1 Z" class="si-glyph-fill"></path>
            <path d="M2.113,15.495 C1.531,16.076 0.01,16.395 0.01,14.494 L0.01,1.506 C0.01,-0.333 1.531,-0.076 2.113,0.506 L8.557,6.948 C9.137,7.529 9.137,8.47 8.557,9.052 L2.113,15.495 L2.113,15.495 Z" class="si-glyph-fill"></path>
        </g>
    </g>
</svg>