<!--?xml version="1.0" encoding="UTF-8" standalone="no"?-->
<svg viewBox="0 0 16 16" version="1.1" xmlns="http://www.w3.org/2000/svg" xmlns:xlink="http://www.w3.org/1999/xlink" class="si-glyph si-glyph-home-page">
    <!-- Generator: Sketch 3.0.3 (7891) - http://www.bohemiancoding.com/sketch -->
    <title>142</title>
    
    <defs></defs>
    <g stroke="none" stroke-width="1" fill="none" fill-rule="evenodd">
        <g transform="translate(2.000000, 0.000000)" fill="#434343">
            <path d="M5.65,4.158 L1.165,9.098 C0.954,9.332 0.956,9.712 1.167,9.947 L4.035,9.952 L4.035,14.976 C4.035,15.529 4.474,15.976 5.017,15.976 L6.982,15.976 C7.525,15.976 7.964,15.529 7.964,14.976 L7.964,9.956 L10.775,9.961 C10.984,9.73 10.982,9.349 10.771,9.113 L6.414,4.159 C6.201,3.927 5.861,3.925 5.65,4.158 L5.65,4.158 Z" class="si-glyph-fill"></path>
            <path d="M11.918,1.834 C11.918,2.386 11.481,2.834 10.945,2.834 L1.056,2.834 C0.519,2.834 0.083,2.386 0.083,1.834 L0.083,1 C0.083,0.448 0.519,0 1.056,0 L10.945,0 C11.481,0 11.918,0.448 11.918,1 L11.918,1.834 L11.918,1.834 Z" class="si-glyph-fill"></path>
        </g>
    </g>
</svg>