
<svg viewBox="0 0 16 16" version="1.1" xmlns="http://www.w3.org/2000/svg" xmlns:xlink="http://www.w3.org/1999/xlink" class="si-glyph si-glyph-ambulance"><title>831</title><defs></defs><g stroke="none" stroke-width="1" fill="none" fill-rule="evenodd"><g transform="translate(0.000000, 2.000000)" fill="#434343"><g transform="translate(2.000000, 0.000000)"><circle cx="1.433" cy="9.433" r="1.433" class="si-glyph-fill"></circle><ellipse cx="9.451" cy="9.474" rx="1.451" ry="1.474" class="si-glyph-fill"></ellipse><path d="M8.953,2.047 C8.953,0.925 9.053,0.016 8.009,0.016 C6.964,0.016 7.016,0.925 7.016,2.047 L8.953,2.047 L8.953,2.047 Z" class="si-glyph-fill"></path></g><path d="M15.338,5.735 C15.338,5.735 12.729,2 11.994,2 L1.392,2 C0.659,2 0.064,2.599 0.064,3.336 L0.064,8.651 C0.064,9.387 0.392,9.987 0.392,9.987 L0.945,9.987 C0.922,9.846 0.902,9.704 0.902,9.556 C0.902,8.118 2.062,6.954 3.504,6.954 C4.938,6.954 6.102,8.118 6.102,9.556 C6.102,9.703 6.082,9.846 6.059,9.987 L8.946,9.987 C8.923,9.846 8.903,9.704 8.903,9.556 C8.903,8.118 10.063,6.954 11.505,6.954 C12.939,6.954 14.103,8.118 14.103,9.556 C14.103,9.703 14.083,9.846 14.06,9.987 L14.654,9.987 C15.388,9.987 15.983,9.387 15.983,8.651 L15.983,7.321 C15.981,6.487 15.338,5.735 15.338,5.735 L15.338,5.735 Z M8.047,5.047 L7.043,5.047 L7.043,6.052 L5.958,6.052 L5.958,5.047 L4.953,5.047 L4.953,3.963 L5.958,3.963 L5.958,2.958 L7.043,2.958 L7.043,3.963 L8.047,3.963 L8.047,5.047 L8.047,5.047 Z M9.918,6.042 L9.918,2.904 L11.285,2.904 C11.921,2.904 12.66,3.935 12.66,3.935 L14.124,6.041 L9.918,6.041 L9.918,6.042 Z" class="si-glyph-fill"></path></g></g></svg>