<!--?xml version="1.0" encoding="UTF-8" standalone="no"?-->
<svg viewBox="0 0 17 16" version="1.1" xmlns="http://www.w3.org/2000/svg" xmlns:xlink="http://www.w3.org/1999/xlink" class="si-glyph si-glyph-history">
    <!-- Generator: Sketch 3.0.3 (7891) - http://www.bohemiancoding.com/sketch -->
    <title>688</title>
    
    <defs></defs>
    <g stroke="none" stroke-width="1" fill="none" fill-rule="evenodd">
        <g transform="translate(1.000000, 1.000000)" fill="#434343">
            <path d="M7.479,0.046 C11.338,0.046 14.298,3.238 14.645,7.031 L15.969,7.031 L14.077,8.983 L12.012,7.031 L13.35,7.031 C13.02,3.802 10.604,1.073 7.414,1.073 C4.002,1.073 1.225,3.961 1.225,7.51 C1.225,11.059 4.002,13.948 7.414,13.948 C9.109,13.948 10.645,13.235 11.764,12.083 L12.586,12.909 C11.252,14.185 9.456,14.974 7.479,14.974 C3.387,14.974 0.0600000001,11.625 0.0600000001,7.51 C0.0600000001,3.395 3.387,0.046 7.479,0.046 L7.479,0.046 Z" class="si-glyph-fill"></path>
            <path d="M7.05800003,3.03076172 L7,7.952 L11,8 L11,7 L7.968,7.062 L7.96800003,3.03076172 C7.96900003,3.03076172 7.05800003,3.03076172 7.05800003,3.03076172 Z" class="si-glyph-fill"></path>
        </g>
    </g>
</svg>