<!--?xml version="1.0" encoding="UTF-8" standalone="no"?-->
<svg viewBox="0 0 17 16" version="1.1" xmlns="http://www.w3.org/2000/svg" xmlns:xlink="http://www.w3.org/1999/xlink" class="si-glyph si-glyph-record">
    <!-- Generator: Sketch 3.0.3 (7891) - http://www.bohemiancoding.com/sketch -->
    <title>857</title>
    
    <defs></defs>
    <g stroke="none" stroke-width="1" fill="none" fill-rule="evenodd">
        <path d="M12.98,5.004 C10.787,5.004 9.004,6.797 9.004,9 C9.004,9.732 9.215,10.409 9.559,11 L8.354,11 C8.709,10.404 8.926,9.717 8.926,8.974 C8.926,6.784 7.15,5.001 4.968,5.001 C2.786,5.001 1.011,6.783 1.011,8.974 C1.011,11.165 2.786,12.947 4.968,12.947 C4.979,12.947 4.999,13 4.999,13 L12.999,13 C15.184,12.981 16.957,11.195 16.957,9 C16.957,6.797 15.173,5.004 12.98,5.004 Z M4.99953019,11 C3.89640592,11 3,10.1030303 3,9 C3,7.8969697 3.89640592,7 4.99953019,7 C6.10265445,7 7,7.8969697 7,9 C7,10.1030303 6.10265445,11 4.99953019,11 L4.99953019,11 Z M12.9999996,11 C11.8974853,11 11,10.1029201 11,9.0009574 C11,7.89803734 11.8984524,7 12.9999996,7 C14.103481,7 14.9999992,7.89803734 14.9999992,9.0009574 C15.0009663,10.1029201 14.103481,11 12.9999996,11 L12.9999996,11 Z" fill="#434343" class="si-glyph-fill"></path>
    </g>
</svg>