<!--?xml version="1.0" encoding="UTF-8" standalone="no"?-->
<svg viewBox="0 0 17 16" version="1.1" xmlns="http://www.w3.org/2000/svg" xmlns:xlink="http://www.w3.org/1999/xlink" class="si-glyph si-glyph-link-3">
    <!-- Generator: Sketch 3.0.3 (7891) - http://www.bohemiancoding.com/sketch -->
    <title>660</title>
    
    <defs></defs>
    <g stroke="none" stroke-width="1" fill="none" fill-rule="evenodd">
        <path d="M16.969,2 C16.969,0.896 16.075,0 14.973,0 C13.871,0 13.014,0.896 13.014,2 C13.014,2.723 13.422,3.332 14,3.683 L14,7.021 L10.688,7.021 C10.345,6.42 9.722,6 8.982,6 C8.241,6 7.618,6.42 7.274,7.021 L3,7.021 C2.447,7.021 2,7.468 2,8.021 L2,12.29 C1.412,12.643 0.994,13.271 0.994,14.001 C0.994,15.105 1.889,16.001 2.99,16.001 C4.093,16.001 4.988,15.105 4.988,14.001 C4.988,13.282 4.576,12.675 4,12.323 L4,8.938 L7.252,8.938 C7.59,9.562 8.225,10 8.982,10 C9.739,10 10.373,9.562 10.711,8.938 L15,8.938 C15.553,8.938 16,8.491 16,7.938 L16,3.684 C16.574,3.333 16.969,2.723 16.969,2 L16.969,2 Z" fill="#434343" class="si-glyph-fill"></path>
    </g>
</svg>