
<svg viewBox="0 0 17 16" version="1.1" xmlns="http://www.w3.org/2000/svg" xmlns:xlink="http://www.w3.org/1999/xlink" class="si-glyph si-glyph-crown"><title>1065</title><defs></defs><g stroke="none" stroke-width="1" fill="none" fill-rule="evenodd"><g transform="translate(1.000000, 0.000000)" fill="#434343"><path d="M12.971,15.23 C12.971,15.653 12.554,15.998 12.039,15.998 L3.951,15.998 C3.436,15.998 3.019,15.653 3.019,15.23 L3.019,14.78 C3.019,14.358 3.436,14.013 3.951,14.013 L12.039,14.013 C12.554,14.013 12.971,14.358 12.971,14.78 L12.971,15.23 L12.971,15.23 Z" class="si-glyph-fill"></path><path d="M12.465,12.979 L3.547,12.979 L1.421,5.365 L2.562,4.656 L5.573,8.907 L7.345,3.042 L8.763,3.042 L10.357,9.262 L13.545,4.656 L14.591,5.365 L12.465,12.979 Z" class="si-glyph-fill"></path><circle cx="14.968" cy="2.968" r="0.968" class="si-glyph-fill"></circle><circle cx="7.964" cy="0.964" r="0.964" class="si-glyph-fill"></circle><ellipse cx="0.983" cy="2.974" rx="0.983" ry="0.974" class="si-glyph-fill"></ellipse></g></g></svg>