<!--?xml version="1.0" encoding="UTF-8" standalone="no"?-->
<svg viewBox="0 0 16 16" version="1.1" xmlns="http://www.w3.org/2000/svg" xmlns:xlink="http://www.w3.org/1999/xlink" class="si-glyph si-glyph-three-ball">
    <!-- Generator: Sketch 3.0.3 (7891) - http://www.bohemiancoding.com/sketch -->
    <title>647</title>
    
    <defs></defs>
    <g stroke="none" stroke-width="1" fill="none" fill-rule="evenodd">
        <g fill="#434343">
            <path d="M4.518,7.071 C2.046,7.071 0.04,9.066 0.04,11.529 C0.04,13.99 2.046,15.985 4.518,15.985 C6.99,15.985 8.994,13.99 8.994,11.529 C8.993,9.066 6.989,7.071 4.518,7.071 L4.518,7.071 Z M5.082,8.454 C3.076,8.454 1.449,10.086 1.449,12.096 C1.449,12.918 0.732,12.566 0.732,11.377 C0.732,9.365 2.359,7.736 4.367,7.736 C5.553,7.736 5.902,8.454 5.082,8.454 L5.082,8.454 Z" class="si-glyph-fill"></path>
            <path d="M11.518,7.071 C10.48,7.071 9.536,7.437 8.776,8.028 C8.907,8.185 9.026,8.35 9.137,8.521 C9.754,8.037 10.522,7.736 11.367,7.736 C12.553,7.736 12.902,8.454 12.082,8.454 C11.129,8.454 10.27,8.83 9.621,9.432 C9.889,10.078 10.039,10.786 10.039,11.53 C10.039,12.859 9.564,14.078 8.775,15.029 C9.535,15.62 10.479,15.986 11.517,15.986 C13.989,15.986 15.993,13.991 15.993,11.53 C15.993,9.066 13.989,7.071 11.518,7.071 L11.518,7.071 Z" class="si-glyph-fill"></path>
            <path d="M8.018,7.197 C8.976,6.428 10.192,5.967 11.518,5.967 C11.922,5.967 12.315,6.012 12.696,6.093 C12.88,5.605 12.994,5.082 12.994,4.53 C12.994,2.067 10.99,0.072 8.518,0.072 C6.046,0.072 4.04,2.067 4.04,4.53 C4.04,5.04 4.144,5.522 4.303,5.978 C4.375,5.975 4.446,5.967 4.518,5.967 C5.844,5.967 7.06,6.429 8.018,7.197 L8.018,7.197 Z M8.367,0.736 C9.553,0.736 9.902,1.454 9.082,1.454 C7.076,1.454 5.449,3.086 5.449,5.096 C5.449,5.918 4.732,5.566 4.732,4.377 C4.732,2.365 6.359,0.736 8.367,0.736 L8.367,0.736 Z" class="si-glyph-fill"></path>
        </g>
    </g>
</svg>