
<svg viewBox="0 0 17 16" version="1.1" xmlns="http://www.w3.org/2000/svg" xmlns:xlink="http://www.w3.org/1999/xlink" class="si-glyph si-glyph-wind-turbines"><title>683</title><defs></defs><g stroke="none" stroke-width="1" fill="none" fill-rule="evenodd"><g transform="translate(4.000000, 0.000000)" fill="#434343"><g><path d="M6.938,15.299 C6.938,15.651 5.88,15.938 5.496,15.938 L5.496,15.938 C5.111,15.938 4.054,15.651 4.054,15.299 L4.798,7.707 C4.798,7.354 5.111,7.068 5.496,7.068 L5.496,7.068 C5.881,7.068 6.194,7.354 6.194,7.707 L6.938,15.299 L6.938,15.299 Z" class="si-glyph-fill"></path><path d="M5.974,3.498 C5.974,3.778 5.764,4.004 5.506,4.004 L5.506,4.004 C5.246,4.004 5.037,3.778 5.037,3.498 L5.037,0.568 C5.037,0.289 5.246,0.062 5.506,0.062 L5.506,0.062 C5.764,0.062 5.974,0.289 5.974,0.568 L5.974,3.498 L5.974,3.498 Z" class="si-glyph-fill"></path><path d="M0.844,8.939 C0.579,9.122 0.242,9.091 0.088,8.872 L0.088,8.872 C-0.062,8.653 0.027,8.325 0.291,8.143 L3.062,6.223 C3.326,6.041 3.665,6.07 3.817,6.289 L3.817,6.289 C3.969,6.509 3.879,6.836 3.614,7.019 L0.844,8.939 L0.844,8.939 Z" class="si-glyph-fill"></path><path d="M10.712,7.949 C10.983,8.124 11.066,8.474 10.9,8.732 L10.9,8.732 C10.732,8.992 10.379,9.059 10.109,8.886 L7.273,7.063 C7.003,6.89 6.918,6.538 7.085,6.279 L7.085,6.279 C7.251,6.021 7.605,5.954 7.874,6.126 L10.712,7.949 L10.712,7.949 Z" class="si-glyph-fill"></path></g><rect x="5" y="5" width="0.906" height="0.938" class="si-glyph-fill"></rect></g></g></svg>