<!--?xml version="1.0" encoding="UTF-8" standalone="no"?-->
<svg viewBox="0 0 17 17" version="1.1" xmlns="http://www.w3.org/2000/svg" xmlns:xlink="http://www.w3.org/1999/xlink" class="si-glyph si-glyph-share-3">
    <!-- Generator: Sketch 3.0.3 (7891) - http://www.bohemiancoding.com/sketch -->
    <title>1054</title>
    
    <defs></defs>
    <g stroke="none" stroke-width="1" fill="none" fill-rule="evenodd">
        <path d="M14.477,1.042 C13.102,1.042 12.007,2.104 12.007,3.484 C12.007,3.839 12.115,4.445 12.25,4.75 L9.458,7.583 L6.687,4.895 C6.848,4.564 6.991,3.961 6.991,3.567 C6.991,2.187 5.893,1.031 4.517,1.031 C3.144,1.031 2.012,2.187 2.012,3.567 C2.012,4.948 3.115,5.994 4.49,5.994 C4.985,5.994 5.445,5.844 5.832,5.594 L9.007,8.737 L9.007,12.032 C7.986,12.344 7,13.326 7,14.454 C7,15.835 8.114,17.001 9.49,17.001 C10.864,17.001 11.978,15.835 11.978,14.454 C11.978,13.327 10.997,12.346 9.976,12.032 L9.976,8.675 L13.14,5.594 L13.117,5.568 C13.513,5.832 13.986,5.987 14.496,5.987 C15.869,5.987 16.984,4.867 16.984,3.486 C16.984,2.104 15.852,1.042 14.477,1.042 L14.477,1.042 Z M4.486,5.023 C3.65,5.023 2.972,4.339 2.972,3.497 C2.972,2.655 3.65,1.971 4.486,1.971 C5.321,1.971 5.999,2.655 5.999,3.497 C5.999,4.339 5.321,5.023 4.486,5.023 L4.486,5.023 Z M11.04,14.516 C11.04,15.37 10.348,16.063 9.492,16.063 C8.635,16.063 7.943,15.371 7.943,14.516 C7.943,13.661 8.634,12.969 9.492,12.969 C10.348,12.969 11.04,13.661 11.04,14.516 L11.04,14.516 Z M14.496,5.04 C13.649,5.04 12.963,4.334 12.963,3.461 C12.963,2.592 13.65,1.884 14.496,1.884 C15.342,1.884 16.03,2.592 16.03,3.461 C16.03,4.334 15.342,5.04 14.496,5.04 L14.496,5.04 Z" fill="#434343" class="si-glyph-fill"></path>
    </g>
</svg>