<!--?xml version="1.0" encoding="UTF-8" standalone="no"?-->
<svg viewBox="0 0 16 16" version="1.1" xmlns="http://www.w3.org/2000/svg" xmlns:xlink="http://www.w3.org/1999/xlink" class="si-glyph si-glyph-heart-signal">
    <!-- Generator: Sketch 3.0.3 (7891) - http://www.bohemiancoding.com/sketch -->
    <title>158</title>
    
    <defs></defs>
    <g stroke="none" stroke-width="1" fill="none" fill-rule="evenodd">
        <g transform="translate(0.000000, 1.000000)" fill="#434343">
            <path d="M9.953,7.107 L8.649,9.492 C8.587,9.608 8.464,9.675 8.318,9.662 C8.181,9.649 8.068,9.557 8.031,9.432 L7.056,6.116 L5.843,10.062 C5.806,10.202 5.676,10.301 5.526,10.304 L5.517,10.304 C5.371,10.304 5.241,10.211 5.198,10.075 L3.44,4.447 L2.303,6.933 C2.245,7.039 2.177,7.152 2.052,7.152 L0.492,7.152 C2.178,11.741 8.047,14.049 8.047,14.049 C8.047,14.049 13.892,11.754 15.558,7.107 L9.953,7.107 L9.953,7.107 Z" class="si-glyph-fill"></path>
            <path d="M1.801,5.945 L3.226,2.837 C3.288,2.715 3.416,2.641 3.554,2.656 C3.691,2.67 3.805,2.763 3.844,2.894 L5.491,8.405 L6.712,4.245 C6.748,4.098 6.88,3.994 7.031,3.992 L7.035,3.992 C7.185,3.992 7.318,4.092 7.358,4.236 L8.447,8.104 L9.454,6.176 C9.512,6.066 9.627,5.945 9.75,5.945 L15.756,5.945 C15.91,5.33 16,4.732 16,4.044 C16,1.817 14.195,0.013 11.969,0.013 C10.046,0.013 8.44,1.361 8.037,3.162 C7.618,1.359 6.005,0.013 4.073,0.013 C1.823,0.013 -2.27373675e-13,1.837 -2.27373675e-13,4.086 C-2.27373675e-13,4.758 0.09,5.342 0.244,5.945 L1.801,5.945 L1.801,5.945 Z" class="si-glyph-fill"></path>
        </g>
    </g>
</svg>