<!--?xml version="1.0" encoding="UTF-8" standalone="no"?-->
<svg viewBox="0 0 17 17" version="1.1" xmlns="http://www.w3.org/2000/svg" xmlns:xlink="http://www.w3.org/1999/xlink" class="si-glyph si-glyph-gear-1">
    <!-- Generator: Sketch 3.0.3 (7891) - http://www.bohemiancoding.com/sketch -->
    <title>887</title>
    
    <defs></defs>
    <g stroke="none" stroke-width="1" fill="none" fill-rule="evenodd">
        <g transform="translate(1.000000, 1.000000)" fill="#434343">
            <path d="M7.887,9.025 C7.799,8.449 7.569,7.92 7.229,7.475 L7.995,6.71 L7.307,6.023 L6.536,6.794 C6.093,6.467 5.566,6.245 4.994,6.161 L4.994,5.066 L4.021,5.066 L4.021,6.155 C3.444,6.232 2.913,6.452 2.461,6.777 L1.709,6.024 L1.021,6.712 L1.761,7.452 C1.411,7.901 1.175,8.437 1.087,9.024 L0.062,9.024 L0.062,9.025 L0.062,9.998 L1.08,9.998 C1.162,10.589 1.396,11.132 1.744,11.587 L1.02,12.31 L1.708,12.997 L2.437,12.268 C2.892,12.604 3.432,12.83 4.02,12.91 L4.02,13.958 L4.993,13.958 L4.993,12.904 C5.576,12.818 6.11,12.589 6.56,12.252 L7.306,12.999 L7.994,12.311 L7.248,11.564 C7.586,11.115 7.812,10.581 7.893,10 L8.952,10 L8.952,9.998 L8.952,9.026 L7.887,9.026 L7.887,9.025 Z M4.496,11.295 C3.512,11.295 2.715,10.497 2.715,9.512 C2.715,8.528 3.512,7.73 4.496,7.73 C5.481,7.73 6.28,8.528 6.28,9.512 C6.28,10.497 5.481,11.295 4.496,11.295 L4.496,11.295 Z" class="si-glyph-fill"></path>
            <path d="M13.031,3.37 L14.121,3.089 L13.869,2.11 L12.778,2.392 C12.66,2.152 12.513,1.922 12.317,1.72 C12.125,1.524 11.902,1.376 11.67,1.256 L11.971,0.177 L10.998,-0.094 L10.699,0.978 C10.158,0.935 9.608,1.056 9.133,1.36 L8.373,0.584 L7.652,1.291 L8.408,2.061 C8.082,2.531 7.939,3.085 7.967,3.636 L6.927,3.904 L7.179,4.881 L8.217,4.613 C8.334,4.856 8.483,5.088 8.682,5.291 C8.885,5.499 9.121,5.653 9.368,5.776 L9.079,6.815 L10.05,7.086 L10.343,6.038 C10.885,6.071 11.435,5.938 11.906,5.623 L12.677,6.409 L13.397,5.702 L12.621,4.911 C12.928,4.446 13.06,3.905 13.031,3.37 L13.031,3.37 Z M10.514,4.987 C9.691,4.987 9.023,4.318 9.023,3.494 C9.023,2.672 9.691,2.005 10.514,2.005 C11.336,2.005 12.004,2.672 12.004,3.494 C12.004,4.318 11.336,4.987 10.514,4.987 L10.514,4.987 Z" class="si-glyph-fill"></path>
        </g>
    </g>
</svg>