<!--?xml version="1.0" encoding="UTF-8" standalone="no"?-->
<svg viewBox="0 0 16 16" version="1.1" xmlns="http://www.w3.org/2000/svg" xmlns:xlink="http://www.w3.org/1999/xlink" class="si-glyph si-glyph-curtain">
    <!-- Generator: Sketch 3.0.3 (7891) - http://www.bohemiancoding.com/sketch -->
    <title>Curtain</title>
    
    <defs></defs>
    <g stroke="none" stroke-width="1" fill="none" fill-rule="evenodd">
        <g fill="#434343">
            <path d="M15.963,15.959 L15.062,15.959 L15.062,0.953 L0.938,0.961 L0.938,15.959 L0.043,15.959 L0.043,0.047 L15.963,0.047 L15.963,15.959 Z" class="si-glyph-fill"></path>
            <path d="M1.295,11.253 C7.052,9.019 5.889,0.954 5.889,0.954 L5.016,0.954 C5.204,5.594 4.137,8.25 1.975,9.842 C2.155,9.589 4.094,8.219 3.985,0.954 L3.032,0.954 C3.009,1.949 3.297,8.135 0.569,10.555 C0.569,10.555 2.15,8.329 1.938,0.954 L0.126,0.954 L0.126,15.993 L1.962,15.993 C1.937,13.898 1.695,12.49 1.001,11.984 C1.001,11.984 2.999,11.936 3.048,15.993 L3.986,15.993 C3.984,15.993 4.25,12.047 1.295,11.253 L1.295,11.253 Z" class="si-glyph-fill"></path>
            <path d="M14.717,11.23 C8.961,9.003 10.123,0.97 10.123,0.97 L11,0.97 C10.719,5.546 11.877,8.239 14.037,9.824 C13.859,9.571 11.828,8.203 12.077,0.97 L12.969,0.97 C12.994,1.964 12.717,8.123 15.445,10.535 C15.445,10.535 13.819,8.317 14.032,0.97 L15.964,0.97 L15.964,15.952 L14.052,15.952 C14.079,13.865 14.323,12.517 15.017,12.014 C15.017,12.014 12.988,11.91 12.939,15.952 L12.033,15.952 C12.031,15.953 11.578,12.219 14.717,11.23 L14.717,11.23 Z" class="si-glyph-fill"></path>
        </g>
    </g>
</svg>