
<svg viewBox="0 0 16 16" version="1.1" xmlns="http://www.w3.org/2000/svg" xmlns:xlink="http://www.w3.org/1999/xlink" class="si-glyph si-glyph-gift"><title>654</title><defs></defs><g stroke="none" stroke-width="1" fill="none" fill-rule="evenodd"><g fill="#434343"><rect x="0" y="4" width="16" height="3" class="si-glyph-fill"></rect><path d="M12.66,9.777 C12.973,10.062 12.973,10.523 12.66,10.806 C12.346,11.09 11.836,11.09 11.52,10.806 L8.485,8.064 L7.489,8.064 L4.454,10.806 C4.139,11.09 3.629,11.09 3.314,10.806 C3.002,10.523 3.002,10.062 3.314,9.777 L5.212,8.064 L1,8 L1,16 L15,16 L15,8 L10.762,8.064 L12.66,9.777 Z" class="si-glyph-fill"></path><path d="M11.9281334,0.097 C10.7692406,0.097 9.30537606,0.935 7.96894614,2.35 C6.63251622,0.935 5.16974085,0.097 4.01302645,0.097 C3.42050984,0.097 2.91512803,0.318 2.55242945,0.734 C1.95446691,1.418 1.87538613,2.75499998 2.25986841,4.03799998 L4.21997159,4.038 C4.21997159,4.038 3.63012698,3.03137219 3.79192191,2.154 C3.80717049,2.136 3.87034322,2.103 4.01193726,2.103 C4.58484854,2.103 5.91691715,2.78099998 7.06927481,4.03799998 L8.91412345,4.03799998 C10.0708379,2.77399998 11.3334384,2.103 11.9270442,2.103 C12.1034922,2.103 12.1470596,2.152 12.1470596,2.152 C12.2709965,3.28997814 11.7146531,4.038 11.7146531,4.038 L13.7529479,4.03799998 C14.1396085,2.75499998 13.9834254,1.418 13.3876412,0.734 C13.0238534,0.318 12.5195608,0.097 11.9281334,0.097 Z" class="si-glyph-fill"></path></g></g></svg>