<!--?xml version="1.0" encoding="UTF-8" standalone="no"?-->
<svg viewBox="0 0 17 16" version="1.1" xmlns="http://www.w3.org/2000/svg" xmlns:xlink="http://www.w3.org/1999/xlink" class="si-glyph si-glyph-mocule">
    <!-- Generator: Sketch 3.0.3 (7891) - http://www.bohemiancoding.com/sketch -->
    <title>666</title>
    
    <defs></defs>
    <g stroke="none" stroke-width="1" fill="none" fill-rule="evenodd">
        <path d="M17,9.935 L17,6.086 C16.957,6.113 16.924,6.154 16.883,6.185 L14.69,3.956 C14.855,3.669 14.957,3.341 14.957,2.986 C14.957,1.905 14.081,1.03 13.003,1.03 C11.923,1.03 11.049,1.905 11.049,2.986 C11.049,3.349 11.153,3.685 11.327,3.977 L8.991,6.277 C8.705,6.117 8.38,6.017 8.028,6.017 C7.653,6.017 7.305,6.127 7.007,6.309 L4.722,3.987 C4.882,3.703 4.983,3.379 4.983,3.029 C4.983,1.942 4.093,1.061 2.998,1.061 C1.9,1.061 1.012,1.942 1.012,3.029 C1.012,4.117 1.901,4.998 2.998,4.998 C3.376,4.998 3.726,4.888 4.026,4.706 L6.315,7.031 C6.154,7.315 6.056,7.639 6.056,7.989 C6.056,8.349 6.16,8.683 6.329,8.974 L3.975,11.292 C3.689,11.134 3.364,11.035 3.012,11.035 C1.924,11.035 1.041,11.903 1.041,12.975 C1.041,14.047 1.924,14.915 3.012,14.915 C4.1,14.915 4.982,14.047 4.982,12.975 C4.982,12.611 4.874,12.274 4.697,11.983 L7.034,9.682 C7.327,9.854 7.664,9.959 8.028,9.959 C8.387,9.959 8.719,9.855 9.009,9.688 L11.317,12.032 C11.149,12.318 11.046,12.645 11.046,13 C11.046,14.071 11.92,14.938 13,14.938 C14.078,14.938 14.954,14.071 14.954,13 C14.954,12.636 14.846,12.299 14.67,12.008 L16.875,9.826 C16.918,9.861 16.954,9.905 17,9.935 L17,9.935 Z M12.027,11.33 L9.72,8.987 C9.893,8.693 9.999,8.355 9.999,7.989 C9.999,7.615 9.89,7.269 9.708,6.971 L12.038,4.678 C12.323,4.841 12.649,4.942 13.001,4.942 C13.361,4.942 13.694,4.838 13.985,4.667 L16.247,6.964 C16.097,7.276 16.003,7.627 16.003,8.01 C16.003,8.389 16.096,8.737 16.243,9.046 L13.946,11.317 C13.665,11.161 13.344,11.064 12.999,11.064 C12.644,11.064 12.314,11.166 12.027,11.33 L12.027,11.33 Z" fill="#434343" class="si-glyph-fill"></path>
    </g>
</svg>