<!--?xml version="1.0" encoding="UTF-8" standalone="no"?-->
<svg viewBox="0 0 17 16" version="1.1" xmlns="http://www.w3.org/2000/svg" xmlns:xlink="http://www.w3.org/1999/xlink" class="si-glyph si-glyph-trumpet">
    <!-- Generator: Sketch 3.0.3 (7891) - http://www.bohemiancoding.com/sketch -->
    <title>706</title>
    
    <defs></defs>
    <g stroke="none" stroke-width="1" fill="none" fill-rule="evenodd">
        <g transform="translate(1.000000, 0.000000)" fill="#434343">
            <path d="M13.622,3.308 L14.698,2.232 L13.788,1.322 C13.788,1.322 12.735,2.375 11.357,3.753 L10.658,3.055 L10,3.715 L10.697,4.412 C10.274,4.835 9.833,5.276 9.392,5.717 L8.725,5.05 L8.004,5.772 L8.67,6.439 C8.218,6.891 7.781,7.328 7.368,7.741 L6.765,7.138 L6.074,7.829 L6.677,8.432 C5.987,9.122 5.427,9.682 5.139,9.97 C3.77,11.339 0.818,12.089 0.039,11.31 C0.039,11.31 0.435,12.676 1.875,14.115 C3.313,15.554 4.709,15.98 4.709,15.98 C3.93,15.202 4.701,12.228 6.049,10.881 C6.297,10.633 6.749,10.18 7.319,9.611 L8.356,10.647 C8.587,10.878 8.896,10.989 9.231,10.989 C9.714,10.989 10.252,10.758 10.694,10.317 L14.33,6.68 C14.757,6.254 15.001,5.721 15.001,5.217 C15.001,4.868 14.882,4.566 14.66,4.343 L13.622,3.308 L13.622,3.308 Z M13.757,6.109 L10.121,9.746 C9.671,10.193 9.13,10.278 8.928,10.076 L7.891,9.04 C9.462,7.469 11.591,5.339 13.05,3.88 L14.087,4.916 C14.173,5.002 14.191,5.128 14.191,5.218 C14.19,5.5 14.024,5.842 13.757,6.109 L13.757,6.109 Z" class="si-glyph-fill"></path>
            <path d="M15.891,1.302 L14.703,0.114 C14.611,0.021 14.404,0.077 14.242,0.24 C14.08,0.403 14.023,0.609 14.115,0.702 L15.304,1.89 C15.398,1.982 15.605,1.926 15.765,1.764 C15.93,1.6 15.984,1.395 15.891,1.302 L15.891,1.302 Z" class="si-glyph-fill"></path>
        </g>
    </g>
</svg>