<!--?xml version="1.0" encoding="UTF-8" standalone="no"?-->
<svg viewBox="0 0 16 16" version="1.1" xmlns="http://www.w3.org/2000/svg" xmlns:xlink="http://www.w3.org/1999/xlink" class="si-glyph si-glyph-syringe">
    <!-- Generator: Sketch 3.0.3 (7891) - http://www.bohemiancoding.com/sketch -->
    <title>144</title>
    
    <defs></defs>
    <g stroke="none" stroke-width="1" fill="none" fill-rule="evenodd">
        <g transform="translate(-1.000000, -1.000000)">
            <path d="M1.03166741,5.25843549 L1.67937101,5.90613909 L5.89227281,1.69323729 L5.24456921,1.04553369 L1.03166741,5.25843549 Z" fill="#434343" class="si-glyph-fill"></path>
            <path d="M2.84418819,4.20746944 L4.45001229,5.81329354 L5.84936319,4.41394264 L4.24353909,2.80811854 L2.84418819,4.20746944 Z" fill="#434343" class="si-glyph-fill"></path>
            <rect x="6.93136599" y="6.48682817" width="1.10398941" height="6.06194187"></rect>
            <rect x="8.84777028" y="4.12142264" width="1.10506754" height="6.06237053"></rect>
            <g transform="translate(3.000000, 3.000000)" fill="#434343">
                <path d="M11.548,13.369 L13.297,12.441 L10.668,9.71 L9.277,11.1 L11.548,13.369 Z" class="si-glyph-fill"></path>
                <path d="M4.79,-0.026 L-0.367,5.13 C-0.498,5.261 -0.521,5.582 -0.387,5.715 C-0.256,5.848 0.107,5.998 0.239,5.867 L0.752,5.353 L6.424,11.024 L6.41,11.038 L7.081,11.711 L7.761,11.031 L8.502,11.773 L11.301,8.973 L10.56,8.232 L11.282,7.511 L10.61,6.839 L10.594,6.854 L4.923,1.182 L5.393,0.712 C5.524,0.58 5.364,0.208 5.231,0.075 C5.1,-0.057 4.922,-0.154 4.79,-0.026 L4.79,-0.026 Z M3.493,2.581 L4.274,1.801 L8.561,6.087 L7.78,6.868 L3.493,2.581 L3.493,2.581 Z M1.372,4.703 L2.153,3.922 L6.439,8.209 L5.659,8.989 L1.372,4.703 L1.372,4.703 Z M7.059,10.39 L6.309,9.639 L9.197,6.751 L9.948,7.502 L7.059,10.39 L7.059,10.39 Z" class="si-glyph-fill"></path>
            </g>
        </g>
    </g>
</svg>