<!--?xml version="1.0" encoding="UTF-8" standalone="no"?-->
<svg viewBox="0 0 17 16" version="1.1" xmlns="http://www.w3.org/2000/svg" xmlns:xlink="http://www.w3.org/1999/xlink" class="si-glyph si-glyph-magnifier-2">
    <!-- Generator: Sketch 3.0.3 (7891) - http://www.bohemiancoding.com/sketch -->
    <title>897</title>
    
    <defs></defs>
    <g stroke="none" stroke-width="1" fill="none" fill-rule="evenodd">
        <g transform="translate(1.000000, 0.000000)" fill="#434343">
            <path d="M15.0249854,7.49949627 C15.0249854,3.35684062 11.6685956,0 7.52649634,0 C3.38439709,0 0.027,3.35684062 0.027,7.49949627 C0.027,11.6421519 3.38439709,15 7.52649634,15 C9.74562199,15 15.027,14.9476123 15.027,14.9476123 C15.027,14.9476123 15.0249854,9.42373564 15.0249854,7.49949627 L15.0249854,7.49949627 Z M7.472,13.029 C4.431,13.029 1.967,10.563 1.967,7.522 C1.967,4.482 4.431,2.017 7.472,2.017 C10.512,2.017 12.978,4.482 12.978,7.522 C12.978,10.563 10.512,13.029 7.472,13.029 L7.472,13.029 Z M13.959,13.958 L12.959,13.958 L12.959,12.958 L13.959,12.958 L13.959,13.958 L13.959,13.958 Z" class="si-glyph-fill"></path>
            <path d="M6.844,3.044 C4.725,3.044 3.005,4.66 3.005,6.652 C3.005,6.902 3.031,7.148 3.082,7.382 C3.268,8.222 3.611,8.073 3.611,7.224 C3.611,5.226 5.33,3.615 7.451,3.615 C8.356,3.615 8.059,3.044 6.844,3.044 L6.844,3.044 Z" class="si-glyph-fill"></path>
        </g>
    </g>
</svg>