<!--?xml version="1.0" encoding="UTF-8" standalone="no"?-->
<svg viewBox="0 0 17 16" version="1.1" xmlns="http://www.w3.org/2000/svg" xmlns:xlink="http://www.w3.org/1999/xlink" class="si-glyph si-glyph-floppy-disk">
    <!-- Generator: Sketch 3.0.3 (7891) - http://www.bohemiancoding.com/sketch -->
    <title>832</title>
    
    <defs></defs>
    <g stroke="none" stroke-width="1" fill="none" fill-rule="evenodd">
        <g transform="translate(0.968151, 0.000000)" fill="#434343">
            <path d="M11.993,0.031 L4.035,0.031 L4.035,5.983 L11.993,5.983 L11.993,0.031 L11.993,0.031 Z M11.0318493,5 L9.03184926,5 L9.03184926,1 L11.0318493,1 L11.0318493,5 L11.0318493,5 Z" class="si-glyph-fill"></path>
            <path d="M14.0196178,0.031 L13.1109039,0.031 L13.1109039,7.10112134 L2.97331513,7.10112134 L2.97331513,0.031 L2.02037174,0.031 C0.91564095,0.031 0.0209999999,0.950085607 0.0209999999,2.08335637 L0.0209999999,12.9776381 C0.0209999999,14.1109088 0.916646164,15.031 2.02037174,15.031 L14.020623,15.031 C15.1263591,15.031 16.021,14.1109088 16.021,12.9776381 L16.021,2.08335637 L14.0196178,0.031 L14.0196178,0.031 Z M12,13 L4,13 L4,12 L12,12 L12,13 L12,13 Z M12,11 L4,11 L4,10 L12,10 L12,11 L12,11 Z" class="si-glyph-fill"></path>
        </g>
    </g>
</svg>