<!--?xml version="1.0" encoding="UTF-8" standalone="no"?-->
<svg viewBox="0 0 17 16" version="1.1" xmlns="http://www.w3.org/2000/svg" xmlns:xlink="http://www.w3.org/1999/xlink" class="si-glyph si-glyph-trees">
    <!-- Generator: Sketch 3.0.3 (7891) - http://www.bohemiancoding.com/sketch -->
    <title>1034</title>
    
    <defs></defs>
    <g stroke="none" stroke-width="1" fill="none" fill-rule="evenodd">
        <path d="M12.986,14.203 L12.986,11.925 C14.506,11.586 15.953,9.973 15.953,8.029 C15.953,5.839 14.305,0.047 12.502,0.047 C10.699,0.047 9.047,5.839 9.047,8.029 C9.047,9.93 10.56,11.518 12.031,11.903 L12.031,14.113 C11.19,14.067 9.965,14.041 9.02,14.041 C7.933,14.041 6.898,14.116 5.953,14.238 L5.953,11.566 C7.011,11.255 7.923,10.148 7.923,8.816 C7.923,7.246 6.828,3.035 5.481,3.035 C4.131,3.035 3.039,7.246 3.039,8.816 C3.039,10.17 3.944,11.296 5.032,11.585 L5.032,14.378 C2.637,14.791 1.022,15.491 1.022,15.945 L17.022,15.945 C17.021,15.489 15.395,14.414 12.986,14.203 L12.986,14.203 Z" fill="#434343" class="si-glyph-fill"></path>
    </g>
</svg>