<!--?xml version="1.0" encoding="UTF-8" standalone="no"?-->
<svg viewBox="0 0 16 16" version="1.1" xmlns="http://www.w3.org/2000/svg" xmlns:xlink="http://www.w3.org/1999/xlink" class="si-glyph si-glyph-pen-nib">
    <!-- Generator: Sketch 3.0.3 (7891) - http://www.bohemiancoding.com/sketch -->
    <title>163</title>
    
    <defs></defs>
    <g stroke="none" stroke-width="1" fill="none" fill-rule="evenodd">
        <g fill="#434343">
            <path d="M10.723,0.04 L9.938,1.883 L14.188,6.133 L16.018,5.36 L10.723,0.04 Z" class="si-glyph-fill"></path>
            <path d="M3.357,6.132 C3.357,6.132 4.297,10.345 0.063,14.579 C0.16,14.677 0.263,14.779 0.365,14.881 L7.129,8.117 C7.039,7.924 6.984,7.711 6.984,7.484 C6.984,6.656 7.656,5.984 8.484,5.984 C9.312,5.984 9.984,6.656 9.984,7.484 C9.984,8.312 9.312,8.984 8.484,8.984 C8.249,8.984 8.029,8.925 7.83,8.828 L1.072,15.588 C1.206,15.722 1.309,15.825 1.461,15.977 C5.71,11.729 9.924,12.685 9.924,12.685 L12.682,6.631 L9.387,3.336 L3.357,6.132 L3.357,6.132 Z" class="si-glyph-fill"></path>
        </g>
    </g>
</svg>