<!--?xml version="1.0" encoding="UTF-8" standalone="no"?-->
<svg viewBox="0 0 16 16" version="1.1" xmlns="http://www.w3.org/2000/svg" xmlns:xlink="http://www.w3.org/1999/xlink" class="si-glyph si-glyph-dog">
    <!-- Generator: Sketch 3.0.3 (7891) - http://www.bohemiancoding.com/sketch -->
    <title>114</title>
    
    <defs></defs>
    <g stroke="none" stroke-width="1" fill="none" fill-rule="evenodd">
        <g transform="translate(0.000000, 2.000000)" fill="#434343">
            <path d="M3.348,4.007 C3.322,4.007 3.29,4.021 3.262,4.024 L3.293,3.994 L0.025,1.965 L0.011,2.562 L1.511,5.022 C1.234,5.363 1.038,5.728 1.038,6.01 L1.038,10.918 L3,10.918 L3,9.263 L5.98,7.929 L8.999,7.929 L9.666,10.918 L10.918,10.918 L10.918,5.328 L9.911,4.008 L3.348,4.008 L3.348,4.007 Z" class="si-glyph-fill"></path>
            <path d="M13.752,1.623 L13.336,0.238 L10.681,2.86 L12.01,4.243 L14.82,4.847 L16.012,3.975 L13.752,1.623 Z" class="si-glyph-fill"></path>
        </g>
    </g>
</svg>