<!--?xml version="1.0" encoding="UTF-8" standalone="no"?-->
<svg viewBox="0 0 17 17" version="1.1" xmlns="http://www.w3.org/2000/svg" xmlns:xlink="http://www.w3.org/1999/xlink" class="si-glyph si-glyph-extinguisher">
    <!-- Generator: Sketch 3.0.3 (7891) - http://www.bohemiancoding.com/sketch -->
    <title>869</title>
    
    <defs></defs>
    <g stroke="none" stroke-width="1" fill="none" fill-rule="evenodd">
        <path d="M12.995,13.914 L12.995,7.084 C12.995,4.709 10.965,4.125 10.965,4.125 L10.965,2.969 L12.997,2.969 L12.997,2.028 L10.965,2.028 L10.965,2.063 L10.06,2.063 C10.055,2.036 10.038,2.012 10.035,1.985 C10.095,1.401 10.651,0.942 11.326,0.942 L12.998,0.942 L12.998,0 L11.326,0 C10.138,0 9.158,0.826 9.041,1.879 L9.034,2 L7.425,2 C5.915,2.064 4.07,3.002 4.04,6.078 L3.029,10.906 L5.966,10.906 L5.04,6.082 C5.073,3.195 7.329,3.006 7.446,3 L9.029,3 L9.029,4.125 C9.029,4.125 7.097,4.666 7.097,7.084 L7.097,13.893 C7.097,13.893 6.63,15.844 9.757,15.844 C9.757,15.844 7.703,15.844 10.362,15.844 C13.242,15.844 12.995,13.914 12.995,13.914 L12.995,13.914 Z" fill="#434343" class="si-glyph-fill"></path>
    </g>
</svg>