<!--?xml version="1.0" encoding="UTF-8" standalone="no"?-->
<svg viewBox="0 0 17 17" version="1.1" xmlns="http://www.w3.org/2000/svg" xmlns:xlink="http://www.w3.org/1999/xlink" class="si-glyph si-glyph-soccer-yard">
    <!-- Generator: Sketch 3.0.3 (7891) - http://www.bohemiancoding.com/sketch -->
    <title>763</title>
    
    <defs></defs>
    <g stroke="none" stroke-width="1" fill="none" fill-rule="evenodd">
        <g transform="translate(2.000000, 1.000000)" fill="#434343">
            <path d="M3.969,2.085 L3.084,2.085 C2.496,2.085 2.021,2.535 2.021,3.092 L2.021,6.957 L3.985,6.957 C4.247,5.792 5.277,4.917 6.511,4.917 C7.744,4.917 8.776,5.792 9.037,6.957 L10.937,6.957 L10.937,3.092 C10.937,2.535 10.46,2.085 9.874,2.085 L9.047,2.085 L9.047,3.047 L3.969,3.047 L3.969,2.085 L3.969,2.085 Z" class="si-glyph-fill"></path>
            <path d="M6.482,6.038 C5.842,6.038 5.298,6.438 5.083,7 L7.883,7 C7.668,6.438 7.125,6.038 6.482,6.038 L6.482,6.038 Z" class="si-glyph-fill"></path>
            <path d="M6.51,8.962 C7.166,8.962 7.716,8.568 7.916,8.025 L5.104,8.025 C5.304,8.568 5.854,8.962 6.51,8.962 L6.51,8.962 Z" class="si-glyph-fill"></path>
            <path d="M6.511,10.146 C5.256,10.146 4.207,9.243 3.969,8.047 L2.021,8.047 L2.021,11.951 C2.021,12.506 2.497,12.958 3.086,12.958 L3.938,12.958 L3.938,11.937 L9,11.937 L9,12.958 L9.889,12.958 C10.477,12.958 10.953,12.506 10.953,11.951 L10.953,8.047 L9.053,8.047 C8.814,9.242 7.766,10.146 6.511,10.146 L6.511,10.146 Z" class="si-glyph-fill"></path>
            <path d="M12.439,0.042 L0.498,0.042 C0.223,0.042 0,0.264 0,0.537 L0,14.505 C0,14.778 0.223,15 0.498,15 L12.439,15 C12.714,15 12.937,14.778 12.937,14.505 L12.937,0.537 C12.938,0.264 12.715,0.042 12.439,0.042 L12.439,0.042 Z M12.021,14.062 L7.979,14.062 L7.979,13 L5.02,13 L5.02,14.062 L0.937,14.062 L0.937,0.937 L5.02,0.937 L5.02,1.937 L7.953,1.937 L7.953,0.937 L12.021,0.937 L12.021,14.062 L12.021,14.062 Z" class="si-glyph-fill"></path>
        </g>
    </g>
</svg>