<!--?xml version="1.0" encoding="UTF-8" standalone="no"?-->
<svg viewBox="0 0 17 16" version="1.1" xmlns="http://www.w3.org/2000/svg" xmlns:xlink="http://www.w3.org/1999/xlink" class="si-glyph si-glyph-blood-bag">
    <!-- Generator: Sketch 3.0.3 (7891) - http://www.bohemiancoding.com/sketch -->
    <title>675</title>
    
    <defs></defs>
    <g stroke="none" stroke-width="1" fill="none" fill-rule="evenodd">
        <g transform="translate(4.000000, 0.000000)" fill="#434343">
            <path d="M8.958,9.221 L8.958,1.783 C8.958,1.783 9.14,0.052 6.896,0.052 L2.084,0.052 C-0.16,0.052 0.022,1.783 0.022,1.783 L0.022,9.221 C0.022,9.221 -0.124,10.969 1.084,10.969 L3.043,10.969 L3.043,11.917 L4.044,11.917 L4.044,14 L3.043,14 L3.043,15 L4.044,15 L4.044,15.917 L5,15.917 L5,15 L5.938,15 L5.938,14 L5,14 L5,11.917 L6,11.917 L6,10.969 L7.896,10.969 C9.25,10.969 8.958,9.221 8.958,9.221 L8.958,9.221 Z M6.65,10.167 L6,10.167 L6,10 L3.042,10 L3.042,10.167 L2.39,10.167 C0.844,10.167 0.912,8.811 0.912,8.811 L0.912,4.954 L2.969,4.954 L2.969,4.053 L0.912,4.053 L0.912,2.954 L2.953,2.954 L2.953,2.053 L0.965,2.053 C1.069,1.629 1.388,0.917 2.389,0.917 L6.65,0.917 C8,0.917 8.129,2.362 8.129,2.362 L8.129,8.811 C8.13,8.811 8.25,10.167 6.65,10.167 L6.65,10.167 Z" class="si-glyph-fill"></path>
            <path d="M2.023,8.137 C2.023,8.833 2.726,8.944 2.726,8.944 L6.267,8.944 C6.267,8.944 6.971,8.918 6.971,8.137 L6.971,5.027 L2.023,5.027 L2.023,8.137 L2.023,8.137 Z" class="si-glyph-fill"></path>
        </g>
    </g>
</svg>