<!--?xml version="1.0" encoding="UTF-8" standalone="no"?-->
<svg viewBox="0 0 16 16" version="1.1" xmlns="http://www.w3.org/2000/svg" xmlns:xlink="http://www.w3.org/1999/xlink" class="si-glyph si-glyph-book-open">
    <!-- Generator: Sketch 3.0.3 (7891) - http://www.bohemiancoding.com/sketch -->
    <title>153</title>
    
    <defs></defs>
    <g stroke="none" stroke-width="1" fill="none" fill-rule="evenodd">
        <g transform="translate(0.000000, 2.000000)" fill="#434343">
            <g transform="translate(2.000000, 0.000000)">
                <path d="M5.969,0.74 C2.92,-0.712 1.942,0.326 0,1.523 L0,8.968 C1.941,7.763 3.434,6.999 5.969,8.317 L5.969,0.74 L5.969,0.74 Z" class="si-glyph-fill"></path>
                <path d="M6.027,0.758 L6.027,8.349 C9.379,6.988 10.062,7.8 11.984,9 L11.984,1.542 C10.062,0.348 9.447,-0.726 6.027,0.758 L6.027,0.758 Z" class="si-glyph-fill"></path>
            </g>
            <path d="M15.938,11 L0.051,11 L0.051,1.049 L0.953,1.049 L0.953,10.078 L15.031,10.078 L15.031,1.094 L15.938,1.094 L15.938,11 Z" class="si-glyph-fill"></path>
        </g>
    </g>
</svg>