<!--?xml version="1.0" encoding="UTF-8" standalone="no"?-->
<svg viewBox="0 0 17 16" version="1.1" xmlns="http://www.w3.org/2000/svg" xmlns:xlink="http://www.w3.org/1999/xlink" class="si-glyph si-glyph-arrow-backward">
    <!-- Generator: Sketch 3.0.3 (7891) - http://www.bohemiancoding.com/sketch -->
    <title>1181</title>
    
    <defs></defs>
    <g stroke="none" stroke-width="1" fill="none" fill-rule="evenodd">
        <path d="M1.307,5.988 L6.616,1.343 C7.027,0.933 7.507,0.864 7.918,1.275 L7.918,4.407 C8.014,4.406 8.098,4.406 8.147,4.406 C13.163,4.406 16.885,7.969 16.885,12.816 C16.885,14.504 16.111,13.889 15.788,13.3 C14.266,10.52 11.591,8.623 8.107,8.623 C8.066,8.623 7.996,8.624 7.917,8.624 L7.917,11.689 C7.506,12.099 6.976,12.05 6.615,11.757 L1.306,7.474 C0.897,7.064 0.897,6.399 1.307,5.988 L1.307,5.988 Z" fill="#434343" class="si-glyph-fill"></path>
    </g>
</svg>