<!--?xml version="1.0" encoding="UTF-8" standalone="no"?-->
<svg viewBox="0 0 17 16" version="1.1" xmlns="http://www.w3.org/2000/svg" xmlns:xlink="http://www.w3.org/1999/xlink" class="si-glyph si-glyph-resize-out-frame">
    <!-- Generator: Sketch 3.0.3 (7891) - http://www.bohemiancoding.com/sketch -->
    <title>910</title>
    
    <defs></defs>
    <g stroke="none" stroke-width="1" fill="none" fill-rule="evenodd">
        <g fill="#434343">
            <path d="M8.994,12.967 C8.994,14.101 8.074,15.021 6.939,15.021 L3.03,15.021 C1.896,15.021 0.976,14.101 0.976,12.967 L0.976,9.057 C0.976,7.924 1.896,7.004 3.03,7.004 L6.939,7.004 C8.074,7.004 8.994,7.924 8.994,9.057 L8.994,12.967 L8.994,12.967 Z" class="si-glyph-fill"></path>
            <path d="M14.201,2.944 L15.372,5 C15.676,5 15.923,4.754 15.923,4.452 L15.942,0.648 C15.942,0.344 15.695,0.099 15.39,0.099 L11.625,0.082 C11.318,0.082 11.072,0.326 11.072,0.63 L13.086,1.836 L9.27,5.63 C9.115,5.782 9.039,5.982 9.039,6.181 C9.039,6.383 9.115,6.581 9.27,6.734 C9.579,7.04 10.079,7.04 10.387,6.734 L14.201,2.944 L14.201,2.944 Z" class="si-glyph-fill"></path>
            <path d="M15.04,7.021 L15.04,13.605 C15.04,14.4 14.397,15.046 13.604,15.046 L2.375,15.046 C1.584,15.046 0.939,14.4 0.939,13.605 L0.939,2.396 C0.939,1.602 1.584,0.956 2.375,0.956 L8.979,0.956 L8.979,0.026 L2.056,0.026 C0.927,0.026 0.007,0.947 0.007,2.079 L0.007,13.911 C0.007,15.042 0.927,15.964 2.056,15.964 L13.937,15.964 C15.068,15.964 15.988,15.042 15.988,13.911 L15.988,7.021 L15.04,7.021 L15.04,7.021 Z" class="si-glyph-fill"></path>
        </g>
    </g>
</svg>