<!--?xml version="1.0" encoding="UTF-8" standalone="no"?-->
<svg viewBox="0 0 16 16" version="1.1" xmlns="http://www.w3.org/2000/svg" xmlns:xlink="http://www.w3.org/1999/xlink" class="si-glyph si-glyph-cup-cake">
    <!-- Generator: Sketch 3.0.3 (7891) - http://www.bohemiancoding.com/sketch -->
    <title>Cup-cake</title>
    
    <defs></defs>
    <g stroke="none" stroke-width="1" fill="none" fill-rule="evenodd">
        <g fill="#434343">
            <path d="M12.807,8.328 C12.417,8.328 12.057,8.237 11.734,8.09 C11.139,7.819 10.69,7.781 10.53,7.195 C10.284,7.886 9.522,7.992 8.534,8.214 C8.231,8.283 7.915,8.328 7.578,8.328 C7.243,8.328 6.925,8.283 6.622,8.214 C5.563,7.978 4.776,7.807 4.593,7.045 L4.55,7.045 C4.43,7.693 3.984,7.789 3.355,8.086 C3.032,8.235 2.672,8.328 2.285,8.328 C1.986,8.328 1.703,8.274 1.441,8.182 L2.791,13.227 C2.895,13.749 3.349,14.963 4.311,14.963 L10.866,14.963 C11.815,14.963 12.229,13.749 12.386,13.227 L13.739,8.16 C13.451,8.268 13.138,8.328 12.807,8.328 L12.807,8.328 Z M8.021,14.062 L6.946,14.062 L6.946,9.937 L8.021,9.937 L8.021,14.062 L8.021,14.062 Z M5.268,13.969 L4.396,14.078 L3.791,10.135 L4.669,10.025 L5.268,13.969 L5.268,13.969 Z M10.508,10.024 L11.387,10.134 L10.782,14.077 L9.909,13.968 L10.508,10.024 L10.508,10.024 Z" class="si-glyph-fill"></path>
            <path d="M7.599,0.061 C3.527,0.061 0.174,2.518 0.174,4.696 C0.174,4.735 0.15,5.001 0.15,5.1 C0.15,6.151 1.159,7 2.403,7 C2.779,7 3.13,6.915 3.443,6.776 C4.079,6.494 4.53,5.967 4.627,5.34 C4.773,6.072 5.56,6.668 6.621,6.894 C6.915,6.957 7.224,6.999 7.551,6.999 C7.878,6.999 8.187,6.957 8.481,6.894 C9.443,6.69 10.181,6.183 10.422,5.545 C10.578,6.085 11.014,6.53 11.593,6.78 C11.907,6.915 12.257,6.999 12.636,6.999 C13.898,6.999 14.919,6.149 14.919,5.099 C14.919,5.043 14.922,4.781 14.922,4.695 C14.921,2.518 11.672,0.061 7.599,0.061 L7.599,0.061 Z" class="si-glyph-fill"></path>
        </g>
    </g>
</svg>