<!--?xml version="1.0" encoding="UTF-8" standalone="no"?-->
<svg viewBox="0 0 17 16" version="1.1" xmlns="http://www.w3.org/2000/svg" xmlns:xlink="http://www.w3.org/1999/xlink" class="si-glyph si-glyph-foot-sign">
    <!-- Generator: Sketch 3.0.3 (7891) - http://www.bohemiancoding.com/sketch -->
    <title>860</title>
    
    <defs></defs>
    <g stroke="none" stroke-width="1" fill="none" fill-rule="evenodd">
        <g transform="translate(1.000000, 0.000000)" fill="#434343">
            <path d="M4.428,13.572 L0.629,12.142 L0.145,13.315 C0.145,13.315 -0.318,15.213 1.342,15.838 C3.004,16.465 3.961,14.751 3.961,14.751 L4.428,13.572 L4.428,13.572 Z" class="si-glyph-fill"></path>
            <path d="M7.207,3.193 C5.565,2.534 3.26,3.979 2.463,5.8 C2.135,6.55 1.986,7.359 1.862,8.157 C1.803,8.538 1.761,8.929 1.686,9.309 C1.59,9.786 1.447,10.245 1.305,10.708 C1.108,11.351 1.325,11.459 1.924,11.569 L4.022,12.361 C4.236,12.463 4.654,12.72 4.869,12.48 C5.059,12.265 5.021,11.873 5.148,11.618 C5.312,11.287 5.496,10.95 5.699,10.638 C6.148,9.94 7,9.43 7.577,8.828 C8.292,8.08 8.687,7.33 8.905,6.338 C9.195,5.017 8.528,3.722 7.207,3.193 L7.207,3.193 Z" class="si-glyph-fill"></path>
            <g transform="translate(8.000000, 0.000000)">
                <path d="M0.977,9.289 L4.632,10.732 C4.632,10.732 3.878,13.685 1.646,12.826 C-0.586,11.965 0.977,9.289 0.977,9.289 L0.977,9.289 Z" class="si-glyph-fill"></path>
                <path d="M6.19,0.217 C7.75,0.797 8.378,3.255 7.721,5.024 C7.45,5.751 7.018,6.403 6.575,7.038 C6.363,7.34 6.133,7.636 5.932,7.949 C5.685,8.339 5.479,8.75 5.271,9.16 C4.98,9.73 4.759,9.665 4.275,9.366 L2.31,8.593 C2.097,8.529 1.641,8.441 1.653,8.142 C1.664,7.872 1.949,7.622 2.031,7.368 C2.137,7.035 2.234,6.683 2.3,6.34 C2.452,5.572 2.204,4.679 2.208,3.899 C2.208,2.93 2.435,2.159 2.94,1.334 C3.617,0.228 4.932,-0.248 6.19,0.217 L6.19,0.217 Z" class="si-glyph-fill"></path>
            </g>
        </g>
    </g>
</svg>