<!--?xml version="1.0" encoding="UTF-8" standalone="no"?-->
<svg viewBox="0 0 16 16" version="1.1" xmlns="http://www.w3.org/2000/svg" xmlns:xlink="http://www.w3.org/1999/xlink" class="si-glyph si-glyph-congratulation-hat">
    <!-- Generator: Sketch 3.0.3 (7891) - http://www.bohemiancoding.com/sketch -->
    <title>congratulation-hat</title>
    
    <defs></defs>
    <g stroke="none" stroke-width="1" fill="none" fill-rule="evenodd">
        <g transform="translate(0.000000, 1.000000)" fill="#434343">
            <g transform="translate(0.000000, 7.000000)">
                <path d="M8,5.099 L4.125,2.64 L4.125,5.794 C4.125,5.794 4.125,6.342 4.48,6.427 C5.594,6.691 6.759,6.943 8,6.943 C9.27,6.943 10.485,6.752 11.604,6.4 C11.875,6.342 11.875,5.849 11.875,5.849 L11.875,2.64 L8,5.099 L8,5.099 Z" class="si-glyph-fill"></path>
                <path d="M1.246,0.066 L0.766,0.066 C0.355,1.63 0.052,6.603 0.052,6.912 C0.052,6.94 0.059,6.969 0.065,6.996 L1.948,6.996 C1.954,6.969 1.959,6.94 1.959,6.912 C1.958,6.604 1.654,1.631 1.246,0.066 L1.246,0.066 Z" class="si-glyph-fill"></path>
            </g>
            <path d="M8,0.062 L0,5.043 L1.33,6.042 L6.885,4.784 C6.977,4.255 7.413,3.843 7.969,3.843 C8.59,3.843 9.094,4.347 9.094,4.968 C9.094,5.589 8.59,6.093 7.969,6.093 C7.655,6.093 7.385,5.952 7.186,5.741 L2.374,6.83 L8,10.702 L16,5.043 L8,0.062 L8,0.062 Z" class="si-glyph-fill"></path>
        </g>
    </g>
</svg>