<!--?xml version="1.0" encoding="UTF-8" standalone="no"?-->
<svg viewBox="0 0 17 16" version="1.1" xmlns="http://www.w3.org/2000/svg" xmlns:xlink="http://www.w3.org/1999/xlink" class="si-glyph si-glyph-pet-carrier">
    <!-- Generator: Sketch 3.0.3 (7891) - http://www.bohemiancoding.com/sketch -->
    <title>721</title>
    
    <defs></defs>
    <g stroke="none" stroke-width="1" fill="none" fill-rule="evenodd">
        <path d="M12.504,3.037 L11.969,3.037 L11.969,2.022 C11.969,1.458 11.523,1 10.974,1 L7.032,1 C6.483,1 6.038,1.458 6.038,2.022 L6.038,3.037 L5.495,3.037 C1.813,3.037 1.001,14.826 1.001,14.826 C1.001,15.406 1.515,15.88 2.148,15.88 L15.852,15.88 C16.486,15.88 17,15.406 17,14.826 C17,14.826 16.117,3.037 12.504,3.037 L12.504,3.037 Z M6.958,11.017 L6.958,8.934 L11,8.934 L11,11.017 L6.958,11.017 L6.958,11.017 Z M11.04,12 L11.04,14 L6.988,14 L6.988,12 L11.04,12 L11.04,12 Z M11.031,5.917 L11.031,8.021 L6.958,8.021 L6.958,5.917 L11.031,5.917 L11.031,5.917 Z M14.692,8.021 L11.937,8.021 L11.937,5.917 L14.062,5.917 C14.313,6.556 14.521,7.283 14.692,8.021 L14.692,8.021 Z M6.031,8.021 L3.285,8.021 C3.45,7.292 3.652,6.548 3.9,5.917 L6.031,5.917 L6.031,8.021 L6.031,8.021 Z M6.021,8.934 L6.021,11.017 L2.75,11.017 C2.836,10.401 2.946,9.657 3.096,8.934 L6.021,8.934 L6.021,8.934 Z M11.979,8.903 L14.9,8.903 C15.053,9.634 15.171,10.392 15.259,11.016 L11.979,11.016 L11.979,8.903 L11.979,8.903 Z M6.977,2.185 C6.977,2.015 7.125,1.876 7.307,1.876 L10.7,1.876 C10.882,1.876 11.03,2.015 11.03,2.185 L11.03,3.038 L6.977,3.038 L6.977,2.185 L6.977,2.185 Z M2.517,13.226 C2.517,13.226 2.553,12.776 2.65,12 L6.021,12 L6.021,14 L3.365,14 C2.896,14 2.517,13.651 2.517,13.226 L2.517,13.226 Z M14.629,14 L11.98,14 L11.98,12 L15.342,12 C15.442,12.768 15.483,13.233 15.483,13.233 C15.482,13.655 15.098,14 14.629,14 L14.629,14 Z" fill="#434343" class="si-glyph-fill"></path>
    </g>
</svg>