<!--?xml version="1.0" encoding="UTF-8" standalone="no"?--><svg viewBox="0 0 17 16" version="1.1" xmlns="http://www.w3.org/2000/svg" xmlns:xlink="http://www.w3.org/1999/xlink" class="si-glyph si-glyph-air-balloon">    <!-- Generator: Sketch 3.0.3 (7891) - http://www.bohemiancoding.com/sketch -->    <title>670</title>        <defs></defs>    <g stroke="none" stroke-width="1" fill="none" fill-rule="evenodd">        <g transform="translate(4.000000, 0.000000)" fill="#434343">            <path d="M6.959,15.312 C6.959,15.686 6.656,15.99 6.281,15.99 L3.681,15.99 C3.308,15.99 3.005,15.686 3.005,15.312 L3.005,13.078 L6.958,13.078 L6.958,15.312 L6.959,15.312 Z" class="si-glyph-fill"></path>            <path d="M9.985,4.751 C9.985,2.982 9.095,1.044 6.976,0.305 C8.214,1.332 10.404,3.708 5.546,10.969 L5.974,0.155 C5.974,0.155 5.511,0.032 4.984,0.032 C4.472,0.032 4.043,0.145 4.043,0.145 L4.543,10.958 C-0.332,3.582 1.84,1.295 3.092,0.294 C0.954,1.027 0.016,2.977 0.016,4.751 C0.016,7.466 4.561,12 3.786,12 L6.292,12 C5.582,12 9.985,7.52 9.985,4.751 L9.985,4.751 Z" class="si-glyph-fill"></path>        </g>    </g></svg>