
<svg viewBox="0 0 17 16" version="1.1" xmlns="http://www.w3.org/2000/svg" xmlns:xlink="http://www.w3.org/1999/xlink" class="si-glyph si-glyph-socket"><title>1040</title><defs></defs><g stroke="none" stroke-width="1" fill="none" fill-rule="evenodd"><g transform="translate(1.000000, 0.000000)" fill="#434343"><g><path d="M7.969,12.979 C5.229,12.979 3.002,10.751 3.002,8.011 C3.002,5.272 5.229,3.04 7.969,3.04 C10.708,3.04 12.938,5.271 12.938,8.011 C12.938,10.751 10.708,12.979 7.969,12.979 L7.969,12.979 Z M8.008,3.903 C5.761,3.903 3.933,5.749 3.933,8.017 C3.933,10.285 5.761,12.13 8.008,12.13 C10.252,12.13 12.082,10.284 12.082,8.017 C12.082,5.749 10.252,3.903 8.008,3.903 L8.008,3.903 Z" class="si-glyph-fill"></path><path d="M15.916,15.918 L0,15.918 L0,0 L15.916,0 L15.916,15.918 L15.916,15.918 Z M0.969,15.031 L15.031,15.031 L15.031,0.937 L0.969,0.937 L0.969,15.031 L0.969,15.031 Z" class="si-glyph-fill"></path></g><rect x="6" y="7" width="0.969" height="1.812" class="si-glyph-fill"></rect><rect x="9" y="7" width="0.969" height="1.812" class="si-glyph-fill"></rect></g></g></svg>