<!--?xml version="1.0" encoding="UTF-8" standalone="no"?-->
<svg viewBox="0 0 16 17" version="1.1" xmlns="http://www.w3.org/2000/svg" xmlns:xlink="http://www.w3.org/1999/xlink" class="si-glyph si-glyph-signal-1">
    <!-- Generator: Sketch 3.0.3 (7891) - http://www.bohemiancoding.com/sketch -->
    <title>Signal-1</title>
    
    <defs></defs>
    <g stroke="none" stroke-width="1" fill="none" fill-rule="evenodd">
        <path d="M8.5,13.984 L8.5,13.984 C8.278,13.984 8.083,13.838 8.021,13.626 L6.647,8.984 L4.993,8.984 C4.762,8.984 4.561,8.826 4.507,8.601 L3.531,4.549 L2.483,8.609 C2.425,8.83 2.226,8.984 1.999,8.984 L0,8.984 L0,8.031 L1.61,8.031 L3.062,2.406 C3.12,2.185 3.318,2.031 3.546,2.031 L3.55,2.031 C3.779,2.033 3.979,2.191 4.032,2.414 L5.384,8.031 L7.019,8.031 C7.241,8.031 7.436,8.177 7.498,8.389 L8.503,11.735 L9.523,8.387 C9.586,8.175 9.781,8.031 10.002,8.031 L10.689,8.031 L12.036,5.295 C12.12,5.125 12.292,5.018 12.481,5.016 L12.485,5.016 C12.673,5.016 12.844,5.12 12.929,5.287 L14.339,8.031 L15.969,8.031 L15.969,8.984 L14.033,8.984 C13.845,8.984 13.674,8.88 13.589,8.713 L12.494,6.582 L11.447,8.705 C11.364,8.876 11.19,8.984 11,8.984 L10.374,8.984 L8.978,13.628 C8.915,13.84 8.721,13.984 8.5,13.984 L8.5,13.984 Z" fill="#434343" class="si-glyph-fill"></path>
    </g>
</svg>