<!--?xml version="1.0" encoding="UTF-8" standalone="no"?-->
<svg viewBox="0 0 17 16" version="1.1" xmlns="http://www.w3.org/2000/svg" xmlns:xlink="http://www.w3.org/1999/xlink" class="si-glyph si-glyph-call-forward">
    <!-- Generator: Sketch 3.0.3 (7891) - http://www.bohemiancoding.com/sketch -->
    <title>1027</title>
    
    <defs></defs>
    <g stroke="none" stroke-width="1" fill="none" fill-rule="evenodd">
        <g transform="translate(1.000000, 0.000000)" fill="#434343">
            <path d="M13.252,8.774 L15.764,6.635 C16.079,6.326 16.079,5.828 15.764,5.52 L13.252,3.381 C12.912,3.05 12.061,2.929 12.061,3.333 L12.061,5.094 L8.139,5.094 C7.58,5.094 7.129,5.518 7.129,6.04 C7.129,6.562 7.58,6.986 8.139,6.986 L12.061,6.986 L12.061,8.726 C12.061,9.004 12.879,9.033 13.252,8.774 L13.252,8.774 Z" class="si-glyph-fill"></path>
            <path d="M13.031,11.852 C12.603,11.313 11.908,10.532 11.313,10.458 C10.951,10.413 10.535,10.713 10.125,10.996 C10.045,11.036 9.427,11.404 9.352,11.426 C8.956,11.539 8.111,11.572 7.6,11.106 C7.108,10.656 6.33,9.823 5.702,9.06 C5.102,8.274 4.473,7.329 4.151,6.749 C3.815,6.148 4.057,5.353 4.265,5.003 C4.303,4.94 4.763,4.467 4.866,4.357 L4.881,4.375 C5.262,4.055 5.661,3.73 5.706,3.378 C5.78,2.792 5.181,1.939 4.753,1.399 C4.325,0.858 3.662,-0.089 2.759,0.045 C2.419,0.095 2.126,0.214 1.837,0.385 L1.829,0.376 C1.823,0.38 1.795,0.402 1.781,0.413 C1.772,0.418 1.764,0.421 1.756,0.426 L1.759,0.43 C1.593,0.558 1.119,0.912 1.065,0.96 C0.479,1.481 -0.403,2.708 0.279,4.915 C0.785,6.555 1.864,8.481 3.334,10.429 L3.326,10.436 C3.398,10.53 3.472,10.615 3.547,10.706 C3.617,10.799 3.686,10.891 3.758,10.983 L3.768,10.976 C5.328,12.855 6.964,14.357 8.457,15.243 C10.467,16.435 11.896,15.898 12.556,15.471 C12.618,15.43 13.09,15.063 13.25,14.942 L13.254,14.946 C13.26,14.94 13.264,14.932 13.272,14.926 C13.284,14.917 13.31,14.897 13.315,14.893 L13.309,14.885 C13.551,14.651 13.745,14.401 13.879,14.086 C14.23,13.257 13.459,12.393 13.031,11.852 L13.031,11.852 Z" class="si-glyph-fill"></path>
        </g>
    </g>
</svg>