<!--?xml version="1.0" encoding="UTF-8" standalone="no"?-->
<svg viewBox="0 0 17 16" version="1.1" xmlns="http://www.w3.org/2000/svg" xmlns:xlink="http://www.w3.org/1999/xlink" class="si-glyph si-glyph-cabin-cable">
    <!-- Generator: Sketch 3.0.3 (7891) - http://www.bohemiancoding.com/sketch -->
    <title>707</title>
    
    <defs></defs>
    <g stroke="none" stroke-width="1" fill="none" fill-rule="evenodd">
        <g transform="translate(1.000000, 1.000000)" fill="#434343">
            <path d="M8.283,6 L8,6 L8,1 L6.024,1 L6.024,6 L5.674,6 C4.203,6 1.013,7.147 1.013,8.563 L1.013,12.991 C1.013,14.406 2.206,15 3.677,15 L10.28,15 C11.752,15 12.943,14.406 12.943,12.991 L12.943,8.563 C12.943,7.147 9.752,6 8.283,6 L8.283,6 Z M4.03,11.046 L1.951,11.046 L1.951,9.343 C1.951,8.958 2.405,8 3.461,8 L4.03,8 L4.03,11.046 L4.03,11.046 Z M9.046,13.332 C9.046,13.702 8.752,14.001 8.39,14.001 L5.602,14.001 C5.241,14.001 4.947,13.702 4.947,13.332 L4.947,8.573 C4.947,8.204 5.241,8 5.602,8 L8.39,8 C8.752,8 9.046,8.204 9.046,8.573 L9.046,13.332 L9.046,13.332 Z M12.041,11.046 L9.94,11.046 L9.94,8 L10.516,8 C11.662,8 12.04,8.972 12.04,9.354 L12.04,11.046 L12.041,11.046 Z" class="si-glyph-fill"></path>
            <path d="M0.682,3.93 C0.315,3.93 0.016,3.657 0.016,3.318 C0.016,2.979 0.315,2.705 0.682,2.705 C6.257,2.705 11.759,1.72 15.04,0.132 C15.367,-0.026 15.768,0.09 15.939,0.39 C16.11,0.689 15.984,1.06 15.659,1.217 C12.199,2.891 6.46,3.93 0.682,3.93 L0.682,3.93 Z" class="si-glyph-fill"></path>
        </g>
    </g>
</svg>