
<svg viewBox="0 0 17 17" version="1.1" xmlns="http://www.w3.org/2000/svg" xmlns:xlink="http://www.w3.org/1999/xlink" class="si-glyph si-glyph-pick"><title>785</title><defs></defs><g stroke="none" stroke-width="1" fill="none" fill-rule="evenodd"><g transform="translate(0.000000, 1.000000)" fill="#434343"><path d="M9.168,4.921 C9.177,4.927 11.045,6.81 11.053,6.817 L12.367,5.497 C16.222,9.901 14.833,12.556 14.982,12.405 C16.883,10.506 15.872,6.415 12.726,3.269 C9.58,0.123 5.488,-0.888 3.591,1.011 C3.443,1.157 6.091,-0.26 10.499,3.604 L9.168,4.921 L9.168,4.921 Z" class="si-glyph-fill"></path><rect transform="translate(14.140900, 1.310900) rotate(44.935177) translate(-14.140900, -1.310900) " x="13.6409045" y="0.810904475" width="1.24198888" height="1.33798802" class="si-glyph-fill"></rect><path d="M8.873,6.166 L0.289,14.752 C0.026,15.014 0.022,15.438 0.28,15.695 C0.538,15.952 0.961,15.949 1.224,15.685 L9.808,7.101 L8.873,6.166 L8.873,6.166 Z" class="si-glyph-fill"></path></g></g></svg>