<!--?xml version="1.0" encoding="UTF-8" standalone="no"?-->
<svg viewBox="0 0 17 17" version="1.1" xmlns="http://www.w3.org/2000/svg" xmlns:xlink="http://www.w3.org/1999/xlink" class="si-glyph si-glyph-t-shirt">
    <!-- Generator: Sketch 3.0.3 (7891) - http://www.bohemiancoding.com/sketch -->
    <title>1052</title>
    
    <defs></defs>
    <g stroke="none" stroke-width="1" fill="none" fill-rule="evenodd">
        <g transform="translate(1.000000, 0.000000)" fill="#434343">
            <path d="M8.021,1.062 C7.104,1.062 6.316,0.792 5.981,0 C5.775,0.012 5.246,0.033 5.046,0.067 C5.429,1.155 6.798,1.94 8.021,1.94 C9.244,1.94 10.601,1.155 10.984,0.067 C10.785,0.033 10.265,0.011 10.062,0 C9.728,0.793 8.939,1.062 8.021,1.062 L8.021,1.062 Z" class="si-glyph-fill"></path>
            <path d="M12.396,0.289 C11.576,1.909 9.917,3.031 7.984,3.031 C6.06,3.031 4.412,1.921 3.586,0.314 C1.33,1.33 0.0430000001,3.83 0.0430000001,6.466 L0.0430000001,6.952 L3.031,6.952 L3.031,14.935 L12.979,14.935 L12.979,6.952 L16,6.952 L16,6.466 C16,3.803 14.694,1.283 12.396,0.289 L12.396,0.289 Z" class="si-glyph-fill"></path>
        </g>
    </g>
</svg>