<!--?xml version="1.0" encoding="UTF-8" standalone="no"?-->
<svg viewBox="0 0 17 16" version="1.1" xmlns="http://www.w3.org/2000/svg" xmlns:xlink="http://www.w3.org/1999/xlink" class="si-glyph si-glyph-cherry">
    <!-- Generator: Sketch 3.0.3 (7891) - http://www.bohemiancoding.com/sketch -->
    <title>1039</title>
    
    <defs></defs>
    <g stroke="none" stroke-width="1" fill="none" fill-rule="evenodd">
        <path d="M13.74,9.09 C13.623,8.811 13.5,8.538 13.386,8.29 C12.673,6.74 11.741,5.204 10.937,4.125 C10.107,3.012 6.972,0.322 6.367,0.082 L6.105,0.727 C6.597,0.921 7.593,1.791 7.593,1.791 C7.77,1.941 8.005,2.812 8.003,2.954 C7.999,3.058 7.998,3.15 8.003,3.22 C8.03,3.833 7.925,4.508 7.68,5.28 C7.194,6.814 6.103,8.092 4.968,9.113 C4.804,9.09 4.64,9.063 4.468,9.063 C2.552,9.063 0.999,10.602 0.999,12.501 C0.999,14.4 2.552,15.939 4.468,15.939 C6.384,15.939 7.937,14.4 7.937,12.501 C7.937,11.071 7.056,9.847 5.802,9.329 C6.884,8.292 7.89,7.023 8.371,5.501 C8.642,4.646 8.758,3.889 8.725,3.187 C8.722,3.13 9.883,4.091 10.383,4.763 C11.166,5.813 12.059,7.087 12.771,8.632 C12.84,8.781 12.915,8.944 12.99,9.111 C11.302,9.343 9.999,10.764 9.999,12.501 C9.999,14.399 11.552,15.939 13.468,15.939 C15.384,15.939 16.937,14.4 16.937,12.501 C16.938,10.693 15.527,9.229 13.74,9.09 L13.74,9.09 Z" fill="#434343" class="si-glyph-fill"></path>
    </g>
</svg>