<!--?xml version="1.0" encoding="UTF-8" standalone="no"?-->
<svg viewBox="0 0 17 16" version="1.1" xmlns="http://www.w3.org/2000/svg" xmlns:xlink="http://www.w3.org/1999/xlink" class="si-glyph si-glyph-hightheel">
    <!-- Generator: Sketch 3.0.3 (7891) - http://www.bohemiancoding.com/sketch -->
    <title>809</title>
    
    <defs></defs>
    <g stroke="none" stroke-width="1" fill="none" fill-rule="evenodd">
        <path d="M4.396,8.909 C4.396,8.909 3.875,8.67 3.52,10.15 C3.249,11.571 2.982,11.884 2.982,11.884 L2.36,11.884 C2.36,11.884 2.367,11.232 2.367,10.743 C2.367,10.254 2.084,8.681 1.38,7.524 C0.678,6.367 0.879,4.881 2.764,3.026 C2.838,2.954 3.206,2.815 3.666,3.257 C4.264,3.83 6.987,6.648 9.295,7.628 C11.463,8.549 12.922,7.507 12.922,7.507 C12.922,7.507 15.747,8.138 16.803,9.92 C17.858,11.704 14.507,11.828 14.507,11.828 C14.507,11.828 10.338,12.068 9.332,11.223 C9.181,11.031 5.209,8.75 4.396,8.909 L4.396,8.909 Z" fill="#434343" class="si-glyph-fill"></path>
    </g>
</svg>