<!--?xml version="1.0" encoding="UTF-8" standalone="no"?-->
<svg viewBox="0 0 16 16" version="1.1" xmlns="http://www.w3.org/2000/svg" xmlns:xlink="http://www.w3.org/1999/xlink" class="si-glyph si-glyph-reel-audio">
    <!-- Generator: Sketch 3.0.3 (7891) - http://www.bohemiancoding.com/sketch -->
    <title>152</title>
    
    <defs></defs>
    <g stroke="none" stroke-width="1" fill="none" fill-rule="evenodd">
        <g transform="translate(0.000000, 2.000000)" fill="#434343">
            <path d="M1.064,5.211 C1.584,5.66 2.259,5.933 3,5.933 C4.635,5.933 5.961,4.612 5.961,2.983 C5.961,2.477 5.834,2.002 5.608,1.587 C5.107,0.662 4.127,0.032 3,0.032 C1.365,0.032 0.039,1.352 0.039,2.983 C0.039,3.873 0.438,4.67 1.064,5.211 L1.064,5.211 Z M4.48,4.844 L3.18,3.558 C3.38,3.489 3.524,3.313 3.56,3.098 L4.892,4.416 C4.775,4.574 4.637,4.718 4.48,4.844 L4.48,4.844 Z M3.242,0.678 C3.439,0.699 3.631,0.75 3.816,0.819 L3.426,2.61 C3.318,2.487 3.167,2.408 2.992,2.408 C2.944,2.408 2.901,2.425 2.857,2.435 L3.242,0.678 L3.242,0.678 Z M0.734,3.477 L2.457,2.881 C2.451,2.916 2.437,2.947 2.437,2.983 C2.437,3.17 2.529,3.329 2.663,3.436 L0.93,4.035 C0.879,3.936 0.828,3.836 0.791,3.726 C0.763,3.644 0.752,3.559 0.734,3.477 L0.734,3.477 Z" class="si-glyph-fill"></path>
            <path d="M12.977,5.984 C13.698,5.984 14.359,5.726 14.875,5.3 C15.529,4.756 15.945,3.939 15.945,3.024 C15.945,1.39 14.617,0.063 12.976,0.063 C11.844,0.063 10.861,0.694 10.36,1.622 C10.134,2.041 10.006,2.516 10.006,3.024 C10.007,4.658 11.336,5.984 12.977,5.984 L12.977,5.984 Z M14.506,4.891 L13.203,3.588 C13.402,3.518 13.547,3.34 13.584,3.122 L14.918,4.457 C14.801,4.618 14.662,4.763 14.506,4.891 L14.506,4.891 Z M13.262,0.672 C13.461,0.691 13.653,0.744 13.84,0.814 L13.449,2.627 C13.34,2.504 13.189,2.422 13.015,2.422 C12.964,2.422 12.923,2.439 12.879,2.45 L13.262,0.672 L13.262,0.672 Z M10.797,3.781 C10.772,3.698 10.76,3.613 10.742,3.527 L12.447,2.921 C12.441,2.957 12.426,2.988 12.426,3.025 C12.426,3.213 12.517,3.377 12.65,3.487 L10.935,4.098 C10.885,3.996 10.833,3.893 10.797,3.781 L10.797,3.781 Z" class="si-glyph-fill"></path>
            <path d="M10.0283465,6.52924995 C9.07388976,5.70419952 8.46714961,4.48679626 8.46714961,3.1271777 C8.46714961,2.53511828 8.58406299,1.5174216 8.79168504,1 L7.10853543,1 C7.31716535,1.51843022 7.43307087,2.53511828 7.43307087,3.1271777 C7.43307087,5.6134238 5.41329134,7.63066202 2.92182677,7.63066202 C2.06110236,7.63066202 0.682330709,7.38859343 0,6.9700165 L0,10.607097 C0,11.4422336 1.17719685,12 1.91697638,12 L13.984252,12 C14.7240315,12 16,11.4422336 16,10.607097 L16,6.96900789 C15.3146457,7.38556758 13.8381102,7.63066202 12.976378,7.63066202 C11.8475591,7.63066202 10.8185197,7.21410233 10.0283465,6.52924995 L10.0283465,6.52924995 Z M3,9.958 L2,9.958 L2,8.958 L3,8.958 L3,9.958 L3,9.958 Z M4.96,9.959 L3.96,9.959 L3.96,8.959 L4.96,8.959 L4.96,9.959 L4.96,9.959 Z M9,8 L7,8 L7,7 L9,7 L9,8 L9,8 Z M12,9.969 L11,9.969 L11,8.969 L12,8.969 L12,9.969 L12,9.969 Z M12.953,8.969 L13.953,8.969 L13.953,9.969 L12.953,9.969 L12.953,8.969 L12.953,8.969 Z" class="si-glyph-fill"></path>
        </g>
    </g>
</svg>