<!--?xml version="1.0" encoding="UTF-8" standalone="no"?-->
<svg viewBox="0 0 16 16" version="1.1" xmlns="http://www.w3.org/2000/svg" xmlns:xlink="http://www.w3.org/1999/xlink" class="si-glyph si-glyph-bug">
    <!-- Generator: Sketch 3.0.3 (7891) - http://www.bohemiancoding.com/sketch -->
    <title>84</title>
    
    <defs></defs>
    <g stroke="none" stroke-width="1" fill="none" fill-rule="evenodd">
        <path d="M16,9.984 L16,9 L14.969,9 L15,6.016 L12.748,6.016 C12.434,5.372 12,4.8 11.467,4.333 L11.028,4 L12.985,4 L12.985,3.969 L12.985,1.985 L13.969,1.985 L13.969,1.016 L12.016,1.016 L12.016,1.032 L12,1.032 L12,3.048 L10.594,3.048 C10.527,2.605 10.291,2.163 9.985,1.833 L9.985,0 L9,0 L9,1.224 C8.689,1.106 8.359,1.021 8,1.021 C7.635,1.021 7.3,1.108 6.984,1.23 L6.984,0 L6,0 L6,1.854 C5.695,2.175 5.486,2.567 5.411,3 L3.984,3 L3.984,1.031 L3.968,1.031 L3.968,1.015 L2.015,1.015 L2.015,1.984 L3,1.984 L3,3.968 L3.984,3.968 L5.013,3.968 L4.533,4.332 C4,4.799 3.566,5.371 3.252,6.015 L1.027,6.015 L1.027,9 L0,9 L0,9.984 L1.984,9.984 L1.984,7 L2.88,7 C2.771,7.423 2.707,7.864 2.707,8.321 C2.707,9.3 2.976,10.215 3.436,11 L1.027,11.026 L1.027,11.042 L1.027,14.042 L0.055,14.042 L0.055,15 L2,15 L2,11.969 L4.194,11.969 C4.935,12.744 5.893,13.309 6.987,13.523 L8,5 L9.029,13.519 C10.109,13.305 11.054,12.748 11.791,11.985 L14,11.985 L14,15 L15.969,15 L15.969,14.016 L14.969,14.016 L14.969,11 L12.563,11 C13.025,10.215 13.292,9.301 13.292,8.321 C13.292,7.864 13.229,7.376 13.12,6.953 L14.016,6.953 L14.016,9.984 L16,9.984 L16,9.984 Z M6,10.959 L5,10.959 L5,9.959 L6,9.959 L6,10.959 L6,10.959 Z M5,7.959 L4,7.959 L4,6.959 L5,6.959 L5,7.959 L5,7.959 Z M12,7.959 L11,7.959 L11,6.959 L12,6.959 L12,7.959 L12,7.959 Z M10,4.959 L9,4.959 L9,3.959 L10,3.959 L10,4.959 L10,4.959 Z M6.938,4.959 L5.938,4.959 L5.938,3.959 L6.938,3.959 L6.938,4.959 L6.938,4.959 Z M11,10.959 L10,10.959 L10,9.959 L11,9.959 L11,10.959 L11,10.959 Z" fill="#434343" class="si-glyph-fill"></path>
    </g>
</svg>