<!--?xml version="1.0" encoding="UTF-8" standalone="no"?-->
<svg viewBox="0 0 16 16" version="1.1" xmlns="http://www.w3.org/2000/svg" xmlns:xlink="http://www.w3.org/1999/xlink" class="si-glyph si-glyph-disc">
    <!-- Generator: Sketch 3.0.3 (7891) - http://www.bohemiancoding.com/sketch -->
    <title>1138</title>
    
    <defs></defs>
    <g stroke="none" stroke-width="1" fill="none" fill-rule="evenodd">
        <g>
            <g transform="translate(3.000000, 3.000000)">
                <rect transform="translate(8.527350, 0.712250) rotate(-45.000000) translate(-8.527350, -0.712250) " x="7.52735959" y="0.212254795" width="2.14597942" height="1.22898821"></rect>
                <rect transform="translate(1.249550, 9.345050) rotate(225.032412) translate(-1.249550, -9.345050) " x="0.749554715" y="8.34505943" width="1.22898841" height="2.14597976"></rect>
                <ellipse cx="5.115" cy="5.141" rx="3.115" ry="3.141"></ellipse>
                <path d="M4.988,3.022 C3.892,3.022 3.009,3.908 3.009,4.999 C3.009,6.091 3.893,6.975 4.988,6.975 C6.079,6.975 6.967,6.091 6.967,4.999 C6.967,3.908 6.079,3.022 4.988,3.022 L4.988,3.022 Z" fill="#434343" class="si-glyph-fill"></path>
            </g>
            <path d="M15.958,7.95822586 C15.958,3.51607424 12.385,0 7.979,0 C3.573,0 0,3.51607424 0,7.95822586 C0,12.3993709 3.572,16 7.979,16 C12.543,16 15.958,12.309783 15.958,7.95822586 L15.958,7.95822586 Z M12.261,2.891 L13.13,3.76 L11.612,5.278 L10.743,4.409 L12.261,2.891 L12.261,2.891 Z M3.633,13.193 L2.765,12.324 L4.283,10.806 L5.151,11.675 L3.633,13.193 L3.633,13.193 Z M4.885,7.985 C4.885,6.25 6.28,4.843 8,4.843 C9.719,4.843 11.115,6.249 11.115,7.985 C11.115,9.718 9.719,11.125 8,11.125 C6.279,11.125 4.885,9.719 4.885,7.985 L4.885,7.985 Z" fill="#434343" class="si-glyph-fill"></path>
        </g>
    </g>
</svg>