<!--?xml version="1.0" encoding="UTF-8" standalone="no"?-->
<svg viewBox="0 0 16 16" version="1.1" xmlns="http://www.w3.org/2000/svg" xmlns:xlink="http://www.w3.org/1999/xlink" class="si-glyph si-glyph-reduce">
    <!-- Generator: Sketch 3.0.3 (7891) - http://www.bohemiancoding.com/sketch -->
    <title>143</title>
    
    <defs></defs>
    <g stroke="none" stroke-width="1" fill="none" fill-rule="evenodd">
        <g fill="#434343">
            <path d="M2.329,9.083 C1.949,9.083 1.641,9.393 1.641,9.773 L3.229,11.367 L0.249999984,14.2685692 C0.0579999838,14.4605692 -0.0380000162,14.7115692 -0.0380000162,14.9635692 C-0.0380000162,15.2155692 0.0579999838,15.4665692 0.249999984,15.6585692 C0.632999984,16.0425692 1.25599998,16.0425692 1.64099998,15.6585692 L4.617,12.759 L6.196,14.344 C6.576,14.344 6.883,14.034 6.883,13.654 L6.883,9.773 C6.883,9.393 6.576,9.083 6.196,9.083 L2.329,9.083 Z" class="si-glyph-fill"></path>
            <path d="M4.573,3.257 L1.78637696,0.209106431 C1.40137696,-0.175893569 0.779376962,-0.175893569 0.394376962,0.209106431 C0.0103769622,0.593106431 0.0103769498,1.18245993 0.39437695,1.56645993 L3.18,4.645 L1.62,6.199 C1.62,6.579 1.929,6.886 2.31,6.886 L6.191,6.886 C6.572,6.886 6.881,6.579 6.881,6.199 L6.881,2.333 C6.883,1.951 6.573,1.645 6.192,1.645 L4.573,3.257 Z" class="si-glyph-fill"></path>
            <path d="M14.342,9.78 C14.342,9.4 14.031,9.093 13.651,9.093 L9.771,9.093 C9.39,9.093 9.081,9.4 9.081,9.78 L9.081,13.646 C9.081,14.027 9.391,14.334 9.771,14.334 L11.366,12.747 L14.333755,15.7230002 C14.525755,15.9160002 14.776755,16.0120002 15.027755,16.0120002 C15.280755,16.0120002 15.530755,15.9160002 15.723755,15.7230002 C16.106755,15.3400002 16.106755,14.7170002 15.723755,14.3340002 L12.758,11.359 L14.342,9.78 Z" class="si-glyph-fill"></path>
            <path d="M11.361,3.235 L9.767,1.634 C9.388,1.634 9.079,1.944 9.079,2.324 L9.079,6.205 C9.079,6.586 9.388,6.895 9.767,6.895 L13.634,6.895 C14.013,6.895 14.321,6.585 14.321,6.205 L12.75,4.627 L15.7111816,1.55445214 C16.0961816,1.16945214 16.0961816,0.548452143 15.7111816,0.163452143 C15.3281816,-0.219547857 14.7060001,0.0477627032 14.3210001,0.431762703 L11.361,3.235 Z" class="si-glyph-fill"></path>
        </g>
    </g>
</svg>