<!--?xml version="1.0" encoding="UTF-8" standalone="no"?-->
<svg viewBox="0 0 17 16" version="1.1" xmlns="http://www.w3.org/2000/svg" xmlns:xlink="http://www.w3.org/1999/xlink" class="si-glyph si-glyph-bone">
    <!-- Generator: Sketch 3.0.3 (7891) - http://www.bohemiancoding.com/sketch -->
    <title>1042</title>
    
    <defs></defs>
    <g stroke="none" stroke-width="1" fill="none" fill-rule="evenodd">
        <path d="M3.321,13.61 C3.321,13.61 3.383,14.874 3.97,15.462 C4.654,16.145 5.751,16.156 6.422,15.486 C7.376,14.532 7.506,13.213 7.392,12.119 L13.158,6.354 C14.245,6.463 15.562,6.327 16.533,5.356 C17.195,4.694 17.18,3.604 16.499,2.922 C15.91,2.334 14.713,2.345 14.713,2.345 C14.713,2.345 14.675,1.099 14.082,0.506 C13.396,-0.182 12.293,-0.197 11.625,0.473 C10.655,1.443 10.54,2.795 10.667,3.902 L4.939,9.631 C3.848,9.522 2.523,9.657 1.544,10.635 C0.88,11.298 0.893,12.385 1.569,13.062 C2.156,13.646 3.321,13.61 3.321,13.61 L3.321,13.61 Z" fill="#434343" class="si-glyph-fill"></path>
    </g>
</svg>