
<svg viewBox="0 0 16 16" version="1.1" xmlns="http://www.w3.org/2000/svg" xmlns:xlink="http://www.w3.org/1999/xlink" class="si-glyph si-glyph-abacus"><title>642</title><defs class=""></defs><g stroke="none" stroke-width="1" fill="none" fill-rule="evenodd"><g transform="translate(0.000000, 1.000000)" fill="#434343" class="si-glyph-fill"><path d="M14.194,13.958 L1.765,13.958 C0.316,13.958 0.036,12.808 0.036,11.394 L0.036,2.607 C0.036,1.193 0.315,0.043 1.765,0.043 L14.194,0.043 C15.642,0.043 15.922,1.193 15.922,2.607 L15.922,11.394 C15.922,12.808 15.643,13.958 14.194,13.958 L14.194,13.958 Z M1.923,1 C1.414,1 1,1.426 1,1.948 L1,12.052 C1,12.574 1.414,13 1.923,13 L14.077,13 C14.586,13 15,12.574 15,12.052 L15,1.948 C15,1.426 14.586,1 14.077,1 L1.923,1 L1.923,1 Z" class="si-glyph-fill"></path><rect x="3" y="0" width="0.948" height="13.068" class="si-glyph-fill"></rect><rect x="8" y="0" width="0.948" height="13.068" class="si-glyph-fill"></rect><rect x="12" y="0" width="0.948" height="13.068" class="si-glyph-fill"></rect><ellipse cx="3.438" cy="4.976" rx="1.438" ry="0.976" class="si-glyph-fill"></ellipse><ellipse cx="3.438" cy="7.976" rx="1.438" ry="0.976" class="si-glyph-fill"></ellipse><ellipse cx="3.438" cy="10.976" rx="1.438" ry="0.976" class="si-glyph-fill"></ellipse><ellipse cx="8.477" cy="2.976" rx="1.477" ry="0.976" class="si-glyph-fill"></ellipse><ellipse cx="8.477" cy="5.976" rx="1.477" ry="0.976" class="si-glyph-fill"></ellipse><ellipse cx="8.477" cy="10.976" rx="1.477" ry="0.976" class="si-glyph-fill"></ellipse><ellipse cx="12.435" cy="7.977" rx="1.435" ry="0.977" class="si-glyph-fill"></ellipse><ellipse cx="12.435" cy="10.977" rx="1.435" ry="0.977" class="si-glyph-fill"></ellipse></g></g></svg>