<!--?xml version="1.0" encoding="UTF-8" standalone="no"?-->
<svg viewBox="0 0 17 16" version="1.1" xmlns="http://www.w3.org/2000/svg" xmlns:xlink="http://www.w3.org/1999/xlink" class="si-glyph si-glyph-data-arrow-down">
    <!-- Generator: Sketch 3.0.3 (7891) - http://www.bohemiancoding.com/sketch -->
    <title>789</title>
    
    <defs></defs>
    <g stroke="none" stroke-width="1" fill="none" fill-rule="evenodd">
        <g transform="translate(1.000000, 1.000000)" fill="#434343">
            <path d="M14.997,9.04 L1.023,9.04 C0.468,9.04 0.02,9.873 0.02,10.899 L0.02,12.14 C0.02,13.166 0.468,13.999 1.023,13.999 L14.997,13.999 C15.551,13.999 16,13.166 16,12.14 L16,10.899 C16,9.873 15.551,9.04 14.997,9.04 L14.997,9.04 Z M11.5,13.104 C10.615,13.104 9.896,12.372 9.896,11.469 C9.896,10.566 10.615,9.833 11.5,9.833 C12.385,9.833 13.104,10.565 13.104,11.469 C13.104,12.371 12.385,13.104 11.5,13.104 L11.5,13.104 Z" class="si-glyph-fill"></path>
            <path d="M10.766,3.164 L8.878,3.164 L8.878,0.687 C8.878,0.13 8.457,0.054 7.94,0.054 C7.421,0.054 7.002,0.13 7.002,0.687 L7.002,3.164 L5.213,3.164 C4.93,3.45 4.93,3.912 5.213,4.197 L7.478,6.765 C7.76,7.049 8.222,7.049 8.505,6.765 L10.766,4.197 C11.051,3.912 11.051,3.45 10.766,3.164 L10.766,3.164 Z" class="si-glyph-fill"></path>
        </g>
    </g>
</svg>