
<svg viewBox="0 0 16 16" version="1.1" xmlns="http://www.w3.org/2000/svg" xmlns:xlink="http://www.w3.org/1999/xlink" class="si-glyph si-glyph-biscuit"><title>607</title><defs></defs><g stroke="none" stroke-width="1" fill="none" fill-rule="evenodd"><path d="M14.8,6.826 C14.745,6.706 14.676,6.597 14.583,6.519 L14.559,6.51 C14.44,6.404 14.3,6.32 14.141,6.271 L9.352,4.126 C9.731,3.69 9.969,3.129 9.969,2.507 C9.969,1.139 8.861,0.03 7.492,0.03 C6.123,0.03 5.015,1.138 5.015,2.507 C5.015,3.14 5.259,3.711 5.65,4.149 L0.863,6.312 C0.221,6.514 -0.121,7.248 0.101,7.949 L0.126,8.029 C0.348,8.73 1.048,9.134 1.69,8.931 L3.672,7.967 C4.163,7.922 4.57,7.935 4.687,8.046 C4.999,8.341 2.868,12.415 2.263,13.607 C1.825,14.466 2.028,15.447 2.715,15.795 L2.79,15.834 C3.478,16.183 4.348,15.746 4.826,14.909 C5.17,14.306 6.344,11.327 7.402,11.327 C8.46,11.326 9.878,14.304 10.184,14.909 C10.622,15.768 11.533,16.182 12.22,15.834 L12.296,15.795 C12.984,15.446 13.187,14.466 12.747,13.607 C12.362,12.846 9.912,8.547 10.121,8.046 C10.189,7.882 10.696,7.92 11.361,8.025 L13.309,8.89 C13.952,9.093 14.651,8.689 14.873,7.988 L14.898,7.908 C15.023,7.525 14.973,7.137 14.8,6.826 L14.8,6.826 Z M8.061,5.979 L8.061,7.031 L6.907,7.031 L6.907,5.979 L8.061,5.979 L8.061,5.979 Z M8.062,10.062 L6.906,10.062 L6.906,8.906 L8.062,8.906 L8.062,10.062 L8.062,10.062 Z" fill="#434343" class="si-glyph-fill"></path></g></svg>