<!--?xml version="1.0" encoding="UTF-8" standalone="no"?-->
<svg viewBox="0 0 16 16" version="1.1" xmlns="http://www.w3.org/2000/svg" xmlns:xlink="http://www.w3.org/1999/xlink" class="si-glyph si-glyph-strawberry">
    <!-- Generator: Sketch 3.0.3 (7891) - http://www.bohemiancoding.com/sketch -->
    <title>161</title>
    
    <defs></defs>
    <g stroke="none" stroke-width="1" fill="none" fill-rule="evenodd">
        <g transform="translate(2.000000, 0.000000)" fill="#434343">
            <path d="M6.367,2.084 C6.422,1.93 6.947,1.323 6.947,0.917 C6.947,0.511 6.726,0 6.049,0 C5.367,0 5.067,0.511 5.067,0.948 C5.067,1.344 5.592,1.918 5.649,2.062 C-1.609,2.062 0.217,7.981 0.217,7.981 C0.217,7.981 2.248,4.099 4.057,3.744 C4.055,3.84 4.051,3.935 4.051,4.031 C4.051,6.765 6.047,8.982 6.047,8.982 C6.047,8.982 7.856,6.765 7.856,4.031 C7.856,3.928 7.852,3.828 7.85,3.726 C9.873,4.057 11.752,8.031 11.752,8.031 C11.752,8.031 13.709,2.084 6.367,2.084 L6.367,2.084 Z" class="si-glyph-fill"></path>
            <path d="M8.873,5.608 C8.873,8 6.035,10.406 6.035,10.406 C6.035,10.406 3.14,7.979 3.14,5.558 C1.947,6.505 1.124,8.391 0.551,9.146 C0.551,9.146 2.853,16 6.027,16 C9.201,16 11.473,9.271 11.473,9.271 C11.018,8.67 10.156,6.654 8.873,5.608 L8.873,5.608 Z" class="si-glyph-fill"></path>
        </g>
    </g>
</svg>