<!--?xml version="1.0" encoding="UTF-8" standalone="no"?-->
<svg viewBox="0 0 17 17" version="1.1" xmlns="http://www.w3.org/2000/svg" xmlns:xlink="http://www.w3.org/1999/xlink" class="si-glyph si-glyph-layout-3">
    <!-- Generator: Sketch 3.0.3 (7891) - http://www.bohemiancoding.com/sketch -->
    <title>1200</title>
    
    <defs></defs>
    <g stroke="none" stroke-width="1" fill="none" fill-rule="evenodd">
        <g transform="translate(1.000000, 1.000000)" fill="#434343">
            <path d="M16.021,15.979 L0.0209999999,15.979 L0.0209999999,0 L16.021,0 L16.021,15.979 L16.021,15.979 Z M1,15 L15,15 L15,1 L1,1 L1,15 L1,15 Z" class="si-glyph-fill"></path>
            <path d="M2,9 L1.99999993,13.9528809 L6.97705071,13.9528809 L6.97705078,9 L2,9 Z" class="si-glyph-fill"></path>
            <path d="M9,9 L9.0000002,13.9921875 L14.0021973,13.9921875 L14.0021971,9 L9,9 Z" class="si-glyph-fill"></path>
            <path d="M2,2 L1.99999993,6.95996094 L7.00927727,6.95996094 L7.00927734,2 L2,2 Z" class="si-glyph-fill"></path>
            <path d="M9,2 L8.99999982,6.96337891 L14.0007322,6.96337891 L14.0007324,2 L9,2 Z" class="si-glyph-fill"></path>
        </g>
    </g>
</svg>