<!--?xml version="1.0" encoding="UTF-8" standalone="no"?-->
<svg viewBox="0 0 16 16" version="1.1" xmlns="http://www.w3.org/2000/svg" xmlns:xlink="http://www.w3.org/1999/xlink" class="si-glyph si-glyph-basketball">
    <!-- Generator: Sketch 3.0.3 (7891) - http://www.bohemiancoding.com/sketch -->
    <title>Basketball</title>
    
    <defs></defs>
    <g stroke="none" stroke-width="1" fill="none" fill-rule="evenodd">
        <g fill="#434343">
            <path d="M1.831,2.645 C0.334,4.37 -0.236,6.614 0.107,8.739 C1.774,8.36 3.419,8.622 4.634,9.571 L6.694,7.51 L1.831,2.645 L1.831,2.645 Z" class="si-glyph-fill"></path>
            <path d="M6.207,14.883 C8.349,15.245 10.615,14.679 12.356,13.169 L7.447,8.261 L5.386,10.322 C6.341,11.544 6.6,13.203 6.207,14.883 L6.207,14.883 Z" class="si-glyph-fill"></path>
            <path d="M0.354,9.804 C0.65,10.735 1.145,11.612 1.814,12.391 L3.836,10.37 C2.898,9.689 1.643,9.515 0.354,9.804 L0.354,9.804 Z" class="si-glyph-fill"></path>
            <path d="M5.146,14.628 C5.444,13.33 5.27,12.065 4.586,11.12 L2.561,13.145 C3.339,13.823 4.216,14.325 5.146,14.628 L5.146,14.628 Z" class="si-glyph-fill"></path>
            <path d="M13.148,12.371 C14.634,10.63 15.186,8.37 14.816,6.238 C13.153,6.614 11.512,6.351 10.302,5.404 L8.242,7.465 L13.148,12.371 L13.148,12.371 Z" class="si-glyph-fill"></path>
            <path d="M8.707,0.175 C6.592,-0.177 4.356,0.377 2.629,1.852 L7.49,6.714 L9.551,4.653 C8.611,3.451 8.344,1.825 8.707,0.175 L8.707,0.175 Z" class="si-glyph-fill"></path>
            <path d="M14.553,5.176 C14.25,4.257 13.752,3.392 13.082,2.625 L11.102,4.605 C12.033,5.279 13.275,5.455 14.553,5.176 L14.553,5.176 Z" class="si-glyph-fill"></path>
            <path d="M9.775,0.428 C9.502,1.697 9.681,2.929 10.349,3.854 L12.328,1.876 C11.559,1.214 10.693,0.725 9.775,0.428 L9.775,0.428 Z" class="si-glyph-fill"></path>
        </g>
    </g>
</svg>