<!--?xml version="1.0" encoding="UTF-8" standalone="no"?-->
<svg viewBox="0 0 17 16" version="1.1" xmlns="http://www.w3.org/2000/svg" xmlns:xlink="http://www.w3.org/1999/xlink" class="si-glyph si-glyph-button-starburst">
    <!-- Generator: Sketch 3.0.3 (7891) - http://www.bohemiancoding.com/sketch -->
    <title>966</title>
    
    <defs></defs>
    <g stroke="none" stroke-width="1" fill="none" fill-rule="evenodd">
        <path d="M14.584,7.939 C16.119,7.433 17.053,6.931 16.985,6.561 C16.917,6.191 15.867,6.031 14.249,6.071 C15.514,5.081 16.216,4.295 16.023,3.97 C15.834,3.645 14.789,3.849 13.281,4.428 C14.127,3.074 14.511,2.101 14.219,1.859 C13.927,1.617 13.016,2.158 11.803,3.211 C12.123,1.654 12.145,0.609 11.785,0.481 C11.428,0.353 10.761,1.167 9.988,2.561 C9.747,0.991 9.402,0 9.021,0 C8.638,0 8.294,0.99 8.054,2.561 C7.282,1.166 6.615,0.352 6.254,0.479 C5.894,0.608 5.917,1.653 6.238,3.209 C5.026,2.158 4.114,1.617 3.821,1.857 C3.528,2.097 3.913,3.073 4.758,4.427 C3.251,3.847 2.205,3.644 2.015,3.969 C1.824,4.294 2.525,5.08 3.792,6.071 C2.173,6.031 1.12,6.19 1.054,6.561 C0.987,6.929 1.921,7.433 3.454,7.939 C1.921,8.445 0.987,8.949 1.054,9.318 C1.121,9.687 2.173,9.848 3.792,9.807 C2.524,10.796 1.821,11.581 2.015,11.908 C2.205,12.234 3.251,12.031 4.756,11.45 C3.911,12.805 3.527,13.779 3.819,14.021 C4.114,14.263 5.024,13.72 6.236,12.67 C5.915,14.226 5.893,15.271 6.253,15.399 C6.612,15.528 7.281,14.713 8.054,13.317 C8.294,14.887 8.638,15.878 9.021,15.878 C9.402,15.878 9.747,14.888 9.988,13.317 C10.76,14.712 11.428,15.526 11.787,15.398 C12.147,15.27 12.125,14.225 11.803,12.669 C13.016,13.72 13.927,14.262 14.219,14.02 C14.514,13.778 14.129,12.804 13.283,11.451 C14.789,12.032 15.834,12.233 16.025,11.909 C16.216,11.583 15.513,10.798 14.25,9.808 C15.867,9.848 16.918,9.688 16.985,9.317 C17.053,8.949 16.119,8.445 14.584,7.939 L14.584,7.939 Z" fill="#434343" class="si-glyph-fill"></path>
    </g>
</svg>