<!--?xml version="1.0" encoding="UTF-8" standalone="no"?-->
<svg viewBox="0 0 16 16" version="1.1" xmlns="http://www.w3.org/2000/svg" xmlns:xlink="http://www.w3.org/1999/xlink" class="si-glyph si-glyph-disc-upload">
    <!-- Generator: Sketch 3.0.3 (7891) - http://www.bohemiancoding.com/sketch -->
    <title>598</title>
    
    <defs></defs>
    <g stroke="none" stroke-width="1" fill="none" fill-rule="evenodd">
        <g fill="#434343">
            <path d="M7.917,6 C6.857,6 6,6.863 6,7.93 C6,8.995 6.857,9.858 7.917,9.858 C8.974,9.858 9.832,8.996 9.832,7.93 C9.832,6.864 8.974,6 7.917,6 L7.917,6 Z" class="si-glyph-fill"></path>
            <path d="M10.979,15.1106614 L14.51,10.5030985 L15.2,11.4045782 C15.702,10.3553813 15.999,9.18983179 15.999,7.94637663 C15.999,3.49867206 12.417,0 7.999,0 C3.581,0 -0.00100000005,3.49867206 -0.00100000005,7.94637663 C-0.00100000005,12.3940812 3.581,16 7.999,16 C9.366,16 10.642,15.7005185 11.765,15.1106614 L10.979,15.1106614 L10.979,15.1106614 Z M12.423,2.691 L13.269,3.537 L11.481,5.324 L10.637,4.479 L12.423,2.691 L12.423,2.691 Z M3.548,13.258 L2.703,12.412 L4.49,10.625 L5.336,11.47 L3.548,13.258 L3.548,13.258 Z M8,11 C6.34408936,11 5,9.65704979 5,8.00046533 C5,6.34388087 6.34315855,5 8,5 C9.65684145,5 11,6.34295021 11,8.00046533 C11,9.65611913 9.65591064,11 8,11 L8,11 Z" class="si-glyph-fill"></path>
            <path d="M16,13.966 L14.511,12.106 L13.021,13.966 L14.018,13.966 L14.018,15.969 L14.988,15.969 L14.988,13.966 L16,13.966 Z" class="si-glyph-fill"></path>
        </g>
    </g>
</svg>