<!--?xml version="1.0" encoding="UTF-8" standalone="no"?-->
<svg viewBox="0 0 17 16" version="1.1" xmlns="http://www.w3.org/2000/svg" xmlns:xlink="http://www.w3.org/1999/xlink" class="si-glyph si-glyph-circle-plus">
    <!-- Generator: Sketch 3.0.3 (7891) - http://www.bohemiancoding.com/sketch -->
    <title>933</title>
    
    <defs></defs>
    <g stroke="none" stroke-width="1" fill="none" fill-rule="evenodd">
        <path d="M9.021,0.097 C4.625,0.097 1.063,3.655 1.063,8.04 C1.063,12.428 4.625,15.985 9.021,15.985 C13.416,15.985 16.979,12.427 16.979,8.04 C16.979,3.654 13.415,0.097 9.021,0.097 L9.021,0.097 Z M11.325,9.082 L10.088,9.082 L10.088,10.319 C10.088,11.298 10.147,12.088 9,12.088 C7.856,12.088 7.912,11.298 7.912,10.319 L7.912,9.082 L6.675,9.082 C5.696,9.082 4.906,9.138 4.906,7.994 C4.906,6.848 5.696,6.906 6.675,6.906 L7.912,6.906 L7.912,5.669 C7.912,4.69 7.856,3.9 9,3.9 C10.146,3.9 10.088,4.69 10.088,5.669 L10.088,6.906 L11.325,6.906 C12.304,6.906 13.094,6.847 13.094,7.994 C13.094,9.138 12.304,9.082 11.325,9.082 L11.325,9.082 Z" fill="#434343" class="si-glyph-fill"></path>
    </g>
</svg>