
<svg viewBox="0 0 16 16" version="1.1" xmlns="http://www.w3.org/2000/svg" xmlns:xlink="http://www.w3.org/1999/xlink" class="si-glyph si-glyph-database-remove"><title>655</title><defs></defs><g stroke="none" stroke-width="1" fill="none" fill-rule="evenodd"><g transform="translate(1.000000, 0.000000)" fill="#434343"><path d="M6.43,5 C9.98119094,5 12.86,3.75808138 12.86,2.421 C12.86,1.08391862 9.98119094,0 6.43,0 C2.87880906,0 0,1.08391862 0,2.421 C0,3.75808138 2.87880906,5 6.43,5 Z" class="si-glyph-fill"></path><path d="M12.879,12.917 C12.899,12.85 12.91,12.781 12.91,12.713 L12.91,9.444 C12.91,10.099 9.978,11.08 6.463,11.08 C2.948,11.08 0.0160000001,10.1 0.0160000001,9.444 L0.0160000001,12.713 C0.0160000001,13.901 2.903,14.859 6.463,14.859 C7.348,14.859 8.191,14.799 8.958,14.693 L8.958,12.917 L12.879,12.917 L12.879,12.917 Z" class="si-glyph-fill"></path><path d="M6.494,9.919 C10.055,9.919 12.941,8.937 12.941,7.723 L12.941,4.377 C12.941,5.049 10.009,6.051 6.494,6.051 C2.979,6.051 0.047,5.049 0.047,4.377 L0.047,7.723 C0.047,8.937 2.934,9.919 6.494,9.919 L6.494,9.919 Z" class="si-glyph-fill"></path><rect x="10" y="14" width="4" height="0.912" class="si-glyph-fill"></rect></g></g></svg>