<!--?xml version="1.0" encoding="UTF-8" standalone="no"?-->
<svg viewBox="0 0 17 16" version="1.1" xmlns="http://www.w3.org/2000/svg" xmlns:xlink="http://www.w3.org/1999/xlink" class="si-glyph si-glyph-yen">
    <!-- Generator: Sketch 3.0.3 (7891) - http://www.bohemiancoding.com/sketch -->
    <title>808</title>
    
    <defs></defs>
    <g stroke="none" stroke-width="1" fill="none" fill-rule="evenodd">
        <path d="M14.722,1.625 C14.89,1.421 14.969,1.163 14.943,0.9 C14.918,0.637 14.791,0.399 14.587,0.231 C14.41,0.086 14.187,0.00599999999 13.958,0.00599999999 C13.66,0.00599999999 13.38,0.138 13.191,0.368 L7.962,6.064 L2.772,0.37 C2.582,0.139 2.301,0.00599999999 2.003,0.00599999999 C1.771,0.00599999999 1.555,0.083 1.375,0.23 C1.169,0.397 1.043,0.634 1.015,0.897 C0.99,1.16 1.067,1.418 1.234,1.621 L7.032,8.021 L7.032,10.015 L4.03,10.015 C3.466,10.015 3.012,10.478 3.012,11.051 C3.012,11.622 3.467,11.984 4.03,11.984 L7.032,11.984 L7.032,14.984 C7.032,15.539 7.452,15.974 7.988,15.974 C8.532,15.974 8.975,15.53 8.975,14.984 L8.975,11.984 L11.948,11.984 C12.511,11.984 12.967,11.623 12.967,11.051 C12.967,10.478 12.512,10.015 11.948,10.015 L8.975,10.015 L8.975,7.956 L14.722,1.625 L14.722,1.625 Z" fill="#434343" class="si-glyph-fill"></path>
    </g>
</svg>