<!--?xml version="1.0" encoding="UTF-8" standalone="no"?-->
<svg viewBox="0 0 17 16" version="1.1" xmlns="http://www.w3.org/2000/svg" xmlns:xlink="http://www.w3.org/1999/xlink" class="si-glyph si-glyph-time-glass">
    <!-- Generator: Sketch 3.0.3 (7891) - http://www.bohemiancoding.com/sketch -->
    <title>1113</title>
    
    <defs></defs>
    <g stroke="none" stroke-width="1" fill="none" fill-rule="evenodd">
        <g transform="translate(5.000000, 0.000000)" fill="#434343">
            <path d="M7,2.026 C7,0.908 6.135,0 5.065,0 L1.945,0 C0.877,0 0.01,0.908 0.01,2.026 L0.01,5.562 L2.031,7.989 L0.01,10.437 L0.01,13.953 C0.01,15.071 0.876,15.978 1.945,15.978 L5.065,15.978 C6.134,15.978 7,15.071 7,13.953 L7,10.375 L4.906,8.001 L7,5.625 L7,2.026 L7,2.026 Z M6,5 L4,7.989 L6,11 L6,14 C6,14.553 5.553,15 5,15 L2,15 C1.447,15 1,14.553 1,14 L1,11 L3,7.989 L1,5.02 L1,2 C1,1.447 1.447,1 2,1 L5,1 C5.553,1 6,1.447 6,2 L6,5 L6,5 Z" class="si-glyph-fill"></path>
            <path d="M5,14 L2,14 L2,12 L3.5,10.021 L5,12 L5,14 Z" class="si-glyph-fill"></path>
            <path d="M5,4 L3.521,5.979 L2,4 L5,4 Z" class="si-glyph-fill"></path>
        </g>
    </g>
</svg>