<!--?xml version="1.0" encoding="UTF-8" standalone="no"?-->
<svg viewBox="0 0 17 16" version="1.1" xmlns="http://www.w3.org/2000/svg" xmlns:xlink="http://www.w3.org/1999/xlink" class="si-glyph si-glyph-column-decrease">
    <!-- Generator: Sketch 3.0.3 (7891) - http://www.bohemiancoding.com/sketch -->
    <title>803</title>
    
    <defs></defs>
    <g stroke="none" stroke-width="1" fill="none" fill-rule="evenodd">
        <g transform="translate(1.000000, 0.000000)" fill="#434343">
            <path d="M0,14.977 C0,15.514 0.275,15.951 0.615,15.951 L14.385,15.951 C14.725,15.951 15,15.514 15,14.977 L15,14.977 C15,14.438 14.725,14.001 14.385,14.001 L0.615,14.001 C0.275,14.001 0,14.438 0,14.977 L0,14.977 L0,14.977 Z" class="si-glyph-fill"></path>
            <path d="M11.053,12.258 C11.053,12.635 11.418,12.944 11.869,12.944 L13.092,12.944 C13.543,12.944 13.907,12.635 13.907,12.258 L13.907,8.818 C13.907,8.44 13.543,8.132 13.092,8.132 L11.869,8.132 C11.418,8.132 11.053,8.44 11.053,8.818 L11.053,12.258 L11.053,12.258 Z" class="si-glyph-fill"></path>
            <path d="M6.089,12.259 C6.089,12.637 6.454,12.944 6.904,12.944 L8.128,12.944 C8.578,12.944 8.943,12.637 8.943,12.259 L8.943,7.779 C8.943,7.401 8.578,7.094 8.128,7.094 L6.904,7.094 C6.454,7.094 6.089,7.401 6.089,7.779 L6.089,12.259 L6.089,12.259 Z" class="si-glyph-fill"></path>
            <path d="M1.062,12.232 C1.062,12.607 1.429,12.912 1.886,12.912 L3.122,12.912 C3.578,12.912 3.946,12.607 3.946,12.232 L3.946,5.727 C3.946,5.352 3.578,5.047 3.122,5.047 L1.886,5.047 C1.429,5.047 1.062,5.352 1.062,5.727 L1.062,12.232 L1.062,12.232 Z" class="si-glyph-fill"></path>
            <path d="M14.266,6.921 C14.645,6.92 14.957,6.624 14.971,6.248 C14.985,5.863 14.68,5.542 14.289,5.529 C9.285,5.352 4.521,3.424 1.215,0.236 C0.936,-0.032 0.49,-0.029 0.214,0.248 C-0.058,0.522 -0.053,0.965 0.226,1.233 C3.832,4.71 8.809,6.73 14.24,6.92 C14.249,6.921 14.258,6.921 14.266,6.921 L14.266,6.921 Z" class="si-glyph-fill"></path>
        </g>
    </g>
</svg>