<!--?xml version="1.0" encoding="UTF-8" standalone="no"?-->
<svg viewBox="0 0 17 16" version="1.1" xmlns="http://www.w3.org/2000/svg" xmlns:xlink="http://www.w3.org/1999/xlink" class="si-glyph si-glyph-hand">
    <!-- Generator: Sketch 3.0.3 (7891) - http://www.bohemiancoding.com/sketch -->
    <title>712</title>
    
    <defs></defs>
    <g stroke="none" stroke-width="1" fill="none" fill-rule="evenodd">
        <path d="M14.5,6.792 C14.11,6.599 13.653,6.703 13.477,7.023 C13.477,7.023 12.381,9.422 11.743,9.32 C11.399,9.264 11.124,8.94 11.001,8.315 L11.001,1.771 C11.001,1.345 10.562,1 10.021,1 C9.481,1 9.001,1.346 9.001,1.771 L9.001,6.938 L8.001,6.938 L8.001,0.771 C8.001,0.345 7.562,0 7.021,0 C6.481,0 6.001,0.346 6.001,0.771 L6.001,6.938 L5.001,6.938 L5.001,2.771 C5.001,2.345 4.561,2 4.02,2 C3.48,2 3.001,2.346 3.001,2.771 L3.001,11.186 C3.001,13.77 4.73,15.907 8.679,15.907 C13.562,15.907 14.884,7.719 14.884,7.719 C15.058,7.399 14.887,6.983 14.5,6.792 L14.5,6.792 Z" fill="#434343" class="si-glyph-fill"></path>
    </g>
</svg>