
<svg viewBox="0 0 16 16" version="1.1" xmlns="http://www.w3.org/2000/svg" xmlns:xlink="http://www.w3.org/1999/xlink" class="si-glyph si-glyph-weight-down"><title>656</title><defs></defs><g stroke="none" stroke-width="1" fill="none" fill-rule="evenodd"><path d="M12.905,5.01 C12.905,3.922 11.993,3.039 10.867,3.039 L9.944,3.039 C9.978,2.887 10,2.719 10,2.531 C10,1.135 8.877,-4.54747351e-13 7.495,-4.54747351e-13 C6.113,-4.54747351e-13 4.99,1.135 4.99,2.531 C4.99,2.719 5.016,2.886 5.058,3.039 L4.136,3.039 C3.011,3.039 2.099,3.922 2.099,5.01 L0.083,13.985 C0.083,15.075 0.995,15.957 2.122,15.957 L12.88,15.957 C14.006,15.957 14.917,15.075 14.917,13.985 L12.905,5.01 L12.905,5.01 Z M5.824,2.531 C5.824,1.582 6.573,0.808 7.495,0.808 C8.416,0.808 9.165,1.581 9.165,2.531 C9.165,2.709 9.131,2.877 9.082,3.039 L5.906,3.039 C5.857,2.877 5.824,2.709 5.824,2.531 L5.824,2.531 Z M6.963,9.947 L6.963,6.958 L8.037,6.958 L8.037,9.926 L10.107,9.947 L7.459,13.039 L4.969,9.947 L6.963,9.947 L6.963,9.947 Z" fill="#434343" class="si-glyph-fill"></path></g></svg>