<!--?xml version="1.0" encoding="UTF-8" standalone="no"?-->
<svg viewBox="0 0 16 16" version="1.1" xmlns="http://www.w3.org/2000/svg" xmlns:xlink="http://www.w3.org/1999/xlink" class="si-glyph si-glyph-baby-stroller">
    <!-- Generator: Sketch 3.0.3 (7891) - http://www.bohemiancoding.com/sketch -->
    <title>Baby-stroller</title>
    
    <defs></defs>
    <g stroke="none" stroke-width="1" fill="none" fill-rule="evenodd">
        <g fill="#434343">
            <path d="M4.002,12.037 C2.917,12.037 2.035,12.913 2.035,13.992 C2.035,15.072 2.917,15.948 4.002,15.948 C5.088,15.948 5.969,15.072 5.969,13.992 C5.969,12.913 5.088,12.037 4.002,12.037 L4.002,12.037 Z M4.002,15.211 C3.326,15.211 2.777,14.666 2.777,13.992 C2.777,13.318 3.326,12.773 4.002,12.773 C4.678,12.773 5.229,13.318 5.229,13.992 C5.229,14.666 4.678,15.211 4.002,15.211 L4.002,15.211 Z" class="si-glyph-fill"></path>
            <path d="M11.993,12.037 C10.913,12.037 10.039,12.913 10.039,13.992 C10.039,15.072 10.913,15.948 11.993,15.948 C13.071,15.948 13.947,15.072 13.947,13.992 C13.947,12.913 13.071,12.037 11.993,12.037 L11.993,12.037 Z M11.993,15.213 C11.32,15.213 10.775,14.666 10.775,13.992 C10.775,13.318 11.32,12.773 11.993,12.773 C12.664,12.773 13.213,13.318 13.213,13.992 C13.213,14.666 12.664,15.213 11.993,15.213 L11.993,15.213 Z" class="si-glyph-fill"></path>
            <path d="M11.121,-1.4321877e-11 C11.121,-1.4321877e-11 8.65,3.41 8.338,4.908 L15.908,4.908 C15.908,-0.643 13.117,-1.4321877e-11 11.121,-1.4321877e-11 L11.121,-1.4321877e-11 Z" class="si-glyph-fill"></path>
            <path d="M15.943,6.107 L6.396,6.107 L4.093,4.041 L0.509,4.041 C0.229,4.041 0.00199999998,4.249 0.00199999998,4.506 C0.00199999998,4.762 0.229,4.969 0.509,4.969 L3.672,4.969 L4.942,6.108 L0.068,6.108 C0.136,9.29 -0.68,11.92 7.658,11.92 C16.377,11.92 15.93,9.32 15.943,6.107 L15.943,6.107 Z" class="si-glyph-fill"></path>
        </g>
    </g>
</svg>