<!--?xml version="1.0" encoding="UTF-8" standalone="no"?-->
<svg viewBox="0 0 17 16" version="1.1" xmlns="http://www.w3.org/2000/svg" xmlns:xlink="http://www.w3.org/1999/xlink" class="si-glyph si-glyph-deny">
    <!-- Generator: Sketch 3.0.3 (7891) - http://www.bohemiancoding.com/sketch -->
    <title>799</title>
    
    <defs></defs>
    <g stroke="none" stroke-width="1" fill="none" fill-rule="evenodd">
        <path d="M9.016,0.06 C4.616,0.06 1.047,3.629 1.047,8.029 C1.047,12.429 4.615,15.998 9.016,15.998 C13.418,15.998 16.985,12.429 16.985,8.029 C16.985,3.629 13.418,0.06 9.016,0.06 L9.016,0.06 Z M3.049,8.028 C3.049,4.739 5.726,2.062 9.016,2.062 C10.37,2.062 11.616,2.52 12.618,3.283 L4.271,11.631 C3.508,10.629 3.049,9.381 3.049,8.028 L3.049,8.028 Z M9.016,13.994 C7.731,13.994 6.544,13.583 5.569,12.889 L13.878,4.58 C14.571,5.555 14.982,6.743 14.982,8.028 C14.981,11.317 12.306,13.994 9.016,13.994 L9.016,13.994 Z" fill="#434343" class="si-glyph-fill"></path>
    </g>
</svg>