
<svg viewBox="0 0 17 17" version="1.1" xmlns="http://www.w3.org/2000/svg" xmlns:xlink="http://www.w3.org/1999/xlink" class="si-glyph si-glyph-ying-yang"><title>927</title><defs></defs><g stroke="none" stroke-width="1" fill="none" fill-rule="evenodd"><g transform="translate(1.000000, 0.000000)" fill="#434343"><path d="M7.984,0.053 C3.599,0.053 0.045,3.614 0.045,8.006 C0.045,12.398 3.6,15.959 7.984,15.959 C12.368,15.959 15.923,12.398 15.923,8.006 C15.923,3.614 12.369,0.053 7.984,0.053 L7.984,0.053 Z M7.49,2.045 C8.328,2.045 9.009,2.699 9.009,3.505 C9.009,4.311 8.328,4.965 7.49,4.965 C6.65,4.965 5.971,4.311 5.971,3.505 C5.971,2.699 6.65,2.045 7.49,2.045 L7.49,2.045 Z M8.035,14.908 C4.984,14.908 2.342,10.918 8.101,7.984 C13.357,5.308 10.904,0.744 8.035,1.008 C12.41,1.008 14.974,4.119 14.974,7.958 C14.975,11.797 11.867,14.908 8.035,14.908 L8.035,14.908 Z" class="si-glyph-fill"></path><ellipse cx="8.493" cy="11.445" rx="1.493" ry="1.445" class="si-glyph-fill"></ellipse></g></g></svg>