<!--?xml version="1.0" encoding="UTF-8" standalone="no"?-->
<svg viewBox="0 0 17 16" version="1.1" xmlns="http://www.w3.org/2000/svg" xmlns:xlink="http://www.w3.org/1999/xlink" class="si-glyph si-glyph-book-4">
    <!-- Generator: Sketch 3.0.3 (7891) - http://www.bohemiancoding.com/sketch -->
    <title>1092</title>
    
    <defs></defs>
    <g stroke="none" stroke-width="1" fill="none" fill-rule="evenodd">
        <path d="M15,0 L15,16 L3.016,16 L3.016,14 L4,14 L4,12 L3.016,12 L3.016,4 L4,4 L4,2 L3.016,2 L3.016,0 L15,0 L15,0 Z M2,2 L2,4 L3,4 L3,2 L2,2 L2,2 Z M2,12 L2,14 L3,14 L3,12 L2,12 L2,12 Z M17,10.07 L16,10.07 L16,12.913 L17,12.913 L17,10.07 L17,10.07 Z M17,6.018 L16,6.018 L16,9 L17,9 L17,6.018 L17,6.018 Z M17,2.101 L16,2.101 L16,4.96 L17,4.96 L17,2.101 L17,2.101 Z" fill="#434343" class="si-glyph-fill"></path>
    </g>
</svg>