<!--?xml version="1.0" encoding="UTF-8" standalone="no"?-->
<svg viewBox="0 0 17 16" version="1.1" xmlns="http://www.w3.org/2000/svg" xmlns:xlink="http://www.w3.org/1999/xlink" class="si-glyph si-glyph-barrier">
    <!-- Generator: Sketch 3.0.3 (7891) - http://www.bohemiancoding.com/sketch -->
    <title>909</title>
    
    <defs></defs>
    <g stroke="none" stroke-width="1" fill="none" fill-rule="evenodd">
        <path d="M1.70262471,2 C1.33507483,2 1.036,2.301 1.036,2.673 L1.036,6.167 C1.036,6.378 1.1366986,6.557 1.28573252,6.681 C1.40153591,6.777 1.54251394,6.84 1.70262471,6.84 C1.70262471,6.84 2.00774146,6.859 2.00774146,6.868 L2.00774146,15 L3.01472742,15 L3.01472742,13 L15.0139768,13 L15.0139768,15 L16.0077771,15 L16.0077771,6.86799998 C16.0077771,6.85899998 16.2706005,6.83999998 16.2706005,6.83999998 C16.6391573,6.83999998 16.9382322,6.53899998 16.9382322,6.16699998 L16.9382322,2.67299998 C16.9372252,2.30099998 16.6381504,1.99999998 16.2706005,1.99999998 L1.70262471,2 Z M11.0105585,3 L13,3 L10.9905529,6 L9,6 L11.0105585,3 L11.0105585,3 Z M6.729,3 L8.442,3 L6.713,6 L5,6 L6.729,3 L6.729,3 Z M4.97657104,10 L7.016,10 L6.05338953,12 L4.016,12 L4.97657104,10 L4.97657104,10 Z M8.97657104,10 L11.016,10 L10.0533895,12 L8.016,12 L8.97657104,10 L8.97657104,10 Z M12.976571,10 L15.016,10 L14.0533895,12 L12.016,12 L12.976571,10 L12.976571,10 Z M2.09548167,5.70917355 C2.04092072,5.61545392 2,5.51110629 2,5.39323212 L2,3.60869448 C2,3.27342943 2.26086957,3 2.58226769,3 L4,3 L2.58226769,5.99999424 C2.37425405,6.00096043 2.20034101,5.88018771 2.09548167,5.70917355 L2.09548167,5.70917355 Z M15,7.02447059 L15,9 L3,9 L3,7.02447059 L3,7 L14.042,7 C14.041,7.01035294 15,7.01694118 15,7.02447059 L15,7.02447059 Z M15.357,5.986 L14.047,5.986 L15.809,2.986 C15.975,3.10349842 16.088,3.27595578 16.088,3.47684018 L16.088,5.3482868 C16.088,5.70172963 15.762,5.986 15.357,5.986 Z" fill="#434343" class="si-glyph-fill"></path>
    </g>
</svg>