
<svg viewBox="0 0 17 16" version="1.1" xmlns="http://www.w3.org/2000/svg" xmlns:xlink="http://www.w3.org/1999/xlink" class="si-glyph si-glyph-mail-send"><title>795</title><defs></defs><g stroke="none" stroke-width="1" fill="none" fill-rule="evenodd"><g transform="translate(1.000000, 1.000000)"><path d="M10.969,2.985 L8,0.032 L5.031,2.985 L7.016,2.985 L7.016,5.97 L8.953,5.97 L8.953,2.985 L10.969,2.985 Z" fill="#434343" class="si-glyph-fill"></path><g transform="translate(0.000000, 4.000000)"><path d="M15.062,2.094 L15.062,0.724 L8.014,6.344 L0.938,0.812 L0.967,2.094 L4.037,4.693 L0.848,9.046 L2.094,9.046 L4.956,5.569 L8.014,8.188 L11.022,5.643 L13.906,9.046 L15.17,9.031 L12.046,4.693 L15.062,2.094 Z" class=""></path><path d="M15.304,0.059 L10.062,0.059 L10.062,3.063 L5.959,3.063 L5.959,0.059 L0.701,0.059 C0.344,0.059 0.053,0.35 0.053,0.707 L0.053,9.324 C0.053,9.681 0.344,9.972 0.701,9.972 L15.304,9.972 C15.662,9.972 15.953,9.681 15.953,9.324 L15.953,0.707 C15.953,0.35 15.662,0.059 15.304,0.059 L15.304,0.059 Z M13.906,9.046 L11.022,5.643 L8.013,8.188 L4.955,5.57 L2.093,9.047 L0.847,9.047 L4.036,4.694 L0.966,2.094 L0.937,0.813 L8.013,6.344 L15.062,0.724 L15.062,2.094 L12.045,4.694 L15.169,9.032 L13.906,9.046 L13.906,9.046 Z" fill="#434343" class="si-glyph-fill"></path></g></g></g></svg>