<!--?xml version="1.0" encoding="UTF-8" standalone="no"?-->
<svg viewBox="0 0 16 16" version="1.1" xmlns="http://www.w3.org/2000/svg" xmlns:xlink="http://www.w3.org/1999/xlink" class="si-glyph si-glyph-bicycle-3">
    <!-- Generator: Sketch 3.0.3 (7891) - http://www.bohemiancoding.com/sketch -->
    <title>613</title>
    
    <defs></defs>
    <g stroke="none" stroke-width="1" fill="none" fill-rule="evenodd">
        <g transform="translate(1.000000, 0.000000)" fill="#434343">
            <path d="M9.84,0.042 C9.84,1.14 8.096,2.033 7.014,2.033 C5.932,2.033 4.339,1.139 4.339,0.042 L0.1,0.042 L0.1,0.958 L3.211,0.958 C3.813,1.873 4.9,2.966 6.07,3.224 L6.07,8.667 C6.07,8.667 6.462,7.9 7.024,7.9 C7.42,7.9 7.836,8.217 7.964,8.65 L7.964,3.221 C9.155,2.957 10.414,1.898 11.004,0.957 L13.916,0.957 L13.916,0.041 L9.84,0.041 L9.84,0.042 Z" class="si-glyph-fill"></path>
            <path d="M7.024,10.042 C6.495,10.042 6.066,10.369 6.066,10.773 L6.066,15.31 C6.066,15.714 6.495,16.041 7.024,16.041 C7.553,16.041 7.982,15.714 7.982,15.31 L7.982,10.773 C7.982,10.369 7.554,10.042 7.024,10.042 L7.024,10.042 Z" class="si-glyph-fill"></path>
            <path d="M4.453,11.001 L2.581,11.001 C2.291,11.001 2.059,11.216 2.059,11.48 C2.059,11.745 2.291,11.959 2.581,11.959 L4.453,11.959 C4.741,11.959 4.975,11.744 4.975,11.48 C4.976,11.216 4.741,11.001 4.453,11.001 L4.453,11.001 Z" class="si-glyph-fill"></path>
            <path d="M11.494,13.042 L9.622,13.042 C9.334,13.042 9.1,13.248 9.1,13.5 C9.1,13.753 9.334,13.959 9.622,13.959 L11.494,13.959 C11.783,13.959 12.015,13.753 12.015,13.5 C12.016,13.248 11.783,13.042 11.494,13.042 L11.494,13.042 Z" class="si-glyph-fill"></path>
        </g>
    </g>
</svg>