<!--?xml version="1.0" encoding="UTF-8" standalone="no"?-->
<svg viewBox="0 0 17 16" version="1.1" xmlns="http://www.w3.org/2000/svg" xmlns:xlink="http://www.w3.org/1999/xlink" class="si-glyph si-glyph-ribbon">
    <!-- Generator: Sketch 3.0.3 (7891) - http://www.bohemiancoding.com/sketch -->
    <title>665</title>
    
    <defs></defs>
    <g stroke="none" stroke-width="1" fill="none" fill-rule="evenodd">
        <g transform="translate(2.000000, 0.000000)" fill="#434343">
            <path d="M7.025,4.54747351e-13 L8.415,1.025 L10.132,1.025 L10.662,2.682 L12.052,3.707 L11.521,5.366 L12.052,7.024 L10.662,8.048 L10.132,9.706 L8.415,9.706 L7.025,10.731 L5.635,9.706 L3.92,9.706 L3.391,8.048 L2.002,7.024 L2.531,5.366 L2.002,3.707 L3.391,2.682 L3.92,1.025 L5.635,1.025 L7.025,4.54747351e-13 Z" class="si-glyph-fill"></path>
            <path d="M3.042,15.529 L2.002,12.847 L0.018,14.446 L2.006,9 L2.681,10.577 L4.998,10.591 L3.042,15.529 Z" class="si-glyph-fill"></path>
            <path d="M10.956,15.508 L12.031,12.847 L13.979,14.425 L12.027,9 L11.352,10.577 L9.035,10.591 L10.956,15.508 Z" class="si-glyph-fill"></path>
        </g>
    </g>
</svg>