<!--?xml version="1.0" encoding="UTF-8" standalone="no"?-->
<svg viewBox="0 0 17 17" version="1.1" xmlns="http://www.w3.org/2000/svg" xmlns:xlink="http://www.w3.org/1999/xlink" class="si-glyph si-glyph-scissor">
    <!-- Generator: Sketch 3.0.3 (7891) - http://www.bohemiancoding.com/sketch -->
    <title>130</title>
    
    <defs></defs>
    <g stroke="none" stroke-width="1" fill="none" fill-rule="evenodd">
        <path d="M15.958,4.146 C15.958,4.146 14.627,3.336 14.424,3.436 L8.123,7.295 L5.969,5.437 C6.04,4.497 5.254,3.385 3.936,2.705 C3.289,2.369 2.586,2.184 1.958,2.184 C1.122,2.184 0.479,2.506 0.196,3.067 C-0.319,4.083 0.517,5.517 2.095,6.335 C2.742,6.67 3.445,6.855 4.074,6.855 C4.543,6.855 4.94,6.744 5.259,6.557 L6.838,8.084 L5.315,9.563 C4.991,9.353 4.577,9.228 4.081,9.228 C3.452,9.228 2.753,9.412 2.106,9.749 C0.547,10.561 -0.267,11.981 0.254,12.983 C0.539,13.529 1.176,13.844 2,13.844 C2.628,13.844 3.329,13.658 3.975,13.321 C5.23,12.667 5.989,11.622 5.969,10.716 L8.123,8.872 L14.424,12.732 C14.627,12.831 15.958,12.021 15.958,12.021 L9.43,8.084 L15.958,4.146 L15.958,4.146 Z M4.871,5.481 C4.796,5.631 4.644,5.737 4.453,5.806 C3.969,5.983 3.198,5.906 2.502,5.546 C1.493,5.024 0.878,4.111 1.159,3.553 C1.3,3.276 1.656,3.116 2.138,3.116 C2.574,3.116 3.067,3.249 3.53,3.488 C4.253,3.861 4.766,4.435 4.899,4.938 C4.951,5.136 4.95,5.323 4.871,5.481 L4.871,5.481 Z M3.575,12.57 C2.593,13.081 1.443,13.044 1.166,12.513 C0.873,11.951 1.486,11.027 2.506,10.496 C2.975,10.252 3.479,10.117 3.924,10.117 C4.155,10.117 4.358,10.155 4.522,10.224 C4.702,10.298 4.838,10.409 4.913,10.552 C5.01,10.739 5,10.966 4.916,11.203 C4.746,11.687 4.254,12.215 3.575,12.57 L3.575,12.57 Z" fill="#434343" class="si-glyph-fill"></path>
    </g>
</svg>