<!--?xml version="1.0" encoding="UTF-8" standalone="no"?-->
<svg viewBox="0 0 17 16" version="1.1" xmlns="http://www.w3.org/2000/svg" xmlns:xlink="http://www.w3.org/1999/xlink" class="si-glyph si-glyph-chair-2">
    <!-- Generator: Sketch 3.0.3 (7891) - http://www.bohemiancoding.com/sketch -->
    <title>819</title>
    
    <defs></defs>
    <g stroke="none" stroke-width="1" fill="none" fill-rule="evenodd">
        <g transform="translate(4.000000, 0.000000)" fill="#434343">
            <path d="M4,14.0952798 L4,11 L5.938,11 L5.938,14.0854395 C7.67655161,14.2898596 8.969,15.0568462 8.969,15.971 L1.045,15.971 C1.045,15.0712088 2.29878948,14.3135563 4,14.0952798 Z" class="si-glyph-fill"></path>
            <path d="M7.379,7.953 L2.622,7.953 L2.027,1.34 C2.027,1.34 1.681,0.016 5,0.016 C8.32,0.016 7.975,1.34 7.975,1.34 L7.379,7.953 L7.379,7.953 Z" class="si-glyph-fill"></path>
            <path d="M8.969,11.225 C8.969,11.641 8.738,11.977 8.34,11.977 L1.66,11.977 C1.264,11.977 1.031,11.641 1.031,11.225 C1.031,11.225 1.489,9.03 2.388,9.03 L7.454,9.03 C8.478,9.029 8.969,11.225 8.969,11.225 L8.969,11.225 Z" class="si-glyph-fill"></path>
            <path d="M9.975,7.51 C9.975,7.905 9.762,7.985 9.499,7.985 L9.499,7.985 C9.236,7.985 9.023,7.905 9.023,7.51 L9.023,4.485 C9.023,4.089 9.236,4.032 9.499,4.032 L9.499,4.032 C9.762,4.032 9.975,4.09 9.975,4.485 L9.975,7.51 L9.975,7.51 Z" class="si-glyph-fill"></path>
            <path d="M0.975,7.51 C0.975,7.905 0.762,7.985 0.499,7.985 L0.499,7.985 C0.236,7.985 0.023,7.905 0.023,7.51 L0.023,4.485 C0.023,4.089 0.236,4.032 0.499,4.032 L0.499,4.032 C0.762,4.032 0.975,4.09 0.975,4.485 L0.975,7.51 L0.975,7.51 Z" class="si-glyph-fill"></path>
        </g>
    </g>
</svg>