<!--?xml version="1.0" encoding="UTF-8" standalone="no"?-->
<svg viewBox="0 0 17 16" version="1.1" xmlns="http://www.w3.org/2000/svg" xmlns:xlink="http://www.w3.org/1999/xlink" class="si-glyph si-glyph-watch">
    <!-- Generator: Sketch 3.0.3 (7891) - http://www.bohemiancoding.com/sketch -->
    <title>680</title>
    
    <defs></defs>
    <g stroke="none" stroke-width="1" fill="none" fill-rule="evenodd">
        <g transform="translate(4.000000, 1.000000)" fill="#434343">
            <path d="M4.969,5 L4.016,5 L4.016,7.941 L4.086,7.941 L4.086,7.984 L6,7.984 L6,7.031 L4.969,7.031 L4.969,5 Z" class="si-glyph-fill"></path>
            <path d="M8.936,7.016 C8.83,6.052 8.427,5.178 7.803,4.495 C7.565,4.235 7.291,4.012 7,3.812 L7,0 L2,0 L2,3.811 C1.684,4.029 1.393,4.282 1.141,4.571 C0.453,5.354 0.024,6.37 0.024,7.491 C0.024,8.436 0.324,9.309 0.828,10.033 C1.143,10.486 1.543,10.876 2.001,11.187 L2.001,14.954 L7.001,14.954 L7.001,11.185 C7.416,10.903 7.781,10.554 8.082,10.153 C8.544,9.536 8.845,8.8 8.94,8.001 L9.97,8.001 L9.97,7.017 L8.936,7.017 L8.936,7.016 Z M8,7.63672261 C7.97042254,8.36623889 7.71802817,9.03652517 7.30492958,9.5863771 C6.66704225,10.4392892 5.65253521,11 4.50690141,11 C3.31394366,11 2.26197183,10.4007897 1.63,9.49160908 C1.2356338,8.92497532 1,8.24086871 1,7.50049358 C1,6.6219151 1.3371831,5.8272458 1.87450704,5.21322804 C2.51732394,4.47581441 3.45197183,4 4.50690141,4 C5.53225352,4 6.4471831,4.45014808 7.08704225,5.15301086 C7.63126761,5.74925962 7.97042254,6.52517275 8,7.38302073 L8,7.63672261 L8,7.63672261 Z" class="si-glyph-fill"></path>
        </g>
    </g>
</svg>