<!--?xml version="1.0" encoding="UTF-8" standalone="no"?-->
<svg viewBox="0 0 17 16" version="1.1" xmlns="http://www.w3.org/2000/svg" xmlns:xlink="http://www.w3.org/1999/xlink" class="si-glyph si-glyph-mail-box">
    <!-- Generator: Sketch 3.0.3 (7891) - http://www.bohemiancoding.com/sketch -->
    <title>753</title>
    
    <defs></defs>
    <g stroke="none" stroke-width="1" fill="none" fill-rule="evenodd">
        <path d="M15.51,0.053 C14.699,0.037 14.028,0.683 14.012,1.495 C14.01,1.611 14.024,1.723 14.047,1.831 L12.99,2.893 C12.941,0.986 11.521,0.025 9.969,0.025 C8.686,0.025 7.043,1.153 7.043,3.158 C7.043,3.97 7.084,6.938 7.084,6.938 L8.072,6.938 L8.072,10.505 L4.578,6.938 L5.957,6.938 L5.918,3.074 C5.918,1.153 6.834,0.025 8,0.025 L4,0.025 C2.094,0.025 1,1.059 1,3.063 L1,6.938 L3.41,6.938 L8.072,11.67 L8.072,16 L9.918,16 L9.918,6.938 L13,6.938 L13,4.184 L14.535,2.643 C14.783,2.854 15.097,2.991 15.449,2.997 C16.261,3.015 16.931,2.368 16.947,1.556 C16.963,0.744 16.32,0.069 15.51,0.053 L15.51,0.053 Z M11.043,3.167 L8.918,3.167 L8.918,2.001 L11.043,2.001 L11.043,3.167 L11.043,3.167 Z" fill="#434343" class="si-glyph-fill"></path>
    </g>
</svg>