<!--?xml version="1.0" encoding="UTF-8" standalone="no"?-->
<svg viewBox="0 0 17 16" version="1.1" xmlns="http://www.w3.org/2000/svg" xmlns:xlink="http://www.w3.org/1999/xlink" class="si-glyph si-glyph-circle-forward">
    <!-- Generator: Sketch 3.0.3 (7891) - http://www.bohemiancoding.com/sketch -->
    <title>840</title>
    
    <defs></defs>
    <g stroke="none" stroke-width="1" fill="none" fill-rule="evenodd">
        <path d="M0.076,7.989 C0.076,12.39 3.638,15.958 8.031,15.958 C12.425,15.958 15.986,12.391 15.986,7.989 C15.986,3.587 12.424,0.02 8.031,0.02 C3.639,0.021 0.076,3.588 0.076,7.989 L0.076,7.989 Z M3.99,10.094 C3.99,7.566 5.159,5.83 7.775,5.83 C7.8,5.83 7.981,5.831 8.031,5.831 L8.031,4.198 C8.244,3.984 8.494,4.019 8.709,4.234 L11.938,6.656 C12.15,6.869 12.15,7.218 11.938,7.431 L8.709,9.853 C8.523,10.007 8.244,10.032 8.031,9.818 L8.031,8.22 C7.99,8.22 7.816,8.219 7.795,8.219 C5.979,8.219 5.356,8.896 4.563,10.345 C4.396,10.653 3.99,10.975 3.99,10.094 L3.99,10.094 Z" fill="#434343" class="si-glyph-fill"></path>
    </g>
</svg>