<!--?xml version="1.0" encoding="UTF-8" standalone="no"?-->
<svg viewBox="0 0 16 16" version="1.1" xmlns="http://www.w3.org/2000/svg" xmlns:xlink="http://www.w3.org/1999/xlink" class="si-glyph si-glyph-basket-arrow-down">
    <!-- Generator: Sketch 3.0.3 (7891) - http://www.bohemiancoding.com/sketch -->
    <title>622</title>
    
    <defs></defs>
    <g stroke="none" stroke-width="1" fill="none" fill-rule="evenodd">
        <g transform="translate(0.000000, 1.000000)" fill="#434343">
            <path d="M10.975,11.953 L12.954,11.953 L12.954,10 L13.26,10 L13.48,5.976 L14.246,5.976 C14.646,5.976 14.971,4.756 14.971,4.756 C14.971,4.386 14.647,4.084 14.246,4.084 L12.318,4.084 L11.283,0.375 C11.132,0.058 10.757,-0.07 10.445,0.089 L10.374,0.125 C10.063,0.285 9.934,0.671 10.085,0.988 L10.826,4.084 L4.172,4.084 L4.94,1 C5.094,0.686 4.967,0.298 4.659,0.135 L4.589,0.099 C4.278,-0.063 3.901,0.061 3.747,0.376 L2.674,4.084 L0.784,4.084 C0.384,4.084 0.059,4.386 0.059,4.756 C0.059,4.756 0.383,5.976 0.784,5.976 L1.42,5.976 L1.869,12.653 C1.869,12.653 1.921,13.962 3.982,13.962 L11.003,13.962 C11.577,13.962 11.987,13.862 12.292,13.722 L10.975,11.953 L10.975,11.953 Z M11.938,4.969 L13.032,4.969 L13.032,6.063 L11.938,6.063 L11.938,4.969 L11.938,4.969 Z M3.031,6.031 L1.969,6.031 L1.969,4.969 L3.031,4.969 L3.031,6.031 L3.031,6.031 Z M5.031,11.585 C5.031,11.918 4.794,12.188 4.504,12.188 L4.481,12.188 C4.188,12.188 3.952,11.918 3.952,11.585 L3.952,7.461 C3.952,7.128 4.188,6.859 4.481,6.859 L4.504,6.859 C4.794,6.859 5.031,7.128 5.031,7.461 L5.031,11.585 L5.031,11.585 Z M8.061,11.547 C8.061,11.881 7.815,12.152 7.518,12.152 L7.494,12.152 C7.193,12.152 6.95,11.881 6.95,11.547 L6.95,7.448 C6.95,7.114 7.193,6.844 7.494,6.844 L7.518,6.844 C7.815,6.844 8.061,7.115 8.061,7.448 L8.061,11.547 L8.061,11.547 Z M10.514,12.219 L10.493,12.219 C10.2,12.219 9.964,11.948 9.964,11.612 L9.964,7.479 C9.964,7.143 10.2,6.872 10.493,6.872 L10.514,6.872 C10.805,6.872 11.044,7.143 11.044,7.479 L11.044,11.612 C11.044,11.947 10.805,12.219 10.514,12.219 L10.514,12.219 Z" class="si-glyph-fill"></path>
            <path d="M13.031,13.047 L14.5,14.917 L15.988,13.047 L15,13.047 L15,11 L14.035,11 L14.035,13.047 L13.031,13.047 Z" class="si-glyph-fill"></path>
        </g>
    </g>
</svg>