<!--?xml version="1.0" encoding="UTF-8" standalone="no"?-->
<svg viewBox="0 0 17 17" version="1.1" xmlns="http://www.w3.org/2000/svg" xmlns:xlink="http://www.w3.org/1999/xlink" class="si-glyph si-glyph-snow">
    <!-- Generator: Sketch 3.0.3 (7891) - http://www.bohemiancoding.com/sketch -->
    <title>Snow</title>
    
    <defs></defs>
    <g stroke="none" stroke-width="1" fill="none" fill-rule="evenodd">
        <path d="M13.822,9.445 L13.025,8.984 L12.518,9.863 L11.584,9.324 L12.092,8.445 L11.293,7.984 L10.785,8.863 L9.981,8.398 L9.981,6.617 L10.785,6.152 L11.293,7.032 L12.092,6.57 L11.584,5.691 L12.518,5.152 L13.025,6.031 L13.822,5.572 L13.315,4.692 L14.195,4.184 L13.727,3.371 L12.846,3.881 L12.338,3.001 L11.541,3.461 L12.049,4.34 L11.115,4.879 L10.607,4 L9.809,4.461 L10.316,5.341 L9.528,5.796 L7.969,4.89 L7.969,3.953 L8.984,3.953 L8.984,3.031 L7.969,3.031 L7.969,1.953 L8.984,1.953 L8.984,1.031 L7.969,1.031 L7.969,0.047 L7.031,0.047 L7.031,1.031 L6.016,1.031 L6.016,1.953 L7.031,1.953 L7.031,3.031 L6.016,3.031 L6.016,3.953 L7.031,3.953 L7.031,4.89 L5.472,5.796 L4.654,5.324 L5.162,4.445 L4.365,3.984 L3.857,4.863 L2.924,4.324 L3.432,3.445 L2.633,2.984 L2.125,3.863 L1.271,3.371 L0.803,4.184 L1.656,4.676 L1.148,5.555 L1.947,6.016 L2.455,5.137 L3.389,5.676 L2.881,6.555 L3.678,7.016 L4.185,6.137 L5.019,6.618 L5.019,8.399 L4.185,8.881 L3.678,8.001 L2.881,8.461 L3.389,9.34 L2.455,9.879 L1.947,9 L1.148,9.461 L1.656,10.341 L0.803,10.833 L1.271,11.646 L2.125,11.152 L2.633,12.032 L3.432,11.57 L2.924,10.691 L3.857,10.152 L4.365,11.031 L5.162,10.572 L4.654,9.692 L5.486,9.213 L7.031,10.11 L7.031,11.031 L6.016,11.031 L6.016,11.953 L7.031,11.953 L7.031,13.031 L6.016,13.031 L6.016,13.953 L7.031,13.953 L7.031,14.969 L7.969,14.969 L7.969,13.953 L8.984,13.953 L8.984,13.031 L7.969,13.031 L7.969,11.953 L8.984,11.953 L8.984,11.031 L7.969,11.031 L7.969,10.11 L9.514,9.213 L10.316,9.676 L9.809,10.555 L10.607,11.016 L11.115,10.137 L12.049,10.676 L11.541,11.555 L12.338,12.016 L12.846,11.137 L13.727,11.645 L14.195,10.832 L13.315,10.324 L13.822,9.445 Z" fill="#434343" class="si-glyph-fill"></path>
    </g>
</svg>