<!--?xml version="1.0" encoding="UTF-8" standalone="no"?-->
<svg viewBox="0 0 16 16" version="1.1" xmlns="http://www.w3.org/2000/svg" xmlns:xlink="http://www.w3.org/1999/xlink" class="si-glyph si-glyph-person-checked">
    <!-- Generator: Sketch 3.0.3 (7891) - http://www.bohemiancoding.com/sketch -->
    <title>178</title>
    
    <defs></defs>
    <g stroke="none" stroke-width="1" fill="none" fill-rule="evenodd">
        <g transform="translate(0.000000, 1.000000)" fill="#434343">
            <path d="M10.926,3.121 C10.926,4.801 9.617,8.012 8.004,8.012 C6.391,8.012 5.081,4.801 5.081,3.121 C5.081,1.441 6.391,0.081 8.004,0.081 C9.617,0.081 10.926,1.441 10.926,3.121 L10.926,3.121 Z" class="si-glyph-fill"></path>
            <path d="M9.033,11.796 L11.426,9.375 L12.705,10.71 L14.348,9.048 C13.717,8.398 12.943,8.05 11.679,8.05 C10.825,9.206 7.99,9.503 7.99,9.503 C7.99,9.503 5.091,9.218 4.237,8.076 C0.144,8.076 0.02,13.986 0.02,13.986 L11.12,13.986 L9.033,11.796 L9.033,11.796 Z" class="si-glyph-fill"></path>
            <path d="M15.094,9.801 L12.713,12.182 L11.297,10.765 L10.372,11.689 L12.714,14.03 L16.02,10.726 L15.094,9.801 Z" class="si-glyph-fill"></path>
        </g>
    </g>
</svg>