<!--?xml version="1.0" encoding="UTF-8" standalone="no"?-->
<svg viewBox="0 0 16 16" version="1.1" xmlns="http://www.w3.org/2000/svg" xmlns:xlink="http://www.w3.org/1999/xlink" class="si-glyph si-glyph-document-search">
    <!-- Generator: Sketch 3.0.3 (7891) - http://www.bohemiancoding.com/sketch -->
    <title>150</title>
    
    <defs></defs>
    <g stroke="none" stroke-width="1" fill="none" fill-rule="evenodd">
        <g transform="translate(2.000000, 0.000000)" fill="#434343">
            <path d="M8.031,0.031 L8.031,3.969 L11.902,3.969 L8.031,0.031 Z" class="si-glyph-fill"></path>
            <path d="M4.492,9.021 C3.125,9.021 2.015,10.131 2.015,11.498 C2.015,12.013 2.173,12.491 2.443,12.888 L0.058,15.273 L0.765,15.98 L3.163,13.582 C3.548,13.828 4.001,13.976 4.491,13.976 C5.857,13.976 6.968,12.866 6.968,11.499 C6.968,10.132 5.858,9.021 4.492,9.021 L4.492,9.021 Z M4.516,13.099 C3.646,13.099 2.938,12.391 2.938,11.521 C2.938,10.651 3.646,9.943 4.516,9.943 C5.385,9.943 6.094,10.651 6.094,11.521 C6.094,12.391 5.385,13.099 4.516,13.099 L4.516,13.099 Z" class="si-glyph-fill"></path>
            <path d="M7,5 L7,0 L0.042,0 L0.042,13.876 L1.101,12.817 C0.941,12.408 0.845,11.966 0.845,11.501 C0.845,9.499 2.468,7.876 4.47,7.876 C6.472,7.876 8.095,9.499 8.095,11.501 C8.095,13.503 6.472,15.126 4.47,15.126 C4.042,15.126 3.638,15.038 3.257,14.903 L2.222,16 L12,16 L12,5 L7,5 Z" class="si-glyph-fill"></path>
        </g>
    </g>
</svg>