<!--?xml version="1.0" encoding="UTF-8" standalone="no"?-->
<svg viewBox="0 0 17 16" version="1.1" xmlns="http://www.w3.org/2000/svg" xmlns:xlink="http://www.w3.org/1999/xlink" class="si-glyph si-glyph-umbrella-close">
    <!-- Generator: Sketch 3.0.3 (7891) - http://www.bohemiancoding.com/sketch -->
    <title>1077</title>
    
    <defs></defs>
    <g stroke="none" stroke-width="1" fill="none" fill-rule="evenodd">
        <path d="M10.031,10.938 L10.031,11.983 L10.969,11.983 L7.907,1.968 L7.907,0.43 C7.907,0.202 7.722,0.019 7.495,0.019 C7.266,0.019 7.083,0.203 7.083,0.43 L7.083,1.968 L3.985,11.983 L4.938,11.983 L4.938,10.938 L6.016,10.938 L6.016,11.983 L7.032,11.983 L7.032,15.532 C7.032,15.76 7.283,15.944 7.511,15.944 C7.739,15.944 7.97,15.759 7.97,15.532 L7.97,11.983 L8.939,11.983 L8.939,10.938 L10.031,10.938 L10.031,10.938 Z" fill="#434343" class="si-glyph-fill"></path>
    </g>
</svg>