
<svg viewBox="0 0 17 17" version="1.1" xmlns="http://www.w3.org/2000/svg" xmlns:xlink="http://www.w3.org/1999/xlink" class="si-glyph si-glyph-candy-stick"><title>Candy-stick</title><defs></defs><g stroke="none" stroke-width="1" fill="none" fill-rule="evenodd"><path d="M11.75,0.468 C11.4,0.318 11.044,0.205 10.682,0.13 C10.293,0.048 9.897,0.00500000001 9.496,0.00900000001 C9.209,0.011 8.928,0.043 8.652,0.089 C8.166,0.172 7.705,0.321 7.28,0.527 C6.416,0.947 5.71,1.607 5.267,2.435 C5.216,2.528 0.146,13.977 0.146,13.977 C-0.172,14.697 0.16,15.537 0.884,15.849 C1.071,15.929 1.265,15.968 1.467,15.966 C2.037,15.962 2.554,15.624 2.782,15.106 L7.751,3.844 C7.974,3.341 8.474,2.997 9.097,2.892 C9.224,2.871 9.353,2.855 9.49,2.855 C9.857,2.851 10.238,2.929 10.593,3.082 C10.857,3.195 11.086,3.345 11.287,3.515 L11.922,4.34 C12.117,4.774 12.152,5.239 11.967,5.658 C11.846,5.933 11.821,6.226 11.873,6.501 C11.956,6.919 12.228,7.29 12.637,7.492 C12.662,7.505 12.682,7.52 12.707,7.531 C13.209,7.748 13.79,7.633 14.201,7.302 C14.369,7.165 14.513,6.994 14.605,6.789 C14.769,6.415 14.869,6.031 14.922,5.643 C15.203,3.576 13.955,1.414 11.75,0.468 L11.75,0.468 Z" fill="#434343" class="si-glyph-fill"></path></g></svg>