<!--?xml version="1.0" encoding="UTF-8" standalone="no"?-->
<svg viewBox="0 0 16 16" version="1.1" xmlns="http://www.w3.org/2000/svg" xmlns:xlink="http://www.w3.org/1999/xlink" class="si-glyph si-glyph-disc-deny">
    <!-- Generator: Sketch 3.0.3 (7891) - http://www.bohemiancoding.com/sketch -->
    <title>605</title>
    
    <defs></defs>
    <g stroke="none" stroke-width="1" fill="none" fill-rule="evenodd">
        <g fill="#434343">
            <path d="M13.477,10.979 C12.1,10.979 10.982,12.099 10.982,13.476 C10.982,14.854 12.1,15.973 13.477,15.973 C14.854,15.973 15.973,14.854 15.973,13.476 C15.973,12.099 14.854,10.979 13.477,10.979 L13.477,10.979 Z M11.834,13.656 C11.834,12.638 12.65,11.813 13.654,11.813 C13.942,11.813 14.221,11.882 14.474,12.011 L12.031,14.486 C11.902,14.229 11.834,13.944 11.834,13.656 L11.834,13.656 Z M13.328,15.16 C13.078,15.16 12.836,15.105 12.605,15.001 L14.982,12.591 C15.085,12.825 15.141,13.075 15.141,13.326 C15.142,14.336 14.328,15.16 13.328,15.16 L13.328,15.16 Z" class="si-glyph-fill"></path>
            <path d="M7.987,6.049 C6.877,6.049 5.977,6.924 5.977,8.004 C5.977,9.083 6.877,9.958 7.987,9.958 C9.095,9.958 9.996,9.083 9.996,8.004 C9.996,6.924 9.096,6.049 7.987,6.049 L7.987,6.049 Z" class="si-glyph-fill"></path>
            <path d="M9.879,13.499 C9.879,11.51 11.502,9.895 13.502,9.895 C14.277,9.895 14.991,10.142 15.58,10.554 C15.848,9.76 16,8.912 16,8.029 C16,3.633 12.421,0.069 8.008,0.069 C3.594,0.069 0.0160000001,3.633 0.0160000001,8.029 C0.0160000001,12.425 3.594,15.989 8.008,15.989 C8.895,15.989 9.746,15.836 10.543,15.569 C10.127,14.982 9.879,14.271 9.879,13.499 L9.879,13.499 Z M12.423,2.772 L13.269,3.617 L11.482,5.405 L10.637,4.56 L12.423,2.772 L12.423,2.772 Z M3.548,13.338 L2.703,12.493 L4.491,10.705 L5.336,11.551 L3.548,13.338 L3.548,13.338 Z M5,8.00046853 C5,6.34280806 6.34322762,5 7.99953132,5 C9.65583503,5 11,6.34374512 11,8.00046853 C11,9.65719194 9.65583503,11 7.99953132,11 C6.34322762,11 5,9.65719194 5,8.00046853 L5,8.00046853 Z" class="si-glyph-fill"></path>
        </g>
    </g>
</svg>