<!--?xml version="1.0" encoding="UTF-8" standalone="no"?-->
<svg viewBox="0 0 17 16" version="1.1" xmlns="http://www.w3.org/2000/svg" xmlns:xlink="http://www.w3.org/1999/xlink" class="si-glyph si-glyph-circle-drashed">
    <!-- Generator: Sketch 3.0.3 (7891) - http://www.bohemiancoding.com/sketch -->
    <title>1015</title>
    
    <defs></defs>
    <g stroke="none" stroke-width="1" fill="none" fill-rule="evenodd">
        <g transform="translate(2.000000, 1.000000)" fill="#434343">
            <path d="M0.922,6.984 C0.922,6.599 0.962,6.224 1.03,5.86 L0.189,5.541 C0.09,6.008 0.037,6.489 0.037,6.984 C0.037,7.655 0.138,8.301 0.314,8.916 L1.132,8.547 C1,8.048 0.922,7.525 0.922,6.984 L0.922,6.984 Z" class="si-glyph-fill"></path>
            <path d="M8.471,12.876 C7.999,12.994 7.508,13.064 7,13.064 C6.578,13.064 6.166,13.02 5.769,12.938 L5.454,13.768 C5.952,13.882 6.469,13.948 7.001,13.948 C7.638,13.948 8.253,13.854 8.84,13.694 L8.471,12.876 L8.471,12.876 Z" class="si-glyph-fill"></path>
            <path d="M1.721,3.984 C2.178,3.183 2.809,2.495 3.565,1.974 L3.198,1.158 C2.234,1.79 1.434,2.65 0.881,3.666 L1.721,3.984 L1.721,3.984 Z" class="si-glyph-fill"></path>
            <path d="M12.21,10.1 C11.732,10.896 11.082,11.574 10.306,12.079 L10.671,12.891 C11.654,12.277 12.475,11.428 13.049,10.419 L12.21,10.1 L12.21,10.1 Z" class="si-glyph-fill"></path>
            <path d="M1.955,10.371 L1.144,10.736 C1.758,11.691 2.597,12.488 3.589,13.048 L3.907,12.208 C3.129,11.746 2.459,11.119 1.955,10.371 L1.955,10.371 Z" class="si-glyph-fill"></path>
            <path d="M5.379,1.133 C5.896,0.989 6.438,0.906 7,0.906 C7.394,0.906 7.777,0.947 8.149,1.018 L8.467,0.179 C7.993,0.077 7.503,0.021 6.999,0.021 C6.308,0.021 5.641,0.125 5.01,0.314 L5.379,1.133 L5.379,1.133 Z" class="si-glyph-fill"></path>
            <path d="M12.063,3.628 L12.875,3.263 C12.244,2.271 11.375,1.446 10.341,0.878 L10.023,1.718 C10.842,2.189 11.542,2.844 12.063,3.628 L12.063,3.628 Z" class="si-glyph-fill"></path>
            <path d="M13.693,5.088 L12.877,5.455 C13.004,5.945 13.079,6.455 13.079,6.984 C13.079,7.416 13.031,7.836 12.947,8.242 L13.777,8.556 C13.894,8.05 13.963,7.525 13.963,6.984 C13.963,6.326 13.865,5.691 13.693,5.088 L13.693,5.088 Z" class="si-glyph-fill"></path>
        </g>
    </g>
</svg>