<!--?xml version="1.0" encoding="UTF-8" standalone="no"?-->
<svg viewBox="0 0 17 16" version="1.1" xmlns="http://www.w3.org/2000/svg" xmlns:xlink="http://www.w3.org/1999/xlink" class="si-glyph si-glyph-back-pack">
    <!-- Generator: Sketch 3.0.3 (7891) - http://www.bohemiancoding.com/sketch -->
    <title>672</title>
    
    <defs></defs>
    <g stroke="none" stroke-width="1" fill="none" fill-rule="evenodd">
        <g transform="translate(1.000000, 0.000000)" fill="#434343">
            <path d="M8.033,6 C6.959,6 6.095,6.331 5.465,6.984 C4.014,8.491 4.022,10.42 4.025,11.98 L4.026,12.196 C4.026,13.001 4.307,13.45 4.967,13.697 C5.613,13.939 6.543,13.958 7.693,13.958 L8.034,13.958 L8.375,13.958 C10.925,13.958 12.041,13.792 12.041,12.196 L12.042,11.98 C12.046,10.419 12.052,8.491 10.602,6.984 C9.971,6.331 9.106,6 8.033,6 L8.033,6 Z" class="si-glyph-fill"></path>
            <path d="M13.945,10.107 C13.85,8.43 13.574,6.53 12.806,4.991 C12.871,5 12.932,5.016 13.001,5.016 C13.545,5.016 13.981,4.74 13.981,4.399 L13.981,3.642 C13.981,3.3 13.544,3.024 13.001,3.024 C12.46,3.024 12.02,3.3 12.02,3.642 L12.02,3.776 C11.491,3.147 10.815,2.653 9.963,2.354 L9.963,1.034 C9.963,0.491 9.454,0.05 8.829,0.05 L7.183,0.05 C6.558,0.05 6.048,0.491 6.048,1.034 L6.048,2.357 C5.157,2.673 4.462,3.204 3.922,3.878 L3.922,3.642 C3.922,3.3 3.496,3.024 2.968,3.024 C2.444,3.024 2.016,3.3 2.016,3.642 L2.016,4.399 C2.016,4.74 2.444,5.016 2.968,5.016 C3.058,5.016 3.138,4.998 3.22,4.983 C2.465,6.492 2.183,8.351 2.083,10.006 C-0.056,10.037 0.017,12.227 0.017,13.12 C0.017,14.015 0.961,13.991 2.124,13.991 L2.124,13.8 C2.621,15.998 5.065,15.942 8.011,15.942 C10.912,15.942 13.329,16.001 13.878,13.907 C15.045,13.907 15.976,13.898 15.976,13.072 C15.977,12.24 16.034,10.236 13.945,10.107 L13.945,10.107 Z M6.953,1.313 C6.953,1.126 7.176,0.968 7.441,0.968 L8.541,0.968 C8.807,0.968 9.031,1.126 9.031,1.313 L9.031,2.116 C8.71,2.065 8.375,2.03 8.011,2.03 C7.632,2.03 7.285,2.069 6.952,2.124 L6.952,1.313 L6.953,1.313 Z M13.043,12.657 C13.043,15.082 10.656,15.082 8.35,15.082 L7.612,15.082 C6.297,15.082 5.225,15.061 4.415,14.784 C3.411,14.44 2.923,13.744 2.923,12.657 L2.921,12.446 C2.919,10.801 2.911,7.74 4.692,6.049 C5.514,5.271 6.62,4.875 7.983,4.875 C9.343,4.875 10.448,5.271 11.272,6.049 C13.054,7.74 13.046,10.802 13.043,12.446 L13.043,12.657 L13.043,12.657 Z" class="si-glyph-fill"></path>
        </g>
    </g>
</svg>