
<svg viewBox="0 0 16 16" version="1.1" xmlns="http://www.w3.org/2000/svg" xmlns:xlink="http://www.w3.org/1999/xlink" class="si-glyph si-glyph-old-phone"><title>176</title><defs></defs><g stroke="none" stroke-width="1" fill="none" fill-rule="evenodd"><g fill="#434343"><g><path d="M13.936,8.888 C13.936,6.714 10.752,6 10.752,6 C10.428,6 10.004,5.998 9,6 L9,4.958 L9.993,4.971 L9.993,3.083 L9,3.083 L9,4.083 L6,4.083 L6,3.083 L5,3.083 L5,4.971 L6.042,4.958 L6.042,6 L4.176,6 C4.176,6 0.999,6.637 0.999,8.879 C0.999,11.122 0.055,14.658 0.055,14.658 C0.055,14.658 0.791,14.706 0.791,15.968 L14.124,15.968 C14.124,14.76 14.982,14.653 14.982,14.653 C14.982,14.653 13.936,11.062 13.936,8.888 L13.936,8.888 Z M7.521,15.083 C5.532,15.083 3.917,13.47 3.917,11.479 C3.917,9.488 5.531,7.875 7.521,7.875 C9.511,7.875 11.125,9.487 11.125,11.479 C11.124,13.47 9.51,15.083 7.521,15.083 L7.521,15.083 Z" class="si-glyph-fill"></path><path d="M1.273,4.879 L2.578,4.879 C2.578,4.879 3.844,5.049 3.883,4.061 L0.049,4.061 C0.049,4.986 1.273,4.879 1.273,4.879 L1.273,4.879 Z" class="si-glyph-fill"></path><path d="M4,2.291 C4,1.951 4.82,2 5.165,2 L9.879,2 C10.221,2 11.015,2.049 11.015,2.389 C11.015,2.506 11.014,2.869 11.015,2.892 L14.962,2.892 C14.962,2.882 14.964,2.9 14.964,2.892 C14.964,-0.046 9.194,0.051 7.171,0.051 C5.15,0.051 0.027,-0.023 0.027,2.917 L4,2.917 C4.002,2.896 4,2.105 4,2.291 L4,2.291 Z" class="si-glyph-fill"></path><path d="M12.441,4.879 L13.724,4.879 C13.724,4.879 14.946,5.071 14.961,4.061 L11.136,4.061 C11.184,4.941 12.441,4.879 12.441,4.879 L12.441,4.879 Z" class="si-glyph-fill"></path></g><rect x="8" y="11" width="2" height="0.964" class="si-glyph-fill"></rect><ellipse cx="7.477" cy="11.492" rx="1.477" ry="1.492" class="si-glyph-fill"></ellipse></g></g></svg>