
<svg viewBox="0 0 16 16" version="1.1" xmlns="http://www.w3.org/2000/svg" xmlns:xlink="http://www.w3.org/1999/xlink" class="si-glyph si-glyph-radio"><title>41</title><defs></defs><g stroke="none" stroke-width="1" fill="none" fill-rule="evenodd"><g transform="translate(1.000000, 0.000000)" fill="#434343"><rect x="2" y="0" width="0.938" height="4.93" class="si-glyph-fill"></rect><path d="M11.018,6.01 L11.018,16.01 L13.98,16.01 L13.98,6.01 L11.018,6.01 L11.018,6.01 Z M13.021,10.021 L11.979,10.021 L11.979,9 L13.021,9 L13.021,10.021 L13.021,10.021 Z M13.021,8.021 L11.979,8.021 L11.979,7 L13.021,7 L13.021,8.021 L13.021,8.021 Z" class="si-glyph-fill"></path><path d="M0.0110000001,16.016 L10.011,16.016 L10.011,6.016 L0.0110000001,6.016 L0.0110000001,16.016 L0.0110000001,16.016 Z M4.508,15.062 C3.5,15.062 2.594,14.64 1.946,13.968 L7.071,13.968 C6.422,14.641 5.516,15.062 4.508,15.062 L4.508,15.062 Z M8.029,11.969 C7.978,12.34 7.877,12.691 7.722,13.016 L1.292,13.016 C1.138,12.691 1.036,12.34 0.985,11.969 L8.029,11.969 L8.029,11.969 Z M0.984,11.016 C1.033,10.646 1.131,10.294 1.283,9.969 L7.73,9.969 C7.883,10.294 7.982,10.646 8.031,11.016 L0.984,11.016 L0.984,11.016 Z M4.508,7.906 C5.524,7.906 6.434,8.335 7.084,9.015 L1.932,9.015 C2.582,8.335 3.492,7.906 4.508,7.906 L4.508,7.906 Z" class="si-glyph-fill"></path></g></g></svg>