<!--?xml version="1.0" encoding="UTF-8" standalone="no"?-->
<svg viewBox="0 0 17 16" version="1.1" xmlns="http://www.w3.org/2000/svg" xmlns:xlink="http://www.w3.org/1999/xlink" class="si-glyph si-glyph-bubble-message-dot-2">
    <!-- Generator: Sketch 3.0.3 (7891) - http://www.bohemiancoding.com/sketch -->
    <title>1049</title>
    
    <defs></defs>
    <g stroke="none" stroke-width="1" fill="none" fill-rule="evenodd">
        <path d="M9.019,1.04 C4.621,1.04 1.051,3.66 1.051,6.892 C1.051,9.842 4.026,12.276 7.893,12.679 L5.845,15.929 L11.964,12.326 C14.906,11.465 16.989,9.358 16.989,6.891 C16.989,3.66 13.42,1.04 9.019,1.04 L9.019,1.04 Z M6,8 L4,8 L4,6 L6,6 L6,8 L6,8 Z M10,8 L8,8 L8,6 L10,6 L10,8 L10,8 Z M14,8 L12,8 L12,6 L14,6 L14,8 L14,8 Z" fill="#434343" class="si-glyph-fill"></path>
    </g>
</svg>