
<svg viewBox="0 0 17 17" version="1.1" xmlns="http://www.w3.org/2000/svg" xmlns:xlink="http://www.w3.org/1999/xlink" class="si-glyph si-glyph-cloud-snow"><title>726</title><defs></defs><g stroke="none" stroke-width="1" fill="none" fill-rule="evenodd"><g transform="translate(1.000000, 3.000000)" fill="#434343"><path d="M13.803,3.424 C13.553,3.424 13.317,3.491 13.092,3.592 C12.399,2.549 11.265,1.867 9.982,1.867 C9.775,1.867 9.575,1.888 9.378,1.923 C8.698,0.785 7.513,0.03 6.162,0.03 C4.255,0.03 2.679,1.531 2.391,3.492 C2.373,3.492 2.357,3.487 2.34,3.487 C1.063,3.487 0.028,4.599 0.028,5.971 L15.987,5.971 C15.849,4.537 14.928,3.424 13.803,3.424 L13.803,3.424 Z" class="si-glyph-fill"></path><circle cx="1.973" cy="7.973" r="0.973" class="si-glyph-fill"></circle><circle cx="5.962" cy="9.962" r="0.962" class="si-glyph-fill"></circle><circle cx="9.973" cy="7.973" r="0.973" class="si-glyph-fill"></circle><circle cx="13.962" cy="9.962" r="0.962" class="si-glyph-fill"></circle></g></g></svg>