<!--?xml version="1.0" encoding="UTF-8" standalone="no"?-->
<svg viewBox="0 0 17 16" version="1.1" xmlns="http://www.w3.org/2000/svg" xmlns:xlink="http://www.w3.org/1999/xlink" class="si-glyph si-glyph-wrench">
    <!-- Generator: Sketch 3.0.3 (7891) - http://www.bohemiancoding.com/sketch -->
    <title>964</title>
    
    <defs></defs>
    <g stroke="none" stroke-width="1" fill="none" fill-rule="evenodd">
        <path d="M7.98223907,11.1892589 L12.1593128,7.00532298 C13.438051,7.47227549 14.9275022,7.20204355 15.9542112,6.17288437 C16.652456,5.47193792 16.9809202,4.6394993 17.0377301,3.66728555 L16.3611763,4.36098439 L14.1486907,5.10023958 L11.8804281,2.84416527 L12.6561408,0.669885304 L13.32753,0 C12.3824206,0.077652856 11.5292399,0.35927388 10.8413242,1.04779587 C9.8239113,2.06867208 9.55019109,3.54304098 10.0005383,4.81965393 L5.85238593,8.97770553 C4.5860426,8.5221421 3.11518379,8.86070856 2.08744185,9.89193848 C0.675458712,11.3072912 0.700248467,13.5799315 2.08744185,14.9704353 C3.47360233,16.3609391 5.74083203,16.3402316 7.15281517,14.9248789 C8.15473445,13.921604 8.38403968,12.4337753 7.98223907,11.1892589 L7.98223907,11.1892589 Z M2.73293107,14.2904887 C1.75568964,13.314463 1.75568964,11.731045 2.73293107,10.7550193 C3.70886076,9.77899358 5.29212304,9.77899358 6.26805273,10.7550193 C7.24398242,11.731045 7.24398242,13.314463 6.26805273,14.2904887 C5.29212304,15.2678263 3.70754903,15.2665144 2.73293107,14.2904887 L2.73293107,14.2904887 Z" fill="#434343" class="si-glyph-fill"></path>
    </g>
</svg>