<!--?xml version="1.0" encoding="UTF-8" standalone="no"?-->
<svg viewBox="0 0 17 16" version="1.1" xmlns="http://www.w3.org/2000/svg" xmlns:xlink="http://www.w3.org/1999/xlink" class="si-glyph si-glyph-jump-forward">
    <!-- Generator: Sketch 3.0.3 (7891) - http://www.bohemiancoding.com/sketch -->
    <title>1238</title>
    
    <defs></defs>
    <g stroke="none" stroke-width="1" fill="none" fill-rule="evenodd">
        <g transform="translate(2.000000, 0.000000)" fill="#434343">
            <path d="M0.00199999998,1 C0.00199999998,0.447 0.444,0 0.991,0 L2.97,0 C3.517,0 3.959,0.447 3.959,1 L3.959,15 C3.959,15.553 3.517,16 2.97,16 L0.991,16 C0.444,16 0.00199999998,15.553 0.00199999998,15 L0.00199999998,1 L0.00199999998,1 Z" class="si-glyph-fill"></path>
            <path d="M8.113,15.495 C7.531,16.076 6.01,16.395 6.01,14.494 L6.01,1.506 C6.01,-0.333 7.531,-0.076 8.113,0.506 L14.557,6.948 C15.137,7.529 15.137,8.47 14.557,9.052 L8.113,15.495 L8.113,15.495 Z" class="si-glyph-fill"></path>
        </g>
    </g>
</svg>