
<svg viewBox="0 0 16 16" version="1.1" xmlns="http://www.w3.org/2000/svg" xmlns:xlink="http://www.w3.org/1999/xlink" class="si-glyph si-glyph-folder-contact"><title>Folder-contact</title><defs></defs><g stroke="none" stroke-width="1" fill="none" fill-rule="evenodd"><g transform="translate(0.000000, 2.000000)" fill="#434343"><g><path d="M7,6 L6.99999998,7.95690918 L9.01416014,7.95690918 L9.01416016,6 L7,6 Z" class="si-glyph-fill"></path><rect x="10" y="5" width="1" height="3" class="si-glyph-fill"></rect><path d="M7.35,2 L5.788,0.042 L2.021,0.042 L2.021,1.063 L0.023,1.063 L0.023,10.976 L1.043,10.976 L1.045,11.976 L15.947,11.976 L15.968,2 L7.35,2 L7.35,2 Z M10.9928815,8 L10.9751015,9 L7,9.06736008 L7,8.07677068 L6,8.0559683 L6,5.9717682 L7,5.9717682 L7,4.9910847 L10,4.9811788 L10,4 L6.00066021,4 L6.00066021,5 L5.01584727,5 L5.01584727,8.96433878 L6.01547685,8.96433878 L6.01547685,9.97077761 L9.97250858,9.97077761 L9.97250858,11 L6,11 L6,10 L5,10.0579495 L5,9.03665181 L3.953,9.03665161 L3.953,5.03368004 L4.96053179,5.03368004 L4.96053179,4.02526003 L6,4.02526003 L6,3 L9.95769194,3 L9.95769194,4.01139178 L11,4.01139182 L11,4.99207532 L11.953,4.99207528 L11.953,8 L10.9928815,8 Z" class="si-glyph-fill"></path></g><path d="M12.958,0.979 L8.688,0.979 L8.021,0.021 L12.958,0.021 L12.958,0.979 Z" class="si-glyph-fill"></path></g></g></svg>