
<svg viewBox="0 0 17 16" version="1.1" xmlns="http://www.w3.org/2000/svg" xmlns:xlink="http://www.w3.org/1999/xlink" class="si-glyph si-glyph-no-dog"><title>695</title><defs></defs><g stroke="none" stroke-width="1" fill="none" fill-rule="evenodd"><g transform="translate(1.000000, 0.000000)" fill="#434343"><path d="M12.125,5.149 L11.783,4.021 L9.62,6.159 L10.701,7.286 L12.995,7.779 L13.965,7.067 L12.125,5.149 Z" class="si-glyph-fill"></path><path d="M9.064,7.075 L4.451,7.075 C4.433,7.075 2.209,6.123 1.875,5.979 L1.875,6.423 L3.377,7.795 C3.182,8.036 3.045,8.298 3.045,8.499 L3.045,11.916 L4.423,12.02 L4.423,10.813 L6.301,9.863 L8.643,9.863 L9.112,11.917 L9.992,11.917 L9.992,8.015 L9.064,7.075 L9.064,7.075 Z" class="si-glyph-fill"></path><path d="M8.01,15.958 C3.605,15.958 0.021,12.393 0.021,8.01 C0.021,3.627 3.605,0.063 8.01,0.063 C12.415,0.063 15.999,3.627 15.999,8.01 C15.999,12.393 12.415,15.958 8.01,15.958 L8.01,15.958 Z M7.979,1.073 C4.077,1.073 0.902,4.208 0.902,8.062 C0.902,11.916 4.077,15.051 7.979,15.051 C11.881,15.051 15.056,11.915 15.056,8.062 C15.056,4.208 11.881,1.073 7.979,1.073 L7.979,1.073 Z" class="si-glyph-fill"></path><rect transform="translate(7.359750, 8.291050) rotate(25.663112) translate(-7.359750, -8.291050) " x="6.85972561" y="0.790684121" width="1.33906532" height="14.6587151" class="si-glyph-fill"></rect></g></g></svg>