
<svg viewBox="0 0 17 16" version="1.1" xmlns="http://www.w3.org/2000/svg" xmlns:xlink="http://www.w3.org/1999/xlink" class="si-glyph si-glyph-hamburger"><title>1037</title><defs></defs><g stroke="none" stroke-width="1" fill="none" fill-rule="evenodd"><g transform="translate(1.000000, 0.000000)" fill="#434343"><path d="M0.021,13.061 C0.021,16.323 7.469,15.941 8.002,15.941 C8.535,15.941 15.982,16.472 15.982,13.061 L0.021,13.061 L0.021,13.061 Z" class="si-glyph-fill"></path><rect x="0" y="11" width="15.951" height="0.951" class="si-glyph-fill"></rect><path d="M0.318,9.991 C0.38,9.991 0.442,9.973 0.497,9.936 L2,8.744 L3.836,9.924 C3.941,9.996 4.08,9.995 4.188,9.922 L6.016,8.743 L7.801,9.91 C7.908,9.982 8.043,9.982 8.15,9.91 L9.983,8.742 L11.791,9.91 C11.898,9.982 12.035,9.98 12.142,9.908 L14.009,8.756 L15.478,9.938 C15.626,10.039 15.826,9.999 15.923,9.844 C16.022,9.691 15.982,9.485 15.833,9.381 L14.188,8.078 C14.082,8.005 13.943,8.004 13.834,8.077 L11.963,9.232 L10.156,8.064 C10.049,7.994 9.914,7.994 9.807,8.065 L7.972,9.232 L6.187,8.064 C6.08,7.992 5.943,7.993 5.836,8.066 L4.009,9.244 L2.173,8.065 C2.066,7.992 1.926,7.993 1.821,8.066 L0.141,9.379 C-0.007,9.48 -0.048,9.687 0.051,9.841 C0.113,9.939 0.215,9.991 0.318,9.991 L0.318,9.991 Z" class="si-glyph-fill"></path><path d="M15.797,4.958 C15.797,4.947 15.801,4.937 15.799,4.928 C15.204,0.662 10.014,0.066 7.998,0.066 C5.982,0.066 0.881,0.663 0.198,4.928 C0.198,4.938 0.199,4.948 0.199,4.958 L15.797,4.958 L15.797,4.958 Z M12.958,2.958 L14.043,2.958 L14.043,4.02 L12.958,4.02 L12.958,2.958 L12.958,2.958 Z M1.958,2.958 L3.031,2.958 L3.031,4.016 L1.958,4.016 L1.958,2.958 L1.958,2.958 Z M4.958,1.958 L6.016,1.958 L6.016,3 L4.958,3 L4.958,1.958 L4.958,1.958 Z M9.958,1.958 L11,1.958 L11,3.016 L9.958,3.016 L9.958,1.958 L9.958,1.958 Z M6.958,2.958 L8.02,2.958 L8.02,4.02 L6.958,4.02 L6.958,2.958 L6.958,2.958 Z M7.979,0.974 L9,0.974 L9,2.027 L7.979,2.027 L7.979,0.974 L7.979,0.974 Z" class="si-glyph-fill"></path><rect x="0" y="6" width="15.924" height="0.902" class="si-glyph-fill"></rect></g></g></svg>