<!--?xml version="1.0" encoding="UTF-8" standalone="no"?-->
<svg viewBox="0 0 17 16" version="1.1" xmlns="http://www.w3.org/2000/svg" xmlns:xlink="http://www.w3.org/1999/xlink" class="si-glyph si-glyph-arrow-triangle-recycle">
    <!-- Generator: Sketch 3.0.3 (7891) - http://www.bohemiancoding.com/sketch -->
    <title>667</title>
    
    <defs></defs>
    <g stroke="none" stroke-width="1" fill="none" fill-rule="evenodd">
        <g transform="translate(1.000000, 1.000000)" fill="#434343">
            <path d="M15.8992941,11.815 L13.8738824,8.48 C13.6847059,8.168 13.2931765,8.079 13.0014118,8.281 C12.7077647,8.48 12.6249412,8.896 12.8141176,9.207 L14.2117647,11.564 L11.216,11.564 L11.2169412,10.125 C11.0964706,9.996 10.9072941,9.988 10.7943529,10.108 L8.75388235,11.935 C8.64188235,12.056 8.64847059,12.257 8.76894118,12.386 L10.7924706,13.861 C10.9138824,13.989 11.1030588,13.996 11.2150588,13.875 L11.2150588,12.849 L15.3694118,12.849 C15.6,12.849 15.8127059,12.715 15.9228235,12.499 C16.0329412,12.284 16.0244706,12.021 15.8992941,11.815 L15.8992941,11.815 Z" class="si-glyph-fill"></path>
            <path d="M4.94305882,11.608 L1.86070588,11.608 L3.54070588,8.856 L4.42352941,9.512 C4.59670588,9.482 4.71341176,9.316 4.68423529,9.142 L4.54870588,6.316 C4.52047059,6.143 4.35670588,6.031 4.18352941,6.062 L1.66870588,6.894 C1.49741176,6.929 1.38164706,7.095 1.41082353,7.266 L2.48188235,8.065 L0.181647059,11.866 C0.0517647059,12.078 0.0432941176,12.349 0.157176471,12.57 C0.271058824,12.794 0.488470588,12.931 0.725647059,12.931 L4.99952941,12.931 C5.35717647,12.931 5.64705882,12.621 5.64705882,12.24 C5.64705882,11.859 5.30164706,11.608 4.94305882,11.608 L4.94305882,11.608 Z" class="si-glyph-fill"></path>
            <path d="M9.02211765,5.617 L11.4795294,6.459 C11.6376471,6.491 11.7901176,6.372 11.8221176,6.193 L11.9792941,3.477 C12.0094118,3.298 11.9077647,3.129 11.7515294,3.098 L10.8517647,3.748 L8.80282353,0.378 C8.57129412,-0.004 7.97552941,-0.005 7.744,0.379 L5.84,3.512 C5.65082353,3.824 5.73458824,4.238 6.02729412,4.439 C6.32,4.64 6.71058824,4.551 6.89976471,4.239 L8.27388235,1.978 L9.80894118,4.503 L8.79623529,5.235 C8.76329412,5.415 8.864,5.585 9.02211765,5.617 L9.02211765,5.617 Z" class="si-glyph-fill"></path>
        </g>
    </g>
</svg>