<!--?xml version="1.0" encoding="UTF-8" standalone="no"?-->
<svg viewBox="0 0 16 16" version="1.1" xmlns="http://www.w3.org/2000/svg" xmlns:xlink="http://www.w3.org/1999/xlink" class="si-glyph si-glyph-man-doctor">
    <!-- Generator: Sketch 3.0.3 (7891) - http://www.bohemiancoding.com/sketch -->
    <title>599</title>
    
    <defs></defs>
    <g stroke="none" stroke-width="1" fill="none" fill-rule="evenodd">
        <g fill="#434343">
            <path d="M11.957,4.121 C11.957,1.664 10.256,0.062 8.465,0.062 C6.671,0.062 5.008,1.648 5.008,4.121 L5.007,4.121 C5.014,5.779 6.569,8.92 8.483,8.92 C10.396,8.92 11.947,5.779 11.957,4.121 L11.957,4.121 L11.957,4.121 Z" class="si-glyph-fill"></path>
            <path d="M13.499,11.041 C12.139,11.041 11.035,12.143 11.035,13.501 C11.035,14.859 12.139,15.961 13.499,15.961 C14.858,15.961 15.961,14.859 15.961,13.501 C15.961,12.143 14.858,11.041 13.499,11.041 L13.499,11.041 Z M14.035,14.022 L14.035,15 L12.982,15 L12.982,14.022 L11.954,14.022 L11.954,12.989 L12.982,12.989 L12.982,11.963 L14.035,11.963 L14.035,12.989 L15.024,12.989 L15.024,14.022 L14.035,14.022 L14.035,14.022 Z" class="si-glyph-fill"></path>
            <path d="M9.398,13.002 C9.398,11.761 9.943,10.648 10.804,9.893 C11.265,9.487 11.238,9.523 10.836,9.718 C9.678,10.28 8.11,10.444 8.11,10.444 C8.11,10.444 5.202,10.157 4.345,9.005 C0.24,9.005 0.116,14.969 0.116,14.969 L9.891,14.969 C9.578,14.384 9.398,13.714 9.398,13.002 L9.398,13.002 Z" class="si-glyph-fill"></path>
        </g>
    </g>
</svg>