
<svg viewBox="0 0 16 16" version="1.1" xmlns="http://www.w3.org/2000/svg" xmlns:xlink="http://www.w3.org/1999/xlink" class="si-glyph si-glyph-document-doc"><title>171</title><defs></defs><g stroke="none" stroke-width="1" fill="none" fill-rule="evenodd"><g transform="translate(2.000000, 0.000000)" fill="#434343"><path d="M8.031,0.031 L8.031,3.969 L11.902,3.969 L8.031,0.031 Z" class="si-glyph-fill"></path><rect x="2" y="9" width="0.965" height="1.989" class="si-glyph-fill"></rect><rect x="6" y="9" width="0.953" height="1.953" class="si-glyph-fill"></rect><path d="M6.938,5.092 L6.938,0.069 L0.042,0.069 L0.042,15.938 L11.938,15.938 L11.938,5.092 L6.938,5.092 L6.938,5.092 Z M3.033,11.031 L3.033,12.04 L0.982,12.04 L0.982,7.973 L3.046,7.983 L3.046,8.954 L4.03,8.954 L4.046,11.032 L3.033,11.032 L3.033,11.031 Z M8.012,11.047 L7.016,11.047 L7.016,12.031 L5.969,12.031 L5.969,11.047 L4.975,11.047 L4.975,8.985 L5.969,8.985 L5.969,7.969 L7.016,7.969 L7.016,8.985 L8.012,8.985 L8.012,11.047 L8.012,11.047 Z M11.016,9.016 L10.016,9.016 L10.016,10.985 L11.016,10.985 L11.016,12 L9.954,12 L9.954,11.024 L8.97,11.024 L8.97,8.957 L9.954,8.957 L9.954,7.971 L11.016,7.971 L11.016,9.016 L11.016,9.016 Z" class="si-glyph-fill"></path></g></g></svg>