<!--?xml version="1.0" encoding="UTF-8" standalone="no"?-->
<svg viewBox="0 0 17 16" version="1.1" xmlns="http://www.w3.org/2000/svg" xmlns:xlink="http://www.w3.org/1999/xlink" class="si-glyph si-glyph-tent-camp">
    <!-- Generator: Sketch 3.0.3 (7891) - http://www.bohemiancoding.com/sketch -->
    <title>794</title>
    
    <defs></defs>
    <g stroke="none" stroke-width="1" fill="none" fill-rule="evenodd">
        <path d="M16.021,14.023 C13.32,12.773 10.909,6.774 9.732,3.859 L10.937,1.575 C11.021,1.419 10.976,1.216 10.837,1.121 C10.699,1.027 10.521,1.078 10.437,1.235 L9.436,3.132 C9.211,2.59 9.061,2.261 9,2.261 C8.94,2.261 8.793,2.58 8.574,3.108 L7.563,1.192 C7.479,1.035 7.299,0.984 7.163,1.078 C7.024,1.173 6.979,1.376 7.063,1.532 L8.278,3.834 C7.107,6.733 4.699,12.739 2,14.013 L2,12.02 L1,12.02 L1,15 L5.666,15 C8.268,13.082 9,6.926 9,6.926 C9,6.926 9.943,13.082 12.334,15 L17,14.996948 L17,12.02 L16.021,12.02 L16.021,14.023 Z" fill="#404041" class="si-glyph-fill"></path>
    </g>
</svg>