<!--?xml version="1.0" encoding="UTF-8" standalone="no"?-->
<svg viewBox="0 0 16 16" version="1.1" xmlns="http://www.w3.org/2000/svg" xmlns:xlink="http://www.w3.org/1999/xlink" class="si-glyph si-glyph-briefcase-person">
    <!-- Generator: Sketch 3.0.3 (7891) - http://www.bohemiancoding.com/sketch -->
    <title>Briefcase-person</title>
    
    <defs></defs>
    <g stroke="none" stroke-width="1" fill="none" fill-rule="evenodd">
        <g transform="translate(0.000000, 1.000000)" fill="#434343">
            <path d="M13.562,2.083 L1.437,2.083 C0.643,2.083 -0.00100000005,2.734 -0.00100000005,3.536 L-0.00100000005,12.5 C-0.00100000005,13.304 0.643,13.954 1.437,13.954 L13.562,13.954 C14.356,13.954 15,13.304 15,12.5 L15,3.536 C15,2.734 14.356,2.083 13.562,2.083 L13.562,2.083 Z M7.504,4.906 C8.359,4.906 9.055,5.612 9.055,6.483 C9.055,7.355 8.36,9.021 7.504,9.021 C6.648,9.021 5.953,7.355 5.953,6.483 C5.953,5.612 6.648,4.906 7.504,4.906 L7.504,4.906 Z M11.004,12.031 L4,12.031 C4,12.031 3.881,8.955 5.677,8.955 C6.052,9.549 6.569,10.119 7.52,10.119 C8.469,10.119 8.921,9.545 9.295,8.941 C11.316,8.941 11.004,12.031 11.004,12.031 L11.004,12.031 Z" class="si-glyph-fill"></path>
            <path d="M5.78216667,1.682 C5.78216667,1.254 6.07716667,0.907 6.44133333,0.907 L8.53466667,0.907 C8.89883333,0.907 9.19383333,1.255 9.19383333,1.682 L9.19383333,2.567 L9.9755,2.567 L9.9755,1.376 C9.9755,0.634 9.46133333,0.029 8.8305,0.029 L6.14966667,0.029 C5.518,0.029 5.003,0.633 5.003,1.376 L5.003,2.567 L5.78216667,2.567 L5.78216667,1.682 L5.78216667,1.682 Z" class="si-glyph-fill"></path>
        </g>
    </g>
</svg>