
<svg viewBox="0 0 17 16" version="1.1" xmlns="http://www.w3.org/2000/svg" xmlns:xlink="http://www.w3.org/1999/xlink" class="si-glyph si-glyph-candle"><title>877</title><defs></defs><g stroke="none" stroke-width="1" fill="none" fill-rule="evenodd"><g transform="translate(5.000000, 0.000000)" fill="#434343"><rect x="3" y="5" width="0.926" height="1.823" class="si-glyph-fill"></rect><path d="M5.287,5.973 C5.397,3.369 4.301,2.605 3.677,2.605 C3.027,3.782 1.645,4.103 1.348,5.999 C0.034,3.567 3.004,3.059 3.153,0.027 C3.405,0.026 7.556,3.586 5.287,5.973 L5.287,5.973 Z" class="si-glyph-fill"></path><path d="M6.318,7.409 C6.318,7.409 5.8,8.053 4.074,8.053 C2.347,8.053 0.704,7.409 0.704,7.409 C0.328,7.409 0.023,7.71 0.023,8.081 L0.023,15.307 C0.023,15.678 0.328,15.98 0.704,15.98 L6.318,15.98 C6.695,15.98 7,15.678 7,15.307 L7,8.081 C7,7.71 6.695,7.409 6.318,7.409 L6.318,7.409 Z M6.06,15.016 L4.951,15.016 L4.951,8.954 L6.06,8.954 L6.06,15.016 L6.06,15.016 Z" class="si-glyph-fill"></path></g></g></svg>