<!--?xml version="1.0" encoding="UTF-8" standalone="no"?-->
<svg viewBox="0 0 17 16" version="1.1" xmlns="http://www.w3.org/2000/svg" xmlns:xlink="http://www.w3.org/1999/xlink" class="si-glyph si-glyph-square-four-angle-point">
    <!-- Generator: Sketch 3.0.3 (7891) - http://www.bohemiancoding.com/sketch -->
    <title>1203</title>
    
    <defs></defs>
    <g stroke="none" stroke-width="1" fill="none" fill-rule="evenodd">
        <path d="M15.959,3 L15.959,0.041 L13,0.041 L13,1.062 L2.959,1.062 L2.959,0.041 L0,0.041 L0,3 L1.011,3 L1.011,13.041 L0,13.041 L0,16 L2.959,16 L2.959,14.979 L13,14.979 L13,16 L15.959,16 L15.959,13.041 L14.928,13.041 L14.928,3 L15.959,3 L15.959,3 Z M13.938,0.938 L15.022,0.938 L15.022,2.063 L13.938,2.063 L13.938,0.938 L13.938,0.938 Z M0.938,0.938 L2.022,0.938 L2.022,2.063 L0.938,2.063 L0.938,0.938 L0.938,0.938 Z M2.021,15.062 L0.937,15.062 L0.937,13.937 L1.01,13.937 L1.01,13.948 L1.927,13.948 L1.927,13.937 L2.021,13.937 L2.021,15.062 L2.021,15.062 Z M15.021,13.938 L15.021,15.063 L13.937,15.063 L13.937,13.938 L14.01,13.938 L14.01,13.949 L14.927,13.949 L14.927,13.938 L15.021,13.938 L15.021,13.938 Z M14.011,13.041 L13,13.041 L13,14.062 L2.959,14.062 L2.959,13.041 L1.928,13.041 L1.928,3 L2.959,3 L2.959,1.979 L13,1.979 L13,3 L14.011,3 L14.011,13.041 L14.011,13.041 Z" fill="#434343" class="si-glyph-fill"></path>
    </g>
</svg>