<!--?xml version="1.0" encoding="UTF-8" standalone="no"?-->
<svg viewBox="0 0 17 16" version="1.1" xmlns="http://www.w3.org/2000/svg" xmlns:xlink="http://www.w3.org/1999/xlink" class="si-glyph si-glyph-movie-play">
    <!-- Generator: Sketch 3.0.3 (7891) - http://www.bohemiancoding.com/sketch -->
    <title>664</title>
    
    <defs></defs>
    <g stroke="none" stroke-width="1" fill="none" fill-rule="evenodd">
        <g transform="translate(1.000000, 1.000000)" fill="#434343">
            <path d="M0,14 L15,14 L14.917,0 L0,0 L0,14 Z M10,1 L11,1 L11,2 L10,2 L10,1 L10,1 Z M13,3 L13,11 L2,11 L2,3 L13,3 L13,3 Z M7,1 L8,1 L8,2 L7,2 L7,1 L7,1 Z M4,1 L5,1 L5,2 L4,2 L4,1 L4,1 Z M1,1 L2,1 L2,2 L1,2 L1,1 L1,1 Z M1.979,13 L0.979,13 L0.979,12 L1.979,12 L1.979,13 L1.979,13 Z M5,13 L4,13 L4,12 L5,12 L5,13 L5,13 Z M8,13 L7,13 L7,12 L8,12 L8,13 L8,13 Z M11,13 L10,13 L10,12 L11,12 L11,13 L11,13 Z M14,13 L13,13 L13,12 L14,12 L14,13 L14,13 Z M14,2 L13,2 L13,1 L14,1 L14,2 L14,2 Z" class="si-glyph-fill"></path>
            <path d="M6.003,8.865 L6,5 L9.949,7.015 L6.003,8.865 Z" class="si-glyph-fill"></path>
        </g>
    </g>
</svg>