<!--?xml version="1.0" encoding="UTF-8" standalone="no"?-->
<svg viewBox="0 0 16 17" version="1.1" xmlns="http://www.w3.org/2000/svg" xmlns:xlink="http://www.w3.org/1999/xlink" class="si-glyph si-glyph-repeat">
    <!-- Generator: Sketch 3.0.3 (7891) - http://www.bohemiancoding.com/sketch -->
    <title>110</title>
    
    <defs></defs>
    <g stroke="none" stroke-width="1" fill="none" fill-rule="evenodd">
        <path d="M13.986,4.016 L6.939,4.016 L4.935,2.193 C4.684,1.942 4.276,1.942 4.024,2.193 L4.024,4.016 L1.998,4.016 C0.896,4.016 0,4.913 0,6.016 L0,9.985 C0,11.088 0.896,11.985 1.998,11.985 L9.236,11.985 L11.062,13.813 C11.314,14.064 11.723,14.064 11.974,13.813 L11.974,11.985 L13.986,11.985 C15.088,11.985 15.984,11.088 15.984,9.985 L15.984,6.016 C15.984,4.913 15.088,4.016 13.986,4.016 L13.986,4.016 Z M11.062,8.203 L9.15,10.031 L1.984,10.031 L1.984,5.969 L4.024,5.969 L4.024,7.715 C4.277,7.974 4.685,7.974 4.935,7.715 L6.814,5.969 L14.015,5.969 L14.017,10.031 L11.974,10.031 L11.974,8.203 C11.723,7.944 11.314,7.944 11.062,8.203 L11.062,8.203 Z" fill="#434343" class="si-glyph-fill"></path>
    </g>
</svg>