<!--?xml version="1.0" encoding="UTF-8" standalone="no"?-->
<svg viewBox="0 0 17 16" version="1.1" xmlns="http://www.w3.org/2000/svg" xmlns:xlink="http://www.w3.org/1999/xlink" class="si-glyph si-glyph-site-map-revert">
    <!-- Generator: Sketch 3.0.3 (7891) - http://www.bohemiancoding.com/sketch -->
    <title>755</title>
    
    <defs></defs>
    <g stroke="none" stroke-width="1" fill="none" fill-rule="evenodd">
        <g transform="translate(1.000000, 1.000000)" fill="#434343">
            <path d="M9.334,11.02 L6.667,11.02 C6.299,11.02 6,11.314 6,11.675 L6,14.301 C6,14.663 6.299,14.957 6.667,14.957 L9.334,14.957 C9.701,14.957 10,14.663 10,14.301 L10,11.675 C10,11.313 9.701,11.02 9.334,11.02 L9.334,11.02 Z" class="si-glyph-fill"></path>
            <path d="M12.667,3.916 L15.334,3.916 C15.701,3.916 16,3.626 16,3.27 L16,0.686 C16,0.331 15.701,0.04 15.334,0.04 L12.667,0.04 C12.299,0.04 12,0.33 12,0.686 L12,3.27 C12,3.626 12.299,3.916 12.667,3.916 L12.667,3.916 Z" class="si-glyph-fill"></path>
            <path d="M6.667,3.916 L9.334,3.916 C9.701,3.916 10,3.626 10,3.27 L10,0.686 C10,0.331 9.701,0.04 9.334,0.04 L6.667,0.04 C6.299,0.04 6,0.33 6,0.686 L6,3.27 C6,3.626 6.299,3.916 6.667,3.916 L6.667,3.916 Z" class="si-glyph-fill"></path>
            <path d="M0.667,3.916 L3.334,3.916 C3.701,3.916 4,3.626 4,3.27 L4,0.686 C4,0.331 3.701,0.04 3.334,0.04 L0.667,0.04 C0.299,0.04 0,0.33 0,0.686 L0,3.27 C0,3.626 0.299,3.916 0.667,3.916 L0.667,3.916 Z" class="si-glyph-fill"></path>
            <path d="M13.047,6.04 L8.969,6.04 L8.969,5.061 L7.031,5.061 L7.031,6.04 L2.958,6.04 L2.958,5.061 L1.021,5.061 L1.021,7.967 L7.031,7.967 L7.031,9.982 L8.969,9.982 L8.969,7.967 L14.958,7.967 L14.958,5.061 L13.047,5.061 L13.047,6.04 Z" class="si-glyph-fill"></path>
        </g>
    </g>
</svg>