
<svg viewBox="0 0 17 16" version="1.1" xmlns="http://www.w3.org/2000/svg" xmlns:xlink="http://www.w3.org/1999/xlink" class="si-glyph si-glyph-sewing-roll"><title>911</title><defs></defs><g stroke="none" stroke-width="1" fill="none" fill-rule="evenodd"><g transform="translate(1.000000, 0.000000)" fill="#434343"><g><path d="M11.982,0.986 C11.982,1.504 11.572,1.924 11.065,1.924 L1.065,1.924 C0.558,1.924 0.148,1.504 0.148,0.986 L0.148,0.986 C0.148,0.467 0.558,0.048 1.065,0.048 L11.065,0.048 C11.572,0.048 11.982,0.468 11.982,0.986 L11.982,0.986 L11.982,0.986 Z" class="si-glyph-fill"></path><path d="M11.982,14.986 C11.982,15.504 11.572,15.924 11.065,15.924 L1.065,15.924 C0.558,15.924 0.148,15.504 0.148,14.986 L0.148,14.986 C0.148,14.467 0.558,14.048 1.065,14.048 L11.065,14.048 C11.572,14.048 11.982,14.468 11.982,14.986 L11.982,14.986 L11.982,14.986 Z" class="si-glyph-fill"></path><rect x="2" y="3" width="7.917" height="0.959" class="si-glyph-fill"></rect><rect x="2" y="5" width="7.917" height="0.959" class="si-glyph-fill"></rect><rect x="2" y="7" width="7.917" height="0.959" class="si-glyph-fill"></rect><rect x="2" y="9" width="7.917" height="0.959" class="si-glyph-fill"></rect><rect x="2" y="11" width="7.917" height="0.959" class="si-glyph-fill"></rect><rect x="2" y="13" width="7.917" height="0.959" class="si-glyph-fill"></rect></g><path d="M15.836,15 C14.531,14.792 14.157,12.846 14.056,12.02 C13.968,11.304 13.875,7.458 11.673,6.475 C11.061,6.202 10.38,6.073 9.795,6.016 C9.282,5.964 9.11,5.977 9.166,5.918 L8.418,5.236 C8.712,4.929 9.256,4.956 9.836,5.017 C10.57,5.087 11.354,5.229 12.046,5.546 C14.667,6.749 14.995,11.278 15.07,11.9 C15.21,13.044 15.609,13.953 16,14.014 L15.836,15 L15.836,15 Z" class="si-glyph-fill"></path></g></g></svg>