<!--?xml version="1.0" encoding="UTF-8" standalone="no"?-->
<svg viewBox="0 0 17 16" version="1.1" xmlns="http://www.w3.org/2000/svg" xmlns:xlink="http://www.w3.org/1999/xlink" class="si-glyph si-glyph-shovel">
    <!-- Generator: Sketch 3.0.3 (7891) - http://www.bohemiancoding.com/sketch -->
    <title>868</title>
    
    <defs></defs>
    <g stroke="none" stroke-width="1" fill="none" fill-rule="evenodd">
        <path d="M15.732,2.509 L13.495,0.274 C13.064,-0.159 12.346,-0.141 11.892,0.312 C11.848,0.356 11.817,0.411 11.8,0.471 C11.241,2.706 11.253,3.487 11.346,3.794 L5.081,10.059 L3.162,8.142 L0.872,10.432 C0.123,11.18 -0.503,13.91 0.795,15.207 C2.092,16.504 4.819,15.875 5.566,15.128 L7.86,12.836 L5.981,10.958 L12.265,4.675 C12.607,4.752 13.423,4.732 15.535,4.205 C15.595,4.188 15.65,4.158 15.694,4.114 C16.147,3.661 16.163,2.941 15.732,2.509 L15.732,2.509 Z M15.15,3.459 C14.047,3.77 12.765,4.046 12.481,3.992 L12.046,3.557 C11.984,3.291 12.262,1.996 12.576,0.886 C12.757,0.752 12.989,0.748 13.129,0.888 L15.147,2.906 C15.285,3.045 15.281,3.277 15.15,3.459 L15.15,3.459 Z" fill="#434343" class="si-glyph-fill"></path>
    </g>
</svg>