<!--?xml version="1.0" encoding="UTF-8" standalone="no"?-->
<svg viewBox="0 0 16 16" version="1.1" xmlns="http://www.w3.org/2000/svg" xmlns:xlink="http://www.w3.org/1999/xlink" class="si-glyph si-glyph-easal">
    <!-- Generator: Sketch 3.0.3 (7891) - http://www.bohemiancoding.com/sketch -->
    <title>643</title>
    
    <defs></defs>
    <g stroke="none" stroke-width="1" fill="none" fill-rule="evenodd">
        <path d="M12.957,11.062 L12.957,3.107 L9.98,3.107 L9.98,2.107 L8.985,2.107 L8.985,1 C8.985,0.447 8.54,0 7.989,0 C7.439,0 7.084,0.447 7.084,1 L7.084,2.107 L6.089,2.107 L6.089,3.107 L3.023,3.107 L3.023,11.062 L1.085,11.062 L1.085,11.937 L4.149,11.999 L3.164,14.708 C2.979,15.228 3.162,15.755 3.68,15.94 C4.199,16.126 4.637,15.79 4.823,15.27 L5.938,11.999 L7.085,11.999 L7.085,14.999 C7.085,15.552 7.44,15.999 7.99,15.999 C8.541,15.999 8.986,15.552 8.986,14.999 L8.986,11.999 L10.075,11.999 L11.139,15.333 C11.324,15.853 11.785,16.126 12.301,15.94 C12.82,15.754 13.003,15.249 12.819,14.727 L11.863,11.998 L14.896,11.936 L14.896,11.062 L12.957,11.062 Z M3.95,3.979 L6.023,3.979 L6.023,4.917 L9.917,4.917 L9.917,3.979 L12.049,3.979 L12.049,11.063 L3.95,11.063 L3.95,3.979 L3.95,3.979 Z" fill="#434343" class="si-glyph-fill"></path>
    </g>
</svg>