
<svg viewBox="0 0 17 16" version="1.1" xmlns="http://www.w3.org/2000/svg" xmlns:xlink="http://www.w3.org/1999/xlink" class="si-glyph si-glyph-folder-share"><title>772</title><defs></defs><g stroke="none" stroke-width="1" fill="none" fill-rule="evenodd"><g transform="translate(1.000000, 0.000000)" fill="#434343"><g><path d="M8.413,2.034 L7.575,0 L1.02,0 L1.02,2.034 L0.041,2.034 L0.062,10.958 L1.04,10.958 L1.021,11.958 L8.042,11.958 L8.021,13 L8.958,13 L8.979,11.958 L14.643,11.958 L16.04,2.034 L8.413,2.034 L8.413,2.034 Z M13.779,11.103 L1.837,11.103 L3.265,2.976 L15.021,2.976 L13.779,11.103 L13.779,11.103 Z" class="si-glyph-fill"></path><rect x="0" y="15" width="1.979" height="0.956" class="si-glyph-fill"></rect><rect x="4" y="15" width="1.979" height="0.956" class="si-glyph-fill"></rect><rect x="11" y="15" width="1.979" height="0.956" class="si-glyph-fill"></rect><rect x="14" y="15" width="1.979" height="0.956" class="si-glyph-fill"></rect></g><path d="M9,15 L9,14 L8,14 L8,15 L7,15 L7,16 L10,16 L10,15 L9,15 Z" class="si-glyph-fill"></path></g></g></svg>