<!--?xml version="1.0" encoding="UTF-8" standalone="no"?-->
<svg viewBox="0 0 17 16" version="1.1" xmlns="http://www.w3.org/2000/svg" xmlns:xlink="http://www.w3.org/1999/xlink" class="si-glyph si-glyph-hospital">
    <!-- Generator: Sketch 3.0.3 (7891) - http://www.bohemiancoding.com/sketch -->
    <title>679</title>
    
    <defs></defs>
    <g stroke="none" stroke-width="1" fill="none" fill-rule="evenodd">
        <path d="M16,1 L3,1 L3,4.084 L2,4.084 L2,13.958 C2,14.505 2.447,14.947 3,14.947 L8,14.947 L8,12 L11.042,12 L11.042,15 L15.917,14.947 C16.469,14.947 17,14.5050002 17,13.9580002 L17,4 L16,4 L16,1 Z M7.031,12.97 L4,12.97 L4,11.97 L7.031,11.97 L7.031,12.97 L7.031,12.97 Z M7.031,9.97 L4,9.97 L4,8.97 L7.031,8.97 L7.031,9.97 L7.031,9.97 Z M7.031,6.97 L4,6.97 L4,5.97 L7.031,5.97 L7.031,6.97 L7.031,6.97 Z M6.959,4 L3.959,4 L3.959,3 L6.959,3 L6.959,4 L6.959,4 Z M11,5.00689078 L10,5.00689078 L10,5.984 L9,5.984 L9,5.00689078 L8,5.00689078 L8,3.98072989 L9,3.98072989 L9,2.984 L10,2.984 L10,3.98072989 L11,3.98072989 L11,5.00689078 L11,5.00689078 Z M11.953,2.979 L14.953,2.979 L14.953,4.026 L11.953,4.026 L11.953,2.979 L11.953,2.979 Z M15,12.97 L12,12.97 L12,11.97 L15,11.97 L15,12.97 L15,12.97 Z M15,9.97 L12,9.97 L12,8.97 L15,8.97 L15,9.97 L15,9.97 Z M15,6.97 L12,6.97 L12,5.97 L15,5.97 L15,6.97 L15,6.97 Z" fill="#434343" class="si-glyph-fill"></path>
    </g>
</svg>