
<svg viewBox="0 0 16 16" version="1.1" xmlns="http://www.w3.org/2000/svg" xmlns:xlink="http://www.w3.org/1999/xlink" class="si-glyph si-glyph-targer"><title>Targer</title><defs></defs><g stroke="none" stroke-width="1" fill="none" fill-rule="evenodd"><g fill="#434343"><ellipse cx="5.469" cy="9.441" rx="1.469" ry="1.441" class="si-glyph-fill"></ellipse><path d="M14.994,3.671 L13.614,5.065 L11.465,4.253 L5.719,9.944 C5.602,10.053 5.332,9.975 5.165,9.805 C5.002,9.637 4.949,9.389 5.064,9.277 L10.763,3.556 L9.937,1.453 L11.396,0.025 L11.993,3.033 C11.997,3.037 12.005,3.039 12.009,3.045 C12.035,3.075 14.994,3.671 14.994,3.671 L14.994,3.671 Z" class="si-glyph-fill"></path><path d="M5.514,14.994 C2.499,14.994 0.047,12.529 0.047,9.5 C0.047,6.47 2.499,4.006 5.514,4.006 C8.528,4.006 10.98,6.47 10.98,9.5 C10.979,12.529 8.527,14.994 5.514,14.994 L5.514,14.994 Z M5.514,4.9 C2.993,4.9 0.943,6.963 0.943,9.5 C0.943,12.037 2.994,14.1 5.514,14.1 C8.034,14.1 10.084,12.037 10.084,9.5 C10.084,6.963 8.034,4.9 5.514,4.9 L5.514,4.9 Z" class="si-glyph-fill"></path><path d="M5.507,12.99 C3.594,12.99 2.035,11.433 2.035,9.519 C2.035,7.605 3.594,6.048 5.507,6.048 C7.42,6.048 8.977,7.605 8.977,9.519 C8.977,11.433 7.42,12.99 5.507,12.99 L5.507,12.99 Z M5.507,6.924 C4.075,6.924 2.911,8.088 2.911,9.52 C2.911,10.952 4.075,12.116 5.507,12.116 C6.938,12.116 8.102,10.952 8.102,9.52 C8.102,8.088 6.938,6.924 5.507,6.924 L5.507,6.924 Z" class="si-glyph-fill"></path><path d="M1.914,15.784 C1.709,15.987 1.389,15.993 1.192,15.797 L1.192,15.797 C0.998,15.602 1.002,15.28 1.206,15.077 L2.673,13.61 C2.877,13.407 3.584,14.114 3.381,14.317 L1.914,15.784 L1.914,15.784 Z" class="si-glyph-fill"></path><path d="M9.818,15.076 C10.021,15.281 10.027,15.601 9.83,15.798 L9.83,15.798 C9.635,15.992 9.314,15.988 9.111,15.784 L7.644,14.317 C7.441,14.113 8.148,13.406 8.351,13.609 L9.818,15.076 L9.818,15.076 Z" class="si-glyph-fill"></path></g></g></svg>