<!--?xml version="1.0" encoding="UTF-8" standalone="no"?-->
<svg viewBox="0 0 17 16" version="1.1" xmlns="http://www.w3.org/2000/svg" xmlns:xlink="http://www.w3.org/1999/xlink" class="si-glyph si-glyph-lock">
    <!-- Generator: Sketch 3.0.3 (7891) - http://www.bohemiancoding.com/sketch -->
    <title>781</title>
    
    <defs></defs>
    <g stroke="none" stroke-width="1" fill="none" fill-rule="evenodd">
        <path d="M13,4.017 C13,1.802 11.252,0 9.104,0 L7.927,0 C5.779,0 4.031,1.802 4.031,4.017 L4.031,7.33 C3.397,8.222 3.021,9.309 3.021,10.485 C3.021,13.502 5.462,15.945 8.479,15.945 C11.494,15.945 13.937,13.502 13.937,10.485 C13.938,9.362 13.583,8.331 13,7.464 L13,4.017 Z M9.104,2 C10.15,2 11,2.904 11,4.017 L11,5.663 C10.244,5.266 9.393,5.027 8.479,5.027 C7.56,5.027 6.697,5.256 5.937,5.657 L5.937,4.016 C5.938,2.904 6.881,2 7.927,2 L9.104,2 Z M8.479,11.846 C8.842,11.846 9.172,11.699 9.416,11.467 L11.994,10.714 C11.875,12.561 10.355,14.026 8.479,14.026 C6.525,14.026 4.939,12.44 4.939,10.486 C4.939,8.533 6.525,6.95 8.479,6.95 C10.367,6.95 11.898,8.434 12,10.299 L9.427,9.518 C9.182,9.279 8.849,9.13 8.48,9.13 C7.73,9.13 7.122,9.739 7.122,10.486 C7.121,11.235 7.729,11.846 8.479,11.846 L8.479,11.846 Z" fill="#434343" class="si-glyph-fill"></path>
    </g>
</svg>