
<svg viewBox="0 0 16 16" version="1.1" xmlns="http://www.w3.org/2000/svg" xmlns:xlink="http://www.w3.org/1999/xlink" class="si-glyph si-glyph-forklift"><title>80</title><defs></defs><g stroke="none" stroke-width="1" fill="none" fill-rule="evenodd"><g transform="translate(0.000000, 2.000000)" fill="#434343"><circle cx="7.953" cy="8.953" r="1.953" class="si-glyph-fill"></circle><circle cx="13.477" cy="9.477" r="1.477" class="si-glyph-fill"></circle><path d="M13.477,6.925 C14.707,6.925 15.729,7.807 15.952,8.969 L15.954,8.969 L16.001,1.945 C16.003,0.928 15.091,0.028 14.058,0.026 L9.656,0.015 C8.625,0.013 8.142,0.734 7.779,1.852 L6.674,4.476 C6.674,4.62 5.955,4.726 5.761,4.866 C5.31,5.184 5.018,5.646 5.016,6.313 C5.015,6.838 5.018,7.971 5.018,7.971 L5.186,7.967 C5.599,6.809 6.699,5.974 8.002,5.974 C9.658,5.974 11.002,7.316 11.002,8.969 L11.001,8.981 L11,8.981 C11.219,7.812 12.244,6.925 13.477,6.925 L13.477,6.925 Z M11.9878997,1.83367484 C11.9937994,0.902630427 12.1334252,0.978993691 12.9672471,0.980951723 L14.0085411,0.982909756 C14.7263359,0.984867788 14.9839554,1.07297925 14.9819888,1.84150697 L14.9731393,3.97869934 L11.982,3.97086721 L11.9878997,1.83367484 L11.9878997,1.83367484 Z M10.9502227,4 L7.961,3.99423262 L8.61449445,1.91413009 C8.61449445,1.91413009 8.88686545,1 9.71573547,1 C10.3319993,1 10.961,1.00384492 10.961,1.00384492 L10.9502227,4 L10.9502227,4 Z" class="si-glyph-fill"></path><path d="M3.033,2.375 L3.015,9.031 L0.300095702,9.03200019 C-0.0659042978,9.03100019 -0.0689042978,9.99600019 0.298095702,9.99700019 L3.349,9.997 C3.716,9.998 3.951,9.7 3.953,9.331 L3.972,2.377 C3.973,2.01 3.033,2.007 3.033,2.375 Z" class="si-glyph-fill"></path></g></g></svg>