<!--?xml version="1.0" encoding="UTF-8" standalone="no"?-->
<svg viewBox="0 0 17 17" version="1.1" xmlns="http://www.w3.org/2000/svg" xmlns:xlink="http://www.w3.org/1999/xlink" class="si-glyph si-glyph-helm-wheel">
    <!-- Generator: Sketch 3.0.3 (7891) - http://www.bohemiancoding.com/sketch -->
    <title>151</title>
    
    <defs></defs>
    <g stroke="none" stroke-width="1" fill="none" fill-rule="evenodd">
        <path d="M14.922,6.992 C14.685,6.992 14.301,7.068 13.928,7.191 C13.783,6.126 13.364,5.152 12.735,4.338 C13.089,4.161 13.415,3.942 13.583,3.775 C13.995,3.363 14.017,2.716 13.634,2.334 C13.249,1.949 12.603,1.972 12.192,2.383 C12.023,2.553 11.802,2.882 11.626,3.237 C10.812,2.612 9.836,2.196 8.768,2.058 C8.894,1.682 8.971,1.295 8.971,1.056 C8.971,0.474 8.53,0.000999999989 7.987,0.000999999989 C7.444,0.000999999989 7.003,0.474 7.003,1.056 C7.003,1.296 7.081,1.686 7.207,2.063 C6.142,2.206 5.167,2.621 4.353,3.247 C4.176,2.893 3.957,2.564 3.787,2.395 C3.376,1.983 2.73,1.961 2.346,2.345 C1.962,2.729 1.985,3.375 2.396,3.786 C2.565,3.955 2.895,4.176 3.25,4.352 C2.624,5.166 2.208,6.141 2.065,7.208 C1.692,7.083 1.305,7.007 1.068,7.007 C0.486,7.007 0.013,7.448 0.013,7.991 C0.013,8.534 0.486,8.975 1.068,8.975 C1.305,8.975 1.69,8.899 2.063,8.775 C2.204,9.842 2.622,10.816 3.249,11.631 C2.898,11.807 2.573,12.025 2.407,12.192 C1.995,12.604 1.973,13.25 2.356,13.633 C2.741,14.018 3.387,13.995 3.798,13.584 C3.965,13.417 4.181,13.096 4.358,12.747 C5.172,13.373 6.149,13.785 7.217,13.926 C7.094,14.296 7.02,14.677 7.02,14.912 C7.02,15.494 7.461,15.967 8.004,15.967 C8.547,15.967 8.988,15.494 8.988,14.912 C8.988,14.677 8.914,14.297 8.792,13.927 C9.859,13.785 10.834,13.364 11.648,12.737 C11.824,13.085 12.039,13.407 12.205,13.573 C12.617,13.985 13.264,14.007 13.648,13.624 C14.032,13.239 14.009,12.593 13.597,12.182 C13.431,12.016 13.109,11.8 12.761,11.624 C13.394,10.802 13.81,9.844 13.942,8.765 C14.312,8.886 14.691,8.96 14.925,8.96 C15.507,8.96 15.98,8.519 15.98,7.976 C15.98,7.433 15.504,6.992 14.922,6.992 L14.922,6.992 Z M11.693,4.879 C12.321,5.625 12.727,6.561 12.813,7.588 L9.279,7.909 C9.259,7.641 9.154,7.399 8.986,7.205 L11.693,4.879 L11.693,4.879 Z M8.839,7.058 C8.646,6.895 8.402,6.789 8.133,6.758 L8.413,3.176 C9.443,3.265 10.381,3.678 11.127,4.312 L8.839,7.058 L8.839,7.058 Z M7.627,3.174 L7.927,6.748 C7.645,6.759 7.387,6.855 7.178,7.012 L4.877,4.299 C5.631,3.661 6.583,3.253 7.627,3.174 L7.627,3.174 Z M4.305,4.87 L7.012,7.158 C6.822,7.359 6.701,7.619 6.68,7.906 L3.175,7.607 C3.258,6.568 3.668,5.622 4.305,4.87 L4.305,4.87 Z M6.685,8.132 C6.717,8.414 6.842,8.668 7.039,8.861 L4.327,11.143 C3.685,10.396 3.266,9.454 3.178,8.415 L6.685,8.132 L6.685,8.132 Z M7.205,8.999 C7.41,9.145 7.66,9.232 7.933,9.242 L7.633,12.816 C6.598,12.739 5.653,12.338 4.899,11.711 L7.205,8.999 L7.205,8.999 Z M8.42,12.812 L8.132,9.232 C8.394,9.202 8.631,9.1 8.821,8.945 L11.14,11.665 C10.395,12.305 9.454,12.723 8.42,12.812 L8.42,12.812 Z M11.704,11.098 L8.969,8.806 C9.139,8.617 9.248,8.379 9.276,8.118 L12.815,8.388 C12.73,9.414 12.33,10.351 11.704,11.098 L11.704,11.098 Z" fill="#434343" class="si-glyph-fill"></path>
    </g>
</svg>