<!--?xml version="1.0" encoding="UTF-8" standalone="no"?-->
<svg viewBox="0 0 17 16" version="1.1" xmlns="http://www.w3.org/2000/svg" xmlns:xlink="http://www.w3.org/1999/xlink" class="si-glyph si-glyph-podium">
    <!-- Generator: Sketch 3.0.3 (7891) - http://www.bohemiancoding.com/sketch -->
    <title>774</title>
    
    <defs></defs>
    <g stroke="none" stroke-width="1" fill="none" fill-rule="evenodd">
        <path d="M13.432,14.035 L12.953,14.035 L12.953,5.72 C12.953,5.338 12.646,5.028 12.265,5.028 L11,5.254 L11,3.671 L11.068,3.698 C11.15,3.731 11.234,3.748 11.318,3.748 C11.575,3.748 11.818,3.598 11.922,3.347 C12.061,3.016 11.902,2.638 11.568,2.5 L8.984,1.354 C8.909,0.614 8.285,0.033 7.515,0.033 C6.696,0.033 6.031,0.691 6.031,1.502 C6.031,2.313 6.696,2.971 7.515,2.971 C7.907,2.971 8.26,2.818 8.526,2.573 L10.006,3.264 L10.006,5.439 L4.734,6.415 C4.351,6.415 4.045,6.727 4.045,7.108 L4.045,14.038 L3.506,14.038 C3.227,14.038 3,14.467 3,14.998 C3,15.53 3.227,15.961 3.506,15.961 L13.432,15.961 C13.711,15.961 13.938,15.53 13.938,14.998 C13.938,14.464 13.711,14.035 13.432,14.035 L13.432,14.035 Z" fill="#434343" class="si-glyph-fill"></path>
    </g>
</svg>