<!--?xml version="1.0" encoding="UTF-8" standalone="no"?-->
<svg viewBox="0 0 17 17" version="1.1" xmlns="http://www.w3.org/2000/svg" xmlns:xlink="http://www.w3.org/1999/xlink" class="si-glyph si-glyph-cran">
    <!-- Generator: Sketch 3.0.3 (7891) - http://www.bohemiancoding.com/sketch -->
    <title>723</title>
    
    <defs></defs>
    <g stroke="none" stroke-width="1" fill="none" fill-rule="evenodd">
        <g transform="translate(1.000000, 1.000000)" fill="#434343">
            <path d="M14.939,6.002 L14.023,6.002 L14.023,8.012 L13.083,8.012 L13.083,9.98 L15.938,9.98 L15.938,8.012 L14.939,8.012 L14.939,6.002 Z" class="si-glyph-fill"></path>
            <path d="M15.631,4.024 L7.979,0.846 L7.979,0.698 C7.979,0.332 7.852,0.037 7.5,0.037 C7.147,0.037 7,0.332 7,0.698 L7,4.029 L6.979,4.029 L6.076,4.029 L4.98,4.029 L4.98,3.786 C4.98,3.352 4.713,3.002 4.384,3.002 L2.622,3.002 C2.294,3.002 2.026,3.353 2.026,3.786 L2.026,4.029 L0.511,4.029 C0.25,4.029 0.041,4.246 0.041,4.515 C0.041,4.783 0.25,4.999 0.511,4.999 L2.026,4.999 L2.026,5.174 C2.026,5.608 2.294,5.959 2.622,5.959 L4.384,5.959 C4.713,5.959 4.98,5.607 4.98,5.174 L4.98,5 L6.979,5 L6.979,4.943 L7,4.943 L7,13.021 L6.339,13.021 C5.973,13.021 5.674,13.36 5.674,13.778 L5.674,14.354 L5.672,14.354 C5.306,14.354 5.008,15.014 5.008,15.391 L5.008,15.973 L9.987,15.973 L9.987,15.391 C9.987,15.014 9.689,14.354 9.323,14.354 L9.321,14.354 L9.321,13.778 C9.321,13.36 9.022,13.021 8.656,13.021 L7.979,13.021 L7.979,4.943 L15.389,4.943 C15.399,4.943 15.407,4.937 15.416,4.937 C15.484,4.933 15.549,4.917 15.612,4.894 C15.615,4.893 15.617,4.892 15.617,4.892 C15.781,4.826 15.991,4.719 15.991,4.533 C15.991,4.042 15.971,4.166 15.631,4.024 L15.631,4.024 Z M7.979,4.029 L7.979,1.875 L13.105,4.029 L7.979,4.029 L7.979,4.029 Z" class="si-glyph-fill"></path>
        </g>
    </g>
</svg>