<!--?xml version="1.0" encoding="UTF-8" standalone="no"?-->
<svg viewBox="0 0 17 16" version="1.1" xmlns="http://www.w3.org/2000/svg" xmlns:xlink="http://www.w3.org/1999/xlink" class="si-glyph si-glyph-wood-stove">
    <!-- Generator: Sketch 3.0.3 (7891) - http://www.bohemiancoding.com/sketch -->
    <title>722</title>
    
    <defs></defs>
    <g stroke="none" stroke-width="1" fill="none" fill-rule="evenodd">
        <g transform="translate(3.000000, 0.000000)" fill="#434343">
            <path d="M8.965,3.027 L8.965,0.072 L8.016,0.072 L8.016,3.027 L0,3.027 L0,14.984 L2.016,14.984 L2,15.978 L2.969,15.978 L2.969,14.984 L9.016,14.984 L9.016,15.978 L9.985,15.978 L9.985,14.984 L12,14.984 L12,3.027 L8.965,3.027 Z M10.015,10.047 L10.015,12 C10.015,13.002 9.941,13.055 8.999,13.055 L3.044,13.055 C2.104,13.055 1.999,13.002 1.999,12 L1.999,6 C1.999,4.999 2.103,4.967 3.044,4.967 L9,4.967 C9.941,4.967 10.016,4.999 10.016,6 L10.016,8.953 L11.032,8.953 L11.032,10.047 L10.015,10.047 Z" class="si-glyph-fill"></path>
            <path d="M8.974,7.031 C8.974,6.492 8.573,6.056 8.078,6.056 L3.981,6.056 C3.487,6.056 3.084,6.492 3.084,7.031 L3.084,11.01 C3.084,11.547 3.487,11.985 3.981,11.985 L8.078,11.985 C8.573,11.985 8.974,11.547 8.974,11.01 L8.974,7.031 L8.974,7.031 Z M5,10 L4,10 L4,8 L5,8 L5,10 L5,10 Z M7,10 L5.964,10 L5.964,8 L7,8 L7,10 L7,10 Z" class="si-glyph-fill"></path>
        </g>
    </g>
</svg>