<!--?xml version="1.0" encoding="UTF-8" standalone="no"?-->
<svg viewBox="0 0 17 16" version="1.1" xmlns="http://www.w3.org/2000/svg" xmlns:xlink="http://www.w3.org/1999/xlink" class="si-glyph si-glyph-site-map">
    <!-- Generator: Sketch 3.0.3 (7891) - http://www.bohemiancoding.com/sketch -->
    <title>822</title>
    
    <defs></defs>
    <g stroke="none" stroke-width="1" fill="none" fill-rule="evenodd">
        <g transform="translate(1.000000, 0.000000)" fill="#434343">
            <path d="M6.666,3.979 L9.333,3.979 C9.701,3.979 10,3.685 10,3.324 L10,0.698 C10,0.336 9.701,0.042 9.333,0.042 L6.666,0.042 C6.298,0.042 6,0.336 6,0.698 L6,3.324 C6,3.685 6.298,3.979 6.666,3.979 L6.666,3.979 Z" class="si-glyph-fill"></path>
            <path d="M3.333,11.082 L0.666,11.082 C0.298,11.082 0,11.372 0,11.728 L0,14.312 C0,14.667 0.298,14.958 0.666,14.958 L3.333,14.958 C3.701,14.958 4,14.668 4,14.312 L4,11.728 C4,11.372 3.701,11.082 3.333,11.082 L3.333,11.082 Z" class="si-glyph-fill"></path>
            <path d="M9.333,11.082 L6.666,11.082 C6.298,11.082 6,11.372 6,11.728 L6,14.312 C6,14.667 6.298,14.958 6.666,14.958 L9.333,14.958 C9.701,14.958 10,14.668 10,14.312 L10,11.728 C10,11.372 9.701,11.082 9.333,11.082 L9.333,11.082 Z" class="si-glyph-fill"></path>
            <path d="M15.333,11.082 L12.666,11.082 C12.298,11.082 12,11.372 12,11.728 L12,14.312 C12,14.667 12.298,14.958 12.666,14.958 L15.333,14.958 C15.701,14.958 16,14.668 16,14.312 L16,11.728 C16,11.372 15.701,11.082 15.333,11.082 L15.333,11.082 Z" class="si-glyph-fill"></path>
            <path d="M2.953,8.958 L7.031,8.958 L7.031,9.938 L8.969,9.938 L8.969,8.958 L13.042,8.958 L13.042,9.938 L14.979,9.938 L14.979,7.031 L8.969,7.031 L8.969,5.016 L7.031,5.016 L7.031,7.031 L1.042,7.031 L1.042,9.938 L2.953,9.938 L2.953,8.958 Z" class="si-glyph-fill"></path>
        </g>
    </g>
</svg>