<!--?xml version="1.0" encoding="UTF-8" standalone="no"?-->
<svg viewBox="0 0 17 16" version="1.1" xmlns="http://www.w3.org/2000/svg" xmlns:xlink="http://www.w3.org/1999/xlink" class="si-glyph si-glyph-tablet">
    <!-- Generator: Sketch 3.0.3 (7891) - http://www.bohemiancoding.com/sketch -->
    <title>882</title>
    
    <defs></defs>
    <g stroke="none" stroke-width="1" fill="none" fill-rule="evenodd">
        <path d="M12.995,0.043 L4.005,0.043 C2.899,0.043 2,0.94 2,2.047 L2,13.997 C2,15.102 2.899,16 4.005,16 L12.995,16 C14.101,16 15,15.103 15,13.997 L15,2.047 C15,0.94 14.102,0.043 12.995,0.043 L12.995,0.043 Z M10.083,15.042 L6.93,15.042 L6.93,13.928 L10.083,13.928 L10.083,15.042 L10.083,15.042 Z M13,13 L4,13 L4,1.97 L13,1.97 L13,13 L13,13 Z" fill="#434343" class="si-glyph-fill"></path>
    </g>
</svg>