
<svg viewBox="0 0 17 16" version="1.1" xmlns="http://www.w3.org/2000/svg" xmlns:xlink="http://www.w3.org/1999/xlink" class="si-glyph si-glyph-strolley-plus"><title>1095</title><defs></defs><g stroke="none" stroke-width="1" fill="none" fill-rule="evenodd"><g transform="translate(1.000000, 0.000000)" fill="#434343"><g><ellipse cx="4.438" cy="14.459" rx="1.438" ry="1.459" class="si-glyph-fill"></ellipse><ellipse cx="12.457" cy="14.419" rx="1.457" ry="1.419" class="si-glyph-fill"></ellipse><path d="M15,10.016 L3.953,10.016 L3.953,3.778 L1.781,0.41 C1.457,-0.034 0.836,-0.132 0.392,0.191 C-0.051,0.515 -0.149,1.138 0.174,1.584 L2.023,4.485 L2.023,10.016 L1.968,10.016 C1.415,10.016 0.968,10.456 0.968,11 C0.968,11.543 1.415,11.984 1.968,11.984 L15,11.984 C15.553,11.984 16,11.543 16,11 C16,10.456 15.553,10.016 15,10.016 L15,10.016 Z" class="si-glyph-fill"></path></g><path d="M11.959,4.025 L8.063,4.025 C7.505,4.025 7.053,4.459 7.053,4.994 C7.053,5.529 7.505,5.963 8.063,5.963 L11.959,5.963 C12.518,5.963 12.969,5.529 12.969,4.994 C12.969,4.459 12.518,4.025 11.959,4.025 L11.959,4.025 Z" class="si-glyph-fill"></path><path d="M10.979,6.942 L10.979,3.046 C10.979,2.488 10.545,2.036 10.01,2.036 C9.475,2.036 9.041,2.488 9.041,3.046 L9.041,6.942 C9.041,7.501 9.475,7.952 10.01,7.952 C10.545,7.952 10.979,7.501 10.979,6.942 L10.979,6.942 Z" class="si-glyph-fill"></path></g></g></svg>