<!--?xml version="1.0" encoding="UTF-8" standalone="no"?-->
<svg viewBox="0 0 16 16" version="1.1" xmlns="http://www.w3.org/2000/svg" xmlns:xlink="http://www.w3.org/1999/xlink" class="si-glyph si-glyph-infinity">
    <!-- Generator: Sketch 3.0.3 (7891) - http://www.bohemiancoding.com/sketch -->
    <title>455</title>
    
    <defs></defs>
    <g stroke="none" stroke-width="1" fill="none" fill-rule="evenodd">
        <path d="M12.2728521,4.042 C10.9419589,4.042 9.43726554,4.745 8.50403454,5.814 C8.32456703,6.02 7.72949058,6.003 7.53963286,5.791 C6.60356816,4.735 5.10359767,4.042 3.7774273,4.042 C1.70504994,4.042 0.019,5.822 0.019,8.01 C0.019,10.199 1.70410538,11.98 3.7774273,11.98 C5.12248899,11.98 6.64229535,11.269 7.57647093,10.188 C7.75027103,9.987 8.31228768,9.983 8.48514322,10.184 C9.41648509,11.267 10.9325132,11.98 12.2728521,11.98 C14.339562,11.98 16.019,10.2 16.019,8.01 C16.019,5.822 14.339562,4.042 12.2728521,4.042 L12.2728521,4.042 Z M3.49384523,11.087 C2.04964165,11.087 0.875,9.707 0.875,8.01 C0.875,6.315 2.04964165,4.934 3.49384523,4.934 C5.02847147,4.934 6.96999972,6.382 6.96999972,8.01 C6.97085276,9.639 5.02847147,11.087 3.49384523,11.087 L3.49384523,11.087 Z M12.4932181,11.055 C10.9626543,11.055 9.019,9.617 9.019,7.999 C9.019,6.383 10.9626543,4.945 12.4932181,4.945 C13.9386087,4.945 15.114,6.316 15.114,7.999 C15.114,9.684 13.9386087,11.055 12.4932181,11.055 L12.4932181,11.055 Z" fill="#434343" class="si-glyph-fill"></path>
    </g>
</svg>