<!--?xml version="1.0" encoding="UTF-8" standalone="no"?-->
<svg viewBox="0 0 17 16" version="1.1" xmlns="http://www.w3.org/2000/svg" xmlns:xlink="http://www.w3.org/1999/xlink" class="si-glyph si-glyph-line-two-angle-point">
    <!-- Generator: Sketch 3.0.3 (7891) - http://www.bohemiancoding.com/sketch -->
    <title>974</title>
    
    <defs></defs>
    <g stroke="none" stroke-width="1" fill="none" fill-rule="evenodd">
        <path d="M7.938,0.938 L9.022,0.938 L9.022,2.063 L7.938,2.063 L7.938,0.938 L7.938,0.938 Z M9.021,15.062 L7.937,15.062 L7.937,13.937 L8.01,13.937 L8.01,13.948 L8.927,13.948 L8.927,13.937 L9.021,13.937 L9.021,15.062 L9.021,15.062 Z M9.959,13.041 L8.928,13.041 L8.928,3 L9.959,3 L9.959,0.041 L7,0.041 L7,3 L8.011,3 L8.011,13.041 L7,13.041 L7,16 L9.959,16 L9.959,13.041 L9.959,13.041 Z" fill="#434343" class="si-glyph-fill"></path>
    </g>
</svg>