<!--?xml version="1.0" encoding="UTF-8" standalone="no"?-->
<svg viewBox="0 0 16 17" version="1.1" xmlns="http://www.w3.org/2000/svg" xmlns:xlink="http://www.w3.org/1999/xlink" class="si-glyph si-glyph-saw">
    <!-- Generator: Sketch 3.0.3 (7891) - http://www.bohemiancoding.com/sketch -->
    <title>1004</title>
    
    <defs></defs>
    <g stroke="none" stroke-width="1" fill="none" fill-rule="evenodd">
        <g transform="translate(0.000000, 1.000000)" fill="#434343">
            <path d="M7.729,3.266 L5.939,0.292 C5.611,-0.036 5.082,-0.044 4.76,0.276 L4.787,1.463 L1.43,4.801 L0.237,4.775 C-0.085,5.092 -0.077,5.618 0.252,5.946 L3.244,7.724 C3.574,8.052 4.101,8.059 4.423,7.74 L7.745,4.437 C8.066,4.117 8.059,3.593 7.729,3.266 L7.729,3.266 Z M6.459,4.48 L4.43,6.498 C4.208,6.718 3.799,6.669 3.518,6.391 L2.698,6.399 C2.417,6.12 2.368,5.713 2.589,5.495 L5.448,2.653 C5.672,2.431 6.077,2.479 6.358,2.759 L6.35,3.576 C6.632,3.854 6.681,4.261 6.459,4.48 L6.459,4.48 Z" class="si-glyph-fill"></path>
            <path d="M8.217,6.056 L5.999,8.359 L6.568,8.953 L7.173,8.327 L8.469,9.672 L7.865,10.298 L8.398,10.852 L9.002,10.225 L10.296,11.568 L9.692,12.194 L10.227,12.75 L10.831,12.124 L12.124,13.467 L11.52,14.094 L12.053,14.647 L12.658,14.021 L12.955,14.365 L12.35,14.991 L12.358,15 L15.982,14.077 L8.217,6.056 Z" class="si-glyph-fill"></path>
        </g>
    </g>
</svg>