
<svg viewBox="0 0 17 16" version="1.1" xmlns="http://www.w3.org/2000/svg" xmlns:xlink="http://www.w3.org/1999/xlink" class="si-glyph si-glyph-elevator-down"><title>730</title><defs></defs><g stroke="none" stroke-width="1" fill="none" fill-rule="evenodd"><g transform="translate(1.000000, 1.000000)" fill="#434343"><path d="M1.33399999,13.9425045 C0.597999991,13.9425045 0,13.195 0,12.459 C0,11.723 0.598,11.125 1.334,11.125 L3.518,11.125 L11.518,5.126 L14.666,5.126 C15.402,5.126 16,5.723 16,6.459 C16,7.195 15.4020004,7.98022468 14.6660004,7.98022468 L12.4820004,7.98022468 L4.46984863,13.9425045 L1.33399999,13.9425045 Z" class="si-glyph-fill"></path><g transform="translate(3.000000, 0.000000)"><ellipse cx="2.488" cy="1.5" rx="1.488" ry="1.5" class="si-glyph-fill"></ellipse><path d="M2.482,4.042 C1.693,4.042 1.052,4.682 1.052,5.47 L1.052,7.326 L0.148,8.264 C-0.004,8.391 -0.024,8.616 0.101,8.767 C0.173,8.852 0.273,8.896 0.376,8.896 C0.457,8.896 0.536,8.869 0.604,8.813 L3.909,5.876 L3.909,5.47 C3.909,5.311 3.878,5.158 3.828,5.014 C3.638,4.45 3.11,4.042 2.482,4.042 L2.482,4.042 Z" class="si-glyph-fill"></path></g></g></g></svg>