<!--?xml version="1.0" encoding="UTF-8" standalone="no"?-->
<svg viewBox="0 0 17 17" version="1.1" xmlns="http://www.w3.org/2000/svg" xmlns:xlink="http://www.w3.org/1999/xlink" class="si-glyph si-glyph-pallette">
    <!-- Generator: Sketch 3.0.3 (7891) - http://www.bohemiancoding.com/sketch -->
    <title>806</title>
    
    <defs></defs>
    <g stroke="none" stroke-width="1" fill="none" fill-rule="evenodd">
        <path d="M11.229,8.398 C9.79,6.466 16.872,1.029 11.434,1.029 C6.823,1.029 3.083,4.517 3.083,8.821 C3.083,16.894 11.577,18.415 13.816,15.695 C17.033,11.79 12.58,10.21 11.229,8.398 L11.229,8.398 Z M9.521,5.031 C8.66,5.031 7.961,4.331 7.961,3.469 C7.961,2.605 8.659,1.907 9.521,1.907 C10.381,1.907 11.079,2.605 11.079,3.469 C11.078,4.331 10.381,5.031 9.521,5.031 L9.521,5.031 Z M6.52,8.034 C5.668,8.034 4.977,7.346 4.977,6.496 C4.977,5.645 5.668,4.956 6.52,4.956 C7.374,4.956 8.064,5.645 8.064,6.496 C8.063,7.346 7.373,8.034 6.52,8.034 L6.52,8.034 Z M5.543,12.09 C4.672,12.09 3.968,11.386 3.968,10.52 C3.968,9.653 4.672,8.95 5.543,8.95 C6.412,8.95 7.117,9.653 7.117,10.52 C7.117,11.386 6.412,12.09 5.543,12.09 L5.543,12.09 Z M8.528,15.177 C7.64,15.177 6.922,14.45 6.922,13.559 C6.922,12.665 7.641,11.942 8.528,11.942 C9.417,11.942 10.134,12.666 10.134,13.559 C10.135,14.45 9.417,15.177 8.528,15.177 L8.528,15.177 Z M12.005,13.217 C11.362,13.217 10.844,12.697 10.844,12.054 C10.844,11.412 11.363,10.89 12.005,10.89 C12.645,10.89 13.167,11.412 13.167,12.054 C13.167,12.697 12.645,13.217 12.005,13.217 L12.005,13.217 Z" fill="#434343" class="si-glyph-fill"></path>
    </g>
</svg>