<!--?xml version="1.0" encoding="UTF-8" standalone="no"?-->
<svg viewBox="0 0 17 16" version="1.1" xmlns="http://www.w3.org/2000/svg" xmlns:xlink="http://www.w3.org/1999/xlink" class="si-glyph si-glyph-balloon">
    <!-- Generator: Sketch 3.0.3 (7891) - http://www.bohemiancoding.com/sketch -->
    <title>113</title>
    
    <defs></defs>
    <g stroke="none" stroke-width="1" fill="none" fill-rule="evenodd">
        <path d="M8.998,13.272 C7.364,13.272 7.16,12.857 7.135,12.775 C7.033,12.423 7.649,11.672 8.131,11.263 L8.104,11.222 C10.254,10.555 11.911,6.689 11.911,4.449 C11.911,1.992 9.921,0 7.469,0 C5.017,0 3.027,1.992 3.027,4.449 C3.027,6.799 4.845,10.935 7.148,11.298 C6.755,11.76 6.361,12.404 6.537,13 C6.734,13.674 7.517,13.988 9,13.988 C9.123,13.988 9.18,14.135 9.068,14.293 C8.736,14.75 7.851,15.284 6.448,15.284 L6.448,16 C8.619,16 9.822,14.831 9.822,14.023 C9.822,13.791 9.73,13.587 9.567,13.451 C9.421,13.333 9.23,13.272 8.998,13.272 L8.998,13.272 Z M4.643,4.648 C4.643,5.336 4.047,5.044 4.047,4.044 C4.047,2.356 5.379,0.986 7.025,0.986 C8.003,0.986 8.294,1.599 7.62,1.599 C5.977,1.6 4.643,2.959 4.643,4.648 L4.643,4.648 Z" fill="#434343" class="si-glyph-fill"></path>
    </g>
</svg>