<!--?xml version="1.0" encoding="UTF-8" standalone="no"?-->
<svg viewBox="0 0 16 16" version="1.1" xmlns="http://www.w3.org/2000/svg" xmlns:xlink="http://www.w3.org/1999/xlink" class="si-glyph si-glyph-basket-arrow-right">
    <!-- Generator: Sketch 3.0.3 (7891) - http://www.bohemiancoding.com/sketch -->
    <title>608</title>
    
    <defs></defs>
    <g stroke="none" stroke-width="1" fill="none" fill-rule="evenodd">
        <g transform="translate(0.000000, 1.000000)" fill="#434343">
            <path d="M10.979,12.012 C10.879,12.154 10.656,12.25 10.482,12.25 L10.46,12.25 C10.158,12.25 9.915,11.977 9.915,11.639 L9.915,7.483 C9.915,7.145 10.158,6.872 10.46,6.872 L10.482,6.872 C10.783,6.872 11.028,7.145 11.028,7.483 L11.028,11.639 C11.028,11.773 10.982,11.89 10.917,11.991 L12.994,11.991 L12.994,9.94 L13.251,10.14 L13.479,5.976 L14.245,5.976 C14.645,5.976 14.97,4.756 14.97,4.756 C14.97,4.386 14.646,4.084 14.245,4.084 L12.317,4.084 L11.282,0.447 C11.131,0.13 10.756,0.00199999998 10.444,0.161 L10.373,0.197 C10.062,0.357 9.933,0.743 10.084,1.06 L10.825,4.083 L4.171,4.083 L4.939,1.064 C5.093,0.75 4.966,0.362 4.658,0.199 L4.588,0.163 C4.278,0.000999999981 3.9,0.125 3.746,0.44 L2.673,4.083 L0.783,4.083 C0.383,4.083 0.058,4.385 0.058,4.755 C0.058,4.755 0.382,5.975 0.783,5.975 L1.419,5.975 L1.868,12.652 C1.868,12.652 1.92,13.961 3.981,13.961 L10.981,13.961 L10.981,12.012 L10.979,12.012 Z M11.938,4.969 L13.032,4.969 L13.032,6.063 L11.938,6.063 L11.938,4.969 L11.938,4.969 Z M3.031,6.031 L1.969,6.031 L1.969,4.969 L3.031,4.969 L3.031,6.031 L3.031,6.031 Z M5.062,11.742 C5.062,12.092 4.811,12.375 4.503,12.375 L4.48,12.375 C4.169,12.375 3.919,12.092 3.919,11.742 L3.919,7.413 C3.919,7.063 4.169,6.781 4.48,6.781 L4.503,6.781 C4.811,6.781 5.062,7.063 5.062,7.413 L5.062,11.742 L5.062,11.742 Z M8.06,11.547 C8.06,11.881 7.823,12.152 7.531,12.152 L7.51,12.152 C7.217,12.152 6.981,11.881 6.981,11.547 L6.981,7.448 C6.981,7.114 7.217,6.844 7.51,6.844 L7.531,6.844 C7.823,6.844 8.06,7.115 8.06,7.448 L8.06,11.547 L8.06,11.547 Z" class="si-glyph-fill"></path>
            <path d="M14.07,14.959 L15.938,13.511 L14.07,12.044 L14.07,13.018 L12.029,13.018 L12.029,13.969 L14.07,13.969 L14.07,14.959 Z" class="si-glyph-fill"></path>
        </g>
    </g>
</svg>