<!--?xml version="1.0" encoding="UTF-8" standalone="no"?-->
<svg viewBox="0 0 16 16" version="1.1" xmlns="http://www.w3.org/2000/svg" xmlns:xlink="http://www.w3.org/1999/xlink" class="si-glyph si-glyph-network">
    <!-- Generator: Sketch 3.0.3 (7891) - http://www.bohemiancoding.com/sketch -->
    <title>91</title>
    
    <defs></defs>
    <g stroke="none" stroke-width="1" fill="none" fill-rule="evenodd">
        <g fill="#434343">
            <path d="M11.783,10.094 C10.084,11.092 8.017,11.778 6.105,12.044 C5.993,12.432 5.751,12.762 5.421,12.978 C5.933,14.071 6.67,15.065 7.56,15.965 C10.072,16.085 12.601,15.027 14.262,12.891 C14.291,12.853 14.317,12.811 14.345,12.772 C14.101,11.858 13.697,10.988 13.2,10.128 C13.11,10.154 13.024,10.174 12.939,10.19 C12.796,10.23 12.648,10.258 12.493,10.258 C12.238,10.258 12,10.196 11.783,10.094 L11.783,10.094 Z" class="si-glyph-fill"></path>
            <path d="M9.051,5.492 C8.409,5.025 7.735,4.607 7.047,4.236 C6.795,4.84 6.199,5.263 5.502,5.263 C5.377,5.263 5.257,5.247 5.14,5.221 C4.733,6.756 4.516,8.383 4.629,9.915 C5.393,9.973 6.011,10.532 6.149,11.269 C7.844,10.99 9.619,10.39 11.116,9.531 C10.93,9.26 10.819,8.934 10.819,8.582 C10.819,8.169 10.975,7.796 11.222,7.504 C10.568,6.768 9.833,6.061 9.051,5.492 L9.051,5.492 Z" class="si-glyph-fill"></path>
            <path d="M4,9.989 C3.863,8.355 4.104,6.597 4.541,4.957 C4.111,4.653 3.828,4.155 3.828,3.588 C3.828,3.391 3.867,3.202 3.932,3.026 C3.276,2.904 2.618,2.828 1.958,2.779 C1.869,2.883 1.773,2.983 1.689,3.093 C-0.04,5.317 -0.405,8.165 0.459,10.64 C1.23,10.969 2.025,11.187 2.856,11.306 C2.959,10.681 3.408,10.178 4,9.989 L4,9.989 Z" class="si-glyph-fill"></path>
            <path d="M13.928,9.689 C13.899,9.726 13.864,9.756 13.832,9.789 C14.265,10.525 14.631,11.271 14.885,12.057 C16.002,10.167 16.256,7.958 15.717,5.935 C15.627,6.068 15.541,6.202 15.446,6.331 C15.01,6.932 14.571,7.548 14.092,8.103 C14.137,8.255 14.168,8.414 14.168,8.582 L14.168,8.586 C14.252,8.96 14.181,9.365 13.928,9.689 L13.928,9.689 Z" class="si-glyph-fill"></path>
            <path d="M7.164,3.447 C7.963,3.861 8.748,4.345 9.494,4.887 C10.334,5.498 11.121,6.26 11.818,7.051 C12.025,6.959 12.252,6.906 12.494,6.906 C12.994,6.906 13.439,7.131 13.746,7.478 C14.15,6.986 14.529,6.456 14.907,5.938 C15.101,5.67 15.279,5.395 15.451,5.118 C14.945,3.807 14.097,2.612 12.909,1.687 C11.364,0.485 9.515,-0.057 7.701,0.012 C7.586,0.158 7.472,0.302 7.362,0.451 C6.961,1.003 6.623,1.531 6.322,2.088 C6.361,2.117 6.386,2.154 6.422,2.188 C6.839,2.464 7.119,2.922 7.164,3.447 L7.164,3.447 Z" class="si-glyph-fill"></path>
            <path d="M2.879,11.965 C2.168,11.867 1.477,11.719 0.809,11.478 C1.328,12.553 2.087,13.531 3.094,14.314 C4.16,15.143 5.371,15.657 6.615,15.875 C5.893,15.058 5.303,14.169 4.862,13.215 C4.747,13.239 4.628,13.255 4.505,13.255 C3.713,13.254 3.054,12.703 2.879,11.965 L2.879,11.965 Z" class="si-glyph-fill"></path>
            <path d="M4.514,2.242 C4.825,1.9 5.277,1.753 5.713,1.826 C6.025,1.24 6.377,0.683 6.794,0.104 C5.236,0.342 3.752,1.04 2.547,2.166 C3.137,2.232 3.723,2.306 4.308,2.418 C4.371,2.354 4.441,2.297 4.514,2.242 L4.514,2.242 Z" class="si-glyph-fill"></path>
        </g>
    </g>
</svg>