<!--?xml version="1.0" encoding="UTF-8" standalone="no"?-->
<svg viewBox="0 0 17 16" version="1.1" xmlns="http://www.w3.org/2000/svg" xmlns:xlink="http://www.w3.org/1999/xlink" class="si-glyph si-glyph-bookcase">
    <!-- Generator: Sketch 3.0.3 (7891) - http://www.bohemiancoding.com/sketch -->
    <title>677</title>
    
    <defs></defs>
    <g stroke="none" stroke-width="1" fill="none" fill-rule="evenodd">
        <path d="M14.667,0.037 L3.332,0.037 C2.605,0.037 2.016,0.62992758 2.016,1.35952999 L2.026,15.4350278 C2.026,15.8108836 2.668,16.0158958 3.021,16.0158958 C3.375,16.0158958 3.959,15.8108836 3.959,15.4350278 L3.959,14.028081 C3.968,14.028081 3.976,14.0310958 3.976,14.0310958 L13.986,14.0310958 C13.999,14.0310958 14.009,14.028081 14.022,14.027076 L14.022,15.4350278 C14.022,15.8108836 14.657,16.037 15.001,16.037 C15.348,16.037 15.959,15.8108836 15.959,15.4350278 L15.986,1.35952999 C15.985,0.62992758 15.396,0.037 14.667,0.037 L14.667,0.037 Z M12.979,0.958 L14.02,0.958 L14.02,3 L12.979,3 L12.979,0.958 L12.979,0.958 Z M10.958,0.958 L11.958,0.958 L11.958,2.958 L10.958,2.958 L10.958,0.958 L10.958,0.958 Z M8.973,0.958 L10.021,0.958 L10.021,2.958 L8.973,2.958 L8.973,0.958 L8.973,0.958 Z M15.021,10.021 L2.98,10.021 L2.98,8.98 L15.021,8.98 L15.021,10.021 L15.021,10.021 Z M3.958,8 L3.958,6 L4.958,6 L4.958,8 L3.958,8 L3.958,8 Z M5.972,7.993 L5.972,5.993 L6.972,5.993 L6.972,7.993 L5.972,7.993 L5.972,7.993 Z M7.961,8 L7.961,5.993 L8.961,5.993 L8.961,8 L7.961,8 L7.961,8 Z M15.021,5 L2.98,5 L2.98,3.979 L15.021,3.979 L15.021,5 L15.021,5 Z" fill="#434343" class="si-glyph-fill"></path>
    </g>
</svg>