
<svg viewBox="0 0 16 16" version="1.1" xmlns="http://www.w3.org/2000/svg" xmlns:xlink="http://www.w3.org/1999/xlink" class="si-glyph si-glyph-car-garage"><title>car-garage</title><defs></defs><g stroke="none" stroke-width="1" fill="none" fill-rule="evenodd"><g transform="translate(0.000000, 2.000000)" fill="#434343"><g><path d="M0.0429999999,0.083 L0.0429999999,11.938 L1.982,11.938 L1.982,1.943 L14.018,1.943 L14.018,11.938 L15.958,11.938 L15.958,0.083 L0.0429999999,0.083 Z" class="si-glyph-fill"></path><rect x="3" y="3" width="9.956" height="0.952" class="si-glyph-fill"></rect><rect x="3" y="5" width="9.957" height="0.971" class="si-glyph-fill"></rect></g><path d="M11.97,10.9599853 L11.97,11.475 C11.97,11.746 11.532,11.967 10.995,11.967 C10.459,11.967 10.021,11.746 10.021,11.475 L10.022,11.475 L10.022,10.99 L5.946,10.99 L5.946,11.488 C5.946,11.735 5.512,11.937 4.982,11.937 C4.452,11.937 4.021,11.735 4.021,11.488 L4.021,10.979 L4.15993555,10.979 C2.87261255,10.8618837 3.00375721,9.849 3.00375721,9.849 C3.00375721,9.11956747 3.15632369,7.94765348 4,7.44651592 L4,6 L5,6 L5,7.19207151 L5.05886088,7.184 C5.05886088,7.184 7.09575092,7.001 8.00137267,7.001 C8.90395882,7.001 10.7910924,7.215 10.9023979,7.231 L11,7.24879168 L11,6 L12,6 L12,7.45746684 C12.7561644,7.78814455 12.9991358,8.81127754 13,9.849 C13,9.849 12.9727611,10.7797587 11.97,10.9599853 Z M4.969,9.969 L3.969,9.969 L3.969,8.969 L4.969,8.969 L4.969,9.969 L4.969,9.969 Z M8.959,9.958 L6.959,9.958 L6.959,8.958 L8.959,8.958 L8.959,9.958 L8.959,9.958 Z M11.969,9.969 L10.969,9.969 L10.969,8.969 L11.969,8.969 L11.969,9.969 L11.969,9.969 Z" class="si-glyph-fill"></path></g></g></svg>