<!--?xml version="1.0" encoding="UTF-8" standalone="no"?-->
<svg viewBox="0 0 16 16" version="1.1" xmlns="http://www.w3.org/2000/svg" xmlns:xlink="http://www.w3.org/1999/xlink" class="si-glyph si-glyph-christmass-egg">
    <!-- Generator: Sketch 3.0.3 (7891) - http://www.bohemiancoding.com/sketch -->
    <title>653</title>
    
    <defs></defs>
    <g stroke="none" stroke-width="1" fill="none" fill-rule="evenodd">
        <g transform="translate(2.000000, 0.000000)" fill="#434343">
            <path d="M10.764,3.12 C9.707,1.23 7.989,0 6.045,0 C4.139,0 2.446,1.188 1.384,3.021 C2.852,3.602 4.483,3.929 6.201,3.929 C7.82,3.929 9.361,3.64 10.764,3.12 L10.764,3.12 Z" class="si-glyph-fill"></path>
            <path d="M0.223,10.865 C0.818,14.28 3.198,16 6.045,16 C8.846,16 11.188,14.337 11.832,11.039 C10.143,11.845 8.076,12.428 6.051,12.428 C3.881,12.428 1.995,11.779 0.223,10.865 L0.223,10.865 Z" class="si-glyph-fill"></path>
            <path d="M2.174,7.791 C2.897,7.791 3.592,7.526 4.08,7.064 L4.23,6.923 L4.38,7.064 C4.866,7.527 5.561,7.791 6.284,7.791 C6.989,7.791 7.647,7.55 8.139,7.113 L8.284,6.983 L8.43,7.113 C8.921,7.55 9.58,7.791 10.285,7.791 C10.896,7.791 11.48,7.599 11.947,7.258 C11.82,6.082 11.506,4.989 11.047,4.035 C9.559,4.613 7.922,4.934 6.202,4.934 C4.381,4.934 2.65,4.571 1.093,3.925 C0.643,4.829 0.329,5.864 0.178,6.978 L0.25,7.048 C0.74,7.521 1.441,7.791 2.174,7.791 L2.174,7.791 Z M10.242,4.814 L11.291,5.708 L10.242,6.602 L9.193,5.708 L10.242,4.814 L10.242,4.814 Z M6.057,5.379 L7.106,6.273 L6.057,7.167 L5.007,6.273 L6.057,5.379 L6.057,5.379 Z M1.857,4.812 L2.906,5.705 L1.857,6.599 L0.808,5.705 L1.857,4.812 L1.857,4.812 Z" class="si-glyph-fill"></path>
            <path d="M11.982,8.234 C11.484,8.481 10.898,8.708 10.287,8.708 C9.537,8.708 8.836,8.428 8.285,8.072 C7.736,8.427 7.033,8.708 6.285,8.708 C5.519,8.708 4.783,8.409 4.23,8.035 C3.675,8.409 2.938,8.708 2.173,8.708 C1.409,8.708 0.679,8.411 0.128,8.039 C0.095,8.316 0.076,8.598 0.076,8.885 C0.076,9.252 0.108,9.596 0.158,9.928 C1.932,10.717 3.845,11.294 6.05,11.294 C8.114,11.294 10.213,10.773 11.908,10.074 C11.975,9.7 12.012,9.306 12.012,8.885 C12.014,8.664 12.002,8.449 11.982,8.234 L11.982,8.234 Z M3.945,10.3 C3.443,10.3 3.035,10.004 3.035,9.639 C3.035,9.276 3.443,8.979 3.945,8.979 C4.447,8.979 4.855,9.276 4.855,9.639 C4.855,10.004 4.447,10.3 3.945,10.3 L3.945,10.3 Z M8.211,10.32 C7.709,10.32 7.301,10.025 7.301,9.66 C7.301,9.296 7.709,9 8.211,9 C8.714,9 9.122,9.296 9.122,9.66 C9.122,10.025 8.714,10.32 8.211,10.32 L8.211,10.32 Z" class="si-glyph-fill"></path>
        </g>
    </g>
</svg>