
<svg viewBox="0 0 17 16" version="1.1" xmlns="http://www.w3.org/2000/svg" xmlns:xlink="http://www.w3.org/1999/xlink" class="si-glyph si-glyph-sign-p"><title>711</title><defs></defs><g stroke="none" stroke-width="1" fill="none" fill-rule="evenodd"><g transform="translate(4.000000, 0.000000)" fill="#434343"><path d="M7.854,8 L2.116,8 C0.95,8 1.001,7 1.001,6.903 L1.001,1 C1.001,0 1.084,0 2.116,0 L7.854,0 C9.02,0 8.969,0 8.969,1 L8.969,6.903 C8.969,8.06 9,8 7.854,8 L7.854,8 Z M2,1 L2,7.031 L8,7.031 L8,1 L2,1 L2,1 Z" class="si-glyph-fill"></path><rect x="4" y="8" width="1.917" height="6.281" class="si-glyph-fill"></rect><g transform="translate(4.000000, 2.000000)"><path d="M1.969,1 L1.969,0.031 L0,0.031 L0,4 L1,4 L1,2.984 L1.969,2.984 L1.969,2.016 L1,2.016 L1,1 L1.969,1 Z" class="si-glyph-fill"></path><rect x="2" y="1" width="0.938" height="0.969" class="si-glyph-fill"></rect></g><path d="M10,15.959 L0,15.959 C0,14.888 2.238,14.021 5,14.021 C7.761,14.021 10,14.888 10,15.959 L10,15.959 Z" class="si-glyph-fill"></path></g></g></svg>