<!--?xml version="1.0" encoding="UTF-8" standalone="no"?-->
<svg viewBox="0 0 17 16" version="1.1" xmlns="http://www.w3.org/2000/svg" xmlns:xlink="http://www.w3.org/1999/xlink" class="si-glyph si-glyph-cloud-sun">
    <!-- Generator: Sketch 3.0.3 (7891) - http://www.bohemiancoding.com/sketch -->
    <title>734</title>
    
    <defs></defs>
    <g stroke="none" stroke-width="1" fill="none" fill-rule="evenodd">
        <g transform="translate(1.000000, 4.000000)" fill="#434343">
            <path d="M13.798,6.445 C13.548,6.445 13.311,6.511 13.086,6.612 C12.393,5.577 11.259,4.9 9.975,4.9 C9.768,4.9 9.567,4.922 9.37,4.957 C8.689,3.828 7.503,3.078 6.151,3.078 C4.245,3.078 2.668,4.568 2.38,6.514 C2.362,6.514 2.346,6.508 2.329,6.508 C1.05,6.508 0.015,7.612 0.015,8.973 L15.984,8.973 C15.845,7.549 14.924,6.445 13.798,6.445 L13.798,6.445 Z" class="si-glyph-fill"></path>
            <path d="M9.969,4.174 C10.17,4.139 10.372,4.114 10.581,4.114 C11.596,4.114 12.514,4.561 13.201,5.285 C13.676,4.727 13.971,4.002 13.971,3.197 C13.971,1.45 12.616,0.034 10.946,0.034 C9.531,0.034 8.352,1.054 8.022,2.428 C8.828,2.755 9.514,3.371 9.969,4.174 L9.969,4.174 Z" class="si-glyph-fill"></path>
        </g>
    </g>
</svg>