
<svg viewBox="0 0 17 16" version="1.1" xmlns="http://www.w3.org/2000/svg" xmlns:xlink="http://www.w3.org/1999/xlink" class="si-glyph si-glyph-safe-box"><title>894</title><defs></defs><g stroke="none" stroke-width="1" fill="none" fill-rule="evenodd"><g transform="translate(1.000000, 0.000000)"><path d="M12.001,0.979 L2.018,0.979 C1.411,0.979 0.98,1.333 0.98,2.017 L0.98,13.038 C0.98,13.722 1.48,14.042 2.04,14.042 L11.98,14.042 C12.542,14.042 13.04,13.667 13.04,12.995 L13.04,2.015 C13.04,1.447 12.5,0.979 12.001,0.979 L12.001,0.979 Z M12,13 L2,13 L2,2 L12,2 L12,13 L12,13 Z" class=""></path><path d="M11.901,0.016 L2.16,0.016 C1.002,0.016 0,0.907 0,2.005 L0,13 C0,14.099 0.871,14.989 2.028,14.989 L2.04,14.989 L2.04,16 L4,16 L4,14.989 L10,14.989 L10,16 L12,16 L12,14.988 C13.152,14.983 13.998,14.094 13.998,13 L13.998,2.005 C13.998,0.906 13.06,0.016 11.901,0.016 L11.901,0.016 Z M13.039,12.995 C13.039,13.667 12.542,14.042 11.979,14.042 L2.039,14.042 C1.479,14.042 0.979,13.722 0.979,13.038 L0.979,2.017 C0.979,1.332 1.41,0.979 2.017,0.979 L12,0.979 C12.499,0.979 13.038,1.446 13.038,2.014 C13.038,2.582 13.039,12.323 13.039,12.995 L13.039,12.995 Z" fill="#434343" class="si-glyph-fill"></path><path d="M2,13 L12,13 L12,2 L2,2 L2,13 L2,13 Z M7,6 C8.104,6 9,6.896 9,8 L10,8 L10,9 L8.723,9 C8.376,9.595 7.739,10 7,10 C5.896,10 5,9.104 5,8 C5,6.896 5.896,6 7,6 L7,6 Z" fill="#434343" class="si-glyph-fill"></path></g></g></svg>