<!--?xml version="1.0" encoding="UTF-8" standalone="no"?-->
<svg viewBox="0 0 17 16" version="1.1" xmlns="http://www.w3.org/2000/svg" xmlns:xlink="http://www.w3.org/1999/xlink" class="si-glyph si-glyph-hanger">
    <!-- Generator: Sketch 3.0.3 (7891) - http://www.bohemiancoding.com/sketch -->
    <title>908</title>
    
    <defs></defs>
    <g stroke="none" stroke-width="1" fill="none" fill-rule="evenodd">
        <path d="M16.542,11.375 C16.542,11.375 9.841,6.953 9.579,6.846 L9.579,5.96 C10.406,5.727 10.959,4.955 10.959,4.045 C10.959,2.947 10.074,2.055 8.988,2.055 C7.902,2.055 7.019,2.948 7.019,4.045 C7.019,4.338 7.256,4.574 7.55,4.574 C7.843,4.574 7.976,4.232 7.976,3.939 C7.976,3.427 8.521,2.958 9.02,2.958 C9.52,2.958 10.041,3.533 10.041,4.045 C10.041,4.556 9.487,4.973 8.987,4.973 C8.693,4.973 8.514,5.21 8.514,5.502 L8.514,6.824 C8.316,6.897 1.519,11.375 1.519,11.375 C1.016,11.888 0.331,13.957 2.725,13.957 L15.306,13.957 C17.5,13.957 17.023,11.863 16.542,11.375 L16.542,11.375 Z M15.557,13.021 L2.456,13.021 C1.785,13.021 1.804,12.265 2.109,11.935 L8.458,7.919 C8.801,7.737 9.232,7.713 9.571,7.915 L15.941,11.936 C16.248,12.266 16.172,13.021 15.557,13.021 L15.557,13.021 Z" fill="#434343" class="si-glyph-fill"></path>
    </g>
</svg>