<!--?xml version="1.0" encoding="UTF-8" standalone="no"?-->
<svg viewBox="0 0 17 16" version="1.1" xmlns="http://www.w3.org/2000/svg" xmlns:xlink="http://www.w3.org/1999/xlink" class="si-glyph si-glyph-train">
    <!-- Generator: Sketch 3.0.3 (7891) - http://www.bohemiancoding.com/sketch -->
    <title>671</title>
    
    <defs></defs>
    <g stroke="none" stroke-width="1" fill="none" fill-rule="evenodd">
        <g transform="translate(1.000000, 3.000000)" fill="#434343">
            <path d="M4.979,9.484 C4.969,8.674 4.312,8.02 3.5,8.02 C2.689,8.02 2.033,8.674 2.023,9.484 L2.02,9.504 C2.02,10.323 2.683,10.986 3.499,10.986 C4.317,10.986 4.98,10.323 4.98,9.504 L4.979,9.484 L4.979,9.484 Z" class="si-glyph-fill"></path>
            <path d="M9.998,9.454 C9.978,8.661 9.318,8.021 8.504,8.021 C7.69,8.021 7.031,8.661 7.012,9.454 C7.01,9.465 7.008,9.477 7.008,9.488 C7.008,10.298 7.678,10.955 8.504,10.955 C9.332,10.955 10.002,10.298 10.002,9.488 C10.002,9.478 9.998,9.465 9.998,9.454 L9.998,9.454 Z" class="si-glyph-fill"></path>
            <path d="M13.998,9.454 C13.978,8.661 13.318,8.021 12.504,8.021 C11.69,8.021 11.031,8.661 11.012,9.454 C11.01,9.465 11.008,9.477 11.008,9.488 C11.008,10.298 11.678,10.955 12.504,10.955 C13.332,10.955 14.002,10.298 14.002,9.488 C14.002,9.478 13.998,9.465 13.998,9.454 L13.998,9.454 Z" class="si-glyph-fill"></path>
            <path d="M15.938,9.98 C15.938,9.015 15.016,8.009 15.016,8.009 L14.969,8.009 L14.969,6.957 L14.969,5.015 L13.985,5.015 L13.985,2.015 L12.023,2.039 L12.023,5.039 L10.969,5.015 L10.969,3.036 L10.016,3.036 L10.016,5.015 L6.969,5.015 L6.969,1.953 L7.969,1.953 L7.969,0 L0.0160000001,0 L0.0160000001,1.938 L1.016,1.938 L1.016,7.063 L0.0300000001,7.063 L0.0300000001,9.985 L1.009,9.985 C0.98,9.829 0.961,9.669 0.961,9.505 C0.961,9.493 0.966,9.472 0.966,9.472 C0.983,8.082 2.11,6.959 3.501,6.959 C4.894,6.959 6.022,8.082 6.038,9.472 C6.038,9.482 6.044,9.493 6.044,9.505 C6.044,9.669 6.024,9.829 5.995,9.985 L14.97,9.985 L14.97,9.981 L15.938,9.981 L15.938,9.98 Z M5,5.041 L2.992,5.041 L2.992,1.969 L5,1.969 L5,5.041 L5,5.041 Z" class="si-glyph-fill"></path>
        </g>
    </g>
</svg>