<!--?xml version="1.0" encoding="UTF-8" standalone="no"?-->
<svg viewBox="0 0 17 16" version="1.1" xmlns="http://www.w3.org/2000/svg" xmlns:xlink="http://www.w3.org/1999/xlink" class="si-glyph si-glyph-baby-milk-botl">
    <!-- Generator: Sketch 3.0.3 (7891) - http://www.bohemiancoding.com/sketch -->
    <title>926</title>
    
    <defs></defs>
    <g stroke="none" stroke-width="1" fill="none" fill-rule="evenodd">
        <g transform="translate(5.000000, 0.000000)" fill="#434343">
            <path d="M6.443,5 L1.566,5 C0.619,5 0.048,5.674 0.048,6.453 L0.048,14.586 C0.048,15.362 0.814,15.992 1.759,15.992 L6.249,15.992 C7.195,15.992 7.96,15.362 7.96,14.586 L7.96,6.453 C7.961,5.674 7.39,5 6.443,5 L6.443,5 Z M7.02,14.243 C7.02,14.679 6.495,15.035 5.85,15.035 L2.14,15.035 C1.494,15.035 0.971,14.679 0.971,14.243 L0.971,7.574 C0.971,7.354 1.112,6.36 4.03,7.245 C6.95,8.134 7.02,7.358 7.02,7.574 L7.02,14.243 L7.02,14.243 Z" class="si-glyph-fill"></path>
            <path d="M5.982,2.958 L4.71,1.992 L4.71,0.683 C4.71,0.301 4.378,-0.00800000003 3.969,-0.00800000003 C3.561,-0.00800000003 3.23,0.302 3.23,0.683 L3.23,1.967 L2.049,2.957 L2.018,2.953 L2.018,4 L5.983,4 L5.983,2.954 L5.983,2.958 L5.982,2.958 Z" class="si-glyph-fill"></path>
        </g>
    </g>
</svg>