<!--?xml version="1.0" encoding="UTF-8" standalone="no"?-->
<svg viewBox="0 0 17 16" version="1.1" xmlns="http://www.w3.org/2000/svg" xmlns:xlink="http://www.w3.org/1999/xlink" class="si-glyph si-glyph-clover">
    <!-- Generator: Sketch 3.0.3 (7891) - http://www.bohemiancoding.com/sketch -->
    <title>1106</title>
    
    <defs></defs>
    <g stroke="none" stroke-width="1" fill="none" fill-rule="evenodd">
        <g transform="translate(1.000000, 1.000000)" fill="#434343">
            <path d="M11.538,6.989136 C10.591,6.989136 8.034875,6.9891358 8.034875,6.9891358 L8.034875,3.4619998 C8.034875,1.5659998 9.655,0.00100000002 11.55,0.00100000002 C13.443,1.94906385e-11 14.979,1.539 14.979,3.436 C14.979,5.333 13.431,6.989136 11.538,6.989136 Z" class="si-glyph-fill"></path>
            <path d="M6.94824211,7.01376955 C6.94824211,7.01376955 4.41200021,7.01376946 3.42900021,7.01376946 C1.53400021,7.01376946 -0.00100000005,5.333 -0.00100000005,3.435 C-0.00100000005,1.539 1.534,-0.000999999989 3.429,-0.000999999989 C5.323,1.04591891e-11 6.94824211,1.53800011 6.94824211,3.43500011 L6.94824211,7.01376955 Z" class="si-glyph-fill"></path>
            <path d="M7.01989744,11.5570001 C7.01989744,13.4540001 5.277,14.993 3.409,14.993 C1.541,14.993 0.026,13.455 0.026,11.557 C0.026,9.659 1.516,8.00515126 3.384,8.00515126 C4.34,8.00515126 7.01989744,8.03015137 7.01989744,8.03015137 L7.01989744,11.5570001 Z" class="si-glyph-fill"></path>
            <path d="M11.547,14.993 C9.66,14.993 8.03407726,13.445 8.03407726,11.547 C8.03407726,10.604 8.05407715,8.00158691 8.05407715,8.00158691 L11.5469999,8.00158691 C13.4329999,8.00158691 14.963,9.659 14.963,11.557 C14.963,13.454 13.433,14.993 11.547,14.993 Z" class="si-glyph-fill"></path>
        </g>
    </g>
</svg>