<!--?xml version="1.0" encoding="UTF-8" standalone="no"?-->
<svg viewBox="0 0 17 16" version="1.1" xmlns="http://www.w3.org/2000/svg" xmlns:xlink="http://www.w3.org/1999/xlink" class="si-glyph si-glyph-head-set">
    <!-- Generator: Sketch 3.0.3 (7891) - http://www.bohemiancoding.com/sketch -->
    <title>813</title>
    
    <defs></defs>
    <g stroke="none" stroke-width="1" fill="none" fill-rule="evenodd">
        <path d="M15.665,6.733 L15.655,6.735 L15.655,5.632 C15.655,2.566 13.054,0.071 9.857,0.071 L8.195,0.071 C4.998,0.071 2.398,2.565 2.398,5.632 L2.398,6.74 C2.373,6.74 2.348,6.732 2.322,6.732 C1.615,6.732 1.04,7.322 1.04,8.049 L1.04,10.736 C1.04,11.464 1.615,12.05 2.322,12.05 C2.384,12.05 2.447,12.039 2.507,12.031 C3.086,13.762 5.188,15.097 7.796,15.345 C8.074,15.712 8.194,15.976 9.045,15.976 C10.137,15.976 10.958,15.546 10.958,15.015 C10.958,14.485 10.137,14.054 9.045,14.054 C8.201,14.054 8.084,14.314 7.801,14.676 C5.446,14.441 3.565,13.266 3.115,11.762 C3.562,11.762 3.931,11.154 3.931,10.735 L3.931,10.613 L3.937,10.613 L3.937,5.574 C3.937,3.027 5.455,1.956 8.195,1.956 L9.857,1.956 C12.59,1.956 14,2.992 14,5.585 L14,10.625 L14.014,10.625 L14.014,10.735 C14.014,11.463 14.766,11.956 15.48,11.956 C16.194,11.956 16.958,11.463 16.958,10.735 L16.958,8.048 C16.957,7.323 16.379,6.733 15.665,6.733 L15.665,6.733 Z" fill="#434343" class="si-glyph-fill"></path>
    </g>
</svg>