
<svg viewBox="0 0 16 16" version="1.1" xmlns="http://www.w3.org/2000/svg" xmlns:xlink="http://www.w3.org/1999/xlink" class="si-glyph si-glyph-binocular"><title>78</title><defs></defs><g stroke="none" stroke-width="1" fill="none" fill-rule="evenodd"><g transform="translate(0.000000, 1.000000)" fill="#434343"><rect x="0" y="13" width="6" height="0.916" class="si-glyph-fill"></rect><rect x="10" y="13" width="6" height="0.916" class="si-glyph-fill"></rect><path d="M2.041,2.012 L0.666,11.917 L5.333,11.917 L4.646,8.012 L5.969,8.012 L5.969,2.012 L4.984,2.012 L4.984,0.979 L5.965,0.979 L5.965,0.029 L2.006,0.029 L2.006,0.979 L3,0.979 L3,2.012 L2.041,2.012 Z" class="si-glyph-fill"></path><path d="M11,2.012 L10.031,2.012 L10.031,8.012 L11.375,8.012 L10.666,11.917 L15.333,11.917 L13.958,2.012 L12.984,2.012 L12.984,0.979 L13.965,0.979 L13.965,0.029 L10.006,0.029 L10.006,0.979 L11,0.979 L11,2.012 Z" class="si-glyph-fill"></path><path d="M8.984,1.016 L7.016,1.016 L7.016,2 L5.969,2 L5.969,3.969 L7.035,3.969 L7.035,7.031 L5.969,7.031 L5.969,8.971 L10.031,8.971 L10.031,7.031 L8.994,7.031 L8.994,3.969 L10.031,3.969 L10.031,2 L8.984,2 L8.984,1.016 Z" class="si-glyph-fill"></path></g></g></svg>