<!--?xml version="1.0" encoding="UTF-8" standalone="no"?-->
<svg viewBox="0 0 17 16" version="1.1" xmlns="http://www.w3.org/2000/svg" xmlns:xlink="http://www.w3.org/1999/xlink" class="si-glyph si-glyph-female">
    <!-- Generator: Sketch 3.0.3 (7891) - http://www.bohemiancoding.com/sketch -->
    <title>965</title>
    
    <defs></defs>
    <g stroke="none" stroke-width="1" fill="none" fill-rule="evenodd">
        <path d="M9.982,9.965 C12.225,9.495 13.916,7.485 13.916,5.082 C13.916,2.331 11.701,0.094 8.978,0.094 C6.257,0.094 4.042,2.331 4.042,5.082 C4.042,7.494 5.746,9.512 8.001,9.97 L8.001,12.043 L5.062,12.043 L5.062,13.968 L8.001,13.968 L8.001,15.969 L9.981,15.969 L9.981,13.968 L12.874,13.968 L12.874,12.043 L9.981,12.043 L9.981,9.965 L9.982,9.965 Z M5.934,4.955 C5.934,3.187 7.301,1.75 8.979,1.75 C10.659,1.75 12.024,3.188 12.024,4.955 C12.024,6.722 10.659,8.158 8.979,8.158 C7.301,8.158 5.934,6.722 5.934,4.955 L5.934,4.955 Z" fill="#434343" class="si-glyph-fill"></path>
    </g>
</svg>