<!--?xml version="1.0" encoding="UTF-8" standalone="no"?-->
<svg viewBox="0 0 17 17" version="1.1" xmlns="http://www.w3.org/2000/svg" xmlns:xlink="http://www.w3.org/1999/xlink" class="si-glyph si-glyph-shield">
    <!-- Generator: Sketch 3.0.3 (7891) - http://www.bohemiancoding.com/sketch -->
    <title>1151</title>
    
    <defs></defs>
    <g stroke="none" stroke-width="1" fill="none" fill-rule="evenodd">
        <path d="M3.068,1.976 L3.073,8.018 C3.073,13.006 9.021,15.979 9.021,15.979 C9.021,15.979 14.971,13.172 14.971,8.002 C14.971,2.832 14.972,1.976 14.972,1.976 C14.972,1.976 12.308,0.036 9.021,0.036 C5.732,0.036 3.068,1.976 3.068,1.976 Z M14.047,8.231 C14.047,12.175 9.324,14.913 9.002,15.068 L9.002,15.083 L8.987,15.076 L8.972,15.083 L8.972,15.068 C8.65,14.913 3.927,12.175 3.927,8.231 L3.923,2.567 C3.923,2.567 6.181,0.992 8.972,0.979 L8.972,0.978 C8.972,0.978 8.982,0.979 8.987,0.979 L9.002,0.978 L9.002,0.979 C11.793,0.992 14.051,2.567 14.051,2.567 L14.047,8.231 L14.047,8.231 Z M12.939,8.391 C12.939,11.826 9.268,13.853 9.017,13.988 L9.017,14 C9.017,14 9.007,13.996 9.006,13.994 L8.994,14 L8.994,13.987 C8.743,13.852 5.073,11.825 5.073,8.39 L5.069,3.461 C5.069,3.461 6.825,2.091 8.994,2.079 L8.994,2.079 L9.006,2.079 L9.017,2.079 C11.187,2.091 12.941,3.461 12.941,3.461 L12.939,8.391 L12.939,8.391 Z" fill="#434343" class="si-glyph-fill"></path>
    </g>
</svg>