<!--?xml version="1.0" encoding="UTF-8" standalone="no"?-->
<svg viewBox="0 0 17 17" version="1.1" xmlns="http://www.w3.org/2000/svg" xmlns:xlink="http://www.w3.org/1999/xlink" class="si-glyph si-glyph-cashier-machine">
    <!-- Generator: Sketch 3.0.3 (7891) - http://www.bohemiancoding.com/sketch -->
    <title>708</title>
    
    <defs></defs>
    <g stroke="none" stroke-width="1" fill="none" fill-rule="evenodd">
        <g transform="translate(2.000000, 0.000000)" fill="#434343">
            <path d="M11.641,4.012 L9.985,4.012 L9.985,2.957 L11.337,2.957 C11.683,2.957 11.962,2.611 11.962,2.186 L11.962,0.772 C11.962,0.345 11.683,0.000999999989 11.337,0.000999999989 L7.646,0.000999999989 C7.3,0.000999999989 7.022,0.346 7.022,0.772 L7.022,2.186 C7.022,2.612 7.3,2.957 7.646,2.957 L9.024,2.957 L9.024,4.012 L2.353,4.012 C1.983,4.012 1.683,4.312 1.683,4.68 L0.0133056865,13.3109996 L0.0133056865,15.9999996 L14.0114746,15.9999996 C14.0114746,15.9999996 14.0114751,13.6789996 14.0114751,13.3109996 L12.312,4.68 C12.312,4.312 12.012,4.012 11.641,4.012 Z M4.016,12.016 L2.985,12.016 L2.985,10.969 L4.016,10.969 L4.016,12.016 L4.016,12.016 Z M2.984,10.016 L2.984,8.969 L4.015,8.969 L4.015,10.016 L2.984,10.016 L2.984,10.016 Z M6.016,12.031 L4.985,12.031 L4.985,10.969 L6.016,10.969 L6.016,12.031 L6.016,12.031 Z M6.016,10 L4.969,10 L4.969,8.984 L6.016,8.984 L6.016,10 L6.016,10 Z M8.016,12.029 L6.969,12.029 L6.969,10.968 L8.016,10.968 L8.016,12.029 L8.016,12.029 Z M6.969,10 L6.969,8.969 L8.016,8.969 L8.016,10 L6.969,10 L6.969,10 Z M8.016,8 L2.985,8 L2.985,6 L8.016,6 L8.016,8 L8.016,8 Z M11,8 L8.982,8 L8.982,6.98 L11,6.98 L11,8 L11,8 Z" class="si-glyph-fill"></path>
        </g>
    </g>
</svg>