<!--?xml version="1.0" encoding="UTF-8" standalone="no"?-->
<svg viewBox="0 0 17 16" version="1.1" xmlns="http://www.w3.org/2000/svg" xmlns:xlink="http://www.w3.org/1999/xlink" class="si-glyph si-glyph-cheese">
    <!-- Generator: Sketch 3.0.3 (7891) - http://www.bohemiancoding.com/sketch -->
    <title>788</title>
    
    <defs></defs>
    <g stroke="none" stroke-width="1" fill="none" fill-rule="evenodd">
        <path d="M11.744,2.128 C11.524,2.167 10.306,2.539 8.803,3.213 C9.104,3.677 9.186,4.158 8.961,4.479 C8.615,4.979 7.666,4.895 6.842,4.291 C6.79,4.255 6.746,4.212 6.698,4.173 C3.92,5.454 1.031,6.841 1.031,6.841 L1.031,9.435 C2.238,9.56 3.185,10.558 3.195,11.789 L10.947,12.487 C11.091,11.512 11.677,10.781 12.381,10.781 C13.147,10.781 13.769,11.646 13.838,12.748 L16.268,12.966 L16.51,10.726 C15.783,10.661 15.227,10.329 15.227,9.925 C15.227,9.49 15.874,9.139 16.686,9.115 C16.686,9.115 16.795,8.154 16.934,6.842 C17.238,5.068 13.048,1.899 11.744,2.128 L11.744,2.128 Z M14.534,4.711 C14.997,4.711 15.372,5.065 15.372,5.503 C15.372,5.938 14.997,6.294 14.534,6.294 C14.073,6.294 13.697,5.938 13.697,5.503 C13.697,5.064 14.073,4.711 14.534,4.711 L14.534,4.711 Z M11.531,3.766 C12.097,3.766 12.556,4.078 12.556,4.463 C12.556,4.848 12.097,5.159 11.531,5.159 C10.965,5.159 10.507,4.847 10.507,4.463 C10.507,4.077 10.965,3.766 11.531,3.766 L11.531,3.766 Z M6.517,4.69 C6.975,4.69 7.344,5.038 7.344,5.469 C7.344,5.899 6.975,6.246 6.517,6.246 C6.059,6.246 5.69,5.898 5.69,5.469 C5.689,5.038 6.059,4.69 6.517,4.69 L6.517,4.69 Z M6.506,11.125 C5.619,11.125 4.902,10.623 4.902,10 C4.902,9.379 5.619,8.875 6.506,8.875 C7.391,8.875 8.109,9.379 8.109,10 C8.108,10.623 7.391,11.125 6.506,11.125 L6.506,11.125 Z M16.031,8.031 L13.021,8.031 C12.793,8.513 12.307,9.047 11.515,9.047 C10.721,9.047 10.23,8.514 10.003,8.031 L1.983,8.031 L1.983,6.937 L10.034,6.937 C10.289,6.49 10.712,5.953 11.468,5.953 C12.223,5.953 12.734,6.49 12.989,6.937 L16.031,6.937 L16.031,8.031 L16.031,8.031 Z" fill="#434343" class="si-glyph-fill"></path>
    </g>
</svg>