<!--?xml version="1.0" encoding="UTF-8" standalone="no"?-->
<svg viewBox="0 0 17 16" version="1.1" xmlns="http://www.w3.org/2000/svg" xmlns:xlink="http://www.w3.org/1999/xlink" class="si-glyph si-glyph-money-$">
    <!-- Generator: Sketch 3.0.3 (7891) - http://www.bohemiancoding.com/sketch -->
    <title>893</title>
    
    <defs></defs>
    <g stroke="none" stroke-width="1" fill="none" fill-rule="evenodd">
        <path d="M11.979,10.596 C11.979,8.901 10.621,7.492 8.968,7.215 L8.968,3.828 C9.472,3.984 9.993,4.023 10.203,4.498 C10.393,4.926 10.874,5.109 11.275,4.908 C11.678,4.706 11.848,4.194 11.659,3.765 C11.186,2.699 10.117,2.271 8.983,2.077 L8.983,0 L8,0 L8,2.066 C6.336,2.317 5.005,3.736 5.005,5.449 C5.005,7.159 6.329,8.576 8,8.832 L8,12.242 C7.464,12.094 6.967,12.044 6.748,11.547 C6.56,11.117 6.08,10.934 5.68,11.135 C5.276,11.336 5.104,11.846 5.292,12.276 C5.773,13.366 6.846,13.807 8.016,13.987 L8.016,16 L8.954,16 L8.954,13.979 C10.6,13.707 11.979,12.294 11.979,10.596 L11.979,10.596 Z M6.617,5.449 C6.617,4.675 7.215,4.025 8.03,3.816 L8.03,7.085 C7.215,6.874 6.617,6.225 6.617,5.449 L6.617,5.449 Z M8.961,12.223 L8.961,8.969 C9.776,9.194 10.371,9.834 10.371,10.596 C10.371,11.358 9.776,11.998 8.961,12.223 L8.961,12.223 Z" fill="#434343" class="si-glyph-fill"></path>
    </g>
</svg>