<!--?xml version="1.0" encoding="UTF-8" standalone="no"?-->
<svg viewBox="0 0 16 17" version="1.1" xmlns="http://www.w3.org/2000/svg" xmlns:xlink="http://www.w3.org/1999/xlink" class="si-glyph si-glyph-film">
    <!-- Generator: Sketch 3.0.3 (7891) - http://www.bohemiancoding.com/sketch -->
    <title>780</title>
    
    <defs></defs>
    <g stroke="none" stroke-width="1" fill="none" fill-rule="evenodd">
        <path d="M15,1 L14.012085,1 L14.012085,2 L11.9954016,2 L11.9954016,1 L4.10116386,1 L4.10116386,2 L1.90127892,2 L1.90127892,1 L1,1 L1,17 L1.90127892,17 L1.90127892,16 L3.95410156,16 L3.95410156,17 L11.9954016,17 L11.9954016,16 L14.012085,16 L14.012085,17 L15,17 L15,1 L15,1 Z M4,14 L2,14 L2,12 L4,12 L4,14 L4,14 Z M4,10 L2,10 L2,8 L4,8 L4,10 L4,10 Z M4,6 L2,6 L2,4 L4,4 L4,6 L4,6 Z M11,15 L5,15 L5,10 L11,10 L11,15 L11,15 Z M11,8 L5,8 L5,3 L11,3 L11,8 L11,8 Z M14,14 L12,14 L12,12 L14,12 L14,14 L14,14 Z M14,10 L12,10 L12,8 L14,8 L14,10 L14,10 Z M12,6 L12,4 L14,4 L14,6 L12,6 Z" fill="#434343" class="si-glyph-fill"></path>
    </g>
</svg>