
<svg viewBox="0 0 17 17" version="1.1" xmlns="http://www.w3.org/2000/svg" xmlns:xlink="http://www.w3.org/1999/xlink" class="si-glyph si-glyph-zip"><title>1215</title><defs></defs><g stroke="none" stroke-width="1" fill="none" fill-rule="evenodd"><path d="M12.945,0.021 L4.054,0.021 C3.484,0.021 3.02,0.471 3.02,1.025 L3.02,14.997 C3.02,15.552 3.484,16.001 4.054,16.001 L12.945,16.001 C13.515,16.001 13.979,15.552 13.979,14.997 L13.979,1.025 C13.979,0.471 13.516,0.021 12.945,0.021 L12.945,0.021 Z M10.031,2.047 L9.031,2.047 L9.031,2.953 L10.031,2.953 L10.031,4.047 L9.031,4.047 L9.031,4.953 L10.031,4.953 L10.031,6.047 L9.031,6.047 L9.031,6.969 L10.015,6.969 L10.015,11.016 L6.984,11.016 L6.984,6.969 L7.984,6.969 L7.968,5.047 L6.968,5.047 L6.968,3.953 L7.968,3.953 L7.968,3.047 L6.968,3.047 L6.968,1.953 L7.968,1.953 L7.968,0.953 L10.03,0.953 L10.03,2.047 L10.031,2.047 Z" fill="#434343" class="si-glyph-fill"></path><rect fill="#434343" x="8" y="8" width="0.953" height="0.953" class="si-glyph-fill"></rect></g></svg>