
<svg viewBox="0 0 17 16" version="1.1" xmlns="http://www.w3.org/2000/svg" xmlns:xlink="http://www.w3.org/1999/xlink" class="si-glyph si-glyph-tag-one-plus"><title>1073</title><defs></defs><g stroke="none" stroke-width="1" fill="none" fill-rule="evenodd"><g transform="translate(1.000000, 0.000000)" fill="#434343"><path d="M12.613,1.047 L8.111,1.05 L0.332,8.82 C-0.109,9.264 -0.11,9.983 0.332,10.427 L5.576,15.669 C6.017,16.112 6.737,16.112 7.181,15.669 L14.968,7.962 L14.97,3.428 L12.613,1.047 L12.613,1.047 Z M3.984,9.014 L5.007,7.991 L4.066,7.056 L5.039,6.088 L5.978,7.026 L7.003,6.005 L7.991,6.99 L6.967,8.011 L7.907,8.948 L6.934,9.915 L5.996,8.978 L4.972,9.998 L3.984,9.014 L3.984,9.014 Z M6.121,13.557 L5.332,12.769 L9.575,8.526 L8.848,7.801 L9.634,7.013 L11.148,8.527 L6.121,13.557 L6.121,13.557 Z" class="si-glyph-fill"></path><rect x="14.941527" y="0.359574387" width="0.983990809" height="1.79598323" class="si-glyph-fill"></rect></g></g></svg>