<!--?xml version="1.0" encoding="UTF-8" standalone="no"?-->
<svg viewBox="0 0 17 16" version="1.1" xmlns="http://www.w3.org/2000/svg" xmlns:xlink="http://www.w3.org/1999/xlink" class="si-glyph si-glyph-arrow-reload">
    <!-- Generator: Sketch 3.0.3 (7891) - http://www.bohemiancoding.com/sketch -->
    <title>802</title>
    
    <defs></defs>
    <g stroke="none" stroke-width="1" fill="none" fill-rule="evenodd">
        <g transform="translate(1.000000, 2.000000)" fill="#434343">
            <path d="M15.796,6.908 L14.234,5.21 C14.019,4.998 13.672,4.998 13.458,5.21 L11.894,6.908 C11.679,7.122 11.679,7.467 11.894,7.68 L13.188,7.68 C12.702,9.505 11.27,10.976 9.399,11.47 C7.231,12.042 4.913,11.191 3.632,9.351 L2.541,10.102 C3.807,11.921 5.884,12.966 8.039,12.966 C8.604,12.966 9.176,12.894 9.737,12.745 C12.188,12.099 14.04,10.112 14.55,7.68 L15.795,7.68 C16.01,7.467 16.01,7.122 15.796,6.908 L15.796,6.908 Z" class="si-glyph-fill"></path>
            <path d="M4.475,6.021 C4.69,5.808 4.69,5.462 4.475,5.249 L3.018,5.249 C3.516,3.448 4.936,2.001 6.789,1.511 C8.959,0.938 11.275,1.791 12.555,3.632 L13.647,2.88 C12.049,0.585 9.161,-0.479 6.448,0.235 C4.016,0.878 2.175,2.84 1.648,5.249 L0.196,5.249 C-0.019,5.463 -0.019,5.809 0.196,6.021 L1.834,7.658 C2.048,7.87 2.396,7.87 2.61,7.658 L4.475,6.021 L4.475,6.021 Z" class="si-glyph-fill"></path>
        </g>
    </g>
</svg>