
<svg viewBox="0 0 16 16" version="1.1" xmlns="http://www.w3.org/2000/svg" xmlns:xlink="http://www.w3.org/1999/xlink" class="si-glyph si-glyph-basket-remove"><title>627</title><defs></defs><g stroke="none" stroke-width="1" fill="none" fill-rule="evenodd"><g transform="translate(0.000000, 1.000000)" fill="#434343"><rect x="11" y="12" width="4.953" height="1" class="si-glyph-fill"></rect><path d="M14.244,4.084 L12.316,4.084 L11.281,0.447 C11.13,0.13 10.755,0.00199999998 10.443,0.161 L10.372,0.197 C10.061,0.357 9.932,0.743 10.083,1.06 L10.824,4.083 L4.17,4.083 L4.938,1.064 C5.092,0.75 4.965,0.362 4.657,0.199 L4.587,0.163 C4.276,0.000999999981 3.899,0.125 3.745,0.44 L2.672,4.083 L0.782,4.083 C0.382,4.083 0.057,4.385 0.057,4.755 C0.057,4.755 0.381,5.975 0.782,5.975 L1.418,5.975 L1.867,12.652 C1.867,12.652 1.919,13.961 3.98,13.961 L9.969,13.961 L9.969,11.894 C9.936,11.816 9.916,11.731 9.916,11.639 L9.916,7.483 C9.916,7.145 10.159,6.872 10.461,6.872 L10.482,6.872 C10.783,6.872 11.028,7.145 11.028,7.483 L11.028,10.969 L13.205,10.969 L13.478,5.976 L14.244,5.976 C14.644,5.976 14.969,4.756 14.969,4.756 C14.969,4.386 14.645,4.084 14.244,4.084 L14.244,4.084 Z M3.031,6.031 L1.969,6.031 L1.969,4.969 L3.031,4.969 L3.031,6.031 L3.031,6.031 Z M5.062,11.742 C5.062,12.092 4.811,12.375 4.503,12.375 L4.48,12.375 C4.169,12.375 3.919,12.092 3.919,11.742 L3.919,7.413 C3.919,7.063 4.169,6.781 4.48,6.781 L4.503,6.781 C4.811,6.781 5.062,7.063 5.062,7.413 L5.062,11.742 L5.062,11.742 Z M8.061,11.547 C8.061,11.881 7.817,12.152 7.517,12.152 L7.495,12.152 C7.193,12.152 6.95,11.881 6.95,11.547 L6.95,7.448 C6.95,7.114 7.193,6.844 7.495,6.844 L7.517,6.844 C7.817,6.844 8.061,7.115 8.061,7.448 L8.061,11.547 L8.061,11.547 Z M13.031,6.062 L11.937,6.062 L11.937,4.968 L13.031,4.968 L13.031,6.062 L13.031,6.062 Z" class="si-glyph-fill"></path></g></g></svg>