<!--?xml version="1.0" encoding="UTF-8" standalone="no"?-->
<svg viewBox="0 0 16 16" version="1.1" xmlns="http://www.w3.org/2000/svg" xmlns:xlink="http://www.w3.org/1999/xlink" class="si-glyph si-glyph-caterpillar-machine">
    <!-- Generator: Sketch 3.0.3 (7891) - http://www.bohemiancoding.com/sketch -->
    <title>caterpillar-machine</title>
    
    <defs></defs>
    <g stroke="none" stroke-width="1" fill="none" fill-rule="evenodd">
        <g transform="translate(0.000000, 2.000000)" fill="#434343">
            <g transform="translate(5.000000, 8.000000)">
                <path d="M8.017,0.012 C6.923,0.012 6.034,0.895 6.034,1.982 C6.034,3.069 6.924,3.952 8.017,3.952 C9.11,3.952 9.998,3.069 9.998,1.982 C9.998,0.895 9.109,0.012 8.017,0.012 L8.017,0.012 Z" class="si-glyph-fill"></path>
                <path d="M1.984,0.062 C0.894,0.062 0.005,0.927 0.005,1.996 C0.005,3.062 0.894,3.93 1.984,3.93 C3.078,3.93 3.964,3.063 3.964,1.996 C3.965,0.928 3.078,0.062 1.984,0.062 L1.984,0.062 Z" class="si-glyph-fill"></path>
            </g>
            <path d="M3.276,4.496 C3.276,5.875 1.439,6.992 0,6.992 L0.67,2 C2.109,2 3.276,3.117 3.276,4.496 L3.276,4.496 Z" class="si-glyph-fill"></path>
            <path d="M6.155,6.625 L1.509,4.82 L1.923,3.459 L6.568,5.264 L6.155,6.625 Z" class="si-glyph-fill"></path>
            <path d="M15.225,5.9 C15.256,5.767 14.958,5.629 14.958,5.486 L14.958,1.889 C14.958,0.876 14.457,0.053 13.451,0.053 L9.16,0.053 C8.154,0.053 7.336,0.876 7.336,1.889 L6.664,5.486 L6.666,5.5 C5.831,5.74 5.295,6.301 5.295,7.346 C5.295,7.39 5.303,7.429 5.304,7.473 C5.785,7.151 6.364,6.963 6.985,6.963 C8.482,6.963 9.717,8.047 9.956,9.469 C9.983,9.588 10,9.696 10.008,9.781 C10.113,8.215 11.415,6.97 13.019,6.97 C14.246,6.97 15.299,7.701 15.775,8.746 C15.921,8.339 15.948,7.86 15.948,7.345 C15.946,6.68 15.662,6.217 15.225,5.9 L15.225,5.9 Z M11.053,5.062 L8.938,5.062 L8.938,1.355 C8.938,1.067 9.043,0.955 9.172,0.955 L10.817,0.955 C10.947,0.955 11.053,1.067 11.053,1.355 L11.053,5.062 L11.053,5.062 Z M14.018,4.059 L11.959,4.059 L11.959,0.938 L14.018,0.938 L14.018,4.059 L14.018,4.059 Z" class="si-glyph-fill"></path>
        </g>
    </g>
</svg>