
<svg viewBox="0 0 17 16" version="1.1" xmlns="http://www.w3.org/2000/svg" xmlns:xlink="http://www.w3.org/1999/xlink" class="si-glyph si-glyph-image"><title>805</title><defs></defs><g stroke="none" stroke-width="1" fill="none" fill-rule="evenodd"><g transform="translate(0.000000, 2.000000)" fill="#434343"><path d="M13.438,11.944 L2.557,11.944 C1.163,11.944 0.029,10.781 0.029,9.353 L0.029,2.603 C0.029,1.173 1.164,0.012 2.557,0.012 L13.438,0.012 C14.831,0.012 15.965,1.173 15.965,2.603 L15.965,9.353 C15.965,10.781 14.83,11.944 13.438,11.944 L13.438,11.944 Z M2.237,0.979 C1.537,0.979 0.965,1.593 0.965,2.35 L0.965,9.668 C0.965,10.425 1.537,11.039 2.237,11.039 L13.754,11.039 C14.456,11.039 15.027,10.425 15.027,9.668 L15.027,2.35 C15.027,1.593 14.456,0.979 13.754,0.979 L2.237,0.979 L2.237,0.979 Z" class="si-glyph-fill"></path><ellipse cx="5.471" cy="3.461" rx="1.471" ry="1.461" class="si-glyph-fill"></ellipse><path d="M11.234,3.037 L13.994,9.988 L2.021,9.988 L5.497,5.98 L8.614,6.924 L11.234,3.037 Z" class="si-glyph-fill"></path></g></g></svg>