
<svg viewBox="0 0 16 16" version="1.1" xmlns="http://www.w3.org/2000/svg" xmlns:xlink="http://www.w3.org/1999/xlink" class="si-glyph si-glyph-satellite"><title>650</title><defs></defs><g stroke="none" stroke-width="1" fill="none" fill-rule="evenodd"><g fill="#434343"><path d="M12.495,5.893 C12.832,6.231 14.184,4.877 13.847,4.541 L10.864,1.557 C10.526,1.219 9.174,2.573 9.51,2.909 L12.495,5.893 L12.495,5.893 Z" class="si-glyph-fill"></path><path d="M3.288,10.897 C3.072,10.68 2.597,10.802 2.23,11.168 C1.863,11.536 1.742,12.009 1.959,12.228 L3.233,13.501 C3.45,13.719 3.922,13.597 4.289,13.23 C4.658,12.864 4.779,12.388 4.562,12.172 L3.288,10.897 L3.288,10.897 Z" class="si-glyph-fill"></path><rect transform="translate(2.240100, 2.131300) rotate(-44.991897) translate(-2.240100, -2.131300) " x="-0.25987605" y="1.13130958" width="4.96295245" height="1.95398128" class="si-glyph-fill"></rect><path d="M12.088,8.374 L10.657,9.802 L9.918,9.063 L11.543,7.439 C11.814,7.168 11.81,6.723 11.531,6.447 L9.031,3.948 C8.757,3.673 8.314,3.67 8.043,3.939 L6.419,5.564 L5.684,4.829 L7.113,3.401 L5.718,2.007 L2.221,5.503 L3.614,6.897 L5.028,5.484 L5.763,6.219 L4.134,7.849 C3.864,8.12 3.866,8.564 4.141,8.838 L6.641,11.336 C6.917,11.612 7.363,11.617 7.632,11.346 L9.262,9.717 L10.001,10.456 L8.585,11.869 L9.967,13.25 L13.464,9.753 L12.088,8.374 L12.088,8.374 Z" class="si-glyph-fill"></path><rect transform="translate(13.426200, 12.673100) rotate(-45.056720) translate(-13.426200, -12.673100) " x="10.9262228" y="11.6731091" width="4.96795479" height="1.97998198" class="si-glyph-fill"></rect></g></g></svg>