<svg viewBox="0 0 16 16" version="1.1" xmlns="http://www.w3.org/2000/svg" xmlns:xlink="http://www.w3.org/1999/xlink" class="si-glyph si-glyph-timer"><title>637</title><defs></defs><g stroke="none" stroke-width="1" fill="none" fill-rule="evenodd"><g fill="#434343"><g class=""><path d="M12.115,2.612 L12.64,1.8 L13.49,2.354 L13.974,1.604 L11.527,0.011 L11.044,0.761 L11.893,1.314 L11.381,2.102 C10.25,1.408 8.924,0.999 7.502,0.999 C3.387,0.999 0.041,4.352 0.041,8.475 C0.041,12.595 3.387,15.949 7.502,15.949 C11.615,15.949 14.963,12.595 14.963,8.475 C14.963,6.099 13.847,3.982 12.115,2.612 L12.115,2.612 Z M7.502,14.011 C4.455,14.011 1.975,11.523 1.975,8.467 C1.975,5.409 4.455,2.922 7.502,2.922 C10.549,2.922 13.029,5.409 13.029,8.467 C13.029,11.522 10.549,14.011 7.502,14.011 L7.502,14.011 Z" class="si-glyph-fill"></path></g><rect x="7" y="4" width="1" height="5" class="si-glyph-fill"></rect><rect x="7" y="8" width="3" height="1" class="si-glyph-fill"></rect></g></g></svg>