<!--?xml version="1.0" encoding="UTF-8" standalone="no"?-->
<svg viewBox="0 0 17 16" version="1.1" xmlns="http://www.w3.org/2000/svg" xmlns:xlink="http://www.w3.org/1999/xlink" class="si-glyph si-glyph-keyboard">
    <!-- Generator: Sketch 3.0.3 (7891) - http://www.bohemiancoding.com/sketch -->
    <title>922</title>
    
    <defs></defs>
    <g stroke="none" stroke-width="1" fill="none" fill-rule="evenodd">
        <path d="M1,4.031 L1,11 L15.997,11 L15.997,4.031 L1,4.031 L1,4.031 Z M11.969,5 L13.016,5 L13.016,6.023 L11.969,6.023 L11.969,5 L11.969,5 Z M13.016,6.969 L13.016,8.016 L11.985,8.016 L11.985,6.969 L13.016,6.969 L13.016,6.969 Z M9.967,4.979 L11.017,4.979 L11.017,6.039 L9.967,6.039 L9.967,4.979 L9.967,4.979 Z M11.022,6.975 L11.022,8.037 L9.979,8.037 L9.979,6.975 L11.022,6.975 L11.022,6.975 Z M7.982,4.979 L9.015,4.979 L9.015,6.015 L7.982,6.015 L7.982,4.979 L7.982,4.979 Z M7.965,6.975 L9.043,6.975 L9.043,8.059 L7.965,8.059 L7.965,6.975 L7.965,6.975 Z M4.972,4.995 L6.026,4.995 L6.026,6.023 L4.972,6.023 L4.972,4.995 L4.972,4.995 Z M7,6.988 L7,8.037 L5.985,8.037 L5.985,6.988 L7,6.988 L7,6.988 Z M5.031,6.975 L5.031,8.037 L3.97,8.037 L3.97,6.975 L5.031,6.975 L5.031,6.975 Z M2.969,4.984 L4.031,4.984 L4.031,6.031 L2.969,6.031 L2.969,4.984 L2.969,4.984 Z M1.969,6.979 L3,6.979 L3,8.016 L1.969,8.016 L1.969,6.979 L1.969,6.979 Z M4,10 L2,10 L2,9 L4,9 L4,10 L4,10 Z M12.021,10.021 L4.969,10.021 L4.969,8.968 L12.021,8.968 L12.021,10.021 L12.021,10.021 Z M15,10 L13,10 L13,9 L15,9 L15,10 L15,10 Z M15.016,8 L13.985,8 L13.985,6.969 L15.016,6.969 L15.016,8 L15.016,8 Z M15.016,6.023 L13.969,6.023 L13.969,5 L15.016,5 L15.016,6.023 L15.016,6.023 Z" fill="#434343" class="si-glyph-fill"></path>
    </g>
</svg>