<!--?xml version="1.0" encoding="UTF-8" standalone="no"?-->
<svg viewBox="0 0 17 16" version="1.1" xmlns="http://www.w3.org/2000/svg" xmlns:xlink="http://www.w3.org/1999/xlink" class="si-glyph si-glyph-fence">
    <!-- Generator: Sketch 3.0.3 (7891) - http://www.bohemiancoding.com/sketch -->
    <title>1084</title>
    
    <defs></defs>
    <g stroke="none" stroke-width="1" fill="none" fill-rule="evenodd">
        <path d="M16.0040003,6.04099989 L15.0315413,6.04099989 L15.016541,3 L13.547,0 L11.9680934,3 L11.9830937,6.04099989 L9.96200034,6.04099989 L9.942,3 L8.525,0 L7.007,3 L7.03000018,6.04099989 L4.97000018,6.04099989 L4.941,3 L3.524,0 L2.006,3 L2.02900018,6.04099989 L1.06200018,6.04099989 L1.06499997,7.01965332 L2.03199997,7.01965332 L2.044,12.051 L1.039,12 L1.039,13.0093994 L2.03199997,13.0093994 L2.032,16 L4.967,16 L4.96699997,13.0093994 L7.03000018,13.0093994 L7.03,16 L9.968,16 L9.9679999,13.0093994 L11.9830937,13.0093994 L11.9830937,16 L15.034541,16 L15.0155406,13.0093994 L15.9879996,13.0093994 L15.988,12 L15.015541,12 L15.0155406,7.01965332 L15.9889996,7.01965332 L16.0040003,6.04099989 Z M4.98399994,6.97216797 L7.04199994,6.97216797 L7.042,12.051 L4.96,12.051 L4.98399994,6.97216797 Z M12.068,12 L9.96,12 L9.949,6.928 L12.068,6.928 L12.068,12 L12.068,12 Z" fill="#434343" class="si-glyph-fill"></path>
    </g>
</svg>