<!--?xml version="1.0" encoding="UTF-8" standalone="no"?-->
<svg viewBox="0 0 17 16" version="1.1" xmlns="http://www.w3.org/2000/svg" xmlns:xlink="http://www.w3.org/1999/xlink" class="si-glyph si-glyph-bell">
    <!-- Generator: Sketch 3.0.3 (7891) - http://www.bohemiancoding.com/sketch -->
    <title>1080</title>
    
    <defs></defs>
    <g stroke="none" stroke-width="1" fill="none" fill-rule="evenodd">
        <g transform="translate(2.000000, 0.000000)" fill="#434343">
            <path d="M8.141,1.318 C8.141,0.607 7.582,0.032 6.893,0.032 C6.204,0.032 5.646,0.607 5.646,1.318 C5.646,1.398 5.655,1.478 5.668,1.555 C3.002,2.594 1,4.772 1,10 L13,10 C13.001,4.771 10.784,2.595 8.117,1.555 C8.132,1.478 8.141,1.398 8.141,1.318 Z" class="si-glyph-fill"></path>
            <path d="M14,13 L0,13 L0.906,11 L12.812,11 L14,13 Z" class="si-glyph-fill"></path>
            <path d="M6.961,16 C8.045,16 8.922,15.123 8.922,14.043 L5,14.043 C5,15.123 5.878,16 6.961,16 L6.961,16 Z" class="si-glyph-fill"></path>
        </g>
    </g>
</svg>