<!--?xml version="1.0" encoding="UTF-8" standalone="no"?-->
<svg viewBox="0 0 17 17" version="1.1" xmlns="http://www.w3.org/2000/svg" xmlns:xlink="http://www.w3.org/1999/xlink" class="si-glyph si-glyph-cloud-heavy-rain">
    <!-- Generator: Sketch 3.0.3 (7891) - http://www.bohemiancoding.com/sketch -->
    <title>725</title>
    
    <defs></defs>
    <g stroke="none" stroke-width="1" fill="none" fill-rule="evenodd">
        <g transform="translate(1.000000, 2.000000)" fill="#434343">
            <path d="M13.801,3.42 C13.552,3.42 13.315,3.486 13.09,3.587 C12.397,2.545 11.264,1.863 9.978,1.863 C9.772,1.863 9.571,1.885 9.374,1.92 C8.692,0.783 7.508,0.028 6.155,0.028 C4.249,0.028 2.671,1.529 2.384,3.488 C2.366,3.488 2.349,3.482 2.333,3.482 C1.054,3.482 0.019,4.593 0.019,5.964 L15.988,5.964 C15.848,4.531 14.928,3.42 13.801,3.42 L13.801,3.42 Z" class="si-glyph-fill"></path>
            <path d="M1.387,11.967 C1.338,11.967 1.287,11.959 1.239,11.942 C1.053,11.874 0.969,11.687 1.05,11.529 L3.258,7.254 C3.341,7.098 3.559,7.026 3.742,7.095 C3.929,7.164 4.013,7.35 3.93,7.508 L1.725,11.781 C1.664,11.898 1.529,11.967 1.387,11.967 L1.387,11.967 Z" class="si-glyph-fill"></path>
            <path d="M4.423,11.936 C4.373,11.936 4.324,11.928 4.277,11.911 C4.093,11.842 4.01,11.656 4.09,11.499 L6.262,7.224 C6.344,7.067 6.557,6.995 6.741,7.064 C6.924,7.133 7.007,7.319 6.927,7.476 L4.755,11.75 C4.694,11.866 4.562,11.936 4.423,11.936 L4.423,11.936 Z" class="si-glyph-fill"></path>
            <path d="M7.365,11.936 C7.314,11.936 7.265,11.928 7.215,11.911 C7.027,11.843 6.942,11.659 7.025,11.503 L9.266,7.269 C9.35,7.114 9.571,7.042 9.759,7.111 C9.947,7.18 10.033,7.363 9.949,7.519 L7.709,11.752 C7.646,11.867 7.51,11.936 7.365,11.936 L7.365,11.936 Z" class="si-glyph-fill"></path>
            <path d="M10.369,11.936 C10.32,11.936 10.27,11.928 10.222,11.911 C10.035,11.843 9.951,11.659 10.034,11.503 L12.241,7.269 C12.321,7.114 12.54,7.042 12.725,7.111 C12.91,7.18 12.996,7.363 12.914,7.519 L10.707,11.752 C10.646,11.867 10.512,11.936 10.369,11.936 L10.369,11.936 Z" class="si-glyph-fill"></path>
        </g>
    </g>
</svg>