<!--?xml version="1.0" encoding="UTF-8" standalone="no"?-->
<svg viewBox="0 0 17 16" version="1.1" xmlns="http://www.w3.org/2000/svg" xmlns:xlink="http://www.w3.org/1999/xlink" class="si-glyph si-glyph-customer-support">
    <!-- Generator: Sketch 3.0.3 (7891) - http://www.bohemiancoding.com/sketch -->
    <title>715</title>
    
    <defs></defs>
    <g stroke="none" stroke-width="1" fill="none" fill-rule="evenodd">
        <g transform="translate(1.000000, 0.000000)" fill="#434343">
            <g transform="translate(0.000000, 2.000000)">
                <path d="M8.005,10.094 C6.563,10.094 5.098,9.238 4.243,8.105 C0.141,8.105 0.017,13.965 0.017,13.965 L15.992,13.965 C15.992,13.965 16.314,8.079 11.701,8.079 C10.847,9.226 9.447,10.094 8.005,10.094 Z" class="si-glyph-fill"></path>
                <path d="M11.441,3.069 C11.441,4.755 9.902,7.979 8.002,7.979 C6.105,7.979 4.565,4.754 4.565,3.069 C4.565,1.384 6.104,0.016 8.002,0.016 C9.902,0.017 11.441,1.385 11.441,3.069 L11.441,3.069 Z" class="si-glyph-fill"></path>
            </g>
            <path d="M12.975,3.614 C12.975,3.298 12.535,3.043 11.989,3.041 L11.989,2.39 C11.989,2.293 12.026,0.022 8.014,0.022 C4.004,0.022 4.041,2.293 4.041,2.39 L4.041,3.064 C4.031,3.064 4.023,3.061 4.014,3.061 C3.471,3.061 3.034,3.312 3.034,3.623 L3.034,6.377 C3.034,6.686 3.472,6.938 4.014,6.938 C4.556,6.938 4.996,6.686 4.996,6.377 L4.996,3.623 C4.996,3.58 4.969,3.541 4.953,3.501 L4.953,2.75 C4.953,2.681 4.665,0.967 8.014,0.967 C11.364,0.967 11.016,2.681 11.016,2.75 L11.016,3.541 C11.01,3.566 10.991,3.588 10.991,3.614 L10.991,6.431 C10.991,6.748 11.434,7.005 11.983,7.005 C11.995,7.005 12.004,7.001 12.016,7.001 L12.016,8.03 L11.032,8.03 L11.032,9 L12.985,9 L12.975,3.614 L12.975,3.614 Z" class="si-glyph-fill"></path>
        </g>
    </g>
</svg>