<!--?xml version="1.0" encoding="UTF-8" standalone="no"?-->
<svg viewBox="0 0 16 16" version="1.1" xmlns="http://www.w3.org/2000/svg" xmlns:xlink="http://www.w3.org/1999/xlink" class="si-glyph si-glyph-basket-plus">
    <!-- Generator: Sketch 3.0.3 (7891) - http://www.bohemiancoding.com/sketch -->
    <title>625</title>
    
    <defs></defs>
    <g stroke="none" stroke-width="1" fill="none" fill-rule="evenodd">
        <g transform="translate(0.000000, 1.000000)" fill="#434343">
            <path d="M9.927,11.918 C9.887,11.833 9.86,11.741 9.86,11.639 L9.86,7.483 C9.86,7.145 10.146,6.907 10.448,6.907 L10.469,6.907 C10.77,6.907 11.063,7.145 11.063,7.483 L11.063,10.943 L11.965,10.943 L11.965,8.982 L13.258,8.982 L13.422,5.976 L14.188,5.976 C14.588,5.976 14.913,4.756 14.913,4.756 C14.913,4.386 14.589,4.084 14.188,4.084 L12.26,4.084 L11.225,0.447 C11.074,0.13 10.699,0.00199999998 10.387,0.161 L10.315,0.197 C10.005,0.357 9.876,0.743 10.027,1.06 L10.768,4.083 L4.114,4.083 L4.882,1.064 C5.036,0.75 4.909,0.362 4.601,0.199 L4.531,0.163 C4.22,0.000999999981 3.843,0.125 3.689,0.44 L2.616,4.083 L0.726,4.083 C0.326,4.083 0.000999999931,4.385 0.000999999931,4.755 C0.000999999931,4.755 0.325,5.975 0.726,5.975 L1.362,5.975 L1.811,12.652 C1.811,12.652 1.863,13.961 3.924,13.961 L9.928,13.961 L9.928,11.918 L9.927,11.918 Z M11.969,5 L13.031,5 L13.031,6.062 L11.969,6.062 L11.969,5 L11.969,5 Z M3.094,6.031 L1.912,6.031 L1.912,4.906 L3.094,4.906 L3.094,6.031 L3.094,6.031 Z M5.006,11.742 C5.006,12.092 4.755,12.375 4.447,12.375 L4.424,12.375 C4.113,12.375 3.863,12.092 3.863,11.742 L3.863,7.413 C3.863,7.063 4.113,6.781 4.424,6.781 L4.447,6.781 C4.755,6.781 5.006,7.063 5.006,7.413 L5.006,11.742 L5.006,11.742 Z M8.004,11.547 C8.004,11.881 7.774,12.152 7.49,12.152 L7.469,12.152 C7.185,12.152 6.955,11.881 6.955,11.547 L6.955,7.448 C6.955,7.114 7.184,6.844 7.469,6.844 L7.49,6.844 C7.773,6.844 8.004,7.115 8.004,7.448 L8.004,11.547 L8.004,11.547 Z" class="si-glyph-fill"></path>
            <path d="M16,12.012 L13.992,12.012 L13.992,10.106 L13.055,10.106 L13.055,12.012 L11.052,12.012 L11.052,12.906 L13.055,12.906 L13.055,14.938 L13.992,14.938 L13.992,12.906 L16,12.906 L16,12.012 Z" class="si-glyph-fill"></path>
        </g>
    </g>
</svg>