
<svg viewBox="0 0 17 16" version="1.1" xmlns="http://www.w3.org/2000/svg" xmlns:xlink="http://www.w3.org/1999/xlink" class="si-glyph si-glyph-umberlla-chair"><title>994</title><defs></defs><g stroke="none" stroke-width="1" fill="none" fill-rule="evenodd"><g transform="translate(1.000000, 0.000000)" fill="#434343"><path d="M8,0 L0,6 L0,7.984 L0.953,7.984 L0.953,6.984 L3,6.984 L3,7.984 L4.969,7.984 L4.969,6.984 L7.016,6.984 L7.016,7.984 L8.016,7.984 L8.016,13.969 L8.964,13.969 L8.964,7.984 L8.969,7.984 L8.969,6.984 L11.047,6.984 L11.047,7.984 L13,7.984 L13,6.984 L15.016,6.984 L15.016,7.984 L16,7.984 L16,6 L8,0 Z" class="si-glyph-fill"></path><path d="M2.229,11.016 L0,11.016 L0,12 L1.678,12 L5.02,14.994 L6.031,14.984 L6.031,15.969 L6.969,15.969 L6.969,14.984 L8.031,14.984 L8.031,15.969 L9,15.969 L9,14.984 L13.047,14.984 L13.047,15.969 L14,15.969 L14,14.984 L14.984,14.984 L14.984,14 L5.562,14 L2.229,11.016 Z" class="si-glyph-fill"></path></g></g></svg>