<!--?xml version="1.0" encoding="UTF-8" standalone="no"?-->
<svg viewBox="0 0 17 16" version="1.1" xmlns="http://www.w3.org/2000/svg" xmlns:xlink="http://www.w3.org/1999/xlink" class="si-glyph si-glyph-building">
    <!-- Generator: Sketch 3.0.3 (7891) - http://www.bohemiancoding.com/sketch -->
    <title>907</title>
    
    <defs></defs>
    <g stroke="none" stroke-width="1" fill="none" fill-rule="evenodd">
        <g transform="translate(1.000000, 0.000000)" fill="#434343">
            <path d="M13.961,3.031 L12.969,3.031 L12.969,2.034 L11.953,2.034 L11.953,0.031 L11.015,0.031 L11.015,2.034 L10.058,2.034 L10.058,3.031 L9.035,3.031 L9.035,5.031 L8,5.031 L8,16 L14.982,16 L14.982,5.031 L13.961,5.031 L13.961,3.031 L13.961,3.031 Z M11.969,3.969 L12.969,3.969 L12.969,4.969 L11.969,4.969 L11.969,3.969 L11.969,3.969 Z M9.969,3.984 L10.969,3.984 L10.969,4.984 L9.969,4.984 L9.969,3.984 L9.969,3.984 Z M10,13.956 L9,13.956 L9,12.956 L10,12.956 L10,13.956 L10,13.956 Z M10,11.957 L9,11.957 L9,10.957 L10,10.957 L10,11.957 L10,11.957 Z M10,9.958 L9,9.958 L9,8.958 L10,8.958 L10,9.958 L10,9.958 Z M10,8 L9,8 L9,7 L10,7 L10,8 L10,8 Z M12,13.956 L11,13.956 L11,12.956 L12,12.956 L12,13.956 L12,13.956 Z M12,11.957 L11,11.957 L11,10.957 L12,10.957 L12,11.957 L12,11.957 Z M12,9.958 L11,9.958 L11,8.958 L12,8.958 L12,9.958 L12,9.958 Z M12,8 L11,8 L11,7 L12,7 L12,8 L12,8 Z M14,13.956 L13,13.956 L13,12.956 L14,12.956 L14,13.956 L14,13.956 Z M14,11.957 L13,11.957 L13,10.957 L14,10.957 L14,11.957 L14,11.957 Z M14,9.958 L13,9.958 L13,8.958 L14,8.958 L14,9.958 L14,9.958 Z M14,7.949 L13,7.949 L13,6.949 L14,6.949 L14,7.949 L14,7.949 Z" class="si-glyph-fill"></path>
            <path d="M5.961,3.049 L4.924,3.049 L4.924,2.052 L3.975,2.052 L3.975,0.047 L3.047,0.047 L3.047,2.052 L2.014,2.052 L2.014,3.049 L1.035,3.049 L1.035,5.047 L0,5.047 L0,16 L6.982,16 L6.982,5.047 L5.961,5.047 L5.961,3.049 L5.961,3.049 Z M3.957,3.961 L4.957,3.961 L4.957,4.961 L3.957,4.961 L3.957,3.961 L3.957,3.961 Z M2,3.961 L3,3.961 L3,4.961 L2,4.961 L2,3.961 L2,3.961 Z M2,13.993 L1,13.993 L1,12.993 L2,12.993 L2,13.993 L2,13.993 Z M2,11.989 L1,11.989 L1,10.989 L2,10.989 L2,11.989 L2,11.989 Z M2,9.971 L1,9.971 L1,8.971 L2,8.971 L2,9.971 L2,9.971 Z M2,8 L1,8 L1,7 L2,7 L2,8 L2,8 Z M4,13.969 L3,13.969 L3,12.969 L4,12.969 L4,13.969 L4,13.969 Z M4,11.974 L3,11.974 L3,10.974 L4,10.974 L4,11.974 L4,11.974 Z M4,9.981 L3,9.981 L3,8.981 L4,8.981 L4,9.981 L4,9.981 Z M4,7.975 L3,7.975 L3,6.975 L4,6.975 L4,7.975 L4,7.975 Z M6,13.959 L5,13.959 L5,12.959 L6,12.959 L6,13.959 L6,13.959 Z M6,11.961 L5,11.961 L5,10.961 L6,10.961 L6,11.961 L6,11.961 Z M6,9.963 L5,9.963 L5,8.963 L6,8.963 L6,9.963 L6,9.963 Z M6,7.955 L5,7.955 L5,6.955 L6,6.955 L6,7.955 L6,7.955 Z" class="si-glyph-fill"></path>
        </g>
    </g>
</svg>