<!--?xml version="1.0" encoding="UTF-8" standalone="no"?-->
<svg viewBox="0 0 17 16" version="1.1" xmlns="http://www.w3.org/2000/svg" xmlns:xlink="http://www.w3.org/1999/xlink" class="si-glyph si-glyph-paper-roll">
    <!-- Generator: Sketch 3.0.3 (7891) - http://www.bohemiancoding.com/sketch -->
    <title>943</title>
    
    <defs></defs>
    <g stroke="none" stroke-width="1" fill="none" fill-rule="evenodd">
        <g transform="translate(0.000000, 2.000000)" fill="#434343">
            <path d="M2.967,0 C1.783,0 0.861,0.524 0.365,1.476 C0.011,2.154 0.002,2.823 0.002,2.897 L0.002,11.333 C0.002,11.333 1.189,9.988 3.274,11.333 C5.951,12.932 6.853,10.562 8.011,11.333 C9.856,12.763 10.926,11.333 10.926,11.333 C10.926,11.333 10.913,4.481 10.926,4.302 C10.996,3.158 11.152,2.138 11.587,1.376 C12.072,0.527 12.735,0.001 13.468,0.001 L2.967,0.001 L2.967,0 Z" class="si-glyph-fill"></path>
            <path d="M15.029,1.713 C14.732,1.304 14.386,1.063 14.012,1.063 C13.482,1.063 13.001,1.545 12.648,2.323 C12.334,3.019 12.122,3.953 12.068,4.999 L12.068,6.003 C12.18,8.218 13.006,9.939 14.012,9.939 C15.093,9.939 15.97,7.953 15.97,5.501 C15.971,3.895 15.594,2.492 15.029,1.713 L15.029,1.713 Z M14.013,8.047 C13.483,8.047 13.047,7.056 12.989,5.783 L12.989,5.203 C13.018,4.602 13.129,4.064 13.294,3.667 C13.481,3.214 13.733,2.938 14.014,2.938 C14.209,2.938 14.391,3.075 14.547,3.315 C14.845,3.761 15.043,4.571 15.043,5.494 C15.042,6.904 14.579,8.047 14.013,8.047 L14.013,8.047 Z" class="si-glyph-fill"></path>
        </g>
    </g>
</svg>