<!--?xml version="1.0" encoding="UTF-8" standalone="no"?-->
<svg viewBox="0 0 17 16" version="1.1" xmlns="http://www.w3.org/2000/svg" xmlns:xlink="http://www.w3.org/1999/xlink" class="si-glyph si-glyph-mark-snorker">
    <!-- Generator: Sketch 3.0.3 (7891) - http://www.bohemiancoding.com/sketch -->
    <title>689</title>
    
    <defs></defs>
    <g stroke="none" stroke-width="1" fill="none" fill-rule="evenodd">
        <g transform="translate(1.000000, 0.000000)" fill="#434343">
            <path d="M12.555,2.037 L3.485,2.037 C1.595,2.037 0.061,3.439 0.061,5.169 L0.061,6.774 C0.061,8.504 0.932,9.907 2.822,9.907 L4.684,9.907 C6.123,9.907 7.354,9.406 7.861,8.258 C7.932,8.092 8.128,8.082 8.196,8.24 C8.696,9.4 9.925,9.907 11.363,9.907 L13.217,9.907 C15.1,9.907 15.963,8.505 15.963,6.774 L15.963,5.169 C15.963,3.439 14.436,2.037 12.555,2.037 L12.555,2.037 Z M15.045,6.956 C15.045,8.113 14.752,9.053 13.533,9.053 L11.562,9.053 C10.513,9.053 9.603,8.658 9.395,7.685 C9.395,7.685 9.194,7.038 8.004,7.038 C6.816,7.038 6.65,7.682 6.65,7.682 C6.441,8.66 5.519,9.054 4.464,9.054 L2.488,9.054 C1.258,9.054 0.959,8.115 0.959,6.957 L0.959,5.097 C0.959,3.942 1.959,3.001 3.19,3.001 L12.831,3.001 C14.052,3.001 15.044,3.941 15.044,5.097 L15.044,6.956 L15.045,6.956 Z" class="si-glyph-fill"></path>
            <path d="M11.743,7.98 L13.103,7.98 L13.808,4.492 C13.456,4.242 13.017,4.086 12.533,4.077 L11.743,7.98 L11.743,7.98 Z" class="si-glyph-fill"></path>
            <path d="M11.164,11.193 L10.621,13.674 C10.516,14.199 9.764,14.594 9.246,14.489 C8.742,14.387 8.297,14.071 8.377,13.562 C9.306,13.282 9.98,12.492 9.968,11.561 C9.964,11.253 9.686,11.007 9.344,11.011 C9.004,11.015 8.73,11.268 8.735,11.576 C8.741,12.113 8.262,12.556 7.669,12.562 C7.074,12.57 6.585,12.139 6.578,11.601 C6.574,11.294 6.295,11.048 5.955,11.052 C5.613,11.056 5.342,11.31 5.345,11.616 C5.357,12.565 6.075,13.351 7.04,13.593 C6.98,14.724 7.87,15.538 8.997,15.765 C10.235,16.015 11.677,15.191 11.929,13.935 L12.525,11.197 C12.523,11.199 11.188,11.194 11.164,11.193 L11.164,11.193 Z" class="si-glyph-fill"></path>
            <path d="M14.643,0.889 C14.721,0.501 14.474,0.124 14.09,0.046 C13.707,-0.031 13.333,0.223 13.254,0.609 L13.041,1.787 C13.533,1.83 13.994,1.961 14.408,2.167 L14.643,0.889 L14.643,0.889 Z" class="si-glyph-fill"></path>
        </g>
    </g>
</svg>