<!--?xml version="1.0" encoding="UTF-8" standalone="no"?-->
<svg viewBox="0 0 16 16" version="1.1" xmlns="http://www.w3.org/2000/svg" xmlns:xlink="http://www.w3.org/1999/xlink" class="si-glyph si-glyph-sleep">
    <!-- Generator: Sketch 3.0.3 (7891) - http://www.bohemiancoding.com/sketch -->
    <title>157</title>
    
    <defs></defs>
    <g stroke="none" stroke-width="1" fill="none" fill-rule="evenodd">
        <g transform="translate(0.000000, 1.000000)" fill="#434343">
            <path d="M7.953,13 L1.027,13 C0.65,13 0.311,12.769 0.16,12.411 C0.009,12.053 0.076,11.636 0.328,11.348 L5.859,4.973 L0.988,4.973 C0.465,4.973 -2.27373675e-13,4.572 -2.27373675e-13,4.028 C-2.27373675e-13,3.483 0.425,3.043 0.947,3.043 L7.973,3.043 C8.347,3.043 8.689,3.273 8.839,3.632 C8.989,3.991 8.924,4.406 8.671,4.695 L3.179,11.082 L7.952,11.082 C8.475,11.082 8.899,11.471 8.899,12.015 C8.9,12.559 8.477,13 7.953,13 L7.953,13 Z" class="si-glyph-fill"></path>
            <path d="M15.755,7.935 L9.701,7.935 C9.447,7.935 9.219,7.783 9.115,7.544 C9.011,7.307 9.053,7.027 9.222,6.833 L14.338,0.964 L9.338,0.964 C8.984,0.964 9.02,0.034 9.373,0.034 L15.471,0.034 C15.724,0.034 15.917,0.151 16.021,0.388 C16.126,0.625 16.083,0.905 15.914,1.1 L10.88,6.963 L15.755,6.963 C16.109,6.964 16.109,7.935 15.755,7.935 L15.755,7.935 Z" class="si-glyph-fill"></path>
        </g>
    </g>
</svg>