<!--?xml version="1.0" encoding="UTF-8" standalone="no"?-->
<svg viewBox="0 0 17 16" version="1.1" xmlns="http://www.w3.org/2000/svg" xmlns:xlink="http://www.w3.org/1999/xlink" class="si-glyph si-glyph-document-plus">
    <!-- Generator: Sketch 3.0.3 (7891) - http://www.bohemiancoding.com/sketch -->
    <title>745</title>
    
    <defs></defs>
    <g stroke="none" stroke-width="1" fill="none" fill-rule="evenodd">
        <g transform="translate(2.000000, 0.000000)" fill="#434343">
            <g>
                <path d="M7.927,0.062 L2.073,0.114 L2.052,9.947 L4.021,9.962 L4.021,11.979 L6,11.979 L6,15.062 L4.062,15.062 L4.062,16 L6,16 L7.312,16 L13.969,16 L13.969,6.012 L7.927,6.012 L7.927,0.062 Z" class="si-glyph-fill"></path>
                <path d="M9,0 L9,4.969 L14,4.969 L9,0 Z" class="si-glyph-fill"></path>
                <path d="M4.979,13 L2.992,13 L2.992,11 L2.029,11 L2.029,13 L0.021,13 L0.021,13.986 L2.029,13.986 L2.029,15.994 L2.992,15.994 L2.992,13.986 L4.979,13.986 L4.979,13 Z" class="si-glyph-fill"></path>
            </g>
        </g>
    </g>
</svg>