
<svg viewBox="0 0 16 16" version="1.1" xmlns="http://www.w3.org/2000/svg" xmlns:xlink="http://www.w3.org/1999/xlink" class="si-glyph si-glyph-finder"><title>182</title><defs></defs><g stroke="none" stroke-width="1" fill="none" fill-rule="evenodd"><g transform="translate(0.000000, 1.000000)" fill="#434343"><g transform="translate(6.000000, 0.000000)"><path d="M2.198,0 L2.072,0.312 C0.752,3.562 0.308,4.809 0.16,6.455 L0.111,7 L3.099,7 C3.242,7 3.377,7.068 3.464,7.182 C3.552,7.295 3.581,7.445 3.543,7.583 C3.287,8.532 2.891,9.197 2.784,10.869 C2.761,11.251 2.754,11.631 2.764,12.005 C2.797,13.026 2.979,12.988 3.422,13.719 L3.568,13.959 L10,13.959 L10,0 L2.198,0 L2.198,0 Z M4.15,13 C3.883,12.424 3.772,12.713 3.765,11.837 C5.736,11.409 6.394,10.503 7.039,9.793 C7.247,9.566 7.232,9.213 7.007,9.003 C6.784,8.793 6.435,8.808 6.229,9.033 C5.787,9.518 5.456,10.263 3.812,10.671 C3.918,9.409 4.181,9.053 4.508,7.846 C4.627,7.408 4.534,6.933 4.259,6.575 C3.985,6.216 3.551,6.001 3.099,6.001 L1.21,6.001 C1.39,4.366 1.825,3.701 2.874,1.001 L9,1.001 L9,13 L4.15,13 Z" class="si-glyph-fill"></path><path d="M0.321,11.028 C0.313,11.334 0.322,11.641 0.344,11.949 C0.696,11.972 1.053,11.99 1.419,11.99 C1.872,11.99 2.321,11.965 2.763,11.926 C2.75,11.619 2.759,11.308 2.785,10.994 C2.339,11.039 1.885,11.071 1.42,11.071 C1.045,11.071 0.679,11.056 0.321,11.028 L0.321,11.028 Z" class="si-glyph-fill"></path></g><rect x="11" y="3" width="0.988" height="0.938" class="si-glyph-fill"></rect><path d="M2.167,9.836 C1.938,9.632 1.913,9.278 2.115,9.045 C2.316,8.811 2.666,8.79 2.894,8.992 C3.787,9.784 4.497,10.689 6.613,10.911 C6.636,9.461 6.828,9.08 7.041,8.084 L5.083,8.084 C4.53,8.084 4.083,7.636 4.083,7.084 C4.083,6.901 4.11,4.881 5.947,0 L0,0 L0,14 L7.021,14 C6.724,13.111 6.685,13.033 6.633,12.035 C4.196,11.807 3.203,10.756 2.167,9.836 Z M2,3 L3,3 L3,4 L2,4 L2,3 L2,3 Z" class="si-glyph-fill"></path></g></g></svg>