<!--?xml version="1.0" encoding="UTF-8" standalone="no"?-->
<svg viewBox="0 0 17 16" version="1.1" xmlns="http://www.w3.org/2000/svg" xmlns:xlink="http://www.w3.org/1999/xlink" class="si-glyph si-glyph-arrow-two-way-right-bottom">
    <!-- Generator: Sketch 3.0.3 (7891) - http://www.bohemiancoding.com/sketch -->
    <title>1103</title>
    
    <defs></defs>
    <g stroke="none" stroke-width="1" fill="none" fill-rule="evenodd">
        <path d="M16.807,2.894 L14.049,0.135 C13.789,-0.125 13.366,-0.123 13.105,0.14 L13.095,2.103 L4.383,2.103 C3.645,2.103 3.047,2.702 3.047,3.438 L3.047,12.06 L1.135,12.072 C0.875,12.331 0.879,12.753 1.141,13.015 L3.928,15.801 C4.19,16.065 4.613,16.068 4.871,15.807 L7.629,13.049 C7.889,12.789 7.887,12.293 7.624,12.031 L5.958,12.043 L5.958,5.941 C5.958,5.203 6.23,4.958 6.969,4.958 L13.081,4.958 L13.071,6.629 C13.331,6.888 13.752,6.886 14.013,6.624 L16.802,3.837 C17.064,3.575 17.066,3.152 16.807,2.894 L16.807,2.894 Z" fill="#434343" class="si-glyph-fill"></path>
    </g>
</svg>