<!--?xml version="1.0" encoding="UTF-8" standalone="no"?-->
<svg viewBox="0 0 16 16" version="1.1" xmlns="http://www.w3.org/2000/svg" xmlns:xlink="http://www.w3.org/1999/xlink" class="si-glyph si-glyph-disc-download">
    <!-- Generator: Sketch 3.0.3 (7891) - http://www.bohemiancoding.com/sketch -->
    <title>603</title>
    
    <defs></defs>
    <g stroke="none" stroke-width="1" fill="none" fill-rule="evenodd">
        <g fill="#434343">
            <path d="M7.987,6.042 C6.877,6.042 5.976,6.922 5.976,8.01 C5.976,9.094 6.876,9.974 7.987,9.974 C9.095,9.974 9.996,9.094 9.996,8.01 C9.996,6.922 9.096,6.042 7.987,6.042 L7.987,6.042 Z" class="si-glyph-fill"></path>
            <path d="M10.979,12.963 L12.929,12.955 L12.929,10.937 L15.436,10.937 C15.794,10.039 16.001,9.066 16.001,8.041 C16.001,3.645 12.419,0.083 8.001,0.083 C3.583,0.083 0.00100000005,3.645 0.00100000005,8.041 C0.00100000005,12.437 3.583,16 8.001,16 C9.192,16 10.318,15.733 11.334,15.27 L12.001,14.969 L10.979,12.963 L10.979,12.963 Z M12.423,2.684 L13.269,3.53 L11.482,5.317 L10.637,4.472 L12.423,2.684 L12.423,2.684 Z M3.548,13.25 L2.703,12.404 L4.491,10.617 L5.336,11.462 L3.548,13.25 L3.548,13.25 Z M8,11 C6.34320074,11 5,9.6573296 5,8.00093371 C5,6.34360411 6.34320074,5 8,5 C9.65679926,5 11,6.3426704 11,8.00093371 C11,9.6573296 9.65679926,11 8,11 L8,11 Z" class="si-glyph-fill"></path>
            <path d="M14.521,15.958 L15.894,14.021 L14.973,14.024 L14.973,12.062 L14.029,12.062 L14.029,14.026 L13.047,14.03 L14.521,15.958 Z" class="si-glyph-fill"></path>
        </g>
    </g>
</svg>