<!--?xml version="1.0" encoding="UTF-8" standalone="no"?-->
<svg viewBox="0 0 17 16" version="1.1" xmlns="http://www.w3.org/2000/svg" xmlns:xlink="http://www.w3.org/1999/xlink" class="si-glyph si-glyph-resize-in-frame">
    <!-- Generator: Sketch 3.0.3 (7891) - http://www.bohemiancoding.com/sketch -->
    <title>895</title>
    
    <defs></defs>
    <g stroke="none" stroke-width="1" fill="none" fill-rule="evenodd">
        <g transform="translate(1.000000, 0.000000)" fill="#434343">
            <path d="M8.994,12.967 C8.994,14.101 8.074,15.021 6.939,15.021 L3.03,15.021 C1.896,15.021 0.976,14.101 0.976,12.967 L0.976,9.057 C0.976,7.924 1.896,7.004 3.03,7.004 L6.939,7.004 C8.074,7.004 8.994,7.924 8.994,9.057 L8.994,12.967 L8.994,12.967 Z" class="si-glyph-fill"></path>
            <path d="M10.778,4.104 L9.607,2.048 C9.303,2.048 9.056,2.294 9.056,2.596 L9.038,6.4 C9.038,6.704 9.285,6.949 9.59,6.949 L13.355,6.966 C13.661,6.966 13.908,6.722 13.908,6.418 L11.894,5.212 L15.71,1.418 C15.865,1.266 15.941,1.066 15.941,0.867 C15.941,0.665 15.865,0.467 15.71,0.314 C15.401,0.008 14.901,0.008 14.593,0.314 L10.778,4.104 L10.778,4.104 Z" class="si-glyph-fill"></path>
            <path d="M15.04,7.021 L15.04,13.605 C15.04,14.4 14.398,15.046 13.605,15.046 L2.376,15.046 C1.585,15.046 0.941,14.4 0.941,13.605 L0.941,2.396 C0.941,1.602 1.585,0.956 2.376,0.956 L8.98,0.956 L8.98,0.026 L2.057,0.026 C0.928,0.026 0.008,0.947 0.008,2.079 L0.008,13.911 C0.008,15.042 0.928,15.964 2.057,15.964 L13.938,15.964 C15.069,15.964 15.989,15.042 15.989,13.911 L15.989,7.021 L15.04,7.021 L15.04,7.021 Z" class="si-glyph-fill"></path>
        </g>
    </g>
</svg>