<!--?xml version="1.0" encoding="UTF-8" standalone="no"?-->
<svg viewBox="0 0 16 16" version="1.1" xmlns="http://www.w3.org/2000/svg" xmlns:xlink="http://www.w3.org/1999/xlink" class="si-glyph si-glyph-backward-page">
    <!-- Generator: Sketch 3.0.3 (7891) - http://www.bohemiancoding.com/sketch -->
    <title>87</title>
    
    <defs></defs>
    <g stroke="none" stroke-width="1" fill="none" fill-rule="evenodd">
        <g transform="translate(0.000000, 1.000000)" fill="#434343">
            <path d="M0.252,3.516 L4.157,0.266 C4.433,-0.022 4.75,-0.069 5.028,0.218 C5.028,0.218 4.991,2.408 5.022,2.408 C5.701,2.408 6.105,2.521 6.722,2.722 C7.544,2.993 8.294,3.428 8.93,3.99 C10.206,5.113 11.023,6.392 11.023,8.203 C11.023,9.385 10.5,8.955 10.281,8.542 C9.246,6.597 7.358,5.614 4.999,5.614 C4.969,5.614 5.002,7.76 5.002,7.76 C4.723,8.047 4.373,8.013 4.132,7.807 L0.252,4.557 C-0.027,4.268 -0.027,3.804 0.252,3.516 L0.252,3.516 Z" class="si-glyph-fill"></path>
            <path d="M1.954,8.079 L1.954,13.062 L15.072,13.062 L15.072,3.937 L9.871,3.937 C9.596,3.625 9.252,3.22 8.652,3.018 L16,3.018 L16,13.982 L1.08,13.982 L1.08,7.258 L1.954,8.079 L1.954,8.079 Z" class="si-glyph-fill"></path>
        </g>
    </g>
</svg>