<!--?xml version="1.0" encoding="UTF-8" standalone="no"?-->
<svg viewBox="0 0 17 16" version="1.1" xmlns="http://www.w3.org/2000/svg" xmlns:xlink="http://www.w3.org/1999/xlink" class="si-glyph si-glyph-askterisk">
    <!-- Generator: Sketch 3.0.3 (7891) - http://www.bohemiancoding.com/sketch -->
    <title>1132</title>
    
    <defs></defs>
    <g stroke="none" stroke-width="1" fill="none" fill-rule="evenodd">
        <path d="M14.991,6.153 C14.64,6.153 13.039,6.607 11.043,6.941 C12.465,5.36 13.811,4.186 14.004,3.879 C14.58,2.962 14.239,1.787 13.241,1.257 C12.242,0.727 10.967,1.041 10.389,1.959 C10.199,2.264 9.767,3.908 8.999,5.819 C8.231,3.908 7.8,2.263 7.611,1.959 C7.032,1.041 5.757,0.727 4.759,1.257 C3.761,1.788 3.419,2.962 3.997,3.879 C4.187,4.186 5.534,5.359 6.958,6.941 C4.96,6.607 3.358,6.153 3.008,6.153 C1.928,6.153 1.053,6.995 1.053,8.035 C1.053,9.073 1.928,9.915 3.008,9.915 C3.359,9.915 4.938,9.467 6.915,9.133 C5.507,10.69 4.184,11.844 3.995,12.147 C3.419,13.067 3.761,14.239 4.759,14.771 C5.757,15.299 7.032,14.987 7.61,14.068 C7.8,13.764 8.232,12.12 9,10.208 C9.769,12.12 10.199,13.765 10.392,14.068 C10.967,14.987 12.243,15.301 13.242,14.771 C14.24,14.24 14.581,13.067 14.005,12.149 C13.816,11.844 12.494,10.69 11.087,9.133 C13.065,9.467 14.644,9.915 14.992,9.915 C16.072,9.915 16.948,9.073 16.948,8.035 C16.947,6.995 16.071,6.153 14.991,6.153 L14.991,6.153 Z" fill="#434343" class="si-glyph-fill"></path>
    </g>
</svg>