<!--?xml version="1.0" encoding="UTF-8" standalone="no"?-->
<svg viewBox="0 0 16 16" version="1.1" xmlns="http://www.w3.org/2000/svg" xmlns:xlink="http://www.w3.org/1999/xlink" class="si-glyph si-glyph-telephone-box">
    <!-- Generator: Sketch 3.0.3 (7891) - http://www.bohemiancoding.com/sketch -->
    <title>756</title>
    
    <defs></defs>
    <g stroke="none" stroke-width="1" fill="none" fill-rule="evenodd">
        <path d="M13,15.021 L13,4 L12,4 L12,2.917 L12.852,2.917 C12.852,1.306 11.021,0.083 8,0.083 C4.979,0.083 3,1.306 3,2.917 L4.023,2.917 L4.023,4 L3,4 L3,15.021 L2,15.021 L2,16 L14,16 L14,15.021 L13,15.021 L13,15.021 Z M5,3 L11,3 L11,4 L5,4 L5,3 L5,3 Z M6,15.021 L5,15.021 L5,12.981 L6,12.981 L6,15.021 L6,15.021 Z M6,12 L5,12 L5,10 L6,10 L6,12 L6,12 Z M6,9 L5,9 L5,7 L6,7 L6,9 L6,9 Z M6,6 L5,6 L5,5 L6,5 L6,6 L6,6 Z M9,15.021 L7,15.021 L7,12.981 L9,12.981 L9,15.021 L9,15.021 Z M7,11.958 L7,9.958 L9,9.958 L9,11.958 L7,11.958 Z M7,9 L7,7 L9,7 L9,9 L7,9 L7,9 Z M9,5.958 L7,5.958 L7,4.958 L9,4.958 L9,5.958 L9,5.958 Z M9.958,4.979 L11,4.979 L11,6.019 L9.958,6.019 L9.958,4.979 L9.958,4.979 Z M11,7 L11,9 L10,9 L10,7 L11,7 L11,7 Z M11.021,15.021 L10,15.021 L10,12.981 L11.021,12.981 L11.021,15.021 L11.021,15.021 Z M11.021,12.019 L10,12.019 L10,9.98 L11.021,9.98 L11.021,12.019 L11.021,12.019 Z" fill="#434343" class="si-glyph-fill"></path>
    </g>
</svg>