<!--?xml version="1.0" encoding="UTF-8" standalone="no"?-->
<svg viewBox="0 0 16 16" version="1.1" xmlns="http://www.w3.org/2000/svg" xmlns:xlink="http://www.w3.org/1999/xlink" class="si-glyph si-glyph-excavator">
    <!-- Generator: Sketch 3.0.3 (7891) - http://www.bohemiancoding.com/sketch -->
    <title>159</title>
    
    <defs></defs>
    <g stroke="none" stroke-width="1" fill="none" fill-rule="evenodd">
        <g fill="#434343">
            <path d="M14.858,12.071 L5.141,12.071 C4.531,12.071 4.039,12.652 4.039,13.371 L4.039,14.67 C4.039,15.388 4.53,15.969 5.141,15.969 L14.858,15.969 C15.466,15.969 15.959,15.388 15.959,14.67 L15.959,13.371 C15.959,12.652 15.467,12.071 14.858,12.071 L14.858,12.071 Z M6.979,15.105 C6.364,15.105 5.864,14.599 5.864,13.974 C5.864,13.347 6.364,12.842 6.979,12.842 C7.592,12.842 8.092,13.347 8.092,13.974 C8.092,14.6 7.592,15.105 6.979,15.105 L6.979,15.105 Z M9.986,15.094 C9.392,15.094 8.91,14.611 8.91,14.014 C8.91,13.417 9.392,12.933 9.986,12.933 C10.579,12.933 11.062,13.417 11.062,14.014 C11.062,14.611 10.579,15.094 9.986,15.094 L9.986,15.094 Z M13.031,15.126 C12.4,15.126 11.886,14.631 11.886,14.018 C11.886,13.403 12.4,12.907 13.031,12.907 C13.662,12.907 14.176,13.403 14.176,14.018 C14.176,14.631 13.662,15.126 13.031,15.126 L13.031,15.126 Z" class="si-glyph-fill"></path>
            <path d="M11.978,8.021 L11.999,6.007 L7.417,6.007 L6.584,3.91 L6.58,3.898 L6.575,3.9 L3.989,1.204 L4.337,0.304 L3.473,-0.032 L1.215,6.251 C0.11,6.873 -0.31,8.272 0.279,9.402 C0.879,10.548 2.582,11.328 3.719,10.717 C4.6,10.245 3.199,7.312 2.13,6.448 L3.619,2.162 L5.781,4.417 L7.062,9.002 C7.062,9.002 7.062,8.391 7.062,9.998 C7.062,11.605 8.093,10.942 8.093,10.942 L14.124,10.942 C14.124,10.942 14.968,11.332 14.968,9.935 L14.968,8.716 C14.968,7.849 14.03,8.008 14.03,8.008 L11.978,8.021 L11.978,8.021 Z M11.031,10.062 L7.937,10.062 L7.937,6.937 L11.031,6.937 L11.031,10.062 L11.031,10.062 Z" class="si-glyph-fill"></path>
        </g>
    </g>
</svg>