<!--?xml version="1.0" encoding="UTF-8" standalone="no"?-->
<svg viewBox="0 0 16 16" version="1.1" xmlns="http://www.w3.org/2000/svg" xmlns:xlink="http://www.w3.org/1999/xlink" class="si-glyph si-glyph-tag-price">
    <!-- Generator: Sketch 3.0.3 (7891) - http://www.bohemiancoding.com/sketch -->
    <title>Tag-price</title>
    
    <defs></defs>
    <g stroke="none" stroke-width="1" fill="none" fill-rule="evenodd">
        <g fill="#434343">
            <path d="M15.46,8.894 L7.127,0.545 C6.387,-0.195 5.16,-0.169 4.387,0.606 L4.298,0.695 L4.264,0.661 C3.409,-0.195 1.987,-0.16 1.088,0.74 L0.833,0.996 C-0.066,1.895 -0.1,3.319 0.755,4.175 L0.79,4.21 L0.625,4.376 C-0.148,5.149 -0.176,6.378 0.565,7.12 L8.898,15.469 C9.638,16.21 10.867,16.183 11.638,15.409 L15.401,11.639 C16.175,10.864 16.201,9.636 15.46,8.894 L15.46,8.894 Z M3.433,5.168 C2.567,5.168 1.866,4.434 1.864,3.527 C1.864,2.621 2.567,1.887 3.433,1.887 C4.299,1.887 4.997,2.622 5,3.527 C4.997,4.434 4.297,5.168 3.433,5.168 L3.433,5.168 Z M12.434,13.077 L11.35,11.992 C10.698,12.455 9.881,12.601 9.166,12.354 C8.999,12.297 8.867,12.179 8.793,12.021 C8.716,11.859 8.709,11.676 8.773,11.505 C8.806,11.413 8.86,11.329 8.93,11.259 C9.113,11.077 9.387,11.012 9.628,11.095 C9.866,11.177 10.138,11.142 10.389,11.027 L9.136,9.769 C8.183,10.451 6.917,10.431 6.144,9.66 C5.366,8.883 5.349,7.613 6.04,6.662 L4.978,5.599 L5.607,4.97 L6.676,6.035 C7.334,5.574 8.152,5.428 8.868,5.676 C9.033,5.734 9.166,5.854 9.241,6.012 C9.315,6.174 9.323,6.356 9.26,6.526 C9.224,6.619 9.171,6.701 9.1,6.771 C8.916,6.954 8.642,7.02 8.403,6.935 C8.165,6.852 7.895,6.886 7.645,6.998 L8.907,8.255 C9.854,7.59 11.105,7.617 11.872,8.383 C12.639,9.15 12.669,10.396 12.005,11.338 L13.085,12.414 L12.434,13.077 L12.434,13.077 Z" class="si-glyph-fill"></path>
            <path d="M7.124,8.722 C7.392,8.989 7.822,9.017 8.205,8.829 L7.017,7.636 C6.828,8.021 6.855,8.453 7.124,8.722 L7.124,8.722 Z" class="si-glyph-fill"></path>
            <path d="M10.924,9.351 C10.666,9.092 10.256,9.059 9.883,9.227 L11.049,10.389 C11.216,10.018 11.182,9.608 10.924,9.351 L10.924,9.351 Z" class="si-glyph-fill"></path>
        </g>
    </g>
</svg>