<!--?xml version="1.0" encoding="UTF-8" standalone="no"?-->
<svg viewBox="0 0 16 16" version="1.1" xmlns="http://www.w3.org/2000/svg" xmlns:xlink="http://www.w3.org/1999/xlink" class="si-glyph si-glyph-sos">
    <!-- Generator: Sketch 3.0.3 (7891) - http://www.bohemiancoding.com/sketch -->
    <title>837</title>
    
    <defs></defs>
    <g stroke="none" stroke-width="1" fill="none" fill-rule="evenodd">
        <g transform="translate(0.000000, 5.000000)" fill="#434343">
            <path d="M1.992,3 C1.407,3 0.932,2.556 0.932,2.01 C0.932,1.464 1.407,1.019 1.992,1.019 C2.425,1.019 2.808,1.262 2.973,1.638 C3.081,1.887 3.354,1.993 3.581,1.875 C3.811,1.758 3.908,1.463 3.8,1.215 C3.488,0.493 2.778,0.027 1.991,0.027 C0.901,0.027 0.016,0.918 0.016,2.01 C0.016,3.104 0.901,3.991 1.997,3.991 C2.588,3.991 3.064,4.439 3.064,4.988 C3.064,5.535 2.587,5.982 1.997,5.982 C1.559,5.982 1.172,5.736 1.007,5.358 C0.901,5.108 0.626,5.002 0.399,5.118 C0.169,5.234 0.072,5.531 0.179,5.778 C0.493,6.506 1.206,6.974 1.997,6.974 C3.09,6.974 3.98,6.082 3.98,4.988 C3.982,3.892 3.092,3 1.992,3 L1.992,3 Z" class="si-glyph-fill"></path>
            <path d="M12.979,2.988 C12.401,2.988 11.93,2.545 11.93,2.001 C11.93,1.458 12.401,1.015 12.979,1.015 C13.41,1.015 13.792,1.257 13.955,1.632 C14.061,1.879 14.333,1.986 14.559,1.868 C14.787,1.752 14.882,1.457 14.775,1.209 C14.465,0.491 13.76,0.026 12.98,0.026 C11.9,0.026 11.023,0.913 11.023,2.001 C11.023,3.091 11.9,3.975 12.989,3.975 C13.574,3.975 14.048,4.421 14.048,4.966 C14.048,5.513 13.574,5.957 12.989,5.957 C12.555,5.957 12.17,5.713 12.008,5.335 C11.9,5.088 11.631,4.982 11.403,5.098 C11.176,5.213 11.08,5.508 11.186,5.754 C11.498,6.479 12.206,6.945 12.99,6.945 C14.075,6.945 14.958,6.057 14.958,4.966 C14.955,3.876 14.072,2.988 12.979,2.988 L12.979,2.988 Z" class="si-glyph-fill"></path>
            <path d="M7.529,0.026 L7.455,0.026 C6.451,0.026 5.011,0.832 5.011,1.821 L5.011,5.174 C5.011,6.165 6.451,6.97 7.455,6.97 L7.529,6.97 C8.534,6.97 9.973,6.165 9.973,5.174 L9.973,1.821 C9.974,0.832 8.534,0.026 7.529,0.026 L7.529,0.026 Z M9.035,4.953 C9.035,5.569 8.14,6.07 7.515,6.07 L7.468,6.07 C6.844,6.07 5.947,5.569 5.947,4.953 L5.947,2.055 C5.947,1.44 6.844,0.938 7.468,0.938 L7.515,0.938 C8.14,0.938 9.035,1.44 9.035,2.055 L9.035,4.953 L9.035,4.953 Z" class="si-glyph-fill"></path>
        </g>
    </g>
</svg>