<!--?xml version="1.0" encoding="UTF-8" standalone="no"?-->
<svg viewBox="0 0 17 17" version="1.1" xmlns="http://www.w3.org/2000/svg" xmlns:xlink="http://www.w3.org/1999/xlink" class="si-glyph si-glyph-square-eight-angle-point">
    <!-- Generator: Sketch 3.0.3 (7891) - http://www.bohemiancoding.com/sketch -->
    <title>1202</title>
    
    <defs></defs>
    <g stroke="none" stroke-width="1" fill="none" fill-rule="evenodd">
        <path d="M16,4 L16,1.041 L13.041,1.041 L13.041,2.062 L10,2.062 L10,1.041 L6.041,1.041 L6.041,2.062 L3,2.062 L3,1.041 L0.041,1.041 L0.041,2.062 L0.041,2.978 L0.041,4 L1.052,4 L1.052,7.041 L0.041,7.041 L0.041,11 L1.052,11 L1.052,14.041 L0.041,14.041 L0.041,15.062 L0.041,15.978 L0.041,17 L1.052,17 L1.969,17 L3,17 L3,15.979 L6.041,15.979 L6.041,17 L10,17 L10,15.979 L13.041,15.979 L13.041,17 L14.052,17 L14.969,17 L16,17 L16,14.041 L14.969,14.041 L14.969,11 L16,11 L16,7.041 L14.969,7.041 L14.969,4 L16,4 L16,4 Z M9.062,1.938 L9.062,3.063 L6.978,3.063 L6.978,1.938 L9.062,1.938 L9.062,1.938 Z M15.062,1.938 L15.062,3.063 L13.978,3.063 L13.978,1.938 L15.062,1.938 L15.062,1.938 Z M0.979,1.938 L2.063,1.938 L2.063,3.063 L0.979,3.063 L0.979,1.938 L0.979,1.938 Z M0.969,7.938 L2.094,7.938 L2.094,10.063 L0.969,10.063 L0.969,7.938 L0.969,7.938 Z M2.062,16.084 L0.978,16.084 L0.978,14.959 L2.062,14.959 L2.062,16.084 L2.062,16.084 Z M6.979,16.062 L6.979,14.937 L9.063,14.937 L9.063,16.062 L6.979,16.062 L6.979,16.062 Z M13.968,16.062 L13.968,14.948 L15.094,14.948 L15.094,16.062 L13.968,16.062 L13.968,16.062 Z M15.094,10.104 L13.969,10.104 L13.969,7.938 L15.094,7.938 L15.094,10.104 L15.094,10.104 Z M13.041,7.041 L13.041,11 L14.052,11 L14.052,14.041 L13.041,14.041 L13.041,15.062 L10,15.062 L10,14.041 L6.041,14.041 L6.041,15.062 L3,15.062 L3,14.041 L1.969,14.041 L1.969,11 L3,11 L3,7.041 L1.969,7.041 L1.969,4 L3,4 L3,2.979 L6.041,2.979 L6.041,4 L10,4 L10,2.979 L13.041,2.979 L13.041,4 L14.052,4 L14.052,7.041 L13.041,7.041 L13.041,7.041 Z" fill="#434343" class="si-glyph-fill"></path>
    </g>
</svg>