<!--?xml version="1.0" encoding="UTF-8" standalone="no"?-->
<svg viewBox="0 0 17 16" version="1.1" xmlns="http://www.w3.org/2000/svg" xmlns:xlink="http://www.w3.org/1999/xlink" class="si-glyph si-glyph-percent">
    <!-- Generator: Sketch 3.0.3 (7891) - http://www.bohemiancoding.com/sketch -->
    <title>947</title>
    
    <defs></defs>
    <g stroke="none" stroke-width="1" fill="none" fill-rule="evenodd">
        <g transform="translate(1.000000, 0.000000)" fill="#434343">
            <path d="M3.541,0.068 C1.631,0.068 0.083,1.838 0.083,4.022 C0.083,6.206 1.631,7.977 3.541,7.977 C5.451,7.977 7,6.206 7,4.022 C7,1.838 5.451,0.068 3.541,0.068 L3.541,0.068 Z M3.499,6.062 C2.607,6.062 1.884,5.124 1.884,3.967 C1.884,2.812 2.608,1.874 3.499,1.874 C4.393,1.874 5.115,2.812 5.115,3.967 C5.115,5.125 4.393,6.062 3.499,6.062 L3.499,6.062 Z" class="si-glyph-fill"></path>
            <path d="M12.524,8.051 C10.623,8.051 9.083,9.821 9.083,12.005 C9.083,14.189 10.623,15.96 12.524,15.96 C14.423,15.96 15.964,14.189 15.964,12.005 C15.964,9.821 14.424,8.051 12.524,8.051 L12.524,8.051 Z M12.477,14.094 C11.592,14.094 10.875,13.16 10.875,12.005 C10.875,10.852 11.592,9.917 12.477,9.917 C13.362,9.917 14.079,10.852 14.079,12.005 C14.078,13.16 13.361,14.094 12.477,14.094 L12.477,14.094 Z" class="si-glyph-fill"></path>
            <path d="M3.734,15.992 C3.615,15.992 3.499,15.961 3.393,15.9 C3.068,15.713 2.959,15.301 3.149,14.981 L11.646,0.365 C11.773,0.15 11.995,0.026 12.24,0.026 C12.361,0.026 12.476,0.057 12.584,0.117 C12.909,0.305 13.018,0.717 12.827,1.036 L4.331,15.652 C4.201,15.867 3.982,15.992 3.734,15.992 L3.734,15.992 Z" class="si-glyph-fill"></path>
        </g>
    </g>
</svg>