<!--?xml version="1.0" encoding="UTF-8" standalone="no"?-->
<svg viewBox="0 0 16 17" version="1.1" xmlns="http://www.w3.org/2000/svg" xmlns:xlink="http://www.w3.org/1999/xlink" class="si-glyph si-glyph-ghost">
    <!-- Generator: Sketch 3.0.3 (7891) - http://www.bohemiancoding.com/sketch -->
    <title>1109</title>
    
    <defs></defs>
    <g stroke="none" stroke-width="1" fill="none" fill-rule="evenodd">
        <path d="M0.00769043108,7.91000014 L0.0242138699,16.0045776 L2.02069092,12.9996337 L3.99890137,16.0045775 L6.06207276,12.9996337 L8.02052344,16.0045775 L10.0800781,12.9996337 L12.0108032,16.0045775 L14.0491943,12.9996337 L16.0045601,16.0045776 L15.9880367,7.91000014 C15.9890367,3.56000014 12.363,0.031 7.986,0.031 C3.609,0.031 0.00769043108,3.55900014 0.00769043108,7.91000014 Z M4.516,8.094 C3.651,8.094 2.951,7.395 2.951,6.532 C2.951,5.669 3.651,4.969 4.516,4.969 C5.381,4.969 6.081,5.67 6.081,6.532 C6.081,7.394 5.381,8.094 4.516,8.094 L4.516,8.094 Z M11.51,8.066 C10.633,8.066 9.922,7.359 9.922,6.487 C9.922,5.614 10.633,4.906 11.51,4.906 C12.388,4.906 13.098,5.614 13.098,6.487 C13.098,7.359 12.388,8.066 11.51,8.066 L11.51,8.066 Z" fill="#434343" class="si-glyph-fill"></path>
    </g>
</svg>