
<svg viewBox="0 0 17 16" version="1.1" xmlns="http://www.w3.org/2000/svg" xmlns:xlink="http://www.w3.org/1999/xlink" class="si-glyph si-glyph-jump-page-left-right"><title>659</title><defs></defs><g stroke="none" stroke-width="1" fill="none" fill-rule="evenodd"><g transform="translate(1.000000, 0.000000)" fill="#434343"><path d="M5.958,8.951 L5.958,7.007 L3.979,7.007 L3.97900001,5.06677246 C3.97900001,4.57762889 0.265,7.332 0.265,7.332 C-0.095,7.696 -0.095,8.29 0.264,8.655 C0.264,8.655 3.97900001,11.4734899 3.97900001,10.9475709 L3.979,8.951 L5.958,8.951 Z" class="si-glyph-fill"></path><path d="M10.002,7 L10.002,8.973 L12.048,8.973 L12.048,11 C12.048,11.4553833 15.695,8.684 15.695,8.684 C16.055,8.336 16.055,7.771 15.695,7.423 C15.695,7.423 11.980774,4.64377734 11.980774,5.03546143 L12.048,7 L10.002,7 Z" class="si-glyph-fill"></path><rect x="7" y="0" width="2" height="16" class="si-glyph-fill"></rect></g></g></svg>