<!--?xml version="1.0" encoding="UTF-8" standalone="no"?-->
<svg viewBox="0 0 17 16" version="1.1" xmlns="http://www.w3.org/2000/svg" xmlns:xlink="http://www.w3.org/1999/xlink" class="si-glyph si-glyph-arrow-change">
    <!-- Generator: Sketch 3.0.3 (7891) - http://www.bohemiancoding.com/sketch -->
    <title>950</title>
    
    <defs></defs>
    <g stroke="none" stroke-width="1" fill="none" fill-rule="evenodd">
        <g transform="translate(1.000000, 0.000000)" fill="#434343">
            <path d="M1.539,8.001 C2.367,8.001 2.918,7.45 2.918,6.622 L2.914,6.187 C2.914,6.187 2.709,4.954 4.354,4.954 L11.015,5 L11.015,6.759 C11.338,7.081 11.862,7.081 12.185,6.759 L14.758,4.187 C15.08,3.863 15.08,3.339 14.758,3.017 L12.185,0.292 C11.862,-0.03 11.338,-0.03 11.015,0.292 L11.015,2.137 C10.854,2.09 4.562,2.063 4.562,2.063 C0.851,2.063 0.039,4.492 0.039,5.47 L0.039,6.501 C0.039,7.329 0.711,8.001 1.539,8.001 L1.539,8.001 Z" class="si-glyph-fill"></path>
            <path d="M13.5,8.042 C12.672,8.042 12,8.626 12,9.454 L12.002,10.411 C11.957,10.768 11.357,11.001 10.477,11.001 L3.938,11.001 L3.936,9.442 C3.614,9.12 3.09,9.12 2.766,9.442 L0.194,12.014 C-0.128,12.338 -0.128,12.862 0.194,13.184 L2.766,15.756 C3.09,16.08 3.614,16.08 3.936,15.756 L3.938,13.905 L10.477,13.905 C14.188,13.905 15,11.463 15,10.484 L15,9.453 C15,8.626 14.328,8.042 13.5,8.042 L13.5,8.042 Z" class="si-glyph-fill"></path>
        </g>
    </g>
</svg>