<!--?xml version="1.0" encoding="UTF-8" standalone="no"?-->
<svg viewBox="0 0 16 16" version="1.1" xmlns="http://www.w3.org/2000/svg" xmlns:xlink="http://www.w3.org/1999/xlink" class="si-glyph si-glyph-space-ship">
    <!-- Generator: Sketch 3.0.3 (7891) - http://www.bohemiancoding.com/sketch -->
    <title>Rocket</title>
    
    <defs></defs>
    <g stroke="none" stroke-width="1" fill="none" fill-rule="evenodd">
        <g transform="translate(1.000000, 0.000000)" fill="#434343">
            <path d="M10.023,8.441 C10.023,8.441 11.322,10.408 12.601,11.035 C13.593,11.517 12.492,14.427 11.962,15.681 C11.811,16.035 11.605,16.025 11.39,15.723 C10.982,15.15 10.17,13.968 8.888,13.968 L4.134,13.968 C2.851,13.968 2.039,15.15 1.632,15.723 C1.417,16.025 1.209,16.035 1.06,15.681 C0.53,14.426 -0.571,11.517 0.42,11.035 C1.7,10.408 2.999,8.441 2.999,8.441 L10.023,8.441 L10.023,8.441 Z" class="si-glyph-fill"></path>
            <path d="M10.192,9.062 C9.83,5.966 8.6,1.06 7.076,0.077 C6.898,0.056 6.717,0.043 6.537,0.043 C6.353,0.043 6.175,0.056 5.996,0.077 C4.472,1.06 3.241,5.967 2.88,9.062 C2.81,9.666 2.772,10.205 2.772,10.627 C2.772,12.152 3.261,13.272 4.032,13.984 L9.042,13.984 C9.813,13.271 10.302,12.152 10.302,10.627 C10.301,10.204 10.263,9.666 10.192,9.062 L10.192,9.062 Z M6.5,4 C7.3281427,4 8,4.67198632 8,5.50128242 C8,6.32972357 7.3281427,7 6.5,7 C5.67100793,7 5,6.32972357 5,5.50128242 C5,4.67198632 5.67100793,4 6.5,4 L6.5,4 Z" class="si-glyph-fill"></path>
        </g>
    </g>
</svg>