<!--?xml version="1.0" encoding="UTF-8" standalone="no"?-->
<svg viewBox="0 0 17 16" version="1.1" xmlns="http://www.w3.org/2000/svg" xmlns:xlink="http://www.w3.org/1999/xlink" class="si-glyph si-glyph-bubble-message-hi">
    <!-- Generator: Sketch 3.0.3 (7891) - http://www.bohemiancoding.com/sketch -->
    <title>1036</title>
    
    <defs></defs>
    <g stroke="none" stroke-width="1" fill="none" fill-rule="evenodd">
        <path d="M8.979,0.021 C4.581,0.021 1.011,2.813 1.011,6.256 C1.011,9.399 3.987,11.99 7.852,12.42 L5.805,15.971 L11.924,12.045 C14.864,11.128 16.947,8.884 16.947,6.256 C16.947,2.812 13.379,0.021 8.979,0.021 L8.979,0.021 Z M9.04,9.018 L7.972,9.018 L7.972,7.075 L6.032,7.075 L6.032,9.018 L4.96,9.041 L4.96,3.992 L6.032,3.969 L6.032,5.987 L7.972,5.987 L7.972,3.969 L9.04,3.969 L9.04,9.018 L9.04,9.018 Z M11,9.018 L9.954,9.018 L9.954,5.938 L11,5.938 L11,9.018 L11,9.018 Z M11.031,5.041 L9.954,5.041 L9.954,3.937 L11.031,3.937 L11.031,5.041 L11.031,5.041 Z M14.031,9.016 L12.968,9.016 L12.968,7.963 L14.031,7.963 L14.031,9.016 L14.031,9.016 Z M14.016,7.016 L12.969,7.016 L12.969,3.954 L14.016,3.954 L14.016,7.016 L14.016,7.016 Z" fill="#434343" class="si-glyph-fill"></path>
    </g>
</svg>