
<svg viewBox="0 0 17 16" version="1.1" xmlns="http://www.w3.org/2000/svg" xmlns:xlink="http://www.w3.org/1999/xlink" class="si-glyph si-glyph-cpu"><title>1067</title><defs></defs><g stroke="none" stroke-width="1" fill="none" fill-rule="evenodd"><g transform="translate(1.000000, 0.000000)" fill="#434343"><g transform="translate(2.000000, 2.000000)"><path d="M9.8297716,0.041 L2.2542284,0.041 C1.03239919,0.041 0.042,1.026 0.042,2.24 L0.042,9.801 C0.042,11.016 1.03239919,12 2.2542284,12 L9.8297716,12 C11.053622,12 12.042,11.016 12.042,9.801 L12.042,2.24 C12.042,1.026 11.053622,0.041 9.8297716,0.041 L9.8297716,0.041 Z M2,10.958 L1,10.958 L1,9.958 L2,9.958 L2,10.958 L2,10.958 Z M2,1.958 L1,1.958 L1,0.958 L2,0.958 L2,1.958 L2,1.958 Z M8.958,8.02823759 C8.958,8.5647517 8.52208163,9 7.98330612,9 L3.93367347,9 C3.39293878,9 2.958,8.5647517 2.958,8.02823759 L2.958,3.97273612 C2.958,3.4352483 3.39293878,3 3.93367347,3 L7.98330612,3 C8.52208163,3 8.958,3.4352483 8.958,3.97273612 L8.958,8.02823759 L8.958,8.02823759 Z M11,10.958 L10,10.958 L10,9.958 L11,9.958 L11,10.958 L11,10.958 Z M11,1.958 L10,1.958 L10,0.958 L11,0.958 L11,1.958 L11,1.958 Z" class="si-glyph-fill"></path><path d="M4.72,4 C4.323,4 4,4.322 4,4.722 L4,7.18 C4,7.578 4.322,7.902 4.72,7.902 L7.156,7.902 C7.552,7.902 7.876,7.579 7.876,7.18 L7.876,4.722 C7.876,4.323 7.553,4 7.156,4 L4.72,4 Z" class="si-glyph-fill"></path></g><g><rect x="4" y="0" width="0.871" height="1" class="si-glyph-fill"></rect><rect x="11" y="0" width="0.871" height="1" class="si-glyph-fill"></rect><rect x="7" y="0" width="0.871" height="1" class="si-glyph-fill"></rect><rect x="4" y="15" width="0.959" height="0.896" class="si-glyph-fill"></rect><rect x="11" y="15" width="0.876" height="0.896" class="si-glyph-fill"></rect><rect x="7" y="15" width="0.918" height="0.896" class="si-glyph-fill"></rect><rect x="0" y="11" width="1" height="0.975" class="si-glyph-fill"></rect><rect x="0" y="4" width="1" height="0.975" class="si-glyph-fill"></rect><rect x="0" y="7" width="1" height="0.975" class="si-glyph-fill"></rect><rect x="15" y="11" width="0.957" height="0.975" class="si-glyph-fill"></rect><rect x="15" y="7" width="0.957" height="0.975" class="si-glyph-fill"></rect><rect x="15" y="4" width="0.957" height="0.975" class="si-glyph-fill"></rect></g></g></g></svg>