<!--?xml version="1.0" encoding="UTF-8" standalone="no"?-->
<svg viewBox="0 0 16 16" version="1.1" xmlns="http://www.w3.org/2000/svg" xmlns:xlink="http://www.w3.org/1999/xlink" class="si-glyph si-glyph-basket-arrow-left">
    <!-- Generator: Sketch 3.0.3 (7891) - http://www.bohemiancoding.com/sketch -->
    <title>612</title>
    
    <defs></defs>
    <g stroke="none" stroke-width="1" fill="none" fill-rule="evenodd">
        <g fill="#434343">
            <path d="M10.461,13.486 L13.186,11.346 L13.479,5.975 L14.245,5.975 C14.645,5.975 14.97,4.755 14.97,4.755 C14.97,4.385 14.607,4.044 14.206,4.044 L12.278,4.044 L11.271,0.374 C11.12,0.057 10.745,-0.071 10.433,0.088 L10.362,0.124 C10.051,0.284 9.922,0.67 10.073,0.987 L10.786,4.044 L4.132,4.044 L4.918,0.979 C5.072,0.665 4.945,0.277 4.636,0.114 L4.567,0.078 C4.256,-0.084 3.879,0.04 3.725,0.355 L2.633,4.044 L0.743,4.044 C0.343,4.044 0.057,4.385 0.057,4.755 C0.057,4.755 0.381,5.975 0.782,5.975 L1.418,5.975 L1.867,12.652 C1.867,12.652 1.919,13.961 3.98,13.961 L11.001,13.961 C11.02,13.961 11.034,13.957 11.053,13.957 L10.461,13.486 L10.461,13.486 Z M11.938,4.969 L13.032,4.969 L13.032,6.063 L11.938,6.063 L11.938,4.969 L11.938,4.969 Z M3.031,6.031 L1.969,6.031 L1.969,4.969 L3.031,4.969 L3.031,6.031 L3.031,6.031 Z M5.062,11.742 C5.062,12.092 4.811,12.375 4.503,12.375 L4.48,12.375 C4.169,12.375 3.919,12.092 3.919,11.742 L3.919,7.413 C3.919,7.063 4.169,6.781 4.48,6.781 L4.503,6.781 C4.811,6.781 5.062,7.063 5.062,7.413 L5.062,11.742 L5.062,11.742 Z M8.06,11.547 C8.06,11.881 7.823,12.152 7.531,12.152 L7.51,12.152 C7.217,12.152 6.981,11.881 6.981,11.547 L6.981,7.448 C6.981,7.114 7.217,6.844 7.51,6.844 L7.531,6.844 C7.823,6.844 8.06,7.115 8.06,7.448 L8.06,11.547 L8.06,11.547 Z M9.916,11.639 L9.916,7.483 C9.916,7.145 10.159,6.872 10.461,6.872 L10.483,6.872 C10.784,6.872 11.029,7.145 11.029,7.483 L11.029,11.639 C11.029,11.977 10.784,12.25 10.483,12.25 L10.461,12.25 C10.159,12.25 9.916,11.977 9.916,11.639 L9.916,11.639 Z" class="si-glyph-fill"></path>
            <path d="M13.943,12.022 L12.073,13.491 L13.943,14.979 L13.943,13.991 L15.99,13.991 L15.99,13.026 L13.943,13.026 L13.943,12.022 Z" class="si-glyph-fill"></path>
        </g>
    </g>
</svg>