<!--?xml version="1.0" encoding="UTF-8" standalone="no"?-->
<svg viewBox="0 0 16 16" version="1.1" xmlns="http://www.w3.org/2000/svg" xmlns:xlink="http://www.w3.org/1999/xlink" class="si-glyph si-glyph-cruise">
    <!-- Generator: Sketch 3.0.3 (7891) - http://www.bohemiancoding.com/sketch -->
    <title>649</title>
    
    <defs></defs>
    <g stroke="none" stroke-width="1" fill="none" fill-rule="evenodd">
        <g transform="translate(1.000000, 0.000000)" fill="#434343">
            <path d="M3.143,12.728 C3.213,12.792 3.377,12.903 3.504,12.896 C3.584,12.894 3.676,12.838 3.768,12.732 C4.069,12.381 4.403,12.194 4.76,12.174 C5.301,12.143 5.709,12.516 5.906,12.695 C6.176,12.937 6.291,12.958 6.328,12.953 C6.375,12.949 6.754,12.534 6.953,12.408 L6.953,6.059 L3.979,6.713 L3.979,3.558 C3.979,3.215 4.268,2.938 4.622,2.938 L7.02,2.938 L7.02,6.078 C7.283,6.02 7.714,6.02 7.979,6.078 L7.979,2.938 L10.386,2.938 C10.74,2.938 11.028,3.215 11.028,3.558 L11.043,6.74 L8.043,6.059 L8.043,12.226 C8.12,12.206 8.203,12.193 8.293,12.191 C8.56,12.189 8.961,12.265 9.35,12.686 C9.481,12.824 9.618,12.901 9.69,12.9 C9.78,12.895 9.963,12.692 9.977,12.678 C10.024,12.631 10.452,12.217 11.03,12.231 C11.274,12.238 11.634,12.322 11.958,12.695 C12.097,12.854 12.229,12.949 12.325,12.955 C12.483,12.967 12.718,12.751 12.817,12.66 C13.042,12.458 13.334,12.239 13.692,12.188 C13.692,12.188 14.262,9.741 13.829,8.657 C13.599,8.081 13.544,7.579 12.321,7.156 C12.21,7.118 12.094,7.091 11.982,7.053 L11.982,3.388 C11.982,2.633 11.346,2.02 10.563,2.02 L8.98,2.02 L8.98,0.021 L8.002,0.021 L8.002,2.02 L6.98,2.02 L6.98,0.042 L6.002,0.042 L6.002,2.02 L4.455,2.02 C3.672,2.02 3.034,2.633 3.034,3.388 L3.034,7.056 C2.925,7.091 2.813,7.118 2.706,7.156 C1.49,7.579 1.469,8.116 1.201,8.676 C0.687,9.751 1.486,12.466 1.486,12.466 C1.785,12.255 2.06,12.216 2.258,12.229 C2.744,12.262 3.047,12.605 3.143,12.728 Z" class="si-glyph-fill"></path>
            <path d="M14.918,14.747 C14.65,14.307 14.338,14.064 13.991,14.027 C13.902,14.019 13.82,14.026 13.738,14.041 C13.371,14.105 13.071,14.385 12.84,14.64 C12.738,14.754 12.5,15.031 12.336,15.015 C12.24,15.008 12.102,14.887 11.961,14.685 C11.628,14.212 11.26,14.104 11.01,14.096 C10.416,14.08 9.981,14.603 9.932,14.664 C9.916,14.682 9.902,14.706 9.891,14.726 C9.848,14.799 9.73,14.938 9.635,14.945 C9.562,14.947 9.422,14.847 9.291,14.672 C8.891,14.14 8.48,14.043 8.209,14.046 C8.117,14.049 8.031,14.067 7.949,14.089 C7.776,14.139 7.629,14.227 7.506,14.322 C7.3,14.482 7.175,14.658 7.151,14.693 C7.133,14.716 7.12,14.744 7.106,14.773 C6.997,14.942 6.909,15.009 6.863,15.014 C6.819,15.02 6.704,14.994 6.426,14.686 C6.222,14.46 5.801,13.985 5.24,14.023 C4.874,14.05 4.529,14.288 4.217,14.731 C4.121,14.867 4.028,14.938 3.946,14.942 C3.814,14.948 3.647,14.808 3.574,14.727 C3.477,14.571 3.161,14.136 2.661,14.095 C2.456,14.076 2.172,14.126 1.865,14.394 C1.768,14.479 1.666,14.585 1.566,14.72 C1.471,14.845 1.322,14.988 1.192,14.991 C1.032,14.989 0.862,14.802 0.817,14.735 C0.667,14.519 0.391,14.475 0.196,14.639 C0.00300000001,14.803 -0.039,15.112 0.106,15.328 C0.149,15.394 0.549,15.959 1.166,15.976 C1.44,15.984 1.85,15.88 2.248,15.349 C2.257,15.337 2.265,15.329 2.272,15.318 C2.397,15.163 2.52,15.072 2.594,15.076 C2.686,15.082 2.806,15.222 2.845,15.289 C2.858,15.314 2.873,15.337 2.89,15.357 C2.938,15.418 3.374,15.959 3.968,15.925 C4.217,15.918 4.584,15.808 4.916,15.336 C5.061,15.134 5.196,15.013 5.295,15.007 C5.456,15.002 5.694,15.265 5.799,15.38 C6.061,15.672 6.412,15.997 6.852,15.997 C6.883,15.997 6.916,15.996 6.948,15.993 C7.147,15.972 7.333,15.876 7.507,15.722 C7.638,15.606 7.761,15.461 7.874,15.273 C7.881,15.264 7.885,15.254 7.89,15.245 C7.907,15.226 7.927,15.203 7.951,15.182 C8.025,15.11 8.133,15.032 8.236,15.03 L8.239,15.03 C8.377,15.03 8.515,15.178 8.609,15.302 C9.028,15.858 9.431,15.948 9.705,15.926 C10.205,15.885 10.521,15.451 10.619,15.293 C10.674,15.232 10.851,15.061 10.988,15.08 C11.073,15.081 11.164,15.153 11.261,15.289 C11.573,15.732 11.919,15.972 12.284,15.996 C12.542,16.016 12.773,15.919 12.968,15.789 C13.187,15.644 13.363,15.456 13.472,15.336 C13.747,15.027 13.868,15 13.906,15.008 C13.958,15.013 14.056,15.091 14.181,15.295 C14.318,15.522 14.595,15.582 14.798,15.43 C14.999,15.279 15.055,14.974 14.918,14.747 L14.918,14.747 Z" class="si-glyph-fill"></path>
        </g>
    </g>
</svg>