
<svg viewBox="0 0 17 16" version="1.1" xmlns="http://www.w3.org/2000/svg" xmlns:xlink="http://www.w3.org/1999/xlink" class="si-glyph si-glyph-button-sale"><title>686</title><defs></defs><g stroke="none" stroke-width="1" fill="none" fill-rule="evenodd"><g transform="translate(1.000000, 3.000000)" fill="#434343"><rect x="6" y="4" width="0.968" height="1.939" class="si-glyph-fill"></rect><path d="M12.513,0.002 L7.438,1.063 L2.473,0.002 C1.108,0.002 0,1.334 0,2.977 L0,8.013 C0,9.657 1.107,10.989 2.473,10.989 L7.563,9.907 L12.513,10.989 C13.877,10.989 14.985,9.657 14.985,8.013 L14.985,2.977 C14.984,1.334 13.877,0.002 12.513,0.002 L12.513,0.002 Z M4.047,4.016 L2.014,4.016 L2.014,4.985 L3.016,4.985 L3.016,5.969 L4.047,5.969 L4.047,7.016 L3.043,7.016 L3.043,8.016 L0.969,8.016 L0.969,6.954 L2.971,6.954 L2.971,6.003 L1.974,6.003 L1.974,5.019 L0.969,5.019 L0.969,3.983 L1.974,3.983 L1.974,2.955 L4.047,2.955 L4.047,4.016 L4.047,4.016 Z M8.013,8.047 L6.969,8.047 L6.969,7.016 L6.016,7.016 L6.016,8.047 L4.969,8.047 L4.969,3.985 L5.969,3.985 L5.969,2.971 L7.016,2.971 L7.016,3.985 L8.013,3.985 L8.013,8.047 L8.013,8.047 Z M11.016,8.016 L8.969,8.016 L8.969,2.954 L10.016,2.954 L10.016,6.97 L11.016,6.97 L11.016,8.016 L11.016,8.016 Z M14.031,4.016 L13.01,4.016 L13.01,4.954 L14.004,4.954 L14.004,6.032 L13.031,6.032 L13.031,6.965 L14.031,6.965 L14.031,8.017 L11.969,8.017 L11.969,2.97 L14.031,2.97 L14.031,4.016 L14.031,4.016 Z" class="si-glyph-fill"></path></g></g></svg>