<!--?xml version="1.0" encoding="UTF-8" standalone="no"?-->
<svg viewBox="0 0 16 16" version="1.1" xmlns="http://www.w3.org/2000/svg" xmlns:xlink="http://www.w3.org/1999/xlink" class="si-glyph si-glyph-stereo-jack">
    <!-- Generator: Sketch 3.0.3 (7891) - http://www.bohemiancoding.com/sketch -->
    <title>174</title>
    
    <defs></defs>
    <g stroke="none" stroke-width="1" fill="none" fill-rule="evenodd">
        <g transform="translate(0.000000, 1.000000)" fill="#434343">
            <path d="M4.929,4.762 L3.86,5.827 C3.544,6.14 3.506,6.612 3.772,6.877 L5.106,8.207 C5.374,8.472 5.846,8.431 6.161,8.119 L7.231,7.052 L4.929,4.762 L4.929,4.762 Z" class="si-glyph-fill"></path>
            <path d="M9.77,4.524 C10.026,4.269 10.018,3.847 9.75,3.582 L8.414,2.252 C8.149,1.987 7.725,1.979 7.469,2.233 L5.633,4.062 L7.933,6.354 L9.77,4.524 L9.77,4.524 Z" class="si-glyph-fill"></path>
            <path d="M1.053,9.532 L0.186,10.394 C-0.079,10.66 -0.066,11.104 0.219,11.388 L0.559,11.726 C0.842,12.009 1.289,12.023 1.555,11.757 L2.421,10.896 L1.053,9.532 L1.053,9.532 Z" class="si-glyph-fill"></path>
            <path d="M3.242,10.077 L1.855,8.694 L4.154,6.403 L5.543,7.786 L3.242,10.077 Z" class="si-glyph-fill"></path>
            <path d="M15.674,13.974 C15.151,13.974 13.88,14.057 12.81,13.186 C11.596,12.195 11.119,10.991 11.119,8.756 C11.119,7.536 11.686,6.025 12.265,5.235 C12.767,4.549 13.14,3.828 13.14,3.053 C13.14,1.917 12.968,1.241 12.456,0.951 C11.964,0.672 11.329,0.871 11.148,0.937 L8.534,3.906 L8.016,3.443 L10.778,0.362 C10.825,0.341 11.919,-0.135 12.84,0.388 C13.584,0.812 13.866,1.657 13.866,3.052 C13.866,4.027 13.406,4.864 12.867,5.601 C12.299,6.38 11.844,7.736 11.844,8.755 C11.844,10.785 12.235,11.822 13.283,12.683 C14.415,13.612 15.842,13.306 15.855,13.306 L15.933,13.962 C15.918,13.965 15.826,13.974 15.674,13.974 L15.674,13.974 Z" class="si-glyph-fill"></path>
        </g>
    </g>
</svg>