
<svg viewBox="0 0 16 16" version="1.1" xmlns="http://www.w3.org/2000/svg" xmlns:xlink="http://www.w3.org/1999/xlink" class="si-glyph si-glyph-calendar-empty"><title>Calendar-empty</title><defs></defs><g stroke="none" stroke-width="1" fill="none" fill-rule="evenodd"><g fill="#434343"><rect x="4" y="0" width="0.971" height="1.911" class="si-glyph-fill"></rect><rect x="11" y="0" width="1" height="1.906" class="si-glyph-fill"></rect><g transform="translate(0.000000, 1.000000)"><path d="M15.976,3.959 L15.976,1.456 C15.976,0.685 15.37,0.058 14.622,0.058 L13.032,0.058 L13.032,2.084 L9.968,2.084 L9.968,0.058 L6.034,0.058 L6.034,2.084 L2.938,2.084 L2.938,0.058 L1.401,0.058 C0.653,0.058 0.047,0.685 0.047,1.456 L0.047,3.959 L15.976,3.959 L15.976,3.959 Z" class="si-glyph-fill"></path><path d="M0.046,5.003 L0.046,13.565 C0.046,14.337 0.652,14.964 1.4,14.964 L14.621,14.964 C15.369,14.964 15.975,14.337 15.975,13.565 L15.975,5.003 L0.046,5.003 L0.046,5.003 Z" class="si-glyph-fill"></path></g></g></g></svg>