<!--?xml version="1.0" encoding="UTF-8" standalone="no"?-->
<svg viewBox="0 0 16 17" version="1.1" xmlns="http://www.w3.org/2000/svg" xmlns:xlink="http://www.w3.org/1999/xlink" class="si-glyph si-glyph-mushrooms">
    <!-- Generator: Sketch 3.0.3 (7891) - http://www.bohemiancoding.com/sketch -->
    <title>739</title>
    
    <defs></defs>
    <g stroke="none" stroke-width="1" fill="none" fill-rule="evenodd">
        <g transform="translate(1.000000, 1.000000)" fill="#434343">
            <path d="M7.002,0 C3.149,0 0.025,3.446 0.025,6.115 C0.025,8.781 3.149,8.984 7.002,8.984 C10.856,8.984 13.98,8.781 13.98,6.115 C13.979,3.446 10.855,0 7.002,0 L7.002,0 Z" class="si-glyph-fill"></path>
            <path d="M6.922,10.169 C5.875,10.169 4.89,10.15 4.03,10.054 C4.029,10.141 4.025,10.226 4.025,10.313 C4.025,13.455 0.446,16.001 6.97,16.001 C13.495,16.001 9.917,13.455 9.917,10.313 C9.918,10.221 9.914,10.131 9.913,10.04 C9.029,10.147 8.01,10.169 6.922,10.169 Z" class="si-glyph-fill"></path>
        </g>
    </g>
</svg>