
<svg viewBox="0 0 16 16" version="1.1" xmlns="http://www.w3.org/2000/svg" xmlns:xlink="http://www.w3.org/1999/xlink" class="si-glyph si-glyph-solar-blind"><title>162</title><defs></defs><g stroke="none" stroke-width="1" fill="none" fill-rule="evenodd"><g fill="#434343"><g transform="translate(3.000000, 0.000000)"><path d="M11.502,12.02 C11.252,12.02 11.049,11.859 11.049,11.66 L11.049,1.041 C11.049,0.842 11.252,0.681 11.502,0.681 C11.752,0.681 11.956,0.842 11.956,1.041 L11.956,11.66 C11.956,11.858 11.752,12.02 11.502,12.02 L11.502,12.02 Z" class="si-glyph-fill"></path><ellipse cx="11.45" cy="13.017" rx="1.45" ry="2.017" class="si-glyph-fill"></ellipse><path d="M0.905872105,9.66353351 C0.65646452,9.71919718 0.039,9.68868601 0.039,9.572 L0.039,0.443 C0.039,0.285 1.05432125,0.285000002 1.05432125,0.443000002 L0.913,9.572 C0.912738519,9.61331399 0.994177658,9.64382516 0.905872105,9.66353351 Z" class="si-glyph-fill"></path><path d="M7,9.52 L7,0.284 C7,0.127 8.02392578,0.2924629 8.02392578,0.4494629 L8.02392578,9.6854629 C8.02392578,9.8424629 7,9.677 7,9.52 Z" class="si-glyph-fill"></path></g><rect x="0" y="0" width="16" height="1.96862793" class="si-glyph-fill"></rect><rect x="1" y="3" width="12" height="1.02111816" class="si-glyph-fill"></rect><rect x="1" y="5" width="12" height="1.01989746" class="si-glyph-fill"></rect><path d="M1,7 L1,7.95422363 L13,7.95422363 L13,7 L1,7 Z" class="si-glyph-fill"></path><rect x="1" y="9" width="12" height="1.99255371" class="si-glyph-fill"></rect></g></g></svg>