
<svg viewBox="0 0 17 16" version="1.1" xmlns="http://www.w3.org/2000/svg" xmlns:xlink="http://www.w3.org/1999/xlink" class="si-glyph si-glyph-louder-2"><title>932</title><defs></defs><g stroke="none" stroke-width="1" fill="none" fill-rule="evenodd"><g transform="translate(4.000000, 0.000000)" fill="#434343"><ellipse cx="4.962" cy="10.954" rx="1.962" ry="1.954" class="si-glyph-fill"></ellipse><path d="M8.547,0.014 L1.465,0.014 C0.675,0.014 0.031,0.612 0.031,1.351 L0.031,14.646 C0.031,15.383 0.675,15.983 1.465,15.983 L8.547,15.983 C9.336,15.983 9.98,15.383 9.98,14.646 L9.98,1.351 C9.979,0.611 9.336,0.014 8.547,0.014 L8.547,0.014 Z M4.986,1.948 C6.13,1.948 7.052,2.875 7.052,4.017 C7.052,5.159 6.129,6.085 4.986,6.085 C3.846,6.085 2.921,5.158 2.921,4.017 C2.921,2.875 3.847,1.948 4.986,1.948 L4.986,1.948 Z M4.992,14.031 C3.307,14.031 1.945,12.674 1.945,10.998 C1.945,9.324 3.307,7.967 4.992,7.967 C6.675,7.967 8.039,9.324 8.039,10.998 C8.039,12.674 6.675,14.031 4.992,14.031 L4.992,14.031 Z" class="si-glyph-fill"></path><ellipse cx="4.991" cy="3.978" rx="0.991" ry="0.978" class="si-glyph-fill"></ellipse></g></g></svg>