<!--?xml version="1.0" encoding="UTF-8" standalone="no"?-->
<svg viewBox="0 0 17 16" version="1.1" xmlns="http://www.w3.org/2000/svg" xmlns:xlink="http://www.w3.org/1999/xlink" class="si-glyph si-glyph-lock-unlock">
    <!-- Generator: Sketch 3.0.3 (7891) - http://www.bohemiancoding.com/sketch -->
    <title>782</title>
    
    <defs></defs>
    <g stroke="none" stroke-width="1" fill="none" fill-rule="evenodd">
        <path d="M12.927,0 C10.779,0 9.031,1.802 9.031,4.017 L9.031,5.679 C8.268,5.272 7.404,5.028 6.479,5.028 C3.462,5.028 1.021,7.473 1.021,10.486 C1.021,13.503 3.462,15.946 6.479,15.946 C9.494,15.946 11.937,13.503 11.937,10.486 C11.937,9.325 11.557,8.263 10.937,7.38 L10.937,4.018 C10.937,2.906 11.88,2.001 12.926,2.001 L13.103,2.001 C14.149,2.001 14.999,2.905 14.999,4.018 L14.999,6.901 L16.999,6.901 L16.999,4.018 C17,1.802 15.252,0 13.104,0 L12.927,0 Z M7.416,11.467 L9.994,10.714 C9.875,12.561 8.355,14.026 6.479,14.026 C4.525,14.026 2.939,12.44 2.939,10.486 C2.939,8.533 4.525,6.95 6.479,6.95 C8.367,6.95 9.898,8.434 10,10.299 L7.427,9.518 C7.182,9.279 6.849,9.13 6.48,9.13 C5.73,9.13 5.122,9.739 5.122,10.486 C5.121,11.235 5.729,11.846 6.479,11.846 C6.842,11.846 7.172,11.699 7.416,11.467 Z" fill="#434343" class="si-glyph-fill"></path>
    </g>
</svg>