<!--?xml version="1.0" encoding="UTF-8" standalone="no"?-->
<svg viewBox="0 0 16 16" version="1.1" xmlns="http://www.w3.org/2000/svg" xmlns:xlink="http://www.w3.org/1999/xlink" class="si-glyph si-glyph-dice-3">
    <!-- Generator: Sketch 3.0.3 (7891) - http://www.bohemiancoding.com/sketch -->
    <title>1174</title>
    
    <defs></defs>
    <g stroke="none" stroke-width="1" fill="none" fill-rule="evenodd">
        <path d="M13.763,0 L2.178,0 C0.998,0 0.0430000001,0.966 0.0430000001,2.155 L0.0430000001,13.845 C0.0430000001,15.034 0.998,15.999 2.178,15.999 L13.763,15.999 C14.944,15.999 15.899,15.034 15.899,13.845 L15.899,2.155 C15.898,0.966 14.943,0 13.763,0 L13.763,0 Z M4.002,6.153 C2.856,6.153 1.927,5.202 1.927,4.03 C1.927,2.858 2.856,1.907 4.002,1.907 C5.148,1.907 6.078,2.858 6.078,4.03 C6.078,5.202 5.148,6.153 4.002,6.153 L4.002,6.153 Z M12.002,14.153 C10.856,14.153 9.927,13.202 9.927,12.03 C9.927,10.858 10.856,9.907 12.002,9.907 C13.148,9.907 14.078,10.858 14.078,12.03 C14.078,13.202 13.148,14.153 12.002,14.153 L12.002,14.153 Z M8.002,10.153 C6.856,10.153 5.927,9.202 5.927,8.03 C5.927,6.858 6.856,5.907 8.002,5.907 C9.148,5.907 10.078,6.858 10.078,8.03 C10.078,9.202 9.148,10.153 8.002,10.153 L8.002,10.153 Z" fill="#434343" class="si-glyph-fill"></path>
    </g>
</svg>