<!--?xml version="1.0" encoding="UTF-8" standalone="no"?-->
<svg viewBox="0 0 17 16" version="1.1" xmlns="http://www.w3.org/2000/svg" xmlns:xlink="http://www.w3.org/1999/xlink" class="si-glyph si-glyph-cubic">
    <!-- Generator: Sketch 3.0.3 (7891) - http://www.bohemiancoding.com/sketch -->
    <title>876</title>
    
    <defs></defs>
    <g stroke="none" stroke-width="1" fill="none" fill-rule="evenodd">
        <g transform="translate(1.000000, 1.000000)" fill="#434343">
            <path d="M16,12.316 C16,12.685 15.701,12.983 15.333,12.983 L8.666,14.983 C8.298,14.983 8,14.685 8,14.316 L8,7.65 C8,7.281 8.298,6.983 8.666,6.983 L15.333,4.983 C15.701,4.983 16,5.281 16,5.65 L16,12.316 L16,12.316 Z" class="si-glyph-fill"></path>
            <path d="M6.979,14.316 C6.979,14.685 6.696,14.983 6.344,14.983 L0.633,12.983 C0.283,12.983 0,12.685 0,12.316 L0,5.65 C0,5.281 0.283,4.983 0.633,4.983 L6.344,6.983 C6.696,6.983 6.979,7.281 6.979,7.65 L6.979,14.316 L6.979,14.316 Z" class="si-glyph-fill"></path>
            <path d="M16,3.014 C16,3.332 15.334,3.552 15.334,3.552 L8.666,5.741 C8.666,5.741 8.102,5.961 7.66,5.961 C7.219,5.961 6.683,5.729 6.683,5.729 L0.687,3.579 C0.687,3.579 -0.001,3.364 -0.001,3.015 C-0.001,2.666 0.687,2.429 0.687,2.429 L6.685,0.279 C6.685,0.279 7.306,0.047 7.679,0.047 C8.051,0.047 8.669,0.269 8.669,0.269 L15.331,2.457 C15.332,2.455 16,2.695 16,3.014 L16,3.014 Z" class="si-glyph-fill"></path>
        </g>
    </g>
</svg>