<!--?xml version="1.0" encoding="UTF-8" standalone="no"?-->
<svg viewBox="0 0 17 16" version="1.1" xmlns="http://www.w3.org/2000/svg" xmlns:xlink="http://www.w3.org/1999/xlink" class="si-glyph si-glyph-radioactive">
    <!-- Generator: Sketch 3.0.3 (7891) - http://www.bohemiancoding.com/sketch -->
    <title>824</title>
    
    <defs></defs>
    <g stroke="none" stroke-width="1" fill="none" fill-rule="evenodd">
        <g transform="translate(1.000000, 0.000000)" fill="#434343">
            <g transform="translate(4.000000, 0.000000)">
                <path d="M5.295,6.346 L8.029,1.159 C6.854,0.43 5.493,0.004 4.035,0.004 C2.579,0.004 1.217,0.43 0.041,1.159 L2.768,6.329 C3.141,6.127 3.562,6.003 4.014,6.003 C4.482,6.003 4.914,6.133 5.295,6.346 L5.295,6.346 Z" class="si-glyph-fill"></path>
                <path d="M4.676,7.552 C4.481,7.438 4.257,7.368 4.014,7.368 C3.785,7.368 3.575,7.431 3.387,7.533 C2.981,7.758 2.701,8.183 2.701,8.681 C2.701,8.709 2.709,8.736 2.711,8.764 C2.741,9.244 3.027,9.651 3.437,9.854 C3.612,9.94 3.807,9.994 4.014,9.994 C4.237,9.994 4.442,9.933 4.624,9.838 C5.018,9.629 5.289,9.233 5.318,8.765 C5.321,8.737 5.328,8.71 5.328,8.682 C5.328,8.197 5.064,7.779 4.676,7.552 L4.676,7.552 Z" class="si-glyph-fill"></path>
            </g>
            <path d="M10.604,9.031 C10.48,9.866 9.983,10.575 9.262,10.962 L12.02,15.973 C14.329,14.544 15.893,12.055 15.993,9.032 L10.604,9.032 L10.604,9.031 Z" class="si-glyph-fill"></path>
            <path d="M4.028,15.973 L6.798,10.978 C6.059,10.595 5.548,9.878 5.422,9.032 L0.027,9.032 C0.127,12.055 1.703,14.544 4.028,15.973 L4.028,15.973 Z" class="si-glyph-fill"></path>
        </g>
    </g>
</svg>