<!--?xml version="1.0" encoding="UTF-8" standalone="no"?-->
<svg viewBox="0 0 17 16" version="1.1" xmlns="http://www.w3.org/2000/svg" xmlns:xlink="http://www.w3.org/1999/xlink" class="si-glyph si-glyph-align-center">
    <!-- Generator: Sketch 3.0.3 (7891) - http://www.bohemiancoding.com/sketch -->
    <title>1129</title>
    
    <defs></defs>
    <g stroke="none" stroke-width="1" fill="none" fill-rule="evenodd">
        <g transform="translate(1.000000, 1.000000)" fill="#434343">
            <path d="M16,0.938 C16,1.456 15.58,1.876 15.062,1.876 L0.98,1.876 C0.462,1.876 0.042,1.456 0.042,0.938 L0.042,0.938 C0.042,0.42 0.462,0 0.98,0 L15.062,0 C15.58,0 16,0.42 16,0.938 L16,0.938 L16,0.938 Z" class="si-glyph-fill"></path>
            <path d="M16,12.938 C16,13.456 15.58,13.876 15.062,13.876 L0.98,13.876 C0.462,13.876 0.042,13.456 0.042,12.938 L0.042,12.938 C0.042,12.42 0.462,12 0.98,12 L15.062,12 C15.58,12 16,12.42 16,12.938 L16,12.938 L16,12.938 Z" class="si-glyph-fill"></path>
            <path d="M16,6.938 C16,7.456 15.58,7.876 15.062,7.876 L0.98,7.876 C0.462,7.876 0.042,7.456 0.042,6.938 L0.042,6.938 C0.042,6.42 0.462,6 0.98,6 L15.062,6 C15.58,6 16,6.42 16,6.938 L16,6.938 L16,6.938 Z" class="si-glyph-fill"></path>
            <path d="M13,9.938 C13,10.456 12.58,10.876 12.062,10.876 L3.98,10.876 C3.462,10.876 3.042,10.456 3.042,9.938 L3.042,9.938 C3.042,9.42 3.462,9 3.98,9 L12.062,9 C12.58,9 13,9.42 13,9.938 L13,9.938 L13,9.938 Z" class="si-glyph-fill"></path>
            <path d="M13,3.938 C13,4.456 12.58,4.876 12.062,4.876 L3.98,4.876 C3.462,4.876 3.042,4.456 3.042,3.938 L3.042,3.938 C3.042,3.42 3.462,3 3.98,3 L12.062,3 C12.58,3 13,3.42 13,3.938 L13,3.938 L13,3.938 Z" class="si-glyph-fill"></path>
        </g>
    </g>
</svg>