<!--?xml version="1.0" encoding="UTF-8" standalone="no"?-->
<svg viewBox="0 0 17 17" version="1.1" xmlns="http://www.w3.org/2000/svg" xmlns:xlink="http://www.w3.org/1999/xlink" class="si-glyph si-glyph-square-dashed-1">
    <!-- Generator: Sketch 3.0.3 (7891) - http://www.bohemiancoding.com/sketch -->
    <title>1201</title>
    
    <defs></defs>
    <g stroke="none" stroke-width="1" fill="none" fill-rule="evenodd">
        <g transform="translate(-1.000000, 0.000000)" fill="#434343">
            <path d="M14.048,1.976 L16.0405274,1.97600013 L16.0405274,3.96400013 L16.9477538,3.9640001 L16.9477538,1.04382324 L14.048,1.04382314 L14.048,1.976 Z" class="si-glyph-fill"></path>
            <path d="M1.923,3.995 L1.923,1.976 L3.951,1.976 L3.95100002,0.986572259 L1.02700002,0.986572259 L1.027,3.995 L1.923,3.995 Z" class="si-glyph-fill"></path>
            <path d="M3.95100002,16.017456 L1.96400002,16.017456 L1.964,14.067 L1.027,14.067 L1.027,16.995 L3.951,16.995 L3.95100002,16.017456 Z" class="si-glyph-fill"></path>
            <path d="M16,6 L16,8.00988765 L16.9888916,8.0098877 L16.9888916,6.00000005 L16,6 Z" class="si-glyph-fill"></path>
            <path d="M16,10 L16,11.9608154 L16.9816895,11.9608154 L16.9816895,10 L16,10 Z" class="si-glyph-fill"></path>
            <path d="M10,1 L9.99999998,1.96533203 L11.9840088,1.96533203 L11.9840088,1 L10,1 Z" class="si-glyph-fill"></path>
            <path d="M6,1 L5.99999998,1.97253418 L7.99450682,1.97253418 L7.99450684,1 L6,1 Z" class="si-glyph-fill"></path>
            <path d="M10,16 L10,16.9729004 L11.9580078,16.9729004 L11.9580078,16 L10,16 Z" class="si-glyph-fill"></path>
            <path d="M6,16 L5.99999998,16.9926758 L7.98730467,16.9926758 L7.98730469,16 L6,16 Z" class="si-glyph-fill"></path>
            <path d="M1,6 L1.00000005,7.99023438 L1.98046875,7.99023438 L1.9804687,6 L1,6 Z" class="si-glyph-fill"></path>
            <path d="M1,10 L1,11.9614258 L1.95422363,11.9614258 L1.95422363,10 L1,10 Z" class="si-glyph-fill"></path>
            <path d="M16.006,14 L16.006,16.073 L14,16.073 L14,17.0183105 L17.0028076,17.0183105 L17.0028076,14 L16.006,14 Z" class="si-glyph-fill"></path>
        </g>
    </g>
</svg>