<!--?xml version="1.0" encoding="UTF-8" standalone="no"?-->
<svg viewBox="0 0 17 16" version="1.1" xmlns="http://www.w3.org/2000/svg" xmlns:xlink="http://www.w3.org/1999/xlink" class="si-glyph si-glyph-share-5">
    <!-- Generator: Sketch 3.0.3 (7891) - http://www.bohemiancoding.com/sketch -->
    <title>1078</title>
    
    <defs></defs>
    <g stroke="none" stroke-width="1" fill="none" fill-rule="evenodd">
        <path d="M15.021,4 C14.291,4 13.659,4.404 13.315,5 L9.708,5 C9.362,4.416 8.731,4.021 8,4.021 C6.902,4.021 6.011,4.908 6.011,6 C6.011,6.009 6.013,6.018 6.014,6.026 L3.962,7.256 C3.676,7.097 3.351,6.999 3.001,6.999 C1.897,6.999 1.001,7.895 1.001,8.999 C1.001,10.103 1.897,10.999 3.001,10.999 C4.105,10.999 5.001,10.103 5.001,8.999 C5.001,8.988 4.998,8.978 4.998,8.967 L7.058,7.732 C7.339,7.884 7.658,7.979 8,7.979 C8.731,7.979 9.362,7.583 9.708,7 L13.315,7 C13.659,7.596 14.291,8 15.021,8 C16.114,8 17,7.105 17,6 C17,4.895 16.113,4 15.021,4 L15.021,4 Z" fill="#434343" class="si-glyph-fill"></path>
    </g>
</svg>