<!--?xml version="1.0" encoding="UTF-8" standalone="no"?-->
<svg viewBox="0 0 16 16" version="1.1" xmlns="http://www.w3.org/2000/svg" xmlns:xlink="http://www.w3.org/1999/xlink" class="si-glyph si-glyph-map-square">
    <!-- Generator: Sketch 3.0.3 (7891) - http://www.bohemiancoding.com/sketch -->
    <title>175</title>
    
    <defs></defs>
    <g stroke="none" stroke-width="1" fill="none" fill-rule="evenodd">
        <g fill="#434343">
            <path d="M15.938,6.234 L15.938,3.184 L14.418,4.709 L15.938,6.234 Z" class="si-glyph-fill"></path>
            <path d="M10.324,3.375 L6.84,6.872 L8.897,8.931 L12.383,5.434 L10.324,3.375 Z" class="si-glyph-fill"></path>
            <path d="M13.133,6.207 L9.682,9.671 L11.758,11.733 L15.209,8.268 L13.133,6.207 Z" class="si-glyph-fill"></path>
            <path d="M0.042,10.792 L3.925,6.875 L1.82,4.771 L0.083,6.5 L0.042,10.792 Z" class="si-glyph-fill"></path>
            <path d="M0.026,4.91 L1.388,3.546 L0.026,2.186 L0.026,4.91 Z" class="si-glyph-fill"></path>
            <path d="M1.227,0.007 C0.905,0.007 0.616,0.148 0.413,0.367 L2.475,2.435 L4.903,0.007 L1.227,0.007 L1.227,0.007 Z" class="si-glyph-fill"></path>
            <path d="M5.387,5.408 L8.695,2.09 L6.609,0 L6.594,0 L3.289,3.305 L5.387,5.408 Z" class="si-glyph-fill"></path>
            <path d="M14.883,0.062 L8.485,0.054 L9.581,1.15 L10.282,0.449 L13.819,3.986 L15.967,1.831 L15.99,1.172 C15.988,0.559 15.495,0.062 14.883,0.062 L14.883,0.062 Z" class="si-glyph-fill"></path>
            <path d="M14.841,15.941 C15.457,15.941 15.954,15.441 15.954,14.824 L15.955,10.309 L10.324,15.941 L14.841,15.941 L14.841,15.941 Z" class="si-glyph-fill"></path>
            <path d="M0.177,14.855 C0.177,15.472 0.674,15.972 1.291,15.971 L7.531,15.972 L8.337,15.13 L4.815,11.595 L5.583,10.864 L9.105,14.398 L10.274,13.219 L5.378,8.306 L0.176,13.507 L0.177,14.855 L0.177,14.855 Z" class="si-glyph-fill"></path>
        </g>
    </g>
</svg>