
<svg viewBox="0 0 17 16" version="1.1" xmlns="http://www.w3.org/2000/svg" xmlns:xlink="http://www.w3.org/1999/xlink" class="si-glyph si-glyph-no-smoke"><title>1019</title><defs></defs><g stroke="none" stroke-width="1" fill="none" fill-rule="evenodd"><g transform="translate(1.000000, 0.000000)" fill="#434343"><rect x="3" y="8" width="1.973" height="0.965" class="si-glyph-fill"></rect><rect x="6" y="8" width="5.938" height="0.923" class="si-glyph-fill"></rect><path d="M11.816,5.963 C11.457,5.693 11.123,5.631 10.722,5.515 C9.837,5.259 9.441,4.215 9.4,3.401 C9.283,3.947 9.34,4.499 9.415,4.86 C9.525,5.402 9.829,5.911 10.318,6.184 C10.73,6.411 11.276,6.43 11.716,6.656 C12.142,6.873 12.496,7.165 12.623,7.348 C12.624,7.348 12.394,6.398 11.816,5.963 L11.816,5.963 Z" class="si-glyph-fill"></path><path d="M7.995,0.067 C3.603,0.067 0.031,3.63 0.031,8.013 C0.031,12.394 3.603,15.957 7.995,15.957 C12.385,15.957 15.958,12.394 15.958,8.013 C15.958,3.631 12.385,0.067 7.995,0.067 L7.995,0.067 Z M15.106,8.09 C15.106,9.793 14.505,11.357 13.505,12.586 L3.467,2.534 C4.696,1.542 6.255,0.943 7.955,0.943 C11.898,0.943 15.106,4.148 15.106,8.09 L15.106,8.09 Z M0.967,7.986 C0.967,6.266 1.582,4.686 2.602,3.458 L12.563,13.451 C11.337,14.468 9.765,15.079 8.051,15.079 C4.144,15.079 0.967,11.896 0.967,7.986 L0.967,7.986 Z" class="si-glyph-fill"></path></g></g></svg>