<!--?xml version="1.0" encoding="UTF-8" standalone="no"?-->
<svg viewBox="0 0 16 16" version="1.1" xmlns="http://www.w3.org/2000/svg" xmlns:xlink="http://www.w3.org/1999/xlink" class="si-glyph si-glyph-bubble-chat">
    <!-- Generator: Sketch 3.0.3 (7891) - http://www.bohemiancoding.com/sketch -->
    <title>116</title>
    
    <defs></defs>
    <g stroke="none" stroke-width="1" fill="none" fill-rule="evenodd">
        <g fill="#434343">
            <path d="M2.701,14.927 L3.752,10.929 L2.299,10.929 C1.059,10.929 0,9.944 0,8.672 L0,2.303 C0,1.033 1.011,0 2.252,0 L13.748,0 C14.989,0 16,1.033 16,2.303 L16,8.672 C16,9.943 15.037,10.929 13.797,10.929 L7.983,10.929 L2.701,14.927 L2.701,14.927 Z M0.959,2.513 L0.959,8.565 C0.959,9.445 1.66200031,10.0168455 2.52500031,10.0168455 L4.82200031,10.0168455 L4.052,12.886 L7.53400031,10.0168455 L13.5140003,10.0168455 C14.3790003,10.0168455 15.082,9.445 15.082,8.565 L15.082,2.513 C15.082,1.634 14.379,0.918 13.514,0.918 L2.525,0.918 C1.662,0.918 0.959,1.634 0.959,2.513 Z" class="si-glyph-fill"></path>
            <path d="M12.625,8.946 L3.344,8.946 C2.348,8.946 2.049,8.527 2.049,7.562 L2.049,3.468 C2.049,2.505 2.41000021,2.04162598 3.40600021,2.04162598 L12.6250002,2.04162598 C13.6230002,2.04162598 13.939,2.599 13.939,3.561 L13.939,7.531 C13.938,8.496 13.623,8.946 12.625,8.946 Z" class="si-glyph-fill"></path>
        </g>
    </g>
</svg>