<!--?xml version="1.0" encoding="UTF-8" standalone="no"?-->
<svg viewBox="0 0 16 16" version="1.1" xmlns="http://www.w3.org/2000/svg" xmlns:xlink="http://www.w3.org/1999/xlink" class="si-glyph si-glyph-christmass-ball">
    <!-- Generator: Sketch 3.0.3 (7891) - http://www.bohemiancoding.com/sketch -->
    <title>Christmass-ball</title>
    
    <defs></defs>
    <g stroke="none" stroke-width="1" fill="none" fill-rule="evenodd">
        <g transform="translate(0.000000, 1.000000)" fill="#434343">
            <path d="M8.346,1.287 C7.309,1.004 6.241,0.969 5.231,1.166 L13.836,9.713 C14.031,8.717 13.999,7.665 13.721,6.641 C13.648,6.372 8.598,1.354 8.346,1.287 L8.346,1.287 Z" class="si-glyph-fill"></path>
            <path d="M2.178,12.826 C4.31,14.944 7.393,15.486 9.889,14.428 L0.567,5.17 C-0.5,7.647 0.047,10.709 2.178,12.826 L2.178,12.826 Z" class="si-glyph-fill"></path>
            <path d="M2.033,3.06 C1.762,3.329 1.53,3.62 1.32,3.921 L11.144,13.678 C11.447,13.47 11.742,13.24 12.011,12.972 C12.554,12.432 12.964,11.808 13.264,11.144 L3.874,1.816 C3.203,2.112 2.576,2.52 2.033,3.06 L2.033,3.06 Z M9.958,9.972 L11.043,9.972 L11.043,11.027 L9.958,11.027 L9.958,9.972 L9.958,9.972 Z M7.958,7.964 L9.043,7.964 L9.043,9.062 L7.958,9.062 L7.958,7.964 L7.958,7.964 Z M5.958,5.978 L7.043,5.978 L7.043,7.054 L5.958,7.054 L5.958,5.978 L5.958,5.978 Z M3.958,3.908 L5.043,3.908 L5.043,5.047 L3.958,5.047 L3.958,3.908 L3.958,3.908 Z" class="si-glyph-fill"></path>
            <path d="M10.043,1.896 L13.785,5.672 L15.336,4.109 L11.592,0.332 L10.043,1.896 Z" class="si-glyph-fill"></path>
            <path d="M14.127,-0.302 C13.279,-0.302 12.568,0.278 12.344,1.066 L12.942,1.659 C12.94,1.636 12.934,1.615 12.934,1.592 C12.933,0.922 13.469,0.38 14.127,0.381 C14.787,0.381 15.32,0.922 15.32,1.592 C15.32,2.26 14.787,2.802 14.127,2.802 C14.113,2.802 14.102,2.798 14.086,2.797 L14.682,3.39 C15.439,3.149 15.994,2.439 15.994,1.591 C15.994,0.547 15.156,-0.302 14.127,-0.302 L14.127,-0.302 Z" class="si-glyph-fill"></path>
        </g>
    </g>
</svg>