<!--?xml version="1.0" encoding="UTF-8" standalone="no"?-->
<svg viewBox="0 0 17 16" version="1.1" xmlns="http://www.w3.org/2000/svg" xmlns:xlink="http://www.w3.org/1999/xlink" class="si-glyph si-glyph-balance">
    <!-- Generator: Sketch 3.0.3 (7891) - http://www.bohemiancoding.com/sketch -->
    <title>892</title>
    
    <defs></defs>
    <g stroke="none" stroke-width="1" fill="none" fill-rule="evenodd">
        <g transform="translate(1.000000, 1.000000)" fill="#434343">
            <g>
                <path d="M9.953,13 L5.016,13 L5.016,14.031 L4,14.031 L4,15 L11,15 L11,14.031 L9.953,14.031 L9.953,13 Z" class="si-glyph-fill"></path>
                <path d="M7.016,3 L7.016,11.953 L7.969,11.953 L7.969,3 L12.5,3 L7.969,1.833 L7.969,0.016 L7.016,0.016 L7.016,1.833 L2.469,3 L7.016,3 Z" class="si-glyph-fill"></path>
                <path d="M2.492,4.979 L4.392,8.984 L4.958,8.777 L2.733,4.168 C2.68,4.07 2.576,4.008 2.435,4.016 C2.307,4.021 2.196,4.091 2.156,4.191 L0.012,8.8 L0.6,8.962 L2.492,4.979 L2.492,4.979 Z" class="si-glyph-fill"></path>
                <path d="M12.182,4.195 L10.024,8.814 L10.616,8.976 L12.518,4.986 L14.43,9 L15,8.792 L12.762,4.173 C12.709,4.076 12.602,4.014 12.463,4.022 C12.333,4.025 12.223,4.097 12.182,4.195 L12.182,4.195 Z" class="si-glyph-fill"></path>
            </g>
            <path d="M14.984,10.031 C14.984,11.092 13.872,11.953 12.5,11.953 C11.128,11.953 10.016,11.092 10.016,10.031 L14.984,10.031 L14.984,10.031 Z" class="si-glyph-fill"></path>
            <path d="M4.984,10.031 C4.984,11.092 3.872,11.953 2.5,11.953 C1.128,11.953 0.016,11.092 0.016,10.031 L4.984,10.031 L4.984,10.031 Z" class="si-glyph-fill"></path>
        </g>
    </g>
</svg>