
<svg viewBox="0 0 17 16" version="1.1" xmlns="http://www.w3.org/2000/svg" xmlns:xlink="http://www.w3.org/1999/xlink" class="si-glyph si-glyph-trolley-remove"><title>766</title><defs></defs><g stroke="none" stroke-width="1" fill="none" fill-rule="evenodd"><g transform="translate(1.000000, 1.000000)"><g transform="translate(3.000000, 11.000000)" fill="#434343"><circle cx="1.437" cy="1.437" r="1.437" class="si-glyph-fill"></circle><ellipse cx="7.452" cy="1.485" rx="1.452" ry="1.485" class="si-glyph-fill"></ellipse></g><rect fill="#434343" x="13" y="10" width="3" height="0.958" class="si-glyph-fill"></rect><rect x="5" y="7" width="2.062" height="2.078"></rect><path d="M4.031,3.971 L1.52,3.971 L1.834,6.037 L4.031,6.037 L4.031,3.971 Z" class=""></path><rect x="5" y="4" width="2.078" height="2.094"></rect><rect x="8" y="4" width="2.047" height="2.047"></rect><path d="M13.078,3.969 L11,3.969 L11,6.109 L12.746,6.109 L13.078,3.969 Z" class=""></path><path d="M2.17,8.994 L4.043,8.994 L4.043,6.959 L1.861,6.959 L2.17,8.994 Z" class=""></path><rect x="8" y="7" width="2.062" height="2.094"></rect><path d="M2.563,11.046 C2.244,11.046 2.062,11.102 2.062,11.469 C2.062,11.836 2.244,11.943 2.563,11.943 L11.979,11.944 L11.979,11.047 L2.563,11.047 L2.563,11.046 Z" fill="#434343" class="si-glyph-fill"></path><path d="M10.969,9.031 L10.969,6.984 L12.875,6.984 L12.594,8.979 L13.739,8.979 L14.514,2.995 C14.571,3.002 14.625,3.013 14.684,3.013 C15.399,3.013 15.979,2.413 15.979,1.675 C15.979,0.936 15.399,0.337 14.684,0.337 C13.967,0.337 13.387,0.936 13.387,1.675 L13.215,3.018 L0.557,3.018 C0.239,3.018 0.016,3.305 0.016,3.672 C0.016,3.811 0.026,3.942 0.088,4.047 L1.299,9.501 C1.339,9.673 1.467,9.8 1.63,9.87 C1.711,9.919 1.798,9.953 1.895,9.953 L11.98,9.953 L11.98,9.031 L10.969,9.031 L10.969,9.031 Z M11,3.969 L13.078,3.969 L12.746,6.11 L11,6.11 L11,3.969 L11,3.969 Z M7.969,3.969 L10.016,3.969 L10.016,6.016 L7.969,6.016 L7.969,3.969 L7.969,3.969 Z M1.52,3.971 L4.032,3.971 L4.032,6.037 L1.835,6.037 L1.52,3.971 L1.52,3.971 Z M4.043,8.994 L2.17,8.994 L1.861,6.959 L4.043,6.959 L4.043,8.994 L4.043,8.994 Z M7.031,9.047 L4.969,9.047 L4.969,6.969 L7.031,6.969 L7.031,9.047 L7.031,9.047 Z M7.031,6.047 L4.953,6.047 L4.953,3.953 L7.031,3.953 L7.031,6.047 L7.031,6.047 Z M10.031,9.047 L7.969,9.047 L7.969,6.953 L10.031,6.953 L10.031,9.047 L10.031,9.047 Z" fill="#434343" class="si-glyph-fill"></path></g></g></svg>