<!--?xml version="1.0" encoding="UTF-8" standalone="no"?-->
<svg viewBox="0 0 17 16" version="1.1" xmlns="http://www.w3.org/2000/svg" xmlns:xlink="http://www.w3.org/1999/xlink" class="si-glyph si-glyph-gate">
    <!-- Generator: Sketch 3.0.3 (7891) - http://www.bohemiancoding.com/sketch -->
    <title>697</title>
    
    <defs></defs>
    <g stroke="none" stroke-width="1" fill="none" fill-rule="evenodd">
        <path d="M15.589,7.076 L13.788,7.076 L13.166,3.953 L14.384,3.953 C14.662,3.953 14.906,3.801 14.906,3.628 L14.906,2.326 C14.906,2.153 14.662,2.001 14.384,2.001 L2.538,2.001 C2.26,2.001 2.016,2.153 2.016,2.326 L2.016,3.628 C2.016,3.801 2.26,3.953 2.538,3.953 L3.868,3.953 L3.263,7.076 L1.411,7.076 C1.183,7.076 1,7.217 1,7.39 L1,8.65 C1,8.824 1.184,8.964 1.411,8.964 L2.897,8.964 L2.066,13.252 C2.021,13.432 2.131,13.614 2.311,13.659 L3.612,13.983 C3.638,13.989 3.668,13.993 3.694,13.993 C3.848,13.993 3.982,13.888 4.026,13.717 L4.947,8.964 L12.11,8.964 L13.033,13.598 C13.07,13.748 13.205,13.853 13.359,13.853 C13.384,13.853 13.414,13.85 13.439,13.843 L14.742,13.519 C14.922,13.474 15.031,13.292 14.993,13.134 L14.163,8.964 L15.589,8.964 C15.817,8.964 16,8.823 16,8.65 L16,7.39 C16,7.217 15.816,7.076 15.589,7.076 L15.589,7.076 Z M5.313,7.076 L5.918,3.953 L11.112,3.953 L11.734,7.076 L5.313,7.076 L5.313,7.076 Z" fill="#434343" class="si-glyph-fill"></path>
    </g>
</svg>