<!--?xml version="1.0" encoding="UTF-8" standalone="no"?-->
<svg viewBox="0 0 17 16" version="1.1" xmlns="http://www.w3.org/2000/svg" xmlns:xlink="http://www.w3.org/1999/xlink" class="si-glyph si-glyph-helicopter">
    <!-- Generator: Sketch 3.0.3 (7891) - http://www.bohemiancoding.com/sketch -->
    <title>709</title>
    
    <defs></defs>
    <g stroke="none" stroke-width="1" fill="none" fill-rule="evenodd">
        <g transform="translate(1.000000, 4.000000)" fill="#434343">
            <path d="M2.276,5.667 C1.021,5.667 0.001,4.629 0.001,3.355 C0.001,2.08 1.022,1.043 2.276,1.043 C2.72,1.043 3.15,1.173 3.52,1.419 L3.156,1.964 C2.895,1.79 2.591,1.698 2.276,1.698 C1.383,1.698 0.657,2.441 0.657,3.355 C0.657,4.268 1.384,5.012 2.276,5.012 L2.276,5.667 L2.276,5.667 Z" class="si-glyph-fill"></path>
            <path d="M15.254,0.052 C15.254,0.052 10.531,0.214 10.531,0.414 L10.531,0.546 L10.488,0.546 L10.488,0.414 C10.488,0.214 5.767,0.052 5.767,0.052 C5.377,0.052 5.062,0.214 5.062,0.414 L5.062,0.619 C5.062,0.818 5.377,0.98 5.767,0.98 C5.767,0.98 8.871,0.873 10.044,0.727 L10.044,2.916 L10.966,2.916 L10.966,0.726 C12.135,0.873 15.253,0.98 15.253,0.98 C15.643,0.98 15.958,0.818 15.958,0.619 L15.958,0.414 C15.959,0.214 15.644,0.052 15.254,0.052 L15.254,0.052 Z" class="si-glyph-fill"></path>
            <path d="M13.778,10.948 L7.863,10.948 C6.652,10.948 5.021,10.044 5.021,9.328 C5.021,9.155 5.173,9.016 5.361,9.016 C5.549,9.016 5.701,9.156 5.701,9.328 C5.701,9.637 7.015,10.116 7.863,10.116 L13.778,10.116 C14.625,10.116 15.258,9.641 15.258,9.334 C15.258,9.161 15.411,9.022 15.597,9.022 C15.785,9.022 15.938,9.162 15.938,9.334 C15.938,10.049 14.99,10.948 13.778,10.948 L13.778,10.948 Z" class="si-glyph-fill"></path>
            <path d="M11.59,2.125 C10.336,2.125 8.698,2.513 7.412,3.003 L1.955,3.003 C1.611,3.003 1.333,3.285 1.333,3.633 L2.031,3.861 C2.031,4.208 2.309,4.49 2.653,4.49 L6.101,5.356 C7.107,6.866 7.818,8.918 11.589,8.918 C13.997,8.918 15.948,7.431 15.948,5.595 C15.948,3.759 13.998,2.125 11.59,2.125 L11.59,2.125 Z M12.149,6.053 C11.468,6.053 10.92,5.334 10.92,4.448 C10.92,3.563 10.764,2.844 11.442,2.844 C12.125,2.844 14.168,3.563 14.168,4.448 C14.168,6.172 12.83,6.053 12.149,6.053 L12.149,6.053 Z" class="si-glyph-fill"></path>
        </g>
    </g>
</svg>