
<svg viewBox="0 0 16 16" version="1.1" xmlns="http://www.w3.org/2000/svg" xmlns:xlink="http://www.w3.org/1999/xlink" class="si-glyph si-glyph-webcam"><title>651</title><defs></defs><g stroke="none" stroke-width="1" fill="none" fill-rule="evenodd"><g transform="translate(2.000000, 1.000000)" fill="#434343"><g><ellipse cx="5.967" cy="5.979" rx="1.967" ry="1.979" class="si-glyph-fill"></ellipse><path d="M7.598,0.00101832972 C7.6,0.0356415403 7.612,0.0692464211 7.612,0.105906291 C7.61,0.788187205 6.887,1.34012191 5.994,1.34012191 C5.102,1.33910358 4.379,0.785132216 4.379,0.101832972 C4.379,0.0672097616 4.389,0.0346232105 4.393,0 C1.864,0.713849135 0.00300000006,3.07230077 0.00100000006,5.88085414 C-0.00299999994,9.2576355 2.678,11.9979608 5.985,11.9999974 C9.295,12.0030524 11.979,9.2678188 11.981,5.89205577 C11.982,3.08248407 10.125,0.719959113 7.598,0.00101832972 L7.598,0.00101832972 Z M2.00000058,5.99650333 C2.00117291,3.78723568 3.79484205,1.9976706 6.003517,2.00000228 C8.21336428,2.00116812 10.0011718,3.79423073 9.99999942,6.00466421 C9.99882709,8.21393186 8.20515795,10.0011653 5.996483,9.99999943 C3.78663572,9.99766775 1.99882824,8.20577098 2.00000058,5.99650333 Z" class="si-glyph-fill"></path></g><path d="M5.958,13.25 C4.516,13.25 3.175,12.828 2.041,12.108 L0.217,13.919 C-0.072,14.205 -0.072,14.671 0.217,14.958 L11.748,14.906 C12.037,14.619 12.037,14.153 11.75,13.867 L9.943,12.067 C8.795,12.812 7.428,13.25 5.958,13.25 Z" class="si-glyph-fill"></path></g></g></svg>