<!--?xml version="1.0" encoding="UTF-8" standalone="no"?-->
<svg viewBox="0 0 17 16" version="1.1" xmlns="http://www.w3.org/2000/svg" xmlns:xlink="http://www.w3.org/1999/xlink" class="si-glyph si-glyph-umbrella-open">
    <!-- Generator: Sketch 3.0.3 (7891) - http://www.bohemiancoding.com/sketch -->
    <title>1000</title>
    
    <defs></defs>
    <g stroke="none" stroke-width="1" fill="none" fill-rule="evenodd">
        <g transform="translate(2.000000, 0.000000)" fill="#434343">
            <path d="M14.98,7.984 C14.98,4.221 11.82,1.325 7.968,1.031 L7.968,0.468 C7.968,0.21 7.798,0.000999999989 7.521,0.000999999989 C7.244,0.000999999989 7.031,0.21 7.031,0.468 L7.031,1.023 C3.09,1.228 0.013,4.162 0.013,7.985 L0.968,7.985 L0.968,6.969 L2.03,6.969 L2.03,7.985 L3.968,7.985 L3.968,6.969 L5.048,6.969 L5.048,7.985 L6.952,7.985 L6.952,6.969 L8.046,6.969 L8.03,7.985 L9.979,7.985 L9.979,6.969 L10.999,6.969 L10.999,7.985 L12.937,7.985 L12.937,6.969 L14.015,6.969 L14.015,7.985 L14.98,7.985 L14.98,7.984 Z" class="si-glyph-fill"></path>
            <path d="M7.02093514,14.2019997 C7.02093514,14.6809997 6.5130898,15.0183716 6.0170898,15.0183716 C5.7010898,15.0183716 4.98193359,15.0016206 4.98193359,14.5236206 C4.98193359,14.2666206 4.76593359,14.0576206 4.50293359,14.0576206 C4.23793359,14.0576206 4.02393359,14.2666206 4.02393359,14.5236206 C4.02393359,15.5146206 4.9940898,15.9971313 6.0170898,15.9971313 C7.0420898,15.9971313 7.99523934,15.1939998 7.99523934,14.2019998 L7.99523934,8.03259277 L7.02093514,8.03259277 L7.02093514,14.2019997 Z" class="si-glyph-fill"></path>
        </g>
    </g>
</svg>