
<svg viewBox="0 0 17 16" version="1.1" xmlns="http://www.w3.org/2000/svg" xmlns:xlink="http://www.w3.org/1999/xlink" class="si-glyph si-glyph-tennis-racket-ball"><title>719</title><defs></defs><g stroke="none" stroke-width="1" fill="none" fill-rule="evenodd"><g transform="translate(1.000000, 0.000000)" fill="#434343"><circle cx="13.953" cy="13.953" r="1.953" class="si-glyph-fill"></circle><path d="M14.754,1.265 C12.76,-0.733 9.038,-0.26 6.462,2.32 C4.895,3.884 4.111,5.875 4.182,7.641 C4.095,7.72 4.047,7.839 4.076,7.968 C4.538,10.066 2.698,12.224 2.678,12.247 C2.654,12.275 2.636,12.309 2.624,12.343 L0.244,14.723 C-0.044,15.011 -0.055,15.467 0.22,15.743 L0.242,15.763 C0.514,16.038 0.972,16.028 1.259,15.738 L3.714,13.286 C3.881,13.159 6.249,11.415 7.954,11.9 C8.067,11.933 8.177,11.903 8.26,11.838 C10.057,11.949 12.101,11.161 13.702,9.558 C16.278,6.981 16.75,3.26 14.754,1.265 L14.754,1.265 Z M6.225,9.84 C5.969,9.585 5.773,9.29 5.621,8.971 L6.976,7.615 L8.405,9.045 L7.035,10.416 C6.738,10.267 6.463,10.079 6.225,9.84 L6.225,9.84 Z M7.684,6.909 L9.098,5.493 L10.528,6.923 L9.112,8.337 L7.684,6.909 L7.684,6.909 Z M9.111,4.095 L7.652,2.636 C8.19,2.163 8.769,1.789 9.361,1.515 L10.527,2.68 L9.111,4.095 L9.111,4.095 Z M11.219,3.372 L12.649,4.802 L11.234,6.216 L9.805,4.788 L11.219,3.372 L11.219,3.372 Z M6.945,3.341 L8.405,4.802 L6.99,6.216 L5.825,5.05 C6.1,4.46 6.473,3.88 6.945,3.341 L6.945,3.341 Z M11.219,7.615 L12.723,9.118 C12.185,9.591 11.605,9.964 11.014,10.239 L9.805,9.03 L11.219,7.615 L11.219,7.615 Z M11.926,6.909 L13.341,5.493 L14.549,6.702 C14.276,7.294 13.902,7.874 13.429,8.411 L11.926,6.909 L11.926,6.909 Z M14.926,5.667 L14.047,4.788 L15.055,3.779 C15.143,4.372 15.096,5.017 14.926,5.667 L14.926,5.667 Z M14.15,1.914 C14.388,2.153 14.576,2.428 14.724,2.725 L13.354,4.095 L11.925,2.666 L13.28,1.312 C13.6,1.462 13.895,1.659 14.15,1.914 L14.15,1.914 Z M12.205,1.001 L11.233,1.974 L10.397,1.138 C11.02,0.976 11.633,0.929 12.205,1.001 L12.205,1.001 Z M5.449,6.087 L6.283,6.923 L5.31,7.896 C5.239,7.323 5.285,6.71 5.449,6.087 L5.449,6.087 Z M3.898,12.312 C3.875,12.279 3.862,12.241 3.834,12.212 L3.813,12.191 C3.784,12.162 3.747,12.15 3.714,12.127 C4.077,11.584 4.549,10.734 4.765,9.752 C4.944,10.071 5.163,10.369 5.43,10.635 C5.68,10.886 5.956,11.098 6.256,11.272 C5.322,11.498 4.457,11.962 3.898,12.312 L3.898,12.312 Z M8.09,10.745 L9.098,9.736 L9.977,10.615 C9.326,10.786 8.682,10.833 8.09,10.745 L8.09,10.745 Z" class="si-glyph-fill"></path></g></g></svg>