<!--?xml version="1.0" encoding="UTF-8" standalone="no"?-->
<svg viewBox="0 0 17 16" version="1.1" xmlns="http://www.w3.org/2000/svg" xmlns:xlink="http://www.w3.org/1999/xlink" class="si-glyph si-glyph-tree">
    <!-- Generator: Sketch 3.0.3 (7891) - http://www.bohemiancoding.com/sketch -->
    <title>929</title>
    
    <defs></defs>
    <g stroke="none" stroke-width="1" fill="none" fill-rule="evenodd">
        <path d="M14.779,12.18 L11.795,8.501 C11.795,8.501 13.396,8.937 13.57,8.937 C14.035,8.937 13.765,8.42 13.57,8.223 L11.185,5.192 C11.185,5.192 12.333,4.918 12.75,4.918 C13.168,4.918 12.947,4.401 12.75,4.204 L9.4,0.061 C9.203,-0.136 8.883,-0.136 8.686,0.061 L5.291,4.161 C5.093,4.358 4.805,4.876 5.291,4.876 C5.777,4.876 6.913,5.192 6.913,5.192 L4.325,8.079 C4.127,8.276 3.768,8.793 4.325,8.793 C4.644,8.793 6.275,8.502 6.275,8.502 L3.317,12.189 C3.12,12.385 2.76,12.903 3.317,12.903 C3.874,12.903 8.008,11.896 8.008,11.896 L8.008,14.941 C8.008,15.478 8.444,15.914 8.983,15.914 C9.52,15.914 9.998,15.478 9.998,14.941 L9.998,11.896 C9.998,11.896 14.373,12.895 14.778,12.895 C15.183,12.895 14.976,12.376 14.779,12.18 L14.779,12.18 Z" fill="#434343" class="si-glyph-fill"></path>
    </g>
</svg>