<!--?xml version="1.0" encoding="UTF-8" standalone="no"?-->
<svg viewBox="0 0 17 16" version="1.1" xmlns="http://www.w3.org/2000/svg" xmlns:xlink="http://www.w3.org/1999/xlink" class="si-glyph si-glyph-pill">
    <!-- Generator: Sketch 3.0.3 (7891) - http://www.bohemiancoding.com/sketch -->
    <title>814</title>
    
    <defs></defs>
    <g stroke="none" stroke-width="1" fill="none" fill-rule="evenodd">
        <path d="M15.897,1.731 L15.241,1.074 C13.887,-0.281 11.745,-0.341 10.46,0.944 L1.957,9.446 C0.673,10.731 0.733,12.871 2.09,14.228 L2.744,14.882 C4.101,16.239 6.242,16.3 7.527,15.016 L16.03,6.511 C17.314,5.229 17.254,3.088 15.897,1.731 L15.897,1.731 Z M11.086,10.164 L6.841,5.917 L11.049,1.709 C11.994,0.765 13.581,0.811 14.584,1.816 L15.188,2.417 C15.678,2.91 15.959,3.552 15.975,4.226 C15.991,4.888 15.75,5.502 15.295,5.955 L11.086,10.164 L11.086,10.164 Z" fill="#434343" class="si-glyph-fill"></path>
    </g>
</svg>