
<svg viewBox="0 0 16 16" version="1.1" xmlns="http://www.w3.org/2000/svg" xmlns:xlink="http://www.w3.org/1999/xlink" class="si-glyph si-glyph-airplane-2"><title>644</title><defs></defs><g stroke="none" stroke-width="1" fill="none" fill-rule="evenodd"><g transform="translate(0.000000, 1.000000)" fill="#434343"><ellipse cx="7.98" cy="7.904" rx="1.98" ry="1.904" class="si-glyph-fill"></ellipse><path d="M3.754,2.492 C4.551,3.38 5.079,4.227 4.936,4.387 C4.793,4.545 4.032,3.956 3.235,3.07 C2.44,2.183 1.91,1.335 2.053,1.175 C2.195,1.016 2.957,1.605 3.754,2.492 L3.754,2.492 Z" class="si-glyph-fill"></path><path d="M12.777,3.069 C11.98,3.956 11.218,4.546 11.076,4.386 C10.933,4.226 11.462,3.379 12.259,2.491 C13.056,1.604 13.817,1.014 13.959,1.174 C14.101,1.334 13.572,2.183 12.777,3.069 L12.777,3.069 Z" class="si-glyph-fill"></path><path d="M5.997,14.441 C5.997,14.708 5.777,14.922 5.507,14.922 L5.507,14.922 C5.235,14.922 5.016,14.707 5.016,14.441 L5.016,13.517 C5.016,13.251 5.235,13.038 5.507,13.038 L5.507,13.038 C5.778,13.038 5.997,13.252 5.997,13.517 L5.997,14.441 L5.997,14.441 Z" class="si-glyph-fill"></path><path d="M10.977,14.496 C10.977,14.767 10.769,14.985 10.512,14.985 L10.512,14.985 C10.256,14.985 10.047,14.767 10.047,14.496 L10.047,13.558 C10.047,13.287 10.256,13.07 10.512,13.07 L10.512,13.07 C10.769,13.07 10.977,13.288 10.977,13.558 L10.977,14.496 L10.977,14.496 Z" class="si-glyph-fill"></path><path d="M15.957,0.496 C15.957,1.314 15.387,1.978 14.682,1.978 L1.304,1.978 C0.6,1.978 0.03,1.314 0.03,0.496 L0.03,0.496 C0.03,0.496 -0.165,0.077 1.304,0.077 L14.682,0.077 C16.055,0.077 15.957,0.496 15.957,0.496 L15.957,0.496 L15.957,0.496 Z" class="si-glyph-fill"></path><path d="M8.035,5.072 C9.646,5.072 10.361,5.915 10.361,5.915 L12.951,5.915 C12.351,4.254 10.354,3.033 7.978,3.033 C5.601,3.033 3.605,4.254 3.005,5.915 L5.704,5.915 C5.705,5.915 6.418,5.072 8.035,5.072 L8.035,5.072 Z" class="si-glyph-fill"></path><path d="M8.045,10.965 C6.209,10.965 5.707,10.031 5.707,10.031 L3,10.031 C3.607,11.741 5.609,12.999 7.989,12.999 C10.369,12.999 12.373,11.741 12.979,10.031 L10.382,10.031 C10.383,10.031 9.879,10.965 8.045,10.965 L8.045,10.965 Z" class="si-glyph-fill"></path><path d="M6,8.935 C6,8.935 1.045,9.266 1.045,8.126 C1.045,6.981 6,7.049 6,7.049 L6,8.935 L6,8.935 Z" class="si-glyph-fill"></path><path d="M10.121,7.034 C10.121,7.034 14.937,6.831 14.937,7.981 C14.937,9.132 10.121,8.928 10.121,8.928 L10.121,7.034 L10.121,7.034 Z" class="si-glyph-fill"></path></g></g></svg>