<!--?xml version="1.0" encoding="UTF-8" standalone="no"?-->
<svg viewBox="0 0 16 16" version="1.1" xmlns="http://www.w3.org/2000/svg" xmlns:xlink="http://www.w3.org/1999/xlink" class="si-glyph si-glyph-cloud-cloud">
    <!-- Generator: Sketch 3.0.3 (7891) - http://www.bohemiancoding.com/sketch -->
    <title>754</title>
    
    <defs></defs>
    <g stroke="none" stroke-width="1" fill="none" fill-rule="evenodd">
        <g transform="translate(0.000000, 4.000000)" fill="#434343">
            <path d="M8.037,2.286 C8.995,2.286 9.84,2.829 10.357,3.52 C10.524,3.453 10.701,3.409 10.888,3.409 C11.348,3.409 11.757,3.634 12.054,3.99 L15.941,3.99 C15.941,3.073 15.239,2.329 14.371,2.329 C14.36,2.329 14.349,2.332 14.337,2.332 C14.141,1.022 13.072,0.017 11.778,0.017 C10.861,0.017 10.058,0.524 9.596,1.284 C9.462,1.262 9.325,1.246 9.185,1.246 C8.453,1.246 7.794,1.482 7.325,2 C7.418,2.103 7.509,2.209 7.586,2.325 C7.734,2.302 7.884,2.286 8.037,2.286 L8.037,2.286 Z" class="si-glyph-fill"></path>
            <path d="M11.506,5.41 C11.208,5.016 10.797,4.766 10.334,4.766 C10.146,4.766 9.969,4.815 9.801,4.889 C9.281,4.124 8.432,3.625 7.469,3.625 C7.314,3.625 7.164,3.641 7.016,3.666 C6.938,3.537 6.848,3.419 6.752,3.306 C6.227,2.678 5.559,2.049 4.701,2.049 C3.271,2.049 1.992,3.379 1.776,4.817 C1.763,4.816 1.752,4.813 1.738,4.813 C0.78,4.813 0.004,5.953 0.004,6.958 L11.973,6.958 C11.926,6.482 11.754,5.735 11.506,5.41 L11.506,5.41 Z" class="si-glyph-fill"></path>
        </g>
    </g>
</svg>