<!--?xml version="1.0" encoding="UTF-8" standalone="no"?-->
<svg viewBox="0 0 16 16" version="1.1" xmlns="http://www.w3.org/2000/svg" xmlns:xlink="http://www.w3.org/1999/xlink" class="si-glyph si-glyph-hammer">
    <!-- Generator: Sketch 3.0.3 (7891) - http://www.bohemiancoding.com/sketch -->
    <title>164</title>
    
    <defs></defs>
    <g stroke="none" stroke-width="1" fill="none" fill-rule="evenodd">
        <g fill="#434343">
            <path d="M14.216,14.949 C14.748,15.482 15.075,15.103 15.511,14.668 C15.947,14.232 16.326,13.904 15.795,13.372 C15.795,13.372 8.156,5.74 6.327,3.917 L4.75,5.494 L14.216,14.949 L14.216,14.949 Z" class="si-glyph-fill"></path>
            <path d="M2.048,7.015 L2.662,6.411 C2.662,6.411 2.391,5.668 2.788,5.312 C3.185,4.956 3.855,5.176 3.855,5.176 L6.01,3.093 C6.01,3.093 5.859,2.01 6.059,1.81 C6.259,1.61 8.493,0.521 8.71,0.303 L8.251,-0.156 C8.251,-0.156 5.123,0.219 4.784,0.558 C4.585,0.758 3.095,2.262 2.033,3.324 C2.033,3.324 2.3,4.083 1.95,4.433 C1.599,4.784 0.809,4.532 0.809,4.532 C0.436,4.906 0.186,5.155 0.186,5.155 C-0.077,5.42 0.078,5.792 0.401,6.115 L1.087,6.801 C1.412,7.124 1.785,7.278 2.048,7.015 L2.048,7.015 Z" class="si-glyph-fill"></path>
        </g>
    </g>
</svg>