
<svg viewBox="0 0 16 17" version="1.1" xmlns="http://www.w3.org/2000/svg" xmlns:xlink="http://www.w3.org/1999/xlink" class="si-glyph si-glyph-money-3"><title>916</title><defs></defs><g stroke="none" stroke-width="1" fill="none" fill-rule="evenodd"><g transform="translate(0.000000, 2.000000)" fill="#434343"><g><path d="M12.345,12.947 L1.655,12.947 C0.755,12.947 0.021,12.244 0.021,11.377 L0.021,3.616 C0.021,2.752 0.754,2.045 1.655,2.045 L12.345,2.045 C13.246,2.045 13.98,2.752 13.98,3.616 L13.98,11.377 C13.979,12.244 13.246,12.947 12.345,12.947 L12.345,12.947 Z M0.995,4.414 L0.995,10.625 L2.364,12.057 L11.694,12.057 L13.021,10.672 L13.021,4.46 L11.694,2.936 L2.364,2.936 L0.995,4.414 L0.995,4.414 Z" class="si-glyph-fill"></path><path d="M14.248,0.033 L3.047,0.033 L3.043,0.969 L13.256,0.969 L15.031,2.783 L15.031,8.937 L15.927,8.921 L15.927,1.663 C15.927,0.793 15.161,0.049 14.248,0.033 L14.248,0.033 Z" class="si-glyph-fill"></path></g><rect x="2" y="7" width="0.953" height="0.984" class="si-glyph-fill"></rect><rect x="11" y="7" width="0.984" height="0.953" class="si-glyph-fill"></rect><g transform="translate(5.000000, 4.000000)"><rect x="0" y="2" width="0.969" height="0.969" class="si-glyph-fill"></rect><rect x="4" y="4" width="0.984" height="0.969" class="si-glyph-fill"></rect><path d="M3,0.016 L2.031,0.016 L2.031,1.031 L1,1.031 L1,1.969 L2.031,1.969 L2.031,3.031 L1,3.031 L1,3.969 L2.031,3.969 L2.031,5.031 L1,5.031 L1,5.969 L2.031,5.969 L2.031,6.969 L3,6.969 L3,5.969 L3.984,5.969 L3.984,5.031 L3,5.031 L3,3.969 L3.984,3.969 L3.984,3.031 L3,3.031 L3,1.969 L3.984,1.969 L3.984,1.031 L3,1.031 L3,0.016 Z" class="si-glyph-fill"></path></g></g></g></svg>