<!--?xml version="1.0" encoding="UTF-8" standalone="no"?-->
<svg viewBox="0 0 16 16" version="1.1" xmlns="http://www.w3.org/2000/svg" xmlns:xlink="http://www.w3.org/1999/xlink" class="si-glyph si-glyph-spoon-fork">
    <!-- Generator: Sketch 3.0.3 (7891) - http://www.bohemiancoding.com/sketch -->
    <title>85</title>
    
    <defs></defs>
    <g stroke="none" stroke-width="1" fill="none" fill-rule="evenodd">
        <g transform="translate(2.000000, 0.000000)" fill="#434343">
            <path d="M4.978,4.072 C4.978,2.226 3.805,0.062 2.497,0.062 C1.189,0.062 0.015,2.226 0.015,4.072 C0.015,5.67 1.068,6.386 2.181,6.716 C2.181,6.716 2.46,11.254 1.517,14.76 C1.318,15.508 2.105,16.016 2.543,16.016 C2.974,16.016 3.755,15.52 3.558,14.785 C2.617,11.235 2.844,6.745 2.844,6.745 C3.91,6.372 4.978,5.627 4.978,4.072 L4.978,4.072 Z" class="si-glyph-fill"></path>
            <path d="M8.814,6.605 C9.888,6.192 10.937,5.965 10.937,4.099 C10.937,3.089 10.414,0.754 10.031,0.066 L10.031,4.054 L8.984,4.054 L8.984,0.054 L8.015,0.055 L8.015,4.054 L6.953,4.054 L6.953,0.066 C6.566,0.764 6.023,3.073 6.023,4.086 C6.023,5.932 7.103,6.176 8.171,6.591 C8.212,7.871 8.268,11.825 7.501,14.722 C7.303,15.469 8.079,15.977 8.51,15.977 C8.935,15.977 9.702,15.481 9.509,14.747 C8.755,11.866 8.763,7.968 8.792,6.606 L8.814,6.606 L8.814,6.605 Z" class="si-glyph-fill"></path>
        </g>
    </g>
</svg>