<!--?xml version="1.0" encoding="UTF-8" standalone="no"?-->
<svg viewBox="0 0 16 16" version="1.1" xmlns="http://www.w3.org/2000/svg" xmlns:xlink="http://www.w3.org/1999/xlink" class="si-glyph si-glyph-brush-and-pencil">
    <!-- Generator: Sketch 3.0.3 (7891) - http://www.bohemiancoding.com/sketch -->
    <title>Brush-and-pencil</title>
    
    <defs></defs>
    <g stroke="none" stroke-width="1" fill="none" fill-rule="evenodd">
        <g fill="#434343">
            <path d="M15.833,13.042 C15.316,13.221 14.295,13.592 13.121,11.606 C11.947,9.622 10.395,10.083 10.395,10.083 C10.308,10.098 10.234,10.127 10.157,10.153 C8.405,7.658 3.478,2.224 3.044,1.789 C2.421,1.167 1.375,0.583 0.5,1.5 C-0.323,2.362 0.099,3.487 0.722,4.11 C1.16,4.548 6.624,9.5 9.118,11.246 C9.066,11.397 9.042,11.521 9.042,11.583 C9.042,15.229 12.771,15.036 13.542,14.895 C14.917,14.646 16.35,12.865 15.833,13.042 L15.833,13.042 Z" class="si-glyph-fill"></path>
            <path d="M5.613,10.73 L5.386,11.482 L5.872,11.968 L2.061,13.624 L1.311,12.905 L3.032,9.278 L3.014,9.984 L4.012,9.97 L4.865,9.125 C4.335,8.675 3.807,8.219 3.303,7.778 L2.469,8.613 C2.469,8.613 0.157,13.933 3.29099005e-11,14.363 C-0.125,14.703 0.306,15.134 0.604,14.988 C1.084,14.751 6.344,12.468 6.344,12.468 L7.512,11.296 C7.088,10.967 6.627,10.595 6.151,10.202 L5.613,10.73 L5.613,10.73 Z" class="si-glyph-fill"></path>
            <path d="M12.147,1.92 L13.406,3.156 L9.176,7.263 C9.554,7.723 9.91,8.165 10.227,8.574 L14.488,4.299 C14.99,3.797 15.018,3.073 14.48,2.536 L12.475,0.546 C11.936,0.00899999997 11.092,-0.019 10.591,0.482 L6.71,4.37 C7.156,4.88 7.619,5.415 8.074,5.951 L12.147,1.92 L12.147,1.92 Z" class="si-glyph-fill"></path>
        </g>
    </g>
</svg>