<!--?xml version="1.0" encoding="UTF-8" standalone="no"?-->
<svg viewBox="0 0 17 16" version="1.1" xmlns="http://www.w3.org/2000/svg" xmlns:xlink="http://www.w3.org/1999/xlink" class="si-glyph si-glyph-button-tv">
    <!-- Generator: Sketch 3.0.3 (7891) - http://www.bohemiancoding.com/sketch -->
    <title>1020</title>
    
    <defs></defs>
    <g stroke="none" stroke-width="1" fill="none" fill-rule="evenodd">
        <path d="M14.338,3.045 L9.008,4.047 L3.647,3.045 C2.195,3.045 1.016,4.373 1.016,6.011 L1.016,11.034 C1.016,12.672 2.195,14 3.647,14 L9.008,12.969 L14.338,14 C15.79,14 16.969,12.672 16.969,11.034 L16.969,6.011 C16.969,4.373 15.79,3.045 14.338,3.045 L14.338,3.045 Z M8.024,7.016 L6.026,7.016 L6.026,11.047 L4.964,11.047 L4.964,7.016 L2.984,7.016 L2.984,6 L8.024,6 L8.024,7.016 L8.024,7.016 Z M13.086,11.033 L11.959,11.033 L9.962,5.965 L11.262,5.965 L12.53,9.631 L13.761,5.965 L15.055,5.965 L13.086,11.033 L13.086,11.033 Z" fill="#434343" class="si-glyph-fill"></path>
    </g>
</svg>