<!--?xml version="1.0" encoding="UTF-8" standalone="no"?-->
<svg viewBox="0 0 17 16" version="1.1" xmlns="http://www.w3.org/2000/svg" xmlns:xlink="http://www.w3.org/1999/xlink" class="si-glyph si-glyph-button-plus">
    <!-- Generator: Sketch 3.0.3 (7891) - http://www.bohemiancoding.com/sketch -->
    <title>971</title>
    
    <defs></defs>
    <g stroke="none" stroke-width="1" fill="none" fill-rule="evenodd">
        <g transform="translate(1.000000, 0.000000)" fill="#434343">
            <path d="M8.021,0.114 C3.627,0.114 0.052,3.668 0.052,8.036 C0.052,12.404 3.627,15.958 8.021,15.958 C12.416,15.958 15.99,12.404 15.99,8.036 C15.99,3.668 12.415,0.114 8.021,0.114 L8.021,0.114 Z M8.013,14.07 C4.684,14.07 1.973,11.346 1.973,7.999 C1.973,4.652 4.684,1.928 8.013,1.928 C11.342,1.928 14.052,4.653 14.052,7.999 C14.052,11.347 11.342,14.07 8.013,14.07 L8.013,14.07 Z" class="si-glyph-fill"></path>
            <path d="M7.996,11.969 C7.342,11.969 7.037,11.532 7.037,11.238 L7.037,8.983 L4.813,8.983 C4.548,8.983 4.031,8.685 4.031,7.997 C4.031,7.343 4.469,7.038 4.763,7.038 L7.034,7.038 L7.034,4.801 C7.034,4.537 7.332,4.019 8.02,4.019 C8.674,4.019 8.979,4.457 8.979,4.751 L8.979,7.036 L11.215,7.036 C11.48,7.036 11.998,7.335 11.998,8.023 C11.998,8.676 11.56,8.981 11.266,8.981 L8.981,8.981 L8.981,11.187 C8.982,11.45 8.685,11.969 7.996,11.969 L7.996,11.969 Z" class="si-glyph-fill"></path>
        </g>
    </g>
</svg>