
<svg viewBox="0 0 16 16" version="1.1" xmlns="http://www.w3.org/2000/svg" xmlns:xlink="http://www.w3.org/1999/xlink" class="si-glyph si-glyph-camera-security"><title>488</title><defs></defs><g stroke="none" stroke-width="1" fill="none" fill-rule="evenodd"><g fill="#434343"><rect x="1" y="12" width="3.05" height="1.945" class="si-glyph-fill"></rect><rect transform="translate(5.627300, 9.562000) rotate(-70.633701) translate(-5.627300, -9.562000) " x="2.62735682" y="9.06200947" width="6.1138842" height="1.25397625" class="si-glyph-fill"></rect><g transform="translate(2.000000, 0.000000)"><path d="M0.595,3.217 L0.109,4.881 C0.109,4.881 -0.185,5.655 0.536,5.895 C1.348,6.143 7.528,7.979 7.528,7.979 L8.919,5.599 L0.595,3.217 L0.595,3.217 Z" class="si-glyph-fill"></path><path d="M11.709,4.971 C11.814,4.932 13.958,3.771 13.958,3.771 C13.796,3.608 13.701,3.485 13.463,3.416 L2.145,0.101 C1.399,-0.117 0.622,0.302 0.407,1.038 L0.056,2.235 C0.056,2.235 9.764,5.079 10.062,5.121 L9.043,6.919 L11.989,7.944 L12.979,5.022 C12.979,5.021 11.869,5.021 11.709,4.971 L11.709,4.971 L11.709,4.971 Z" class="si-glyph-fill"></path></g><path d="M1.759,12.179 L1.403,11.65 C3.347,10.452 4.013,7.254 3.993,4.879 L4.651,4.873 C4.672,7.529 3.925,10.844 1.759,12.179 L1.759,12.179 Z" class="si-glyph-fill"></path><path d="M2.029,12.996 C2.029,14.641 1.121,15.973 0,15.973 L0,10.021 C1.121,10.021 2.029,11.353 2.029,12.996 L2.029,12.996 Z" class="si-glyph-fill"></path></g></g></svg>