<!--?xml version="1.0" encoding="UTF-8" standalone="no"?-->
<svg viewBox="0 0 17 16" version="1.1" xmlns="http://www.w3.org/2000/svg" xmlns:xlink="http://www.w3.org/1999/xlink" class="si-glyph si-glyph-can-water">
    <!-- Generator: Sketch 3.0.3 (7891) - http://www.bohemiancoding.com/sketch -->
    <title>792</title>
    
    <defs></defs>
    <g stroke="none" stroke-width="1" fill="none" fill-rule="evenodd">
        <path d="M16.168,5.069 C15.662,2.421 13.906,1.032 11.542,1.032 C9.18,1.032 7.417,2.416 6.906,5.059 C6.433,5.071 6.057,5.373 6.057,5.749 L6.057,7.596 L3.904,5.575 C3.902,5.573 3.9,5.573 3.9,5.573 C4.214,5.022 4.285,4.498 4.021,4.227 C3.631,3.829 2.677,4.128 1.89,4.895 C1.103,5.665 0.779,6.61 1.167,7.008 C1.433,7.281 1.964,7.222 2.522,6.916 L6.056,13.017 L6.056,15.274 C6.056,15.656 6.446,15.966 6.929,15.966 L16.087,15.966 C16.57,15.966 16.96,15.655 16.96,15.274 L16.96,5.749 C16.962,5.39 16.612,5.103 16.168,5.069 L16.168,5.069 Z M11.5272222,2 C13.3122222,2 14.5897222,2.93755973 15,5 L8,5 C8.40930556,2.93755973 9.74416667,2 11.5272222,2 L11.5272222,2 Z" fill="#434343" class="si-glyph-fill"></path>
    </g>
</svg>