<!--?xml version="1.0" encoding="UTF-8" standalone="no"?-->
<svg viewBox="0 0 16 16" version="1.1" xmlns="http://www.w3.org/2000/svg" xmlns:xlink="http://www.w3.org/1999/xlink" class="si-glyph si-glyph-botl-milk">
    <!-- Generator: Sketch 3.0.3 (7891) - http://www.bohemiancoding.com/sketch -->
    <title>Botl</title>
    
    <defs></defs>
    <g stroke="none" stroke-width="1" fill="none" fill-rule="evenodd">
        <g transform="translate(3.000000, 0.000000)" fill="#434343">
            <path d="M7.137,15.984 L1.885,15.984 C0.872,15.984 0.048,15.237 0.048,14.318 L0.048,7.022 C0.048,6.602 0.492,5.625 1.221,4.066 C1.643,3.168 2.217,1.939 2.223,1.691 C2.223,1.567 2.014,1.339 1.873,1.188 C1.635,0.931 1.389,0.664 1.543,0.36 C1.691,0.066 2.097,0.025 2.517,0.025 L6.5,0.025 C7.03,0.029 7.41,0.091 7.553,0.379 C7.701,0.684 7.446,0.956 7.221,1.197 C7.082,1.344 6.873,1.566 6.873,1.69 C6.875,1.94 7.435,3.184 7.848,4.091 C8.549,5.636 8.974,6.605 8.974,7.021 L8.974,14.317 C8.974,15.237 8.148,15.984 7.137,15.984 L7.137,15.984 Z M2.543,1.041 C2.762,1.283 2.996,1.626 2.996,1.98 C2.996,2.327 2.672,3.093 2.031,4.486 C1.582,5.457 0.972,6.785 0.972,7.086 L0.972,14.129 C0.972,14.662 1.447,15.095 2.027,15.095 L6.99,15.095 C7.574,15.095 8.048,14.662 8.048,14.129 L8.048,7.086 C8.048,6.785 7.461,5.467 7.03,4.506 C6.426,3.145 6.019,2.325 6.019,1.975 C6.019,1.617 6.328,1.286 6.55,1.045 C6.566,1.026 6.474,0.977 6.383,0.977 L2.627,0.977 C2.574,0.977 2.526,1.021 2.543,1.041 L2.543,1.041 Z" class="si-glyph-fill"></path>
            <path d="M6.963,13.092 C6.963,13.793 6.442,13.979 5.799,13.979 L3.235,13.979 C2.592,13.979 2.072,13.793 2.072,13.092 L2.072,6.538 C2.072,5.837 2.702,8.072 4.057,7.012 C5.413,5.956 6.963,5.837 6.963,6.538 L6.963,13.092 L6.963,13.092 Z" class="si-glyph-fill"></path>
        </g>
    </g>
</svg>