
<svg viewBox="0 0 17 16" version="1.1" xmlns="http://www.w3.org/2000/svg" xmlns:xlink="http://www.w3.org/1999/xlink" class="si-glyph si-glyph-brightness"><title>954</title><defs></defs><g stroke="none" stroke-width="1" fill="none" fill-rule="evenodd"><g transform="translate(1.000000, 0.000000)" fill="#434343"><path d="M8.041,3.001 C5.326,3.001 3.125,5.239 3.125,8 C3.125,10.762 5.326,13 8.041,13 C10.758,13 12.958,10.762 12.958,8 C12.958,5.239 10.758,3.001 8.041,3.001 L8.041,3.001 Z M8.083,11.227 C6.301,11.227 4.856,9.783 4.856,8 C4.856,6.219 6.3,4.774 8.083,4.774 C9.866,4.774 11.31,6.218 11.31,8 C11.31,9.782 9.865,11.227 8.083,11.227 L8.083,11.227 Z" class="si-glyph-fill"></path><rect x="7" y="0" width="1.958" height="2" class="si-glyph-fill"></rect><rect x="7" y="14" width="2" height="1.958" class="si-glyph-fill"></rect><rect x="14" y="7" width="1.958" height="1.958" class="si-glyph-fill"></rect><rect x="0" y="7" width="1.958" height="2" class="si-glyph-fill"></rect><rect transform="translate(13.690300, 3.207000) rotate(45.040515) translate(-13.690300, -3.207000) " x="12.6903093" y="2.20700934" width="1.87598248" height="1.87298251" class="si-glyph-fill"></rect><rect transform="translate(2.466500, 14.128400) rotate(45.024309) translate(-2.466500, -14.128400) " x="1.4665095" y="13.1284095" width="1.87498219" height="1.93298164" class="si-glyph-fill"></rect><rect transform="translate(13.550300, 14.192200) rotate(45.000000) translate(-13.550300, -14.192200) " x="12.5503096" y="13.1922096" width="1.92798151" height="1.87498202" class="si-glyph-fill"></rect><rect transform="translate(2.443400, 3.189900) rotate(45.000000) translate(-2.443400, -3.189900) " x="1.44340959" y="2.18990959" width="1.83998235" height="1.87498202" class="si-glyph-fill"></rect></g></g></svg>