<!--?xml version="1.0" encoding="UTF-8" standalone="no"?-->
<svg viewBox="0 0 17 16" version="1.1" xmlns="http://www.w3.org/2000/svg" xmlns:xlink="http://www.w3.org/1999/xlink" class="si-glyph si-glyph-battery-charging">
    <!-- Generator: Sketch 3.0.3 (7891) - http://www.bohemiancoding.com/sketch -->
    <title>834</title>
    
    <defs></defs>
    <g stroke="none" stroke-width="1" fill="none" fill-rule="evenodd">
        <g transform="translate(4.000000, 0.000000)" fill="#434343">
            <path d="M7.56,1.003 L5.907,1.003 L5.907,0.031 L3,0.031 L3,1.003 L1.4,1.003 C0.634,1.003 0.016,1.523 0.016,2.166 L0.016,14.799 C0.016,15.442 0.634,15.963 1.4,15.963 L7.559,15.963 C8.321,15.963 8.941,15.442 8.941,14.799 L8.941,2.166 C8.941,1.522 8.321,1.003 7.56,1.003 L7.56,1.003 Z M8.031,14.47 C8.031,14.813 7.707,15.09 7.311,15.09 L1.632,15.09 C1.237,15.09 0.913,14.813 0.913,14.47 L0.913,2.529 C0.913,2.186 1.237,1.908 1.632,1.908 L7.311,1.908 C7.707,1.908 8.031,2.186 8.031,2.529 L8.031,14.47 L8.031,14.47 Z" class="si-glyph-fill"></path>
            <path d="M6,3.006 L2.041,10.689 L4.005,9.42 L3.016,14.004 L6.968,6.183 L4.881,7.5 L6,3.006 Z" class="si-glyph-fill"></path>
        </g>
    </g>
</svg>