
<svg viewBox="0 0 16 16" version="1.1" xmlns="http://www.w3.org/2000/svg" xmlns:xlink="http://www.w3.org/1999/xlink" class="si-glyph si-glyph-disc-stop"><title>779</title><defs></defs><g stroke="none" stroke-width="1" fill="none" fill-rule="evenodd"><g><g transform="translate(3.000000, 3.000000)"><rect transform="translate(8.525950, 0.709450) rotate(-45.000000) translate(-8.525950, -0.709450) " x="7.52595959" y="0.209454795" width="2.14597942" height="1.22898821"></rect><rect transform="translate(1.249550, 9.343550) rotate(225.032412) translate(-1.249550, -9.343550) " x="0.749554715" y="8.34355943" width="1.22898841" height="2.14597976"></rect><ellipse cx="5.115" cy="5.141" rx="3.115" ry="3.141"></ellipse><path d="M4.988,3.022 C3.892,3.022 3.009,3.908 3.009,4.999 C3.009,6.091 3.893,6.975 4.988,6.975 C6.079,6.975 6.967,6.091 6.967,4.999 C6.967,3.908 6.079,3.022 4.988,3.022 L4.988,3.022 Z" fill="#434343" class="si-glyph-fill"></path></g><path d="M15.301,10.953 C15.701,9.962 15.958,8.986 15.958,7.969 C15.958,3.556 12.385,0.063 7.979,0.063 C3.573,0.063 0,3.556 0,7.969 C0,12.381 3.572,15.958 7.979,15.958 C8.659,15.958 9.311,15.858 9.938,15.694 L10.969,15.437 L10.938,10.953 L15.301,10.953 L15.301,10.953 Z M12.261,2.891 L13.13,3.76 L11.612,5.278 L10.743,4.409 L12.261,2.891 L12.261,2.891 Z M3.633,13.193 L2.765,12.324 L4.283,10.806 L5.151,11.675 L3.633,13.193 L3.633,13.193 Z M5,8.00095511 C5,6.34383954 6.3434992,5 8,5 C9.65553772,5 11,6.34288443 11,8.00095511 C11,9.65616046 9.65553772,11 8,11 C6.34253612,11 5,9.65711557 5,8.00095511 L5,8.00095511 Z" fill="#434343" class="si-glyph-fill"></path><rect fill="#434343" x="12" y="12" width="4.02331543" height="4" class="si-glyph-fill"></rect></g></g></svg>