<!--?xml version="1.0" encoding="UTF-8" standalone="no"?-->
<svg viewBox="0 0 17 16" version="1.1" xmlns="http://www.w3.org/2000/svg" xmlns:xlink="http://www.w3.org/1999/xlink" class="si-glyph si-glyph-leftwards-arrow-to-bar">
    <!-- Generator: Sketch 3.0.3 (7891) - http://www.bohemiancoding.com/sketch -->
    <title>1218</title>
    
    <defs></defs>
    <g stroke="none" stroke-width="1" fill="none" fill-rule="evenodd">
        <g transform="translate(2.000000, 0.000000)" fill="#434343">
            <path d="M3.994,1 C3.994,0.447 3.552,0 3.005,0 L1.026,0 C0.479,0 0.036,0.447 0.036,1 L0.036,15 C0.036,15.553 0.479,16 1.026,16 L3.005,16 C3.552,16 3.994,15.553 3.994,15 L3.994,1 L3.994,1 Z" class="si-glyph-fill"></path>
            <path d="M5.438,9.052 C4.858,8.471 4.858,7.53 5.438,6.948 L11.882,0.506 C12.463,-0.076 13.985,-0.333 13.985,1.506 L13.985,14.494 C13.985,16.395 12.464,16.076 11.882,15.495 L5.438,9.052 L5.438,9.052 Z" class="si-glyph-fill"></path>
        </g>
    </g>
</svg>