<!--?xml version="1.0" encoding="UTF-8" standalone="no"?-->
<svg viewBox="0 0 17 16" version="1.1" xmlns="http://www.w3.org/2000/svg" xmlns:xlink="http://www.w3.org/1999/xlink" class="si-glyph si-glyph-paypal">
    <!-- Generator: Sketch 3.0.3 (7891) - http://www.bohemiancoding.com/sketch -->
    <title>901</title>
    
    <defs></defs>
    <g stroke="none" stroke-width="1" fill="none" fill-rule="evenodd">
        <g transform="translate(1.000000, 0.000000)" fill="#434343">
            <path d="M8.875,0.074 L2.639,0.074 L-0.035,12.917 L3.275,12.917 L4.217,9.898 L8.875,9.898 C11.147,9.898 12.991,7.863 12.991,5.355 L12.991,4.448 C12.991,1.939 11.147,0.074 8.875,0.074 L8.875,0.074 Z M9.125,5.212 C9.125,6.245 8.255,7.082 7.752,7.082 L4.824,7.094 L5.656,2.965 L7.752,2.965 C8.255,2.965 9.125,3.803 9.125,4.836 L9.125,5.212 L9.125,5.212 Z" class="si-glyph-fill"></path>
            <path d="M14.113,3.868 C14.113,4.638 14.061,5.339 14.061,5.978 C14.061,9.189 12.753,11.082 9.839,11.082 L5.557,11.082 L3.986,15.989 L6.625,15.989 L7.568,12.968 L11.849,12.968 C14.122,12.968 15.964,11.247 15.964,8.755 L15.964,7.853 C15.965,6.126 15.415,4.627 14.113,3.868 L14.113,3.868 Z" class="si-glyph-fill"></path>
        </g>
    </g>
</svg>