<!--?xml version="1.0" encoding="UTF-8" standalone="no"?-->
<svg viewBox="0 0 17 16" version="1.1" xmlns="http://www.w3.org/2000/svg" xmlns:xlink="http://www.w3.org/1999/xlink" class="si-glyph si-glyph-ping-pong-racket">
    <!-- Generator: Sketch 3.0.3 (7891) - http://www.bohemiancoding.com/sketch -->
    <title>783</title>
    
    <defs></defs>
    <g stroke="none" stroke-width="1" fill="none" fill-rule="evenodd">
        <g transform="translate(1.000000, 0.000000)" fill="#434343">
            <path d="M12.297,10.802 C11.846,10.35 11.85,9.903 11.925,9.658 C12.125,8.988 12.399,8.243 12.557,7.424 L7.53,12.451 C8.323,12.289 9.047,12.023 9.698,11.83 C9.948,11.756 10.421,11.777 10.895,12.251 C11.368,12.726 13.801,15.893 13.801,15.893 L15.965,13.73 C15.965,13.729 12.749,11.254 12.297,10.802 L12.297,10.802 Z" class="si-glyph-fill"></path>
            <path d="M12.318,6.166 C12.308,4.881 11.825,3.433 10.224,1.83 C7.905,-0.488 4.146,-0.488 1.828,1.83 C-0.49,4.148 -0.49,7.907 1.828,10.226 C3.312,11.709 4.66,12.219 5.875,12.288 L12.318,6.166 L12.318,6.166 Z M5.471,9.066 C4.628,9.066 3.945,8.374 3.945,7.517 C3.945,6.663 4.629,5.97 5.471,5.97 C6.315,5.97 6.999,6.663 6.999,7.517 C6.999,8.374 6.314,9.066 5.471,9.066 L5.471,9.066 Z" class="si-glyph-fill"></path>
        </g>
    </g>
</svg>