<!--?xml version="1.0" encoding="UTF-8" standalone="no"?-->
<svg viewBox="0 0 17 16" version="1.1" xmlns="http://www.w3.org/2000/svg" xmlns:xlink="http://www.w3.org/1999/xlink" class="si-glyph si-glyph-folder-rss">
    <!-- Generator: Sketch 3.0.3 (7891) - http://www.bohemiancoding.com/sketch -->
    <title>936</title>
    
    <defs></defs>
    <g stroke="none" stroke-width="1" fill="none" fill-rule="evenodd">
        <g transform="translate(1.000000, 2.000000)" fill="#434343">
            <path d="M7.35,3 L5.788,0.042 L2.021,0.042 L2.021,1.063 L0.023,1.063 L0.023,10.976 L1.044,10.976 L1.045,11.976 L15.947,11.976 L15.968,3 L7.35,3 L7.35,3 Z M7.023,10.042 L6.023,10.042 L6.023,9.042 L6.19258698,9.042 C6.65065957,9.042 7.02237422,9.41452396 7.02237422,9.87139297 L7.02237422,10.042 L7.023,10.042 Z M7.99328613,9.98242188 C7.99328613,9.04160252 6.9753749,7.9590376 6.02679443,7.9590376 L6.02679443,7.00933838 C7.56608184,7.00933838 8.97479248,8.45434491 8.97479248,9.98242182 L7.99328613,9.98242188 Z M10.1300445,9.9950572 C10.1300447,7.51892475 8.47618046,5.88014274 6.01068115,5.88014273 L6.01068115,5.042 C9.3086275,5.042 10.9416798,6.67759905 10.9416798,9.9958495 L10.1300445,9.9950572 Z" class="si-glyph-fill"></path>
            <path d="M13.964,1.982 L13.964,1.042 L8.024,1.042 L8.354,1.982 L13.964,1.982 Z" class="si-glyph-fill"></path>
        </g>
    </g>
</svg>