<!--?xml version="1.0" encoding="UTF-8" standalone="no"?-->
<svg viewBox="0 0 17 16" version="1.1" xmlns="http://www.w3.org/2000/svg" xmlns:xlink="http://www.w3.org/1999/xlink" class="si-glyph si-glyph-tent-1">
    <!-- Generator: Sketch 3.0.3 (7891) - http://www.bohemiancoding.com/sketch -->
    <title>793</title>
    
    <defs></defs>
    <g stroke="none" stroke-width="1" fill="none" fill-rule="evenodd">
        <path d="M16,9 L16,11.131 C13.322,10.077 10.932,5.147 9.751,2.709 L10.916,0.5 C11,0.344 10.955,0.14 10.816,0.045 C10.679,-0.049 10.5,0.00200000001 10.416,0.16 L9.424,2.04 C9.206,1.602 9.06,1.337 9,1.337 C8.94,1.337 8.794,1.602 8.576,2.04 L7.584,0.16 C7.5,0.00200000001 7.32,-0.049 7.184,0.045 C7.045,0.14 7,0.344 7.084,0.5 L8.249,2.709 C7.063,5.156 4.659,10.115 1.969,11.143 L1.969,9 L1,9 L1,15.977 L1.969,15.977 L1.969,15.949 L5.969,15.949 L5.969,11.756 C8.321,9.757 9,6.005 9,6.005 C9,6.005 9.861,9.715 12.016,11.722 L12.016,15.95 L16,15.95 L16,15.978 L17,15.978 L17,9 L16,9 L16,9 Z" fill="#434343" class="si-glyph-fill"></path>
    </g>
</svg>