
<svg viewBox="0 0 17 16" version="1.1" xmlns="http://www.w3.org/2000/svg" xmlns:xlink="http://www.w3.org/1999/xlink" class="si-glyph si-glyph-shower"><title>704</title><defs></defs><g stroke="none" stroke-width="1" fill="none" fill-rule="evenodd"><g transform="translate(3.000000, 0.000000)" fill="#434343"><path d="M3.004,3.051 C1.857,3.194 0,4.767 0,6.953 L6.953,6.953 C6.953,4.796 5.175,3.21 3.998,3.057 C3.989,1.495 4.005,0.917 7.468,0.917 C10.688,0.917 11.015,2.342 11.015,5.348 L11.015,15.409 C11.015,15.684 11.223,15.908 11.499,15.908 C11.775,15.908 11.999,15.684 11.999,15.409 L11.999,5.348 C12,2.148 11.936,0 7.469,0 C3.59,0 3.044,0.831 3.004,3.051 Z" class="si-glyph-fill"></path><rect x="0" y="8" width="0.959" height="0.916" class="si-glyph-fill"></rect><rect x="3" y="8" width="0.959" height="0.916" class="si-glyph-fill"></rect><rect x="6" y="8" width="0.959" height="0.916" class="si-glyph-fill"></rect><rect x="1" y="10" width="0.959" height="0.916" class="si-glyph-fill"></rect><rect x="5" y="10" width="0.959" height="0.916" class="si-glyph-fill"></rect></g></g></svg>