
<svg viewBox="0 0 17 16" version="1.1" xmlns="http://www.w3.org/2000/svg" xmlns:xlink="http://www.w3.org/1999/xlink" class="si-glyph si-glyph-open"><title>Open</title><defs></defs><g stroke="none" stroke-width="1" fill="none" fill-rule="evenodd"><g transform="translate(0.000000, 6.000000)"><g transform="translate(5.000000, 0.000000)"><path d="M1.969,1 L0.969,1 L0.969,3.031 L1.969,3.031 L1.969,2.969 L2,2.969 L2,1 L1.969,1 Z" class=""></path><path d="M0.969,1 L1.969,1 L1.969,0.021 L0.031,0 L0.031,5.958 L0.969,5.958 L0.969,3.938 L1.969,3.938 L1.969,3.031 L0.969,3.031 L0.969,1 Z" fill="#434343" class="si-glyph-fill"></path><rect fill="#434343" x="2" y="1" width="1" height="1.969" class="si-glyph-fill"></rect></g><path d="M2.984,1.016 L2.984,0.995 L1,0.995 L1,1.016 L0.984,1.016 L0.984,4.953 L1,4.953 L1,5.031 L2.984,5.031 L2.984,4.953 L3,4.953 L3,1.016 L2.984,1.016 Z" class=""></path><rect fill="#434343" x="3" y="1" width="0.947" height="3.938" class="si-glyph-fill"></rect><rect fill="#434343" x="1" y="0" width="1.984" height="0.943" class="si-glyph-fill"></rect><rect fill="#434343" x="1" y="5" width="1.984" height="0.953" class="si-glyph-fill"></rect><rect fill="#434343" x="0" y="1" width="0.949" height="3.938" class="si-glyph-fill"></rect><path d="M15.031,0.031 L15.031,1.5 L13.969,0.625 L13.969,0.031 L13.016,0.031 L13.016,5.969 L13.969,5.969 L13.969,2.031 L15.031,2.906 L15.031,5.969 L15.953,5.969 L15.953,0.031 L15.031,0.031 Z" fill="#434343" class="si-glyph-fill"></path><path d="M10.084,0.026 L9.016,0.026 L9.016,5.989 L10.084,5.989 L10.084,5.969 L11.969,5.969 L11.969,5.031 L9.953,5.031 L9.953,2.969 L11.969,2.969 L11.969,2.031 L9.953,2.031 L9.953,0.953 L11.969,0.953 L11.969,0.047 L10.084,0.047 L10.084,0.026 Z" fill="#434343" class="si-glyph-fill"></path></g></g></svg>