<!--?xml version="1.0" encoding="UTF-8" standalone="no"?--><svg viewBox="0 0 16 16" version="1.1" xmlns="http://www.w3.org/2000/svg" xmlns:xlink="http://www.w3.org/1999/xlink" class="si-glyph si-glyph-angle-2">    <!-- Generator: Sketch 3.0.3 (7891) - http://www.bohemiancoding.com/sketch -->    <title>100</title>        <defs></defs>    <g stroke="none" stroke-width="1" fill="none" fill-rule="evenodd">        <g fill="#434343">            <g>                <path d="M0.648,15.938 C0.49,15.938 0.333,15.877 0.212,15.757 C-0.03,15.517 -0.03,15.126 0.212,14.886 L14.946,0.18 C15.186,-0.06 15.577,-0.06 15.817,0.18 C16.059,0.421 16.059,0.812 15.817,1.052 L1.085,15.757 C0.965,15.877 0.808,15.938 0.648,15.938 L0.648,15.938 Z" class="si-glyph-fill"></path>                <path d="M5.652,16.01 C5.491,16.01 5.332,15.948 5.211,15.825 C4.967,15.584 4.967,15.187 5.211,14.943 L14.934,5.22 C15.176,4.975 15.573,4.975 15.815,5.22 C16.061,5.462 16.061,5.858 15.815,6.103 L6.092,15.825 C5.971,15.948 5.812,16.01 5.652,16.01 L5.652,16.01 Z" class="si-glyph-fill"></path>                <path d="M10.633,15.985 C10.48,15.985 10.324,15.925 10.207,15.807 C9.973,15.572 9.973,15.19 10.207,14.954 L14.959,10.202 C15.195,9.965 15.576,9.965 15.813,10.202 C16.047,10.437 16.047,10.819 15.813,11.055 L11.06,15.807 C10.942,15.926 10.787,15.985 10.633,15.985 L10.633,15.985 Z" class="si-glyph-fill"></path>            </g>        </g>    </g></svg>