<!--?xml version="1.0" encoding="UTF-8" standalone="no"?-->
<svg viewBox="0 0 17 16" version="1.1" xmlns="http://www.w3.org/2000/svg" xmlns:xlink="http://www.w3.org/1999/xlink" class="si-glyph si-glyph-newspaper">
    <!-- Generator: Sketch 3.0.3 (7891) - http://www.bohemiancoding.com/sketch -->
    <title>923</title>
    
    <defs></defs>
    <g stroke="none" stroke-width="1" fill="none" fill-rule="evenodd">
        <path d="M4.031,2.046 L4.031,11.834 C4.031,12.22 2.969,12.223 2.969,11.85 L2.969,6.063 L1.022,6.063 L1.022,12.981 C1.018,13.085 1.053,13.972 2.001,13.972 C2.044,13.972 16.001,13.96 16.001,13.96 C16.001,13.96 16.974,13.911 16.974,13 L16.974,2 L4.031,2.046 L4.031,2.046 Z M8.042,10.062 L5.972,10.062 L5.972,6.937 L8.042,6.937 L8.042,10.062 L8.042,10.062 Z M15,8 L9,8 L9,6.958 L15,6.958 L15,8 L15,8 Z M15,10.083 L8.981,10.083 L8.981,8.939 L15,8.959 L15,10.083 L15,10.083 Z M15,12.038 L5.987,12.038 L5.987,10.958 L15,10.958 L15,12.038 L15,12.038 Z M15,6.041 L6,6.041 L6,3.937 L15,3.937 L15,6.041 L15,6.041 Z" fill="#434343" class="si-glyph-fill"></path>
    </g>
</svg>