<!--?xml version="1.0" encoding="UTF-8" standalone="no"?-->
<svg viewBox="0 0 17 16" version="1.1" xmlns="http://www.w3.org/2000/svg" xmlns:xlink="http://www.w3.org/1999/xlink" class="si-glyph si-glyph-music-note">
    <!-- Generator: Sketch 3.0.3 (7891) - http://www.bohemiancoding.com/sketch -->
    <title>1114</title>
    
    <defs></defs>
    <g stroke="none" stroke-width="1" fill="none" fill-rule="evenodd">
        <path d="M6.021,2.188 L6.021,11.362 C5.46,11.327 4.843,11.414 4.229,11.663 C2.624,12.312 1.696,13.729 2.155,14.825 C2.62,15.924 4.294,16.284 5.898,15.634 C7.131,15.134 7.856,14.184 7.965,13.272 L7.958,4.387 L15.02,3.028 L15.02,9.406 C14.422,9.343 13.746,9.432 13.076,9.703 C11.471,10.353 10.544,11.77 11.004,12.866 C11.467,13.964 13.141,14.325 14.746,13.675 C15.979,13.174 16.836,12.224 16.947,11.313 L16.958,0.00199999998 L6.021,2.188 L6.021,2.188 Z" fill="#434343" class="si-glyph-fill"></path>
    </g>
</svg>