<!--?xml version="1.0" encoding="UTF-8" standalone="no"?-->
<svg viewBox="0 0 17 16" version="1.1" xmlns="http://www.w3.org/2000/svg" xmlns:xlink="http://www.w3.org/1999/xlink" class="si-glyph si-glyph-puzzle">
    <!-- Generator: Sketch 3.0.3 (7891) - http://www.bohemiancoding.com/sketch -->
    <title>1085</title>
    
    <defs></defs>
    <g stroke="none" stroke-width="1" fill="none" fill-rule="evenodd">
        <path d="M14.9918227,6.56699962 L14.9828227,3.74999962 C14.9828227,2.83899962 14.1830002,2.02587886 13.2730002,2.02587886 L10.0880002,2.02587886 C10.0920002,0.697878859 9.006,0.075 7.668,0.075 C6.331,0.075 5.24900018,0.697878859 5.24900018,1.99187886 C5.24900018,2.00387886 2.71300018,2.02587886 2.71300018,2.02587886 C1.80500018,2.02587886 1.032,2.839 1.032,3.75 L1.067,6.461 C2.389,6.477 3.457,7.517 3.457,8.802 C3.457,10.086 2.39,11.125 1.067,11.142 L1.067,14.35 C1.067,15.261 1.803,16 2.712,16 L13.273,16 C14.182,16 15.0178227,15.2609996 15.0178227,14.3499996 L15.0068227,11.2339996 C16.1688227,11.0949996 16.976,10.109 16.976,8.901 C16.976,7.686 16.1628227,6.69899962 14.9918227,6.56699962 Z" fill="#434343" class="si-glyph-fill"></path>
    </g>
</svg>