<!--?xml version="1.0" encoding="UTF-8" standalone="no"?-->
<svg viewBox="0 0 17 16" version="1.1" xmlns="http://www.w3.org/2000/svg" xmlns:xlink="http://www.w3.org/1999/xlink" class="si-glyph si-glyph-button-arrow-up">
    <!-- Generator: Sketch 3.0.3 (7891) - http://www.bohemiancoding.com/sketch -->
    <title>1187</title>
    
    <defs></defs>
    <g stroke="none" stroke-width="1" fill="none" fill-rule="evenodd">
        <g transform="translate(1.000000, 0.000000)" fill="#434343">
            <path d="M7.984,0.057 C12.373,0.057 15.943,3.619 15.943,7.998 C15.943,12.375 12.373,15.937 7.984,15.937 C3.595,15.937 0.025,12.375 0.025,7.998 C0.025,3.619 3.596,0.057 7.984,0.057 L7.984,0.057 Z M7.969,14.083 C11.316,14.083 14.043,11.354 14.043,8 C14.043,4.647 11.316,1.917 7.969,1.917 C4.62,1.917 1.896,4.647 1.896,8 C1.896,11.354 4.62,14.083 7.969,14.083 L7.969,14.083 Z" class="si-glyph-fill"></path>
            <path d="M10.975,7.906 L7.973,4.002 L5.022,7.907 L7.025,7.907 L7.025,11.171 C7.025,11.515 7.349,11.961 7.98,11.961 C8.61,11.961 8.955,11.478 8.955,11.135 L8.955,7.906 L10.975,7.906 L10.975,7.906 Z" class="si-glyph-fill"></path>
        </g>
    </g>
</svg>