<!--?xml version="1.0" encoding="UTF-8" standalone="no"?-->
<svg viewBox="0 0 16 16" version="1.1" xmlns="http://www.w3.org/2000/svg" xmlns:xlink="http://www.w3.org/1999/xlink" class="si-glyph si-glyph-pizza">
    <!-- Generator: Sketch 3.0.3 (7891) - http://www.bohemiancoding.com/sketch -->
    <title>Pizza</title>
    
    <defs></defs>
    <g stroke="none" stroke-width="1" fill="none" fill-rule="evenodd">
        <g fill="#434343">
            <path d="M1.863,2.581 C0.829,3.766 0.164,5.277 0.0430000001,6.944 L1.014,6.944 C1.135,5.551 1.699,4.285 2.565,3.282 L1.863,2.581 L1.863,2.581 Z" class="si-glyph-fill"></path>
            <path d="M3.266,3.982 C2.577,4.802 2.121,5.823 2.006,6.944 L6.227,6.943 L3.266,3.982 L3.266,3.982 Z" class="si-glyph-fill"></path>
            <path d="M6.969,0.042 C5.305,0.158 3.793,0.814 2.606,1.842 L3.309,2.545 C4.315,1.699 5.581,1.154 6.969,1.043 L6.969,0.042 L6.969,0.042 Z" class="si-glyph-fill"></path>
            <path d="M6.969,2.031 C5.854,2.138 4.834,2.576 4.011,3.247 L6.969,6.205 L6.969,2.031 L6.969,2.031 Z" class="si-glyph-fill"></path>
            <path d="M2.002,8.032 C2.102,9.153 2.544,10.178 3.229,11.003 L6.227,8.033 L2.002,8.032 L2.002,8.032 Z" class="si-glyph-fill"></path>
            <path d="M0.041,8.032 C0.15,9.689 0.809,11.197 1.841,12.378 L2.528,11.698 C1.666,10.692 1.114,9.424 1.009,8.032 L0.041,8.032 L0.041,8.032 Z" class="si-glyph-fill"></path>
            <path d="M3.967,11.732 C4.797,12.423 5.833,12.876 6.969,12.984 L6.969,8.731 L3.967,11.732 L3.967,11.732 Z" class="si-glyph-fill"></path>
            <path d="M2.58,13.119 C3.77,14.16 5.292,14.826 6.969,14.942 L6.969,13.972 C5.562,13.859 4.281,13.298 3.268,12.432 L2.58,13.119 L2.58,13.119 Z" class="si-glyph-fill"></path>
            <path d="M13.143,12.379 C14.176,11.197 14.832,9.691 14.944,8.033 L13.992,8.033 C13.886,9.428 13.332,10.7 12.466,11.707 L13.143,12.379 L13.143,12.379 Z" class="si-glyph-fill"></path>
            <path d="M8.756,8.033 L11.765,11.013 C12.453,10.188 12.899,9.159 12.999,8.033 L8.756,8.033 L8.756,8.033 Z" class="si-glyph-fill"></path>
            <path d="M12.994,6.943 C12.879,5.819 12.421,4.795 11.728,3.973 L8.757,6.943 L12.994,6.943 L12.994,6.943 Z" class="si-glyph-fill"></path>
            <path d="M14.941,6.943 C14.82,5.277 14.155,3.765 13.121,2.581 L12.428,3.274 C13.299,4.278 13.866,5.546 13.987,6.943 L14.941,6.943 L14.941,6.943 Z" class="si-glyph-fill"></path>
            <path d="M8.016,14.942 C9.692,14.826 11.212,14.16 12.403,13.121 L11.723,12.441 C10.707,13.305 9.424,13.863 8.016,13.973 L8.016,14.942 L8.016,14.942 Z" class="si-glyph-fill"></path>
            <path d="M8.016,12.986 C9.153,12.88 10.192,12.431 11.024,11.742 L8.016,8.732 L8.016,12.986 L8.016,12.986 Z" class="si-glyph-fill"></path>
        </g>
    </g>
</svg>