<!--?xml version="1.0" encoding="UTF-8" standalone="no"?-->
<svg viewBox="0 0 16 17" version="1.1" xmlns="http://www.w3.org/2000/svg" xmlns:xlink="http://www.w3.org/1999/xlink" class="si-glyph si-glyph-poker-1">
    <!-- Generator: Sketch 3.0.3 (7891) - http://www.bohemiancoding.com/sketch -->
    <title>618</title>
    
    <defs></defs>
    <g stroke="none" stroke-width="1" fill="none" fill-rule="evenodd">
        <path d="M11.494,1 L5.412,1 C4.082,1 3,1.098 3,2.445 L3,15.545 C3,16.893 4.082,16.99 5.412,16.99 L11.494,16.99 C12.824,16.99 13.906,16.892 13.906,15.545 L13.906,2.445 C13.906,1.098 12.824,1 11.494,1 L11.494,1 Z M9.005,10.564 L9.005,13.021 L7.958,13.021 L7.958,10.597 C7.469,10.865 6.768,10.933 6.327,10.933 C5.599,10.933 5.01,10.148 5.01,9.179 C5.01,8.212 5.6,7.429 6.327,7.429 C6.571,7.429 6.9,7.521 7.229,7.675 C7.096,7.282 7.013,6.888 7.013,6.597 C7.013,5.738 7.68,5.04 8.499,5.04 C9.316,5.04 9.981,5.737 9.981,6.597 C9.981,6.894 9.897,7.298 9.759,7.699 C10.099,7.531 10.445,7.429 10.697,7.429 C11.41,7.429 11.988,8.212 11.988,9.179 C11.988,10.148 11.41,10.933 10.697,10.933 C10.25,10.934 9.5,10.859 9.005,10.564 L9.005,10.564 Z" fill="#434343" class="si-glyph-fill"></path>
    </g>
</svg>