<!--?xml version="1.0" encoding="UTF-8" standalone="no"?-->
<svg viewBox="0 0 17 17" version="1.1" xmlns="http://www.w3.org/2000/svg" xmlns:xlink="http://www.w3.org/1999/xlink" class="si-glyph si-glyph-blender">
    <!-- Generator: Sketch 3.0.3 (7891) - http://www.bohemiancoding.com/sketch -->
    <title>833</title>
    
    <defs></defs>
    <g stroke="none" stroke-width="1" fill="none" fill-rule="evenodd">
        <g transform="translate(4.000000, 0.000000)" fill="#434343">
            <path d="M6.822,12.062 L5.958,12.069 L5.987,11 L3.03,11 L3.02,12.06 L2.118,12.058 C0.928,12.867 0.021,14.192 0.021,15.041 C0.021,16.27 8.95,16.291 8.95,15.041 C8.95,14.588 8.123,12.992 6.822,12.062 L6.822,12.062 Z M5.043,14.062 L3.958,14.062 L3.958,12.958 L5.043,12.958 L5.043,14.062 L5.043,14.062 Z" class="si-glyph-fill"></path>
            <path d="M7.857,2.023 C7.933,1.511 7.979,1.149 7.979,1.031 C7.979,-0.281 1.062,-0.26 1.062,1.031 C1.062,2.342 2.744,9.932 4.093,9.932 L4.826,9.932 C5.274,9.932 5.718,9.092 6.113,7.927 C9.342,7.514 9.995,4.692 9.999,4.634 L9.999,2.023 L7.857,2.023 L7.857,2.023 Z M6.479,6.979 C6.898,5.676 7.248,4.109 7.462,2.979 L9.02,2.979 L9.021,4.671 C9.012,4.756 8.783,6.562 6.479,6.979 L6.479,6.979 Z" class="si-glyph-fill"></path>
        </g>
    </g>
</svg>