<!--?xml version="1.0" encoding="UTF-8" standalone="no"?-->
<svg viewBox="0 0 16 16" version="1.1" xmlns="http://www.w3.org/2000/svg" xmlns:xlink="http://www.w3.org/1999/xlink" class="si-glyph si-glyph-bicycle-1">
    <!-- Generator: Sketch 3.0.3 (7891) - http://www.bohemiancoding.com/sketch -->
    <title>638</title>
    
    <defs></defs>
    <g stroke="none" stroke-width="1" fill="none" fill-rule="evenodd">
        <g transform="translate(0.000000, 2.000000)" fill="#434343">
            <path d="M2.998,6.023 C1.356,6.023 0.016,7.361 0.016,9.005 C0.016,10.651 1.356,11.988 2.998,11.988 C4.643,11.988 5.981,10.65 5.981,9.005 C5.981,7.361 4.643,6.023 2.998,6.023 L2.998,6.023 Z M2.998,11.047 C1.873,11.047 0.958,10.131 0.958,9.006 C0.958,7.881 1.873,6.966 2.998,6.966 C4.124,6.966 5.039,7.881 5.039,9.006 C5.039,10.131 4.124,11.047 2.998,11.047 L2.998,11.047 Z" class="si-glyph-fill"></path>
            <path d="M12.985,6.065 C11.365,6.065 10.05,7.389 10.05,9.017 C10.05,10.644 11.364,11.968 12.985,11.968 C14.601,11.968 15.917,10.644 15.917,9.017 C15.917,7.39 14.602,6.065 12.985,6.065 L12.985,6.065 Z M12.949,11.03 C11.83,11.03 10.92,10.121 10.92,9.006 C10.92,7.89 11.83,6.981 12.949,6.981 C14.07,6.981 14.978,7.89 14.978,9.006 C14.979,10.121 14.07,11.03 12.949,11.03 L12.949,11.03 Z" class="si-glyph-fill"></path>
            <path d="M6.712,7.944 C6.417,7.944 6.177,7.705 6.177,7.41 L5.404,3.906 L4.605,3.906 C4.277,3.906 4.02,3.524 4.02,3.038 C4.02,2.544 4.272,2.171 4.605,2.171 C7.047,2.495 6.969,2.897 6.969,3.031 C6.969,3.526 6.795,3.906 6.461,3.906 L6.431,3.906 L7.114,6.613 L11.579,4.455 L11.286,3.549 C11.226,3.364 11.272,3.161 11.406,3.019 L12.521,0.958 L10.605,0.958 C10.31,0.958 10.071,0.719 10.071,0.425 C10.071,0.13 10.31,-4.54747351e-13 10.605,-4.54747351e-13 L13.455,-4.54747351e-13 C13.669,-4.54747351e-13 13.862,0.018 13.946,0.213 C14.03,0.409 13.99,0.636 13.844,0.79 L12.389,3.486 L12.953,5.578 C13.042,5.858 12.888,6.159 12.608,6.25 C12.548,6.268 12.493,6.275 12.441,6.275 C12.21,6.275 12.001,6.122 11.932,5.903 L11.804,5.57 C11.805,5.57 6.766,7.944 6.712,7.944 L6.712,7.944 Z" class="si-glyph-fill"></path>
        </g>
    </g>
</svg>