<!--?xml version="1.0" encoding="UTF-8" standalone="no"?-->
<svg viewBox="0 0 16 16" version="1.1" xmlns="http://www.w3.org/2000/svg" xmlns:xlink="http://www.w3.org/1999/xlink" class="si-glyph si-glyph-head">
    <!-- Generator: Sketch 3.0.3 (7891) - http://www.bohemiancoding.com/sketch -->
    <title>Head</title>
    
    <defs></defs>
    <g stroke="none" stroke-width="1" fill="none" fill-rule="evenodd">
        <g transform="translate(1.000000, 0.000000)" fill="#434343">
            <g>
                <g>
                    <path d="M0.001,5.378 C0.001,5.378 -0.188,1.177 4.145,0.305 C8.478,-0.567 11.108,1.811 11.495,3.476 C11.882,5.141 12.07,5.994 11.882,6.647 C11.65,6.964 11.727,7.202 12.191,7.995 C12.655,8.788 13.584,9.66 12.268,9.818 C11.417,9.977 11.959,10.531 11.959,10.531 C11.959,10.531 12.191,11.007 11.495,11.086 C11.495,11.086 11.959,11.958 11.572,11.958 C11.185,11.958 11.108,12.117 11.03,12.434 C10.953,12.751 11.107,14.495 8.399,13.464 C7.78,13.147 7.507,14.441 7.161,15.208 C6.953,15.669 6.73,16.298 5.691,15.842 C4.764,15.435 2.696,14.464 1.92,13.137 C1.496,12.41 2.613,11.359 2.071,9.932 C1.529,8.505 1.359,8.945 0.817,8.153 C0.276,7.36 0.079,6.329 0.001,5.378 L0.001,5.378 L0.001,5.378 Z" class="si-glyph-fill"></path>
                </g>
            </g>
        </g>
    </g>
</svg>