<!--?xml version="1.0" encoding="UTF-8" standalone="no"?-->
<svg viewBox="0 0 17 16" version="1.1" xmlns="http://www.w3.org/2000/svg" xmlns:xlink="http://www.w3.org/1999/xlink" class="si-glyph si-glyph-wash-machine">
    <!-- Generator: Sketch 3.0.3 (7891) - http://www.bohemiancoding.com/sketch -->
    <title>997</title>
    
    <defs></defs>
    <g stroke="none" stroke-width="1" fill="none" fill-rule="evenodd">
        <g transform="translate(1.000000, 0.000000)" fill="#434343">
            <path d="M15.031,0.042 L0.031,0.042 L0.031,3.042 L15.031,3.042 L15.031,0.042 L15.031,0.042 Z M2.042,2.042 L0.938,2.042 L0.938,0.958 L2.042,0.958 L2.042,2.042 L2.042,2.042 Z M4.042,2.042 L2.938,2.042 L2.938,0.958 L4.042,0.958 L4.042,2.042 L4.042,2.042 Z" class="si-glyph-fill"></path>
            <path d="M0.0209999999,3 L0.0209999999,16 L14.979,16 L14.979,3 L0.0209999999,3 L0.0209999999,3 Z M7.512,15.083 C4.444,15.083 1.957,12.583 1.957,9.5 C1.957,6.416 4.443,3.916 7.512,3.916 C10.579,3.916 13.066,6.416 13.066,9.5 C13.065,12.583 10.579,15.083 7.512,15.083 L7.512,15.083 Z" class="si-glyph-fill"></path>
            <path d="M7.516,5.083 C5.063,5.083 3.075,7.062 3.075,9.499 C3.075,11.937 5.063,13.917 7.516,13.917 C9.97,13.917 11.958,11.938 11.958,9.499 C11.958,7.062 9.97,5.083 7.516,5.083 L7.516,5.083 Z M10.799,10.028 C10.878,10.028 10.949,10.007 11.017,9.98 C10.782,11.696 9.305,13.017 7.516,13.017 C5.563,13.017 3.979,11.442 3.979,9.498 C3.979,7.558 5.563,5.982 7.516,5.982 C9.305,5.982 10.782,7.303 11.017,9.018 C10.95,8.99 10.878,8.97 10.799,8.97 C10.507,8.97 10.269,9.207 10.269,9.497 C10.269,9.79 10.507,10.028 10.799,10.028 L10.799,10.028 Z" class="si-glyph-fill"></path>
        </g>
    </g>
</svg>