<!--?xml version="1.0" encoding="UTF-8" standalone="no"?-->
<svg viewBox="0 0 16 16" version="1.1" xmlns="http://www.w3.org/2000/svg" xmlns:xlink="http://www.w3.org/1999/xlink" class="si-glyph si-glyph-brush-2">
    <!-- Generator: Sketch 3.0.3 (7891) - http://www.bohemiancoding.com/sketch -->
    <title>800</title>
    
    <defs></defs>
    <g stroke="none" stroke-width="1" fill="none" fill-rule="evenodd">
        <g transform="translate(0.000000, 1.000000)" fill="#434343">
            <path d="M15.172,3.244 C14.715,3.785 10.553,8.014 8.326,9.666 L7.413,8.799 C8.703,6.288 12.154,1.507 12.609,0.967 C13.204,0.263 14.646,-0.248 15.416,0.298 C16.428,1.014 15.766,2.538 15.172,3.244 L15.172,3.244 Z" class="si-glyph-fill"></path>
            <path d="M6.607,9.702 C6.607,9.702 4.515,9.149 3.259,11.296 C2.004,13.443 0.808,12.708 0.27,12.524 C-0.268,12.34 1.526,14.794 2.363,14.794 C3.181,14.794 6.752,15.969 7.631,11.36 C7.649,11.259 7.703,9.877 6.607,9.702 L6.607,9.702 Z" class="si-glyph-fill"></path>
        </g>
    </g>
</svg>