<!--?xml version="1.0" encoding="UTF-8" standalone="no"?-->
<svg viewBox="0 0 17 16" version="1.1" xmlns="http://www.w3.org/2000/svg" xmlns:xlink="http://www.w3.org/1999/xlink" class="si-glyph si-glyph-load">
    <!-- Generator: Sketch 3.0.3 (7891) - http://www.bohemiancoding.com/sketch -->
    <title>830</title>
    
    <defs></defs>
    <g stroke="none" stroke-width="1" fill="none" fill-rule="evenodd">
        <g transform="translate(1.000000, 0.000000)" fill="#434343">
            <g>
                <path d="M8.968,1.866 C8.968,2.878 8.531,5.927 7.992,5.927 C7.455,5.927 7.015,2.878 7.015,1.866 C7.015,0.852 7.454,0.031 7.992,0.031 C8.531,0.031 8.968,0.853 8.968,1.866 L8.968,1.866 Z" class="si-glyph-fill"></path>
                <path d="M7.016,14.088 C7.016,13.082 7.454,10.057 7.993,10.057 C8.531,10.057 8.968,13.082 8.968,14.088 C8.968,15.092 8.531,15.906 7.993,15.906 C7.453,15.906 7.016,15.092 7.016,14.088 L7.016,14.088 Z" class="si-glyph-fill"></path>
                <path d="M1.859,7.03 C2.884,7.03 5.972,7.461 5.972,7.991 C5.972,8.521 2.884,8.95 1.859,8.952 C0.832,8.95 0,8.521 0,7.991 C0,7.461 0.832,7.031 1.859,7.03 L1.859,7.03 Z" class="si-glyph-fill"></path>
                <path d="M14.123,8.982 C13.102,8.982 10.031,8.542 10.031,7.999 C10.031,7.456 13.101,7.016 14.123,7.016 C15.142,7.014 15.969,7.456 15.969,7.999 C15.969,8.542 15.142,8.982 14.123,8.982 L14.123,8.982 Z" class="si-glyph-fill"></path>
            </g>
            <g transform="translate(2.000000, 2.000000)">
                <path d="M11.182,2.193 C10.467,2.908 8.002,4.755 7.621,4.375 C7.241,3.994 9.086,1.527 9.801,0.813 C10.518,0.096 11.41,-0.173 11.79,0.206 C12.172,0.588 11.898,1.477 11.182,2.193 L11.182,2.193 Z" class="si-glyph-fill"></path>
                <path d="M0.816,9.846 C1.527,9.134 3.976,7.304 4.357,7.686 C4.738,8.066 2.907,10.514 2.195,11.225 C1.486,11.935 0.601,12.202 0.22,11.822 C-0.16,11.439 0.106,10.555 0.816,9.846 L0.816,9.846 Z" class="si-glyph-fill"></path>
                <path d="M2.176,0.818 C2.902,1.543 4.78,4.031 4.405,4.406 C4.03,4.781 1.544,2.9 0.817,2.177 C0.091,1.449 -0.194,0.558 0.181,0.183 C0.556,-0.192 1.449,0.092 2.176,0.818 L2.176,0.818 Z" class="si-glyph-fill"></path>
                <path d="M9.812,11.198 C9.089,10.476 7.23,7.993 7.614,7.609 C7.998,7.224 10.481,9.085 11.202,9.807 C11.925,10.526 12.196,11.423 11.812,11.808 C11.428,12.191 10.531,11.918 9.812,11.198 L9.812,11.198 Z" class="si-glyph-fill"></path>
            </g>
        </g>
    </g>
</svg>