<!--?xml version="1.0" encoding="UTF-8" standalone="no"?-->
<svg viewBox="0 0 17 16" version="1.1" xmlns="http://www.w3.org/2000/svg" xmlns:xlink="http://www.w3.org/1999/xlink" class="si-glyph si-glyph-dish">
    <!-- Generator: Sketch 3.0.3 (7891) - http://www.bohemiancoding.com/sketch -->
    <title>1147</title>
    
    <defs></defs>
    <g stroke="none" stroke-width="1" fill="none" fill-rule="evenodd">
        <g transform="translate(1.000000, 0.000000)" fill="#434343">
            <path d="M7.979,4.06 C5.815,4.06 4.053,5.823 4.053,7.989 C4.053,10.157 5.815,11.92 7.979,11.92 C10.143,11.92 11.905,10.157 11.905,7.989 C11.904,5.822 10.143,4.06 7.979,4.06 L7.979,4.06 Z" class="si-glyph-fill"></path>
            <path d="M8.007,0.072 C3.608,0.072 0.043,3.634 0.043,8.029 C0.043,12.426 3.607,15.989 8.007,15.989 C12.404,15.989 15.972,12.427 15.972,8.029 C15.972,3.635 12.404,0.072 8.007,0.072 L8.007,0.072 Z M7.979,13.136 C5.143,13.136 2.836,10.827 2.836,7.989 C2.836,5.151 5.143,2.843 7.979,2.843 C10.815,2.843 13.122,5.151 13.122,7.989 C13.121,10.827 10.814,13.136 7.979,13.136 L7.979,13.136 Z" class="si-glyph-fill"></path>
        </g>
    </g>
</svg>