<!--?xml version="1.0" encoding="UTF-8" standalone="no"?-->
<svg viewBox="0 0 17 16" version="1.1" xmlns="http://www.w3.org/2000/svg" xmlns:xlink="http://www.w3.org/1999/xlink" class="si-glyph si-glyph-square-plus">
    <!-- Generator: Sketch 3.0.3 (7891) - http://www.bohemiancoding.com/sketch -->
    <title>133</title>
    
    <defs></defs>
    <g stroke="none" stroke-width="1" fill="none" fill-rule="evenodd">
        <path d="M14.664,0 L1.336,0 C0.598,0 0.00199999998,0.598 0.00199999998,1.335 L0.00199999998,14.664 C0.00199999998,15.401 0.598,16 1.336,16 L14.664,16 C15.402,16 16,15.401 16,14.664 L16,1.335 C16,0.598 15.402,0 14.664,0 L14.664,0 Z M9.02301046,9.01556366 L9.02301,11.5654297 C9.02301,12.1974297 6.99835179,12.1974297 6.99835179,11.5654297 L6.99835225,9.01556366 L4.42077645,9.01556376 C3.78777645,9.01556376 3.78877637,7.00610355 4.42077637,7.00610355 L6.99835223,7.00610347 L6.99835203,4.46069334 C6.99835203,3.82769334 9.02301,3.82769336 9.02301,4.46069336 L9.02301019,7.0061035 L11.5791626,7.00610331 C12.2121626,7.00610331 12.2121628,9.01556352 11.5791628,9.01556352 L9.02301046,9.01556366 Z" fill="#434343" class="si-glyph-fill"></path>
    </g>
</svg>