<!--?xml version="1.0" encoding="UTF-8" standalone="no"?-->
<svg viewBox="0 0 16 16" version="1.1" xmlns="http://www.w3.org/2000/svg" xmlns:xlink="http://www.w3.org/1999/xlink" class="si-glyph si-glyph-bandage">
    <!-- Generator: Sketch 3.0.3 (7891) - http://www.bohemiancoding.com/sketch -->
    <title>Bandage</title>
    
    <defs></defs>
    <g stroke="none" stroke-width="1" fill="none" fill-rule="evenodd">
        <g fill="#555555">
            <path d="M0.927,10.543 C-0.238,11.711 -0.25,13.59 0.902,14.742 L1.256,15.096 C2.407,16.246 4.285,16.235 5.451,15.069 L6.987,13.535 L2.462,9.012 L0.927,10.543 L0.927,10.543 Z" class="si-glyph-fill"></path>
            <path d="M15.129,1.222 L14.775,0.868 C13.623,-0.283 11.742,-0.27 10.57,0.899 L9.008,2.463 L13.535,6.988 L15.097,5.425 C16.266,4.256 16.279,2.373 15.129,1.222 L15.129,1.222 Z" class="si-glyph-fill"></path>
            <path d="M3.469,7.969 L8,12.469 L12.562,8.031 L7.974,3.385 L3.469,7.969 L3.469,7.969 Z M8.026,6.026 L6.979,6.026 L6.979,4.979 L8.026,4.979 L8.026,6.026 L8.026,6.026 Z M10.026,8.042 L8.979,8.042 L8.979,6.98 L10.026,6.98 L10.026,8.042 L10.026,8.042 Z M10.011,10.042 L8.98,10.042 L8.98,8.98 L10.011,8.98 L10.011,10.042 L10.011,10.042 Z M8.011,8.042 L6.98,8.042 L6.98,6.98 L8.011,6.98 L8.011,8.042 L8.011,8.042 Z M6.011,8.042 L4.98,8.042 L4.98,6.98 L6.011,6.98 L6.011,8.042 L6.011,8.042 Z M8.026,10.042 L6.979,10.042 L6.979,8.98 L8.026,8.98 L8.026,10.042 L8.026,10.042 Z" class="si-glyph-fill"></path>
        </g>
    </g>
</svg>