<!--?xml version="1.0" encoding="UTF-8" standalone="no"?-->
<svg viewBox="0 0 17 16" version="1.1" xmlns="http://www.w3.org/2000/svg" xmlns:xlink="http://www.w3.org/1999/xlink" class="si-glyph si-glyph-button-sell">
    <!-- Generator: Sketch 3.0.3 (7891) - http://www.bohemiancoding.com/sketch -->
    <title>685</title>
    
    <defs></defs>
    <g stroke="none" stroke-width="1" fill="none" fill-rule="evenodd">
        <path d="M14.343,2.033 L9.01,3.083 L3.635,2.033 C2.18,2.033 1,3.359 1,4.996 L1,10.014 C1,11.651 2.18,12.978 3.635,12.978 L9.01,11.958 L14.343,12.978 C15.799,12.978 16.979,11.651 16.979,10.014 L16.979,4.996 C16.979,3.359 15.799,2.033 14.343,2.033 L14.343,2.033 Z M6.042,6.004 L4.021,6.004 L4.021,6.974 L5.016,6.974 L5.016,7.983 L6.042,7.983 L6.042,9.08 L5.042,9.08 L5.042,10.058 L2.98,10.058 L2.98,8.939 L4.969,8.939 L4.969,8.032 L3.98,8.032 L3.98,7.023 L2.98,7.023 L2.98,5.958 L3.98,5.958 L3.98,4.949 L6.042,4.949 L6.042,6.004 L6.042,6.004 Z M9.042,6.03 L8.021,6.03 L8.021,6.992 L9.016,6.992 L9.016,8.043 L8.042,8.043 L8.042,8.916 L9.042,8.916 L9.042,10.057 L6.98,10.057 L6.98,4.979 L9.042,4.979 L9.042,6.03 L9.042,6.03 Z M12.042,10.057 L9.984,10.057 L9.984,4.958 L11.015,4.958 L11.015,8.937 L12.041,8.937 L12.041,10.057 L12.042,10.057 Z M15.042,10.057 L12.984,10.057 L12.984,4.948 L14.015,4.948 L14.015,9 L15.041,9 L15.041,10.057 L15.042,10.057 Z" fill="#434343" class="si-glyph-fill"></path>
    </g>
</svg>