
<svg viewBox="0 0 16 16" version="1.1" xmlns="http://www.w3.org/2000/svg" xmlns:xlink="http://www.w3.org/1999/xlink" class="si-glyph si-glyph-database-share"><title>101</title><defs></defs><g stroke="none" stroke-width="1" fill="none" fill-rule="evenodd"><g fill="#434343"><path d="M0.729545919,6 C0.360586051,6 0.062,6.73357313 0.062,7.54037257 L0.062,8.51665064 C0.062,9.32243524 0.360586051,9.97802321 0.729545919,9.97802321 L7,9.97802321 L7,14 L9,14 L9,9.97802321 L15.394444,9.97802321 C15.7634039,9.97802321 16,9.32243524 16,8.51665064 L16,7.5 C16.0020107,6.69320056 15.7654145,6 15.3954493,6 L0.729545919,6 Z M14.062,9.031 L12.937,9.031 L12.937,7.969 L14.062,7.969 L14.062,9.031 L14.062,9.031 Z" class="si-glyph-fill"></path><path d="M0.687457247,3.972 L15.3535375,3.972 C15.7224513,3.972 16.021,3.307 16.021,2.487 L16.021,1.496 C16.021,0.676 15.7224513,0.011 15.3535375,0.011 L0.687457247,0.011 C0.320553936,0.011 0.0209999999,0.676 0.0209999999,1.496 L0.0209999999,2.487 C0.0209999999,3.307 0.319548721,3.972 0.687457247,3.972 L0.687457247,3.972 Z M12.938,1.969 L13.938,1.969 L13.938,2.969 L12.938,2.969 L12.938,1.969 L12.938,1.969 Z" class="si-glyph-fill"></path><rect x="5" y="15" width="2" height="1" class="si-glyph-fill"></rect><rect x="1" y="15" width="1.927" height="0.919" class="si-glyph-fill"></rect><rect x="9" y="15" width="1.958" height="0.938" class="si-glyph-fill"></rect><rect x="13" y="15" width="1.982" height="0.888" class="si-glyph-fill"></rect></g></g></svg>