<!--?xml version="1.0" encoding="UTF-8" standalone="no"?-->
<svg viewBox="0 0 17 16" version="1.1" xmlns="http://www.w3.org/2000/svg" xmlns:xlink="http://www.w3.org/1999/xlink" class="si-glyph si-glyph-float">
    <!-- Generator: Sketch 3.0.3 (7891) - http://www.bohemiancoding.com/sketch -->
    <title>1059</title>
    
    <defs></defs>
    <g stroke="none" stroke-width="1" fill="none" fill-rule="evenodd">
        <path d="M9,0.062 C4.602,0.062 1.021,3.638 1.021,8.031 C1.021,12.426 4.602,16.001 9,16.001 C13.4,16.001 16.979,12.426 16.979,8.031 C16.979,3.638 13.4,0.062 9,0.062 L9,0.062 Z M15.947,7 L13.814,7 C13.386,4.943 11.689,3.374 9.585,3.104 L9.998,3.104 L9.998,1.054 C13.073,1.495 15.506,3.926 15.947,7 L15.947,7 Z M4.994,8.021 C4.994,5.823 6.769,4.042 8.959,4.042 C11.149,4.042 12.924,5.823 12.924,8.021 C12.924,10.219 11.149,12 8.959,12 C6.769,12 4.994,10.219 4.994,8.021 L4.994,8.021 Z M8,1.055 L8,3.105 L8.332,3.105 C6.228,3.375 4.531,4.944 4.103,7.001 L2.054,7.001 C2.495,3.927 4.926,1.496 8,1.055 L8,1.055 Z M2.053,8.979 L4.095,8.979 C4.48,10.958 6.03,12.514 8,12.902 L8,14.947 C4.92,14.505 2.485,12.062 2.053,8.979 L2.053,8.979 Z M9.999,14.947 L9.999,12.892 L9.978,12.892 C11.919,12.485 13.442,10.937 13.823,8.979 L15.949,8.979 C15.517,12.063 13.08,14.505 9.999,14.947 L9.999,14.947 Z" fill="#434343" class="si-glyph-fill"></path>
    </g>
</svg>