<!--?xml version="1.0" encoding="UTF-8" standalone="no"?-->
<svg viewBox="0 0 17 16" version="1.1" xmlns="http://www.w3.org/2000/svg" xmlns:xlink="http://www.w3.org/1999/xlink" class="si-glyph si-glyph-like-unlike">
    <!-- Generator: Sketch 3.0.3 (7891) - http://www.bohemiancoding.com/sketch -->
    <title>1141</title>
    
    <defs></defs>
    <g stroke="none" stroke-width="1" fill="none" fill-rule="evenodd">
        <g transform="translate(1.000000, 2.000000)" fill="#434343">
            <path d="M3.811,0.035 L1.194,0.035 C0.562,0.035 0.048,0.537 0.048,1.158 L0.048,6.865 C0.048,7.486 0.563,7.988 1.194,7.988 L3.811,7.988 C4.445,7.988 4.959,7.486 4.959,6.865 L4.959,1.158 C4.959,0.537 4.444,0.035 3.811,0.035 L3.811,0.035 Z" class="si-glyph-fill"></path>
            <path d="M13.938,3.045 L13.938,1.961 L15.452,1.961 C15.376,0.815 14.794,0.063 13.712,0.063 L9.286,0.063 C8.598,0.063 8.257,1.375 6.587,1.375 L6.029,1.357 L6.029,7.312 C6.029,7.312 7.092,7.478 7.448,8.603 C7.448,8.603 8.899,12.564 10.018,12.96 C10.676,12.96 11.209,13.007 11.209,11.835 L10.614,10.021 C10.614,10.021 10.261,7.988 12.754,7.988 L14.899,7.988 C15.587,7.988 15.959,7.564 15.959,6.939 C15.959,6.939 15.973,6.582 15.966,6.044 L13.939,6.044 L13.939,4.96 L15.929,4.96 C15.894,4.36 15.827,3.694 15.711,3.044 L13.938,3.044 L13.938,3.045 Z" class="si-glyph-fill"></path>
        </g>
    </g>
</svg>