<!--?xml version="1.0" encoding="UTF-8" standalone="no"?-->
<svg viewBox="0 0 17 16" version="1.1" xmlns="http://www.w3.org/2000/svg" xmlns:xlink="http://www.w3.org/1999/xlink" class="si-glyph si-glyph-bank">
    <!-- Generator: Sketch 3.0.3 (7891) - http://www.bohemiancoding.com/sketch -->
    <title>896</title>
    
    <defs></defs>
    <g stroke="none" stroke-width="1" fill="none" fill-rule="evenodd">
        <g transform="translate(1.000000, 0.000000)" fill="#434343">
            <path d="M15,14 L15,13 L13.998,13 L13.998,12 L13,12 L13,6.032 L12.031,6.032 L12.031,12 L10,12 L10,6.032 L9,6.032 L9,12 L7,12 L7,6.032 L6,6.032 L6,12 L4,12 L4,6.032 L3.01,6.032 L3,12 L2,12 L2,13 L1,13 L1,14 L0,14 L0,15 L16,15 L16,14 L15,14 Z" class="si-glyph-fill"></path>
            <path d="M2.021,6 L13.979,6 L13.979,5 L14.979,5 L14.979,4 L13.969,4 L8.031,0.094 L2.031,4 L1,4 L1,5 L2.021,5 L2.021,6 Z" class="si-glyph-fill"></path>
        </g>
    </g>
</svg>