<!--?xml version="1.0" encoding="UTF-8" standalone="no"?-->
<svg viewBox="0 0 17 16" version="1.1" xmlns="http://www.w3.org/2000/svg" xmlns:xlink="http://www.w3.org/1999/xlink" class="si-glyph si-glyph-microphone-2">
    <!-- Generator: Sketch 3.0.3 (7891) - http://www.bohemiancoding.com/sketch -->
    <title>1008</title>
    
    <defs></defs>
    <g stroke="none" stroke-width="1" fill="none" fill-rule="evenodd">
        <g transform="translate(2.000000, 1.000000)" fill="#434343">
            <path d="M11.984,6.031 L11.944,4.024 L11.008,4.024 L11.048,8.653 C11.048,10.581 9.06,12.062 6.519,12.062 C3.978,12.062 1.984,10.581 1.984,8.653 L1.984,4.031 L1.01,4.031 L1.01,6.016 L0.015,6.016 L0.015,6.938 L1.01,6.938 L1.01,9.049 C1.01,10.747 2.751,12.299 4.999,12.799 L4.999,15 L7.978,15 L7.978,12.812 C10.253,12.327 11.983,10.764 11.983,9.05 L11.983,6.953 L12.983,6.953 L12.983,6.031 L11.984,6.031 L11.984,6.031 Z" class="si-glyph-fill"></path>
            <path d="M6.495,9.953 C8.409,9.953 9.963,9.084 9.963,8.013 L9.963,6.016 L3.025,6.016 L3.025,8.013 C3.025,9.084 4.579,9.953 6.495,9.953 L6.495,9.953 Z" class="si-glyph-fill"></path>
            <path d="M9.979,2.428 C9.979,1.086 8.421,0 6.5,0 C4.579,0 3.021,1.086 3.021,2.428 L3.021,4.99 L9.978,4.99 L9.978,2.428 L9.979,2.428 Z" class="si-glyph-fill"></path>
        </g>
    </g>
</svg>