<!--?xml version="1.0" encoding="UTF-8" standalone="no"?-->
<svg viewBox="0 0 17 16" version="1.1" xmlns="http://www.w3.org/2000/svg" xmlns:xlink="http://www.w3.org/1999/xlink" class="si-glyph si-glyph-iron">
    <!-- Generator: Sketch 3.0.3 (7891) - http://www.bohemiancoding.com/sketch -->
    <title>770</title>
    
    <defs></defs>
    <g stroke="none" stroke-width="1" fill="none" fill-rule="evenodd">
        <path d="M16.317435,8.0832168 C16.620435,7.4632168 16.953,6.947 16.953,6.137 C16.953,5.35 16.727,4.783 16.282,4.452 C15.741,4.052 14.473,4.146 13.872,4.221 C13.786,4.179 13.672435,4.0222168 13.570435,4.0222168 L7.0123901,4.62878418 C6.28143307,4.7800293 5.557,5.512 5.557,5.512 L1.039,10.265 C1.039,10.639 1.09500044,10.9569998 1.70800044,10.9569998 L13,10.943 L13.0000004,10.9429998 C13.0000004,10.9429998 12.491,8 14,8 L14,4.867 C14.537,4.824 15.613,4.798 15.896,5.01 C16.157,5.204 16.289,5.582 16.289,6.137 C16.289,6.785 16.035,7.305 15.742,7.905 C15.101,9.216 14.375,10.453 16.015,13.693 C16.075,13.809 16.19,13.877 16.31,13.877 C16.361,13.877 16.414,13.864 16.463,13.837 C16.626,13.751 16.689,13.544 16.603,13.376 C15.121,10.447 15.738,9.433 16.336,8.213 L16.317435,8.0832168 Z M13.077,7.139 C12.761,7.139 10.932,7.288 10.932,7.279 L10.932,6.725 C10.932,6.368 10.652,6.08 10.305,6.08 L9.708,6.08 C9.36,6.08 9.08,6.367 9.08,6.725 L9.08,7.279 C9.08,7.354 4.845,7.96 4.845,7.96 L6.281,6.145 C6.281,6.145 6.727,5.534 7.252,5.534 L12.592,4.918 C12.861,4.918 13.077,5.19 13.077,5.529 L13.077,7.139 L13.077,7.139 Z" fill="#434343" class="si-glyph-fill"></path>
    </g>
</svg>