<!--?xml version="1.0" encoding="UTF-8" standalone="no"?-->
<svg viewBox="0 0 16 16" version="1.1" xmlns="http://www.w3.org/2000/svg" xmlns:xlink="http://www.w3.org/1999/xlink" class="si-glyph si-glyph-film-35mm">
    <!-- Generator: Sketch 3.0.3 (7891) - http://www.bohemiancoding.com/sketch -->
    <title>98</title>
    
    <defs></defs>
    <g stroke="none" stroke-width="1" fill="none" fill-rule="evenodd">
        <g fill="#434343">
            <path d="M8.0269593,4.038 L8.0269593,12.984 L14.9763954,12.972 L14.9763954,4.079 L8.0269593,4.038 Z" class="si-glyph-fill"></path>
            <path d="M6.348,15.969 L13.617,15.969 C14.347,15.969 14.939,15.418 14.939,14.74 L14.939,14.042 L5.026,14.042 L5.026,14.74 C5.026,15.418 5.617,15.969 6.348,15.969 Z" class="si-glyph-fill"></path>
            <path d="M13.633,1.027 L11.969,1.027 L11.969,0.581 C11.969,0.269 11.735,0.016 11.445,0.016 L8.56,0.016 C8.27,0.016 8.036,0.27 8.036,0.581 L8.036,1.027 L6.365,1.027 C5.634,1.027 5.043,1.569 5.043,2.236 L5.043,2.965 L14.956,2.965 L14.956,2.236 C14.955,1.569 14.363,1.027 13.633,1.027 L13.633,1.027 Z" class="si-glyph-fill"></path>
            <path d="M6.984,13.021 L6.995,4.021 L6.031,4.021 L6.031,5.0217823 L4.953,5.0217823 L4.953,4.021 L3.956,4.021 C3.956,4.23222038 3.873,5.45226956 3.873,5.45226956 C3.809,7.87627492 0.029,8.96657443 0.029,10.008595 L0.029,13.021 L1,13.021 L1,11.9840085 L2.031,11.9840085 L2.031,13.021 L2.969,13.021 L2.969,11.9990957 L4,11.9990957 L4,13.021 L4.969,13.021 L4.969,12.0151886 L6.031,12.0151886 L6.031,13.021 L6.984,13.021 Z M3.157129,8.43490089 C4.20659554,7.75767586 4.60911736,6.02623397 4.60911736,6.02623397 L6,6 L5.93695441,11 L1,11 C1,10.9990284 1.45198836,9.5347843 3.157129,8.43490089 Z" class="si-glyph-fill"></path>
        </g>
    </g>
</svg>