<!--?xml version="1.0" encoding="UTF-8" standalone="no"?-->
<svg viewBox="0 0 16 16" version="1.1" xmlns="http://www.w3.org/2000/svg" xmlns:xlink="http://www.w3.org/1999/xlink" class="si-glyph si-glyph-arrow-move">
    <!-- Generator: Sketch 3.0.3 (7891) - http://www.bohemiancoding.com/sketch -->
    <title>104</title>
    
    <defs></defs>
    <g stroke="none" stroke-width="1" fill="none" fill-rule="evenodd">
        <g fill="#434343">
            <path d="M7.946,9.976 C9.02074612,9.976 9.98968506,9.08594212 9.98968506,7.98800004 C9.98968506,6.89005795 9.02074612,6 7.946,6 C6.87125388,6 6,6.89005792 6,7.988 C6,9.08594208 6.87125388,9.976 7.946,9.976 Z" class="si-glyph-fill"></path>
            <path d="M5.21041012,3.98431384 C5.01241012,3.75531384 4.97441016,3.30400003 5.17641016,3.07000003 L7.549,0.136 C7.752,-0.099 8.076,-0.102 8.278,0.131 L10.8147193,3.08200003 C11.0167193,3.31100003 11.0167193,3.75131384 10.8147193,3.98431384 L5.21041012,3.98431384 Z" class="si-glyph-fill"></path>
            <path d="M10.8208619,12.0411987 C11.0208619,12.2091987 11.0188619,12.561 10.8208619,12.729 L8.314,15.833 C8.111,16 7.789,16 7.589,15.833 L5.22375488,12.729 C5.02375488,12.561 5.02375488,12.2111987 5.22375488,12.0431987 L10.8208619,12.0411987 Z" class="si-glyph-fill"></path>
            <path d="M12.93,5.268 L15.864,7.574 C16.098,7.784 16.102,8.125 15.87,8.334 L12.922,10.745 C12.694,10.952 12.2675835,10.956 12.0355835,10.745 L12.0355835,5.26200012 C12.0355835,5.26200012 12.697,5.058 12.93,5.268 Z" class="si-glyph-fill"></path>
            <path d="M4.0128603,10.7889999 C3.7838603,10.9979999 3.325,10.996 3.096,10.789 L0.164,8.33 C-0.066,8.119 -0.066,7.781 0.168,7.57 L3.076,5.213 C3.305,5.006 3.78286035,5.00399993 4.01286035,5.21299993 L4.0128603,10.7889999 Z" class="si-glyph-fill"></path>
        </g>
    </g>
</svg>