
<svg viewBox="0 0 16 16" version="1.1" xmlns="http://www.w3.org/2000/svg" xmlns:xlink="http://www.w3.org/1999/xlink" class="si-glyph si-glyph-basket-checked"><title>615</title><defs></defs><g stroke="none" stroke-width="1" fill="none" fill-rule="evenodd"><g transform="translate(0.000000, 1.000000)"><path d="M9.652,12.02 L9.932,11.731 C9.927,11.7 9.915,11.672 9.915,11.639 L9.915,7.483 C9.915,7.145 10.158,6.872 10.46,6.872 L10.481,6.872 C10.782,6.872 11.027,7.145 11.027,7.483 L11.027,10.596 L11.727,9.871 L12.852,10.988 L13.224,10.602 L13.477,5.975 L14.243,5.975 C14.643,5.975 14.968,4.755 14.968,4.755 C14.968,4.385 14.644,4.083 14.243,4.083 L12.315,4.083 L11.28,0.446 C11.129,0.129 10.754,0.000999999991 10.442,0.16 L10.371,0.196 C10.06,0.356 9.931,0.742 10.082,1.059 L10.823,4.082 L4.169,4.082 L4.937,1.063 C5.091,0.749 4.964,0.361 4.656,0.198 L4.586,0.162 C4.275,-8.11072043e-12 3.898,0.124 3.744,0.439 L2.671,4.082 L0.781,4.082 C0.381,4.082 0.056,4.384 0.056,4.754 C0.056,4.754 0.38,5.974 0.781,5.974 L1.417,5.974 L1.866,12.651 C1.866,12.651 1.918,13.96 3.979,13.96 L11,13.96 C11.215,13.96 11.393,13.939 11.566,13.914 L9.652,12.02 L9.652,12.02 Z M11.938,4.969 L13.032,4.969 L13.032,6.063 L11.938,6.063 L11.938,4.969 L11.938,4.969 Z M3.031,6.031 L1.969,6.031 L1.969,4.969 L3.031,4.969 L3.031,6.031 L3.031,6.031 Z M5.062,11.742 C5.062,12.092 4.811,12.375 4.503,12.375 L4.48,12.375 C4.169,12.375 3.919,12.092 3.919,11.742 L3.919,7.413 C3.919,7.063 4.169,6.781 4.48,6.781 L4.503,6.781 C4.811,6.781 5.062,7.063 5.062,7.413 L5.062,11.742 L5.062,11.742 Z M8.061,11.547 C8.061,11.881 7.824,12.152 7.532,12.152 L7.511,12.152 C7.218,12.152 6.982,11.881 6.982,11.547 L6.982,7.448 C6.982,7.114 7.218,6.844 7.511,6.844 L7.532,6.844 C7.824,6.844 8.061,7.115 8.061,7.448 L8.061,11.547 L8.061,11.547 Z" fill="#434343" class="si-glyph-fill"></path><path d="M11.0916138,11.9720187 L13,13.9577734 L15.9433593,9.98626404" stroke="#434343" class="si-glyph-fill si-glyph-stroke si-glyph-fill-stroke si-glyph-thick-stroke si-glyph-thick"></path></g></g></svg>