<!--?xml version="1.0" encoding="UTF-8" standalone="no"?-->
<svg viewBox="0 0 17 17" version="1.1" xmlns="http://www.w3.org/2000/svg" xmlns:xlink="http://www.w3.org/1999/xlink" class="si-glyph si-glyph-person-woman">
    <!-- Generator: Sketch 3.0.3 (7891) - http://www.bohemiancoding.com/sketch -->
    <title>738</title>
    
    <defs></defs>
    <g stroke="none" stroke-width="1" fill="none" fill-rule="evenodd">
        <g transform="translate(1.000000, 2.000000)" fill="#434343">
            <path d="M11.677,9 C8.834,11.147 10.953,12.424 8.024,12.424 C5.092,12.424 7.42,11.233 4.264,9.026 C-0.644,10.407 0.0375978199,13.90979 0.0375978199,13.90979 L15.9125978,13.90979 C15.9115978,13.90979 16.564,9.989 11.677,9 L11.677,9 Z" class="si-glyph-fill"></path>
            <path d="M11.574,4.998 L10.999,6.878 L12.883,7 C12.883,7 11.73,6.15 11.574,4.998 L11.574,4.998 Z" class="si-glyph-fill"></path>
            <path d="M4.394,5.023 L4.932,6.916 L3.045,7 C3.045,7 4.214,6.174 4.394,5.023 L4.394,5.023 Z" class="si-glyph-fill"></path>
            <path d="M10.929,3.046 C10.929,4.726 9.606,7.941 7.975,7.941 C6.343,7.941 5.021,4.726 5.021,3.046 C5.021,1.363 6.343,0 7.975,0 C9.605,0.001 10.929,1.364 10.929,3.046 L10.929,3.046 Z" class="si-glyph-fill"></path>
        </g>
    </g>
</svg>