<!--?xml version="1.0" encoding="UTF-8" standalone="no"?-->
<svg viewBox="0 0 17 16" version="1.1" xmlns="http://www.w3.org/2000/svg" xmlns:xlink="http://www.w3.org/1999/xlink" class="si-glyph si-glyph-bomb-2">
    <!-- Generator: Sketch 3.0.3 (7891) - http://www.bohemiancoding.com/sketch -->
    <title>663</title>
    
    <defs></defs>
    <g stroke="none" stroke-width="1" fill="none" fill-rule="evenodd">
        <g transform="translate(1.000000, 0.000000)" fill="#434343">
            <path d="M15.427,0.016 C15.334,0.968 14.573,1.271 13.332,1.655 C12.748,1.837 12.127,2.034 11.62,2.375 C10.73,1.902 10.109,2.012 10.109,2.012 L8.808,3.628 C10.087,4.039 11.175,4.845 11.912,5.899 L13.2,4.296 C13.2,4.296 13.295,3.608 12.242,2.783 C12.62,2.583 13.067,2.439 13.529,2.296 C14.664,1.944 15.854,1.464 15.999,9.09494702e-13 L15.427,0.016 L15.427,0.016 Z" class="si-glyph-fill"></path>
            <path d="M7.857,4.364 C7.261,4.165 6.627,4.052 5.962,4.052 C2.669,4.052 -0.001,6.722 -0.001,10.016 C-0.001,13.31 2.669,15.979 5.962,15.979 C9.256,15.979 11.925,13.31 11.925,10.016 C11.925,8.788 11.554,7.65 10.919,6.701 C10.193,5.616 9.119,4.787 7.857,4.364 L7.857,4.364 Z M6.299,6.077 C3.592,6.077 2.137,7.586 2.137,10.043 L1.031,10.043 C1.031,7.408 3.243,5.233 6.069,4.964 C6.068,4.964 6.457,6.077 6.299,6.077 L6.299,6.077 Z" class="si-glyph-fill"></path>
        </g>
    </g>
</svg>