<!--?xml version="1.0" encoding="UTF-8" standalone="no"?-->
<svg viewBox="0 0 16 16" version="1.1" xmlns="http://www.w3.org/2000/svg" xmlns:xlink="http://www.w3.org/1999/xlink" class="si-glyph si-glyph-bluetooth">
    <!-- Generator: Sketch 3.0.3 (7891) - http://www.bohemiancoding.com/sketch -->
    <title>39</title>
    
    <defs></defs>
    <g stroke="none" stroke-width="1" fill="none" fill-rule="evenodd">
        <g transform="translate(3.000000, 0.000000)" fill="#434343">
            <path d="M5,11.967 L5.969,11.024 L5,10 L5,11.967 Z" class="si-glyph-fill"></path>
            <path d="M5.03,5.982 L5.969,5.037 L5.03,4.009 L5.03,5.982 Z" class="si-glyph-fill"></path>
            <path d="M4.506,0 C2.033,0 0.027,1.546 0.027,3.453 L0.027,12.548 C0.027,14.454 2.033,16 4.506,16 C6.978,16 8.983,14.454 8.983,12.548 L8.983,3.453 C8.982,1.546 6.978,0 4.506,0 L4.506,0 Z M7.45190491,11.0110538 L3.93994018,14 L3.93994018,8.81503316 L1.72040302,10.8813559 L1.04604849,10.1326455 L3.13664987,8.06337509 L1,6.09923852 L1.72040302,5.43306313 L3.93994018,7.34512405 L3.93994018,2 L7.5,5.11667895 L4.6378306,8.094817 L7.45190491,11.0110538 L7.45190491,11.0110538 Z" class="si-glyph-fill"></path>
        </g>
    </g>
</svg>