
<svg viewBox="0 0 16 16" version="1.1" xmlns="http://www.w3.org/2000/svg" xmlns:xlink="http://www.w3.org/1999/xlink" class="si-glyph si-glyph-slide-show"><title>Slide-show</title><defs></defs><g stroke="none" stroke-width="1" fill="none" fill-rule="evenodd"><g fill="#434343"><rect x="7" y="0" width="1.906" height="2.219" class="si-glyph-fill"></rect><path d="M15.993,2.621 C15.993,2.287 15.674,2.016 15.281,2.016 L0.781,2.016 C0.387,2.016 0.069,2.287 0.069,2.621 L0.069,3.937 L1.031,3.937 L1.031,11.986 L5.465,11.986 L3.17,14.724 C3.009,14.886 3.069,15.209 3.306,15.446 L3.736,15.875 L7.063,12.105 L7.063,15.968 L8.914,15.968 L8.914,12.002 L12.333,15.874 L12.762,15.445 C12.999,15.209 13.06,14.885 12.898,14.723 L10.533,11.985 L14.939,11.985 L14.939,3.936 L15.995,3.936 L15.995,2.621 L15.993,2.621 Z M14.031,11.106 L1.959,11.106 L1.959,3.937 L14.031,3.937 L14.031,11.106 L14.031,11.106 Z" class="si-glyph-fill"></path></g></g></svg>