<!--?xml version="1.0" encoding="UTF-8" standalone="no"?-->
<svg viewBox="0 0 17 16" version="1.1" xmlns="http://www.w3.org/2000/svg" xmlns:xlink="http://www.w3.org/1999/xlink" class="si-glyph si-glyph-corkscrew">
    <!-- Generator: Sketch 3.0.3 (7891) - http://www.bohemiancoding.com/sketch -->
    <title>1041</title>
    
    <defs></defs>
    <g stroke="none" stroke-width="1" fill="none" fill-rule="evenodd">
        <g transform="translate(5.000000, 0.000000)" fill="#434343">
            <path d="M8.107,0.038 L0.859,0.038 C0.386,0.038 0,0.448 0,0.953 L0,1.038 C0,1.542 0.387,1.953 0.859,1.953 L8.107,1.953 C8.583,1.953 8.966,1.542 8.966,1.038 L8.966,0.953 C8.967,0.448 8.583,0.038 8.107,0.038 L8.107,0.038 Z" class="si-glyph-fill"></path>
            <path d="M5.987,8.496 C5.999,8.35 4.966,7.187 4.966,7.187 L4.941,2.955 L6.953,2.955 L6.953,2 L2.043,2 L2.043,2.955 L4.057,2.955 L4.057,4.483 C4.057,4.483 3.042,5.369 3.04,5.507 C3.035,5.644 4.021,6.833 4.021,6.833 L4.021,11.171 C4.021,11.171 3.07,12.386 3.068,12.545 C3.068,12.704 4.025,13.874 4.025,13.874 L4.037,15.499 C4.037,15.776 4.252,15.999 4.517,15.999 C4.785,15.999 4.968,15.808 4.968,15.53 L4.966,9.894 C4.967,9.896 5.976,8.643 5.987,8.496 L5.987,8.496 Z" class="si-glyph-fill"></path>
        </g>
    </g>
</svg>