<!--?xml version="1.0" encoding="UTF-8" standalone="no"?-->
<svg viewBox="0 0 17 16" version="1.1" xmlns="http://www.w3.org/2000/svg" xmlns:xlink="http://www.w3.org/1999/xlink" class="si-glyph si-glyph-christmass-hat">
    <!-- Generator: Sketch 3.0.3 (7891) - http://www.bohemiancoding.com/sketch -->
    <title>1070</title>
    
    <defs></defs>
    <g stroke="none" stroke-width="1" fill="none" fill-rule="evenodd">
        <g transform="translate(1.000000, 0.000000)" fill="#434343">
            <path d="M14.33,0.691 C13.836,0.709 13.285,1.102 12.832,0.85 C10.65,-0.362 6.642,-0.307 5.103,1.813 C4.271,2.959 4.509,4.476 3.73,5.612 C2.669,7.161 0.967,7.938 1.031,10.205 C1.062,11.306 2.564,10.927 3.343,10.923 C4.56,10.916 6.097,10.912 7.314,10.91 C8.455,10.908 9.984,10.906 11.124,10.906 C14.043,10.906 12.63,9.579 12.281,7.838 C12.115,7.001 11.591,5.887 11.293,5.118 C10.927,4.18 9.644,2.078 11.115,1.793 C13.152,1.397 11.318,3.238 14.333,3.97 C15.213,4.183 15.971,3.231 15.971,2.323 C15.971,1.635 15.53,1.004 14.883,0.772 C14.697,0.703 14.513,0.685 14.33,0.691 L14.33,0.691 Z" class="si-glyph-fill"></path>
            <path d="M13.925,14.669 C13.925,15.389 13.301,15.972 12.535,15.972 L1.422,15.972 C0.656,15.972 0.033,15.389 0.033,14.669 L0.033,13.366 C0.033,12.647 0.656,12.064 1.422,12.064 L12.535,12.064 C13.301,12.064 13.925,12.647 13.925,13.366 L13.925,14.669 L13.925,14.669 Z" class="si-glyph-fill"></path>
        </g>
    </g>
</svg>