
<svg viewBox="0 0 17 16" version="1.1" xmlns="http://www.w3.org/2000/svg" xmlns:xlink="http://www.w3.org/1999/xlink" class="si-glyph si-glyph-button-buy"><title>760</title><defs></defs><g stroke="none" stroke-width="1" fill="none" fill-rule="evenodd"><g transform="translate(0.000000, 2.000000)" fill="#434343"><path d="M13.36,0.094 L8,1.094 L2.682,0.094 C1.231,0.094 0.053,1.412 0.053,3.039 L0.053,8.021 C0.053,9.647 1.231,10.964 2.682,10.964 L8,9.937 L13.36,10.964 C14.813,10.964 15.99,9.647 15.99,8.021 L15.99,3.039 C15.99,1.412 14.813,0.094 13.36,0.094 L13.36,0.094 Z M6,7.04113614 L5.03198242,7.04113614 L5.03198242,8 L2,8 L2,3 L5.03198242,3 L5.03198242,4 L6,4 L6,7.04113614 L6,7.04113614 Z M10,8 L7,8 L7,3 L8,3 L8,7.02453613 L9,7.02453613 L9,3 L10,3 L10,8 L10,8 Z M14,6.02488637 L13.0393852,6 L13.0393852,8 L11.9606148,8 L11.9807877,6.02488643 L11,6.02488643 L11,3 L11.9807877,3 L11.9807877,6.02488637 L13.0393853,6.02488637 L13.0393853,3 L14,3 L14,6.02488643 L14,6.02488637 Z" class="si-glyph-fill"></path><path d="M3,6 L2.99999997,7.03710938 L5.0064697,7.03710938 L5.00646973,6 L3,6 Z" class="si-glyph-fill"></path><rect x="3" y="4" width="2.02612305" height="1.02941895" class="si-glyph-fill"></rect></g></g></svg>