<!--?xml version="1.0" encoding="UTF-8" standalone="no"?-->
<svg viewBox="0 0 17 16" version="1.1" xmlns="http://www.w3.org/2000/svg" xmlns:xlink="http://www.w3.org/1999/xlink" class="si-glyph si-glyph-motobike">
    <!-- Generator: Sketch 3.0.3 (7891) - http://www.bohemiancoding.com/sketch -->
    <title>761</title>
    
    <defs></defs>
    <g stroke="none" stroke-width="1" fill="none" fill-rule="evenodd">
        <g transform="translate(4.000000, 0.000000)" fill="#434343">
            <path d="M3.031,8.958 L5.958,8.958 C5.958,7.836 5.301,7.792 4.494,7.792 C3.686,7.792 3.031,7.836 3.031,8.958 L3.031,8.958 Z" class="si-glyph-fill"></path>
            <path d="M6.617,1.042 C6.179,0.448 5.397,0 4.496,0 C3.594,0 2.812,0.448 2.377,1.042 L0.022,1.042 L0.022,1.958 L0.043,1.958 L0.043,1.961 L2.083,1.961 C1.154,2.525 -2.27373675e-13,2.886 -2.27373675e-13,4.433 C-2.27373675e-13,5.98 0.744,5.931 1.016,6.333 L1.016,11.613 C1.016,13.128 2.063,13.666 3.063,13.859 L3.063,14.494 C3.063,14.922 3.546,16 4.508,16 C5.463,16 5.977,14.922 5.977,14.494 L5.977,13.852 C6.965,13.653 7.985,13.108 7.985,11.613 L7.985,6.209 C8.235,5.802 8.98,5.938 8.98,4.313 C8.98,2.688 7.765,2.497 6.881,1.959 L8.98,1.959 L8.98,1.366 L8.98,1.043 L6.617,1.043 L6.617,1.042 Z M4.496,0.958 C5.36,0.958 6.059,1.653 6.059,2.511 C6.059,3.367 5.36,4.063 4.496,4.063 C3.632,4.063 2.934,3.368 2.934,2.511 C2.934,1.653 3.632,0.958 4.496,0.958 L4.496,0.958 Z M7.03,11.657 C7.03,12.233 6.801,12.634 6,12.832 L6,10.016 L3.039,10.016 L3.039,12.832 C2.206,12.624 1.969,12.199 1.969,11.613 L1.969,7.304 C2.662,7.738 3.553,7.993 4.524,7.979 C5.483,7.964 6.355,7.689 7.031,7.246 L7.031,11.657 L7.03,11.657 Z" class="si-glyph-fill"></path>
        </g>
    </g>
</svg>