<!--?xml version="1.0" encoding="UTF-8" standalone="no"?-->
<svg viewBox="0 0 17 17" version="1.1" xmlns="http://www.w3.org/2000/svg" xmlns:xlink="http://www.w3.org/1999/xlink" class="si-glyph si-glyph-share-2">
    <!-- Generator: Sketch 3.0.3 (7891) - http://www.bohemiancoding.com/sketch -->
    <title>40</title>
    
    <defs></defs>
    <g stroke="none" stroke-width="1" fill="none" fill-rule="evenodd">
        <path d="M14.025,5 C12.945,5.008 12.074,5.912 12.084,7.016 C12.088,7.545 12.297,8.023 12.629,8.378 L11.594,11.094 C11.414,11.038 11.229,11 11.032,11 C10.889,11 10.751,11.018 10.616,11.047 L7.337,6.453 C7.741,6.092 8.001,5.568 8.001,4.978 C8.001,3.886 7.124,2.999 6.042,2.999 C4.962,2.999 4.085,3.886 4.085,4.978 C4.085,5.426 4.237,5.835 4.485,6.167 L2.821,9.169 C2.579,9.062 2.313,8.999 2.032,8.999 C0.944,8.999 0.063,9.895 0.063,10.999 C0.063,12.103 0.944,12.999 2.032,12.999 C3.118,12.999 4.001,12.103 4.001,10.999 C4.001,10.547 3.847,10.134 3.597,9.799 L5.265,6.793 C5.503,6.897 5.767,6.957 6.042,6.957 C6.183,6.957 6.317,6.941 6.448,6.913 L9.731,11.509 C9.325,11.876 9.063,12.405 9.063,12.999 C9.063,14.103 9.944,14.999 11.032,14.999 C12.118,14.999 13.001,14.103 13.001,12.999 C13.001,12.461 12.788,11.974 12.448,11.614 L13.479,8.905 C13.665,8.962 13.856,9.001 14.057,8.999 C15.139,8.991 16.008,8.087 16,6.983 C15.99,5.881 15.107,4.991 14.025,5 L14.025,5 Z" fill="#434343" class="si-glyph-fill"></path>
    </g>
</svg>