<!--?xml version="1.0" encoding="UTF-8" standalone="no"?-->
<svg viewBox="0 0 17 16" version="1.1" xmlns="http://www.w3.org/2000/svg" xmlns:xlink="http://www.w3.org/1999/xlink" class="si-glyph si-glyph-mask-1">
    <!-- Generator: Sketch 3.0.3 (7891) - http://www.bohemiancoding.com/sketch -->
    <title>1064</title>
    
    <defs></defs>
    <g stroke="none" stroke-width="1" fill="none" fill-rule="evenodd">
        <path d="M14.435,4.102 C13.105,3.687 10.788,5.241 8.996,5.241 C7.195,5.241 4.869,3.689 3.535,4.108 C1.611,4.713 1.033,3.511 1.033,4.588 C1.033,4.588 0.84,10.636 4.379,11.474 C6.379,11.76 7.824,12.969 8.996,12.969 C10.188,12.969 11.185,11.89 13.663,11.464 C16.877,11.025 16.961,4.588 16.961,4.588 C16.961,3.506 16.371,4.706 14.435,4.102 L14.435,4.102 Z M12.83,8.525 C11.976,8.82 11.144,8.864 10.574,8.69 C10.22,8.582 9.959,8.763 9.768,8.838 C9.579,8.913 9.579,7.538 10.367,6.886 C10.757,6.561 10.92,6.459 11.56,6.238 C12.945,5.761 14.946,6.492 14.946,6.492 C14.946,6.492 14.212,8.049 12.83,8.525 L12.83,8.525 Z M3.017,6.492 C3.017,6.492 5.018,5.762 6.403,6.238 C7.045,6.46 7.208,6.561 7.596,6.886 C8.385,7.538 8.385,8.913 8.196,8.838 C8.006,8.763 7.744,8.581 7.391,8.69 C6.819,8.864 5.988,8.82 5.133,8.525 C3.751,8.049 3.017,6.492 3.017,6.492 L3.017,6.492 Z" fill="#434343" class="si-glyph-fill"></path>
    </g>
</svg>