
<svg viewBox="0 0 17 16" version="1.1" xmlns="http://www.w3.org/2000/svg" xmlns:xlink="http://www.w3.org/1999/xlink" class="si-glyph si-glyph-tank"><title>713</title><defs class="si-glyph-fill"></defs><g stroke="none" stroke-width="1" fill="none" fill-rule="evenodd"><g fill="#434343"><path d="M4,1 L4,0 L3.031,0 L3.031,1 L3,4.031 L4.969,4.031 L4.969,1 L4,1 Z" class="si-glyph-fill"></path><path d="M9.031,0 L9.031,1.031 L8,1.031 L8,5.031 L10,5.031 L10,0 L9.031,0 Z" class="si-glyph-fill"></path><rect x="2" y="2" width="10.0372314" height="1" class="si-glyph-fill"></rect><rect x="2" y="8" width="4" height="4.00408936" class="si-glyph-fill"></rect><path d="M4.568,4.00017228 L3.453,4.00017228 C2.109,4.00017228 2,3.95917228 2,5.14217228 L2,6.97052002 L6,6.97052002 L6,5.14217228 C6,3.95917228 5.911,4.00017228 4.568,4.00017228 Z" class="si-glyph-fill"></path><path d="M3.453,15.969 L4.568,15.969 C5.911,15.969 6,16.01 6,14.826 L6,13.0038452 L2,13.0038452 L2,14.826 C2,16.01 2.109,15.969 3.453,15.969 Z" class="si-glyph-fill"></path><path d="M9.557,4.051 L8.465,4.051 C7.15,4.051 7,4.01 7,5.193 L7,7.00469969 L11,7.00469969 L11,5.193 C11,4.01 10.871,4.051 9.557,4.051 Z" class="si-glyph-fill"></path><path d="M8.465,16.0069756 L9.557,16.0069756 C10.871,16.0069756 11,16.0479756 11,14.8639756 L11,13.0128784 L7,13.0128784 L7,14.8639756 C7,16.0479756 7.149,16.0069756 8.465,16.0069756 Z" class="si-glyph-fill"></path><rect x="7" y="8" width="4" height="4.00018311" class="si-glyph-fill"></rect><path d="M1,6 L0.999999982,9.00561523 L1.96899998,9.00561523 L1.969,6 L1,6 Z" class="si-glyph-fill"></path><path d="M11,6 L11,9.0100708 L11.969,9.0100708 L11.969,6 L11,6 Z" class="si-glyph-fill"></path><path d="M11,11 L11,13.9713745 L11.969,13.9713745 L11.969,11 L11,11 Z" class="si-glyph-fill"></path><path d="M1,11 L1,14.027771 L1.969,14.027771 L1.969,11 L1,11 Z" class="si-glyph-fill"></path><path d="M15.75,14.031 C15.244,14.031 14.795,13.836 14.414,13.451 C12.689,11.707 13.065,8.937 13.065,7.059 C13.065,6.33 13,5.59 13,5.035 C13,3.687 12.781,2.931 12.038,2.931 L12.031,2.094 C12.031,2.094 14,1.5 14,5.028 C14,5.59 13.997,6.258 13.988,6.994 C13.947,10.475 13.694,11.302 15.125,12.749 C15.316,12.942 15.514,13.032 15.75,13.032 L15.75,14.031 L15.75,14.031 Z" class="si-glyph-fill"></path><ellipse cx="15.484" cy="13.469" rx="1.484" ry="1.469" class="si-glyph-fill"></ellipse></g></g></svg>