<!--?xml version="1.0" encoding="UTF-8" standalone="no"?-->
<svg viewBox="0 0 17 16" version="1.1" xmlns="http://www.w3.org/2000/svg" xmlns:xlink="http://www.w3.org/1999/xlink" class="si-glyph si-glyph-corner-flag">
    <!-- Generator: Sketch 3.0.3 (7891) - http://www.bohemiancoding.com/sketch -->
    <title>699</title>
    
    <defs></defs>
    <g stroke="none" stroke-width="1" fill="none" fill-rule="evenodd">
        <g transform="translate(1.000000, 0.000000)" fill="#434343">
            <path d="M0.48,15.845 C0.363,15.845 0.253,15.8 0.171,15.717 C0.088,15.634 0.042,15.525 0.042,15.407 C0.042,15.289 0.088,15.18 0.17,15.098 L5.058,10.21 L5.058,1.264 C5.058,1.023 5.242,0.827 5.468,0.827 C5.694,0.827 5.876,1.022 5.876,1.264 L5.876,10.12 L15.457,10.12 C15.698,10.12 15.895,10.292 15.895,10.503 C15.895,10.713 15.699,10.884 15.457,10.884 L10.642,10.884 L10.614,11.082 C10.302,13.254 8.424,14.892 6.243,14.892 C5.131,14.892 4.066,14.475 3.249,13.717 L3.091,13.501 L2.867,13.637 L0.79,15.715 C0.707,15.8 0.598,15.845 0.48,15.845 L0.48,15.845 Z M3.602,12.903 L3.815,13.062 C4.499,13.682 5.35,14.017 6.244,14.017 C7.922,14.017 9.382,12.815 9.718,11.161 L9.775,10.885 L5.623,10.885 L3.602,12.903 L3.602,12.903 Z" class="si-glyph-fill"></path>
            <path d="M6.637,5.941 C5.68,5.942 5.127,5.073 5.113,4.897 L5.114,1.102 C5.114,0.882 5.26,0.697 5.458,0.65 C5.631,0.839 6.048,1.205 6.71,1.205 C7.205,1.205 7.731,0.999 8.278,0.593 C8.731,0.254 9.911,0.083 10.355,0.083 C11.362,0.083 11.978,0.934 12.001,1.106 L12,4.899 C12,5.119 11.853,5.303 11.655,5.35 C11.476,5.155 11.036,4.771 10.344,4.771 C9.829,4.771 8.561,4.985 7.999,5.408 C7.529,5.763 7.07,5.941 6.637,5.941 L6.637,5.941 Z" class="si-glyph-fill"></path>
        </g>
    </g>
</svg>