<!--?xml version="1.0" encoding="UTF-8" standalone="no"?-->
<svg viewBox="0 0 17 16" version="1.1" xmlns="http://www.w3.org/2000/svg" xmlns:xlink="http://www.w3.org/1999/xlink" class="si-glyph si-glyph-microscope">
    <!-- Generator: Sketch 3.0.3 (7891) - http://www.bohemiancoding.com/sketch -->
    <title>705</title>
    
    <defs></defs>
    <g stroke="none" stroke-width="1" fill="none" fill-rule="evenodd">
        <g transform="translate(2.000000, 0.000000)" fill="#434343">
            <path d="M9.425,3.096 L9.833,2.095 L9.402,1.919 L10.016,0.41 L9.133,0.0520000001 L8.518,1.559 L8.122,1.397 L6.09,6.386 L7.799,7.082 L8.922,4.328 C10.271,4.951 11.211,6.02 11.54,7.341 C12.089,9.549 10.754,11.859 8.455,13.025 L1.862,13.025 C1.36,13.025 0.954,13.373 0.954,13.802 L0.0479999999,15.181 C0.0479999999,15.611 0.453,15.958 0.954,15.958 L10.026,15.958 C10.528,15.958 10.934,15.61 10.934,15.181 L10.934,13.802 C10.934,13.556 10.792,13.346 10.584,13.204 C12.438,11.624 13.376,9.29 12.812,7.023 C12.385,5.312 11.143,3.887 9.425,3.096 Z" class="si-glyph-fill"></path>
            <rect transform="translate(6.961300, 7.598950) rotate(22.161040) translate(-6.961300, -7.598950) " x="5.96132948" y="7.09896474" width="1.88694438" height="0.62998143"></rect>
        </g>
    </g>
</svg>