<!--?xml version="1.0" encoding="UTF-8" standalone="no"?-->
<svg viewBox="0 0 17 16" version="1.1" xmlns="http://www.w3.org/2000/svg" xmlns:xlink="http://www.w3.org/1999/xlink" class="si-glyph si-glyph-baby-troller">
    <!-- Generator: Sketch 3.0.3 (7891) - http://www.bohemiancoding.com/sketch -->
    <title>678</title>
    
    <defs></defs>
    <g stroke="none" stroke-width="1" fill="none" fill-rule="evenodd">
        <path d="M16.9539797,0.0068359375 C15.9109797,0.0068359375 15.1619265,0.365600586 15.0635378,1.28699994 L15,3.526 C14.188,2.568 12.917,1.74 11.654,1.287 C11.183,1.118 10.047,0.826 10.047,1.434 L10.047,5.29 C10.047,5.672 9.838,6.045 9.453,6.045 L1.762,6.045 C1.268,6.045 1.042,6.593 1.042,7.288 C1.042,8.739 1.838,10.04 4.534,10.63 L6.00836182,13.04 L4.736,13.04 C4.408,12.439 3.778,12.026 3.046,12.026 C1.981,12.026 1,12.892 1,13.959 C1,15.027 1.97999995,15.9978638 3.04599995,15.9978638 C4.10699995,15.9978638 4.966,15.038 4.977,13.978 L11.022,13.978 C11.024,15.06 11.902,16 12.984,16 C14.066,16 15,15.057 15,13.973 C15,12.89 14.066,12.014 12.984,12.014 C12.24,12.014 11.601,12.431 11.268,13.04 L10.0469999,13.04 L11.514,10.637 C14.767,9.898 15.969,7.997 15.969,5.926 C15.969,5.788 15.9000246,1.58331299 15.9000246,1.58331299 C15.9000246,1.09231299 16.3026125,0.97668457 16.9539797,0.97668457 C16.9539797,0.673400879 16.9539797,0.0068359375 16.9539797,0.0068359375 Z M7.214,13.042 L5.43,10.794 C6.232,10.907 7.166,10.968 8.257,10.968 C9.131,10.968 9.907,10.907 10.612,10.804 L8.818,13.042 L7.214,13.042 Z" fill="#434343" class="si-glyph-fill"></path>
    </g>
</svg>