
<svg viewBox="0 0 17 16" version="1.1" xmlns="http://www.w3.org/2000/svg" xmlns:xlink="http://www.w3.org/1999/xlink" class="si-glyph si-glyph-car"><title>859</title><defs></defs><g stroke="none" stroke-width="1" fill="none" fill-rule="evenodd"><g transform="translate(1.000000, 4.000000)"><circle fill="#434343" cx="12.49" cy="6.49" r="1.49" class="si-glyph-fill"></circle><circle fill="#434343" cx="3.49" cy="6.49" r="1.49" class="si-glyph-fill"></circle><g><path d="M6.514,1.607 C6.319,2.141 5.934,3 5.934,3 L9.026,3 L9.026,0.957 L7.544,0.957 C7.264,0.957 6.701,1.088 6.514,1.607 L6.514,1.607 Z" class=""></path><path d="M12.446,0.967 L9.968,0.967 L9.968,3 L14.054,3 L13.57,1.553 C13.57,1.553 13.16,0.967 12.446,0.967 L12.446,0.967 Z" class=""></path><g><path d="M6.514,1.607 C6.319,2.141 5.934,3 5.934,3 L9.026,3 L9.026,0.957 L7.544,0.957 C7.264,0.957 6.701,1.088 6.514,1.607 L6.514,1.607 Z" class=""></path><path d="M12.446,0.967 L9.968,0.967 L9.968,3 L14.054,3 L13.57,1.553 C13.57,1.553 13.16,0.967 12.446,0.967 L12.446,0.967 Z" class=""></path><path d="M16,4.836 C16,4.239 15.922,3.699 15.247,3.312 L14.662,1.338 C14.662,0.947 13.747,2.27373675e-13 12.618,2.27373675e-13 L7.339,2.27373675e-13 C6.21,2.27373675e-13 5.296,1.088 5.296,1.338 L4.432,3 L3.651,3.107 C1.633,3.107 0.583,4.334 0.583,5.515 L0.024,6.984 L1.031,6.984 C0.995,6.817 0.975,6.644 0.975,6.466 C0.975,5.086 2.102,3.968 3.494,3.968 C4.885,3.968 6.012,5.086 6.012,6.466 C6.012,6.644 5.992,6.817 5.956,6.984 L10.03,6.984 C9.994,6.817 9.974,6.644 9.974,6.466 C9.974,5.086 11.101,3.968 12.493,3.968 C13.884,3.968 15.012,5.086 15.012,6.466 C15.012,6.644 14.992,6.817 14.956,6.984 L16,6.984 L16,4.836 L16,4.836 Z M9.025,3 L5.933,3 C5.933,3 6.318,2.142 6.513,1.607 C6.701,1.087 7.264,0.957 7.543,0.957 L9.025,0.957 L9.025,3 L9.025,3 Z M9.969,3 L9.969,0.967 L12.447,0.967 C13.161,0.967 13.571,1.553 13.571,1.553 L14.055,3 L9.969,3 L9.969,3 Z" fill="#434343" class="si-glyph-fill"></path></g></g></g></g></svg>