<!--?xml version="1.0" encoding="UTF-8" standalone="no"?-->
<svg viewBox="0 0 17 16" version="1.1" xmlns="http://www.w3.org/2000/svg" xmlns:xlink="http://www.w3.org/1999/xlink" class="si-glyph si-glyph-cloud-plus">
    <!-- Generator: Sketch 3.0.3 (7891) - http://www.bohemiancoding.com/sketch -->
    <title>853</title>
    
    <defs></defs>
    <g stroke="none" stroke-width="1" fill="none" fill-rule="evenodd">
        <g transform="translate(1.000000, 4.000000)" fill="#434343">
            <path d="M7.916,5.941 L7.916,3.937 L9,3.937 L9,2.937 L12.029,2.937 L12.029,3.906 L13.062,3.906 L13.062,5.937 L16.009,5.951 C15.869,4.521 14.947,3.412 13.82,3.412 C13.568,3.412 13.332,3.479 13.106,3.58 C12.412,2.54 11.275,1.86 9.988,1.86 C9.781,1.86 9.58,1.882 9.383,1.916 C8.701,0.783 7.514,0.03 6.158,0.03 C4.248,0.03 2.668,1.527 2.379,3.481 C2.361,3.481 2.345,3.475 2.328,3.475 C1.047,3.475 0.01,4.583 0.01,5.951 L7.916,5.941 L7.916,5.941 Z" class="si-glyph-fill"></path>
            <path d="M11.969,5 L10.938,5 L10.938,4.006 L10.062,4.006 L10.062,5 L9.01,5 L9.01,5.959 L10.062,5.959 L10.062,6.948 L10.938,6.948 L10.938,5.959 L11.969,5.959 L11.969,5 Z" class="si-glyph-fill"></path>
        </g>
    </g>
</svg>