<!--?xml version="1.0" encoding="UTF-8" standalone="no"?-->
<svg viewBox="0 0 17 16" version="1.1" xmlns="http://www.w3.org/2000/svg" xmlns:xlink="http://www.w3.org/1999/xlink" class="si-glyph si-glyph-arrow-shuffle">
    <!-- Generator: Sketch 3.0.3 (7891) - http://www.bohemiancoding.com/sketch -->
    <title>757</title>
    
    <defs></defs>
    <g stroke="none" stroke-width="1" fill="none" fill-rule="evenodd">
        <g transform="translate(1.000000, 3.000000)" fill="#434343">
            <path d="M11.121,2.958 L13.055,2.958 L13.055,3.812 C13.27,4.027 13.618,4.027 13.833,3.812 L15.798,2.46 C16.012,2.245 16.012,1.897 15.798,1.682 L13.833,0.187 C13.618,-0.029 13.27,-0.029 13.055,0.187 L13.055,1.036 L11.09,1.036 C10.895,1.028 9.154,1.004 7.852,2.258 C6.995,3.082 6.56,3.92 6.56,5.361 C6.56,6.234 6.334,6.895 5.891,7.325 C5.194,8 4.12,8.067 4.073,8.066 L0.084,8.066 L0.084,9.964 C0.084,9.964 4.089,9.966 4.146,9.966 C4.597,9.966 6.101,9.876 7.259,8.772 C8.12,7.953 8.556,6.804 8.556,5.361 C8.556,4.488 8.782,4.135 9.228,3.699 C9.93,3.013 11.088,2.962 11.121,2.958 L11.121,2.958 Z" class="si-glyph-fill"></path>
            <path d="M15.84,8.687 L13.813,7.167 C13.598,6.952 13.25,6.952 13.035,7.167 L13.035,8.081 L10.881,8.081 C10.881,8.081 10.228,8.089 9.601,7.799 L8.692,9.452 C9.656,9.897 10.598,9.932 10.855,9.932 C10.886,9.932 10.91,9.931 10.918,9.931 L13.035,9.931 L13.035,10.832 C13.25,11.047 13.598,11.047 13.813,10.832 L15.84,9.463 C16.054,9.249 16.054,8.901 15.84,8.687 L15.84,8.687 Z" class="si-glyph-fill"></path>
            <path d="M5.555,3.329 L6.607,1.711 C5.419,1.045 4.162,1.078 4.067,1.081 L0,1.081 L0,2.971 L4.111,2.97 C4.123,2.974 4.889,2.955 5.555,3.329 L5.555,3.329 Z" class="si-glyph-fill"></path>
        </g>
    </g>
</svg>