
<svg viewBox="0 0 16 16" version="1.1" xmlns="http://www.w3.org/2000/svg" xmlns:xlink="http://www.w3.org/1999/xlink" class="si-glyph si-glyph-database-upload"><title>626</title><defs></defs><g stroke="none" stroke-width="1" fill="none" fill-rule="evenodd"><g transform="translate(2.000000, 1.000000)" fill="#434343"><g><ellipse cx="6.43" cy="2.421" rx="6.43" ry="2.421" class="si-glyph-fill"></ellipse><path d="M6.479,5.988 C2.963,5.988 0.032,4.986 0.032,4.314 L0.032,7.66 C0.032,8.874 2.919,9.856 6.479,9.856 C10.039,9.856 12.926,8.874 12.926,7.66 L12.926,4.314 C12.926,4.986 9.994,5.988 6.479,5.988 L6.479,5.988 Z" class="si-glyph-fill"></path></g><path d="M9.953,14.031 L7.906,14.031 L10.611,10.543 C9.48,10.819 8.024,11.018 6.447,11.018 C2.931,11.018 0,10.038 0,9.382 L0,12.651 C0,13.839 2.887,14.797 6.447,14.797 C7.767,14.797 8.931,14.664 9.953,14.438 L9.953,14.031 L9.953,14.031 Z" class="si-glyph-fill"></path><path d="M11.018,14.969 L11.018,12.981 L10.016,12.981 L11.508,11.016 L12.984,12.981 L11.967,12.981 L11.967,14.969 L11.018,14.969 Z" class="si-glyph-fill"></path></g></g></svg>