<!--?xml version="1.0" encoding="UTF-8" standalone="no"?-->
<svg viewBox="0 0 17 16" version="1.1" xmlns="http://www.w3.org/2000/svg" xmlns:xlink="http://www.w3.org/1999/xlink" class="si-glyph si-glyph-arrow-four-way">
    <!-- Generator: Sketch 3.0.3 (7891) - http://www.bohemiancoding.com/sketch -->
    <title>1068</title>
    
    <defs></defs>
    <g stroke="none" stroke-width="1" fill="none" fill-rule="evenodd">
        <path d="M16.844,7.747 L14.782,5.156 C14.567,4.941 14.218,4.941 14.003,5.156 L14.003,7.031 L9.989,7.031 L9.989,2.969 L11.844,2.969 C12.056,2.754 12.056,2.406 11.844,2.189 L9.391,0.188 C9.179,-0.027 8.832,-0.027 8.62,0.188 L6.188,2.189 C5.974,2.406 5.974,2.754 6.188,2.969 L8.01,2.969 L8.01,7.031 L3.985,7.031 L3.985,5.172 C3.769,4.957 3.422,4.957 3.206,5.172 C3.206,5.172 1.012,7.576 1.012,8.07 C1.012,8.498 3.206,10.75 3.206,10.75 C3.422,10.966 3.769,10.966 3.985,10.75 L3.985,8.984 L8.01,8.984 L8.01,13.031 L6.172,13.031 C5.964,13.241 5.964,13.581 6.172,13.791 C6.172,13.791 8.504,15.983 8.998,15.983 C9.428,15.983 11.844,13.791 11.844,13.791 C12.052,13.581 12.052,13.241 11.844,13.031 L9.989,13.031 L9.989,8.984 L14.003,8.984 L14.003,10.796 C14.218,11.011 14.567,11.011 14.782,10.796 L16.844,8.526 C17.059,8.311 17.059,7.962 16.844,7.747 L16.844,7.747 Z" fill="#434343" class="si-glyph-fill"></path>
    </g>
</svg>