
<svg viewBox="0 0 16 16" version="1.1" xmlns="http://www.w3.org/2000/svg" xmlns:xlink="http://www.w3.org/1999/xlink" class="si-glyph si-glyph-document-pdf"><title>172</title><defs></defs><g stroke="none" stroke-width="1" fill="none" fill-rule="evenodd"><g transform="translate(2.000000, 0.000000)" fill="#434343"><path d="M6.964,0 L0.016,0 L0.016,15.958 L11.958,15.958 L11.958,5.033 L6.964,5.033 L6.964,0 L6.964,0 Z M4.047,10.036 L3.029,10.036 L3.029,11.021 L2.031,11.021 L2.031,12.046 L0.969,12.046 L0.969,7.954 L3.03,7.968 L3.03,8.952 L4.048,8.952 L4.048,10.036 L4.047,10.036 Z M8.953,7.953 L11.031,7.953 L11.031,9.031 L10.02,9.031 L10.02,9.953 L11.031,9.953 L11.031,11.014 L10.02,11.014 L10.02,12.032 L8.953,12.032 L8.953,7.953 L8.953,7.953 Z M7.033,7.971 L7.033,8.969 L8.006,8.969 L8.02,11 L7.016,11 L7.016,12.016 L4.969,12.016 L4.969,7.961 L7.033,7.971 L7.033,7.971 Z" class="si-glyph-fill"></path><path d="M8.025,0.021 L8.025,3.988 L11.979,3.988 L8.025,0.021 Z" class="si-glyph-fill"></path><rect x="2" y="9" width="0.973" height="0.961" class="si-glyph-fill"></rect><rect x="6" y="9" width="0.969" height="1.983" class="si-glyph-fill"></rect></g></g></svg>