<!--?xml version="1.0" encoding="UTF-8" standalone="no"?-->
<svg viewBox="0 0 17 16" version="1.1" xmlns="http://www.w3.org/2000/svg" xmlns:xlink="http://www.w3.org/1999/xlink" class="si-glyph si-glyph-egg">
    <!-- Generator: Sketch 3.0.3 (7891) - http://www.bohemiancoding.com/sketch -->
    <title>948</title>
    
    <defs></defs>
    <g stroke="none" stroke-width="1" fill="none" fill-rule="evenodd">
        <g transform="translate(1.000000, 0.000000)" fill="#434343">
            <path d="M7.262,7.956 C7.811,7.404 8.563,7.182 9.293,7.275 C9.732,7.331 9.688,7.001 9.336,6.873 C8.443,6.544 7.422,6.724 6.729,7.42 C6.039,8.114 5.859,9.131 6.18,10.024 C6.307,10.379 6.646,10.446 6.586,10.012 C6.487,9.271 6.709,8.512 7.262,7.956 L7.262,7.956 Z" class="si-glyph-fill"></path>
            <path d="M15.523,6.627 C15.084,5.829 14.515,5.428 13.642,4.989 C12.878,4.606 12.096,4.236 11.41,3.746 C10.773,3.29 10.683,2.873 10.428,2.236 C9.895,0.904 7.571,0.17 6.128,0.063 C5.568,0.021 5.024,0.113 4.467,0.112 C3.104,0.105 1.934,0.478 1.52,1.763 C1.423,2.066 1.54,2.402 1.571,2.708 C1.61,3.089 1.624,3.469 1.61,3.85 C1.602,4.043 1.59,4.236 1.571,4.429 C1.495,5.177 1.385,6.031 1.059,6.728 C0.813,7.259 0.445,7.654 0.301,8.235 C-0.053,9.648 -0.103,11.258 0.822,12.512 C1.374,13.26 2.362,13.764 3.331,13.838 C4.364,13.916 5.255,14.697 6.15,15.093 C6.96,15.449 7.75,15.712 8.632,15.878 C10.184,16.172 11.611,15.98 12.551,14.767 C13.03,14.152 13.214,13.431 13.434,12.723 C13.666,11.976 14.159,11.144 14.836,10.644 C15.494,10.162 15.828,9.489 15.914,8.717 C15.996,7.979 15.889,7.295 15.523,6.627 L15.523,6.627 Z M7.994,5.906 C9.724,5.902 11.129,7.3 11.125,9.027 C11.122,10.754 9.714,12.156 7.98,12.158 C6.248,12.164 4.845,10.765 4.849,9.037 C4.854,7.311 6.261,5.908 7.994,5.906 L7.994,5.906 Z" class="si-glyph-fill"></path>
        </g>
    </g>
</svg>