<!--?xml version="1.0" encoding="UTF-8" standalone="no"?-->
<svg viewBox="0 0 17 16" version="1.1" xmlns="http://www.w3.org/2000/svg" xmlns:xlink="http://www.w3.org/1999/xlink" class="si-glyph si-glyph-circle-backward">
    <!-- Generator: Sketch 3.0.3 (7891) - http://www.bohemiancoding.com/sketch -->
    <title>841</title>
    
    <defs></defs>
    <g stroke="none" stroke-width="1" fill="none" fill-rule="evenodd">
        <path d="M9.031,0.021 C4.637,0.021 1.076,3.588 1.076,7.99 C1.076,12.392 4.638,15.959 9.031,15.959 C13.424,15.959 16.986,12.392 16.986,7.99 C16.986,3.588 13.424,0.021 9.031,0.021 L9.031,0.021 Z M12.5,10.346 C11.707,8.897 11.084,8.22 9.268,8.22 C9.247,8.22 9.073,8.221 9.032,8.221 L9.032,9.819 C8.819,10.033 8.54,10.008 8.354,9.854 L5.125,7.432 C4.913,7.218 4.913,6.87 5.125,6.657 L8.354,4.235 C8.569,4.02 8.819,3.985 9.032,4.199 L9.032,5.832 C9.082,5.832 9.262,5.831 9.288,5.831 C11.904,5.831 13.073,7.566 13.073,10.095 C13.072,10.975 12.667,10.653 12.5,10.346 L12.5,10.346 Z" fill="#434343" class="si-glyph-fill"></path>
    </g>
</svg>