
<svg viewBox="0 0 17 16" version="1.1" xmlns="http://www.w3.org/2000/svg" xmlns:xlink="http://www.w3.org/1999/xlink" class="si-glyph si-glyph-stamps"><title>1099</title><defs></defs><g stroke="none" stroke-width="1" fill="none" fill-rule="evenodd"><g transform="translate(1.000000, 2.000000)" fill="#434343"><rect x="3" y="3" width="9.979" height="6" class="si-glyph-fill"></rect><path d="M15.969,9.984 L15.969,9 L14.953,9 L14.953,7.984 L15.969,7.984 L15.969,7 L14.953,7 L14.953,5.984 L15.969,5.984 L15.969,5 L14.953,5 L14.953,3.984 L15.969,3.984 L15.969,3 L14.953,3 L14.953,1.984 L15.969,1.984 L15.969,1 L14.985,1 L14.985,0.016 L14,0.016 L14,1.032 L12.984,1.032 L12.984,0.016 L12,0.016 L12,1.032 L10.984,1.032 L10.984,0.016 L10,0.016 L10,1.032 L8.984,1.032 L8.984,0.016 L8,0.016 L8,1.032 L6.984,1.032 L6.984,0.016 L6,0.016 L6,1.032 L4.984,1.032 L4.984,0.016 L4,0.016 L4,1.032 L2.984,1.032 L2.984,0.016 L2,0.016 L2,1.032 L1,1.032 L1,2 L0.0159999999,2 L0.0159999999,2.984 L1,2.984 L1,4 L0.0159999999,4 L0.0159999999,4.984 L1,4.984 L1,6 L0.0159999999,6 L0.0159999999,6.984 L1,6.984 L1,8 L0.0159999999,8 L0.0159999999,8.984 L1,8.984 L1,10 L0.0159999999,10 L0.0159999999,10.984 L1,10.984 L1,11.984 L1.984,11.984 L1.984,10.984 L3,10.984 L3,11.984 L3.984,11.984 L3.984,10.984 L5,10.984 L5,11.984 L5.984,11.984 L5.984,10.984 L7,10.984 L7,11.984 L7.984,11.984 L7.984,10.984 L9,10.984 L9,11.984 L9.984,11.984 L9.984,10.984 L11,10.984 L11,11.984 L11.984,11.984 L11.984,10.984 L13,10.984 L13,11.984 L13.984,11.984 L13.984,10.984 L14.953,10.984 L14.953,9.984 L15.969,9.984 Z M14,10.016 L1.969,10.016 L1.969,1.985 L14,1.985 L14,10.016 L14,10.016 Z" class="si-glyph-fill"></path><rect x="15" y="11" width="0.984" height="0.969" class="si-glyph-fill"></rect><rect x="0" y="0" width="0.953" height="0.984" class="si-glyph-fill"></rect></g></g></svg>