<!--?xml version="1.0" encoding="UTF-8" standalone="no"?-->
<svg viewBox="0 0 16 16" version="1.1" xmlns="http://www.w3.org/2000/svg" xmlns:xlink="http://www.w3.org/1999/xlink" class="si-glyph si-glyph-flower">
    <!-- Generator: Sketch 3.0.3 (7891) - http://www.bohemiancoding.com/sketch -->
    <title>1056</title>
    
    <defs></defs>
    <g stroke="none" stroke-width="1" fill="none" fill-rule="evenodd">
        <path d="M15.164,8.404 C14.993,8.31 14.642,8.167 14.182,8.001 C14.642,7.835 14.992,7.693 15.163,7.599 C16.179,7.05 16.284,5.439 15.398,4.001 C14.511,2.564 12.969,1.844 11.954,2.392 C11.781,2.487 11.474,2.698 11.089,2.989 C11.167,2.531 11.208,2.175 11.208,1.989 C11.208,0.889 9.771,-0.000999999989 8,-0.000999999989 C6.229,-0.000999999989 4.79,0.889 4.79,1.989 C4.79,2.175 4.833,2.53 4.911,2.987 C4.526,2.696 4.22,2.485 4.048,2.391 C3.032,1.842 1.488,2.562 0.603,4 C-0.282,5.437 -0.176,7.048 0.838,7.597 C1.011,7.692 1.36,7.835 1.823,8.001 C1.36,8.168 1.009,8.311 0.837,8.405 C-0.179,8.954 -0.284,10.563 0.602,12.002 C1.488,13.439 3.031,14.159 4.046,13.61 C4.219,13.517 4.525,13.306 4.911,13.015 C4.833,13.472 4.79,13.825 4.79,14.012 C4.79,15.111 6.226,16.001 8,16.001 C9.771,16.001 11.208,15.111 11.208,14.012 C11.208,13.825 11.167,13.47 11.089,13.011 C11.474,13.304 11.782,13.516 11.955,13.609 C12.971,14.158 14.513,13.439 15.398,12.002 C16.285,10.563 16.179,8.953 15.164,8.404 L15.164,8.404 Z M8,11.047 C6.315,11.047 4.951,9.683 4.951,8.001 C4.951,6.319 6.315,4.955 8,4.955 C9.683,4.955 11.049,6.319 11.049,8.001 C11.048,9.683 9.682,11.047 8,11.047 L8,11.047 Z" fill="#434343" class="si-glyph-fill"></path>
    </g>
</svg>