<!--?xml version="1.0" encoding="UTF-8" standalone="no"?-->
<svg viewBox="0 0 17 16" version="1.1" xmlns="http://www.w3.org/2000/svg" xmlns:xlink="http://www.w3.org/1999/xlink" class="si-glyph si-glyph-chair-1">
    <!-- Generator: Sketch 3.0.3 (7891) - http://www.bohemiancoding.com/sketch -->
    <title>1011</title>
    
    <defs></defs>
    <g stroke="none" stroke-width="1" fill="none" fill-rule="evenodd">
        <g transform="translate(4.000000, 0.000000)" fill="#434343">
            <path d="M7.377,7.984 L2.641,7.984 L2.049,1.343 C2.049,1.343 1.704,-0.001 5.008,-0.001 C8.314,-0.001 7.968,1.343 7.968,1.343 L7.377,7.984 L7.377,7.984 Z" class="si-glyph-fill"></path>
            <path d="M8.953,16 L8.1,16 L7.074,13.016 L8.953,13.016 L8.953,16 Z" class="si-glyph-fill"></path>
            <path d="M1.898,16 L1.002,16 L1.002,13.016 L2.975,13.016 L1.898,16 Z" class="si-glyph-fill"></path>
            <path d="M8.976,11.222 C8.976,11.637 8.724,11.972 8.413,11.972 L1.59,11.972 C1.279,11.972 1.028,11.637 1.028,11.222 C1.028,11.222 1.457,9.036 2.162,9.036 L7.844,9.036 C8.643,9.036 8.976,11.222 8.976,11.222 L8.976,11.222 Z" class="si-glyph-fill"></path>
            <path d="M9.872,8.355 C9.872,8.704 9.682,8.986 9.451,8.986 L9.451,8.986 C9.219,8.986 9.031,8.704 9.031,8.355 L9.031,5.672 C9.031,5.323 9.219,5.041 9.451,5.041 L9.451,5.041 C9.681,5.041 9.872,5.323 9.872,5.672 L9.872,8.355 L9.872,8.355 Z" class="si-glyph-fill"></path>
            <path d="M0.947,8.355 C0.947,8.704 0.738,8.986 0.482,8.986 L0.482,8.986 C0.224,8.986 0.016,8.704 0.016,8.355 L0.016,5.672 C0.016,5.323 0.224,5.041 0.482,5.041 L0.482,5.041 C0.738,5.041 0.947,5.323 0.947,5.672 L0.947,8.355 L0.947,8.355 Z" class="si-glyph-fill"></path>
        </g>
    </g>
</svg>