
<svg viewBox="0 0 16 16" version="1.1" xmlns="http://www.w3.org/2000/svg" xmlns:xlink="http://www.w3.org/1999/xlink" class="si-glyph si-glyph-pin-location-1"><title>Pin-location-1</title><defs></defs><g stroke="none" stroke-width="1" fill="none" fill-rule="evenodd"><g transform="translate(2.000000, 0.000000)" fill="#434343"><g transform="translate(2.000000, 0.000000)"><rect x="4" y="6" width="0.956" height="7.944" class="si-glyph-fill"></rect><path d="M4.511,0.016 C2.047,0.016 0.047,2.024 0.047,4.5 C0.047,6.978 2.047,8.984 4.511,8.984 C6.976,8.984 8.975,6.977 8.975,4.5 C8.975,2.023 6.977,0.016 4.511,0.016 L4.511,0.016 Z M4.67,1.642 C3.002,1.642 1.652,2.985 1.652,4.639 C1.652,5.301 1.004,4.985 1.004,3.994 C1.004,2.34 2.354,0.997 4.022,0.997 C5.018,0.997 5.336,1.642 4.67,1.642 L4.67,1.642 Z" class="si-glyph-fill"></path></g><path d="M8.109,11.156 L8.109,12.082 C10.586,12.33 11.838,13.144 11.838,13.552 C11.838,14.061 9.951,15.053 6.494,15.053 C3.035,15.053 1.148,14.061 1.148,13.552 C1.148,13.114 2.49,12.371 4.906,12.131 L4.906,11.204 C2.527,11.415 0.034,12.142 0.034,13.564 C0.034,15.162 3.283,15.997 6.494,15.997 C9.703,15.997 12.953,15.162 12.953,13.564 C12.953,12.102 10.393,11.361 8.109,11.156 L8.109,11.156 Z" class="si-glyph-fill"></path></g></g></svg>