<!--?xml version="1.0" encoding="UTF-8" standalone="no"?-->
<svg viewBox="0 0 16 16" version="1.1" xmlns="http://www.w3.org/2000/svg" xmlns:xlink="http://www.w3.org/1999/xlink" class="si-glyph si-glyph-battery-full">
    <!-- Generator: Sketch 3.0.3 (7891) - http://www.bohemiancoding.com/sketch -->
    <title>1170</title>
    
    <defs></defs>
    <g stroke="none" stroke-width="1" fill="none" fill-rule="evenodd">
        <g transform="translate(4.000000, 0.000000)" fill="#434343">
            <path d="M6.446,3 L2.534,3 C2.279,3 2,3.301 2,3.58 L2,13.482 C2,13.755 2.278,13.979 2.535,13.979 L6.447,13.979 C6.701,13.979 7,13.755 7,13.482 L7,3.58 C7,3.301 6.703,3 6.446,3 L6.446,3 Z" class="si-glyph-fill"></path>
            <path d="M7.306,1.021 L5.999,1.021 L5.999,0.005 L3,0.005 L3,1.021 L1.77,1.021 C0.834,1.021 0.076,1.787 0.076,2.73 L0.076,14.292 C0.076,15.234 0.835,16.001 1.77,16.001 L7.306,16.001 C8.242,16.001 9,15.234 9,14.292 L9,2.73 C9,1.786 8.241,1.021 7.306,1.021 L7.306,1.021 Z M8,14 C8,14.525 7.506,15 7,15 L2,15 C1.494,15 0.989,14.525 0.989,14 L0.989,3 C0.989,2.477 1.494,2 2,2 L7,2 C7.506,2 8,2.476 8,3 L8,14 L8,14 Z" class="si-glyph-fill"></path>
        </g>
    </g>
</svg>