
<svg viewBox="0 0 17 16" version="1.1" xmlns="http://www.w3.org/2000/svg" xmlns:xlink="http://www.w3.org/1999/xlink" class="si-glyph si-glyph-view"><title>1127</title><defs></defs><g stroke="none" stroke-width="1" fill="none" fill-rule="evenodd"><g transform="translate(1.000000, 4.000000)" fill="#434343"><path d="M8,0 C3.598,0 0.031,2.66 0.031,3.969 C0.031,5.278 3.597,7.938 8,7.938 C12.4,7.938 15.969,5.32 15.969,3.969 C15.969,2.618 12.4,0 8,0 L8,0 Z M7.99,7.062 C4.342,7.062 2.869,5.011 2.869,4 C2.869,2.989 4.342,0.938 7.99,0.938 C11.636,0.938 13.109,2.958 13.109,4 C13.109,5.042 11.637,7.062 7.99,7.062 L7.99,7.062 Z" class="si-glyph-fill"></path><ellipse cx="7.932" cy="3.963" rx="1.932" ry="1.963" class="si-glyph-fill"></ellipse></g></g></svg>