<!--?xml version="1.0" encoding="UTF-8" standalone="no"?-->
<svg viewBox="0 0 16 16" version="1.1" xmlns="http://www.w3.org/2000/svg" xmlns:xlink="http://www.w3.org/1999/xlink" class="si-glyph si-glyph-hand-lamp">
    <!-- Generator: Sketch 3.0.3 (7891) - http://www.bohemiancoding.com/sketch -->
    <title>602</title>
    
    <defs></defs>
    <g stroke="none" stroke-width="1" fill="none" fill-rule="evenodd">
        <path d="M11.951,7.979 L12.957,7.992 L11.918,7.017 L11.918,4.866 C11.918,2.554 9.807,0.06 7.49,0.06 L6.521,0.06 C4.205,0.06 2.083,2.607 2.083,4.918 L2.083,7.035 L0.953,7.927 L2.043,7.937 L2.037,12.584 L1.062,13.979 L3.664,14.634 L5.65,15.072 L6.998,15.934 L8.35,15.076 L10.356,14.675 L12.98,14.062 L11.959,12.447 L11.951,7.979 L11.951,7.979 Z M6.035,13.98 L2.937,13.402 L2.937,7.917 L6.035,8.289 L6.035,13.98 L6.035,13.98 Z M11.037,13.49 L7.968,13.956 L7.968,8.367 L11.037,8.01 L11.037,13.49 L11.037,13.49 Z M8.049,4.828 C8.184,4.637 8.264,4.41 8.264,4.164 C8.264,3.494 7.682,2.951 6.967,2.951 C6.252,2.951 5.672,3.494 5.672,4.164 C5.672,4.411 5.752,4.64 5.887,4.832 L2.943,6.644 L2.943,5.021 C2.943,3.189 4.59,0.996 6.534,0.996 L7.5,0.996 C9.443,0.996 11.025,3.189 11.025,5.021 L11.025,6.641 L8.049,4.828 L8.049,4.828 Z" fill="#434343" class="si-glyph-fill"></path>
    </g>
</svg>