
<svg viewBox="0 0 17 16" version="1.1" xmlns="http://www.w3.org/2000/svg" xmlns:xlink="http://www.w3.org/1999/xlink" class="si-glyph si-glyph-disc-remove"><title>906</title><defs></defs><g stroke="none" stroke-width="1" fill="none" fill-rule="evenodd"><g transform="translate(1.000000, 0.000000)" fill="#434343"><rect x="12" y="14" width="3.938" height="1.969" class="si-glyph-fill"></rect><path d="M15.958,7.969 C15.958,3.556 12.385,0.063 7.979,0.063 C3.573,0.063 0,3.556 0,7.969 C0,12.381 3.572,15.958 7.979,15.958 C9.041,15.958 10.046,15.735 10.971,15.357 L10.971,12.955 L14.285,12.955 C15.226,11.636 15.958,9.7 15.958,7.969 L15.958,7.969 Z M3.633,13.193 L2.765,12.324 L4.283,10.806 L5.151,11.675 L3.633,13.193 L3.633,13.193 Z M8,11.125 C6.279,11.125 4.885,9.719 4.885,7.985 C4.885,6.25 6.28,4.843 8,4.843 C9.719,4.843 11.115,6.249 11.115,7.985 C11.115,9.719 9.719,11.125 8,11.125 L8,11.125 Z M11.612,5.277 L10.743,4.408 L12.261,2.89 L13.13,3.759 L11.612,5.277 L11.612,5.277 Z" class="si-glyph-fill"></path><path d="M7.988,6.022 C6.892,6.022 6.009,6.908 6.009,7.999 C6.009,9.091 6.893,9.975 7.988,9.975 C9.079,9.975 9.967,9.091 9.967,7.999 C9.967,6.908 9.079,6.022 7.988,6.022 L7.988,6.022 Z" class="si-glyph-fill"></path></g></g></svg>