<!--?xml version="1.0" encoding="UTF-8" standalone="no"?-->
<svg viewBox="0 0 17 16" version="1.1" xmlns="http://www.w3.org/2000/svg" xmlns:xlink="http://www.w3.org/1999/xlink" class="si-glyph si-glyph-clamp">
    <!-- Generator: Sketch 3.0.3 (7891) - http://www.bohemiancoding.com/sketch -->
    <title>925</title>
    
    <defs></defs>
    <g stroke="none" stroke-width="1" fill="none" fill-rule="evenodd">
        <path d="M6.297,1.938 L11.953,1.938 L11.953,0.042 L6.297,0.042 C5.01,0.042 4,1.048 4,2.335 L4,8.706 C4,9.993 5.01,10.979 6.297,10.979 L9,10.979 L9,14.068 L8.36,14.068 L8.36,14.883 C7.535,15.149 6.97,15.622 6.97,15.999 L11.952,15.999 C11.952,15.623 11.393,15.153 10.577,14.887 L10.577,14.068 L9.937,14.068 L9.937,10.979 L11.936,10.979 L11.936,9.04 L9.937,9.04 L9.937,6.948 C9.971,6.938 9.999,6.927 10.03,6.917 L10.936,6.917 L10.936,6.026 L8.04,6.026 L8.04,6.917 L8.893,6.917 C8.929,6.929 8.959,6.94 8.998,6.951 L8.998,9.04 L6.295,9.04 C6.111,9.04 5.961,8.89 5.961,8.706 L5.961,2.27 C5.963,2.087 6.113,1.938 6.297,1.938 L6.297,1.938 Z" fill="#434343" class="si-glyph-fill"></path>
    </g>
</svg>