
<svg viewBox="0 0 16 16" version="1.1" xmlns="http://www.w3.org/2000/svg" xmlns:xlink="http://www.w3.org/1999/xlink" class="si-glyph si-glyph-christmas-mistletoe"><title>173</title><defs></defs><g stroke="none" stroke-width="1" fill="none" fill-rule="evenodd"><g transform="translate(0.000000, 3.000000)" fill="#434343"><circle cx="7.428" cy="9.428" r="1.428" class="si-glyph-fill"></circle><ellipse cx="11.461" cy="8.493" rx="1.461" ry="1.493" class="si-glyph-fill"></ellipse><ellipse cx="8.477" cy="5.493" rx="1.477" ry="1.493" class="si-glyph-fill"></ellipse><path d="M7.079,2.363 C7.005,2.388 6.939,2.451 6.879,2.508 C6.64,2.734 6.343,2.877 6.025,2.951 C5.606,3.051 4.866,2.74 4.503,2.444 C4.005,3.65 2.351,3.891 1.622,2.895 C1.725,3.466 1.771,3.719 1.349,4.121 C0.937,4.512 0.51,4.741 0.01,4.936 C0.178,4.871 0.335,4.82 0.517,4.814 C1.243,4.786 1.999,5.225 2.425,5.816 C2.626,6.097 2.763,6.443 2.732,6.801 C2.727,6.863 2.67,7.011 2.724,7.045 C2.802,7.094 3.001,6.929 3.07,6.898 C3.332,6.781 3.627,6.737 3.909,6.757 C4.351,6.786 4.64,7.064 4.891,7.411 C5.04,7.615 5.244,8.683 5.679,8.261 C5.832,8.112 5.873,7.777 6,7.584 C6.148,7.357 6.374,7.218 6.527,7.015 C6.716,6.765 6.546,6.4 6.431,6.157 C6.348,5.979 6.319,5.792 6.305,5.601 C5.964,5.376 5.116,4.969 3.45,4.982 L3.448,4.982 C3.27,4.982 3.128,4.837 3.126,4.657 C3.124,4.477 3.267,4.328 3.445,4.327 C3.473,4.326 3.501,4.326 3.53,4.326 C4.954,4.326 5.855,4.627 6.374,4.891 C6.421,4.71 6.479,4.531 6.548,4.366 C6.644,4.134 6.823,4.008 7.017,3.878 C7.178,3.769 7.339,3.63 7.3,3.4 C7.239,3.052 7.094,2.725 7.079,2.363 L7.079,2.363 Z" class="si-glyph-fill"></path><path d="M16.009,0.164 C15.481,0.336 14.989,0.437 14.406,0.412 C13.807,0.385 13.681,0.169 13.398,-0.313 C13.451,0.875 11.964,1.743 10.789,1.173 C10.685,1.62 10.29,2.314 9.89,2.506 C9.586,2.652 9.254,2.734 8.916,2.72 C8.832,2.716 8.739,2.711 8.664,2.741 C8.592,2.768 9.189,3.41 9.298,3.465 C9.625,3.627 9.969,3.652 10.194,3.945 C10.274,4.049 10.352,4.171 10.423,4.295 C10.861,3.684 11.667,2.707 12.906,1.77 C13.051,1.662 13.261,1.681 13.38,1.815 C13.497,1.949 13.476,2.145 13.332,2.254 C11.738,3.458 10.895,4.742 10.682,5.095 C10.708,5.227 10.749,5.353 10.857,5.466 C11.148,5.776 11.528,5.637 11.903,5.741 C12.133,5.804 12.354,5.902 12.556,6.023 C12.744,6.137 12.863,6.327 13.098,6.341 C13.408,6.359 13.637,6.22 13.752,5.956 C13.91,5.601 13.691,5.398 13.672,5.057 C13.651,4.645 13.705,4.258 14.043,3.956 C14.257,3.765 14.522,3.61 14.809,3.531 C14.884,3.51 15.151,3.506 15.181,3.421 C15.203,3.36 15.063,3.289 15.02,3.247 C14.763,3.004 14.65,2.665 14.632,2.331 C14.594,1.63 14.921,0.831 15.523,0.393 C15.673,0.284 15.832,0.222 16.009,0.164 L16.009,0.164 Z" class="si-glyph-fill"></path></g></g></svg>