<!--?xml version="1.0" encoding="UTF-8" standalone="no"?-->
<svg viewBox="0 0 17 16" version="1.1" xmlns="http://www.w3.org/2000/svg" xmlns:xlink="http://www.w3.org/1999/xlink" class="si-glyph si-glyph-quote-close">
    <!-- Generator: Sketch 3.0.3 (7891) - http://www.bohemiancoding.com/sketch -->
    <title>1030</title>
    
    <defs></defs>
    <g stroke="none" stroke-width="1" fill="none" fill-rule="evenodd">
        <g transform="translate(1.000000, 1.000000)" fill="#434343">
            <path d="M1,13.969 C0.447,13.969 0,13.534 0,13 C0,12.466 0.447,12.031 1,12.031 C3.757,12.031 5,10.83 5,8.124 L5,6.978 L1.559,6.978 C0.729,6.978 0.053,6.3 0.053,5.467 L0.053,1.511 C0.053,0.677 0.729,-0.001 1.559,-0.001 L5.494,-0.001 C6.324,-0.001 7,0.677 7,1.511 L7,8.123 C7,11.898 4.859,13.969 1,13.969 L1,13.969 Z" class="si-glyph-fill"></path>
            <path d="M10,13.969 C9.447,13.969 9,13.534 9,13 C9,12.466 9.447,12.031 10,12.031 C12.757,12.031 14,10.83 14,8.124 L14,6.947 L10.533,6.947 C9.699,6.947 9.021,6.271 9.021,5.441 L9.021,1.505 C9.021,0.675 9.699,-0.001 10.533,-0.001 L14.488,-0.001 C15.322,-0.001 16,0.675 16,1.505 L16,8.123 C16,11.898 13.859,13.969 10,13.969 L10,13.969 Z" class="si-glyph-fill"></path>
        </g>
    </g>
</svg>