
<svg viewBox="0 0 16 16" version="1.1" xmlns="http://www.w3.org/2000/svg" xmlns:xlink="http://www.w3.org/1999/xlink" class="si-glyph si-glyph-contact-book"><title>Contact-book</title><defs></defs><g stroke="none" stroke-width="1" fill="none" fill-rule="evenodd"><g fill="#434343"><path d="M1.061,2.917 L2.083,2.917 L2.083,4.132 L1.061,4.132 L1.061,11.967 L2.049,11.967 L2.049,13.084 L1.061,13.084 L1.061,15.881 L12.958,15.881 L12.958,0 L1.061,0 L1.061,2.917 L1.061,2.917 Z M4.445,4.392 C4.475,4.368 4.716,4.188 4.802,4.123 L4.796,4.121 C4.804,4.118 4.808,4.117 4.813,4.114 C4.818,4.108 4.834,4.097 4.837,4.094 L4.841,4.099 C4.987,4.013 5.138,3.953 5.31,3.927 C5.772,3.859 6.109,4.339 6.328,4.614 C6.547,4.886 6.851,5.32 6.814,5.617 C6.792,5.796 6.587,5.961 6.393,6.123 L6.386,6.113 C6.333,6.17 6.099,6.409 6.079,6.441 C5.972,6.619 5.849,7.022 6.021,7.326 C6.184,7.621 6.506,8.099 6.811,8.498 C7.133,8.885 7.528,9.308 7.778,9.535 C8.04,9.772 8.471,9.755 8.673,9.697 C8.712,9.687 9.027,9.5 9.068,9.48 C9.277,9.336 9.488,9.184 9.675,9.207 C9.978,9.245 10.331,9.641 10.55,9.914 C10.769,10.188 11.163,10.626 10.983,11.046 C10.914,11.205 10.814,11.332 10.69,11.451 L10.694,11.455 L10.672,11.471 C10.668,11.475 10.666,11.479 10.666,11.479 L10.662,11.48 C10.58,11.542 10.338,11.727 10.308,11.749 C9.972,11.966 9.242,12.237 8.216,11.634 C7.455,11.185 6.62,10.423 5.823,9.471 L5.819,9.474 C5.782,9.427 5.747,9.38 5.712,9.333 C5.675,9.287 5.636,9.244 5.598,9.196 L5.602,9.193 C4.854,8.206 4.304,7.228 4.046,6.397 C3.699,5.277 4.148,4.656 4.445,4.392 L4.445,4.392 Z" class="si-glyph-fill"></path><rect x="0" y="3" width="0.979" height="0.992" class="si-glyph-fill"></rect><rect x="0" y="12" width="0.977" height="0.943" class="si-glyph-fill"></rect><rect x="14" y="2" width="0.916" height="2.875" class="si-glyph-fill"></rect><rect x="14" y="11" width="0.887" height="2.847" class="si-glyph-fill"></rect><rect x="14" y="6" width="0.901" height="3.895" class="si-glyph-fill"></rect></g></g></svg>