<!--?xml version="1.0" encoding="UTF-8" standalone="no"?-->
<svg viewBox="0 0 17 16" version="1.1" xmlns="http://www.w3.org/2000/svg" xmlns:xlink="http://www.w3.org/1999/xlink" class="si-glyph si-glyph-desktop">
    <!-- Generator: Sketch 3.0.3 (7891) - http://www.bohemiancoding.com/sketch -->
    <title>633</title>
    
    <defs></defs>
    <g stroke="none" stroke-width="1" fill="none" fill-rule="evenodd">
        <g transform="translate(1.000000, 0.000000)" fill="#434343">
            <path d="M15.089,0.064 L0.913,0.064 C0.409,0.064 0,0.472 0,0.975 L0,11.05 C0,11.554 0.409,11.962 0.913,11.962 L15.089,11.962 C15.592,11.962 16,11.554 16,11.05 L16,0.975 C16,0.473 15.592,0.064 15.089,0.064 L15.089,0.064 Z M1.971,9.369 L1.971,2.575 C1.971,2.2 2.254,1.898 2.604,1.898 L13.398,1.898 C13.749,1.898 14.031,2.2 14.031,2.575 L14.031,9.369 C14.031,9.742 13.749,10.045 13.398,10.045 L2.604,10.045 C2.254,10.045 1.971,9.742 1.971,9.369 L1.971,9.369 Z" class="si-glyph-fill"></path>
            <path d="M13.447,14.083 L8.911,14.083 L8.911,12.042 L7.052,12.042 L7.052,14.083 L2.583,14.083 C2.301,14.083 2.072,14.875 2.072,15.276 C2.072,15.679 2.301,15.899 2.583,15.899 L13.447,15.899 C13.729,15.899 13.958,15.679 13.958,15.276 C13.958,14.875 13.729,14.083 13.447,14.083 L13.447,14.083 Z" class="si-glyph-fill"></path>
        </g>
    </g>
</svg>