<!--?xml version="1.0" encoding="UTF-8" standalone="no"?-->
<svg viewBox="0 0 16 16" version="1.1" xmlns="http://www.w3.org/2000/svg" xmlns:xlink="http://www.w3.org/1999/xlink" class="si-glyph si-glyph-android">
    <!-- Generator: Sketch 3.0.3 (7891) - http://www.bohemiancoding.com/sketch -->
    <title>Android</title>
    
    <defs></defs>
    <g stroke="none" stroke-width="1" fill="none" fill-rule="evenodd">
        <g transform="translate(1.000000, 0.000000)" fill="#434343">
            <path d="M3.018,6.062 C3.018,6.062 3.01,10.474 3.01,11.624 C3.01,12.658 3.127,12.88 4.031,12.974 L4.031,15.307 C4.031,15.663 4.468,15.953 5.005,15.953 C5.543,15.953 5.981,15.663 5.981,15.307 L5.981,12.995 C6.438,12.996 7.573,12.998 8.032,12.999 L8.032,15.307 C8.032,15.663 8.47,15.953 9.007,15.953 C9.544,15.953 9.982,15.663 9.982,15.307 L9.982,12.98 C10.908,12.88 10.96,12.609 10.96,11.645 C10.96,10.579 10.961,6.063 10.961,6.063 L3.018,6.063 L3.018,6.062 Z" class="si-glyph-fill"></path>
            <path d="M12.995,5.03 C12.458,5.03 12.02,5.32 12.02,5.677 L12.025,9.311 C12.025,9.667 12.463,9.957 13,9.957 C13.537,9.957 13.976,9.667 13.976,9.311 L13.971,5.677 C13.971,5.32 13.531,5.03 12.995,5.03 L12.995,5.03 Z" class="si-glyph-fill"></path>
            <path d="M0.985,5.03 C0.445,5.03 0.005,5.325 0.005,5.691 L0.005,9.333 C0.005,9.698 0.445,9.994 0.985,9.994 C1.528,9.994 1.968,9.698 1.968,9.333 L1.968,5.691 C1.969,5.325 1.528,5.03 0.985,5.03 L0.985,5.03 Z" class="si-glyph-fill"></path>
            <path d="M8.974,2.187 C8.985,2.175 9,2.169 9.009,2.155 L9.938,0.521 C10.04,0.362 9.979,0.156 9.804,0.064 C9.629,-0.028 9.407,0.026 9.305,0.187 L8.377,1.82 C8.359,1.848 8.352,1.879 8.344,1.909 C7.918,1.763 7.464,1.678 6.987,1.678 C6.505,1.678 6.044,1.764 5.615,1.912 C5.606,1.881 5.6,1.85 5.581,1.82 L4.709,0.168 C4.607,0.007 4.385,-0.047 4.211,0.045 C4.035,0.137 3.975,0.343 4.076,0.502 L4.948,2.155 C4.958,2.171 4.976,2.178 4.99,2.192 C3.933,2.771 3.231,3.79 3.043,4.995 L10.991,4.995 C10.801,3.786 10.033,2.766 8.974,2.187 L8.974,2.187 Z M6.042,4.042 L4.938,4.042 L4.938,2.98 L6.042,2.98 L6.042,4.042 L6.042,4.042 Z M9.042,4.021 L7.98,4.021 L7.98,2.938 L9.042,2.938 L9.042,4.021 L9.042,4.021 Z" class="si-glyph-fill"></path>
        </g>
    </g>
</svg>