<!--?xml version="1.0" encoding="UTF-8" standalone="no"?-->
<svg viewBox="0 0 17 16" version="1.1" xmlns="http://www.w3.org/2000/svg" xmlns:xlink="http://www.w3.org/1999/xlink" class="si-glyph si-glyph-align-left">
    <!-- Generator: Sketch 3.0.3 (7891) - http://www.bohemiancoding.com/sketch -->
    <title>1131</title>
    
    <defs></defs>
    <g stroke="none" stroke-width="1" fill="none" fill-rule="evenodd">
        <g transform="translate(1.000000, 1.000000)" fill="#434343">
            <path d="M0.043,0.938 C0.043,1.456 0.463,1.876 0.981,1.876 L15.063,1.876 C15.581,1.876 16.001,1.456 16.001,0.938 L16.001,0.938 C16.001,0.42 15.581,0 15.063,0 L0.981,0 C0.463,0 0.043,0.42 0.043,0.938 L0.043,0.938 L0.043,0.938 Z" class="si-glyph-fill"></path>
            <path d="M0.043,12.938 C0.043,13.456 0.463,13.876 0.981,13.876 L15.063,13.876 C15.581,13.876 16.001,13.456 16.001,12.938 L16.001,12.938 C16.001,12.42 15.581,12 15.063,12 L0.981,12 C0.463,12 0.043,12.42 0.043,12.938 L0.043,12.938 L0.043,12.938 Z" class="si-glyph-fill"></path>
            <path d="M0.043,6.938 C0.043,7.456 0.463,7.876 0.981,7.876 L11.063,7.876 C11.581,7.876 12.001,7.456 12.001,6.938 L12.001,6.938 C12.001,6.42 11.581,6 11.063,6 L0.981,6 C0.463,6 0.043,6.42 0.043,6.938 L0.043,6.938 L0.043,6.938 Z" class="si-glyph-fill"></path>
            <path d="M0.043,9.938 C0.043,10.456 0.463,10.876 0.981,10.876 L9.063,10.876 C9.581,10.876 10.001,10.456 10.001,9.938 L10.001,9.938 C10.001,9.42 9.581,9 9.063,9 L0.981,9 C0.463,9 0.043,9.42 0.043,9.938 L0.043,9.938 L0.043,9.938 Z" class="si-glyph-fill"></path>
            <path d="M0.043,3.938 C0.043,4.456 0.463,4.876 0.981,4.876 L7.063,4.876 C7.581,4.876 8.001,4.456 8.001,3.938 L8.001,3.938 C8.001,3.42 7.581,3 7.063,3 L0.981,3 C0.463,3 0.043,3.42 0.043,3.938 L0.043,3.938 L0.043,3.938 Z" class="si-glyph-fill"></path>
        </g>
    </g>
</svg>
