<!--?xml version="1.0" encoding="UTF-8" standalone="no"?-->
<svg viewBox="0 0 16 16" version="1.1" xmlns="http://www.w3.org/2000/svg" xmlns:xlink="http://www.w3.org/1999/xlink" class="si-glyph si-glyph-cloud-upload">
    <!-- Generator: Sketch 3.0.3 (7891) - http://www.bohemiancoding.com/sketch -->
    <title>137</title>
    
    <defs></defs>
    <g stroke="none" stroke-width="1" fill="none" fill-rule="evenodd">
        <g transform="translate(0.000000, 3.000000)" fill="#434343">
            <path d="M6.531,2.906 L8.654,5.965 L15.986,5.965 C15.847,4.531 14.927,3.42 13.8,3.42 C13.551,3.42 13.314,3.486 13.089,3.587 C12.396,2.545 11.263,1.863 9.977,1.863 C9.771,1.863 9.57,1.885 9.373,1.92 C8.691,0.783 7.507,0.028 6.154,0.028 C4.248,0.028 2.67,1.529 2.383,3.488 C2.365,3.488 2.348,3.482 2.332,3.482 C1.053,3.482 0.0179999999,4.593 0.0179999999,5.964 L4.361,5.964 L6.531,2.906 L6.531,2.906 Z" class="si-glyph-fill"></path>
            <path d="M6.016,8.973 L6.016,6.984 L5.014,6.984 L6.506,5.02 L7.982,6.984 L6.965,6.984 L6.965,8.973 L6.016,8.973 Z" class="si-glyph-fill"></path>
        </g>
    </g>
</svg>