<!--?xml version="1.0" encoding="UTF-8" standalone="no"?-->
<svg viewBox="0 0 17 16" version="1.1" xmlns="http://www.w3.org/2000/svg" xmlns:xlink="http://www.w3.org/1999/xlink" class="si-glyph si-glyph-spanner">
    <!-- Generator: Sketch 3.0.3 (7891) - http://www.bohemiancoding.com/sketch -->
    <title>858</title>
    
    <defs></defs>
    <g stroke="none" stroke-width="1" fill="none" fill-rule="evenodd">
        <path d="M6.838,11.784 L12.744,5.879 C13.916,6.484 15.311,6.372 16.207,5.477 C16.897,4.786 17.131,3.795 16.923,2.839 L15.401,4.358 L14.045,4.624 L12.404,2.999 L12.686,1.603 L14.195,0.113 C13.24,-0.095 12.248,0.136 11.557,0.827 C10.661,1.723 10.549,3.117 11.155,4.291 L5.249,10.197 C4.076,9.592 2.681,9.705 1.784,10.599 C1.096,11.29 0.862,12.281 1.069,13.236 L2.592,11.717 L3.947,11.452 L5.59,13.077 L5.306,14.473 L3.797,15.963 C4.752,16.17 5.744,15.94 6.434,15.249 C7.33,14.354 7.443,12.958 6.838,11.784 L6.838,11.784 Z" fill="#434343" class="si-glyph-fill"></path>
    </g>
</svg>