
<svg viewBox="0 0 17 16" version="1.1" xmlns="http://www.w3.org/2000/svg" xmlns:xlink="http://www.w3.org/1999/xlink" class="si-glyph si-glyph-cow"><title>716</title><defs></defs><g stroke="none" stroke-width="1" fill="none" fill-rule="evenodd"><g transform="translate(1.000000, 0.000000)" fill="#434343"><g><path d="M11.953,15.079 C11.953,15.555 10.182,15.94 7.992,15.94 C5.804,15.94 4.03,15.554 4.03,15.079 L11.953,15.079 L11.953,15.079 Z" class="si-glyph-fill"></path><path d="M1.046,3.715 C0.12,2.824 -0.199,0.741 0.337,0.229 C0.87,-0.283 1.561,0.496 2.488,1.384 C3.415,2.274 5.131,3.409 4.595,3.921 C4.062,4.435 1.974,4.603 1.046,3.715 L1.046,3.715 Z" class="si-glyph-fill"></path><path d="M15.011,3.674 C15.936,2.783 16.255,0.7 15.719,0.188 C15.186,-0.324 14.496,0.455 13.569,1.343 C12.642,2.233 10.926,3.368 11.462,3.88 C11.995,4.394 14.083,4.562 15.011,3.674 L15.011,3.674 Z" class="si-glyph-fill"></path></g><rect x="6" y="6" width="0.984" height="0.984" class="si-glyph-fill"></rect><rect x="9" y="6" width="0.984" height="0.984" class="si-glyph-fill"></rect><path d="M13.277,7.383 C13.487,6.884 13.606,6.346 13.606,5.785 C13.606,3.152 11.115,1.02 8.041,1.02 C4.965,1.02 2.475,3.152 2.475,5.785 C2.475,6.333 2.588,6.858 2.787,7.348 C1.756,7.747 1.027,8.691 1.027,9.79 L1.027,10.616 C1.027,12.079 3.012,13.954 4.593,13.954 L11.398,13.954 C12.979,13.954 14.964,12.079 14.964,10.616 L14.964,9.79 C14.965,8.717 14.271,7.799 13.277,7.383 L13.277,7.383 Z M7.047,12.047 L5.953,12.047 L5.953,10.953 L7.047,10.953 L7.047,12.047 L7.047,12.047 Z M4.841,6.876 C4.841,5.221 5.35,3.877 5.978,3.877 C6.607,3.877 7.116,5.221 7.116,6.876 C7.115,8.53 4.841,8.53 4.841,6.876 L4.841,6.876 Z M10.047,12.047 L8.953,12.047 L8.953,10.953 L10.047,10.953 L10.047,12.047 L10.047,12.047 Z M8.946,6.848 C8.946,5.208 9.425,3.878 10.013,3.878 C10.603,3.878 11.08,5.208 11.08,6.848 C11.081,8.485 8.946,8.485 8.946,6.848 L8.946,6.848 Z" class="si-glyph-fill"></path></g></g></svg>