
<svg viewBox="0 0 16 16" version="1.1" xmlns="http://www.w3.org/2000/svg" xmlns:xlink="http://www.w3.org/1999/xlink" class="si-glyph si-glyph-multifunction-knife"><title>Multifunction-knife</title><defs></defs><g stroke="none" stroke-width="1" fill="none" fill-rule="evenodd" class="si-glyph-fill"><g transform="translate(0.000000, 1.000000)" class="si-glyph-fill"><path d="M11.812,8.886 C12.363,8.981 12.81,11.22 13.62,10.153 C14.599,8.86 15.303,7.513 15.826,5.693 C16.784,2.369 11.84,5.036 13.553,4.866 C14.891,4.733 13.239,8.454 11.873,7.937" fill="#434343" class="si-glyph-fill"></path><path d="M9.381,0.198 C9.311,0.062 9.033,-0.058 8.86,0.278 C8.455,1.064 7.858,1.747 8.125,5.031 L11.969,9 C11.969,9 12.043,5.326 9.381,0.198 L9.381,0.198 Z" fill="#434343" class="si-glyph-fill"></path><path d="M12.12,10.376 L6.81,4.791 C6.737,4.798 6.662,4.803 6.586,4.803 C5.306,4.803 4.267,3.716 4.267,2.377 C4.267,2.299 4.272,2.221 4.279,2.143 L3.363,1.185 C2.797,0.593 1.927,0.655 1.535,1.092 L0.137,2.533 C-0.234,2.904 -0.126,4.019 0.273,4.417 L9.03,13.608 C9.596,14.201 10.597,14.116 11.265,13.417 L11.936,12.713 C12.604,12.016 12.687,10.968 12.12,10.376 L12.12,10.376 Z M10.371,12.698 C9.951,12.698 9.611,12.349 9.611,11.919 C9.611,11.487 9.951,11.138 10.371,11.138 C10.795,11.138 11.135,11.488 11.135,11.919 C11.135,12.35 10.795,12.698 10.371,12.698 L10.371,12.698 Z" fill="#434343" class="si-glyph-fill"></path><path d="M9.126,12.521 L7.457,12.521 C6.251,12.521 6.457,11.521 5.458,11.521 C4.459,11.521 4.288,13.521 3.457,13.521 C2.626,13.521 2.413,11.521 1.457,11.521 C0.501,11.521 0.459,12.521 0.459,12.521" stroke="#434343" class="si-glyph-fill si-glyph-stroke si-glyph-stroke-fill si-glyph-thick si-glyph-thick-stroke"></path></g></g></svg>