<!--?xml version="1.0" encoding="UTF-8" standalone="no"?-->
<svg viewBox="0 0 17 16" version="1.1" xmlns="http://www.w3.org/2000/svg" xmlns:xlink="http://www.w3.org/1999/xlink" class="si-glyph si-glyph-time-reload">
    <!-- Generator: Sketch 3.0.3 (7891) - http://www.bohemiancoding.com/sketch -->
    <title>687</title>
    
    <defs></defs>
    <g stroke="none" stroke-width="1" fill="none" fill-rule="evenodd">
        <g transform="translate(1.000000, 1.000000)" fill="#434343">
            <path d="M8.549,0.046 C4.69,0.046 1.73,3.238 1.383,7.031 L0.059,7.031 L1.951,8.983 L4.016,7.031 L2.677,7.031 C3.008,3.802 5.424,1.073 8.614,1.073 C12.026,1.073 14.803,3.961 14.803,7.51 C14.803,11.059 12.026,13.948 8.614,13.948 C6.919,13.948 5.382,13.235 4.264,12.083 L3.443,12.909 C4.776,14.185 6.572,14.974 8.549,14.974 C12.641,14.974 15.968,11.625 15.968,7.51 C15.968,3.395 12.641,0.046 8.549,0.046 L8.549,0.046 Z" class="si-glyph-fill"></path>
            <path d="M8,2.98962402 L8,8 L11.9597167,8 L11.9597167,7 L8.971,7 L8.97100003,2.98962402 C8.97200003,2.98962402 8,2.98962402 8,2.98962402 Z" class="si-glyph-fill"></path>
        </g>
    </g>
</svg>