<!--?xml version="1.0" encoding="UTF-8" standalone="no"?-->
<svg viewBox="0 0 17 16" version="1.1" xmlns="http://www.w3.org/2000/svg" xmlns:xlink="http://www.w3.org/1999/xlink" class="si-glyph si-glyph-layout-4">
    <!-- Generator: Sketch 3.0.3 (7891) - http://www.bohemiancoding.com/sketch -->
    <title>961</title>
    
    <defs></defs>
    <g stroke="none" stroke-width="1" fill="none" fill-rule="evenodd">
        <g transform="translate(1.000000, 0.000000)" fill="#434343">
            <path d="M9.956,6.326 C9.956,6.676 9.657,6.958 9.287,6.958 L0.689,6.958 C0.318,6.958 0.019,6.676 0.019,6.326 L0.019,0.633 C0.019,0.283 0.318,0 0.689,0 L9.287,0 C9.657,0 9.956,0.283 9.956,0.633 L9.956,6.326 L9.956,6.326 Z" class="si-glyph-fill"></path>
            <path d="M16,15.333 C16,15.702 15.699,16 15.329,16 L6.714,16 C6.343,16 6.043,15.702 6.043,15.333 L6.043,8.666 C6.043,8.298 6.343,8 6.714,8 L15.329,8 C15.699,8 16,8.298 16,8.666 L16,15.333 L16,15.333 Z" class="si-glyph-fill"></path>
            <path d="M4.976,15.333 C4.976,15.702 4.676,16 4.308,16 L0.691,16 C0.319,16 0.02,15.702 0.02,15.333 L0.02,8.666 C0.02,8.298 0.319,8 0.691,8 L4.308,8 C4.676,8 4.976,8.298 4.976,8.666 L4.976,15.333 L4.976,15.333 Z" class="si-glyph-fill"></path>
            <path d="M16,6.345 C16,6.696 15.676,6.979 15.274,6.979 L11.746,6.979 C11.348,6.979 11.023,6.696 11.023,6.345 L11.023,0.635 C11.023,0.283 11.347,0 11.746,0 L15.274,0 C15.675,0 16,0.283 16,0.635 L16,6.345 L16,6.345 Z" class="si-glyph-fill"></path>
        </g>
    </g>
</svg>