<!--?xml version="1.0" encoding="UTF-8" standalone="no"?-->
<svg viewBox="0 0 16 16" version="1.1" xmlns="http://www.w3.org/2000/svg" xmlns:xlink="http://www.w3.org/1999/xlink" class="si-glyph si-glyph-bubble-message-talk">
    <!-- Generator: Sketch 3.0.3 (7891) - http://www.bohemiancoding.com/sketch -->
    <title>639</title>
    
    <defs></defs>
    <g stroke="none" stroke-width="1" fill="none" fill-rule="evenodd">
        <g transform="translate(0.000000, 1.000000)" fill="#434343">
            <path d="M5.939,0 C2.666,0 0.00899999996,1.987 0.00899999996,4.438 C0.00899999996,6.674 2.224,8.52 5.101,8.825 L3.88,11.26 L8.129,8.56 C10.318,7.906 12,6.309 12,4.438 C12,1.988 9.213,0 5.939,0 Z" class="si-glyph-fill"></path>
            <path d="M15.947,8.89 C15.947,7.766 14.885,6.602 13.658,6.022 C13.314,7.972 11.734,9.767 9.241,10.469 L8.054,11.111 C8.508,11.451 9.064,11.722 9.688,11.899 L13.326,13.87 L12.023,12.094 C14.24,11.869 15.947,10.523 15.947,8.89 L15.947,8.89 Z" class="si-glyph-fill"></path>
        </g>
    </g>
</svg>