<!--?xml version="1.0" encoding="UTF-8" standalone="no"?-->
<svg viewBox="0 0 17 16" version="1.1" xmlns="http://www.w3.org/2000/svg" xmlns:xlink="http://www.w3.org/1999/xlink" class="si-glyph si-glyph-zoom-in">
    <!-- Generator: Sketch 3.0.3 (7891) - http://www.bohemiancoding.com/sketch -->
    <title>864</title>
    
    <defs></defs>
    <g stroke="none" stroke-width="1" fill="none" fill-rule="evenodd">
        <g transform="translate(1.000000, 0.000000)" fill="#434343">
            <path d="M16,6.01 C16,2.725 13.33,0.063 10.035,0.063 C6.741,0.063 4.071,2.725 4.071,6.01 C4.071,9.294 6.741,11.958 10.035,11.958 C13.33,11.958 16,9.294 16,6.01 L16,6.01 Z M4.889,6 C4.889,3.193 7.178,0.921 10.005,0.921 C12.83,0.921 15.119,3.193 15.119,6 C15.119,8.806 12.83,11.078 10.005,11.078 C7.178,11.078 4.889,8.806 4.889,6 L4.889,6 Z" class="si-glyph-fill"></path>
            <path d="M1.909,15.938 L0.086,14.115 L4.234,9.967 C4.234,9.967 4.322,10.74 4.805,11.223 C5.288,11.707 6.057,11.789 6.057,11.789 L1.909,15.938 L1.909,15.938 Z" class="si-glyph-fill"></path>
            <path d="M12.938,5.996 C12.938,6.519 12.612,6.944 12.209,6.944 L7.771,6.944 C7.369,6.944 7.042,6.519 7.042,5.996 L7.042,5.996 C7.042,5.471 7.368,5.046 7.771,5.046 L12.209,5.046 C12.612,5.046 12.938,5.471 12.938,5.996 L12.938,5.996 L12.938,5.996 Z" class="si-glyph-fill"></path>
        </g>
    </g>
</svg>