
<svg viewBox="0 0 17 17" version="1.1" xmlns="http://www.w3.org/2000/svg" xmlns:xlink="http://www.w3.org/1999/xlink" class="si-glyph si-glyph-kette"><title>742</title><defs></defs><g stroke="none" stroke-width="1" fill="none" fill-rule="evenodd"><g transform="translate(1.000000, 0.000000)"><path d="M1.4,4.945 L2.083,12.207 L3.127,12.206 C3.3,8.285 3.775,6.326 4.457,4.602 L1.482,4.939 C1.455,4.943 1.428,4.945 1.4,4.945 L1.4,4.945 Z" class=""></path><path d="M3.051,16.081 C3.051,16.497 3.06,16.557 3.073,16.959 L12.93,16.959 C12.943,16.557 12.952,16.497 12.952,16.081 L12.952,16.062 L3.05,16.062 C3.051,16.069 3.051,16.075 3.051,16.081 L3.051,16.081 Z" fill="#434343" class="si-glyph-fill"></path><path d="M3.127,12.206 L2.083,12.207 L1.4,4.945 C1.427,4.945 1.455,4.943 1.482,4.939 L4.457,4.602 C3.775,6.326 3.3,8.285 3.127,12.206 L3.127,12.206 Z M12.074,4.328 L11.568,4.009 C11.408,3.592 11.23,3.412 11.047,3.094 L5.379,3.094 C5.323,3.171 1.352,3.603 1.352,3.603 C0.637,3.628 0.063,4.23 0.066,5.017 L0.735,12.188 C0.735,12.937 1.581,13.545 2.318,13.545 L3.081,13.545 C3.069,13.983 3.07968872,14.4954025 3.07668872,14.9624025 L12.9686887,14.9624025 C12.9396887,11.6224025 12.7962888,9.0445375 12.4462888,7.0635375 C12.4512888,7.0545375 14.908,4.594 14.908,4.594 C15.06,4.275 14.489,4.267 14,4.031 C14,4.031 12.227,4.011 12.074,4.328 Z" fill="#434343" class="si-glyph-fill"></path><path d="M6.03100586,1.99731452 L10.9454956,1.99731452 C10.2104956,1.15231452 9.49855713,1.04180908 8.58355713,1.04180908 C7.87355713,1.04180908 6.63900586,1.33131452 6.03100586,1.99731452 Z" fill="#434343" class="si-glyph-fill"></path></g></g></svg>