<!--?xml version="1.0" encoding="UTF-8" standalone="no"?-->
<svg viewBox="0 0 17 16" version="1.1" xmlns="http://www.w3.org/2000/svg" xmlns:xlink="http://www.w3.org/1999/xlink" class="si-glyph si-glyph-seriff">
    <!-- Generator: Sketch 3.0.3 (7891) - http://www.bohemiancoding.com/sketch -->
    <title>775</title>
    
    <defs></defs>
    <g stroke="none" stroke-width="1" fill="none" fill-rule="evenodd">
        <path d="M15.717,5.374 C15.025,5.374 14.462,5.927 14.439,6.615 L11.018,6.112 L9.549,3.108 C9.982,2.901 10.282,2.463 10.282,1.954 C10.282,1.247 9.708,0.672 9,0.672 C8.292,0.672 7.717,1.247 7.717,1.954 C7.717,2.442 7.993,2.861 8.396,3.079 L6.914,6.112 L3.56,6.605 C3.532,5.921 2.973,5.374 2.283,5.374 C1.576,5.374 1.001,5.948 1.001,6.656 C1.001,7.364 1.576,7.938 2.283,7.938 C2.616,7.938 2.919,7.807 3.146,7.598 L5.644,10.056 L5.069,13.444 C5.036,13.442 5.003,13.434 4.97,13.434 C4.262,13.434 3.687,14.009 3.687,14.717 C3.687,15.424 4.262,15.999 4.97,15.999 C5.677,15.999 6.252,15.424 6.252,14.717 C6.252,14.467 6.178,14.238 6.055,14.04 L8.965,12.494 L11.931,14.068 C11.818,14.259 11.748,14.478 11.748,14.716 C11.748,15.423 12.323,15.998 13.03,15.998 C13.738,15.998 14.313,15.423 14.313,14.716 C14.313,14.008 13.738,13.433 13.03,13.433 C12.973,13.433 12.92,13.443 12.864,13.451 L12.288,10.055 L14.817,7.567 C15.048,7.796 15.366,7.937 15.716,7.937 C16.424,7.937 16.999,7.363 16.999,6.655 C16.999,5.947 16.425,5.374 15.717,5.374 L15.717,5.374 Z" fill="#434343" class="si-glyph-fill"></path>
    </g>
</svg>