
<svg viewBox="0 0 16 16" version="1.1" xmlns="http://www.w3.org/2000/svg" xmlns:xlink="http://www.w3.org/1999/xlink" class="si-glyph si-glyph-sign-foot"><title>120</title><defs></defs><g stroke="none" stroke-width="1" fill="none" fill-rule="evenodd"><g fill="#434343"><path d="M13.798,14.262 C13.798,17.493 11.459,14.515 8.504,14.515 C5.553,14.515 3.101,17.494 3.101,14.262 C3.101,12.753 4.333,11.165 5.191,9.809 C6.169,8.262 6.876,7.043 8.45,7.043 C10.03,7.043 10.814,8.337 11.795,9.895 C12.644,11.246 13.798,12.76 13.798,14.262 L13.798,14.262 Z" class="si-glyph-fill"></path><ellipse cx="5.91" cy="2.881" rx="1.91" ry="2.881" class="si-glyph-fill"></ellipse><ellipse cx="10.936" cy="2.926" rx="1.936" ry="2.926" class="si-glyph-fill"></ellipse><ellipse transform="translate(1.986400, 7.434900) rotate(-10.509839) translate(-1.986400, -7.434900) " cx="1.87140276" cy="7.37090154" rx="1.88495476" ry="2.43594154" class="si-glyph-fill"></ellipse><path d="M12.115,7.305 C11.77,8.631 12.316,9.809 13.329,9.932 C14.343,10.058 15.445,9.083 15.792,7.757 C16.137,6.429 15.592,5.251 14.578,5.127 C13.562,5.001 12.46,5.977 12.115,7.305 L12.115,7.305 Z" class="si-glyph-fill"></path></g></g></svg>