<!--?xml version="1.0" encoding="UTF-8" standalone="no"?-->
<svg viewBox="0 0 17 16" version="1.1" xmlns="http://www.w3.org/2000/svg" xmlns:xlink="http://www.w3.org/1999/xlink" class="si-glyph si-glyph-two-arrow-in-down-up">
    <!-- Generator: Sketch 3.0.3 (7891) - http://www.bohemiancoding.com/sketch -->
    <title>934</title>
    
    <defs></defs>
    <g stroke="none" stroke-width="1" fill="none" fill-rule="evenodd">
        <g transform="translate(5.000000, 0.000000)" fill="#434343">
            <path d="M7.771,4.096 C8.035,3.834 8.035,3.411 7.771,3.15 C7.507,2.889 7.081,2.888 6.817,3.15 L4.989,4.503 L4.989,1 C4.989,0.447 4.545,0 3.997,0 C3.448,0 3.005,0.447 3.005,1 L3.005,4.564 L1.187,3.18 C0.925,2.918 0.499,2.918 0.236,3.18 C0.103,3.31 0.037,3.482 0.037,3.653 C0.037,3.824 0.103,3.996 0.236,4.127 L3.976,6.946 L7.771,4.096 L7.771,4.096 Z" class="si-glyph-fill"></path>
            <path d="M7.771,11.876 C8.035,12.138 8.035,12.561 7.771,12.822 C7.507,13.083 7.081,13.084 6.817,12.822 L4.989,11.494 L4.989,15 C4.989,15.553 4.545,16 3.997,16 C3.448,16 3.005,15.553 3.005,15 L3.005,11.572 L1.187,12.838 C0.925,13.1 0.499,13.1 0.236,12.838 C0.103,12.708 0.037,12.536 0.037,12.365 C0.037,12.194 0.103,12.022 0.236,11.891 L3.976,9.053 L7.771,11.876 L7.771,11.876 Z" class="si-glyph-fill"></path>
        </g>
    </g>
</svg>