
<svg viewBox="0 0 16 16" version="1.1" xmlns="http://www.w3.org/2000/svg" xmlns:xlink="http://www.w3.org/1999/xlink" class="si-glyph si-glyph-book-@"><title>Book-@</title><defs></defs><g stroke="none" stroke-width="1" fill="none" fill-rule="evenodd"><g fill="#434343"><rect x="0" y="0" width="2" height="16" class="si-glyph-fill"></rect><path d="M11,6 L11,9 L11.885,9 L12,6 L11,6 Z" class="si-glyph-fill"></path><path d="M3,0 L3,16 L13.8208442,16 C14.4713435,16 15,15.5473033 15,14.9895162 L15,1.01048377 C15,0.451686245 14.4723504,0 13.8208442,0 L3,0 Z M13.051,9.053 L12.08,9.053 L12.062,10.063 L7.906,10.063 L7.924,9.042 L6.957,9.042 L6.957,6.99 L7.915,6.99 L7.915,5.948 L10.957,5.938 L10.957,5.051 L7.026,5.051 L7.026,6.048 L6.029,6.048 L6.029,9.958 L7.041,9.958 L7.041,10.975 L11.047,10.975 L11.047,12.014 L6.961,12.014 L6.961,11.063 L5.958,11.063 L5.958,10.032 L4.953,10.032 L4.953,5.991 L5.973,5.991 L5.973,4.973 L6.938,4.973 L6.938,3.938 L11.032,3.938 L11.032,4.959 L12.011,4.959 L12.011,5.949 L13.052,5.949 L13.052,9.053 L13.051,9.053 Z" class="si-glyph-fill"></path><rect x="8" y="7" width="2" height="2" class="si-glyph-fill"></rect></g></g></svg>