<!--?xml version="1.0" encoding="UTF-8" standalone="no"?-->
<svg viewBox="0 0 17 16" version="1.1" xmlns="http://www.w3.org/2000/svg" xmlns:xlink="http://www.w3.org/1999/xlink" class="si-glyph si-glyph-bubble-message-dot">
    <!-- Generator: Sketch 3.0.3 (7891) - http://www.bohemiancoding.com/sketch -->
    <title>1088</title>
    
    <defs></defs>
    <g stroke="none" stroke-width="1" fill="none" fill-rule="evenodd">
        <path d="M14.1,0 L3.902,0 C2.873,0 2.039,0.795 2.039,2.094 L2.039,7.938 C2.039,9.237 2.873,9.989 3.902,9.989 L9.602,9.989 L8.032,14.969 L12.506,9.989 L14.101,9.989 C15.13,9.989 15.965,9.237 15.965,7.938 L15.965,2.094 C15.964,0.795 15.129,0 14.1,0 L14.1,0 Z M5.02,6.312 C4.301,6.312 3.719,5.722 3.719,4.994 C3.719,4.266 4.301,3.677 5.02,3.677 C5.741,3.677 6.321,4.267 6.321,4.994 C6.32,5.723 5.74,6.312 5.02,6.312 L5.02,6.312 Z M9,6.24 C8.291,6.24 7.719,5.682 7.719,4.994 C7.719,4.306 8.291,3.749 9,3.749 C9.707,3.749 10.281,4.307 10.281,4.994 C10.281,5.683 9.707,6.24 9,6.24 L9,6.24 Z M13,6.24 C12.295,6.24 11.719,5.682 11.719,4.994 C11.719,4.306 12.295,3.749 13,3.749 C13.707,3.749 14.281,4.307 14.281,4.994 C14.281,5.683 13.707,6.24 13,6.24 L13,6.24 Z" fill="#434343" class="si-glyph-fill"></path>
    </g>
</svg>