<!--?xml version="1.0" encoding="UTF-8" standalone="no"?-->
<svg viewBox="0 0 16 16" version="1.1" xmlns="http://www.w3.org/2000/svg" xmlns:xlink="http://www.w3.org/1999/xlink" class="si-glyph si-glyph-basket-arrow-up">
    <!-- Generator: Sketch 3.0.3 (7891) - http://www.bohemiancoding.com/sketch -->
    <title>623</title>
    
    <defs></defs>
    <g stroke="none" stroke-width="1" fill="none" fill-rule="evenodd">
        <g transform="translate(0.000000, 1.000000)" fill="#434343">
            <path d="M11.018,13.956 L13.202,11.041 L13.479,5.95 L14.245,5.95 C14.645,5.95 14.97,4.726 14.97,4.726 C14.97,4.355 14.646,4.052 14.245,4.052 L12.317,4.052 L11.282,0.406 C11.131,0.088 10.756,-0.04 10.444,0.119 L10.373,0.155 C10.062,0.316 9.933,0.703 10.084,1.021 L10.825,4.052 L4.171,4.052 L4.939,1.026 C5.093,0.711 4.966,0.322 4.658,0.158 L4.588,0.122 C4.277,-0.04 3.9,0.084 3.746,0.4 L2.673,4.052 L0.783,4.052 C0.383,4.052 0.058,4.355 0.058,4.726 C0.058,4.726 0.382,5.95 0.783,5.95 L1.419,5.95 L1.868,12.645 C1.868,12.645 1.92,13.957 3.981,13.957 L11.002,13.957 C11.006,13.958 11.011,13.956 11.018,13.956 L11.018,13.956 Z M11.938,4.94 L13.032,4.94 L13.032,6.037 L11.938,6.037 L11.938,4.94 L11.938,4.94 Z M3.031,6.006 L1.969,6.006 L1.969,4.941 L3.031,4.941 L3.031,6.006 L3.031,6.006 Z M5.062,11.559 C5.062,11.891 4.811,12.16 4.503,12.16 L4.48,12.16 C4.169,12.16 3.919,11.891 3.919,11.559 L3.919,7.452 C3.919,7.12 4.169,6.852 4.48,6.852 L4.503,6.852 C4.811,6.852 5.062,7.12 5.062,7.452 L5.062,11.559 L5.062,11.559 Z M8.061,11.537 C8.061,11.872 7.81,12.144 7.502,12.144 L7.478,12.144 C7.168,12.144 6.918,11.872 6.918,11.537 L6.918,7.427 C6.918,7.092 7.168,6.821 7.478,6.821 L7.502,6.821 C7.81,6.821 8.061,7.092 8.061,7.427 L8.061,11.537 L8.061,11.537 Z M10.524,12.138 L10.502,12.138 C10.201,12.138 9.958,11.868 9.958,11.536 L9.958,7.449 C9.958,7.116 10.201,6.847 10.502,6.847 L10.524,6.847 C10.826,6.847 11.07,7.116 11.07,7.449 L11.07,11.536 C11.07,11.868 10.826,12.138 10.524,12.138 L10.524,12.138 Z" class="si-glyph-fill"></path>
            <path d="M15.989,12.984 L14.51,11 L13.031,12.984 L14.021,12.984 L14.021,14.979 L14.984,14.979 L14.984,12.984 L15.989,12.984 Z" class="si-glyph-fill"></path>
        </g>
    </g>
</svg>