<!--?xml version="1.0" encoding="UTF-8" standalone="no"?-->
<svg viewBox="0 0 17 16" version="1.1" xmlns="http://www.w3.org/2000/svg" xmlns:xlink="http://www.w3.org/1999/xlink" class="si-glyph si-glyph-weight-up">
    <!-- Generator: Sketch 3.0.3 (7891) - http://www.bohemiancoding.com/sketch -->
    <title>674</title>
    
    <defs></defs>
    <g stroke="none" stroke-width="1" fill="none" fill-rule="evenodd">
        <path d="M12.867,3.039 L11.944,3.039 C11.978,2.887 12,2.719 12,2.531 C12,1.135 10.877,0 9.495,0 C8.113,0 6.99,1.135 6.99,2.531 C6.99,2.719 7.016,2.886 7.058,3.039 L6.136,3.039 C5.011,3.039 4.099,3.922 4.099,5.01 L2.083,13.985 C2.083,15.075 2.873,15.957 4,15.957 L15,15.957 C16.126,15.957 16.917,15.075 16.917,13.985 L14.905,5.01 C14.905,3.922 13.993,3.039 12.867,3.039 Z M7.824,2.531 C7.824,1.582 8.573,0.808 9.495,0.808 C10.416,0.808 11.165,1.581 11.165,2.531 C11.165,2.709 11.131,2.877 11.082,3.039 L7.906,3.039 C7.857,2.877 7.824,2.709 7.824,2.531 L7.824,2.531 Z M10.054,10.08 L10.054,13.039 L8.946,13.039 L8.946,10.101 L6.813,10.08 L9.543,7.02 L12.107,10.08 L10.054,10.08 L10.054,10.08 Z" fill="#434343" class="si-glyph-fill"></path>
    </g>
</svg>