
<svg viewBox="0 0 17 16" version="1.1" xmlns="http://www.w3.org/2000/svg" xmlns:xlink="http://www.w3.org/1999/xlink" class="si-glyph si-glyph-scissor-line-cut"><title>693</title><defs></defs><g stroke="none" stroke-width="1" fill="none" fill-rule="evenodd"><g transform="translate(1.000000, 2.000000)"><g><path d="M5.798,1.142 C5.427,0.92 5.079,0.878 4.844,1.027 C4.37,1.325 4.423,2.31 4.957,3.176 C5.327,3.773 5.884,4.187 6.337,4.274 C6.516,4.31 6.681,4.298 6.807,4.217 C6.942,4.132 7.029,3.988 7.079,3.813 C7.209,3.367 7.08,2.689 6.695,2.069 C6.449,1.671 6.131,1.343 5.798,1.142 L5.798,1.142 Z" class=""></path><path d="M4.167,6.268 C3.825,6.046 3.376,5.907 2.903,5.875 C1.876,5.809 0.98,6.271 0.946,6.887 C0.914,7.466 1.779,8.073 2.769,8.135 C3.456,8.179 4.076,7.987 4.428,7.668 C4.601,7.513 4.713,7.328 4.725,7.125 C4.734,6.967 4.68,6.808 4.577,6.656 C4.482,6.518 4.346,6.385 4.167,6.268 L4.167,6.268 Z" class=""></path><path d="M15.922,7.938 C15.922,7.938 15.473,7.019 15.271,7 L8.756,7.062 L7.671,4.689 C8.158,3.999 8.067,2.784 7.367,1.653 C7.024,1.096 6.568,0.632 6.089,0.341 C5.446,-0.044 4.805,-0.093 4.327,0.207 C3.465,0.752 3.446,2.238 4.283,3.593 C4.625,4.149 5.079,4.615 5.562,4.904 C5.922,5.12 6.278,5.217 6.61,5.221 L7.406,7.075 L5.692,7.091 C5.54,6.78 5.079,6.029 4.698,5.802 C4.216,5.511 3.593,5.163 2.941,5.124 C1.369,5.03 0.089,5.912 0.028,6.923 C-0.003,7.474 0.339,8.008 0.973,8.388 C1.456,8.677 2.08,8.858 2.73,8.897 C3.997,8.972 5.061,8.668 5.463,7.962 L7.83,7.957 L9.14,10.957 L10.536,10.957 L9.196,7.954 L15.922,7.938 L15.922,7.938 Z M7.078,3.812 C7.028,3.988 6.941,4.131 6.806,4.216 C6.68,4.297 6.515,4.309 6.336,4.273 C5.883,4.186 5.326,3.772 4.956,3.175 C4.422,2.309 4.369,1.323 4.843,1.026 C5.078,0.878 5.426,0.92 5.797,1.141 C6.13,1.342 6.448,1.67 6.693,2.068 C7.079,2.688 7.208,3.366 7.078,3.812 L7.078,3.812 Z M4.429,7.668 C4.076,7.986 3.456,8.179 2.77,8.135 C1.78,8.073 0.915,7.466 0.947,6.887 C0.981,6.272 1.877,5.809 2.904,5.875 C3.377,5.906 3.826,6.046 4.168,6.268 C4.347,6.385 4.483,6.518 4.578,6.657 C4.682,6.808 4.735,6.968 4.726,7.126 C4.714,7.328 4.602,7.513 4.429,7.668 L4.429,7.668 Z" fill="#434343" class="si-glyph-fill"></path></g><rect fill="#434343" x="9" y="11" width="1.984" height="1" class="si-glyph-fill"></rect><rect fill="#434343" x="5" y="11" width="1.984" height="0.969" class="si-glyph-fill"></rect><rect fill="#434343" x="13" y="11" width="1.984" height="0.969" class="si-glyph-fill"></rect><rect fill="#434343" x="1" y="11" width="1.984" height="0.969" class="si-glyph-fill"></rect></g></g></svg>