
<svg viewBox="0 0 17 16" version="1.1" xmlns="http://www.w3.org/2000/svg" xmlns:xlink="http://www.w3.org/1999/xlink" class="si-glyph si-glyph-dashboard"><title>1013</title><defs></defs><g stroke="none" stroke-width="1" fill="none" fill-rule="evenodd"><g transform="translate(1.000000, 1.000000)" fill="#434343"><g><path d="M7.521,14.979 C3.41,14.979 0.062,11.619 0.062,7.49 C0.062,3.359 3.41,0 7.521,0 C11.632,0 14.979,3.359 14.979,7.49 C14.979,11.619 11.633,14.979 7.521,14.979 L7.521,14.979 L7.521,14.979 Z M7.512,1.956 C4.46,1.956 1.978,4.442 1.978,7.501 C1.978,10.559 4.46,13.046 7.512,13.046 C10.563,13.046 13.044,10.559 13.044,7.501 C13.044,4.442 10.562,1.956 7.512,1.956 L7.512,1.956 L7.512,1.956 Z" class="si-glyph-fill"></path><path d="M7.965,9.062 L7.965,6.639 C7.965,6.292 7.752,6.013 7.488,6.013 C7.224,6.013 7.009,6.292 7.009,6.639 L7.009,9.062 C6.622,9.254 6.041,9.604 6.041,10.5 C6.041,11.396 6.86,11.984 7.487,11.984 C8.114,11.984 8.915,11.395 8.915,10.5 C8.915,9.605 8.355,9.255 7.965,9.062 L7.965,9.062 Z" class="si-glyph-fill"></path><rect x="7" y="3" width="0.959" height="0.976" class="si-glyph-fill"></rect></g><rect x="4" y="4" width="0.998" height="0.979" class="si-glyph-fill"></rect><rect x="10" y="4" width="0.998" height="0.979" class="si-glyph-fill"></rect></g></g></svg>