<!--?xml version="1.0" encoding="UTF-8" standalone="no"?-->
<svg viewBox="0 0 16 16" version="1.1" xmlns="http://www.w3.org/2000/svg" xmlns:xlink="http://www.w3.org/1999/xlink" class="si-glyph si-glyph-dna">
    <!-- Generator: Sketch 3.0.3 (7891) - http://www.bohemiancoding.com/sketch -->
    <title>DNA</title>
    
    <defs></defs>
    <g stroke="none" stroke-width="1" fill="none" fill-rule="evenodd">
        <path d="M8.105,3.551 C8.121,3.528 8.138,3.504 8.155,3.481 C9.145,2.118 10,0.94 10,0.042 L9,0.042 C9,0.284 8.861,0.618 8.648,1.001 L6.334,1.001 C6.129,0.628 6,0.297 6,0.042 L5,0.042 C5,1.002 5.877,2.184 6.89,3.554 C6.891,3.556 6.892,3.557 6.892,3.557 C5.903,4.942 5,6.336 5,7.535 C5,8.734 5.908,10.099 6.896,11.45 C6.879,11.473 6.862,11.498 6.845,11.52 C5.855,12.882 5,14.061 5,14.959 L6,14.959 C6,14.712 6.144,14.37 6.363,13.98 L8.654,13.98 C8.865,14.362 9,14.701 9,14.959 L10,14.959 C10,13.998 9.124,12.817 8.11,11.447 L8.107,11.443 C9.097,10.059 10,8.665 10,7.467 C10,6.268 9.093,4.9 8.105,3.551 L8.105,3.551 Z M8.038,1.958 C7.865,2.209 7.682,2.465 7.495,2.724 C7.305,2.465 7.119,2.209 6.943,1.958 L8.038,1.958 L8.038,1.958 Z M8.531,6 L6.492,6 C6.765,5.481 7.122,4.936 7.502,4.392 C7.891,4.934 8.257,5.48 8.531,6 L8.531,6 Z M9,7.467 C9,7.633 8.965,7.814 8.916,8 L6.064,8 C6.025,7.838 6,7.68 6,7.533 C6,7.361 6.037,7.173 6.09,6.978 L8.929,6.978 C8.971,7.148 9,7.313 9,7.467 L9,7.467 Z M6.961,13.042 C7.135,12.791 7.318,12.533 7.506,12.275 C7.696,12.534 7.881,12.791 8.057,13.042 L6.961,13.042 L6.961,13.042 Z M6.457,8.979 L8.518,8.979 C8.245,9.503 7.883,10.057 7.497,10.608 C7.104,10.059 6.732,9.504 6.457,8.979 L6.457,8.979 Z" fill="#434343" class="si-glyph-fill"></path>
    </g>
</svg>