<!--?xml version="1.0" encoding="UTF-8" standalone="no"?-->
<svg viewBox="0 0 17 17" version="1.1" xmlns="http://www.w3.org/2000/svg" xmlns:xlink="http://www.w3.org/1999/xlink" class="si-glyph si-glyph-skull">
    <!-- Generator: Sketch 3.0.3 (7891) - http://www.bohemiancoding.com/sketch -->
    <title>944</title>
    
    <defs></defs>
    <g stroke="none" stroke-width="1" fill="none" fill-rule="evenodd">
        <path d="M14.828,12.836 C15.715,11.589 17,9.804 17,7.85 C17,3.993 15.063,0 9.031,0 C3,0 1.031,3.992 1.031,7.85 C1.031,9.797 2.422,11.578 3.217,12.823 C3.526,13.302 3.668,14.695 3.668,14.806 C3.668,14.888 3.68,14.967 3.697,15.046 C3.787,15.671 4.328,15.973 4.994,15.996 C4.994,15.996 5.49,16.005 5.565,15.996 C6.322,15.909 6.909,15.585 6.988,14.947 C7.052,15.578 7.656,15.996 9.015,15.996 C10.374,15.996 10.958,15.6 11.038,14.988 C11.145,15.622 11.761,15.935 12.534,15.996 C12.587,16 13.109,15.996 13.109,15.996 C13.813,15.942 14.37,15.558 14.37,14.863 C14.37,14.863 14.364,14.861 14.359,14.859 C14.36,14.837 14.366,14.816 14.366,14.795 C14.367,14.673 14.514,13.279 14.828,12.836 L14.828,12.836 Z M5.999,9 C4.894,9 4,8.104 4,7 C4,5.895 4.894,5 5.999,5 C7.104,5 8,5.895 8,7 C8,8.104 7.104,9 5.999,9 L5.999,9 Z M9.01,12.848 C8.186,12.848 7.517,13.287 7.517,12.67 C7.517,12.054 8.186,10.779 9.01,10.779 C9.837,10.779 10.504,12.053 10.504,12.67 C10.504,13.288 9.837,12.848 9.01,12.848 L9.01,12.848 Z M11.999,9 C10.895,9 10,8.104 10,7.001 C10,5.896 10.895,5 11.999,5 C13.104,5 14,5.896 14,7.001 C14,8.104 13.104,9 11.999,9 L11.999,9 Z" fill="#434343" class="si-glyph-fill"></path>
    </g>
</svg>