
<svg viewBox="0 0 17 16" version="1.1" xmlns="http://www.w3.org/2000/svg" xmlns:xlink="http://www.w3.org/1999/xlink" class="si-glyph si-glyph-hat-chef"><title>902</title><defs></defs><g stroke="none" stroke-width="1" fill="none" fill-rule="evenodd"><g transform="translate(1.000000, 0.000000)" fill="#434343"><rect x="3" y="15" width="10" height="1" class="si-glyph-fill"></rect><path d="M12.449,3.312 C11.998,1.461 10.323,0.086 8.322,0.086 C6.262,0.086 4.547,1.542 4.156,3.476 C3.888,3.406 3.612,3.357 3.323,3.357 C1.493,3.357 0.0110000001,4.839 0.0110000001,6.669 C0.0110000001,8.498 1.198,9.981 3.028,9.981 C3.047,9.981 3.064,9.976 3.084,9.976 L3.084,13.957 L12.959,13.957 L12.959,10.573 C14.842,10.433 15.97,8.864 15.97,6.946 C15.969,4.977 14.402,3.379 12.449,3.312 L12.449,3.312 Z M7.9,1.795 C7.058,2.339 6.517,3.196 6.517,4.163 L5.216,4.163 C5.216,2.765 6.349,1.592 7.88,1.263 C8.157,1.205 8.332,1.515 7.9,1.795 L7.9,1.795 Z" class="si-glyph-fill"></path></g></g></svg>