<!--?xml version="1.0" encoding="UTF-8" standalone="no"?-->
<svg viewBox="0 0 16 16" version="1.1" xmlns="http://www.w3.org/2000/svg" xmlns:xlink="http://www.w3.org/1999/xlink" class="si-glyph si-glyph-link-2">
    <!-- Generator: Sketch 3.0.3 (7891) - http://www.bohemiancoding.com/sketch -->
    <title>93</title>
    
    <defs></defs>
    <g stroke="none" stroke-width="1" fill="none" fill-rule="evenodd">
        <g fill="#434343">
            <path d="M1.711,15.919 C1.254,15.919 0.822,15.742 0.5,15.421 C0.175,15.098 -0.003,14.668 -0.002,14.21 C-0.001,13.752 0.181,13.32 0.508,12.994 C0.69,12.812 0.916,12.676 1.182,12.587 L1.502,12.48 L1.406,12.159 C1.125,11.21 1.325,10.277 1.94,9.665 L2.57,9.038 L3.482,9.944 L3.057,10.366 C2.343,11.077 2.402,11.949 3.216,12.762 C3.65,13.192 4.089,13.41 4.526,13.41 C4.915,13.41 5.269,13.245 5.612,12.906 L9.501,9.034 L10.415,9.943 L6.317,14.019 C5.895,14.439 5.328,14.661 4.672,14.661 L4.672,14.661 C4.377,14.661 4.078,14.615 3.778,14.523 L3.454,14.424 L3.344,14.743 C3.254,15.006 3.117,15.231 2.936,15.412 C2.609,15.739 2.174,15.919 1.711,15.919 L1.711,15.919 Z" class="si-glyph-fill"></path>
            <path d="M12.547,6.027 L12.742,5.832 C12.982,5.595 13.171,5.172 13.223,4.754 C13.294,4.192 13.124,3.676 12.744,3.297 C12.411,2.963 11.967,2.787 11.465,2.787 C10.963,2.787 10.422,2.976 10.15,3.25 L6.485,6.895 L5.555,5.97 L9.631,1.915 C10.059,1.491 10.635,1.267 11.296,1.267 C11.598,1.267 11.905,1.315 12.211,1.409 L12.539,1.51 L12.646,1.187 C12.734,0.921 12.873,0.694 13.058,0.509 C13.386,0.183 13.822,0.003 14.285,0.003 C14.742,0.003 15.174,0.18 15.496,0.501 C15.82,0.823 15.998,1.254 15.997,1.712 C15.996,2.171 15.814,2.602 15.488,2.927 C15.305,3.109 15.079,3.246 14.814,3.334 L14.49,3.442 L14.592,3.769 C14.907,4.76 14.717,5.725 14.09,6.351 L13.481,6.956 L12.547,6.027 L12.547,6.027 Z" class="si-glyph-fill"></path>
            <path d="M1.93,6.23 C1.323,5.625 1.115,4.709 1.376,3.778 L1.463,3.465 L1.155,3.357 C0.908,3.268 0.693,3.135 0.521,2.962 C0.197,2.641 0.017,2.213 0.017,1.758 C0.017,1.297 0.199,0.863 0.529,0.537 C0.857,0.211 1.291,0.03 1.754,0.03 C2.213,0.03 2.644,0.207 2.967,0.529 C3.141,0.702 3.272,0.912 3.36,1.155 L3.471,1.465 L3.787,1.374 C4.07,1.291 4.356,1.248 4.637,1.248 C5.292,1.248 5.864,1.472 6.289,1.894 L6.978,2.582 L6.075,3.482 L5.694,3.101 C5.533,2.942 5.094,2.571 4.472,2.571 C4.005,2.571 3.561,2.779 3.15,3.189 C2.545,3.791 2.498,4.358 2.566,4.727 C2.646,5.158 2.9,5.485 3.099,5.683 L6.902,9.466 L6.042,10.32 L1.93,6.23 L1.93,6.23 Z" class="si-glyph-fill"></path>
            <path d="M14.248,15.913 C13.789,15.913 13.359,15.735 13.035,15.415 C12.846,15.227 12.707,14.991 12.621,14.717 L12.519,14.392 L12.191,14.486 C11.923,14.56 11.655,14.599 11.39,14.599 C10.73,14.599 10.124,14.358 9.685,13.921 L9.105,13.342 L9.962,12.49 L10.178,12.706 C10.427,12.953 10.938,13.118 11.447,13.118 C11.941,13.118 12.375,12.96 12.664,12.671 C12.969,12.368 13.137,11.906 13.137,11.369 C13.137,10.86 12.985,10.381 12.748,10.148 L9.081,6.498 L9.982,5.601 L14.017,9.614 C14.634,10.229 14.833,11.174 14.547,12.137 L14.45,12.467 L14.78,12.57 C15.055,12.655 15.291,12.795 15.481,12.983 C15.804,13.303 15.983,13.731 15.983,14.187 C15.983,14.648 15.799,15.081 15.472,15.408 C15.146,15.733 14.71,15.913 14.248,15.913 L14.248,15.913 L14.248,15.913 Z" class="si-glyph-fill"></path>
        </g>
    </g>
</svg>