
<svg viewBox="0 0 16 16" version="1.1" xmlns="http://www.w3.org/2000/svg" xmlns:xlink="http://www.w3.org/1999/xlink" class="si-glyph si-glyph-cock-pot"><title>743</title><defs></defs><g stroke="none" stroke-width="1" fill="none" fill-rule="evenodd"><g transform="translate(0.000000, 4.000000)" fill="#434343"><g class="si-glyph-fill"><path d="M8.127,7.941 L1.883,7.941 C0.529,7.941 0.016,3.004 0.016,3.004 L9.995,3.004 C9.995,3.005 9.727,7.941 8.127,7.941 L8.127,7.941 Z" class="si-glyph-fill"></path><path d="M15.984,3.486 C15.984,3.738 15.708,3.942 15.369,3.942 L8.807,3.942 C8.467,3.942 8.193,3.738 8.193,3.486 L8.193,3.486 C8.193,3.234 8.467,3.029 8.807,3.029 L15.369,3.029 C15.708,3.029 15.984,3.234 15.984,3.486 L15.984,3.486 L15.984,3.486 Z" class="si-glyph-fill"></path><rect x="4" y="0" width="1.922" height="1.297" class="si-glyph-fill"></rect></g><rect x="0" y="1" width="9.906" height="0.969" class="si-glyph-fill"></rect></g></g></svg>