<!--?xml version="1.0" encoding="UTF-8" standalone="no"?-->
<svg viewBox="0 0 17 17" version="1.1" xmlns="http://www.w3.org/2000/svg" xmlns:xlink="http://www.w3.org/1999/xlink" class="si-glyph si-glyph-bookmark">
    <!-- Generator: Sketch 3.0.3 (7891) - http://www.bohemiancoding.com/sketch -->
    <title>132</title>
    
    <defs></defs>
    <g stroke="none" stroke-width="1" fill="none" fill-rule="evenodd">
        <path d="M12.6770458,0 L3.3259431,0 C2.59354904,0 2.002,0.604724409 2.002,1.35256693 L2.002,14.6474331 C2.002,15.3952756 2.59455508,16 3.3259431,16 L8.00199745,11.9866457 L12.6760397,16 C13.4084338,16 14.0019949,15.3952756 14.0019949,14.6474331 L14.0019949,1.35256693 C14.004007,0.603716535 13.4094398,0 12.6770458,0 L12.6770458,0 Z M10.4815694,10 L8.01,8.63310123 L5.53843063,10 L6.01050543,7.10444563 L4.01,5.05516872 L6.77370988,4.63310123 L8.01,2 L9.24629012,4.63310123 L12.01,5.05516872 L10.0094946,7.10444563 L10.4815694,10 L10.4815694,10 Z" fill="#434343" class="si-glyph-fill"></path>
    </g>
</svg>