
<svg viewBox="0 0 17 16" version="1.1" xmlns="http://www.w3.org/2000/svg" xmlns:xlink="http://www.w3.org/1999/xlink" class="si-glyph si-glyph-bus"><title>817</title><defs></defs><g stroke="none" stroke-width="1" fill="none" fill-rule="evenodd"><g transform="translate(1.000000, 3.000000)" fill="#434343"><ellipse cx="3.492" cy="8.48" rx="1.492" ry="1.48" class="si-glyph-fill"></ellipse><circle cx="12.485" cy="8.485" r="1.485" class="si-glyph-fill"></circle><path d="M14.078,0.024 L6.168,0.024 C4.064,0.024 3.031,0.524 3.031,3.015 C3.031,3.015 2.143,4.008 1.445,4.008 C0.747,4.008 0,4.451 0,4.993 L0,8.124 C0,8.532 0.219,8.852 0.918,8.943 C0.889,8.786 0.869,8.624 0.869,8.458 C0.869,7.02 2.051,5.853 3.506,5.853 C4.961,5.853 6.143,7.02 6.143,8.458 C6.143,8.634 6.124,8.804 6.09,8.97 L9.912,8.972 C9.884,8.817 9.864,8.659 9.864,8.495 C9.864,7.037 11.047,5.852 12.506,5.852 C13.965,5.852 15.147,7.037 15.147,8.495 C15.147,8.659 15.127,8.817 15.098,8.973 L15.985,8.973 L15.985,3.009 C15.984,1.146 15.314,0.024 14.078,0.024 L14.078,0.024 Z M7.016,3.031 L3.918,3.031 C3.918,0.808 4.865,0.981 5.211,0.981 L7.023,0.967 L7.016,3.031 L7.016,3.031 Z M12.043,3.021 L7.969,3.021 L7.969,0.978 L12.043,0.978 L12.043,3.021 L12.043,3.021 Z M12.974,3.021 L12.974,0.978 L14.409,0.978 C15.101,0.978 15.079,3.021 15.079,3.021 L12.974,3.021 L12.974,3.021 Z" class="si-glyph-fill"></path></g></g></svg>