
<svg viewBox="0 0 17 16" version="1.1" xmlns="http://www.w3.org/2000/svg" xmlns:xlink="http://www.w3.org/1999/xlink" class="si-glyph si-glyph-sign-board"><title>736</title><defs></defs><g stroke="none" stroke-width="1" fill="none" fill-rule="evenodd"><g transform="translate(1.000000, 0.000000)" fill="#434343"><path d="M3.958,14.828 C3.958,15.475 3.53,16 3,16 L3,16 C2.471,16 2.042,15.476 2.042,14.828 L2.042,1.256 C2.042,0.61 2.471,0.085 3,0.085 L3,0.085 C3.53,0.085 3.958,0.609 3.958,1.256 L3.958,14.828 L3.958,14.828 Z" class="si-glyph-fill"></path><path d="M14.691,2.042 C15.379,2.042 15.937,2.48 15.937,3.021 L15.937,3.021 C15.937,3.562 15.379,4 14.691,4 L1.246,4 C0.558,4 0,3.562 0,3.021 L0,3.021 C0,2.48 0.558,2.042 1.246,2.042 L14.691,2.042 L14.691,2.042 Z" class="si-glyph-fill"></path><path d="M12.993,6.044 L6.965,6.044 C5.839,6.044 5.041,5.953 5.041,7.08 L5.041,11.945 C5.041,13.072 5.954,12.98 7.08,12.98 L12.898,12.98 C14.024,12.98 14.937,13.072 14.937,11.945 L14.937,7.08 C14.938,5.953 14.119,6.044 12.993,6.044 L12.993,6.044 Z" class="si-glyph-fill"></path><g transform="translate(6.000000, 3.000000)"><rect x="0" y="0" width="0.937" height="2.874" class="si-glyph-fill"></rect><rect x="7" y="0" width="0.937" height="2.874" class="si-glyph-fill"></rect></g></g></g></svg>