<!--?xml version="1.0" encoding="UTF-8" standalone="no"?-->
<svg viewBox="0 0 17 16" version="1.1" xmlns="http://www.w3.org/2000/svg" xmlns:xlink="http://www.w3.org/1999/xlink" class="si-glyph si-glyph-align-right">
    <!-- Generator: Sketch 3.0.3 (7891) - http://www.bohemiancoding.com/sketch -->
    <title>1130</title>
    
    <defs></defs>
    <g stroke="none" stroke-width="1" fill="none" fill-rule="evenodd">
        <g transform="translate(1.000000, 1.000000)" fill="#434343">
            <path d="M16,0.938 C16,1.456 15.58,1.876 15.062,1.876 L0.98,1.876 C0.462,1.876 0.042,1.456 0.042,0.938 L0.042,0.938 C0.042,0.42 0.462,0 0.98,0 L15.062,0 C15.58,0 16,0.42 16,0.938 L16,0.938 L16,0.938 Z" class="si-glyph-fill"></path>
            <path d="M16,12.938 C16,13.456 15.58,13.876 15.062,13.876 L0.98,13.876 C0.462,13.876 0.042,13.456 0.042,12.938 L0.042,12.938 C0.042,12.42 0.462,12 0.98,12 L15.062,12 C15.58,12 16,12.42 16,12.938 L16,12.938 L16,12.938 Z" class="si-glyph-fill"></path>
            <path d="M16,6.938 C16,7.456 15.58,7.876 15.062,7.876 L4.98,7.876 C4.462,7.876 4.042,7.456 4.042,6.938 L4.042,6.938 C4.042,6.42 4.462,6 4.98,6 L15.062,6 C15.58,6 16,6.42 16,6.938 L16,6.938 L16,6.938 Z" class="si-glyph-fill"></path>
            <path d="M16,9.938 C16,10.456 15.58,10.876 15.062,10.876 L6.98,10.876 C6.462,10.876 6.042,10.456 6.042,9.938 L6.042,9.938 C6.042,9.42 6.462,9 6.98,9 L15.062,9 C15.58,9 16,9.42 16,9.938 L16,9.938 L16,9.938 Z" class="si-glyph-fill"></path>
            <path d="M16,3.938 C16,4.456 15.58,4.876 15.062,4.876 L8.98,4.876 C8.462,4.876 8.042,4.456 8.042,3.938 L8.042,3.938 C8.042,3.42 8.462,3 8.98,3 L15.062,3 C15.58,3 16,3.42 16,3.938 L16,3.938 L16,3.938 Z" class="si-glyph-fill"></path>
        </g>
    </g>
</svg>
