
<svg viewBox="0 0 16 16" version="1.1" xmlns="http://www.w3.org/2000/svg" xmlns:xlink="http://www.w3.org/1999/xlink" class="si-glyph si-glyph-birthday-cake"><title>92</title><defs></defs><g stroke="none" stroke-width="1" fill="none" fill-rule="evenodd"><g fill="#434343"><path d="M2.002,13.062 L2.002,14.169 C2.002,15.474 1.895,15.944 3.484,15.944 L12.394,15.944 C13.982,15.944 13.874,15.473 13.874,14.169 L13.874,13.062 L2.002,13.062 L2.002,13.062 Z" class="si-glyph-fill"></path><rect x="4" y="3" width="0.935" height="3.072" class="si-glyph-fill"></rect><rect x="7" y="3" width="1" height="2.969" class="si-glyph-fill"></rect><rect x="11" y="3" width="0.99" height="2.851" class="si-glyph-fill"></rect><path d="M4.965,0.975 C5.065,1.381 4.907,1.848 4.528,1.89 C4.174,1.93 3.903,1.473 4.175,1.02 C4.454,0.56 4.528,0.06 4.528,0.06 C4.528,0.06 4.848,0.487 4.965,0.975 L4.965,0.975 Z" class="si-glyph-fill"></path><path d="M7.938,1.021 C8.043,1.447 7.877,1.939 7.469,1.983 C7.088,2.025 6.797,1.544 7.091,1.069 C7.391,0.584 7.469,0.059 7.469,0.059 C7.469,0.059 7.811,0.509 7.938,1.021 L7.938,1.021 Z" class="si-glyph-fill"></path><path d="M11.974,1.023 C12.086,1.449 11.908,1.939 11.476,1.983 C11.072,2.025 10.762,1.545 11.075,1.07 C11.394,0.587 11.476,0.062 11.476,0.062 C11.476,0.062 11.839,0.512 11.974,1.023 L11.974,1.023 Z" class="si-glyph-fill"></path><g transform="translate(2.000000, 6.000000)"><path d="M1.146,2.437 C1.561,2.437 2.162,2.043 2.339,1.905 C2.344,1.899 3.066,1.221 3.941,1.221 C4.812,1.221 5.564,1.893 5.595,1.922 C5.757,2.062 6.293,2.437 6.769,2.437 C7.331,2.437 7.877,1.932 7.877,1.932 C7.917,1.894 8.664,1.221 9.565,1.221 C10.47,1.221 11.191,1.899 11.221,1.928 C11.382,2.066 11.685,2.269 11.958,2.37 C11.927,1.069 11.329,0.03 9.782,0.03 L2.259,0.03 C0.868,0.03 0.241,0.867 0.105,1.979 C0.33,2.146 0.793,2.437 1.146,2.437 L1.146,2.437 Z" class="si-glyph-fill"></path><path d="M10.717,3.469 C10.699,3.453 10.16,2.95 9.566,2.95 C8.967,2.95 8.401,3.457 8.394,3.463 C8.368,3.486 7.643,4.163 6.77,4.163 C5.905,4.163 5.129,3.496 5.096,3.467 C4.933,3.321 4.414,2.95 3.942,2.95 C3.38,2.95 2.838,3.453 2.831,3.457 C2.716,3.549 1.899,4.163 1.147,4.163 C0.761,4.163 0.375,4.004 0.077,3.838 L0.077,5.945 L11.966,5.945 L11.966,4.131 C11.355,4.004 10.789,3.53 10.717,3.469 L10.717,3.469 Z" class="si-glyph-fill"></path></g><rect x="0" y="14" width="15.851" height="1.935" class="si-glyph-fill"></rect></g></g></svg>