
<svg viewBox="0 0 17 16" version="1.1" xmlns="http://www.w3.org/2000/svg" xmlns:xlink="http://www.w3.org/1999/xlink" class="si-glyph si-glyph-strolley-arrow-up"><title>1097</title><defs></defs><g stroke="none" stroke-width="1" fill="none" fill-rule="evenodd"><g transform="translate(1.000000, 0.000000)" fill="#434343"><g><ellipse cx="4.438" cy="14.459" rx="1.438" ry="1.459" class="si-glyph-fill"></ellipse><ellipse cx="12.457" cy="14.419" rx="1.457" ry="1.419" class="si-glyph-fill"></ellipse><path d="M15,10.016 L3.953,10.016 L3.953,3.778 L1.781,0.41 C1.457,-0.034 0.836,-0.132 0.392,0.191 C-0.051,0.515 -0.149,1.138 0.174,1.584 L2.023,4.485 L2.023,10.016 L1.968,10.016 C1.415,10.016 0.968,10.456 0.968,11 C0.968,11.543 1.415,11.984 1.968,11.984 L15,11.984 C15.553,11.984 16,11.543 16,11 C16,10.456 15.553,10.016 15,10.016 L15,10.016 Z" class="si-glyph-fill"></path></g><path d="M12.768,3.757 L10.579,1.244 C10.264,0.93 9.753,0.93 9.436,1.244 L7.247,3.757 C6.933,4.072 6.884,4.633 7.198,4.947 L9,4.947 L9,6.869 C9,7.428 9.434,7.879 9.969,7.879 C10.504,7.879 10.938,7.428 10.938,6.869 L10.938,4.947 L12.719,4.947 C13.034,4.632 13.083,4.072 12.768,3.757 L12.768,3.757 Z" class="si-glyph-fill"></path></g></g></svg>