
<svg viewBox="0 0 17 16" version="1.1" xmlns="http://www.w3.org/2000/svg" xmlns:xlink="http://www.w3.org/1999/xlink" class="si-glyph si-glyph-money-bag"><title>718</title><defs></defs><g stroke="none" stroke-width="1" fill="none" fill-rule="evenodd"><g transform="translate(3.000000, 0.000000)" fill="#434343"><rect x="6" y="11" width="0.922" height="1.959" class="si-glyph-fill"></rect><rect x="4" y="8" width="0.938" height="1.974" class="si-glyph-fill"></rect><path d="M6.296,4.779 C7.154,3.779 7.766,1.522 7.766,0.705 C7.766,-1.021 6.737,1.145 5.468,1.145 C4.197,1.145 3.17,-1.043 3.17,0.705 C3.17,1.536 3.799,3.853 4.682,4.828 C2.074,5.568 0.018,9.322 0.018,12.622 C0.018,15.54 2.473,15.986 5.5,15.986 C8.527,15.986 10.981,15.5 10.981,12.622 C10.981,9.616 8.977,5.421 6.296,4.779 L6.296,4.779 Z M8.031,13.047 L7.031,13.047 L7.031,14.031 L6.031,14.031 L6.031,15.062 L4.969,15.062 L4.969,14.031 L3.969,14.031 L3.969,13.047 L3.982,13.031 L2.969,13.031 L2.969,11.969 L4.016,11.969 L4.016,12.989 L4.032,12.969 L4.97,12.969 L4.97,11.031 L4,11.031 L4,10.047 L2.953,10.047 L2.953,7.985 L4,7.985 L4,6.969 L4.969,6.969 L4.969,5.938 L6.031,5.938 L6.031,6.969 L7.031,6.969 L7.031,7.969 L8.015,7.969 L8.015,9.031 L6.968,9.031 L6.968,8.01 L6.952,8.016 L6.03,8.016 L6.03,9.969 L7.046,9.969 L7.046,10.985 L8.03,10.985 L8.03,13.047 L8.031,13.047 Z" class="si-glyph-fill"></path></g></g></svg>