<!--?xml version="1.0" encoding="UTF-8" standalone="no"?-->
<svg viewBox="0 0 17 16" version="1.1" xmlns="http://www.w3.org/2000/svg" xmlns:xlink="http://www.w3.org/1999/xlink" class="si-glyph si-glyph-bikini">
    <!-- Generator: Sketch 3.0.3 (7891) - http://www.bohemiancoding.com/sketch -->
    <title>696</title>
    
    <defs></defs>
    <g stroke="none" stroke-width="1" fill="none" fill-rule="evenodd">
        <g transform="translate(4.000000, 0.000000)" fill="#434343">
            <path d="M8.942,10.074 C6,10.074 2,10.07 0.138,10.07 C-0.216,10.07 0.108,10.537 0.242,10.573 C1.887,11.013 3.269,12.92 3.976,15.543 C4.124,16.094 4.947,16.135 5.09,15.596 C5.792,12.953 7.047,11.213 8.82,10.578 C9.012,10.508 9.296,10.074 8.942,10.074 L8.942,10.074 Z" class="si-glyph-fill"></path>
            <path d="M8.084,3.632 C7.606,2.184 6.565,0.083 4.528,0.083 C2.476,0.083 1.433,2.215 0.962,3.664 C0.427,4.236 0.054,5.728 0.054,6.652 C0.054,8.82 2.747,7.69 3.574,6.753 C3.895,6.832 4.229,6.875 4.569,6.875 C4.885,6.875 5.193,6.838 5.491,6.77 C6.335,7.696 8.993,8.781 8.993,6.653 C8.992,5.708 8.629,4.177 8.084,3.632 L8.084,3.632 Z M3.861,5.926 C3.811,4.991 2.647,3.832 1.893,3.457 C2.324,2.281 3.132,0.833 4.528,0.833 C5.924,0.833 6.734,2.291 7.166,3.469 C6.4,3.863 5.222,5.021 5.186,5.944 C4.985,5.982 4.778,6.007 4.567,6.007 C4.326,6.007 4.09,5.977 3.861,5.926 L3.861,5.926 Z" class="si-glyph-fill"></path>
        </g>
    </g>
</svg>