<!--?xml version="1.0" encoding="UTF-8" standalone="no"?-->
<svg viewBox="0 0 17 16" version="1.1" xmlns="http://www.w3.org/2000/svg" xmlns:xlink="http://www.w3.org/1999/xlink" class="si-glyph si-glyph-bubble-message-quote">
    <!-- Generator: Sketch 3.0.3 (7891) - http://www.bohemiancoding.com/sketch -->
    <title>1152</title>
    
    <defs></defs>
    <g stroke="none" stroke-width="1" fill="none" fill-rule="evenodd">
        <path d="M8.009,0.042 C3.615,0.042 0.052,2.826 0.052,6.263 C0.052,9.399 3.024,11.985 6.884,12.414 L4.768,15.984 L10.951,12.039 C13.888,11.125 15.969,8.885 15.969,6.263 C15.968,2.826 12.403,0.042 8.009,0.042 L8.009,0.042 Z M7.051,7 C7.051,8.333 5.396,9.062 3.967,9.062 L3.967,7.945 C4.688,7.945 5.708,7.591 5.708,7 L3.967,7 L3.967,3.989 L7.051,3.989 L7.051,7 L7.051,7 Z M12.051,7 C12.051,8.333 10.396,9.062 8.967,9.062 L8.967,7.945 C9.688,7.945 10.708,7.591 10.708,7 L8.967,7 L8.967,3.989 L12.051,3.989 L12.051,7 L12.051,7 Z" fill="#434343" class="si-glyph-fill"></path>
    </g>
</svg>