<!--?xml version="1.0" encoding="UTF-8" standalone="no"?-->
<svg viewBox="0 0 16 16" version="1.1" xmlns="http://www.w3.org/2000/svg" xmlns:xlink="http://www.w3.org/1999/xlink" class="si-glyph si-glyph-clip">
    <!-- Generator: Sketch 3.0.3 (7891) - http://www.bohemiancoding.com/sketch -->
    <title>614</title>
    
    <defs></defs>
    <g stroke="none" stroke-width="1" fill="none" fill-rule="evenodd">
        <g fill="#434343">
            <path d="M11.031,15.991 L11.984,15.991 C11.48,14.199 9.792,6.084 9.765,5.937 C9.779,5.488 9.773,4.657 10.068,4.363 C10.386,4.049 10.968,3.572 10.968,2.706 C10.968,1.896 10.579,0.016 7.952,0.016 C5.321,0.016 5.038,1.897 5.038,2.706 C5.038,3.402 5.278,3.908 5.839,4.393 C6.287,4.834 6.21,5.184 6.21,5.907 C6.21,6.226 4.552,14.207 3.999,15.992 L4.952,15.992 C5.376,14.588 6.936,6.328 6.936,5.907 C6.936,4.882 6.829,4.346 6.319,3.845 C5.917,3.496 5.952,3.188 5.952,2.706 C5.952,1.403 6.499,0.937 7.952,0.937 C9.4,0.937 10.03,1.403 10.03,2.706 C10.03,3.229 9.895,3.51 9.553,3.849 C9.141,4.26 9.059,5.25 9.035,5.911 C9.033,6.041 10.645,14.578 11.031,15.991 L11.031,15.991 Z" class="si-glyph-fill"></path>
            <path d="M7.746,9.023 C7.197,11.413 6.334,14.642 5.971,15.988 L9.985,15.988 C9.655,14.634 8.758,11.376 8.21,9.023 L7.746,9.023 L7.746,9.023 Z" class="si-glyph-fill"></path>
            <path d="M12.008,9.008 C12.502,11.211 13.336,14.271 13.727,15.988 L15.959,15.988 L15.959,9.023 L12.008,9.008 L12.008,9.008 Z" class="si-glyph-fill"></path>
            <path d="M0.008,9.037 L0.008,15.962 L2.235,15.962 C2.673,14.261 3.44,11.248 3.951,9.037 L0.008,9.037 L0.008,9.037 Z" class="si-glyph-fill"></path>
        </g>
    </g>
</svg>