<!--?xml version="1.0" encoding="UTF-8" standalone="no"?-->
<svg viewBox="0 0 17 16" version="1.1" xmlns="http://www.w3.org/2000/svg" xmlns:xlink="http://www.w3.org/1999/xlink" class="si-glyph si-glyph-city">
    <!-- Generator: Sketch 3.0.3 (7891) - http://www.bohemiancoding.com/sketch -->
    <title>717</title>
    
    <defs></defs>
    <g stroke="none" stroke-width="1" fill="none" fill-rule="evenodd">
        <g transform="translate(1.000000, 0.000000)" fill="#434343">
            <path d="M0,8 L0,16 L3,16 L3,8 L0,8 L0,8 Z M2,15 L0.979,15 L0.979,12.979 L2,12.979 L2,15 L2,15 Z M2.021,12 L0.98,12 L0.98,9.979 L2.021,9.979 L2.021,12 L2.021,12 Z" class="si-glyph-fill"></path>
            <path d="M9,5 L9,3 L8,3 L8,0 L7,0 L7,3 L6,3 L6,5 L4,5 L4,16 L11,16 L11,5 L9,5 L9,5 Z M6,15 L5,15 L5,13 L6,13 L6,15 L6,15 Z M6,12.042 L5,12.042 L5,10 L6,10 L6,12.042 L6,12.042 Z M6,9.042 L5,9.042 L5,7 L6,7 L6,9.042 L6,9.042 Z M8,15 L7,15 L7,13 L8,13 L8,15 L8,15 Z M8,12.042 L7,12.042 L7,10 L8,10 L8,12.042 L8,12.042 Z M8,9.042 L7,9.042 L7,7 L8,7 L8,9.042 L8,9.042 Z M10,15 L9,15 L9,13 L10,13 L10,15 L10,15 Z M10,12.042 L9,12.042 L9,10 L10,10 L10,12.042 L10,12.042 Z M10,9.042 L9,9.042 L9,7 L10,7 L10,9.042 L10,9.042 Z" class="si-glyph-fill"></path>
            <path d="M12,7 L12,16 L16,16 L16,11 L12,7 L12,7 Z M14.031,15.062 L13,15.062 L13,13.968 L14.031,13.968 L14.031,15.062 L14.031,15.062 Z M14.031,13.062 L13,13.062 L13,11.968 L14.031,11.968 L14.031,13.062 L14.031,13.062 Z M14.031,11.062 L13,11.062 L13,9.968 L14.031,9.968 L14.031,11.062 L14.031,11.062 Z" class="si-glyph-fill"></path>
        </g>
    </g>
</svg>