
<svg viewBox="0 0 17 16" version="1.1" xmlns="http://www.w3.org/2000/svg" xmlns:xlink="http://www.w3.org/1999/xlink" class="si-glyph si-glyph-electron"><title>798</title><defs></defs><g stroke="none" stroke-width="1" fill="none" fill-rule="evenodd"><g transform="translate(1.000000, 0.000000)" fill="#434343"><ellipse cx="7.956" cy="7.964" rx="1.956" ry="1.964" class="si-glyph-fill"></ellipse><path d="M11.977,15.997 C9.557,15.997 6.516,14.453 4.039,11.967 C0.177,8.09 -1.113,3.311 1.103,1.086 C1.808,0.377 2.812,0.002 4.001,0.002 C6.422,0.002 9.463,1.547 11.94,4.034 C15.801,7.91 17.09,12.689 14.876,14.914 C14.171,15.623 13.168,15.997 11.977,15.997 L11.977,15.997 Z M4.002,1.342 C3.161,1.342 2.502,1.574 2.046,2.033 C0.416,3.669 1.761,7.785 4.982,11.019 C7.217,13.263 9.898,14.658 11.977,14.658 C12.819,14.658 13.477,14.426 13.934,13.967 C15.565,12.33 14.219,8.215 10.998,4.981 C8.763,2.736 6.082,1.342 4.002,1.342 L4.002,1.342 Z" class="si-glyph-fill"></path><path d="M4.002,15.997 C2.813,15.997 1.809,15.623 1.104,14.914 C-1.113,12.689 0.177,7.91 4.04,4.033 C6.517,1.547 9.558,0.002 11.978,0.002 C13.169,0.002 14.171,0.377 14.878,1.086 C17.092,3.309 15.802,8.089 11.942,11.967 C9.464,14.453 6.422,15.997 4.002,15.997 L4.002,15.997 Z M11.977,1.341 C9.898,1.341 7.217,2.736 4.982,4.98 C1.761,8.215 0.417,12.331 2.046,13.967 C2.502,14.425 3.161,14.658 4.002,14.658 C6.082,14.658 8.762,13.263 10.998,11.019 C14.219,7.784 15.562,3.667 13.933,2.032 C13.476,1.574 12.818,1.341 11.977,1.341 L11.977,1.341 Z" class="si-glyph-fill"></path></g></g></svg>