<!--?xml version="1.0" encoding="UTF-8" standalone="no"?-->
<svg viewBox="0 0 17 17" version="1.1" xmlns="http://www.w3.org/2000/svg" xmlns:xlink="http://www.w3.org/1999/xlink" class="si-glyph si-glyph-euro">
    <!-- Generator: Sketch 3.0.3 (7891) - http://www.bohemiancoding.com/sketch -->
    <title>1012</title>
    
    <defs></defs>
    <g stroke="none" stroke-width="1" fill="none" fill-rule="evenodd">
        <path d="M13.629,13.113 C12.602,13.513 11.479,13.616 10.377,13.41 C8.767,13.108 7.437,12.188 6.598,10.96 L10.321,10.96 L10.988,9.008 L5.757,9.008 C5.615,8.342 5.594,7.644 5.725,6.941 L10.303,6.941 L10.968,5.016 L6.501,5.016 C7.708,3.169 10.017,2.131 12.403,2.578 L12.855,0.172 C8.872,-0.575 5.034,1.541 3.634,5.017 L1.682,5.017 L1.016,6.942 L3.144,6.942 C3.058,7.642 3.067,8.336 3.169,9.009 L1.697,9.009 L1.029,10.961 L3.734,10.961 C4.793,13.381 7.051,15.28 9.922,15.817 C11.514,16.115 13.14,15.967 14.622,15.387 L13.629,13.113 L13.629,13.113 Z" fill="#434343" class="si-glyph-fill"></path>
    </g>
</svg>