
<svg viewBox="0 0 17 16" version="1.1" xmlns="http://www.w3.org/2000/svg" xmlns:xlink="http://www.w3.org/1999/xlink" class="si-glyph si-glyph-typewriter"><title>1053</title><defs></defs><g stroke="none" stroke-width="1" fill="none" fill-rule="evenodd"><g transform="translate(1.000000, 1.000000)" fill="#434343"><rect x="6" y="9" width="0.938" height="0.953" class="si-glyph-fill"></rect><rect x="8" y="9" width="0.938" height="0.953" class="si-glyph-fill"></rect><rect x="10" y="9" width="0.938" height="0.953" class="si-glyph-fill"></rect><path d="M1.062,13.98 C1.062,14.542 1.512,15 2.068,15 L14.931,15 C15.487,15 15.937,14.543 15.937,13.98 L13.999,7.959 L13.999,5 L12.023,5 C12.023,5.011 12.028,5.021 12.028,5.031 C12.028,6.029 10.494,5.849 8.957,6 L7.981,6 C6.453,5.85 4.956,6.029 4.956,5.031 C4.956,5.02 4.961,5.01 4.961,5 L3.021,5 L3.021,7 L0.032,7 L0,7 L0,9.938 L1,9.938 L1,8 L3.009,8 L1.062,13.98 L1.062,13.98 Z M3.969,9.969 L4.969,9.969 L4.969,9.016 L3.969,9.016 L3.985,7.969 L5.032,7.969 L5.032,8.969 L5.97,8.969 L5.97,7.969 L7.032,7.969 L7.032,8.969 L7.97,8.969 L7.97,7.969 L9.032,7.969 L9.032,8.969 L9.97,8.969 L9.97,7.969 L11.032,7.969 L11.032,8.969 L11.97,8.969 L11.97,7.969 L13.032,7.969 L13.032,9.016 L12.032,9.016 L12.032,9.969 L13.032,9.969 L13.032,11.016 L11.985,11.016 L11.985,10.016 L11.029,10.016 L11.029,11.016 L9.978,11.016 L9.978,10.016 L9.969,10.016 L9.955,10.016 L9.029,10.016 L9.02,10.016 L9.013,10.016 L9.013,10.969 L9.02,10.969 L9.02,11.016 L7.979,11.016 L7.979,10.016 L7.007,10.016 L7.007,11.016 L5.971,11.016 L5.971,10.016 L5,10.016 L5,11.016 L3.969,11.016 L3.969,9.969 L3.969,9.969 Z M3.979,12 L13.02,12 L13.02,13 L3.979,13 L3.979,12 L3.979,12 Z" class="si-glyph-fill"></path><path d="M15.021,2 L15.021,3.049 L13.94,3.049 L13.938,0.022 L3.025,0.063 L3.025,3.049 L1.96,3.049 L1.96,2 L1.022,2 L1.022,5 L1.96,5 L1.96,3.951 L15.022,3.951 L15.022,5 L15.992,5 L15.992,2 L15.021,2 L15.021,2 Z" class="si-glyph-fill"></path></g></g></svg>