<!--?xml version="1.0" encoding="UTF-8" standalone="no"?-->
<svg viewBox="0 0 17 16" version="1.1" xmlns="http://www.w3.org/2000/svg" xmlns:xlink="http://www.w3.org/1999/xlink" class="si-glyph si-glyph-briefcase">
    <!-- Generator: Sketch 3.0.3 (7891) - http://www.bohemiancoding.com/sketch -->
    <title>1108</title>
    
    <defs></defs>
    <g stroke="none" stroke-width="1" fill="none" fill-rule="evenodd">
        <g transform="translate(1.000000, 1.000000)" fill="#434343">
            <path d="M5.959,2.079 C5.959,1.46 6.441,0.955 7.031,0.955 L8.869,0.955 C9.459,0.955 10.053,1.46 10.053,2.079 L10.053,2.021 L10.972,2.021 L10.972,1.547 C10.972,0.687 10.494,-0.000999999989 9.514,-0.000999999989 L6.385,-0.000999999989 C5.731,-0.000999999989 5.023,0.729 5.023,1.547 L5.023,2.021 L5.96,2.021 L5.96,2.079 L5.959,2.079 Z" class="si-glyph-fill"></path>
            <path d="M10.0008546,4.96899991 L10.0008546,5.98099991 L16,5.981 L16,2.016 L-0.0151367204,2.016 L-0.0151367204,5.981 L5.98822031,5.98099991 L5.98822031,4.96899991 L10.0008546,4.96899991 Z" class="si-glyph-fill"></path>
            <path d="M6.00073251,7.9979248 L6.0007326,7.00299074 L0.0210000915,7.00299072 L0.0209999999,15 L16,15 L16.0000001,7.00299072 L10.0133669,7.00299074 L10.0133668,7.9979248 L6.00073251,7.9979248 Z" class="si-glyph-fill"></path>
            <path d="M7,6 L7,6.96685791 L8.98907471,6.96685787 L8.98907471,5.99999996 L7,6 Z" class="si-glyph-fill"></path>
        </g>
    </g>
</svg>