<!--?xml version="1.0" encoding="UTF-8" standalone="no"?-->
<svg viewBox="0 0 16 16" version="1.1" xmlns="http://www.w3.org/2000/svg" xmlns:xlink="http://www.w3.org/1999/xlink" class="si-glyph si-glyph-heart-delete">
    <!-- Generator: Sketch 3.0.3 (7891) - http://www.bohemiancoding.com/sketch -->
    <title>155</title>
    
    <defs></defs>
    <g stroke="none" stroke-width="1" fill="none" fill-rule="evenodd">
        <g transform="translate(0.000000, 1.000000)" fill="#434343">
            <path d="M11.19,13.2 L12.892,11.5 L11.189,9.801 L11.82,9.169 L13.521,10.87 L15.221,9.17 L15.852,9.801 L14.152,11.5 L15.852,13.2 L15.221,13.831 L13.521,12.131 L11.822,13.831 L11.19,13.2 Z" class="si-glyph-fill"></path>
            <path d="M9.633,9.802 L11.821,7.613 L13.522,9.315 L15.058,7.778 C15.609,6.684 15.969,5.452 15.969,4.062 C15.969,1.833 14.174,0.031 11.958,0.031 C10.045,0.031 8.447,1.379 8.047,3.179 C7.631,1.376 6.026,0.031 4.102,0.031 C1.865,0.031 0.052,1.855 0.052,4.103 C0.052,10.599 8.057,13.941 8.057,13.941 C8.057,13.941 8.786,13.637 9.797,13.039 L11.336,11.501 L9.633,9.802 L9.633,9.802 Z" class="si-glyph-fill"></path>
        </g>
    </g>
</svg>