
<svg viewBox="0 0 17 16" version="1.1" xmlns="http://www.w3.org/2000/svg" xmlns:xlink="http://www.w3.org/1999/xlink" class="si-glyph si-glyph-upwards-arrow-with-loop"><title>1104</title><defs></defs><g stroke="none" stroke-width="1" fill="none" fill-rule="evenodd"><g transform="translate(1.000000, 0.000000)" fill="#434343"><rect x="0" y="7" width="2.941" height="1.943" class="si-glyph-fill"></rect><path d="M13.02,7.049 L7.017,7.049 L7.017,8.958 L13.069,8.958 C13.614,8.958 14.057,9.398 14.057,9.937 L14.057,13.066 C14.057,13.605 13.614,14.045 13.069,14.045 L6.958,14.045 C6.413,14.045 5.97,13.605 5.97,13.066 L5.97,3.968 L7.72,3.968 C8.112,3.575 8.112,3.33 7.72,2.939 L5.708,0.291 C5.315,-0.102 4.681,-0.102 4.288,0.291 L2.298,2.939 C1.906,3.331 1.906,3.577 2.298,3.968 L4.027,3.968 L4.027,13.021 C4.027,14.657 5.364,15.988 7.007,15.988 L13.021,15.988 C14.665,15.988 16.001,14.657 16.001,13.021 L16.001,10.015 C16,8.381 14.663,7.049 13.02,7.049 L13.02,7.049 Z" class="si-glyph-fill"></path></g></g></svg>