<!--?xml version="1.0" encoding="UTF-8" standalone="no"?-->
<svg viewBox="0 0 17 16" version="1.1" xmlns="http://www.w3.org/2000/svg" xmlns:xlink="http://www.w3.org/1999/xlink" class="si-glyph si-glyph-calculator-2">
    <!-- Generator: Sketch 3.0.3 (7891) - http://www.bohemiancoding.com/sketch -->
    <title>890</title>
    
    <defs></defs>
    <g stroke="none" stroke-width="1" fill="none" fill-rule="evenodd">
        <path d="M13.58,0 L4.322,0 C3.592,0 3,0.598 3,1.334 L3,14.667 C3,15.404 3.592,16 4.322,16 L13.58,16 C14.309,16 15,15.404 15,14.667 L15,1.334 C15,0.598 14.31,0 13.58,0 L13.58,0 Z M7.021,14 L4.987,14 L4.987,13 L7.021,13 L7.021,14 L7.021,14 Z M7.021,8.021 L4.987,8.021 L4.987,7 L7.021,7 L7.021,8.021 L7.021,8.021 Z M10,14 L7.986,14 L7.986,13 L10,13 L10,14 L10,14 Z M7.021,11 L4.987,11 L4.987,10 L7.021,10 L7.021,11 L7.021,11 Z M10,11 L7.986,11 L7.986,10 L10,10 L10,11 L10,11 Z M10,8 L7.986,8 L7.986,7 L10,7 L10,8 L10,8 Z M13,14 L11,14 L11,9.979 L13,9.979 L13,14 L13,14 Z M13,8.02 L10.986,8.02 L10.986,7 L13,7 L13,8.02 L13,8.02 Z M14.014,6 L4,6 L4,2 L14.014,2 L14.014,6 L14.014,6 Z" fill="#434343" class="si-glyph-fill"></path>
    </g>
</svg>