
<svg viewBox="0 0 17 16" version="1.1" xmlns="http://www.w3.org/2000/svg" xmlns:xlink="http://www.w3.org/1999/xlink" class="si-glyph si-glyph-trolley-arrow-up"><title>764</title><defs></defs><g stroke="none" stroke-width="1" fill="none" fill-rule="evenodd"><g transform="translate(0.000000, 1.000000)"><g><path d="M2.17,8.994 L4.043,8.994 L4.043,6.959 L1.861,6.959 L2.17,8.994 Z" class=""></path><rect x="5" y="7" width="2.062" height="2.078"></rect><path d="M4.031,3.971 L1.52,3.971 L1.834,6.037 L4.031,6.037 L4.031,3.971 Z" class=""></path><path d="M11,6.109 L12.746,6.109 L13.078,3.969 L11,3.969 L11,6.109 Z" class=""></path><rect x="8" y="7" width="2.062" height="2.094"></rect><path d="M10.969,9.031 L12.586,9.031 L12.875,6.984 L10.969,6.984 L10.969,9.031 Z" class=""></path><path d="M3.039,12.484 C3.039,13.279 3.682,13.922 4.477,13.922 C5.272,13.922 5.914,13.278 5.914,12.484 C5.914,12.293 5.875,12.11 5.807,11.942 L3.148,11.942 C3.078,12.109 3.039,12.293 3.039,12.484 L3.039,12.484 Z" fill="#434343" class="si-glyph-fill"></path><path d="M9.061,12.5 C9.061,13.321 9.711,13.985 10.514,13.985 C11.317,13.985 11.965,13.321 11.965,12.5 C11.965,12.303 11.926,12.115 11.858,11.943 L9.169,11.943 C9.1,12.115 9.061,12.303 9.061,12.5 L9.061,12.5 Z" fill="#434343" class="si-glyph-fill"></path><path d="M10.514,11.016 C10.413,11.016 10.315,11.027 10.221,11.046 L10.807,11.046 C10.712,11.026 10.614,11.016 10.514,11.016 L10.514,11.016 Z" fill="#434343" class="si-glyph-fill"></path><path d="M10.221,11.046 L2.564,11.046 C2.245,11.046 2.063,11.102 2.063,11.469 C2.063,11.836 2.245,11.943 2.564,11.943 L3.147,11.943 C3.361,11.419 3.875,11.047 4.477,11.047 C5.079,11.047 5.592,11.418 5.806,11.943 L9.168,11.944 C9.349,11.489 9.74,11.146 10.221,11.046 L10.221,11.046 Z" fill="#434343" class="si-glyph-fill"></path><path d="M14.684,0.337 C13.967,0.337 13.387,0.936 13.387,1.675 L13.215,3.018 L10.043,3.018 L10.043,3.969 L10.016,3.969 L10.016,6.016 L7.969,6.016 L7.969,5.042 L7.031,5.042 L7.031,6.047 L4.953,6.047 L4.953,3.953 L4.958,3.953 L4.958,3.017 L0.557,3.017 C0.239,3.017 0.016,3.304 0.016,3.671 C0.016,3.81 0.026,3.941 0.088,4.046 L1.299,9.5 C1.339,9.672 1.467,9.799 1.63,9.869 C1.711,9.918 1.798,9.952 1.895,9.952 L12.36,9.952 L12.186,11.045 L10.807,11.045 C11.287,11.146 11.678,11.488 11.858,11.942 L13.354,11.942 L14.514,2.994 C14.571,3.001 14.625,3.012 14.684,3.012 C15.399,3.012 15.979,2.412 15.979,1.674 C15.979,0.936 15.398,0.337 14.684,0.337 L14.684,0.337 Z M1.52,3.971 L4.032,3.971 L4.032,6.037 L1.835,6.037 L1.52,3.971 L1.52,3.971 Z M4.043,8.994 L2.17,8.994 L1.861,6.959 L4.043,6.959 L4.043,8.994 L4.043,8.994 Z M7.031,9.047 L4.969,9.047 L4.969,6.969 L7.031,6.969 L7.031,9.047 L7.031,9.047 Z M10.031,9.047 L7.969,9.047 L7.969,6.953 L10.031,6.953 L10.031,9.047 L10.031,9.047 Z M12.586,9.031 L10.969,9.031 L10.969,6.984 L12.875,6.984 L12.586,9.031 L12.586,9.031 Z M12.746,6.109 L11,6.109 L11,3.968 L13.078,3.968 L12.746,6.109 L12.746,6.109 Z" fill="#434343" class="si-glyph-fill"></path><path d="M4.477,11.047 C3.874,11.047 3.361,11.418 3.147,11.943 L5.806,11.943 C5.592,11.418 5.079,11.047 4.477,11.047 L4.477,11.047 Z" fill="#434343" class="si-glyph-fill"></path><path d="M10.807,11.046 L10.221,11.046 C9.741,11.147 9.349,11.489 9.168,11.943 L11.857,11.943 C11.678,11.489 11.287,11.146 10.807,11.046 L10.807,11.046 Z" fill="#434343" class="si-glyph-fill"></path></g><path d="M7,1.938 L7,3.938 L7.98,3.938 L7.98,1.938 L8.98,1.938 L7.48,0 L6.021,1.938 L7,1.938 Z" fill="#434343" class="si-glyph-fill"></path></g></g></svg>