
<svg viewBox="0 0 17 16" version="1.1" xmlns="http://www.w3.org/2000/svg" xmlns:xlink="http://www.w3.org/1999/xlink" class="si-glyph si-glyph-link-1"><title>820</title><defs></defs><g stroke="none" stroke-width="1" fill="none" fill-rule="evenodd"><g transform="translate(1.000000, 5.000000)" fill="#434343"><rect x="4" y="2" width="6.979" height="0.959" class="si-glyph-fill"></rect><g><path d="M13.604,0 L9.385,0 C8.642,0 8.035,0.591 8.035,1.318 L8.035,3.662 C8.035,4.388 8.641,4.979 9.385,4.979 L13.604,4.979 C14.348,4.979 14.952,4.387 14.952,3.662 L14.952,1.318 C14.951,0.591 14.348,0 13.604,0 L13.604,0 Z M14.024,3.679 C14.024,3.871 13.853,4.027 13.643,4.027 L9.325,4.027 C9.115,4.027 8.945,3.872 8.945,3.679 L8.945,1.302 C8.945,1.11 9.115,0.953 9.325,0.953 L13.643,0.953 C13.853,0.953 14.024,1.109 14.024,1.302 L14.024,3.679 L14.024,3.679 Z" class="si-glyph-fill"></path><path d="M5.621,0 L1.377,0 C0.628,0 0.02,0.591 0.02,1.318 L0.02,3.662 C0.02,4.388 0.628,4.979 1.377,4.979 L5.621,4.979 C6.369,4.979 6.977,4.387 6.977,3.662 L6.977,1.318 C6.978,0.591 6.369,0 5.621,0 L5.621,0 Z M6.049,3.662 C6.049,3.851 5.877,4.005 5.668,4.005 L1.35,4.005 C1.141,4.005 0.969,3.852 0.969,3.662 L0.969,1.318 C0.969,1.129 1.141,0.974 1.35,0.974 L5.668,0.974 C5.877,0.974 6.049,1.128 6.049,1.318 L6.049,3.662 L6.049,3.662 Z" class="si-glyph-fill"></path></g></g></g></svg>