<!--?xml version="1.0" encoding="UTF-8" standalone="no"?-->
<svg viewBox="0 0 17 16" version="1.1" xmlns="http://www.w3.org/2000/svg" xmlns:xlink="http://www.w3.org/1999/xlink" class="si-glyph si-glyph-inbox-download">
    <!-- Generator: Sketch 3.0.3 (7891) - http://www.bohemiancoding.com/sketch -->
    <title>844</title>
    
    <defs></defs>
    <g stroke="none" stroke-width="1" fill="none" fill-rule="evenodd">
        <g transform="translate(1.000000, 0.000000)">
            <path d="M5.198,4.256 L7.388,6.769 C7.703,7.083 8.214,7.083 8.531,6.769 L10.72,4.256 C11.034,3.941 11.083,3.38 10.769,3.066 L8.965,3.066 L8.965,1.144 C8.965,0.585 8.532,0.134 7.997,0.134 C7.462,0.134 7.028,0.585 7.028,1.144 L7.028,3.066 L5.247,3.066 C4.932,3.381 4.883,3.94 5.198,4.256 L5.198,4.256 Z" fill="#434343" class="si-glyph-fill"></path>
            <rect x="6" y="10" width="4.031" height="1.031"></rect>
            <path d="M13.993,1.006 L10.031,1.006 L10.031,1.981 L13.177,1.981 L14.54,9.01 L1.505,9.01 L2.912,1.981 L5.969,1.981 L5.969,1.006 L2.073,1.006 L0.013,9.761 L0.013,13.931 C0.013,15.265 0.485,15.959 1.817,15.959 L14.097,15.959 C15.343,15.959 15.982,15.432 15.982,13.848 L15.982,9.761 L13.993,1.006 L13.993,1.006 Z M10.016,11 L5.985,11 L5.985,9.969 L10.016,9.969 L10.016,11 L10.016,11 Z" fill="#434343" class="si-glyph-fill"></path>
        </g>
    </g>
</svg>