<!--?xml version="1.0" encoding="UTF-8" standalone="no"?-->
<svg viewBox="0 0 17 16" version="1.1" xmlns="http://www.w3.org/2000/svg" xmlns:xlink="http://www.w3.org/1999/xlink" class="si-glyph si-glyph-mask-2">
    <!-- Generator: Sketch 3.0.3 (7891) - http://www.bohemiancoding.com/sketch -->
    <title>1063</title>
    
    <defs></defs>
    <g stroke="none" stroke-width="1" fill="none" fill-rule="evenodd">
        <path d="M16.836,2.867 C16.951,2.094 16.961,1.533 16.961,1.533 C16.961,0.497 16.373,1.645 14.434,1.067 C13.104,0.67 10.784,2.157 8.991,2.157 C7.189,2.157 4.862,0.674 3.526,1.073 C1.602,1.653 1.023,0.501 1.023,1.533 C1.023,1.533 0.833236759,7.16356656 4.37623676,7.96556656 C6.37823676,8.23856656 7.819,6.909 8.991,6.909 C10.185,6.909 11.1862368,8.36256656 13.6672368,7.95556656 C14.3562368,7.86456656 14.893,7.031 15.325,6.576 L16.582,15.958 L16.836,2.867 L16.836,2.867 Z M7.081,5.208 C6.928,5.148 6.717,5.006 6.434,5.091 C5.976,5.227 5.306,5.193 4.619,4.962 C3.507,4.59 2.917,2.919 2.917,2.919 C2.917,2.919 4.527,2.803 5.64,3.174 C6.156,3.349 6.288,3.429 6.6,3.681 C7.232,4.19 7.234,5.267 7.081,5.208 L7.081,5.208 Z M11.438,3.673 C11.751,3.421 11.882,3.341 12.398,3.166 C13.51,2.795 15.121,2.911 15.121,2.911 C15.121,2.911 14.531,4.582 13.418,4.954 C12.732,5.184 12.063,5.219 11.605,5.083 C11.322,4.998 11.111,5.141 10.958,5.2 C10.804,5.259 10.806,4.183 11.438,3.673 L11.438,3.673 Z" fill="#434343" class="si-glyph-fill"></path>
    </g>
</svg>