<!--?xml version="1.0" encoding="UTF-8" standalone="no"?-->
<svg viewBox="0 0 16 17" version="1.1" xmlns="http://www.w3.org/2000/svg" xmlns:xlink="http://www.w3.org/1999/xlink" class="si-glyph si-glyph-upwards-arrow-to-bar">
    <!-- Generator: Sketch 3.0.3 (7891) - http://www.bohemiancoding.com/sketch -->
    <title>1220</title>
    
    <defs></defs>
    <g stroke="none" stroke-width="1" fill="none" fill-rule="evenodd">
        <g transform="translate(0.000000, 1.000000)" fill="#434343">
            <path d="M15.002,3.913 C15.553,3.913 15.997,3.493 15.997,2.975 L15.997,1.102 C15.997,0.584 15.553,0.164 15.002,0.164 L1.076,0.164 C0.526,0.164 0.081,0.584 0.081,1.102 L0.081,2.975 C0.081,3.494 0.526,3.913 1.076,3.913 L15.002,3.913 L15.002,3.913 Z" class="si-glyph-fill"></path>
            <path d="M6.994,5.518 C7.57,4.945 8.508,4.945 9.086,5.518 L15.494,11.892 C16.073,12.465 16.329,13.97 14.499,13.97 L1.579,13.97 C-0.312,13.97 0.00599999993,12.465 0.584,11.892 L6.994,5.518 L6.994,5.518 Z" class="si-glyph-fill"></path>
        </g>
    </g>
</svg>