<!--?xml version="1.0" encoding="UTF-8" standalone="no"?-->
<svg viewBox="0 0 17 16" version="1.1" xmlns="http://www.w3.org/2000/svg" xmlns:xlink="http://www.w3.org/1999/xlink" class="si-glyph si-glyph-fridge">
    <!-- Generator: Sketch 3.0.3 (7891) - http://www.bohemiancoding.com/sketch -->
    <title>889</title>
    
    <defs></defs>
    <g stroke="none" stroke-width="1" fill="none" fill-rule="evenodd">
        <g transform="translate(4.000000, 0.000000)" fill="#434343">
            <path d="M1,0.00317821646 C0.447,0.00317821646 0,0.447178216 0,0.995178216 L0,3.98883062 C0,4.53683062 0.447,4.98083062 1,4.98083062 L7,4.98083062 C7.553,4.98083062 8,4.53683062 8,3.98883062 L8,0.995178216 C8,0.448178216 7.553,0.00317821646 7,0.00317821646 L1,0.00317821646 Z M7.042,2.041 L5.958,2.041 L5.958,0.958 L7.042,0.958 L7.042,2.041 L7.042,2.041 Z" class="si-glyph-fill"></path>
            <path d="M1,5.99045068 C0.447,5.99045068 0,6.44145068 0,7.00045068 L0,13.894 C0,14.452 0.447,14.904 1,14.904 L1.021,16 L2.98,16 L2.98,14.903 L5.021,14.903 L5.021,16 L6.98,16 L6.98,14.903 C7.553,14.903 8,14.451 8,13.893 L8,6.99945068 C8,6.44145068 7.553,5.99045068 7,5.99045068 L1,5.99045068 Z M7.042,9.041 L5.958,9.041 L5.958,6.875 L7.042,6.875 L7.042,9.041 L7.042,9.041 Z" class="si-glyph-fill"></path>
        </g>
    </g>
</svg>