
<svg viewBox="0 0 16 17" version="1.1" xmlns="http://www.w3.org/2000/svg" xmlns:xlink="http://www.w3.org/1999/xlink" class="si-glyph si-glyph-network-2"><title>619</title><defs></defs><g stroke="none" stroke-width="1" fill="none" fill-rule="evenodd"><g transform="translate(1.000000, 1.000000)" fill="#434343"><path d="M7.494,14.958 C3.361,14.958 0,11.622 0,7.52 C0,3.418 3.361,0.082 7.494,0.082 C11.627,0.082 14.989,3.418 14.989,7.52 C14.989,11.622 11.627,14.958 7.494,14.958 L7.494,14.958 Z M7.51,0.938 C3.887,0.938 0.938,3.886 0.938,7.51 C0.938,11.135 3.887,14.083 7.51,14.083 C11.135,14.083 14.083,11.135 14.083,7.51 C14.083,3.886 11.135,0.938 7.51,0.938 L7.51,0.938 Z" class="si-glyph-fill"></path><rect x="7" y="1" width="0.922" height="14.084" class="si-glyph-fill"></rect><rect x="0" y="7" width="13.96" height="0.922" class="si-glyph-fill"></rect><rect x="1" y="4" width="12.406" height="0.906" class="si-glyph-fill"></rect><rect x="1" y="10" width="12.406" height="0.922" class="si-glyph-fill"></rect><path d="M7.317,14.854 C4.72,13.581 3.043,10.662 3.043,7.417 C3.043,4.247 4.666,1.355 7.181,0.05 L7.642,0.937 C5.455,2.074 4.043,4.617 4.043,7.417 C4.043,10.282 5.502,12.849 7.757,13.955 L7.317,14.854 L7.317,14.854 Z" class="si-glyph-fill"></path><path d="M7.74,14.789 L7.271,13.906 C9.41,12.772 10.792,10.225 10.792,7.417 C10.792,4.642 9.433,2.107 7.332,0.96 L7.811,0.083 C10.229,1.401 11.792,4.28 11.792,7.417 C11.793,10.592 10.201,13.485 7.74,14.789 L7.74,14.789 Z" class="si-glyph-fill"></path></g></g></svg>