<!--?xml version="1.0" encoding="UTF-8" standalone="no"?-->
<svg viewBox="0 0 16 17" version="1.1" xmlns="http://www.w3.org/2000/svg" xmlns:xlink="http://www.w3.org/1999/xlink" class="si-glyph si-glyph-circle-control-pad">
    <!-- Generator: Sketch 3.0.3 (7891) - http://www.bohemiancoding.com/sketch -->
    <title>103</title>
    
    <defs></defs>
    <g stroke="none" stroke-width="1" fill="none" fill-rule="evenodd">
        <path d="M8,0.032 C3.5810386,0.032 0,3.6152757 0,8.03149701 C0,12.4497303 3.58204451,16.032 8,16.032 C12.4179555,16.032 16,12.4487243 16,8.03149701 C16,3.6152757 12.4179555,0.032 8,0.032 L8,0.032 Z M5,9.85855566 C4.75699765,10.0471481 4.36387803,10.0471481 4.11993745,9.85855566 L2.18154808,8.34521619 C1.93948397,8.15478381 1.93948397,7.84659614 2.18154808,7.65708372 L4.11993745,6.14282429 C4.36387803,5.9523919 4.75699765,5.9523919 5,6.14282429 L5,9.85855566 L5,9.85855566 Z M6.14166616,4.11893033 L7.65578462,2.18226601 C7.84663229,1.93924466 8.15415934,1.93924466 8.34319803,2.18226601 L9.85550751,4.11893033 C10.0481642,4.36288998 10.0481642,4.75791696 9.85550751,5 L6.14257065,5 C5.95262747,4.75791696 5.95262747,4.36288998 6.14166616,4.11893033 L6.14166616,4.11893033 Z M9.85667752,11.8610116 L8.34436254,13.8000359 C8.15143722,14.0426547 7.84421967,14.0426547 7.65495171,13.8000359 L6.14263672,11.8610116 C5.95245443,11.6183928 5.95245443,11.2255815 6.14263672,10.982 L9.85667752,10.982 C10.0477742,11.2246187 10.0477742,11.6183928 9.85667752,11.8610116 L9.85667752,11.8610116 Z M11.8806281,9.85740655 C11.6383592,10.0475311 11.2441916,10.0475311 11,9.85740655 L11,6.14259345 C11.2441916,5.95246885 11.6383592,5.95246885 11.8806281,6.14259345 L13.8168563,7.65620674 C14.0610479,7.84725427 14.0610479,8.15551454 13.8168563,8.3447162 L11.8806281,9.85740655 L11.8806281,9.85740655 Z" fill="#434343" class="si-glyph-fill"></path>
    </g>
</svg>