<!--?xml version="1.0" encoding="UTF-8" standalone="no"?-->
<svg viewBox="0 0 17 17" version="1.1" xmlns="http://www.w3.org/2000/svg" xmlns:xlink="http://www.w3.org/1999/xlink" class="si-glyph si-glyph-feather">
    <!-- Generator: Sketch 3.0.3 (7891) - http://www.bohemiancoding.com/sketch -->
    <title>891</title>
    
    <defs></defs>
    <g stroke="none" stroke-width="1" fill="none" fill-rule="evenodd">
        <path d="M12.247,6.038 C13.662,3.434 14.192,1.401 13.872,1.099 C13.598,0.839 11.332,1.67 10.234,2.506 C10.024,2.668 9.172,5.111 8.904,5.217 C8.675,5.311 8.71,3.739 8.839,3.05 C7.774,3.545 5.985,4.822 4.997,5.707 C4.92,5.777 4.721,8.98 4.629,9.076 C4.441,9.264 3.875,6.907 3.717,7.109 C1.453,9.989 0.436,13.201 1.38,14.581 C0.478,16.033 0.0260000001,16.973 0.0260000001,16.973 L0.721,16.946 C1.141,16.227 1.558,15.552 1.973,14.898 L2.001,14.913 C2.999,15.011 5.429,14.73 7.855,12.46 C7.855,12.46 6.505,11.689 6.725,11.458 C6.943,11.226 9.038,10.536 9.257,10.276 C10.042,9.338 10.486,8.902 11.081,7.99 C11.238,7.752 9.45,8.185 9.595,7.95 C9.736,7.722 10.064,6.563 12.247,6.038 L12.247,6.038 Z" fill="#434343" class="si-glyph-fill"></path>
    </g>
</svg>