<!--?xml version="1.0" encoding="UTF-8" standalone="no"?-->
<svg viewBox="0 0 17 16" version="1.1" xmlns="http://www.w3.org/2000/svg" xmlns:xlink="http://www.w3.org/1999/xlink" class="si-glyph si-glyph-quote-open">
    <!-- Generator: Sketch 3.0.3 (7891) - http://www.bohemiancoding.com/sketch -->
    <title>1031</title>
    
    <defs></defs>
    <g stroke="none" stroke-width="1" fill="none" fill-rule="evenodd">
        <g transform="translate(1.000000, 1.000000)" fill="#434343">
            <path d="M15,13.969 C15.552,13.969 16,13.534 16,13 C16,12.466 15.552,12.031 15,12.031 C12.243,12.031 11,10.83 11,8.124 L11,6.906 L14.441,6.906 C15.271,6.906 15.947,6.301 15.947,5.468 L15.947,1.512 C15.947,0.678 15.271,0 14.441,0 L10.506,0 C9.676,0 9,0.678 9,1.512 L9,8.124 C9,11.899 11.141,13.969 15,13.969 L15,13.969 Z" class="si-glyph-fill"></path>
            <path d="M6,13.969 C6.552,13.969 7,13.534 7,13 C7,12.466 6.552,12.031 6,12.031 C3.243,12.031 2,10.83 2,8.124 L2,6.947 L5.467,6.947 C6.301,6.947 6.979,6.271 6.979,5.441 L6.979,1.505 C6.979,0.675 6.301,-0.001 5.467,-0.001 L1.512,-0.001 C0.678,-0.001 0,0.675 0,1.505 L0,8.123 C0,11.899 2.141,13.969 6,13.969 L6,13.969 Z" class="si-glyph-fill"></path>
        </g>
    </g>
</svg>