
<svg viewBox="0 0 16 16" version="1.1" xmlns="http://www.w3.org/2000/svg" xmlns:xlink="http://www.w3.org/1999/xlink" class="si-glyph si-glyph-trolley-full"><title>Trolley-full</title><defs></defs><g stroke="none" stroke-width="1" fill="none" fill-rule="evenodd"><g transform="translate(0.000000, 2.000000)" fill="#434343"><path d="M5.80004883,9 L3.451,0 L0.00199999998,0 L0.0273319378,0.9375 L2.46533194,0.9375 L5.06579604,10 L15.969,10 L15.969,9 L5.80004883,9 Z" class="si-glyph-fill"></path><rect x="7" y="6" width="1.958" height="1.955" class="si-glyph-fill"></rect><rect x="10" y="6" width="1.953" height="2" class="si-glyph-fill"></rect><rect x="10" y="3" width="1.938" height="1.899" class="si-glyph-fill"></rect><rect x="10" y="0" width="1.953" height="1.941" class="si-glyph-fill"></rect><rect x="13" y="6" width="1.953" height="1.906" class="si-glyph-fill"></rect><rect x="13" y="3" width="1.938" height="1.899" class="si-glyph-fill"></rect><rect x="13" y="0" width="1.953" height="1.941" class="si-glyph-fill"></rect><rect x="7" y="3" width="1.938" height="1.899" class="si-glyph-fill"></rect><rect x="7" y="0" width="1.953" height="1.941" class="si-glyph-fill"></rect><ellipse cx="7.494" cy="10.471" rx="1.494" ry="1.471" class="si-glyph-fill"></ellipse><circle cx="13.487" cy="10.487" r="1.487" class="si-glyph-fill"></circle></g></g></svg>