<!--?xml version="1.0" encoding="UTF-8" standalone="no"?-->
<svg viewBox="0 0 16 14" version="1.1" xmlns="http://www.w3.org/2000/svg" xmlns:xlink="http://www.w3.org/1999/xlink" class="si-glyph si-glyph-handcuff">
    <!-- Generator: Sketch 3.0.3 (7891) - http://www.bohemiancoding.com/sketch -->
    <title>65</title>
    
    <defs></defs>
    <g stroke="none" stroke-width="1" fill="none" fill-rule="evenodd">
        <g fill="#434343">
            <g>
                <path d="M10.556,6.076 C10.19,5.909 8.877,6.517 9.032,6.905 C9.194,7.372 9.341,8.406 9.096,9.179 C9.002,9.478 8.957,9.722 8.903,9.786 C8.828,9.932 9.674,10.986 10.315,10.791 C10.536,10.455 10.586,10.181 10.735,9.71 C11.127,8.468 11.027,6.349 10.556,6.076 L10.556,6.076 Z" class="si-glyph-fill"></path>
                <path d="M6.852,0.066 C6.442,-0.018 5.598,-0.038 5.368,0.206 C5.345,0.231 5.318,0.255 5.308,0.285 L3.864,2.775 C3.35,2.926 2.87,3.163 2.425,3.46 C1.446,4.112 0.668,5.085 0.284,6.301 C-0.094,7.493 -0.034,8.72 0.367,9.809 C0.594,10.426 0.931,10.997 1.364,11.493 C1.977,12.198 2.778,12.754 3.728,13.061 C4.729,13.385 5.752,13.389 6.698,13.135 C6.063,12.688 5.719,12.219 5.264,11.496 C4.934,11.49 4.602,11.443 4.273,11.337 C3.854,11.201 3.483,10.986 3.16,10.724 C2.68,10.338 2.319,9.836 2.093,9.271 C1.794,8.526 1.727,7.679 1.988,6.852 C2.256,6.011 2.809,5.353 3.5,4.921 C4.011,4.6 4.596,4.412 5.209,4.387 C5.23,4.386 5.241,4.387 5.26,4.387 C5.52,4.379 5.619,4.396 5.811,4.458 C5.915,4.303 6.276,3.791 6.721,3.594 L7.219,1.107 C7.354,0.807 7.634,0.615 7.768,0.454 L6.981,0.098 C6.944,0.086 6.898,0.076 6.852,0.066 L6.852,0.066 Z" class="si-glyph-fill"></path>
            </g>
            <path d="M13.524,4.241 L12.629,1.766 C12.627,1.386 11.567,1.082 11.175,1.084 L9.611,1.089 C9.254,1.09 8.236,1.352 8.068,1.689 C8.053,1.719 8.035,1.749 8.035,1.781 L7.412,4.261 C6.957,4.561 6.56,4.932 6.217,5.348 C5.462,6.262 5.006,7.417 5.011,8.68 C5.016,9.918 5.458,11.054 6.192,11.955 C6.608,12.467 7.12,12.899 7.698,13.232 C8.518,13.707 9.477,13.983 10.505,13.98 C13.526,13.969 15.97,11.582 15.96,8.644 C15.951,6.809 14.986,5.191 13.524,4.241 L13.524,4.241 Z M10.969,1.984 L12.031,1.984 L12.031,3 L10.969,3 L10.969,1.984 L10.969,1.984 Z M8.969,1.984 L10.031,1.984 L10.031,3 L8.969,3 L8.969,1.984 L8.969,1.984 Z M10.422,12.25 C8.325,12.25 6.625,10.564 6.625,8.484 C6.625,6.404 8.325,4.718 10.422,4.718 C12.518,4.718 14.219,6.404 14.219,8.484 C14.219,10.564 12.518,12.25 10.422,12.25 L10.422,12.25 Z" class="si-glyph-fill"></path>
        </g>
    </g>
</svg>