<!--?xml version="1.0" encoding="UTF-8" standalone="no"?-->
<svg viewBox="0 0 17 16" version="1.1" xmlns="http://www.w3.org/2000/svg" xmlns:xlink="http://www.w3.org/1999/xlink" class="si-glyph si-glyph-knife">
    <!-- Generator: Sketch 3.0.3 (7891) - http://www.bohemiancoding.com/sketch -->
    <title>751</title>
    
    <defs></defs>
    <g stroke="none" stroke-width="1" fill="none" fill-rule="evenodd">
        <g transform="translate(1.000000, 0.000000)" fill="#434343">
            <path d="M4.344,5.262 C4.344,5.262 2.199,3.118 1.746,2.664 C1.292,2.211 0.803,2.696 0.221,2.113 C-0.361,1.531 0.294,0.745 0.7,0.34 L0.7,0.34 C1.106,-0.065 1.725,-0.104 2.083,0.253 L5.358,3.529 C5.715,3.887 4.701,5.621 4.344,5.262 L4.344,5.262 Z" class="si-glyph-fill"></path>
            <path d="M15.938,15.625 C14.726,16.837 9.588,12.389 4.315,7.115 C4.315,7.115 5.842,5.594 6.633,4.804 C6.633,4.805 16.518,15.044 15.938,15.625 L15.938,15.625 Z" class="si-glyph-fill"></path>
        </g>
    </g>
</svg>