
<svg viewBox="0 0 17 16" version="1.1" xmlns="http://www.w3.org/2000/svg" xmlns:xlink="http://www.w3.org/1999/xlink" class="si-glyph si-glyph-cabinet"><title>1075</title><defs></defs><g stroke="none" stroke-width="1" fill="none" fill-rule="evenodd"><g transform="translate(3.000000, 0.000000)"><path d="M1,15.021 L11,15.021 L11,8.959 L1,8.959 L1,15.021 L1,15.021 Z M2.042,10.041 L9.98,10.041 L9.98,13.958 L2.042,13.958 L2.042,10.041 L2.042,10.041 Z" class=""></path><path d="M10.721,0.039 L1.239,0.039 C0.548,0.039 0.000999999931,0.517 0.000999999931,1.217 L0.000999999931,14.822 C0.000999999931,15.436 0.532,16 1.239,16 L10.721,16 C11.563,16 11.959,15.452 11.959,14.822 L11.959,1.217 C11.959,0.517 11.391,0.039 10.721,0.039 L10.721,0.039 Z M11,15.021 L1,15.021 L1,8.959 L11,8.959 L11,15.021 L11,15.021 Z M11,7.021 L1,7.021 L1,0.959 L11,0.959 L11,7.021 L11,7.021 Z" fill="#434343" class="si-glyph-fill"></path><path d="M7.042,10.041 L7.042,11.04 L4.938,11.04 L4.938,10.041 L2.042,10.041 L2.042,13.958 L9.979,13.958 L9.979,10.041 L7.042,10.041 Z" fill="#434343" class="si-glyph-fill"></path><path d="M7.042,3 L4.958,3 L4.958,2.042 L2,2.042 L2,6 L10,6 L10,2.042 L7.042,2.042 L7.042,3 Z" fill="#434343" class="si-glyph-fill"></path></g></g></svg>