<!--?xml version="1.0" encoding="UTF-8" standalone="no"?-->
<svg viewBox="0 0 17 16" version="1.1" xmlns="http://www.w3.org/2000/svg" xmlns:xlink="http://www.w3.org/1999/xlink" class="si-glyph si-glyph-signal-3">
    <!-- Generator: Sketch 3.0.3 (7891) - http://www.bohemiancoding.com/sketch -->
    <title>1014</title>
    
    <defs></defs>
    <g stroke="none" stroke-width="1" fill="none" fill-rule="evenodd">
        <path d="M17,12.965 L15,12.965 C14.568,12.965 14.188,12.69 14.052,12.281 L12.998,9.19 L11.944,12.281 C11.808,12.689 11.427,12.965 10.996,12.965 L8.998,12.965 C8.549,12.965 8.154,12.665 8.034,12.233 L6.499,6.769 L4.964,12.233 C4.844,12.666 4.449,12.965 4,12.965 L1,12.965 L1,11.031 L3.24,11.031 L5.535,2.763 C5.655,2.33 6.049,2.031 6.499,2.031 C6.947,2.031 7.343,2.331 7.463,2.763 L9.758,11.031 L10.276,11.031 L12.049,5.715 C12.186,5.307 12.567,5.031 12.998,5.031 C13.429,5.031 13.81,5.306 13.946,5.715 L15.72,11.031 L17,11.031 L17,12.965 L17,12.965 Z" fill="#434343" class="si-glyph-fill"></path>
    </g>
</svg>