
<svg viewBox="0 0 16 16" version="1.1" xmlns="http://www.w3.org/2000/svg" xmlns:xlink="http://www.w3.org/1999/xlink" class="si-glyph si-glyph-bag-remove"><title>610</title><defs></defs><g stroke="none" stroke-width="1" fill="none" fill-rule="evenodd"><g transform="translate(1.000000, 0.000000)" fill="#434343"><path d="M8.494,4.011 C8.223,4.011 8.005,3.791 8.005,3.519 C8.005,2.133 6.881,1.005 5.502,1.005 C4.123,1.005 3,2.133 3,3.519 C3,3.791 2.781,4.011 2.51,4.011 C2.24,4.011 2.021,3.791 2.021,3.519 C2.021,1.59 3.583,0.021 5.502,0.021 C7.422,0.021 8.984,1.59 8.984,3.519 C8.984,3.791 8.766,4.011 8.494,4.011 L8.494,4.011 Z" class="si-glyph-fill"></path><path d="M11.492,4.011 C11.222,4.011 11.004,3.791 11.004,3.519 C11.004,2.133 9.885,1.005 8.512,1.005 C8.242,1.005 8.024,0.785 8.024,0.513 C8.024,0.241 8.243,0.021 8.512,0.021 C10.424,0.021 11.981,1.59 11.981,3.519 C11.98,3.791 11.762,4.011 11.492,4.011 L11.492,4.011 Z" class="si-glyph-fill"></path><rect x="10" y="14" width="5" height="1" class="si-glyph-fill"></rect><g transform="translate(0.000000, 3.000000)"><path d="M13.371,0.061 L12.042,0.061 L12.042,9.958 L13.965,9.958 L13.965,0.626 C13.965,0.313 13.698,0.061 13.371,0.061 Z" class="si-glyph-fill"></path><path d="M10.9510001,10.0472412 C10.9510001,10.0472412 10.956,0.012 10.956,0 L0.644,0 C0.314,0 0.0429999999,0.286975586 0.0429999999,0.599975586 L0.0429999999,12.373 C0.0429999999,12.685 0.270097656,13 0.600097656,13 L9,13 L9,10.0472412 L10.9510001,10.0472412 Z" class="si-glyph-fill"></path></g></g></g></svg>