<!--?xml version="1.0" encoding="UTF-8" standalone="no"?-->
<svg viewBox="0 0 17 17" version="1.1" xmlns="http://www.w3.org/2000/svg" xmlns:xlink="http://www.w3.org/1999/xlink" class="si-glyph si-glyph-person-prison">
    <!-- Generator: Sketch 3.0.3 (7891) - http://www.bohemiancoding.com/sketch -->
    <title>771</title>
    
    <defs></defs>
    <g stroke="none" stroke-width="1" fill="none" fill-rule="evenodd">
        <g transform="translate(1.000000, 0.000000)" fill="#434343">
            <path d="M12.6973076,16.022 L3.37869242,16.022 C1.53624385,16.022 0.0379999999,14.5191098 0.0379999999,12.6724147 L0.0379999999,3.37058005 C0.0379999999,1.5238849 1.53624385,0.022 3.37869242,0.022 L12.6973076,0.022 C14.5397561,0.022 16.038,1.5238849 16.038,3.37058005 L16.038,12.6724147 C16.038,14.5181045 14.5397561,16.022 12.6973076,16.022 L12.6973076,16.022 Z M3.10672887,1 C1.9450099,1 1,1.947963 1,3.11438255 L1,12.8836405 C1,14.0510485 1.9450099,15 3.10672887,15 L12.8922816,15 C14.0549901,15 15,14.0510485 15,12.8836405 L15,3.11438255 C15,1.947963 14.0549901,1 12.8922816,1 L3.10672887,1 L3.10672887,1 Z" class="si-glyph-fill"></path>
            <path d="M3,1 L3,14.691 L4.03955078,14.691 L4.03955078,0.999999985 L3,1 Z" class="si-glyph-fill"></path>
            <path d="M6,1 L6,14.691 L7.0189209,14.691 L7.0189209,0.999999985 L6,1 Z" class="si-glyph-fill"></path>
            <path d="M9,1 L9,14.691 L10.0375977,14.691 L10.0375977,0.999999985 L9,1 Z" class="si-glyph-fill"></path>
            <path d="M12,1 L12,14.691 L12.918457,14.691 L12.918457,1 L12,1 Z" class="si-glyph-fill"></path>
            <g transform="translate(1.000000, 3.000000)">
                <path d="M10.576,8.048 C10.177,8.635 9.681,9.507 9.105,10.546 C8.473,11.692 7.746,10.289 6.951,10.289 C6.135,10.289 5.371,11.64 4.711,10.465 C4.143,9.454 3.65,8.639 3.262,8.076 C1.252,8.076 0.216,9.376 -0.316,10.947 C-0.85,12.52 14.862,12.513 14.375,10.934 C13.89,9.354 12.838,8.048 10.576,8.048 L10.576,8.048 Z" class="si-glyph-fill"></path>
                <path d="M9.977,3.154 C9.977,4.815 8.654,7.992 7.022,7.992 C5.388,7.992 4.066,4.815 4.066,3.154 C4.066,1.491 5.388,0.144 7.022,0.144 C8.653,0.145 9.977,1.491 9.977,3.154 L9.977,3.154 Z" class="si-glyph-fill"></path>
            </g>
        </g>
    </g>
</svg>