
<svg viewBox="0 0 17 17" version="1.1" xmlns="http://www.w3.org/2000/svg" xmlns:xlink="http://www.w3.org/1999/xlink" class="si-glyph si-glyph-light-house"><title>1140</title><defs></defs><g stroke="none" stroke-width="1" fill="none" fill-rule="evenodd"><g fill="#434343"><path d="M8.042,0 C8.042,0 4.073,1.93 4.073,3 L12.011,3 C12.011,1.93 8.042,0 8.042,0 L8.042,0 Z" class="si-glyph-fill"></path><path d="M12,5 L12,5.982 L16,7 L16,4 L12,5 Z" class="si-glyph-fill"></path><path d="M3.958,5 L0,4 L0,7 L3.958,6 L3.958,5 Z" class="si-glyph-fill"></path><path d="M5,9.969 L11,9.969 L11,9 L12,9 L12,8 L4,8 L4,9 L5,9 L5,9.969 Z" class="si-glyph-fill"></path><rect x="5" y="14" width="6" height="2" class="si-glyph-fill"></rect><rect x="5" y="11" width="6" height="2" class="si-glyph-fill"></rect><rect x="5" y="4" width="0.968" height="3" class="si-glyph-fill"></rect><rect x="10" y="4" width="0.968" height="3" class="si-glyph-fill"></rect><rect x="7" y="4" width="1.984" height="3" class="si-glyph-fill"></rect></g></g></svg>