<!--?xml version="1.0" encoding="UTF-8" standalone="no"?-->
<svg viewBox="0 0 16 16" version="1.1" xmlns="http://www.w3.org/2000/svg" xmlns:xlink="http://www.w3.org/1999/xlink" class="si-glyph si-glyph-person-people">
    <!-- Generator: Sketch 3.0.3 (7891) - http://www.bohemiancoding.com/sketch -->
    <title>786</title>
    
    <defs></defs>
    <g stroke="none" stroke-width="1" fill="none" fill-rule="evenodd">
        <g fill="#434343">
            <path d="M10.2470685,11.4605501 C9.6011646,12.4859599 8.85827517,9.93068125 8.04739586,9.93068125 C7.21252012,9.93068125 6.4346359,12.4403646 5.75973635,11.3887617 C5.17982266,10.4826758 4.67789736,9.5077118 4.28095644,9.00519306 C0.174567623,9.00519306 0.0909926501,14.970703 0.0909926501,14.970703 L16.0836124,14.970703 C16.0836124,14.970703 16.3661577,8.979 11.7488449,8.979 C11.3409057,9.50286124 10.834981,10.5302113 10.2470685,11.4605501 Z" class="si-glyph-fill"></path>
            <path d="M7.98869979,8.99924572 C6.49273935,8.99924572 5.0164795,4.83244411 5.0164795,3.11779785 C5.0164795,1.40125591 6.49273935,0.0107203288 7.98869979,0.0107203288 C9.48466022,0.0107203288 10.9609201,1.40125598 10.9609201,3.11779793 C10.9609201,4.83244421 9.48466022,8.99924572 7.98869979,8.99924572 Z" class="si-glyph-fill"></path>
        </g>
    </g>
</svg>