<!--?xml version="1.0" encoding="UTF-8" standalone="no"?-->
<svg viewBox="0 0 17 16" version="1.1" xmlns="http://www.w3.org/2000/svg" xmlns:xlink="http://www.w3.org/1999/xlink" class="si-glyph si-glyph-eye-glass">
    <!-- Generator: Sketch 3.0.3 (7891) - http://www.bohemiancoding.com/sketch -->
    <title>878</title>
    
    <defs></defs>
    <g stroke="none" stroke-width="1" fill="none" fill-rule="evenodd">
        <g transform="translate(1.000000, 4.000000)" fill="#434343">
            <path d="M0.376,4.967 C0.344,4.967 0.313,4.963 0.281,4.955 C0.088,4.904 -0.028,4.713 0.023,4.523 L2.305,1.681 C2.322,1.623 2.351,1.572 2.393,1.529 L5.142,0.148 C5.281,0.007 5.509,-1.35169653e-14 5.656,0.134 C5.802,0.267 5.808,0.49 5.672,0.632 L2.984,1.946 L0.726,4.704 C0.682,4.863 0.535,4.967 0.376,4.967 L0.376,4.967 Z" class="si-glyph-fill"></path>
            <path d="M15.565,4.967 C15.592,4.967 15.625,4.963 15.657,4.955 C15.85,4.904 15.965,4.713 15.915,4.523 L13.633,1.681 C13.616,1.623 13.587,1.572 13.545,1.529 L10.796,0.148 C10.657,0.007 10.429,-1.35169653e-14 10.282,0.134 C10.136,0.267 10.131,0.49 10.266,0.632 L12.954,1.946 L15.212,4.704 C15.255,4.863 15.402,4.967 15.565,4.967 L15.565,4.967 Z" class="si-glyph-fill"></path>
            <path d="M3.986,8.832 C4.714,8.832 6.949,8.074 7.26,5.894 C7.497,5.877 7.733,5.86 7.978,5.86 C8.227,5.86 8.46,5.884 8.699,5.902 C9.017,8.094 11.196,8.846 11.926,8.846 C12.712,8.846 15.969,8.076 15.969,5.395 C15.969,3.026 14.333,3.034 12.315,3.034 C10.59,3.034 9.147,3.147 8.763,4.557 C8.51,4.531 8.255,4.512 7.992,4.512 C7.719,4.512 7.454,4.539 7.191,4.568 C6.803,3.177 5.375,3.065 3.666,3.065 C1.658,3.065 0.031,3.026 0.031,5.414 C0.031,8.076 3.203,8.832 3.986,8.832 L3.986,8.832 Z" class="si-glyph-fill"></path>
        </g>
    </g>
</svg>