<!--?xml version="1.0" encoding="UTF-8" standalone="no"?-->
<svg viewBox="0 0 17 16" version="1.1" xmlns="http://www.w3.org/2000/svg" xmlns:xlink="http://www.w3.org/1999/xlink" class="si-glyph si-glyph-cross-hair">
    <!-- Generator: Sketch 3.0.3 (7891) - http://www.bohemiancoding.com/sketch -->
    <title>1016</title>
    
    <defs></defs>
    <g stroke="none" stroke-width="1" fill="none" fill-rule="evenodd">
        <g transform="translate(1.000000, 1.000000)" fill="#434343">
            <path d="M7.5,0 C3.364,0 0,3.361 0,7.492 C0,11.623 3.364,14.984 7.5,14.984 C11.637,14.984 15,11.623 15,7.492 C15,3.361 11.637,0 7.5,0 L7.5,0 Z M7.969,13.945 L7.969,12.047 L7.031,12.047 L7.031,13.945 C3.843,13.716 1.301,11.182 1.056,8 L2.968,8 L2.968,7 L1.056,7 C1.299,3.828 3.827,1.3 6.999,1.057 L6.999,2.985 L7.968,2.985 L7.968,1.055 C11.156,1.284 13.698,3.818 13.943,7 L12.015,7 L12.015,7.969 L13.945,7.969 C13.715,11.166 11.166,13.715 7.969,13.945 L7.969,13.945 Z" class="si-glyph-fill"></path>
            <path d="M7.984,5.021 L7.043,5.021 L7.043,7.042 L5.031,7.042 L5.031,7.984 L7.043,7.984 L7.043,9.959 L7.984,9.959 L7.984,7.984 L9.938,7.984 L9.938,7.042 L7.984,7.042 L7.984,5.021 Z" class="si-glyph-fill"></path>
        </g>
    </g>
</svg>