
<svg viewBox="0 0 16 16" version="1.1" xmlns="http://www.w3.org/2000/svg" xmlns:xlink="http://www.w3.org/1999/xlink" class="si-glyph si-glyph-traffic-light"><title>641</title><defs></defs><g stroke="none" stroke-width="1" fill="none" fill-rule="evenodd"><g transform="translate(2.000000, 0.000000)" fill="#434343"><path d="M7.671,0.017 L5.296,0.017 C4.578,0.017 4,0.608 4,1.334 L4,11.676 C4,12.403 4.578,12.993 5.296,12.993 L7.671,12.993 C8.388,12.993 8.968,12.402 8.968,11.676 L8.968,1.334 C8.968,0.607 8.388,0.017 7.671,0.017 L7.671,0.017 Z M6.504,12.007 C5.655,12.007 4.965,11.322 4.965,10.473 C4.965,9.627 5.655,8.938 6.504,8.938 C7.358,8.938 8.045,9.627 8.045,10.473 C8.045,11.322 7.357,12.007 6.504,12.007 L6.504,12.007 Z M6.514,7.999 C5.671,7.999 4.986,7.312 4.986,6.465 C4.986,5.618 5.672,4.932 6.514,4.932 C7.363,4.932 8.045,5.619 8.045,6.465 C8.045,7.312 7.362,7.999 6.514,7.999 L6.514,7.999 Z M6.492,3.993 C5.687,3.993 5.031,3.325 5.031,2.502 C5.031,1.678 5.687,1.008 6.492,1.008 C7.304,1.008 7.956,1.678 7.956,2.502 C7.956,3.325 7.304,3.993 6.492,3.993 L6.492,3.993 Z" class="si-glyph-fill"></path><path d="M10.641,3.979 L11.165,3.979 C11.502,3.979 12.976,1.785 12.976,1.785 C12.976,1.367 12.702,1.025 12.365,1.025 L10.641,1.025 C10.303,1.025 10.03,1.367 10.03,1.785 L10.03,3.219 C10.029,3.638 10.303,3.979 10.641,3.979 L10.641,3.979 Z" class="si-glyph-fill"></path><path d="M12.364,5.019 L10.638,5.019 C10.302,5.019 10.029,5.358 10.029,5.775 L10.029,7.198 C10.029,7.616 10.302,7.954 10.638,7.954 L11.162,7.954 C11.499,7.954 12.974,5.775 12.974,5.775 C12.975,5.357 12.699,5.019 12.364,5.019 L12.364,5.019 Z" class="si-glyph-fill"></path><path d="M12.344,9.033 L10.619,9.033 C10.283,9.033 10.009,9.375 10.009,9.794 L10.009,11.227 C10.009,11.649 10.283,11.988 10.619,11.988 L11.144,11.988 C11.48,11.988 12.955,9.795 12.955,9.795 C12.955,9.375 12.681,9.033 12.344,9.033 L12.344,9.033 Z" class="si-glyph-fill"></path><path d="M2.355,1.024 L0.64,1.024 C0.306,1.024 0.035,1.361 0.035,1.773 C0.035,1.773 1.498,3.936 1.834,3.936 L2.355,3.936 C2.69,3.936 2.96,3.599 2.96,3.187 L2.96,1.773 C2.961,1.361 2.69,1.024 2.355,1.024 L2.355,1.024 Z" class="si-glyph-fill"></path><path d="M2.375,5.039 L0.66,5.039 C0.326,5.039 0.055,5.378 0.055,5.795 C0.055,5.795 1.518,7.973 1.854,7.973 L2.375,7.973 C2.709,7.973 2.98,7.635 2.98,7.217 L2.98,5.795 C2.98,5.378 2.709,5.039 2.375,5.039 L2.375,5.039 Z" class="si-glyph-fill"></path><path d="M2.377,9.054 L0.661,9.054 C0.327,9.054 0.055,9.386 0.055,9.793 C0.055,9.793 1.518,11.924 1.854,11.924 L2.377,11.924 C2.711,11.924 2.981,11.594 2.981,11.185 L2.981,9.793 C2.981,9.386 2.711,9.054 2.377,9.054 L2.377,9.054 Z" class="si-glyph-fill"></path><rect x="5" y="13" width="2.973" height="3.128" class="si-glyph-fill"></rect></g></g></svg>