
<svg viewBox="0 0 17 16" version="1.1" xmlns="http://www.w3.org/2000/svg" xmlns:xlink="http://www.w3.org/1999/xlink" class="si-glyph si-glyph-jump-page-up-down"><title>1058</title><defs></defs><g stroke="none" stroke-width="1" fill="none" fill-rule="evenodd"><g transform="translate(1.000000, 0.000000)" fill="#434343"><path d="M8.979,12.021 L8.979,10.042 L7.02,10.042 L7.02,12.021 L5.291,12.021 C4.923,12.382 4.923,12.916 5.291,13.276 L7.347,15.735 C7.714,16.095 8.313,16.095 8.681,15.736 L10.734,13.276 C11.103,12.916 11.103,12.382 10.734,12.021 L8.979,12.021 L8.979,12.021 Z" class="si-glyph-fill"></path><path d="M7,3.952 L7,5.998 L8.979,5.998 L8.979,3.952 L10.709,3.952 C11.074,3.592 11.074,4.007 10.709,3.645 L8.675,0.305 C8.311,-0.055 7.715,-0.055 7.349,0.305 L5.251,3.645 C4.886,4.006 4.886,3.591 5.251,3.952 L7,3.952 L7,3.952 Z" class="si-glyph-fill"></path><rect x="0" y="7" width="16" height="2" class="si-glyph-fill"></rect></g></g></svg>