<!--?xml version="1.0" encoding="UTF-8" standalone="no"?-->
<svg viewBox="0 0 17 16" version="1.1" xmlns="http://www.w3.org/2000/svg" xmlns:xlink="http://www.w3.org/1999/xlink" class="si-glyph si-glyph-horse">
    <!-- Generator: Sketch 3.0.3 (7891) - http://www.bohemiancoding.com/sketch -->
    <title>931</title>
    
    <defs></defs>
    <g stroke="none" stroke-width="1" fill="none" fill-rule="evenodd">
        <path d="M14.572,12.3606104 C12.683,10.0856104 14.097,7.05061042 12.367,3.91161042 C11.992,3.21161042 11.443,2.65361042 10.803,2.28161042 C10.815,2.27161042 10.825,2.26261042 10.836,2.25261042 C11.752,1.32361042 12.248,0.348610425 11.942,0.0736104247 C11.637,-0.203389575 10.646,0.325610425 9.73,1.25361042 C9.554,1.43161042 9.4,1.60961042 9.258,1.78661042 C8.282,1.70561042 7.255,2.02861042 6.363,2.88161042 C6.363,2.88161042 2.454,6.57861042 1.414,7.57861042 C0.37,8.57661042 1.781,9.11261042 1.781,9.11261042 C1.781,9.11261042 5.784,8.14561042 6.614,8.46761042 C8.059,9.02561042 4.585,11.4596104 4.696,14.6156104 C4.762,16.6596104 9.91,15.8206104 13.258,14.8406104 C15.083,14.3076104 14.928,12.7866104 14.572,12.3606104 L14.572,12.3606104 Z" fill="#434343" class="si-glyph-fill"></path>
    </g>
</svg>