<!--?xml version="1.0" encoding="UTF-8" standalone="no"?-->
<svg viewBox="0 0 17 17" version="1.1" xmlns="http://www.w3.org/2000/svg" xmlns:xlink="http://www.w3.org/1999/xlink" class="si-glyph si-glyph-connect-1">
    <!-- Generator: Sketch 3.0.3 (7891) - http://www.bohemiancoding.com/sketch -->
    <title>Connect-1</title>
    
    <defs></defs>
    <g stroke="none" stroke-width="1" fill="none" fill-rule="evenodd">
        <path d="M14.969,11.082 L14.969,4.918 C16.092,4.687 16.938,3.691 16.938,2.5 C16.938,1.137 15.833,0.031 14.469,0.031 C13.105,0.031 12,1.136 12,2.5 C12,3.713 12.877,4.717 14.031,4.925 L14.031,11.075 C13.711,11.133 13.413,11.252 13.148,11.42 L5.533,3.848 C5.787,3.46 5.937,2.998 5.937,2.5 C5.937,1.137 4.832,0.031 3.468,0.031 C2.104,0.031 0.999,1.136 0.999,2.5 C0.999,3.703 1.86,4.702 2.999,4.922 L2.999,11.078 C1.86,11.298 0.999,12.297 0.999,13.5 C0.999,14.863 2.104,15.969 3.468,15.969 C4.832,15.969 5.937,14.864 5.937,13.5 C5.937,12.319 5.107,11.336 3.999,11.092 L3.999,4.908 C4.3,4.842 4.579,4.722 4.828,4.557 L12.427,12.113 C12.157,12.509 11.999,12.986 11.999,13.5 C11.999,14.863 13.104,15.969 14.468,15.969 C15.832,15.969 16.937,14.864 16.937,13.5 C16.938,12.309 16.092,11.313 14.969,11.082 L14.969,11.082 Z" fill="#434343" class="si-glyph-fill"></path>
    </g>
</svg>