<!--?xml version="1.0" encoding="UTF-8" standalone="no"?-->
<svg viewBox="0 0 17 16" version="1.1" xmlns="http://www.w3.org/2000/svg" xmlns:xlink="http://www.w3.org/1999/xlink" class="si-glyph si-glyph-apron">
    <!-- Generator: Sketch 3.0.3 (7891) - http://www.bohemiancoding.com/sketch -->
    <title>884</title>
    
    <defs></defs>
    <g stroke="none" stroke-width="1" fill="none" fill-rule="evenodd">
        <path d="M15.75,6.318 C14.307,5.805 13.395,7.39 12.643,7.969 C12.643,7.969 11.755,8.193 11.755,8.019 C11.755,4.802 14.458,3.163 11.77,3.163 L11.77,3.159 L11.662,2.721 C11.208,1.06 10.457,0.046 9.485,0.046 C8.523,0.046 7.731,1.042 7.276,2.677 C7.276,2.677 7.184,3.031 7.165,3.118 C4.646,3.118 7.186,4.877 7.186,8.054 C7.186,8.218 6.296,7.969 6.296,7.969 C5.544,7.39 4.698,5.761 3.255,6.274 C3.077,6.336 2.993,6.512 3.067,6.664 C3.141,6.816 3.347,6.888 3.525,6.824 C4.431,6.504 4.879,7.683 5.823,8.411 C5.823,8.411 6.613,9.025 7.114,9.192 C6.763,12.361 5.157,15.972 5.157,15.972 L13.852,15.996 C13.852,15.996 12.204,12.35 11.832,9.188 C12.33,9.02 13.115,8.41 13.115,8.41 C14.059,7.682 14.573,6.547 15.479,6.867 C15.657,6.93 15.863,6.859 15.937,6.707 C16.012,6.557 15.928,6.381 15.75,6.318 L15.75,6.318 Z M9.48,5.055 C8.688,5.055 8.103,4.167 7.978,3.486 C8.312,1.773 8.957,0.907 9.555,0.907 L9.422,0.907 C10.021,0.907 10.665,1.773 10.999,3.486 C10.874,4.168 10.289,5.055 9.497,5.055 L9.48,5.055 L9.48,5.055 Z" fill="#434343" class="si-glyph-fill"></path>
    </g>
</svg>