<!--?xml version="1.0" encoding="UTF-8" standalone="no"?-->
<svg viewBox="0 0 17 16" version="1.1" xmlns="http://www.w3.org/2000/svg" xmlns:xlink="http://www.w3.org/1999/xlink" class="si-glyph si-glyph-dice-6">
    <!-- Generator: Sketch 3.0.3 (7891) - http://www.bohemiancoding.com/sketch -->
    <title>1118</title>
    
    <defs></defs>
    <g stroke="none" stroke-width="1" fill="none" fill-rule="evenodd">
        <path d="M14.763,0 L3.178,0 C1.998,0 1.043,0.966 1.043,2.155 L1.043,13.845 C1.043,15.034 1.998,15.999 3.178,15.999 L14.763,15.999 C15.944,15.999 16.899,15.034 16.899,13.845 L16.899,2.155 C16.898,0.966 15.943,0 14.763,0 L14.763,0 Z M6.002,7.153 C4.856,7.153 3.927,6.202 3.927,5.03 C3.927,3.858 4.856,2.907 6.002,2.907 C7.148,2.907 8.078,3.858 8.078,5.03 C8.078,6.202 7.148,7.153 6.002,7.153 L6.002,7.153 Z M12.002,7.153 C10.856,7.153 9.927,6.202 9.927,5.03 C9.927,3.858 10.856,2.907 12.002,2.907 C13.148,2.907 14.078,3.858 14.078,5.03 C14.078,6.202 13.148,7.153 12.002,7.153 L12.002,7.153 Z M12.002,13.153 C10.856,13.153 9.927,12.202 9.927,11.03 C9.927,9.858 10.856,8.907 12.002,8.907 C13.148,8.907 14.078,9.858 14.078,11.03 C14.078,12.202 13.148,13.153 12.002,13.153 L12.002,13.153 Z M6.002,13.153 C4.856,13.153 3.927,12.202 3.927,11.03 C3.927,9.858 4.856,8.907 6.002,8.907 C7.148,8.907 8.078,9.858 8.078,11.03 C8.078,12.202 7.148,13.153 6.002,13.153 L6.002,13.153 Z" fill="#434343" class="si-glyph-fill"></path>
    </g>
</svg>