<!--?xml version="1.0" encoding="UTF-8" standalone="no"?-->
<svg viewBox="0 0 17 16" version="1.1" xmlns="http://www.w3.org/2000/svg" xmlns:xlink="http://www.w3.org/1999/xlink" class="si-glyph si-glyph-document">
    <!-- Generator: Sketch 3.0.3 (7891) - http://www.bohemiancoding.com/sketch -->
    <title>1083</title>
    
    <defs></defs>
    <g stroke="none" stroke-width="1" fill="none" fill-rule="evenodd">
        <g transform="translate(2.000000, 0.000000)" fill="#434343">
            <path d="M0,0 L0,16 L13,16 L13,4.02441406 L7,4 L7,0.062 L0,0 Z M11,13 L2,13 L2,12 L11,12 L11,13 L11,13 Z M11,11 L2,11 L2,10 L11,10 L11,11 L11,11 Z M11,7 L11,8 L2,8 L2,7 L11,7 L11,7 Z" class="si-glyph-fill"></path>
            <path d="M8,0 L8,2.844 L12.752,2.844 L8,0 Z" class="si-glyph-fill"></path>
        </g>
    </g>
</svg>