
<svg viewBox="0 0 17 16" version="1.1" xmlns="http://www.w3.org/2000/svg" xmlns:xlink="http://www.w3.org/1999/xlink" class="si-glyph si-glyph-stele"><title>634</title><defs></defs><g stroke="none" stroke-width="1" fill="none" fill-rule="evenodd"><g transform="translate(1.000000, 0.000000)" fill="#434343"><path d="M0,14 L9.15527335e-08,15.9897461 L15.0032959,15.9897461 L15.0032958,14 L0,14 Z" class="si-glyph-fill"></path><g transform="translate(1.000000, 0.000000)"><rect x="9" y="6" width="0.905" height="0.898" class="si-glyph-fill"></rect><rect x="3" y="6" width="0.951" height="0.905" class="si-glyph-fill"></rect><path d="M0,5.41202913 L0,13.001 L13,13.001 L13,5.41202913 C12.9989915,0.0676407767 8.0135498,0.0244140623 6.05957031,0.0244140623 C4.10559082,0.0244140623 0,0.0676407767 0,5.41202913 Z M4.967,9.986 L3.89357005,9.986 L3.89357005,7.95383052 L3.00661353,7.95383052 L3.00661353,9.9565767 L1.967,9.9565767 L1.967,4.986 L4.95250725,4.986 L4.95250725,7.01424637 L4.0201401,7.01424637 L4.0201401,7.87340683 L4.967,7.87340683 L4.967,9.986 L4.967,9.986 Z M6.953,9.954 L5.953,9.954 L5.953,4.954 L6.953,4.954 L6.953,9.954 L6.953,9.954 Z M9.03824092,7.99614484 L9.03824092,9.954 L8,9.954 L8,4.954 L10.9952199,4.954 L11,7.98328374 L9.03824092,7.99614484 L9.03824092,7.99614484 Z" class="si-glyph-fill"></path></g></g></g></svg>