<!--?xml version="1.0" encoding="UTF-8" standalone="no"?-->
<svg viewBox="0 0 17 16" version="1.1" xmlns="http://www.w3.org/2000/svg" xmlns:xlink="http://www.w3.org/1999/xlink" class="si-glyph si-glyph-two-arrow-in-left-right">
    <!-- Generator: Sketch 3.0.3 (7891) - http://www.bohemiancoding.com/sketch -->
    <title>935</title>
    
    <defs></defs>
    <g stroke="none" stroke-width="1" fill="none" fill-rule="evenodd">
        <g transform="translate(1.000000, 5.000000)" fill="#434343">
            <path d="M4.125,0.229 C3.863,-0.035 3.44,-0.035 3.179,0.229 C2.918,0.493 2.918,0.919 3.179,1.183 L4.532,3.011 L1,3.011 C0.447,3.011 0,3.455 0,4.003 C0,4.551 0.447,4.995 1,4.995 L4.594,4.995 L3.21,6.812 C2.947,7.075 2.947,7.5 3.21,7.764 C3.34,7.896 3.512,7.962 3.682,7.962 C3.854,7.962 4.026,7.896 4.157,7.764 L6.976,4.024 L4.125,0.229 L4.125,0.229 Z" class="si-glyph-fill"></path>
            <path d="M11.821,0.229 C12.084,-0.035 12.507,-0.035 12.768,0.229 C13.03,0.493 13.03,0.919 12.768,1.183 L11.44,3.011 L14.971,3.011 C15.524,3.011 15.971,3.455 15.971,4.003 C15.971,4.551 15.524,4.995 14.971,4.995 L11.518,4.995 L12.784,6.812 C13.046,7.075 13.046,7.5 12.784,7.764 C12.653,7.896 12.482,7.962 12.311,7.962 C12.139,7.962 11.968,7.896 11.837,7.764 L8.999,4.024 L11.821,0.229 L11.821,0.229 Z" class="si-glyph-fill"></path>
        </g>
    </g>
</svg>