<!--?xml version="1.0" encoding="UTF-8" standalone="no"?-->
<svg viewBox="0 0 17 17" version="1.1" xmlns="http://www.w3.org/2000/svg" xmlns:xlink="http://www.w3.org/1999/xlink" class="si-glyph si-glyph-hand-switch">
    <!-- Generator: Sketch 3.0.3 (7891) - http://www.bohemiancoding.com/sketch -->
    <title>960</title>
    
    <defs></defs>
    <g stroke="none" stroke-width="1" fill="none" fill-rule="evenodd">
        <g transform="translate(3.000000, 1.000000)" fill="#434343">
            <path d="M11.484,2.062 C10.664,2.062 10,2.699 10,3.484 C10,3.546 10.011,3.605 10.02,3.665 L6.317,5.853 C5.578,4.745 4.451,4.005 2.969,4.005 C2.961,4.005 2.953,4.006 2.953,4.006 L2.946,1.402 C2.946,0.687 2.171,0.108 1.421,0.086 C0.67,0.108 0.068,0.688 0.068,1.402 L0.068,14.532 C0.068,15.247 0.67,15.826 1.421,15.848 C2.171,15.826 2.946,15.246 2.946,14.532 L2.946,11.928 C2.946,11.928 2.961,11.93 2.968,11.93 C5.268,11.93 6.961,10.155 6.961,7.967 C6.961,7.658 6.921,7.36 6.851,7.072 L10.806,4.74 C11.01,4.842 11.238,4.904 11.484,4.904 C12.304,4.904 12.968,4.267 12.968,3.482 C12.968,2.697 12.305,2.062 11.484,2.062 L11.484,2.062 Z" class="si-glyph-fill"></path>
        </g>
    </g>
</svg>