
<svg viewBox="0 0 17 16" version="1.1" xmlns="http://www.w3.org/2000/svg" xmlns:xlink="http://www.w3.org/1999/xlink" class="si-glyph si-glyph-truck"><title>836</title><defs></defs><g stroke="none" stroke-width="1" fill="none" fill-rule="evenodd"><g transform="translate(1.000000, 3.000000)" fill="#434343"><g transform="translate(3.000000, 0.000000)" class="si-glyph-fill"><ellipse cx="1.438" cy="8.491" rx="1.438" ry="1.491" class="si-glyph-fill"></ellipse><ellipse cx="9.463" cy="8.48" rx="1.463" ry="1.48" class="si-glyph-fill"></ellipse><path d="M4.031,0.062 L4.031,6.947 L7.495,6.947 C7.965,6.337 8.695,5.937 9.525,5.937 C10.356,5.937 11.087,6.336 11.556,6.947 L12.954,6.947 L12.954,0.062 L4.031,0.062 L4.031,0.062 Z" class="si-glyph-fill"></path></g><rect x="7" y="8" width="2.916" height="0.875" class="si-glyph-fill"></rect><rect x="15" y="8" width="0.979" height="1" class="si-glyph-fill"></rect><path d="M1.936,8.521 C1.936,7.094 3.094,5.937 4.521,5.937 C5.062,5.937 5.563,6.104 5.978,6.389 L5.978,2.98 C5.978,2.453 5.575,2.026 5.077,2.026 L1.946,2.026 C1.447,2.026 0.89,2.872 0.89,2.872 C0.89,2.872 0.049,4.377 0.049,5.017 L0.049,8.03 C0.049,8.572 0.445,8.973 0.95,8.973 L1.982,8.973 C1.956,8.824 1.936,8.675 1.936,8.521 L1.936,8.521 Z M1.999,2.929 L5.056,2.95 L5.034,5.062 L1.253,5.062 C1.185,3.786 1.999,2.929 1.999,2.929 L1.999,2.929 Z" class="si-glyph-fill"></path></g></g></svg>