<!--?xml version="1.0" encoding="UTF-8" standalone="no"?-->
<svg viewBox="0 0 17 16" version="1.1" xmlns="http://www.w3.org/2000/svg" xmlns:xlink="http://www.w3.org/1999/xlink" class="si-glyph si-glyph-arrow-fullscreen-2">
    <!-- Generator: Sketch 3.0.3 (7891) - http://www.bohemiancoding.com/sketch -->
    <title>1231</title>
    
    <defs></defs>
    <g stroke="none" stroke-width="1" fill="none" fill-rule="evenodd">
        <path d="M14.988,6.979 C15.547,6.979 16,6.527 16,5.97 L16,1.008 C16,0.45 15.547,-0.000999999989 14.988,-0.000999999989 L10.011,-0.000999999989 C9.452,-0.000999999989 8.999,0.45 8.999,1.008 L10.579,2.583 L8.009,5.153 L5.439,2.583 L7.019,1.008 C7.019,0.45 6.566,-0.000999999989 6.007,-0.000999999989 L1.03,-0.000999999989 C0.471,-0.000999999989 0.0179999999,0.45 0.0179999999,1.008 L0.0179999999,5.97 C0.0179999999,6.527 0.471,6.979 1.03,6.979 L2.62,5.394 L5.194,7.968 L2.598,10.565 L1.028,9 C0.471,9 0.0189999999,9.45 0.0189999999,10.006 L0.0189999999,14.952 C0.0189999999,15.507 0.471,15.958 1.028,15.958 L5.99,15.958 C6.548,15.958 6.999,15.507 6.999,14.952 L5.417,13.375 L8.009,10.783 L10.601,13.375 L9.019,14.952 C9.019,15.507 9.47,15.958 10.028,15.958 L14.99,15.958 C15.547,15.958 15.999,15.507 15.999,14.952 L15.999,10.006 C15.999,9.45 15.547,9 14.99,9 L13.42,10.565 L10.824,7.968 L13.398,5.394 L14.988,6.979 L14.988,6.979 Z" fill="#434343" class="si-glyph-fill"></path>
    </g>
</svg>