
<svg viewBox="0 0 17 16" version="1.1" xmlns="http://www.w3.org/2000/svg" xmlns:xlink="http://www.w3.org/1999/xlink" class="si-glyph si-glyph-note"><title>842</title><defs></defs><g stroke="none" stroke-width="1" fill="none" fill-rule="evenodd"><g transform="translate(1.000000, 0.000000)" fill="#434343"><path d="M13.938,0 L2,0 C0.896,0 0,0.896 0,2 L0,4 L16,4 L15.938,2 C15.938,0.896 15.042,0 13.938,0 Z" class="si-glyph-fill"></path><rect x="0" y="8" width="4" height="2" class="si-glyph-fill"></rect><rect x="0" y="11" width="4" height="2" class="si-glyph-fill"></rect><path d="M4,16 L4,14 L0,14 C0.066,15.045 0.927,16 1.987,16 L4,16 Z" class="si-glyph-fill"></path><rect x="0" y="5" width="4" height="2" class="si-glyph-fill"></rect><path d="M5,5 L5,7 L16,7 L15.938,5 L5,5 Z" class="si-glyph-fill"></path><path d="M5,11 L5,13 L16,13 L15.938,11 L5,11 Z" class="si-glyph-fill"></path><path d="M13.938,16 C15,16 15.935,15.045 16,14 L5,14 L5,16 L13.938,16 Z" class="si-glyph-fill"></path><path d="M5,8 L5,10 L16,10 L15.938,8 L5,8 Z" class="si-glyph-fill"></path></g></g></svg>