<!--?xml version="1.0" encoding="UTF-8" standalone="no"?-->
<svg viewBox="0 0 17 17" version="1.1" xmlns="http://www.w3.org/2000/svg" xmlns:xlink="http://www.w3.org/1999/xlink" class="si-glyph si-glyph-sheep">
    <!-- Generator: Sketch 3.0.3 (7891) - http://www.bohemiancoding.com/sketch -->
    <title>724</title>
    
    <defs></defs>
    <g stroke="none" stroke-width="1" fill="none" fill-rule="evenodd">
        <path d="M12.696,5.459 C12.627,5.439 12.531,5.197 12.328,4.917 C12.33,4.91 12.333,4.904 12.335,4.897 C13.216,4.783 13.888,4.227 13.888,3.554 C13.888,2.882 13.216,2.325 12.335,2.211 C12.177,1.571 11.411,1.084 10.483,1.084 C9.857,1.084 9.305,1.308 8.963,1.65 C8.62,1.307 8.068,1.084 7.443,1.084 C6.514,1.084 5.75,1.571 5.592,2.211 C4.71,2.325 4.04,2.88 4.04,3.554 C4.04,4.227 4.71,4.783 5.592,4.897 C5.598,4.922 5.611,4.944 5.619,4.969 C5.425,5.227 5.321,5.441 5.258,5.459 C4.245,5.755 2.966,6.191 3.122,6.73 C3.28,7.269 4.814,7.707 5.828,7.413 C5.985,7.366 5.007,10.737 5.007,12.511 C5.007,15.823 6.782,17.001 8.975,17.001 C11.168,17.001 12.945,15.823 12.945,12.511 C12.945,10.738 11.966,7.366 12.125,7.413 C13.138,7.707 14.715,7.269 14.873,6.73 C15.031,6.191 13.709,5.755 12.696,5.459 L12.696,5.459 Z M7,9 L8,9 L8,10 L7,10 L7,9 L7,9 Z M10,15 L8,15 L8,14 L10,14 L10,15 L10,15 Z M11,10 L10,10 L10,9 L11,9 L11,10 L11,10 Z" fill="#434343" class="si-glyph-fill"></path>
    </g>
</svg>