<!--?xml version="1.0" encoding="UTF-8" standalone="no"?-->
<svg viewBox="0 0 16 17" version="1.1" xmlns="http://www.w3.org/2000/svg" xmlns:xlink="http://www.w3.org/1999/xlink" class="si-glyph si-glyph-arrow-two-way">
    <!-- Generator: Sketch 3.0.3 (7891) - http://www.bohemiancoding.com/sketch -->
    <title>Arrow-two-way</title>
    
    <defs></defs>
    <g stroke="none" stroke-width="1" fill="none" fill-rule="evenodd">
        <path d="M13.8,10.167 C13.586,9.951 13.235,9.951 13.021,10.167 L13.021,11.055 L9.98,11.055 C9.635,10.982 7.945,10.412 7.945,7.911 C7.945,5.455 9.508,5.017 9.917,4.951 L13,4.951 L13,5.854 C13.215,6.069 13.564,6.069 13.779,5.854 L15.839,4.427 C16.054,4.211 16.054,3.863 15.839,3.648 L13.779,2.167 C13.564,1.951 13.215,1.951 13,2.167 L13,3.014 L9.739,3.02 C8.541,3.151 6.425,4.196 6.028,7.042 L1,7.042 C0.447,7.042 0,7.419 0,7.971 C0,8.524 0.447,8.971 1,8.971 L6.044,8.971 C6.481,11.721 8.574,12.785 9.742,12.96 L13.02,12.97 L13.02,13.833 C13.234,14.048 13.585,14.048 13.799,13.833 L15.838,12.428 C16.053,12.212 16.053,11.864 15.838,11.649 L13.8,10.167 L13.8,10.167 Z" fill="#434343" class="si-glyph-fill"></path>
    </g>
</svg>