<!--?xml version="1.0" encoding="UTF-8" standalone="no"?-->
<svg viewBox="0 0 17 16" version="1.1" xmlns="http://www.w3.org/2000/svg" xmlns:xlink="http://www.w3.org/1999/xlink" class="si-glyph si-glyph-arrow-two-way-left-right">
    <!-- Generator: Sketch 3.0.3 (7891) - http://www.bohemiancoding.com/sketch -->
    <title>1154</title>
    
    <defs></defs>
    <g stroke="none" stroke-width="1" fill="none" fill-rule="evenodd">
        <path d="M16.763,2.989 L14.203,0.385 C13.909,0.085 13.285,0.085 12.992,0.385 L12.992,2.199 C11.533,2.261 9.891,3.112 9,4.343 C8.107,3.113 6.349,2.261 4.891,2.199 L4.891,0.385 C4.596,0.085 3.973,0.085 3.679,0.385 L1.237,2.989 C0.942,3.288 0.942,3.774 1.237,4.074 L3.679,6.677 C3.973,6.977 4.596,6.977 4.891,6.677 L4.891,4.915 C6.292,5.003 8.047,6.17 8.047,7.604 L8.047,14.937 L9.922,14.937 L9.922,7.604 C9.922,6.169 11.59,5.002 12.992,4.915 L12.992,6.677 C13.285,6.977 13.909,6.977 14.203,6.677 L16.763,4.074 C17.058,3.774 17.058,3.288 16.763,2.989 L16.763,2.989 Z" fill="#434343" class="si-glyph-fill"></path>
    </g>
</svg>