<?xml version="1.0" encoding="utf-8"?>
<!-- Generator: Adobe Illustrator 18.0.0, SVG Export Plug-In . SVG Version: 6.00 Build 0)  -->
<!DOCTYPE svg PUBLIC "-//W3C//DTD SVG 1.1//EN" "http://www.w3.org/Graphics/SVG/1.1/DTD/svg11.dtd">
<svg version="1.1" xmlns="http://www.w3.org/2000/svg" xmlns:xlink="http://www.w3.org/1999/xlink" x="0px" y="0px" width="400px"
	 height="300px" viewBox="0 0 400 300" enable-background="new 0 0 400 300" xml:space="preserve">
<g id="Layer_2">
	<rect fill="#2A8A91" width="400" height="300"/>
</g>
<g id="Layer_1">
	<g>
		<g>
			<path fill="#FEFEFE" d="M48.01,55.959H32.093V40.042H48.01V55.959z M33.01,55.042h14.124V40.958H33.01V55.042z"/>
		</g>
		<rect x="34.093" y="42.042" fill="#FEFEFE" width="5.876" height="11.916"/>
		<rect x="41.093" y="42.042" fill="#FEFEFE" width="4.834" height="5.888"/>
		<rect x="41.093" y="49.081" fill="#FEFEFE" width="4.834" height="4.836"/>
	</g>
	<g>
		<g>
			<path fill="#FEFEFE" d="M88.003,57H72.024V41.042h15.979V57z M72.961,56.043h14.105V42H72.961V56.043z"/>
		</g>
		<rect x="74.086" y="43.084" fill="#FEFEFE" width="4.876" height="11.916"/>
		<rect x="81.086" y="43.084" fill="#FEFEFE" width="4.834" height="11.916"/>
	</g>
	<g>
		<g>
			<path fill="#FEFEFE" d="M115.024,46.043v5.938h7.957v-5.938H115.024z M122.045,51.104h-6.084v-4.125h6.084V51.104z"/>
			<rect x="117.043" y="48.085" fill="#FEFEFE" width="3.917" height="1.938"/>
		</g>
		<polygon fill="#FEFEFE" points="123.003,42.042 124.39,43.417 123.005,44.798 124.229,46.014 125.616,44.633 127.003,46.007 
			127.003,42.042 		"/>
		<polygon fill="#FEFEFE" points="113.766,52.082 112.39,53.441 111.003,52.077 111.003,56.011 115.003,56.011 113.616,54.646 
			114.991,53.288 		"/>
		<polygon fill="#FEFEFE" points="113.764,46.013 114.99,44.798 113.61,43.423 115.003,42.042 111.003,42.042 111.003,46.007 
			112.384,44.639 		"/>
		<polygon fill="#FEFEFE" points="124.273,52.122 123.046,53.329 124.384,54.651 123.003,56.011 127.003,56.011 127.003,52.077 
			125.61,53.447 		"/>
	</g>
	<g>
		<g>
			<path fill="#FEFEFE" d="M157.024,46.008v5.938h7.957v-5.938H157.024z M164.045,51.069h-6.084v-4.125h6.084V51.069z"/>
			<rect x="159.043" y="48.05" fill="#FEFEFE" width="3.917" height="1.938"/>
		</g>
		<polygon fill="#FEFEFE" points="153.003,52.007 154.39,53.382 153.005,54.763 154.229,55.979 155.616,54.598 157.003,55.972 
			157.003,52.007 		"/>
		<polygon fill="#FEFEFE" points="167.766,42.047 166.39,43.406 165.003,42.042 165.003,45.976 169.003,45.976 167.616,44.611 
			168.991,43.253 		"/>
		<polygon fill="#FEFEFE" points="167.764,55.978 168.99,54.763 167.61,53.388 169.003,52.007 165.003,52.007 165.003,55.972 
			166.384,54.604 		"/>
		<polygon fill="#FEFEFE" points="154.273,42.087 153.046,43.294 154.384,44.616 153.003,45.976 157.003,45.976 157.003,42.042 
			155.61,43.412 		"/>
	</g>
	<path fill="#FEFEFE" d="M206.033,43.042v-2.959h-2.959v1.021h-10.041v-1.021h-2.959v2.959h1.011v10.041h-1.011v2.959h2.959v-1.021
		h10.041v1.021h2.959v-2.959h-1.031V43.042H206.033z M204.012,40.98h1.084v1.125h-1.084V40.98z M191.012,40.98h1.084v1.125h-1.084
		V40.98z M192.095,55.104h-1.084v-1.125h0.073v0.011h0.917v-0.011h0.094V55.104z M205.095,53.98v1.125h-1.084V53.98h0.073v0.011
		h0.917V53.98H205.095z M204.085,53.083h-1.011v1.021h-10.041v-1.021h-1.031V43.042h1.031v-1.021h10.041v1.021h1.011V53.083z"/>
	<path fill="#FEFEFE" d="M245.003,43.042v-2.959h-2.959v1.021h-3.041v-1.021h-3.959v1.021h-3.041v-1.021h-2.959v1.021v0.916v1.022
		h1.011v3.041h-1.011v3.959h1.011v3.041h-1.011v1.021v0.916v1.022h1.011h0.917h1.031v-1.021h3.041v1.021h3.959v-1.021h3.041v1.021
		h1.011h0.917h1.031v-2.959h-1.031v-3.041h1.031v-3.959h-1.031v-3.041H245.003z M238.065,40.98v1.125h-2.084V40.98H238.065z
		 M244.065,40.98v1.125h-1.084V40.98H244.065z M229.982,40.98h1.084v1.125h-1.084V40.98z M229.972,46.98h1.125v2.125h-1.125V46.98z
		 M231.065,55.126h-1.084v-1.125h1.084V55.126z M235.982,55.104v-1.125h2.084v1.125H235.982z M242.971,55.104V53.99h1.126v1.114
		H242.971z M244.097,49.146h-1.125V46.98h1.125V49.146z M242.044,46.083v3.959h1.011v3.041h-1.011v1.021h-3.041v-1.021h-3.959v1.021
		h-3.041v-1.021h-1.031v-3.041h1.031v-3.959h-1.031v-3.041h1.031v-1.021h3.041v1.021h3.959v-1.021h3.041v1.021h1.011v3.041H242.044z
		"/>
	<g>
		<polygon fill="#FEFEFE" points="281.021,41.018 283.049,41.018 283.049,43.006 283.833,43.006 283.833,40.185 281.021,40.185 		
			"/>
		<polygon fill="#FEFEFE" points="268.896,43.037 268.896,41.018 270.924,41.018 270.924,40.185 268,40.185 268,43.037 		"/>
		<polygon fill="#FEFEFE" points="270.924,55.182 268.937,55.182 268.937,53.109 268,53.109 268,56.037 270.924,56.037 		"/>
		<rect x="283.037" y="45.109" fill="#FEFEFE" width="0.816" height="1.876"/>
		<rect x="283.037" y="49.109" fill="#FEFEFE" width="0.816" height="1.876"/>
		<rect x="277" y="40.136" fill="#FEFEFE" width="1.9" height="0.906"/>
		<rect x="272.985" y="40.136" fill="#FEFEFE" width="1.941" height="0.906"/>
		<rect x="277.041" y="55.136" fill="#FEFEFE" width="1.904" height="0.906"/>
		<rect x="272.985" y="55.136" fill="#FEFEFE" width="1.941" height="0.906"/>
		<rect x="268.032" y="45.109" fill="#FEFEFE" width="0.899" height="1.876"/>
		<rect x="268.032" y="49.109" fill="#FEFEFE" width="0.899" height="1.876"/>
		<polygon fill="#FEFEFE" points="283.068,53.109 283.068,55.182 281.062,55.182 281.062,55.934 283.833,55.934 283.833,53.109 		
			"/>
	</g>
	<g>
		<g>
			<path fill="#FEFEFE" d="M325.911,56.021h-15.917V40.042h15.917V56.021z M310.869,55.042h14.209V40.833h-14.209V55.042z"/>
		</g>
		<rect x="311.994" y="49.124" fill="#FEFEFE" width="4.876" height="4.797"/>
		<rect x="319.015" y="49.104" fill="#FEFEFE" width="4.938" height="4.875"/>
		<rect x="311.994" y="42.124" fill="#FEFEFE" width="4.876" height="4.797"/>
		<rect x="318.994" y="42.125" fill="#FEFEFE" width="4.917" height="4.875"/>
	</g>
	<g>
		<g>
			<path fill="#FEFEFE" d="M361.926,52.98h-9.907v-9.916h9.907V52.98z M352.936,52.104h8.135v-8.229h-8.135V52.104z"/>
		</g>
		<rect x="361.014" y="40.083" fill="#FEFEFE" width="0.959" height="1.943"/>
		<rect x="352.014" y="40.042" fill="#FEFEFE" width="0.959" height="1.984"/>
		<rect x="361.014" y="54.058" fill="#FEFEFE" width="0.938" height="1.922"/>
		<rect x="352.014" y="54.058" fill="#FEFEFE" width="0.959" height="1.984"/>
		<rect x="363.014" y="52.044" fill="#FEFEFE" width="1.875" height="0.994"/>
		<rect x="349.014" y="52.083" fill="#FEFEFE" width="1.855" height="0.918"/>
		<rect x="362.994" y="43.063" fill="#FEFEFE" width="1.98" height="0.938"/>
		<rect x="348.994" y="43.063" fill="#FEFEFE" width="1.938" height="0.957"/>
	</g>
	<path fill="#FEFEFE" d="M85.044,96.761c-1.561,1.638-2.747,1.19-4.694-0.629c-1.611-1.503-2.934-0.58-3.254,0.715
		c-0.324-1.297-1.648-2.218-3.258-0.712c-1.943,1.821-3.129,2.271-4.691,0.636c-0.155,1.646,1.514,3.188,3.725,3.441
		c2.049,0.234,3.846-0.719,4.225-2.168c0.383,1.451,2.179,2.401,4.229,2.163C83.535,99.949,85.201,98.407,85.044,96.761z"/>
	<path fill="#FEFEFE" d="M47.708,98.766c-0.066-0.122-1.613-5.493-4.037-9.289c-0.722-1.129-1.5-2.091-2.308-2.692l-0.364,0.442
		c3.161,3.087,4.869,8.3,5.594,10.609c-0.603-0.048-1.614,0.069-2.063,0.518c-0.442,0.44-0.613,1.133-0.57,1.712
		c-0.026-0.02-0.056-0.04-0.077-0.058c-1.338-1.046-5.919-5.068-8.672-7.611c0.133-0.352,0.266-0.649,0.404-0.911
		c0.064-0.121-0.04-0.382-0.148-0.425c-0.501-0.199-0.856-0.692-0.856-1.273c0-0.758,0.601-1.373,1.345-1.373
		c0.604,0,1.113,0.407,1.281,0.968c0.035,0.116,0.33,0.199,0.479,0.112c0.398-0.234,0.861-0.49,1.408-0.811l-2.096-2.093
		c-1.083-1.081-2.92-1-4.102,0.179s-1.262,3.013-0.178,4.095c0,0,1.988,1.914,2.244,2.151c2.936,2.727,7.797,6.938,9.768,8.402
		c0.023,0.016,0.045,0.034,0.068,0.051c0.435,0.275,0.959,0.363,1.457,0.263c0.387-0.077,0.758-0.267,1.061-0.568
		s0.491-0.672,0.568-1.059C48.006,99.649,47.932,99.175,47.708,98.766z M45.948,101.071c-0.708,0-1.283-0.574-1.283-1.281
		s0.575-1.281,1.283-1.281c0.709,0,1.284,0.574,1.284,1.281S46.657,101.071,45.948,101.071z"/>
	<path fill="#FEFEFE" d="M127.317,90.278l-2.758-2.759c-0.26-0.26-0.683-0.258-0.944,0.005l-0.01,1.963h-8.712
		c-0.738,0-1.336,0.599-1.336,1.335v8.622l-1.912,0.012c-0.26,0.259-0.256,0.681,0.006,0.943l2.787,2.786
		c0.262,0.264,0.685,0.267,0.943,0.006l2.758-2.758c0.26-0.26,0.258-0.756-0.005-1.018l-1.666,0.012v-6.102
		c0-0.738,0.272-0.983,1.011-0.983h6.112l-0.01,1.671c0.26,0.259,0.681,0.257,0.942-0.005l2.789-2.787
		C127.574,90.959,127.576,90.536,127.317,90.278z"/>
	<g>
		<g>
			<path fill="#FEFEFE" d="M162.01,101.353c-0.359-0.002-0.495-0.289-0.494-0.653l0.015-2.784l-2.868-3.092
				c-0.219-0.289-0.163-0.703,0.121-0.925l3.562-2.933c0.136-0.105,0.311-0.154,0.48-0.131c0.17,0.022,0.325,0.113,0.43,0.252
				l1.544,1.805l2.289,1.097c0.335,0.13,0.504,0.511,0.377,0.852c-0.128,0.341-0.503,0.513-0.839,0.383l-2.461-1.163
				c-0.113-0.044-0.211-0.117-0.285-0.215l-1.26-1.429l-2.424,2.127l2.191,2.538c0.086,0.116,0.09,0.214,0.09,0.36l0.017,3.254
				C162.494,101.06,162.369,101.354,162.01,101.353L162.01,101.353z"/>
		</g>
		<g>
			<path fill="#FEFEFE" d="M166.49,96.366c-1.645,0-2.977,1.344-2.977,3.001s1.332,3.001,2.977,3.001s2.978-1.344,2.978-3.001
				S168.135,96.366,166.49,96.366z M166.485,101.43c-1.145,0-2.072-0.923-2.072-2.062s0.928-2.062,2.072-2.062
				c1.141,0,2.069,0.923,2.069,2.062S167.625,101.43,166.485,101.43z"/>
			<path fill="#FEFEFE" d="M156.501,96.407c-1.642,0-2.971,1.33-2.971,2.971c0,1.642,1.329,2.971,2.971,2.971
				c1.64,0,2.971-1.329,2.971-2.971C159.472,97.738,158.141,96.407,156.501,96.407z M156.501,101.447
				c-1.144,0-2.069-0.926-2.069-2.069s0.926-2.069,2.069-2.069c1.142,0,2.069,0.926,2.069,2.069S157.643,101.447,156.501,101.447z"
				/>
		</g>
		<ellipse fill="#FEFEFE" cx="165.004" cy="89.892" rx="1.469" ry="1.486"/>
	</g>
	<g>
		<rect x="189.602" y="90.439" fill="#FEFEFE" width="1.906" height="1.891"/>
		<rect x="201.605" y="101.405" fill="#FEFEFE" width="1.934" height="1.877"/>
		<polygon fill="#FEFEFE" points="201.643,92.314 201.643,97.345 203.55,97.345 203.55,90.423 195.628,90.423 195.628,92.314 		"/>
		<polygon fill="#FEFEFE" points="194.481,98.425 194.481,87.384 192.581,87.384 192.581,100.322 205.581,100.322 205.581,98.425 		
			"/>
	</g>
	<path fill="#FEFEFE" d="M236.975,95.313l4.813-6.343c-1.336-1.026-3.001-1.644-4.813-1.644c-4.38,0-7.931,3.562-7.931,7.957
		c0,4.396,3.551,7.959,7.931,7.959c3.517,0,6.495-2.3,7.533-5.481L236.975,95.313z M235.068,92.72c-0.783,0-1.421-0.636-1.421-1.42
		c0-0.785,0.638-1.422,1.421-1.422c0.784,0,1.422,0.637,1.422,1.422C236.49,92.084,235.853,92.72,235.068,92.72z"/>
	<path fill="#FEFEFE" d="M273.416,101.688h10v-6.062h-10V101.688z M274.458,96.708h7.938v3.917h-7.938V96.708z"/>
	<path fill="#FEFEFE" d="M283.137,86.706h-9.482c-0.691,0-1.238,0.478-1.238,1.178v13.605c0,0.614,0.531,1.178,1.238,1.178h9.482
		c0.842,0,1.238-0.548,1.238-1.178V87.884C284.375,87.184,283.807,86.706,283.137,86.706z M283.416,101.688h-10v-6.062h10V101.688z
		 M283.416,93.688h-10v-6.062h10V93.688z"/>
	<g>
		<polygon fill="#FEFEFE" points="279.458,96.708 279.458,97.707 277.354,97.707 277.354,96.708 274.458,96.708 274.458,100.625 
			282.395,100.625 282.395,96.708 		"/>
	</g>
	<g>
		<polygon fill="#FEFEFE" points="279.458,89.667 277.374,89.667 277.374,88.709 274.416,88.709 274.416,92.667 282.416,92.667 
			282.416,88.709 279.458,88.709 		"/>
	</g>
	<g>
		<path fill="#FEFEFE" d="M357.946,87c-3.016,0-5.46,2.296-5.46,5.13c0,0.732,0.166,1.428,0.458,2.057l5.002,8.668l5-8.668
			c0.294-0.629,0.459-1.324,0.459-2.057C363.405,89.295,360.961,87,357.946,87z M357.969,96.021c-1.957,0-3.542-1.596-3.542-3.567
			c0-1.969,1.585-3.565,3.542-3.565c1.954,0,3.539,1.597,3.539,3.565C361.508,94.425,359.923,96.021,357.969,96.021z"/>
		<path fill="#FEFEFE" d="M360.456,92.483c0,1.376-1.108,2.492-2.479,2.492c-1.367,0-2.477-1.116-2.477-2.492
			c0-1.373,1.109-2.49,2.477-2.49C359.347,89.993,360.456,91.11,360.456,92.483z"/>
	</g>
	<g>
		<path fill="#FEFEFE" d="M319.014,88.261c-0.917,0-1.705-0.27-2.04-1.062c-0.206,0.012-0.735,0.033-0.935,0.067
			c0.383,1.088,1.752,1.873,2.975,1.873s2.58-0.785,2.963-1.873c-0.199-0.034-0.719-0.056-0.922-0.067
			C320.721,87.992,319.932,88.261,319.014,88.261z"/>
	</g>
	<path fill="#FEFEFE" d="M323.389,87.488c-0.82,1.62-2.479,2.742-4.412,2.742c-1.924,0-3.572-1.11-4.398-2.717
		c-2.256,1.016-3.543,3.516-3.543,6.152v0.486h2.988v7.983h9.948v-7.983h3.021v-0.486C326.993,91.002,325.687,88.482,323.389,87.488
		z"/>
	<g>
		
			<rect x="270.292" y="133.704" transform="matrix(0.7069 0.7073 -0.7073 0.7069 174.9436 -152.8037)" fill="#FEFEFE" width="3.112" height="1.97"/>
		<path fill="#FEFEFE" d="M271.002,136.431l3.248,3.249l2.477-2.477l-3.248-3.249L271.002,136.431z"/>
		<path fill="#FEFEFE" d="M274.625,140.963l4.78,5.729l4.247-4.248l-5.729-4.78L274.625,140.963z"/>
		
			<rect x="279.144" y="145.329" transform="matrix(0.707 -0.7072 0.7072 0.707 -20.3282 242.736)" fill="#FEFEFE" width="7.284" height="1.144"/>
	</g>
	<g>
		<path fill="#FEFEFE" d="M229.95,140v8h3v-8H229.95z M231.95,147h-1.021v-2.021h1.021V147z M231.971,144h-1.041v-2.021h1.041V144z"
			/>
		<path fill="#FEFEFE" d="M238.95,137v-2h-1v-3h-1v3h-1v2h-2v11h7v-11H238.95z M235.95,147h-1v-2h1V147z M235.95,144.042h-1V142h1
			V144.042z M235.95,141.042h-1V139h1V141.042z M237.95,147h-1v-2h1V147z M237.95,144.042h-1V142h1V144.042z M237.95,141.042h-1V139
			h1V141.042z M239.95,147h-1v-2h1V147z M239.95,144.042h-1V142h1V144.042z M239.95,141.042h-1V139h1V141.042z"/>
		<path fill="#FEFEFE" d="M241.95,139v9h4v-5L241.95,139z M243.981,147.062h-1.031v-1.094h1.031V147.062z M243.981,145.062h-1.031
			v-1.094h1.031V145.062z M243.981,143.062h-1.031v-1.094h1.031V143.062z"/>
	</g>
	<g>
		<g>
			<path fill="#FEFEFE" d="M168.651,142.863c-0.854,1.147-2.254,2.015-3.696,2.015s-2.907-0.856-3.762-1.989
				c-4.102,0-4.226,5.86-4.226,5.86h15.975C172.941,148.749,173.264,142.863,168.651,142.863z"/>
			<path fill="#FEFEFE" d="M168.391,137.853c0,1.686-1.539,4.91-3.439,4.91c-1.897,0-3.437-3.225-3.437-4.91
				c0-1.685,1.539-3.053,3.437-3.053C166.852,134.801,168.391,136.169,168.391,137.853z"/>
		</g>
		<path fill="#FEFEFE" d="M169.925,136.398c0-0.316-0.44-0.571-0.986-0.573v-0.651c0-0.097,0.037-2.368-3.975-2.368
			c-4.01,0-3.973,2.271-3.973,2.368v0.674c-0.01,0-0.018-0.003-0.027-0.003c-0.543,0-0.98,0.251-0.98,0.562v2.754
			c0,0.309,0.438,0.561,0.98,0.561s0.982-0.252,0.982-0.561v-2.754c0-0.043-0.027-0.082-0.043-0.122v-0.751
			c0-0.069-0.288-1.783,3.061-1.783c3.35,0,3.002,1.714,3.002,1.783v0.791c-0.006,0.025-0.025,0.047-0.025,0.073v2.817
			c0,0.317,0.443,0.574,0.992,0.574c0.012,0,0.021-0.004,0.033-0.004v1.029h-0.984v0.97h1.953L169.925,136.398z"/>
	</g>
	<g>
		<path fill="#FEFEFE" d="M205.974,149.079c0,0.476-1.771,0.861-3.961,0.861c-2.188,0-3.962-0.386-3.962-0.861H205.974z"/>
		<path fill="#FEFEFE" d="M195.067,137.715c-0.926-0.891-1.245-2.974-0.709-3.486c0.533-0.512,1.224,0.267,2.151,1.155
			c0.927,0.89,2.643,2.025,2.107,2.537C198.083,138.435,195.995,138.603,195.067,137.715z"/>
		<path fill="#FEFEFE" d="M209.032,137.674c0.925-0.891,1.244-2.974,0.708-3.486c-0.533-0.512-1.223,0.267-2.15,1.155
			c-0.927,0.89-2.643,2.025-2.107,2.537C206.016,138.394,208.104,138.562,209.032,137.674z"/>
	</g>
	<rect x="200.021" y="140" fill="#FEFEFE" width="0.984" height="0.984"/>
	<rect x="203.021" y="140" fill="#FEFEFE" width="0.984" height="0.984"/>
	<path fill="#FEFEFE" d="M207.298,141.383c0.21-0.499,0.329-1.037,0.329-1.598c0-2.633-2.491-4.765-5.565-4.765
		c-3.076,0-5.566,2.132-5.566,4.765c0,0.548,0.113,1.073,0.312,1.563c-1.031,0.399-1.76,1.343-1.76,2.442v0.826
		c0,1.463,1.985,3.338,3.566,3.338h6.805c1.581,0,3.566-1.875,3.566-3.338v-0.826C208.986,142.717,208.292,141.799,207.298,141.383z
		 M201.068,146.047h-1.094v-1.094h1.094V146.047z M198.862,140.876c0-1.655,0.509-2.999,1.137-2.999
		c0.629,0,1.138,1.344,1.138,2.999C201.136,142.53,198.862,142.53,198.862,140.876z M204.068,146.047h-1.094v-1.094h1.094V146.047z
		 M202.967,140.848c0-1.64,0.479-2.97,1.067-2.97c0.59,0,1.067,1.33,1.067,2.97C205.102,142.485,202.967,142.485,202.967,140.848z"
		/>
	<g>
		<path fill="#FEFEFE" d="M121.963,142.75c1.648,0,2.983-2.459,2.983-4.268c0-0.239-0.024-0.471-0.07-0.695h-5.828
			c-0.045,0.225-0.07,0.456-0.07,0.695C118.977,140.291,120.314,142.75,121.963,142.75z"/>
		<rect x="118.95" y="134.846" fill="#FEFEFE" width="5.943" height="1.927"/>
		<path fill="#FEFEFE" d="M125.716,143.831c-0.169,0.233-0.434,0.42-0.724,0.587v5.328h4.93
			C129.922,149.746,130.238,143.831,125.716,143.831z"/>
		<path fill="#FEFEFE" d="M118.202,143.855c-4.068,0-4.191,5.891-4.191,5.891h9.885v-4.894c-0.98,0.321-1.963,0.426-1.963,0.426
			S119.051,144.994,118.202,143.855z M122.966,148.815h-1.047v-1.094h1.047V148.815z M122.981,146.815h-1.078v-1.062h1.078V146.815z
			"/>
	</g>
	<g>
		<polygon fill="#FEFEFE" points="72.969,133.784 72.969,132.784 72,132.784 72,133.784 71.969,136.815 73.938,136.815 
			73.938,133.784 		"/>
		<polygon fill="#FEFEFE" points="78,132.784 78,133.815 76.969,133.815 76.969,137.815 78.969,137.815 78.969,132.784 		"/>
		<rect x="71" y="134.784" fill="#FEFEFE" width="9.938" height="1"/>
		<rect x="70.969" y="140.846" fill="#FEFEFE" width="4" height="3.875"/>
		<path fill="#FEFEFE" d="M74.969,137.977c0-1.183-0.089-1.142-1.432-1.142h-1.115c-1.344,0-1.453-0.041-1.453,1.142v1.744h4
			V137.977z"/>
		<path fill="#FEFEFE" d="M70.969,147.61c0,1.184,0.109,1.143,1.453,1.143h1.115c1.343,0,1.432,0.041,1.432-1.143v-1.764h-4V147.61z
			"/>
		<path fill="#FEFEFE" d="M79.969,137.977c0-1.183-0.129-1.142-1.443-1.142h-1.092c-1.315,0-1.465-0.041-1.465,1.142v1.744h4
			V137.977z"/>
		<path fill="#FEFEFE" d="M75.969,147.61c0,1.184,0.149,1.143,1.465,1.143h1.092c1.314,0,1.443,0.041,1.443-1.143v-1.764h-4V147.61z
			"/>
		<rect x="75.969" y="140.846" fill="#FEFEFE" width="4" height="3.875"/>
		<rect x="70" y="138.815" fill="#FEFEFE" width="0.969" height="2.938"/>
		<rect x="79.969" y="138.815" fill="#FEFEFE" width="0.969" height="2.938"/>
		<rect x="79.969" y="143.815" fill="#FEFEFE" width="0.969" height="2.938"/>
		<rect x="70" y="143.815" fill="#FEFEFE" width="0.969" height="2.938"/>
		<g>
			<path fill="#FEFEFE" d="M84.719,146.815c-0.506,0-0.955-0.195-1.336-0.58c-1.725-1.744-1.349-4.514-1.349-6.392
				c0-0.729-0.065-1.469-0.065-2.024c0-1.348-0.219-2.104-0.962-2.104L81,134.878c0,0,1.969-0.594,1.969,2.934
				c0,0.562-0.003,1.23-0.012,1.966c-0.041,3.481-0.294,4.308,1.137,5.755c0.191,0.193,0.389,0.283,0.625,0.283V146.815z"/>
		</g>
		<ellipse fill="#FEFEFE" cx="84.453" cy="146.284" rx="1.484" ry="1.469"/>
	</g>
	<path fill="#FEFEFE" d="M46.457,140.638c-0.39-0.193-0.847-0.089-1.023,0.231c0,0-1.096,2.399-1.734,2.297
		c-0.344-0.056-0.619-0.38-0.742-1.005v-6.544c0-0.426-0.439-0.771-0.98-0.771c-0.54,0-1.02,0.346-1.02,0.771v5.167h-1v-6.167
		c0-0.426-0.439-0.771-0.98-0.771c-0.54,0-1.02,0.346-1.02,0.771v6.167h-1v-4.167c0-0.426-0.44-0.771-0.981-0.771
		c-0.54,0-1.019,0.346-1.019,0.771c0,0,0,7.047,0,8.415c0,2.584,1.729,4.721,5.678,4.721c4.883,0,6.205-8.188,6.205-8.188
		C47.015,141.245,46.844,140.829,46.457,140.638z"/>
	<g>
		<path fill="#FEFEFE" d="M323.577,137.056c0.652-0.652,1.076-1.076,1.076-1.076l-0.91-0.91c0,0-1.053,1.053-2.431,2.431
			l-0.699-0.698l-0.658,0.66l0.697,0.697c-0.423,0.423-0.864,0.864-1.305,1.305l-0.667-0.667l-0.721,0.722l0.666,0.667
			c-0.452,0.452-0.889,0.889-1.302,1.302l-0.603-0.603l-0.691,0.691l0.603,0.603c-0.69,0.69-1.25,1.25-1.538,1.538
			c-1.369,1.369-4.321,2.119-5.1,1.34c0,0,0.396,1.366,1.836,2.805c1.438,1.439,2.834,1.865,2.834,1.865
			c-0.779-0.778-0.008-3.752,1.34-5.099c0.248-0.248,0.7-0.701,1.27-1.27l1.037,1.036c0.231,0.231,0.54,0.342,0.875,0.342
			c0.483,0,1.021-0.231,1.463-0.672l3.636-3.637c0.427-0.426,0.671-0.959,0.671-1.463c0-0.349-0.119-0.651-0.341-0.874
			L323.577,137.056z M323.712,139.857l-3.636,3.637c-0.45,0.447-0.991,0.532-1.193,0.33l-1.037-1.036
			c1.571-1.571,3.7-3.701,5.159-5.16l1.037,1.036c0.086,0.086,0.104,0.212,0.104,0.302
			C324.145,139.248,323.979,139.59,323.712,139.857z"/>
		<path fill="#FEFEFE" d="M325.846,135.05l-1.188-1.188c-0.092-0.093-0.299-0.037-0.461,0.126s-0.219,0.369-0.127,0.462l1.189,1.188
			c0.094,0.092,0.301,0.036,0.461-0.126C325.885,135.348,325.939,135.143,325.846,135.05z"/>
	</g>
	<g>
		<path fill="#FEFEFE" d="M360.238,138.748h-0.283v-5h-1.976v5h-0.35c-1.471,0-4.661,1.147-4.661,2.563v4.428
			c0,1.415,1.193,2.009,2.664,2.009h6.603c1.472,0,2.663-0.594,2.663-2.009v-4.428C364.898,139.895,361.707,138.748,360.238,138.748
			z M355.985,143.794h-2.079v-1.703c0-0.385,0.454-1.343,1.51-1.343h0.569V143.794z M361.001,146.08c0,0.37-0.294,0.669-0.656,0.669
			h-2.788c-0.361,0-0.655-0.299-0.655-0.669v-4.759c0-0.369,0.294-0.573,0.655-0.573h2.788c0.362,0,0.656,0.204,0.656,0.573V146.08z
			 M363.996,143.794h-2.101v-3.046h0.576c1.146,0,1.524,0.972,1.524,1.354L363.996,143.794L363.996,143.794z"/>
		<g>
			<path fill="#FEFEFE" d="M352.637,136.678c-0.367,0-0.666-0.273-0.666-0.612s0.299-0.613,0.666-0.613
				c5.575,0,11.077-0.985,14.358-2.573c0.327-0.158,0.728-0.042,0.899,0.258c0.171,0.299,0.045,0.67-0.28,0.827
				C364.154,135.639,358.415,136.678,352.637,136.678z"/>
		</g>
	</g>
	<g>
		<g>
			<path fill="#FEFEFE" d="M38.918,186.768c-3.049-1.452-4.027-0.414-5.969,0.783v7.445c1.941-1.205,3.434-1.969,5.969-0.651
				V186.768z"/>
			<path fill="#FEFEFE" d="M39.976,186.786v7.591c3.352-1.361,4.035-0.549,5.957,0.651v-7.458
				C44.011,186.376,43.396,185.302,39.976,186.786z"/>
		</g>
		<g>
			<polygon fill="#FEFEFE" points="47.887,197.028 31,197.028 31,187.077 31.902,187.077 31.902,196.106 46.98,196.106 
				46.98,187.122 47.887,187.122 			"/>
		</g>
	</g>
	<g>
		<path fill="#FEFEFE" d="M71.088,190.239c0.52,0.449,1.195,0.722,1.936,0.722c1.635,0,2.961-1.321,2.961-2.95
			c0-0.506-0.127-0.981-0.353-1.396c-0.501-0.925-1.481-1.555-2.608-1.555c-1.635,0-2.961,1.32-2.961,2.951
			C70.063,188.901,70.462,189.698,71.088,190.239z M74.504,189.872l-1.3-1.286c0.2-0.069,0.344-0.245,0.38-0.46l1.332,1.318
			C74.799,189.602,74.661,189.746,74.504,189.872z M73.266,185.706c0.197,0.021,0.389,0.072,0.574,0.141l-0.39,1.791
			c-0.108-0.123-0.259-0.202-0.434-0.202c-0.048,0-0.091,0.017-0.135,0.027L73.266,185.706z M70.758,188.505l1.723-0.596
			c-0.006,0.035-0.02,0.066-0.02,0.102c0,0.187,0.092,0.346,0.226,0.453l-1.733,0.599c-0.051-0.099-0.102-0.199-0.139-0.309
			C70.787,188.672,70.776,188.587,70.758,188.505z"/>
		<path fill="#FEFEFE" d="M83.001,191.012c0.721,0,1.382-0.258,1.898-0.684c0.654-0.544,1.07-1.361,1.07-2.276
			c0-1.634-1.328-2.961-2.969-2.961c-1.132,0-2.115,0.631-2.616,1.559c-0.226,0.419-0.354,0.894-0.354,1.402
			C80.031,189.686,81.36,191.012,83.001,191.012z M84.53,189.919l-1.303-1.303c0.199-0.07,0.344-0.248,0.381-0.466l1.334,1.335
			C84.825,189.646,84.686,189.791,84.53,189.919z M83.286,185.7c0.199,0.019,0.391,0.072,0.578,0.142l-0.391,1.813
			c-0.109-0.123-0.26-0.205-0.434-0.205c-0.051,0-0.092,0.017-0.136,0.028L83.286,185.7z M80.821,188.809
			c-0.025-0.083-0.037-0.168-0.055-0.254l1.705-0.606c-0.006,0.036-0.021,0.067-0.021,0.104c0,0.188,0.091,0.352,0.224,0.462
			l-1.715,0.611C80.909,189.024,80.857,188.921,80.821,188.809z"/>
		<path fill="#FEFEFE" d="M80.036,191.573c-0.947-0.818-1.549-2.025-1.549-3.373c0-0.587,0.116-1.596,0.322-2.109h-1.67
			c0.207,0.514,0.322,1.522,0.322,2.109c0,2.465-2.004,4.465-4.476,4.465c-0.854,0-2.222-0.24-2.899-0.655v3.606
			c0,0.828,1.168,1.381,1.902,1.381h11.973c0.734,0,2-0.553,2-1.381v-3.607c-0.68,0.413-2.145,0.656-3,0.656
			C81.841,192.665,80.82,192.252,80.036,191.573z M73.04,195.09h-1.078v-1.104h1.078V195.09z M75.055,195.06h-1.071v-1.073h1.071
			V195.06z M79.024,193.059h-2.062v-1.094h2.062V193.059z M82.055,195.059h-1.094v-1.062h1.094V195.059z M82.977,193.997h1.062
			v1.078h-1.062V193.997z"/>
	</g>
	<path fill="#FEFEFE" d="M126.863,189.02c-0.237,0-0.621,0.076-0.994,0.199c-0.145-1.065-0.564-2.039-1.193-2.853
		c0.354-0.177,0.68-0.396,0.848-0.563c0.412-0.412,0.434-1.059,0.051-1.441c-0.385-0.385-1.031-0.362-1.442,0.049
		c-0.169,0.17-0.39,0.499-0.566,0.854c-0.814-0.625-1.79-1.041-2.858-1.179c0.126-0.376,0.203-0.763,0.203-1.002
		c0-0.582-0.441-1.055-0.984-1.055s-0.984,0.473-0.984,1.055c0,0.24,0.078,0.63,0.204,1.007c-1.065,0.143-2.04,0.558-2.854,1.184
		c-0.177-0.354-0.396-0.683-0.566-0.852c-0.411-0.412-1.057-0.434-1.441-0.05s-0.361,1.03,0.05,1.441
		c0.169,0.169,0.499,0.39,0.854,0.566c-0.626,0.814-1.042,1.789-1.185,2.856c-0.373-0.125-0.76-0.201-0.997-0.201
		c-0.582,0-1.055,0.441-1.055,0.984s0.473,0.984,1.055,0.984c0.237,0,0.622-0.076,0.995-0.2c0.141,1.067,0.559,2.041,1.186,2.856
		c-0.351,0.176-0.676,0.394-0.842,0.561c-0.412,0.412-0.434,1.058-0.051,1.441c0.385,0.385,1.031,0.362,1.442-0.049
		c0.167-0.167,0.383-0.488,0.56-0.837c0.814,0.626,1.791,1.038,2.859,1.179c-0.123,0.37-0.197,0.751-0.197,0.986
		c0,0.582,0.441,1.055,0.984,1.055s0.984-0.473,0.984-1.055c0-0.235-0.074-0.615-0.196-0.985c1.067-0.142,2.042-0.563,2.856-1.19
		c0.176,0.348,0.391,0.67,0.557,0.836c0.412,0.412,1.059,0.434,1.443,0.051c0.384-0.385,0.361-1.031-0.051-1.442
		c-0.166-0.166-0.488-0.382-0.836-0.558c0.633-0.822,1.049-1.78,1.181-2.859c0.37,0.121,0.749,0.195,0.983,0.195
		c0.582,0,1.055-0.441,1.055-0.984S127.445,189.02,126.863,189.02z M123.634,186.907c0.628,0.746,1.034,1.682,1.12,2.709
		l-3.534,0.321c-0.02-0.268-0.125-0.51-0.293-0.704L123.634,186.907z M120.78,189.086c-0.193-0.163-0.437-0.269-0.706-0.3
		l0.28-3.582c1.03,0.089,1.968,0.502,2.714,1.136L120.78,189.086z M119.568,185.202l0.3,3.574c-0.282,0.011-0.54,0.107-0.749,0.264
		l-2.301-2.713C117.572,185.689,118.524,185.281,119.568,185.202z M116.246,186.898l2.707,2.288
		c-0.19,0.201-0.311,0.461-0.332,0.748l-3.505-0.299C115.199,188.596,115.609,187.65,116.246,186.898z M118.626,190.16
		c0.032,0.282,0.157,0.536,0.354,0.729l-2.712,2.282c-0.642-0.747-1.061-1.689-1.149-2.728L118.626,190.16z M119.146,191.027
		c0.205,0.146,0.455,0.233,0.728,0.243l-0.3,3.574c-1.035-0.077-1.98-0.478-2.734-1.105L119.146,191.027z M120.361,194.84
		l-0.288-3.58c0.262-0.03,0.499-0.132,0.689-0.287l2.319,2.72C122.336,194.333,121.395,194.751,120.361,194.84z M123.645,193.126
		l-2.735-2.292c0.17-0.189,0.279-0.427,0.307-0.688l3.539,0.27C124.671,191.442,124.271,192.379,123.645,193.126z"/>
	<polygon fill="#FEFEFE" points="166.972,183.059 166.972,186.997 170.843,186.997 	"/>
	<path fill="#FEFEFE" d="M162.433,192.049c-1.367,0-2.477,1.11-2.477,2.477c0,0.515,0.158,0.993,0.428,1.39l-2.385,2.385
		l0.707,0.707l2.398-2.398c0.385,0.246,0.838,0.394,1.328,0.394c1.366,0,2.477-1.11,2.477-2.477S163.799,192.049,162.433,192.049z
		 M162.457,196.127c-0.87,0-1.578-0.708-1.578-1.578s0.708-1.578,1.578-1.578c0.869,0,1.578,0.708,1.578,1.578
		S163.326,196.127,162.457,196.127z"/>
	<path fill="#FEFEFE" d="M165.879,188.12v-5.023h-7.896v13.807l1.059-1.059c-0.16-0.409-0.256-0.851-0.256-1.316
		c0-2.002,1.623-3.625,3.625-3.625s3.625,1.623,3.625,3.625s-1.623,3.625-3.625,3.625c-0.428,0-0.832-0.088-1.213-0.223
		l-1.035,1.035h10.717V188.12H165.879z"/>
	<g>
		<polygon fill="#FEFEFE" points="202.044,183.059 202.044,186.997 205.915,186.997 		"/>
		<path fill="#FEFEFE" d="M200.951,188.12v-5.023h-6.896v15.869h11.896V188.12H200.951z M197.075,191.049h-1.124v-1.083h1.124
			V191.049z M197.075,193.049h-1.124v-1.083h1.124V193.049z M197.075,195.049h-1.124v-1.083h1.124V195.049z M203.096,195.111h-5.125
			v-1.166h5.125V195.111z M203.096,193.111h-5.125v-1.166h5.125V193.111z M203.096,191.111h-5.125v-1.166h5.125V191.111z"/>
	</g>
	<path fill="#FEFEFE" d="M326.939,186.012h-7.047l-2.004-1.823c-0.251-0.251-0.659-0.251-0.911,0v1.823h-2.026
		c-1.102,0-1.998,0.897-1.998,2v3.969c0,1.103,0.896,2,1.998,2h7.238l1.826,1.828c0.252,0.251,0.661,0.251,0.912,0v-1.828h2.012
		c1.102,0,1.998-0.897,1.998-2v-3.969C328.937,186.909,328.041,186.012,326.939,186.012z M324.015,190.199l-1.912,1.828h-7.166
		v-4.062h2.04v1.746c0.253,0.259,0.661,0.259,0.911,0l1.879-1.746h7.201l0.002,4.062h-2.043v-1.828
		C324.676,189.94,324.267,189.94,324.015,190.199z"/>
	<g>
		<path fill="#FEFEFE" d="M280.939,186.09v-1.031h-8.887v1.031h-3.029v4.836c0,1.869,2.025,3.407,4.072,3.567
			c0.672,0.72,1.854,1.243,2.906,1.466v1.264c-1.006,0.309-2.65,0.871-2.753,1.662h2.082h2.274h2.082
			c-0.104-0.791-1.771-1.354-2.779-1.662v-1.264c1.056-0.223,2.291-0.746,2.964-1.466c2.046-0.16,4.04-1.698,4.04-3.567v-4.836
			H280.939z M269.911,190.231v-3.281h2.069v4.222c0,0.822,0.212,1.604,0.585,2.308C271.017,192.987,269.911,191.717,269.911,190.231
			z M278.32,192.087l-1.852-0.851l-1.854,0.851l0.354-1.8l-1.499-1.274l2.071-0.263l0.928-1.636l0.926,1.636l2.071,0.263
			l-1.498,1.274L278.32,192.087z M282.974,190.219c0,1.553-1.111,2.879-2.664,3.394c0.375-0.736,0.59-1.55,0.59-2.411v-4.225h2.074
			V190.219z"/>
	</g>
	<g>
		<path fill="#FEFEFE" d="M239.999,182.996c-4.38,0-7.932,3.582-7.932,8s3.552,8,7.932,8c4.381,0,7.932-3.582,7.932-8
			S244.38,182.996,239.999,182.996z M240.017,198.058c-3.9,0-7.064-3.17-7.064-7.083c0-3.912,3.164-7.083,7.064-7.083
			s7.064,3.171,7.064,7.083C247.081,194.889,243.917,198.058,240.017,198.058z"/>
		<path fill="#FEFEFE" d="M234.978,185.68c-0.27,1.344,0.735,3.399,2.872,3.899c2.136,0.5,1.218,0.084,0.886-0.583
			c-0.334-0.667-0.035-1.167,0.482-1.333c0.518-0.167,0.387,0.293,1.155-0.667c0.194-2-1.472-0.027-1.638-0.86
			c1.65-1.917-0.766-2.64-1.467-2.39S235.248,184.335,234.978,185.68z"/>
		<path fill="#FEFEFE" d="M238.892,190.69c-0.124,0.055-0.702,0.416-0.901,0.666s-0.286,0.778,0,1
			c0.286,0.223-0.016,1.279,0.755,1.473c0.771,0.194,1.543,0.307,1.572,0.917c0.027,0.61-0.072,2.027-0.443,2.167
			c0.5,0.277,1.717-1.195,2.145-1.973c0.429-0.777,0.572-1.889,0.543-2.167c-0.029-0.277,0.171-0.86,0.257-1.61
			c0.085-0.75-0.57-0.8-0.655-1.133C242.078,189.696,241.962,189.329,238.892,190.69z"/>
		<path fill="#FEFEFE" d="M245.144,186.996c0,0-2.012,0.861-0.644,2.14c1.366,1.277,2.062,2.49,1.995,2.768
			c-0.062,0.276-1.38,1.706-0.623,1.594c0.761-0.111,1.322-1.611,1.443-2.501c0.119-0.89-0.924-2.639-0.967-2.777
			C246.312,188.079,245.626,187.011,245.144,186.996z"/>
	</g>
	<path fill="#FEFEFE" d="M365.743,186.473l-3.906-3.25c-0.277-0.288-0.593-0.335-0.871-0.048c0,0,0.037,2.19,0.006,2.19
		c-0.68,0-1.083,0.113-1.7,0.314c-0.822,0.271-1.572,0.706-2.208,1.268c-1.276,1.123-2.093,2.402-2.093,4.213
		c0,1.182,0.523,0.752,0.742,0.339c1.035-1.945,2.923-2.928,5.281-2.928c0.03,0-0.001,2.146-0.001,2.146
		c0.278,0.287,0.628,0.253,0.869,0.047l3.881-3.25C366.021,187.225,366.021,186.761,365.743,186.473z"/>
	<path fill="#FEFEFE" d="M363.945,192.036v4.983h-13.062v-9.125h5.215c0.276-0.312,0.621-0.717,1.223-0.919h-7.368v10.964h14.962
		v-6.724L363.945,192.036z"/>
	<g>
		<path fill="#FEFEFE" d="M38.011,236.05h-5.936v15.896h11.912v-10.922H38.01L38.011,236.05L38.011,236.05z M41.1,248.574
			c0,0.367-0.096,0.554-0.288,0.554c-0.205,0-0.349-0.255-0.377-0.306c-0.519-0.963-2.046-1.779-3.361-1.805v0.905l-0.039,0.038
			c-0.097,0.099-0.251,0.155-0.429,0.155c-0.156,0-0.304-0.045-0.393-0.118l-2.108-1.603c-0.201-0.207-0.201-0.546,0-0.756
			l2.097-1.613c0.106-0.108,0.273-0.172,0.447-0.172c0.158,0,0.293,0.051,0.386,0.146l0.039,0.039v0.954
			C38.947,245.018,41.1,246.574,41.1,248.574z"/>
		<polygon fill="#FEFEFE" points="39.062,236.008 39.062,239.986 44.008,239.986 		"/>
	</g>
	<g>
		<path fill="#FEFEFE" d="M76.049,236.05h-5.936v15.896h11.912v-10.922h-5.977L76.049,236.05L76.049,236.05z M77.018,244.992v-0.953
			L77.057,244c0.093-0.095,0.228-0.146,0.386-0.146c0.174,0,0.341,0.063,0.447,0.172l2.097,1.613c0.201,0.21,0.201,0.549,0,0.756
			l-2.108,1.603c-0.089,0.073-0.236,0.118-0.393,0.118c-0.178,0-0.332-0.057-0.429-0.155l-0.039-0.038v-0.905
			c-1.315,0.025-2.843,0.842-3.361,1.805c-0.029,0.051-0.173,0.306-0.377,0.306c-0.192,0-0.288-0.187-0.288-0.554
			C72.992,246.574,75.145,245.018,77.018,244.992z"/>
		<polygon fill="#FEFEFE" points="77.1,236.008 77.1,239.986 82.046,239.986 		"/>
	</g>
	<g>
		<rect x="273.16" y="235.008" fill="#FEFEFE" width="1.8" height="15.913"/>
		<path fill="#FEFEFE" d="M276.114,235.528v7.575c0,0,1.611-1.431,5.188-0.095c3.576,1.338,4.305,0.974,5.712,0.742
			c0,0-2.048-0.871-3.222-4.029c0,0,2.987-2.755,3.222-4.274c0,0-3.7,1.212-5.751,0.241
			C279.21,234.715,277.052,234.919,276.114,235.528z"/>
	</g>
	<g>
		<polygon fill="#FEFEFE" points="323.063,236.106 313.155,236.106 313.155,239.044 314.032,239.044 314.032,237.013 
			322.121,237.013 322.121,244.076 319.157,244.076 319.157,247.027 323.063,247.027 		"/>
		<path fill="#FEFEFE" d="M308.16,240.137V251h9.871v-10.863H308.16z M317.125,248.106h-8.064v-7.111h8.064V248.106z"/>
	</g>
	<path fill="#FEFEFE" d="M350.042,242.587l14.916-3.523l-0.98-4.056l-14.915,3.523L350.042,242.587z M361.55,238.99l-1.448-2.312
		l2.01-0.486l1.449,2.312L361.55,238.99z M358.2,239.8l-1.449-2.312l2.009-0.485l1.45,2.312L358.2,239.8z M354.848,240.61
		l-1.448-2.312l2.01-0.485l1.449,2.312L354.848,240.61z M351.499,241.42l-1.449-2.312l2.009-0.485l1.449,2.312L351.499,241.42z"/>
	<path fill="#FEFEFE" d="M350.145,242.67v7.95H365v-7.95H350.145z M356.967,248.8v-4.25l3.232,2.169L356.967,248.8z"/>
	<g>
		<path fill="#FFFFFF" d="M127.86,240.559c0-2.45-2.656-4.438-5.93-4.438c-3.273,0-5.93,1.987-5.93,4.438
			c0,2.236,2.215,4.082,5.092,4.387l-1.221,2.435l4.249-2.7C126.309,244.027,127.86,242.43,127.86,240.559z"/>
		<path fill="#FFFFFF" d="M131.938,244.89c0-1.124-1.062-2.288-2.289-2.868c-0.344,1.95-1.924,3.745-4.417,4.447l-1.187,0.642
			c0.454,0.34,1.01,0.611,1.634,0.788l3.638,1.971l-1.303-1.776C130.231,247.869,131.938,246.523,131.938,244.89z"/>
	</g>
	<g>
		<path fill="#FFFFFF" d="M167.662,237.017h-2.375c-0.718,0-1.296,0.591-1.296,1.317v10.342c0,0.727,0.578,1.317,1.296,1.317h2.375
			c0.717,0,1.297-0.591,1.297-1.317v-10.342C168.959,237.607,168.379,237.017,167.662,237.017z M166.495,249.007
			c-0.849,0-1.539-0.685-1.539-1.534c0-0.846,0.69-1.535,1.539-1.535c0.854,0,1.541,0.689,1.541,1.535
			C168.036,248.322,167.348,249.007,166.495,249.007z M166.505,244.999c-0.843,0-1.528-0.687-1.528-1.534s0.686-1.533,1.528-1.533
			c0.849,0,1.531,0.687,1.531,1.533C168.036,244.312,167.353,244.999,166.505,244.999z M166.483,240.993
			c-0.805,0-1.461-0.668-1.461-1.491c0-0.824,0.656-1.494,1.461-1.494c0.812,0,1.464,0.67,1.464,1.494
			C167.947,240.325,167.295,240.993,166.483,240.993z"/>
		<path fill="#FFFFFF" d="M170.632,240.979h0.524c0.337,0,1.811-2.194,1.811-2.194c0-0.418-0.274-0.76-0.611-0.76h-1.724
			c-0.338,0-0.611,0.342-0.611,0.76v1.434C170.02,240.638,170.294,240.979,170.632,240.979z"/>
		<path fill="#FFFFFF" d="M172.355,242.019h-1.726c-0.336,0-0.609,0.339-0.609,0.756v1.423c0,0.418,0.273,0.756,0.609,0.756h0.524
			c0.337,0,1.812-2.179,1.812-2.179C172.966,242.357,172.69,242.019,172.355,242.019z"/>
		<path fill="#FFFFFF" d="M172.335,246.033h-1.725c-0.336,0-0.61,0.342-0.61,0.761v1.433c0,0.422,0.274,0.761,0.61,0.761h0.525
			c0.336,0,1.811-2.193,1.811-2.193C172.946,246.375,172.672,246.033,172.335,246.033z"/>
		<path fill="#FFFFFF" d="M162.346,238.024h-1.715c-0.334,0-0.605,0.337-0.605,0.749c0,0,1.463,2.163,1.799,2.163h0.521
			c0.335,0,0.605-0.337,0.605-0.749v-1.414C162.952,238.361,162.681,238.024,162.346,238.024z"/>
		<path fill="#FFFFFF" d="M162.366,242.039h-1.715c-0.334,0-0.605,0.339-0.605,0.756c0,0,1.463,2.178,1.799,2.178h0.521
			c0.334,0,0.605-0.338,0.605-0.756v-1.422C162.971,242.378,162.7,242.039,162.366,242.039z"/>
		<path fill="#FFFFFF" d="M162.368,246.054h-1.716c-0.334,0-0.606,0.332-0.606,0.739c0,0,1.463,2.131,1.799,2.131h0.523
			c0.334,0,0.604-0.33,0.604-0.739v-1.392C162.972,246.386,162.702,246.054,162.368,246.054z"/>
		<rect x="164.998" y="249.852" fill="#FFFFFF" width="2.973" height="3.128"/>
	</g>
	<g>
		<g>
			<path fill="#FFFFFF" d="M209.185,251.958h-12.429c-1.449,0-1.729-1.15-1.729-2.564v-8.787c0-1.414,0.279-2.564,1.729-2.564
				h12.429c1.448,0,1.728,1.15,1.728,2.564v8.787C210.913,250.808,210.634,251.958,209.185,251.958z M196.914,239
				c-0.509,0-0.923,0.426-0.923,0.948v10.104c0,0.522,0.414,0.948,0.923,0.948h12.154c0.509,0,0.923-0.426,0.923-0.948v-10.104
				c0-0.522-0.414-0.948-0.923-0.948H196.914z"/>
		</g>
		<rect x="198.012" y="238.385" fill="#FFFFFF" width="0.948" height="13.068"/>
		<rect x="203.012" y="238.385" fill="#FFFFFF" width="0.948" height="13.068"/>
		<rect x="207.012" y="238.385" fill="#FFFFFF" width="0.948" height="13.068"/>
		<ellipse fill="#FFFFFF" cx="198.512" cy="242.977" rx="1.438" ry="0.976"/>
		<ellipse fill="#FFFFFF" cx="198.512" cy="245.977" rx="1.438" ry="0.976"/>
		<ellipse fill="#FFFFFF" cx="198.512" cy="248.977" rx="1.438" ry="0.976"/>
		<ellipse fill="#FFFFFF" cx="203.468" cy="240.977" rx="1.477" ry="0.976"/>
		<ellipse fill="#FFFFFF" cx="203.468" cy="243.977" rx="1.477" ry="0.976"/>
		<ellipse fill="#FFFFFF" cx="203.468" cy="248.977" rx="1.477" ry="0.976"/>
		<ellipse fill="#FFFFFF" cx="207.551" cy="245.977" rx="1.435" ry="0.977"/>
		<ellipse fill="#FFFFFF" cx="207.551" cy="248.977" rx="1.435" ry="0.977"/>
	</g>
	<path fill="#FFFFFF" d="M250.886,248.062h-1.938v-7.955h-2.977v-1h-0.995V237c0-0.553-0.445-1-0.996-1c-0.55,0-0.905,0.447-0.905,1
		v2.107h-0.995v1h-3.066v7.955h-1.938v0.875l3.064,0.062l-0.985,2.709c-0.185,0.52-0.002,1.047,0.516,1.232
		c0.519,0.186,0.957-0.15,1.143-0.67l1.115-3.271h1.147v3c0,0.553,0.355,1,0.905,1c0.551,0,0.996-0.447,0.996-1v-3h1.089
		l1.064,3.334c0.185,0.52,0.646,0.793,1.162,0.607c0.519-0.186,0.702-0.691,0.518-1.213l-0.956-2.729l3.033-0.062L250.886,248.062
		L250.886,248.062z M239.941,240.979h2.073v0.938h3.894v-0.938h2.132v7.084h-8.099V240.979z"/>
</g>
</svg>
